<?xml version="1.0" encoding="utf-8"?>
<!-- Generator: Adobe Illustrator 24.2.3, SVG Export Plug-In . SVG Version: 6.00 Build 0)  -->
<svg version="1.1" id="Calque_1" xmlns="http://www.w3.org/2000/svg" xmlns:xlink="http://www.w3.org/1999/xlink" x="0px" y="0px"
	 viewBox="0 0 288.4 404.9" style="enable-background:new 0 0 288.4 404.9;" xml:space="preserve">
<style type="text/css">
	.st0{fill:#FFFFFF;}
	.st1{fill:#3A8980;}
</style>
<path class="st0" d="M0,0v404.9h288.4V0H0z M269.9,380.3H19V23.7h250.9V380.3z"/>
<polygon class="st1" points="0.4,404 0,404.8 0.4,405 0.5,404.9 0.4,404.9 "/>
<polygon class="st1" points="6.5,405 6.6,404.9 6.3,404.9 "/>
<polygon class="st1" points="12.6,405 12.6,404.9 12.3,404.9 "/>
<polygon class="st1" points="18.6,405 18.7,404.9 18.4,404.9 "/>
<polygon class="st1" points="24.7,405 24.8,404.9 24.5,404.9 "/>
<polygon class="st1" points="30.8,405 30.8,404.9 30.5,404.9 "/>
<polygon class="st1" points="36.8,405 36.9,404.9 36.6,404.9 "/>
<polygon class="st1" points="42.9,405 43,404.9 42.7,404.9 "/>
<polygon class="st1" points="49,405 49,404.9 48.7,404.9 "/>
<polygon class="st1" points="55,405 55.1,404.9 54.8,404.9 "/>
<polygon class="st1" points="61.1,405 61.2,404.9 60.9,404.9 "/>
<polygon class="st1" points="67.2,405 67.2,404.9 66.9,404.9 "/>
<polygon class="st1" points="73.2,405 73.3,404.9 73,404.9 "/>
<polygon class="st1" points="79.3,405 79.4,404.9 79.1,404.9 "/>
<polygon class="st1" points="85.4,405 85.4,404.9 85.1,404.9 "/>
<polygon class="st1" points="91.4,405 91.5,404.9 91.2,404.9 "/>
<polygon class="st1" points="97.5,405 97.6,404.9 97.3,404.9 "/>
<polygon class="st1" points="103.6,405 103.6,404.9 103.3,404.9 "/>
<polygon class="st1" points="109.6,405 109.7,404.9 109.4,404.9 "/>
<polygon class="st1" points="115.7,405 115.8,404.9 115.5,404.9 "/>
<polygon class="st1" points="121.8,405 121.8,404.9 121.5,404.9 "/>
<polygon class="st1" points="127.8,405 127.9,404.9 127.6,404.9 "/>
<polygon class="st1" points="2,0 0.4,2.6 0.4,3.6 2.5,0.3 "/>
<polygon class="st1" points="8.1,0 0.4,12.6 0.4,13.6 8.5,0.3 "/>
<polygon class="st1" points="14.2,0 0.4,22.7 0.4,23.7 14.6,0.3 "/>
<polygon class="st1" points="20.2,0 0.4,32.7 0.4,33.7 20.7,0.3 "/>
<polygon class="st1" points="26.3,0 0.4,42.7 0.4,43.7 26.7,0.3 "/>
<polygon class="st1" points="32.4,0 0.4,52.8 0.4,53.8 32.8,0.3 "/>
<polygon class="st1" points="38.9,0.3 38.4,0 23.6,24.5 24.2,24.5 "/>
<polygon class="st1" points="19,32.1 0.4,62.8 0.4,63.8 19,33.1 "/>
<polygon class="st1" points="44.9,0.3 44.5,0 29.7,24.5 30.3,24.5 "/>
<polygon class="st1" points="19,42.2 0.4,72.9 0.4,73.8 19,43.2 "/>
<polygon class="st1" points="19,52.2 0.4,82.9 0.4,83.9 19,53.2 "/>
<polygon class="st1" points="51,0.3 50.6,0 35.7,24.5 36.3,24.5 "/>
<polygon class="st1" points="19,62.3 0.4,92.9 0.4,93.9 19,63.2 "/>
<polygon class="st1" points="57.1,0.3 56.6,0 41.8,24.5 42.4,24.5 "/>
<polygon class="st1" points="19,72.3 0.4,103 0.4,103.9 19,73.3 "/>
<polygon class="st1" points="63.1,0.3 62.7,0 47.9,24.5 48.5,24.5 "/>
<polygon class="st1" points="19,82.3 0.4,113 0.4,114 19,83.3 "/>
<polygon class="st1" points="69.2,0.3 68.8,0 53.9,24.5 54.5,24.5 "/>
<polygon class="st1" points="19,92.4 0.4,123 0.4,124 19,93.3 "/>
<polygon class="st1" points="75.3,0.3 74.8,0 60,24.5 60.6,24.5 "/>
<polygon class="st1" points="81.3,0.3 80.9,0 66.1,24.5 66.7,24.5 "/>
<polygon class="st1" points="19,102.4 0.4,133.1 0.4,134 19,103.4 "/>
<polygon class="st1" points="87.4,0.3 87,0 72.1,24.5 72.7,24.5 "/>
<polygon class="st1" points="19,112.4 0.4,143.1 0.4,144.1 19,113.4 "/>
<polygon class="st1" points="19,122.5 0.4,153.1 0.4,154.1 19,123.4 "/>
<polygon class="st1" points="93.4,0.3 93,0 78.2,24.5 78.8,24.5 "/>
<polygon class="st1" points="19,132.5 0.4,163.2 0.4,164.2 19,133.5 "/>
<polygon class="st1" points="99.5,0.3 99.1,0 84.3,24.5 84.9,24.5 "/>
<polygon class="st1" points="19,142.5 0.4,173.2 0.4,174.2 19,143.5 "/>
<polygon class="st1" points="105.6,0.3 105.1,0 90.3,24.5 90.9,24.5 "/>
<polygon class="st1" points="19,152.6 0.4,183.2 0.4,184.2 19,153.6 "/>
<polygon class="st1" points="111.6,0.3 111.2,0 96.4,24.5 97,24.5 "/>
<polygon class="st1" points="117.7,0.3 117.3,0 102.5,24.5 103.1,24.5 "/>
<polygon class="st1" points="19,162.6 0.4,193.3 0.4,194.3 19,163.6 "/>
<polygon class="st1" points="19,172.6 0.4,203.3 0.4,204.3 19,173.6 "/>
<polygon class="st1" points="123.8,0.3 123.3,0 108.5,24.5 109.1,24.5 "/>
<polygon class="st1" points="19,182.7 0.4,213.4 0.4,214.3 19,183.7 "/>
<polygon class="st1" points="129.8,0.3 129.4,0 114.6,24.5 115.2,24.5 "/>
<polygon class="st1" points="19,192.7 0.4,223.4 0.4,224.4 19,193.7 "/>
<polygon class="st1" points="135.9,0.3 135.5,0 120.7,24.5 121.3,24.5 "/>
<polygon class="st1" points="142,0.3 141.5,0 126.7,24.5 127.3,24.5 "/>
<polygon class="st1" points="19,202.8 0.4,233.4 0.4,234.4 19,203.7 "/>
<polygon class="st1" points="19,212.8 0.4,243.5 0.4,244.4 19,213.8 "/>
<polygon class="st1" points="148,0.3 147.6,0 132.8,24.5 133.4,24.5 "/>
<polygon class="st1" points="19,222.8 0.4,253.5 0.4,254.5 19,223.8 "/>
<polygon class="st1" points="154.1,0.3 153.7,0 138.9,24.5 139.5,24.5 "/>
<polygon class="st1" points="19,232.9 0.4,263.5 0.4,264.5 19,233.8 "/>
<polygon class="st1" points="160.2,0.3 159.7,0 144.9,24.5 145.5,24.5 "/>
<polygon class="st1" points="166.2,0.3 165.8,0 151,24.5 151.6,24.5 "/>
<polygon class="st1" points="19,242.9 0.4,273.6 0.4,274.5 19,243.9 "/>
<polygon class="st1" points="19,252.9 0.4,283.6 0.4,284.6 19,253.9 "/>
<polygon class="st1" points="172.3,0.3 171.9,0 157.1,24.5 157.7,24.5 "/>
<polygon class="st1" points="19,263 0.4,293.6 0.4,294.6 19,263.9 "/>
<polygon class="st1" points="178.4,0.3 177.9,0 163.1,24.5 163.7,24.5 "/>
<polygon class="st1" points="184.4,0.3 184,0 169.2,24.5 169.8,24.5 "/>
<polygon class="st1" points="19,273 0.4,303.7 0.4,304.7 19,274 "/>
<polygon class="st1" points="190.5,0.3 190.1,0 175.3,24.5 175.9,24.5 "/>
<polygon class="st1" points="19,283 0.4,313.7 0.4,314.7 19,284 "/>
<polygon class="st1" points="19,293.1 0.4,323.7 0.4,324.7 19,294.1 "/>
<polygon class="st1" points="196.6,0.3 196.1,0 181.3,24.5 181.9,24.5 "/>
<polygon class="st1" points="19,303.1 0.4,333.8 0.4,334.8 19,304.1 "/>
<polygon class="st1" points="202.6,0.3 202.2,0 187.4,24.5 188,24.5 "/>
<polygon class="st1" points="19,313.1 0.4,343.8 0.4,344.8 19,314.1 "/>
<polygon class="st1" points="208.7,0.3 208.3,0 193.5,24.5 194.1,24.5 "/>
<polygon class="st1" points="214.8,0.3 214.3,0 199.5,24.5 200.1,24.5 "/>
<polygon class="st1" points="19,323.2 0.4,353.9 0.4,354.8 19,324.2 "/>
<polygon class="st1" points="19,333.2 0.4,363.9 0.4,364.9 19,334.2 "/>
<polygon class="st1" points="220.8,0.3 220.4,0 205.6,24.5 206.2,24.5 "/>
<polygon class="st1" points="19,343.3 0.4,373.9 0.4,374.9 19,344.2 "/>
<polygon class="st1" points="226.9,0.3 226.5,0 211.7,24.5 212.3,24.5 "/>
<polygon class="st1" points="233,0.3 232.5,0 217.7,24.5 218.3,24.5 "/>
<polygon class="st1" points="19,353.3 0.4,384 0.4,384.9 19,354.3 "/>
<polygon class="st1" points="19,363.3 0.4,394 0.4,395 19,364.3 "/>
<polygon class="st1" points="239,0.3 238.6,0 223.8,24.5 224.4,24.5 "/>
<polygon class="st1" points="19,373.4 0.4,404 0.4,404.9 0.5,404.9 19,374.3 "/>
<polygon class="st1" points="245.1,0.3 244.7,0 229.9,24.5 230.5,24.5 "/>
<polygon class="st1" points="251.2,0.3 250.7,0 235.9,24.5 236.5,24.5 "/>
<polygon class="st1" points="20.9,380.3 6.1,404.8 6.3,404.9 6.6,404.9 21.4,380.3 "/>
<polygon class="st1" points="26.9,380.3 12.1,404.8 12.3,404.9 12.6,404.9 27.5,380.3 "/>
<polygon class="st1" points="257.2,0.3 256.8,0 242,24.5 242.6,24.5 "/>
<polygon class="st1" points="263.3,0.3 262.9,0 248.1,24.5 248.7,24.5 "/>
<polygon class="st1" points="33,380.3 18.2,404.8 18.4,404.9 18.7,404.9 33.6,380.3 "/>
<polygon class="st1" points="269.4,0.3 268.9,0 254.1,24.5 254.7,24.5 "/>
<polygon class="st1" points="39.1,380.3 24.3,404.8 24.5,404.9 24.8,404.9 39.6,380.3 "/>
<polygon class="st1" points="45.1,380.3 30.3,404.8 30.5,404.9 30.8,404.9 45.7,380.3 "/>
<polygon class="st1" points="275.4,0.3 275,0 260.2,24.5 260.8,24.5 "/>
<polygon class="st1" points="281.5,0.3 281.1,0 266.3,24.5 266.9,24.5 "/>
<polygon class="st1" points="51.2,380.3 36.4,404.8 36.6,404.9 36.9,404.9 51.8,380.3 "/>
<polygon class="st1" points="57.3,380.3 42.5,404.8 42.7,404.9 43,404.9 57.8,380.3 "/>
<polygon class="st1" points="287.6,0.3 287.1,0 269.9,28.5 269.9,29.5 "/>
<polygon class="st1" points="269.9,39.5 288.4,8.8 288.4,7.9 269.9,38.5 "/>
<polygon class="st1" points="63.3,380.3 48.5,404.8 48.7,404.9 49,404.9 63.9,380.3 "/>
<polygon class="st1" points="69.4,380.3 54.6,404.8 54.8,404.9 55.1,404.9 70,380.3 "/>
<polygon class="st1" points="269.9,49.6 288.4,18.9 288.4,17.9 269.9,48.6 "/>
<polygon class="st1" points="75.5,380.3 60.7,404.8 60.9,404.9 61.2,404.9 76,380.3 "/>
<polygon class="st1" points="269.9,59.6 288.4,28.9 288.4,27.9 269.9,58.6 "/>
<polygon class="st1" points="81.5,380.3 66.7,404.8 66.9,404.9 67.2,404.9 82.1,380.3 "/>
<polygon class="st1" points="269.9,69.6 288.4,39 288.4,38 269.9,68.7 "/>
<polygon class="st1" points="87.6,380.3 72.8,404.8 73,404.9 73.3,404.9 88.2,380.3 "/>
<polygon class="st1" points="269.9,79.7 288.4,49 288.4,48 269.9,78.7 "/>
<polygon class="st1" points="93.7,380.3 78.9,404.8 79.1,404.9 79.4,404.9 94.2,380.3 "/>
<polygon class="st1" points="269.9,89.7 288.4,59 288.4,58 269.9,88.7 "/>
<polygon class="st1" points="269.9,99.7 288.4,69.1 288.4,68.1 269.9,98.8 "/>
<polygon class="st1" points="99.7,380.3 84.9,404.8 85.1,404.9 85.4,404.9 100.3,380.3 "/>
<polygon class="st1" points="105.8,380.3 91,404.8 91.2,404.9 91.5,404.9 106.4,380.3 "/>
<polygon class="st1" points="269.9,109.8 288.4,79.1 288.4,78.1 269.9,108.8 "/>
<polygon class="st1" points="111.9,380.3 97.1,404.8 97.3,404.9 97.6,404.9 112.4,380.3 "/>
<polygon class="st1" points="269.9,119.8 288.4,89.1 288.4,88.2 269.9,118.8 "/>
<polygon class="st1" points="269.9,129.8 288.4,99.2 288.4,98.2 269.9,128.9 "/>
<polygon class="st1" points="117.9,380.3 103.1,404.8 103.3,404.9 103.6,404.9 118.5,380.3 "/>
<polygon class="st1" points="124,380.3 109.2,404.8 109.4,404.9 109.7,404.9 124.6,380.3 "/>
<polygon class="st1" points="269.9,139.9 288.4,109.2 288.4,108.2 269.9,138.9 "/>
<polygon class="st1" points="130.1,380.3 115.3,404.8 115.5,404.9 115.8,404.9 130.6,380.3 "/>
<polygon class="st1" points="269.9,149.9 288.4,119.2 288.4,118.3 269.9,148.9 "/>
<polygon class="st1" points="269.9,159.9 288.4,129.3 288.4,128.3 269.9,159 "/>
<polygon class="st1" points="136.1,380.3 121.3,404.8 121.5,404.9 121.8,404.9 136.7,380.3 "/>
<polygon class="st1" points="142.2,380.3 127.4,404.8 127.6,404.9 127.9,404.9 142.8,380.3 "/>
<polygon class="st1" points="269.9,170 288.4,139.3 288.4,138.3 269.9,169 "/>
</svg>
