<svg xmlns="http://www.w3.org/2000/svg" xmlns:xlink="http://www.w3.org/1999/xlink" width="39.243" height="54.491" viewBox="0 0 39.243 54.491">
  <defs>
    <clipPath id="clip-path">
      <path id="Контур_15937" data-name="Контур 15937" d="M5523.592,298.6a6.975,6.975,0,0,1,6.975-6.975h24.7a6.975,6.975,0,0,1,6.974,6.959l.095,40.04a6.975,6.975,0,0,1-6.975,6.992H5550.3a6.975,6.975,0,0,1-6.975-6.95l-.077-21.091a6.974,6.974,0,0,0-6.974-6.95h-5.709a6.975,6.975,0,0,1-6.975-6.975Z" fill="none"/>
    </clipPath>
    <clipPath id="clip-path-2">
      <rect id="Прямоугольник_11939" data-name="Прямоугольник 11939" width="61" height="60" transform="translate(5520.167 279)" fill="none"/>
    </clipPath>
    <clipPath id="clip-path-3">
      <rect id="Прямоугольник_11937" data-name="Прямоугольник 11937" width="61" height="60" transform="translate(5580.667 279)" fill="none"/>
    </clipPath>
    <clipPath id="clip-path-4">
      <rect id="Прямоугольник_11938" data-name="Прямоугольник 11938" width="61" height="60" transform="translate(5519.667 279)" fill="none"/>
    </clipPath>
    <clipPath id="clip-path-5">
      <rect id="Прямоугольник_11942" data-name="Прямоугольник 11942" width="61" height="60" transform="translate(5520.167 339)" fill="none"/>
    </clipPath>
    <clipPath id="clip-path-6">
      <rect id="Прямоугольник_11940" data-name="Прямоугольник 11940" width="61" height="60" transform="translate(5580.667 339)" fill="none"/>
    </clipPath>
    <clipPath id="clip-path-7">
      <rect id="Прямоугольник_11941" data-name="Прямоугольник 11941" width="61" height="60" transform="translate(5519.667 339)" fill="none"/>
    </clipPath>
  </defs>
  <g id="Сгруппировать_27661" data-name="Сгруппировать 27661" transform="translate(-5523.342 -291.374)">
    <g id="Сгруппировать_27660" data-name="Сгруппировать 27660">
      <g id="Сгруппировать_27659" data-name="Сгруппировать 27659" clip-path="url(#clip-path)">
        <g id="Сгруппировать_27651" data-name="Сгруппировать 27651">
          <g id="Сгруппировать_27650" data-name="Сгруппировать 27650">
            <g id="Сгруппировать_27649" data-name="Сгруппировать 27649" clip-path="url(#clip-path-2)">
              <g id="Сгруппировать_27646" data-name="Сгруппировать 27646">
                <g id="Сгруппировать_27645" data-name="Сгруппировать 27645" clip-path="url(#clip-path-3)">
                  <line id="Линия_112364" data-name="Линия 112364" x1="37.272" y2="60.856" transform="translate(5579.862 278.684)" fill="none" stroke="#3a8980" stroke-miterlimit="10" stroke-width="0.5"/>
                  <line id="Линия_112365" data-name="Линия 112365" x1="37.272" y2="60.856" transform="translate(5575.78 278.684)" fill="none" stroke="#3a8980" stroke-miterlimit="10" stroke-width="0.5"/>
                  <line id="Линия_112366" data-name="Линия 112366" x1="37.272" y2="60.856" transform="translate(5571.698 278.684)" fill="none" stroke="#3a8980" stroke-miterlimit="10" stroke-width="0.5"/>
                  <line id="Линия_112367" data-name="Линия 112367" x1="37.272" y2="60.856" transform="translate(5567.616 278.684)" fill="none" stroke="#3a8980" stroke-miterlimit="10" stroke-width="0.5"/>
                  <line id="Линия_112368" data-name="Линия 112368" x1="37.272" y2="60.856" transform="translate(5563.534 278.684)" fill="none" stroke="#3a8980" stroke-miterlimit="10" stroke-width="0.5"/>
                  <line id="Линия_112369" data-name="Линия 112369" x1="37.272" y2="60.856" transform="translate(5559.452 278.684)" fill="none" stroke="#3a8980" stroke-miterlimit="10" stroke-width="0.5"/>
                  <line id="Линия_112370" data-name="Линия 112370" x1="37.272" y2="60.856" transform="translate(5555.37 278.684)" fill="none" stroke="#3a8980" stroke-miterlimit="10" stroke-width="0.5"/>
                  <line id="Линия_112371" data-name="Линия 112371" x1="37.272" y2="60.856" transform="translate(5551.287 278.684)" fill="none" stroke="#3a8980" stroke-miterlimit="10" stroke-width="0.5"/>
                  <line id="Линия_112372" data-name="Линия 112372" x1="37.272" y2="60.856" transform="translate(5547.205 278.684)" fill="none" stroke="#3a8980" stroke-miterlimit="10" stroke-width="0.5"/>
                </g>
              </g>
              <g id="Сгруппировать_27648" data-name="Сгруппировать 27648">
                <g id="Сгруппировать_27647" data-name="Сгруппировать 27647" clip-path="url(#clip-path-4)">
                  <line id="Линия_112373" data-name="Линия 112373" x1="37.272" y2="60.856" transform="translate(5584.177 278.684)" fill="none" stroke="#3a8980" stroke-miterlimit="10" stroke-width="0.5"/>
                  <line id="Линия_112374" data-name="Линия 112374" x1="37.272" y2="60.856" transform="translate(5580.095 278.684)" fill="none" stroke="#3a8980" stroke-miterlimit="10" stroke-width="0.5"/>
                  <line id="Линия_112375" data-name="Линия 112375" x1="37.272" y2="60.856" transform="translate(5576.012 278.684)" fill="none" stroke="#3a8980" stroke-miterlimit="10" stroke-width="0.5"/>
                  <line id="Линия_112376" data-name="Линия 112376" x1="37.272" y2="60.856" transform="translate(5571.93 278.684)" fill="none" stroke="#3a8980" stroke-miterlimit="10" stroke-width="0.5"/>
                  <line id="Линия_112377" data-name="Линия 112377" x1="37.272" y2="60.856" transform="translate(5567.848 278.684)" fill="none" stroke="#3a8980" stroke-miterlimit="10" stroke-width="0.5"/>
                  <line id="Линия_112378" data-name="Линия 112378" x1="37.272" y2="60.856" transform="translate(5563.766 278.684)" fill="none" stroke="#3a8980" stroke-miterlimit="10" stroke-width="0.5"/>
                  <line id="Линия_112379" data-name="Линия 112379" x1="37.272" y2="60.856" transform="translate(5559.684 278.684)" fill="none" stroke="#3a8980" stroke-miterlimit="10" stroke-width="0.5"/>
                  <line id="Линия_112380" data-name="Линия 112380" x1="37.272" y2="60.856" transform="translate(5555.602 278.684)" fill="none" stroke="#3a8980" stroke-miterlimit="10" stroke-width="0.5"/>
                  <line id="Линия_112381" data-name="Линия 112381" x1="37.272" y2="60.856" transform="translate(5551.52 278.684)" fill="none" stroke="#3a8980" stroke-miterlimit="10" stroke-width="0.5"/>
                  <line id="Линия_112382" data-name="Линия 112382" x1="37.272" y2="60.856" transform="translate(5547.438 278.684)" fill="none" stroke="#3a8980" stroke-miterlimit="10" stroke-width="0.5"/>
                  <line id="Линия_112383" data-name="Линия 112383" x1="37.272" y2="60.856" transform="translate(5543.355 278.684)" fill="none" stroke="#3a8980" stroke-miterlimit="10" stroke-width="0.5"/>
                  <line id="Линия_112384" data-name="Линия 112384" x1="37.272" y2="60.856" transform="translate(5539.273 278.684)" fill="none" stroke="#3a8980" stroke-miterlimit="10" stroke-width="0.5"/>
                  <line id="Линия_112385" data-name="Линия 112385" x1="37.272" y2="60.856" transform="translate(5535.191 278.684)" fill="none" stroke="#3a8980" stroke-miterlimit="10" stroke-width="0.5"/>
                  <line id="Линия_112386" data-name="Линия 112386" x1="37.272" y2="60.856" transform="translate(5531.109 278.684)" fill="none" stroke="#3a8980" stroke-miterlimit="10" stroke-width="0.5"/>
                  <line id="Линия_112387" data-name="Линия 112387" x1="37.272" y2="60.856" transform="translate(5527.026 278.684)" fill="none" stroke="#3a8980" stroke-miterlimit="10" stroke-width="0.5"/>
                  <line id="Линия_112388" data-name="Линия 112388" x1="37.272" y2="60.856" transform="translate(5522.944 278.684)" fill="none" stroke="#3a8980" stroke-miterlimit="10" stroke-width="0.5"/>
                  <line id="Линия_112389" data-name="Линия 112389" x1="37.272" y2="60.856" transform="translate(5518.862 278.684)" fill="none" stroke="#3a8980" stroke-miterlimit="10" stroke-width="0.5"/>
                  <line id="Линия_112390" data-name="Линия 112390" x1="37.272" y2="60.856" transform="translate(5514.78 278.684)" fill="none" stroke="#3a8980" stroke-miterlimit="10" stroke-width="0.5"/>
                  <line id="Линия_112391" data-name="Линия 112391" x1="37.272" y2="60.856" transform="translate(5510.698 278.684)" fill="none" stroke="#3a8980" stroke-miterlimit="10" stroke-width="0.5"/>
                  <line id="Линия_112392" data-name="Линия 112392" x1="37.272" y2="60.856" transform="translate(5506.616 278.684)" fill="none" stroke="#3a8980" stroke-miterlimit="10" stroke-width="0.5"/>
                  <line id="Линия_112393" data-name="Линия 112393" x1="37.272" y2="60.856" transform="translate(5502.534 278.684)" fill="none" stroke="#3a8980" stroke-miterlimit="10" stroke-width="0.5"/>
                  <line id="Линия_112394" data-name="Линия 112394" x1="37.272" y2="60.856" transform="translate(5498.452 278.684)" fill="none" stroke="#3a8980" stroke-miterlimit="10" stroke-width="0.5"/>
                  <line id="Линия_112395" data-name="Линия 112395" x1="37.272" y2="60.856" transform="translate(5494.37 278.684)" fill="none" stroke="#3a8980" stroke-miterlimit="10" stroke-width="0.5"/>
                  <line id="Линия_112396" data-name="Линия 112396" x1="37.272" y2="60.856" transform="translate(5490.287 278.684)" fill="none" stroke="#3a8980" stroke-miterlimit="10" stroke-width="0.5"/>
                  <line id="Линия_112397" data-name="Линия 112397" x1="37.272" y2="60.856" transform="translate(5486.205 278.684)" fill="none" stroke="#3a8980" stroke-miterlimit="10" stroke-width="0.5"/>
                </g>
              </g>
            </g>
          </g>
        </g>
        <g id="Сгруппировать_27658" data-name="Сгруппировать 27658">
          <g id="Сгруппировать_27657" data-name="Сгруппировать 27657">
            <g id="Сгруппировать_27656" data-name="Сгруппировать 27656" clip-path="url(#clip-path-5)">
              <g id="Сгруппировать_27653" data-name="Сгруппировать 27653">
                <g id="Сгруппировать_27652" data-name="Сгруппировать 27652" clip-path="url(#clip-path-6)">
                  <line id="Линия_112398" data-name="Линия 112398" x1="37.272" y2="60.856" transform="translate(5579.862 338.684)" fill="none" stroke="#3a8980" stroke-miterlimit="10" stroke-width="0.5"/>
                  <line id="Линия_112399" data-name="Линия 112399" x1="37.272" y2="60.856" transform="translate(5575.78 338.684)" fill="none" stroke="#3a8980" stroke-miterlimit="10" stroke-width="0.5"/>
                  <line id="Линия_112400" data-name="Линия 112400" x1="37.272" y2="60.856" transform="translate(5571.698 338.684)" fill="none" stroke="#3a8980" stroke-miterlimit="10" stroke-width="0.5"/>
                  <line id="Линия_112401" data-name="Линия 112401" x1="37.272" y2="60.856" transform="translate(5567.616 338.684)" fill="none" stroke="#3a8980" stroke-miterlimit="10" stroke-width="0.5"/>
                  <line id="Линия_112402" data-name="Линия 112402" x1="37.272" y2="60.856" transform="translate(5563.534 338.684)" fill="none" stroke="#3a8980" stroke-miterlimit="10" stroke-width="0.5"/>
                  <line id="Линия_112403" data-name="Линия 112403" x1="37.272" y2="60.856" transform="translate(5559.452 338.684)" fill="none" stroke="#3a8980" stroke-miterlimit="10" stroke-width="0.5"/>
                  <line id="Линия_112404" data-name="Линия 112404" x1="37.272" y2="60.856" transform="translate(5555.37 338.684)" fill="none" stroke="#3a8980" stroke-miterlimit="10" stroke-width="0.5"/>
                  <line id="Линия_112405" data-name="Линия 112405" x1="37.272" y2="60.856" transform="translate(5551.287 338.684)" fill="none" stroke="#3a8980" stroke-miterlimit="10" stroke-width="0.5"/>
                  <line id="Линия_112406" data-name="Линия 112406" x1="37.272" y2="60.856" transform="translate(5547.205 338.684)" fill="none" stroke="#3a8980" stroke-miterlimit="10" stroke-width="0.5"/>
                </g>
              </g>
              <g id="Сгруппировать_27655" data-name="Сгруппировать 27655">
                <g id="Сгруппировать_27654" data-name="Сгруппировать 27654" clip-path="url(#clip-path-7)">
                  <line id="Линия_112407" data-name="Линия 112407" x1="37.272" y2="60.856" transform="translate(5584.177 338.684)" fill="none" stroke="#3a8980" stroke-miterlimit="10" stroke-width="0.5"/>
                  <line id="Линия_112408" data-name="Линия 112408" x1="37.272" y2="60.856" transform="translate(5580.095 338.684)" fill="none" stroke="#3a8980" stroke-miterlimit="10" stroke-width="0.5"/>
                  <line id="Линия_112409" data-name="Линия 112409" x1="37.272" y2="60.856" transform="translate(5576.012 338.684)" fill="none" stroke="#3a8980" stroke-miterlimit="10" stroke-width="0.5"/>
                  <line id="Линия_112410" data-name="Линия 112410" x1="37.272" y2="60.856" transform="translate(5571.93 338.684)" fill="none" stroke="#3a8980" stroke-miterlimit="10" stroke-width="0.5"/>
                  <line id="Линия_112411" data-name="Линия 112411" x1="37.272" y2="60.856" transform="translate(5567.848 338.684)" fill="none" stroke="#3a8980" stroke-miterlimit="10" stroke-width="0.5"/>
                  <line id="Линия_112412" data-name="Линия 112412" x1="37.272" y2="60.856" transform="translate(5563.766 338.684)" fill="none" stroke="#3a8980" stroke-miterlimit="10" stroke-width="0.5"/>
                  <line id="Линия_112413" data-name="Линия 112413" x1="37.272" y2="60.856" transform="translate(5559.684 338.684)" fill="none" stroke="#3a8980" stroke-miterlimit="10" stroke-width="0.5"/>
                  <line id="Линия_112414" data-name="Линия 112414" x1="37.272" y2="60.856" transform="translate(5555.602 338.684)" fill="none" stroke="#3a8980" stroke-miterlimit="10" stroke-width="0.5"/>
                  <line id="Линия_112415" data-name="Линия 112415" x1="37.272" y2="60.856" transform="translate(5551.52 338.684)" fill="none" stroke="#3a8980" stroke-miterlimit="10" stroke-width="0.5"/>
                  <line id="Линия_112416" data-name="Линия 112416" x1="37.272" y2="60.856" transform="translate(5547.438 338.684)" fill="none" stroke="#3a8980" stroke-miterlimit="10" stroke-width="0.5"/>
                  <line id="Линия_112417" data-name="Линия 112417" x1="37.272" y2="60.856" transform="translate(5543.355 338.684)" fill="none" stroke="#3a8980" stroke-miterlimit="10" stroke-width="0.5"/>
                  <line id="Линия_112418" data-name="Линия 112418" x1="37.272" y2="60.856" transform="translate(5539.273 338.684)" fill="none" stroke="#3a8980" stroke-miterlimit="10" stroke-width="0.5"/>
                  <line id="Линия_112419" data-name="Линия 112419" x1="37.272" y2="60.856" transform="translate(5535.191 338.684)" fill="none" stroke="#3a8980" stroke-miterlimit="10" stroke-width="0.5"/>
                  <line id="Линия_112420" data-name="Линия 112420" x1="37.272" y2="60.856" transform="translate(5531.109 338.684)" fill="none" stroke="#3a8980" stroke-miterlimit="10" stroke-width="0.5"/>
                  <line id="Линия_112421" data-name="Линия 112421" x1="37.272" y2="60.856" transform="translate(5527.026 338.684)" fill="none" stroke="#3a8980" stroke-miterlimit="10" stroke-width="0.5"/>
                  <line id="Линия_112422" data-name="Линия 112422" x1="37.272" y2="60.856" transform="translate(5522.944 338.684)" fill="none" stroke="#3a8980" stroke-miterlimit="10" stroke-width="0.5"/>
                  <line id="Линия_112423" data-name="Линия 112423" x1="37.272" y2="60.856" transform="translate(5518.862 338.684)" fill="none" stroke="#3a8980" stroke-miterlimit="10" stroke-width="0.5"/>
                  <line id="Линия_112424" data-name="Линия 112424" x1="37.272" y2="60.856" transform="translate(5514.78 338.684)" fill="none" stroke="#3a8980" stroke-miterlimit="10" stroke-width="0.5"/>
                  <line id="Линия_112425" data-name="Линия 112425" x1="37.272" y2="60.856" transform="translate(5510.698 338.684)" fill="none" stroke="#3a8980" stroke-miterlimit="10" stroke-width="0.5"/>
                  <line id="Линия_112426" data-name="Линия 112426" x1="37.272" y2="60.856" transform="translate(5506.616 338.684)" fill="none" stroke="#3a8980" stroke-miterlimit="10" stroke-width="0.5"/>
                  <line id="Линия_112427" data-name="Линия 112427" x1="37.272" y2="60.856" transform="translate(5502.534 338.684)" fill="none" stroke="#3a8980" stroke-miterlimit="10" stroke-width="0.5"/>
                  <line id="Линия_112428" data-name="Линия 112428" x1="37.272" y2="60.856" transform="translate(5498.452 338.684)" fill="none" stroke="#3a8980" stroke-miterlimit="10" stroke-width="0.5"/>
                  <line id="Линия_112429" data-name="Линия 112429" x1="37.272" y2="60.856" transform="translate(5494.37 338.684)" fill="none" stroke="#3a8980" stroke-miterlimit="10" stroke-width="0.5"/>
                  <line id="Линия_112430" data-name="Линия 112430" x1="37.272" y2="60.856" transform="translate(5490.287 338.684)" fill="none" stroke="#3a8980" stroke-miterlimit="10" stroke-width="0.5"/>
                  <line id="Линия_112431" data-name="Линия 112431" x1="37.272" y2="60.856" transform="translate(5486.205 338.684)" fill="none" stroke="#3a8980" stroke-miterlimit="10" stroke-width="0.5"/>
                </g>
              </g>
            </g>
          </g>
        </g>
      </g>
    </g>
    <path id="Контур_15938" data-name="Контур 15938" d="M5555.361,345.865H5550.3a7.239,7.239,0,0,1-7.225-7.2L5543,317.574a6.737,6.737,0,0,0-6.724-6.7h-5.71a7.233,7.233,0,0,1-7.224-7.225V298.6a7.233,7.233,0,0,1,7.224-7.225h24.7a7.237,7.237,0,0,1,7.224,7.208l.094,40.041a7.224,7.224,0,0,1-7.224,7.242Zm-24.795-53.991a6.732,6.732,0,0,0-6.724,6.725v5.05a6.732,6.732,0,0,0,6.724,6.725h5.71a7.238,7.238,0,0,1,7.224,7.2l.077,21.091a6.738,6.738,0,0,0,6.725,6.7h5.059a6.724,6.724,0,0,0,6.724-6.741l-.094-40.041a6.736,6.736,0,0,0-6.724-6.709Z" fill="#3a8980"/>
  </g>
</svg>
