<?xml version="1.0" encoding="utf-8"?>
<!-- Generator: Adobe Illustrator 24.3.0, SVG Export Plug-In . SVG Version: 6.00 Build 0)  -->
<svg version="1.1" id="Calque_1" xmlns="http://www.w3.org/2000/svg" xmlns:xlink="http://www.w3.org/1999/xlink" x="0px" y="0px"
	 width="652px" height="822px" viewBox="0 0 652 822" style="enable-background:new 0 0 652 822;" xml:space="preserve">
<style type="text/css">
	
		.st0{fill-rule:evenodd;clip-rule:evenodd;fill:#FFFFFF;stroke:#000000;stroke-width:3;stroke-linejoin:round;stroke-miterlimit:10;}
	.st1{fill-rule:evenodd;clip-rule:evenodd;}
</style>
<path class="st0" d="M642.8,435c2.7-2.2,3-6.9,1.6-10.1c-0.9-2.2-1.6-2.7-2.1-2.9c-0.2-0.1-0.4-0.1-0.7-0.1c-0.5,0-1,0.2-1.4,0.4
	c-1.5,0.6-1.5,2.1-1.1,5.2l0,0.4c0.2,1.3-0.4,1.9-0.8,2.2c-0.4,0.2-0.8,0.4-1.4,0.4c-0.7,0-1.4-0.2-2.1-0.6c-1.5-0.9-2.1-2.4-3-4.5
	c-0.2-0.4-0.3-0.7-0.5-1.1c-0.7-1.6-1.6-1.8-4.3-2.3c-1.3-0.3-2.8-0.6-4.9-1.2c-4.5-1.3-5.5-2.8-6.3-4.6c-0.2-0.4-0.4-0.8-0.6-1.2
	c-0.9-1.4-3.3-2.2-5.4-2.9c-0.6-0.2-1.2-0.4-1.7-0.6c-0.7-0.3-1.4-0.4-2-0.4c-0.9,0-1.5,0.4-2.2,0.9c-0.5,0.4-1.2,1.1-2.1,1.9
	c-1.2,1.1-2.7,2.5-4.4,4c-2,1.7-3.9,2.1-5.2,2.1c-1.2,0-2.3-0.3-3.3-0.8c-1.5-0.8-2.8-1.4-4.4-1.4c-0.6,0-1.1,0.1-1.8,0.2
	c-0.8,0.2-1.4,0.2-2,0.2c-1.3,0-2.4-0.4-3.7-1.3c-1.8-1.3-5-1.6-7.9-1.8c-2.2-0.1-4.7-1.3-6.6-2.2c-0.7-0.3-1.4-0.7-1.9-0.9
	c-1.9-0.7-3.8-2-5.6-3.8c-0.8-0.8-1.6-1.7-2.5-2.8c-0.9-1.1-2-2.3-3.3-3.6c-2.3-2.4-3.9-4.4-5.5-6.6l-0.3-0.4
	c-1-1.4-2.5-2.6-3.9-3.8c-1-0.9-2-1.7-2.8-2.5c-1.3-1.3-2.1-2.6-2.9-4c-0.5-0.9-1.1-1.8-1.8-2.9c-1.6-2.3-3.1-2.5-4.5-2.5
	c-0.2,0-0.4,0-0.6,0l-0.5,0c-1.5,0-5.4,0.2-8.5,1.2c-2.7,0.9-3.8,4.7-4.9,8.7l-0.2,0.6c-1.1,3.7-2,4.3-4.3,5.3
	c-0.2,0.1-0.4,0.2-0.6,0.3c-0.4,0.2-0.8,0.4-1.4,0.4c-1.6,0-2.7-1.5-3.8-3.9c-1.1-2.2-1.1-2.9-1.1-4.7l0-0.6c0-2.2,0.2-8.1,0.4-11.8
	c0.2-2.8-0.8-4.4-2.1-6.2c-0.4-0.6-0.9-1.3-1.3-2c-1.3-2.4-1.2-3.9-1.2-5.7c0-0.4,0-0.7,0-1.1c0-2.6-1.2-3.4-2.2-3.8
	c-0.4-0.1-0.8-0.2-1.4-0.2c-1.2,0-2.8,0.3-4.8,1c-0.5,0.2-1,0.3-1.5,0.3c-1.3,0-2.3-0.7-3.8-1.8c-1.7-1.3-3-3.6-3-5.3
	c0-1.5-1.7-2.6-3-3.4l-0.2-0.1c-0.9-0.6-1.6-0.7-2.6-0.7c-0.2,0-0.5,0-0.8,0c-0.3,0-0.7,0-1.1,0c-2.1,0-5.2-0.5-7.3-1.7
	c-2-1.1-5.5-3.6-8-6.1c-2.6-2.6-4.5-4.5-5.9-7.7c-1.1-2.6-3.4-3.2-5.5-3.7c-0.4-0.1-0.9-0.2-1.3-0.3c-2.1-0.7-3.2-2.5-4.3-4.5
	c-0.1-0.2-0.3-0.5-0.4-0.7c-0.9-1.6-1.7-3.8-2.5-5.8c-0.3-0.8-0.6-1.6-0.9-2.3c-0.4-0.9-0.7-2.2-0.3-3.1c0.2-0.5,0.7-0.8,1.3-1
	c1.1-0.3,1.8-1.1,1.8-2.4c0-0.1,0-0.3,0-0.5l0-0.1c0.1-1.1,0.2-2.8-0.6-3.5c-1-0.8-2.2-1.7-2.9-2.9c-0.6-1.1-2-2.2-4.3-4l-0.4-0.3
	c-0.8-0.6-1.2-1.3-1.1-1.9c0.1-0.8,0.8-1.3,1-1.5l2.4-1.8c0.5-0.4,0.8-0.9,0.8-1.5l0.1-4.1c0-0.5-0.2-1-0.5-1.4l-0.9-1
	c-0.5-0.5-0.6-1.2-0.4-1.9l0.5-1.6c0.1-0.5,0.1-1-0.1-1.5l-2.2-4.2c-0.3-0.7-0.3-1.4,0.1-2l0.3-0.4c0.1-0.1,0.3-0.3,0.4-0.6
	c0.5-0.6,1.2-1.4,0.9-1.9c-0.2-0.5-1.3-0.5-2.1-0.5c-0.3,0-0.6,0-0.7,0l-4.1-0.6c-0.7-0.1-1.2-0.5-1.5-1.1l-0.8-1.6
	c-0.3-0.6-0.9-1-1.7-1.1l-2.6-0.1c-0.5,0-1,0.2-1.4,0.6l-0.8,0.8c-0.1,0.1-0.3,0.3-0.4,0.5c-0.1,0.1-0.2,0.3-0.3,0.4l-1.2,1.4
	l-0.9-1.6c-0.2-0.4-0.4-0.9-0.5-1.5l-0.9-5.2c0-0.1,0-0.2,0-0.3l-0.2-5c0-0.2,0-0.3-0.1-0.5l-0.8-2.9c-0.3-1.1-0.6-1.7-1-1.9
	c-0.1,0-0.1,0-0.2,0c-0.5,0-1.1,0.4-1.7,0.8l-3.6,2.2c-0.8,0.5-1.1,1.3-0.9,2.2l0.7,2.7c0.1,0.1,1.3,1,3,2.1
	c0.5,0.4,0.9,0.6,1.2,0.8l1.2,1l-1.2,1c-0.3,0.2-0.6,0.4-0.9,0.6c-0.5,0.2-1,0.5-1.4,0.9c-0.6,0.6-1.5,1-2.4,1c-0.5,0-1-0.1-1.4-0.4
	c-1.4-0.8-2.1-1.4-2.3-2.6l-0.1-0.4c-0.2-1.1-0.5-2.3-1.3-4.3l-0.2-0.5c-0.8-1.8-1-2.4-2.1-3.5c-1.2-1.3-2.2-2.4-3-5.1l-0.2-0.7
	c-0.8-2.2-0.8-2.8,0.4-6.4c0.9-2.8,1.2-4.4,1.4-5.8c0.1-0.8,0.2-1.6,0.5-2.4c0.4-1.8-0.6-2.3-4.4-3.4c-0.7-0.2-1.4-0.4-2.2-0.6
	c-3.6-1-5.3-3.4-6.7-5.2c-0.3-0.4-0.6-0.8-1-1.2c-1-1.2-2.4-1.3-3.7-1.5c-0.8-0.1-1.7-0.2-2.5-0.6c-0.7-0.3-1.1-0.7-1.3-1.1
	l-0.1-0.3v-0.3c0-0.5,0.3-1.1,0.9-1.7c0.2-0.2,0.4-0.4,0.6-0.6c0.8-0.8,1.1-1.1,1.6-2.6c0.3-1,0.5-1.4,1.3-1.9
	c0.2-0.2,0.5-0.4,0.9-0.7c1.1-1,1.1-2,0.9-4c0,0,0-0.6-0.1-0.8c-0.1-2.1-1.1-2.3-4.1-2.7c-0.3,0-0.7-0.1-1.1-0.2
	c-2.2-0.3-2.7-0.9-3.5-2.4c-0.2-0.4-0.4-0.8-0.7-1.2l-1.6-2.6l3,0.6c0,0,0.1,0,0.1,0c0.4,0,1-0.4,1.6-0.7c1.5-0.9,1.7-1.4,2.2-2.8
	l-0.2-3.5c0-0.7-0.4-1.2-0.9-1.6l-4.8-2.9c-0.3-0.2-0.6-0.5-0.8-0.8l-1.9-3.9c-0.2-0.5-0.3-1-0.1-1.5l1.9-5.6c0.1-0.3,0.1-0.6,0.1-1
	l-1.2-6.7c-0.1-0.4-0.2-0.7-0.4-0.9l-2.7-3.2c-0.1-0.1-0.1-0.2-0.2-0.3l-3.2-5.5c-0.4-0.6-0.4-1.3-0.1-1.9l1.1-2.2
	c0.6-1.2,0.4-1.7,0.2-1.9c-0.4-0.3-0.8-0.5-1.2-0.5c-0.2,0-0.4,0.1-0.6,0.2l-1.8,1.4c-0.3,0.2-0.6,0.5-0.9,0.6l-1.1,0.6l-0.6-1.1
	c-0.1-0.2-0.2-0.4-0.3-0.6c0-0.1-0.1-0.2-0.1-0.3l-0.7-1.5c-0.2-0.4-0.3-0.9-0.1-1.3l0.6-2.6c0.2-0.9,1-1.5,1.9-1.6l2.2,0
	c1,0,1.8-0.7,1.9-1.7l0.2-1.7c0.1-0.5,0.3-0.9,0.7-1.3l1.8-1.5c0.6-0.5,1-1.1,1-1.7c0-0.3-0.1-0.6-0.4-0.8l-0.8-0.8
	c-0.5-0.5-1.1-0.8-1.6-0.8c-0.2,0-0.5,0.1-0.7,0.2l-2.6,1.4l-0.7-0.8c-0.2-0.3-0.5-0.7-0.8-1.3c-0.3-0.6-0.3-1.3,0.1-1.8l2.8-5
	c0.2-0.4,0.3-0.9,0.2-1.4l-1.4-6.2c-0.1-0.5,0-1,0.2-1.5l1.9-3.2c0.4-0.6,1-1,1.7-1c0.1,0,0.3,0,0.4,0l2.1,0.4c0.1,0,0.3,0,0.4,0
	c0.7,0,1.4-0.4,1.8-1.1c0.7-1.2,0.2-1.6,0.1-1.7l-2.7-2.2c-0.5-0.4-0.8-1.1-0.6-1.9l0.3-1.7c0.1-0.8,0.7-1.4,1.5-1.6l1.7-0.4
	c0.8-0.2,1.4-0.9,1.5-1.7l0.1-1.6c0-0.5-0.1-0.9-0.3-1.2l-1.3-2.1c-0.2-0.4-0.3-0.8-0.3-1.3l0.3-3.7c0-0.4-0.1-0.8-0.3-1.2l-1.5-2.4
	c-0.2-0.4-0.3-0.7-0.3-1.2l0.2-3.7c0-0.5,0.2-0.9,0.5-1.3l4.3-4.6c0.3-0.3,0.4-0.6,0.5-0.9l0.8-3.9c0-0.1,0-0.2,0-0.3l-5.9-0.3
	c-0.5,0-0.8-0.2-1.2-0.5l-5.1-4.3c-0.4-0.3-0.8-0.5-1.3-0.5c-0.3,0-0.5,0-0.7,0.1l-2.2,0.9c-0.2,0.1-0.4,0.1-0.6,0.1
	c-0.6,0-1.1-0.3-1.3-0.8l-0.1-0.2c-0.4-0.8-0.3-1.7,0.3-2.3l2-2c0.3-0.4,0.5-0.8,0.6-1.2l0.3-4.4c0-0.5,0.2-0.9,0.6-1.3l3.3-3.4
	c0.8-0.8,0.8-2,0-2.8l-3.6-3.7c-0.5-0.5-0.7-1.3-0.5-2l1.6-5c0.3-0.8,0-1.7-0.8-2.2l-9.9-6.9c-0.3-0.2-0.7-0.4-1.1-0.4
	c-0.1,0-0.3,0-0.4,0l-5.8,1.1c-0.1,0-0.3,0-0.4,0c-0.4,0-0.7-0.1-1-0.3l-1.9-1.2c-0.3-0.2-0.7-0.3-1-0.3c-0.3,0-0.5,0.1-0.8,0.2
	l-1.6,0.7c-0.8,0.3-1.2,1.1-1.2,1.9l0.3,4.5c0,0.2,0,0.4-0.1,0.7l-1.1,4.1c-0.2,0.6-0.6,1.1-1.2,1.3l-8.9,3.6
	c-0.2,0.1-0.4,0.1-0.7,0.1l-2.7,0.1c-0.6,0-1.1-0.2-1.5-0.6l-0.7-0.7c-0.3-0.4-0.7-0.6-1.2-0.6L301.7,40c-1-0.1-1.7-0.9-1.8-1.9
	l-0.6-10.4c0-0.1,0-0.2,0-0.3l-2.5-12.7c-0.2-0.9-1-1.6-1.9-1.6c-0.1,0-0.2,0-0.3,0l-5.6,0.8c-0.3,0-0.5,0.1-0.8,0.3l-6.2,4.1
	c-0.3,0.2-0.6,0.3-1,0.3l-20.7,1c-0.4,0-0.7,0.1-1,0.3l-4.2,2.7c-0.4,0.2-0.6,0.6-0.8,1l-2.9,8.1c-0.2,0.5-0.2,0.9,0,1.3l2.2,6.2
	c0.3,0.7,0.1,1.4-0.4,2l-3.2,3.7c-0.5,0.6-0.6,1.2-0.4,1.9l2,5.9c0.2,0.6,0.1,1.2-0.2,1.7l-2.6,4c-0.2,0.4-0.3,0.7-0.3,1.1l0.3,6.9
	c0,1-0.6,1.8-1.6,2.1l-13.6,3.1c-0.1,0-0.2,0.1-0.3,0.1l-16.6,6.8c-0.2,0.1-0.4,0.2-0.5,0.3l-10.2,8.8c-0.4,0.3-0.6,0.7-0.7,1.2
	l-2,12.7c0,0.2-0.1,0.4-0.2,0.6L199,111c-0.1,0.2-0.2,0.4-0.2,0.7l-1.1,13c-0.1,0.7-0.5,1.3-1.1,1.6l-9.4,4.5
	c-0.2,0.1-0.3,0.2-0.4,0.3l-4.8,4c-0.2,0.2-0.4,0.4-0.5,0.7l-4.9,11.1c-0.2,0.4-0.2,0.9-0.1,1.3l0.6,2c0.2,0.7,0.8,1.3,1.6,1.4
	l1.4,0.2c0.5,0.1,0.8,0.3,1.1,0.6l4,4.2c0.4,0.4,0.6,0.9,0.6,1.5l-0.3,4.7c0,0.4-0.1,0.7-0.4,1l-6.6,9.4c-0.4,0.5-0.5,1.1-0.3,1.8
	l0.9,2.9c0.3,1-0.1,2-1,2.4l-2.5,1.2c-0.3,0.2-0.6,0.4-0.8,0.7l-2.5,3.9c-0.1,0.2-0.3,0.4-0.5,0.5l-4,3c-0.2,0.2-0.5,0.3-0.8,0.4
	l-7.4,1.6c-0.3,0.1-0.5,0.1-0.7,0.3l-7.6,5.2c-0.7,0.5-1,1.3-0.8,2.1l1.8,8c0,0.2,0.1,0.3,0.2,0.5l1.3,2.5c0.1,0.1,0.1,0.2,0.2,0.3
	l5.4,6.7c0.2,0.3,0.4,0.4,0.7,0.6l2.9,1.3c0.8,0.4,1.2,1.1,1.2,2l-0.1,1.2c0,0.6,0.1,1.1,0.5,1.5l0.8,0.9c0.5,0.5,0.7,1.2,0.5,1.8
	l-0.7,2.9c-0.1,0.3-0.2,0.6-0.4,0.8l-4.2,5.2c-0.3,0.4-0.7,0.6-1.2,0.7l-5.4,1c-0.7,0.1-1.3,0.6-1.5,1.3l-0.4,1.2
	c-0.3,0.8-1,1.4-1.9,1.4h-2c-0.6,0-1.2,0.3-1.6,0.8l-1,1.3c-0.3,0.4-0.4,0.9-0.4,1.4l0.1,1.1c0.1,0.8-0.3,1.5-0.9,1.9l-4.5,2.9
	c-0.3,0.2-0.7,0.3-1.1,0.3l-0.1,0l-0.6,0c-0.6,0-1-0.3-1.4-0.7l-0.7-0.8c-0.4-0.4-0.9-0.7-1.5-0.7c-0.5,0-0.9,0.2-1.3,0.5l-2.4,2
	c-0.4,0.3-0.8,0.5-1.3,0.5c-0.3,0-0.5-0.1-0.8-0.2l-3-1.2c-0.2-0.1-0.5-0.1-0.7-0.1c-0.2,0-0.4,0-0.6,0.1l-2.3,0.7
	c-0.9,0.3-1.4,1-1.4,2l0.1,1.5c0,0.5-0.1,1-0.4,1.4l-1,1.3c-0.3,0.4-0.5,0.8-0.4,1.3l0.1,2.3c0,0.4-0.1,0.7-0.3,1l-0.9,1.7
	c-0.3,0.6-0.3,1.2-0.1,1.8l1.1,2.4c0.2,0.5,0.2,1.1-0.2,1.6l0,0.1c-0.6,0.7-0.5,1.7,0.1,2.5l0.8,0.9c0.3,0.4,0.5,0.8,0.5,1.3l0,2.9
	c0,0.9-0.5,1.6-1.3,1.9l-0.4,0.2c-0.7,0.3-1.2,0.9-1.3,1.7l-0.2,2.1c-0.1,1-0.8,1.7-1.8,1.8l-0.6,0.1c-1,0.1-1.8,1-1.8,2l0.1,3.3
	c0,0.4-0.1,0.8-0.3,1.2l-2.4,3.7c-0.2,0.4-0.4,0.8-0.3,1.2l0.1,1.9c0,0.8,0.5,1.4,1.1,1.7l0.7,0.3c0.7,0.3,1.1,1.2,0.8,2
	c-0.2,0.5-0.6,0.9-1.1,1.1l-8,3.2c-0.2,0.1-0.4,0.2-0.6,0.3l-6.3,5.4c-0.3,0.3-0.5,0.6-0.6,1l-0.7,2.9c-0.1,0.3-0.2,0.6-0.4,0.8
	l-1.5,1.8c-0.6,0.7-0.6,1.6-0.2,2.3l0.6,1c0.3,0.4,0.6,0.7,1.1,0.8l4.4,1.3c0.3,0.1,0.5,0.2,0.8,0.4l4,3.5c0.2,0.2,0.4,0.3,0.7,0.4
	l11.8,3.9c0.3,0.1,0.5,0.2,0.7,0.4l4.5,4c0.4,0.4,0.6,0.8,0.7,1.4l0.2,2.3c0,0.6,0.3,1.1,0.8,1.4c0.3,0.2,0.5,0.4,0.9,0.5l-0.5,2.5
	l-0.5,0c-2.5,0-2.6,0.3-2.7,1c-0.1,0.8,0.4,1.3,2.3,2c0.7,0.2,1.1,0.5,1.5,0.7l1.2,0.7l-0.7,1.1c-0.1,0.1-0.2,0.2-0.2,0.3l-0.2,0.2
	l-0.3,0.1c-0.2,0.1-0.4,0.1-0.7,0.1c-0.2,0-0.5,0-0.8-0.1c-0.2,0-0.4-0.1-0.5-0.1c-0.9,0-1.4,0.5-2.2,2.3l-0.8,1.8l-1.3-1.4
	l-0.2-0.2l-0.1-0.1c-0.3-0.4-0.3-0.9-0.3-1.5c0-1.2-0.2-1.4-0.7-1.5c-0.1,0-0.2,0-0.3,0c-0.6,0-1.1,0.5-1.6,1.1
	c-0.4,0.5-0.9,1-1.5,1.3c-0.4,0.2-0.8,0.2-1.2,0.2c-1.5,0-2.9-0.9-3.8-2.3c-0.4-0.7-1-1.1-1.6-1.1h0c-0.8,0-1.6,0.7-2.3,1.7
	c-0.9,1.4-0.9,2.7,0.1,4c1.1,1.4,1.4,2.9,1,4.4c-0.3,1.2-0.3,2.5,1.9,3.9c1.2,0.8,2.2,1.7,2.7,2.4l1.1,1.9l-2.2,0.1
	c-0.4,0-0.8-0.1-1.3-0.2c-1-0.3-2-0.7-3.1-0.7c-1.1,0-2,0.4-2.9,1.2c-1.9,1.9-2.1,2.8-1.9,3.2c0.2,0.5,1,0.6,1.7,0.6l0.1,0
	c0.4,0,0.8,0,1.2,0c0.5,0,1,0,1.4,0c1.8,0,3.7,0.2,4.1,2.6c0.5,2.7,0,4-1.7,4.7c-0.2,0.1-0.5,0.1-0.7,0.1c-1.5,0-2.2-1.5-2.5-2
	c-0.3-0.5-0.7-0.8-1.2-0.8c-0.1,0-0.1,0-0.2,0c-0.8,0.1-1.4,1-1.7,2.2c-0.5,2.6,0,3.1,0.9,3.9l0.1,0.1l0.1,0.1
	c0.5,0.6,0.5,1.6,0.1,2.2c-0.2,0.3-0.6,0.7-1.4,0.7c-0.2,0-0.4,0-0.6-0.1c-0.7-0.2-1.7-0.3-2.5-0.3c-0.7,0-1.3,0.1-1.6,0.4
	c-0.3,0.3-0.5,0.7-0.5,1.3c0,2.1,0.2,2.6,1.7,3.6c1.8,1.2,3.7,2.8,3.9,6.3l0.2,4.6c0,0.6-0.2,1.2-0.7,1.6l-1.6,1.4
	c-0.6,0.5-0.8,1.3-0.6,2l0.5,1.6c0.2,0.5,0.5,0.9,1,1.2l2.5,1.4c0.8,0.4,1.2,1.3,1,2.3l-0.9,3.5c-0.1,0.2-0.1,0.5,0,0.7l1.7,14.6
	c0,0.2,0.1,0.4,0.2,0.6l1.5,3.1c0.3,0.7,1,1.1,1.8,1.1c0.3,0,0.5,0,0.7-0.1l6.9-2.8c0.2-0.1,0.4-0.1,0.6-0.1c0.4,0,0.8,0.2,1.1,0.5
	c0.4,0.4,0.9,0.6,1.4,0.6c0.2,0,0.4,0,0.6-0.1l1.1-0.3c0.2-0.1,0.4-0.1,0.6-0.1c0.1,0,0.2,0,0.4,0l1.8,0.4c0.1,0,0.3,0,0.4,0
	c0.4,0,0.7-0.1,1-0.3l1.9-1.2c0.3-0.2,0.7-0.3,1.1-0.3c0.1,0,0.3,0,0.4,0l2,0.4c0.8,0.1,1.4,0.7,1.6,1.5l0.1,0.5
	c0.1,0.3,0.2,0.5,0.5,0.7c0.6,0.5,0.8,1.3,0.6,2l-0.5,2.1c-0.2,0.9,0.1,1.7,0.8,2.2l2.7,1.7c0.8,0.5,1.1,1.5,0.8,2.4l-0.5,1.3
	c-0.1,0.3-0.2,0.7-0.1,1.1l0.4,2.2c0.1,0.8,0.7,1.4,1.5,1.6l2.8,0.7c0.6,0.2,1.1,0.5,1.3,1.1l2.1,4.4c0.1,0.2,0.2,0.4,0.2,0.7
	l0.4,5.4c0,0.5,0.3,1,0.7,1.3l3.6,3.1c0.4,0.3,0.6,0.8,0.7,1.3l0.6,5.3c0,0.3,0.1,0.5,0.2,0.8l2.6,4.6c0.3,0.6,0.8,0.9,1.4,1
	l2.1,0.3c0.5,0.1,0.9,0.3,1.2,0.7l1.5,1.7c0.5,0.6,0.6,1.3,0.4,2l-0.3,0.8c-0.2,0.4-0.2,0.8,0,1.3l0.9,2.8c0.2,0.7,0,1.5-0.5,2.1
	l-1,1c-0.5,0.5-0.7,1.1-0.6,1.7l0.3,1.7c0.1,0.5,0,1-0.3,1.4l-1,1.5c-0.3,0.4-0.4,0.8-0.3,1.3l0.8,7.2c0.1,1,0.9,1.8,2,1.8l3.3-0.1
	c0.3,0,0.6,0.1,0.9,0.2l3.4,1.7c0.3,0.1,0.6,0.2,0.9,0.2c0.3,0,0.6-0.1,0.9-0.2l11-5.6c0.3-0.1,0.6-0.2,0.9-0.2c0.2,0,0.4,0,0.6,0.1
	l3.1,0.9c0.5,0.1,0.9,0.4,1.1,0.8l1.5,2.2c0.2,0.3,0.5,0.6,0.9,0.7l2.1,0.9c0.8,0.3,1.3,1.1,1.2,1.9l-0.1,2.7c0,0.6,0.2,1.1,0.6,1.5
	l5.1,5.1c0.2,0.2,0.3,0.4,0.4,0.6l0.6,1.4c0.3,0.8,0.2,1.7-0.5,2.3l-8.1,7.8c-0.1,0.1-0.2,0.2-0.3,0.3l-4.4,6.4
	c-0.1,0.2-0.2,0.3-0.3,0.6l-2.5,8.6c0,0.1-0.1,0.2-0.1,0.4l-0.5,5.8c0,0.5,0.1,0.9,0.3,1.3l1.9,2.9c0.3,0.5,0.8,0.8,1.3,0.8l1.7,0.3
	c0.4,0.1,0.7,0.2,1,0.5l2.1,1.8c0.2,0.2,0.5,0.3,0.8,0.4l6.3,1.7c0.1,0,0.2,0,0.3,0.1l4.3,0.4l0.3,0.5c0.4,0.6,1.1,1.8,1.4,2.5
	c0.2,0.6,0.5,0.9,0.7,1c0.1,0,0.2,0,0.2,0c0.2,0,0.4-0.1,0.6-0.2l1.6-0.7l0.2,1.7c0,0.3,0.2,0.9,0.5,1c0,0,0,0,0.1,0
	c0.1,0,0.2-0.1,0.4-0.2l1.5-1.4l0.7,2c0.1,0.2,0.2,0.4,0.3,0.4c0.1,0,0.1,0,0.2,0c0.4,0,0.9-0.3,1.6-0.9c0.2-0.2,0.4-0.4,0.5-0.5
	l1.3-1.1l0.7,1.6c0,0.1,0.1,0.2,0.1,0.3c0.1,0.2,0.2,0.5,0.3,0.7c0.2,0.5,0.4,0.9,0.4,1.2l0.2,1.1l-1,0.4c-0.1,0-0.2,0.1-0.3,0.1
	c-1.9,0.6-2.1,0.9-2.9,2.2c-0.7,1.3-0.9,1.9-1,2l0.8,2.6c0.1,0.4,0.1,0.9,0,1.3l-1.3,3.7c0,0.1,0,3.7,1,7.3c0.7,2.5,1.2,4.4,1.4,5.2
	l0.1,0.6l-2.4,3.6c-0.4,0.6-1,0.9-1.7,0.9c-0.1,0-0.3,0-0.4,0l-4.6-1c-0.2,0-0.3,0-0.4,0c-0.4,0-0.8,0.1-1.1,0.4l-3.4,2.4l0.2-0.1
	c1.7,0,3.4,0,4.6,0.3c3.5,0.9,6.1,1.3,9.6,5.2c1.5,1.7-1.1,4.8,1.7,7.4c2.6,2.5,2,9.9,3.5,12.2c1.4,2.3,6.2,7.7,8.7,10.4
	c4.3,4.7,9.2,5.7,8.8,9.5c-0.3,2.3-1.5,1.8-1.5,4.7s3.5,2.9,5,6.9c1.4,4,0.3,6.4,1.7,7.2c1.4,0.9,4.7-1.2,9.9,0
	c5.2,1.2,3.3,7.2,5,9.3c1.2,1.4,2.5,2.1,1.6,5c-1,3.2,1.9,3.6,4.8,3.9c2.9,0.3,6.1,3.6,6.9,5.3c0.9,1.7,4.8,0.4,6,3.1
	c0.9,2,5.3-0.1,9.3,5.4c2.1,2.9,4.7,2.8,6,0.7c1-1.7,4.5-3.3,5.7-3.3c1.2,0,3-1.9,3.7-3.4c0.4-0.8,0.3-2.3,2.1-2.6
	c1.7-0.3,2-1.8,2.6-4.2c0.6-2.3,5.7-2.9,8.1-1.1c2.3,1.7,5.6,1.7,6.8,1.4c1.2-0.3,3.1,1,5.9,0.5c3.4-0.6,6.8-0.7,8.8-2
	c2.1-1.4,6.2,0.6,6.2,2.6c0,2,2.2,6,3.9,6.5c1.7,0.6,4.8,2,5.1,4c0.3,2,0.3,7.1,1.6,9c2.9,4.5,6.9,4.3,9.8,6.1
	c2.9,1.7,1.8,6.2,2.5,7.8c0.4,1.1,6.3,5.8,5.7,9.2c-0.3,1.6,1.3,5.9,0.4,8.6c-1.9,5.8,0.1,14.6,0.3,16.6c-0.1,0.1-0.3,0.1-0.4,0.2
	c-0.1,0.1-0.2,0.2-0.3,0.3c0.1-0.1,0.2-0.2,0.3-0.3c0.3-0.2,0.6-0.3,0.9-0.3c0.1,0,0.2,0,0.3,0c0.4,0.1,0.8,0.3,1.1,0.7l1.8,2.1
	c0.4,0.4,0.9,0.7,1.5,0.7c0.3,0,0.6-0.1,0.9-0.2l3.2-1.6l0.3,1.7c0,0.2,0,0.4,0,0.6l0,0.1l0,0.1c-0.1,0.2-0.2,0.5-0.4,1
	c-0.4,0.9-0.9,2.3-0.6,2.5c0.1,0,0.1,0,0.1,0c0.5,0,1.8-1.1,2.7-1.8l0.1-0.1c0.2-0.2,0.4-0.3,0.4-0.4l5.9-4.3l0.2-0.6l1.1,0.2
	c0.3,0,0.6,0.2,0.9,0.4c0.1,0.1,0.3,0.2,0.4,0.4c0.3,0.3,0.5,0.5,0.8,0.5c0,0,0.1,0,0.1,0c0.4-0.1,1.1-0.7,1.4-1.1
	c0.3-0.5,0.2-1.2-0.3-2.1l-3.3-5.4c-0.5-0.9-0.3-2,0.5-2.7l3-2.3c0.3-0.2,0.5-0.3,0.8-0.4l2.3-0.4c0.4-0.1,0.7-0.2,1-0.5l3.1-3.1
	c0.4-0.4,0.9-0.6,1.4-0.6c0.3,0,0.5,0.1,0.8,0.2l3.5,1.4c0.2,0.1,0.4,0.1,0.7,0.1l3.5,0.1c0.2,0,0.4,0,0.7,0.1l5,1.9
	c0.2,0.1,0.5,0.1,0.7,0.1c0.1,0,0.3,0,0.4,0l5.5-1.1c0.1,0,0.3,0,0.4,0l0.1,0l6.9,0.4c0,0,0.1,0,0.1,0c0.6,0,1.2-0.3,1.6-0.8
	l1.3-1.7c0.4-0.5,0.9-0.8,1.5-0.8l10.7-0.4c0.6,0,1.1-0.3,1.5-0.8l0.7-0.8c0.4-0.5,0.9-0.8,1.5-0.8l0.1,0c0.6,0,1.1,0.2,1.5,0.7
	l2.5,2.8c0.4,0.4,0.9,0.7,1.4,0.7c0.2,0,0.3,0,0.5-0.1l3.3-0.8c0.2,0,0.3-0.1,0.5-0.1c0.4,0,0.8,0.1,1.2,0.4l6,4.3
	c0.3,0.2,0.7,0.4,1.2,0.4l5.3-0.2c0.3,0,0.6,0.1,0.9,0.2l4.2,2c0.6,0.3,1,0.8,1.1,1.5l0.9,5.2l0,0.1c0.1,0.2,0.8,0.4,3.1,0.4
	c0.3,0,0.6,0,0.9,0l3.5,0.3l-3,2.1c-1.5,1-1.9,1.4-1.5,3l0.1,0.2c0.5,1.6,0.7,2.4,1.8,3.3c0.8,0.6,1.2,0.7,1.5,0.7
	c0.7,0,1.6-0.5,2.9-1.5c1.2-1,2.2-1.1,2.5-1.1h1.5l-0.2,1.5c-0.1,0.4-0.2,0.9-0.5,1.4c-0.2,0.3-0.4,0.7-0.6,1
	c-1.7,2.9-1.8,3.7-0.6,4.5c0.8,0.5,1.6,1.1,2.2,1.6c0.3,0.2,0.6,0.5,0.9,0.7c0.5,0.3,0.8,0.5,1.2,0.5c0.2,0,0.5-0.1,0.8-0.2l3.2-1.3
	c0.2-0.1,0.5-0.1,0.7-0.1c0.2,0,0.3,0,0.5,0.1l4.7,1.2c0.4,0.1,0.7,0.3,1,0.6l9.7,10.4c0.4,0.4,0.9,0.6,1.4,0.6c0.2,0,0.3,0,0.5-0.1
	l2.2-0.6c0.2,0,0.4-0.1,0.5-0.1c0.4,0,0.7,0.1,1.1,0.3l1.9,1.2c0.3,0.2,0.6,0.3,1,0.3l4.8,0.3c0.5,0,0.9,0.2,1.2,0.5l4.2,3.7
	c0.4,0.3,0.8,0.5,1.3,0.5c0.5,0,1-0.2,1.4-0.6l0.8-0.8c0.4-0.4,0.9-0.6,1.4-0.6c0.2,0,0.4,0,0.6,0.1l0-0.8c0-2.8,0-11.9,0-15.3
	c0-4,0-5.5-0.8-12c-0.5-4.3-0.3-6.4,0-8.5c0.1-1,0.2-2,0.2-3.1c0-3.4-0.1-3.9-1.1-5.8c-0.5-1-0.9-2.4-1.3-4
	c-0.4-1.3-0.8-2.9-1.4-4.6c-0.3-1-0.8-2.1-1.2-3.3c-1.5-3.8-3.4-8.6-3.4-12.6c0-3.9,0.5-4.8,1.4-6.1c0.2-0.4,0.5-0.7,0.8-1.2
	c1.3-2.4,1.6-2.6,4.6-4.6c2.1-1.4,3.4-3.4,5.1-6.3c0.8-1.3,1.7-2.8,2.9-4.5c3.5-5,0.6-8.1-1.5-10.2c-2.1-2.2-7.2-6.2-11.1-9
	c-1.8-1.3-2.7-2.6-2.8-3.9c-0.1-1.4,0.8-3,2.8-4.8c1.3-1.2,2.5-2.1,3.9-2.1c1,0,1.9,0.4,3,1c0.5,0.3,1.2,0.6,1.9,0.8
	c0.9,0.4,1.8,0.5,2.6,0.5c0.9,0,1.8-0.3,2.5-0.7c0.8-0.6,1.2-1.5,1.2-2.4c-0.1-1.5-0.7-2.1-2.2-3.6c-0.8-0.9-1.9-2-3.3-3.7
	c-3.3-4.1,1.1-8.3,4-11.2l0.1,0c0.3-0.3,0.7-0.6,1-0.9c0.4-0.4,0.7-0.7,1-1c2.1-2.2,3.6-3.8,8.3-4.2c5.3-0.4,8.1-6.2,9.5-9.3l0-0.1
	c1.5-3.2,3.6-4.8,6.8-7.3l0.4-0.3c4.1-3.2,4.5-6.8,4.5-7.8c0-1.9,0.4-2.7,0.8-3.8l0.1-0.1c0.1-0.2,0.2-0.4,0.3-0.7l0-0.1
	c0.6-1.1,1.5-3,1.9-5.9c0.3-2.4,1.6-4.5,3-6.8c0.7-1.2,1.5-2.4,2.1-3.7c1.8-3.7,2.2-7.5,2-9.6c-0.2-1.9-2-3.9-4.1-4.7
	c-1.4-0.5-2.8-1.1-3.3-2.3c-0.3-0.7-0.3-1.6,0.2-2.6c1.2-2.8,4.2-5,8.7-8.3l1.2-0.9c4.8-3.5,7.9-10.2,9.8-14.2l0.4-0.8
	c1.4-3.1,3.2-3.6,6.8-4.5c0.7-0.2,1.5-0.4,2.4-0.7c4.7-1.4,10.3-3.7,12.3-5.5c1.8-1.7,5.4-6.3,6.9-9c1.5-2.7,1.8-4.3,1.8-6.9
	c0-2.7-2-8.5-3.5-11c-0.9-1.5-1.2-2.6-0.8-3.4c0.3-0.6,0.9-1,1.9-1.2c0.2,0,0.3,0,0.5,0c0.9,0,1.6,0.5,2.6,1.1
	c0.9,0.6,2.2,1.4,4.1,2.2c0.7,0.3,1.8,0.7,2.7,0.7c0.7,0,0.9-0.2,1-0.3c0.7-0.6,0.3-2.4,0.1-3.2c-0.5-2-1.8-3.2-3.2-4.5
	c-0.6-0.6-1.2-1.1-1.8-1.8c-0.2-0.3-0.4-0.5-0.6-0.7c-1.6-1.8-1.9-2.3-2.3-6.2c-0.5-4-0.3-10-0.2-13.2l0-0.3c0-0.4,0-0.7,0-1
	c0.1-2.7,1-3.7,1.7-4.1c0.2-0.1,0.3-0.2,0.5-0.4c0.9-0.6,2.5-1.7,5-3.2c3-1.8,3.7-2.5,5-5.1c1.2-2.4,0-5-2.6-8.9
	c-2.1-3.1-1.9-3.7,0.4-8l0.4-0.8c2.3-4.2,0.4-5.7-1.6-7.3c-0.4-0.3-0.7-0.6-1-0.9c-2.4-2.1-1.5-3.9-0.5-5.4
	C637.4,439.7,639.8,437.4,642.8,435z"/>
<path class="st1" d="M367.1,744.3c0.9-2.7-0.7-7-0.4-8.6c0.6-3.4-5.3-8.1-5.7-9.2c-0.6-1.6,0.4-6.1-2.5-7.8
	c-2.9-1.7-6.9-1.6-9.8-6.1c-1.2-1.9-1.3-7-1.6-9c-0.3-2-3.4-3.4-5.1-4c-1.7-0.6-3.9-4.5-3.9-6.5c0-2-4.1-4-6.2-2.6
	c-2.1,1.3-5.5,1.4-8.8,2c-2.8,0.5-4.7-0.8-5.9-0.5c-1.2,0.3-4.4,0.3-6.8-1.4c-2.3-1.7-7.5-1.2-8.1,1.1s-0.9,3.9-2.6,4.2
	c-1.7,0.3-1.7,1.8-2.1,2.6c-0.7,1.5-2.6,3.4-3.7,3.4c-1.2,0-4.6,1.5-5.7,3.3c-1.2,2.1-3.9,2.2-6-0.7c-4-5.5-8.4-3.4-9.3-5.4
	c-1.2-2.7-5.1-1.4-6-3.1c-0.9-1.7-4-5-6.9-5.3c-2.9-0.3-5.9-0.7-4.8-3.9c0.9-2.9-0.4-3.5-1.6-5c-1.7-2.1,0.3-8.1-5-9.3
	c-5.2-1.2-8.5,0.9-9.9,0c-1.4-0.9-0.3-3.2-1.7-7.2c-1.4-4-5-4-5-6.9s1.3-2.4,1.5-4.7c0.4-3.8-4.4-4.8-8.8-9.5
	c-2.5-2.7-7.3-8.1-8.7-10.4c-1.4-2.3-0.9-9.7-3.5-12.2c-2.8-2.7-0.2-5.7-1.7-7.4c-3.4-3.9-6.1-4.3-9.6-5.2c-1.2-0.3-2.9-0.4-4.6-0.3
	l-1,0.7c-0.5,0.3-0.7,0.8-0.8,1.3c-0.1,0.5,0,1.1,0.4,1.5l0.9,1.2c0.6,0.8,0.5,2-0.3,2.7l-6.1,5.6c-0.4,0.3-0.6,0.7-0.6,1.2
	l-0.9,6.6c0,0.3,0,0.6,0.1,0.8l1.1,3.6c0.2,0.8,0,1.5-0.6,2.1l-1.7,1.5c-0.3,0.2-0.5,0.4-0.8,0.5l-3.2,0.8c-0.3,0.1-0.6,0.2-0.9,0.5
	l-4.7,4.3c-0.1,0.1-0.3,0.2-0.4,0.3l-5.5,2.9c-0.4,0.2-0.7,0.5-0.9,0.9l-0.8,1.7c-0.3,0.7-0.2,1.5,0.3,2.1l1,1.2
	c0.2,0.2,0.3,0.4,0.3,0.6l1.4,3.9c0.2,0.5,0.5,0.8,1,1.1l2.1,1.1c0.3,0.1,0.6,0.2,0.9,0.2l3.1,0c0.6,0,1.2-0.3,1.6-0.8l0.5-0.6
	c0.1-0.2,0.2-0.4,0.4-0.6l0.2-0.3l1.1-1.9l1.1,1.9c0.2,0.3,0.3,0.6,0.5,0.8c0.1,0.1,0.1,0.2,0.2,0.3l1.3,2.5
	c0.1,0.1,0.2,0.3,0.3,0.5c0.1,0.2,0.3,0.6,0.5,0.9l1.4,2.6l-2.8-0.7c-0.3-0.1-0.5-0.1-0.7-0.2c-0.3-0.1-0.5-0.1-0.7-0.2l0,0
	c-0.1,0-0.1,0-0.2,0c-0.5,0-0.9,0.2-1.2,0.6l-0.1,0.1c-0.4,0.5-0.8,1.1-0.7,1.6c0.1,0.4,0.5,0.7,1,1c0.1,0.1,0.2,0.1,0.3,0.2
	l0.5,0.4c0.5,0.3,0.7,0.9,0.7,1.5l0,0.1c-0.1,0.8,0.2,1.4,0.8,1.9l0.4,0.3c0.4,0.2,0.6,0.6,0.6,1c0.1,0.4,0,0.8-0.3,1.2
	c-0.3,0.4-0.8,0.7-1.3,0.8l-1.1,0.2c-0.7,0.1-1.2,0.5-1.5,1.2l-0.2,0.5c-0.3,0.6-0.8,1-1.5,1.2l-1.9,0.3c-0.3,0.1-0.6,0.2-0.9,0.4
	l-4.6,3.7c-0.2,0.1-0.3,0.3-0.4,0.4l-1.7,2.5c-0.1,0.2-0.4,0.5-0.7,0.6l-3.3,1.5c-0.5,0.3-0.9,0.6-1.1,1.1c-0.1,0.4,0,0.8,0.2,1.2
	l1.1,1.9c0.4,0.7,0.3,1.6-0.3,2.3l-1.6,1.7c-0.4,0.4-0.8,0.6-1.3,0.6l-2,0.2c-0.3,0-0.6,0.1-0.9,0.3l-4.5,2.8
	c-0.3,0.2-0.6,0.3-1.1,0.3l-2.4,0c-0.4,0-0.7,0.1-1,0.2l-6.4,3.5c-0.3,0.2-0.6,0.2-0.9,0.2c-0.1,0-0.2,0-0.3,0l0.5,0.2l-2.3,3.2
	c-0.6,0.8-0.5,1.9,0.2,2.6l3.4,3.3c0.4,0.4,0.9,0.6,1.4,0.6c0.3,0,0.6-0.1,0.9-0.2l10.1-4.8c0.3-0.1,0.6-0.2,0.9-0.2
	c0.3,0,0.6,0.1,0.8,0.2c0.6,0.3,0.9,0.7,1.1,1.3l0.4,1.4c0,0.1,0,0.2,0.1,0.3l0.5,4.6c0,0.2,0.1,0.4,0.2,0.6l1.7,3.5
	c0.5,1,0.1,2.1-0.8,2.6l-2.4,1.4c-0.7,0.4-1,1.1-1,1.8l0.4,5.9c0,0.6,0.3,1.1,0.8,1.4l7.3,5.6c0.5,0.4,0.7,0.8,0.8,1.4l0.3,3
	c0.1,0.7,0.5,1.3,1.2,1.6l4.2,1.7c0.4,0.2,0.7,0.4,0.9,0.8l2.9,4.5c0.2,0.3,0.3,0.4,0.6,0.6l5.4,3.4c0.3,0.2,0.7,0.3,1,0.3
	c0.1,0,0.2,0,0.3,0l7.1-1.2c0.1,0,0.2,0,0.3,0c0.4,0,0.8,0.1,1.2,0.4l3.2,2.4c0.4,0.3,0.7,0.4,1.2,0.4c0.1,0,0.1,0,0.2,0l7.2-0.7
	c0.6-0.1,1.1-0.4,1.5-0.9l1.7-2.7c0.4-0.6,1-0.9,1.7-0.9c0.1,0,0.2,0,0.3,0l9.3,1.3c0.3,0,0.5,0.1,0.7,0.2l2.5,1.4
	c0.3,0.2,0.7,0.3,1,0.3c0.5,0,0.9-0.2,1.3-0.5l1.3-1.2c0.4-0.3,0.8-0.5,1.3-0.5c0.1,0,0.1,0,0.2,0l4.7,0.4c0.5,0,0.9,0.2,1.2,0.5
	l7.2,6.7c0.3,0.3,0.6,0.4,0.9,0.5l11.6,2.5c0.5,0.1,0.8,0.3,1.1,0.7l1.4,1.6c0.7,0.8,0.6,2-0.1,2.7l-0.9,1c-0.3,0.3-0.5,0.7-0.6,1.2
	l-0.1,1.6c0,0.5,0.1,1,0.4,1.4l0.3,0.3c0.3,0.5,0.5,1,0.4,1.5l-1.7,10.2c-0.1,0.5,0,0.9,0.2,1.3l4,6.8c0.4,0.6,1,1,1.7,1
	c0.2,0,0.4,0,0.6-0.1l2.1-0.6c0.2-0.1,0.4-0.1,0.6-0.1c0.5,0,1,0.2,1.4,0.6l0.4,0.5c0.5,0.5,0.7,1.2,0.5,1.9l-0.6,2.4
	c-0.1,0.5-0.4,1-0.9,1.3l-3.5,2.2c-0.5,0.3-1.4,0.9-1.5,1.3c0,0.3,0.2,0.6,0.6,1c0.1,0.1,0.1,0.1,0.2,0.2l0.3,0.3
	c0.4,0.4,0.9,0.7,1.5,0.7c0.3,0,0.7-0.1,1-0.3l9.5-5.5c0.3-0.2,0.7-0.3,1-0.3c0.5,0,1,0.2,1.3,0.5l4.5,4c0.4,0.3,0.8,0.5,1.3,0.5
	c0.2,0,0.4,0,0.5-0.1l7-1.9c0.2,0,0.3-0.1,0.5-0.1c0,0,0.1,0,0.2,0l3.1,0.2c0.6,0,1.1,0.3,1.5,0.9c0.1,0.2,0.3,0.4,0.3,0.6l0.3,0.7
	l-1.2,1.6c-0.2,0.3-0.3,0.5-0.2,0.8c0.2,0.5,1.1,0.9,2.4,1.2l6.6,1.2c0.1,0,0.2,0,0.4,0c0.7,0,1.4-0.4,1.7-1l5.9-10.9
	c0.1-0.2,0.2-0.4,0.2-0.6l0.6-3.8c0.1-0.6,0.4-1.1,1-1.4l2.9-1.7c0.3-0.2,0.7-0.3,1-0.3c0.3,0,0.5,0.1,0.8,0.2l3,1.3
	c0.3,0.1,0.5,0.2,0.8,0.2c0.1,0,0.3,0,0.5-0.1l3.6-0.8c0.2,0,0.3-0.1,0.5-0.1c0.3,0,0.6,0.1,0.8,0.2l3.3,1.5c0.6,0.3,1,0.7,1.1,1.4
	l0.9,3.7c0.1,0.4,0.3,0.8,0.7,1.1l5.1,4.3c0.3,0.2,0.6,0.4,0.9,0.4l5.9,1c0.1,0,0.2,0,0.4,0c0.6,0,1.1-0.2,1.5-0.7l0.2-0.2
	c0.4-0.4,0.5-1,0.5-1.6l-1.2-7.8c0-0.2,0-0.3,0-0.4l0.2-3c0-0.4,0.2-0.8,0.5-1.2l5.1-6.1c0.4-0.5,0.9-0.7,1.5-0.7
	c0.2,0,0.4,0,0.5,0.1l2.9,0.8c0.2,0,0.4,0.1,0.5,0.1c0.3,0,0.6-0.1,0.8-0.2l4.1-2c0.5-0.3,0.9-0.7,1-1.2l2.2-7.2
	c0.1-0.4,0.1-0.8,0-1.3l-0.5-1.5c-0.1-0.3-0.2-0.6-0.1-1l0.9-7.7c0.1-0.4,0.3-0.8,0.6-1c0.1-0.1,0.3-0.2,0.4-0.2
	C367.2,758.9,365.2,750.1,367.1,744.3z"/>
<g>
	<path d="M260.9,463.3v-13.8c0-4.2,2.1-6.6,6.2-6.6c4.1,0,6.2,2.4,6.2,6.6v2.3h-3.9v-2.5c0-1.9-0.8-2.6-2.1-2.6s-2.1,0.7-2.1,2.6
		v14.4c0,1.9,0.8,2.6,2.1,2.6s2.1-0.7,2.1-2.6v-5.2h-2.1v-3.8h6v8.6c0,4.2-2.1,6.6-6.2,6.6C263,469.9,260.9,467.5,260.9,463.3z"/>
	<path d="M276.7,443.2h6.1c4.3,0,6.1,2,6.1,6.1v1.6c0,2.7-0.9,4.4-2.7,5.2v0.1c2.1,0.6,2.7,2.6,2.7,5.6v4.6c0,1.3,0,2.2,0.5,3.2
		h-4.2c-0.2-0.7-0.4-1.1-0.4-3.2v-4.8c0-2.4-0.7-3.2-2.6-3.2h-1.4v11.3h-4.1V443.2z M282.3,454.5c1.5,0,2.5-0.7,2.5-2.8v-2
		c0-1.9-0.6-2.7-2.1-2.7h-1.9v7.5H282.3z"/>
	<path d="M295.8,443.2h5.6l4.3,26.3h-4.1l-0.8-5.2v0.1h-4.7l-0.8,5.2h-3.8L295.8,443.2z M300.3,460.8l-1.8-13h-0.1l-1.8,13H300.3z"
		/>
	<path d="M308.4,443.2h5.2l4,15.8h0.1v-15.8h3.7v26.3h-4.2l-5-19.2h-0.1v19.2h-3.7V443.2z"/>
	<path d="M325.2,443.2h6.3c4.1,0,6.2,2.3,6.2,6.5V463c0,4.2-2,6.5-6.2,6.5h-6.3V443.2z M331.5,465.8c1.3,0,2.1-0.7,2.1-2.6v-13.7
		c0-1.9-0.8-2.6-2.1-2.6h-2.1v18.8H331.5z"/>
	<path d="M340.7,454.5h8.3v3.8h-8.3V454.5z"/>
	<path d="M352.2,443.2h6.3c4.1,0,6.2,2.3,6.2,6.5V463c0,4.2-2,6.5-6.2,6.5h-6.3V443.2z M358.4,465.8c1.3,0,2.1-0.7,2.1-2.6v-13.7
		c0-1.9-0.8-2.6-2.1-2.6h-2.1v18.8H358.4z"/>
	<path d="M368.1,463.3v-20.1h4.1v20.4c0,1.9,0.8,2.6,2.1,2.6s2.1-0.7,2.1-2.6v-20.4h4v20.1c0,4.2-2.1,6.6-6.2,6.6
		C370.2,469.9,368.1,467.5,368.1,463.3z"/>
	<path d="M383.8,463.4v-14.1c0-4.1,2.1-6.5,6.1-6.5c4,0,6.1,2.4,6.1,6.5v2.8h-3.9v-3c0-1.7-0.8-2.4-2.1-2.4c-1.2,0-2.1,0.7-2.1,2.4
		v14.7c0,1.7,0.8,2.4,2.1,2.4c1.2,0,2.1-0.7,2.1-2.4v-4h3.9v3.7c0,4.1-2.1,6.5-6.1,6.5C385.9,469.9,383.8,467.5,383.8,463.4z"/>
	<path d="M399.2,443.2h4.1v10.7h4.4v-10.7h4.1v26.3h-4.1v-11.8h-4.4v11.8h-4.1V443.2z"/>
	<path d="M415.8,443.2h11.3v3.8h-7.1v7h5.7v3.8h-5.7v8.1h7.1v3.8h-11.3V443.2z M421.8,437.1h4.5l-4,4.3h-3.1L421.8,437.1z"/>
	<path d="M261.2,480.7h6.3c4.1,0,6.2,2.3,6.2,6.5v13.3c0,4.2-2,6.5-6.2,6.5h-6.3V480.7z M267.5,503.3c1.3,0,2.1-0.7,2.1-2.6V487
		c0-1.9-0.8-2.6-2.1-2.6h-2.1v18.8H267.5z"/>
	<path d="M277.3,480.7h11.3v3.8h-7.1v7h5.7v3.8h-5.7v8.1h7.1v3.8h-11.3V480.7z"/>
	<path d="M298.4,480.7h4.1v22.6h6.8v3.8h-10.9V480.7z"/>
	<path d="M312,500.8v-20.1h4.1v20.4c0,1.9,0.8,2.6,2.1,2.6s2.1-0.7,2.1-2.6v-20.4h4v20.1c0,4.2-2.1,6.6-6.2,6.6
		C314.1,507.4,312,505,312,500.8z"/>
	<path d="M331.6,493.6l-4.6-12.9h4.4l2.8,8.5h0.1l2.9-8.5h3.9l-4.6,12.9l4.8,13.5h-4.4l-3-9.2h-0.1l-3.1,9.2h-3.9L331.6,493.6z"/>
	<path d="M344,480.7h11.3v3.8h-7.1v7h5.7v3.8h-5.7v8.1h7.1v3.8H344V480.7z"/>
	<path d="M358.4,480.7h5.9l2.6,18.8h0.1l2.6-18.8h5.9v26.3h-3.9v-19.9h-0.1l-3,19.9h-3.5l-3-19.9H362v19.9h-3.6V480.7z"/>
	<path d="M379.4,480.7h6.2c4.3,0,6.1,2,6.1,6.1v1.1c0,2.7-0.8,4.4-2.7,5.2v0.1c2.2,0.8,3.1,2.7,3.1,5.5v2.3c0,4.1-2.1,6.2-6.3,6.2
		h-6.5V480.7z M385.1,491.4c1.5,0,2.5-0.7,2.5-2.8v-1.5c0-1.9-0.6-2.7-2.1-2.7h-2v7H385.1z M385.9,503.3c1.4,0,2.1-0.6,2.1-2.6v-2.3
		c0-2.4-0.8-3.2-2.7-3.2h-1.8v8.1H385.9z"/>
	<path d="M395,500.8V487c0-4.2,2.2-6.6,6.3-6.6s6.3,2.4,6.3,6.6v13.8c0,4.2-2.2,6.6-6.3,6.6S395,505,395,500.8z M403.4,501.1v-14.4
		c0-1.9-0.8-2.6-2.1-2.6s-2.1,0.7-2.1,2.6v14.4c0,1.9,0.8,2.6,2.1,2.6S403.4,503,403.4,501.1z"/>
	<path d="M411,500.8v-20.1h4.1v20.4c0,1.9,0.8,2.6,2.1,2.6s2.1-0.7,2.1-2.6v-20.4h4v20.1c0,4.2-2.1,6.6-6.2,6.6
		C413.1,507.4,411,505,411,500.8z"/>
	<path d="M427,480.7h6.1c4.3,0,6.1,2,6.1,6.1v1.6c0,2.7-0.9,4.4-2.7,5.2v0.1c2.1,0.6,2.7,2.6,2.7,5.6v4.6c0,1.3,0,2.2,0.5,3.2h-4.2
		c-0.2-0.7-0.4-1.1-0.4-3.2V499c0-2.4-0.7-3.2-2.6-3.2h-1.4v11.3H427V480.7z M432.6,492c1.5,0,2.5-0.7,2.5-2.8v-2
		c0-1.9-0.6-2.7-2.1-2.7h-1.9v7.5H432.6z"/>
	<path d="M442.6,500.8V487c0-4.2,2.1-6.6,6.2-6.6s6.2,2.4,6.2,6.6v2.3H451v-2.5c0-1.9-0.8-2.6-2.1-2.6s-2.1,0.7-2.1,2.6v14.4
		c0,1.9,0.8,2.6,2.1,2.6s2.1-0.7,2.1-2.6V496H449v-3.8h6v8.6c0,4.2-2.1,6.6-6.2,6.6S442.6,505,442.6,500.8z"/>
</g>
<g>
	<g>
		<path d="M5.4,672.1h5.9l2.6,18.8H14l2.6-18.8h5.9v26.3h-3.9v-19.9h-0.1l-3,19.9H12l-3-19.9H9v19.9H5.4V672.1z"/>
		<path d="M26.3,672.1h4.1v26.3h-4.1V672.1z"/>
		<path d="M34.3,672.1h5.2l4,15.8h0.1v-15.8h3.7v26.3H43l-5-19.2H38v19.2h-3.7V672.1z"/>
		<path d="M51.1,672.1h11.3v3.8h-7.1v7h5.7v3.8h-5.7v8.1h7.1v3.8H51.1V672.1z"/>
		<path d="M68.8,675.9h-4.3v-3.8h12.8v3.8h-4.3v22.6h-4.1V675.9z"/>
		<path d="M83.6,675.9h-4.3v-3.8h12.8v3.8h-4.3v22.6h-4.1V675.9z"/>
		<path d="M5.2,729.7v-20.1h4.1V730c0,1.9,0.8,2.6,2.1,2.6s2.1-0.7,2.1-2.6v-20.4h4v20.1c0,4.2-2.1,6.6-6.2,6.6
			C7.3,736.3,5.2,733.9,5.2,729.7z"/>
		<path d="M21.2,709.6h5.2l4,15.8h0.1v-15.8h3.7V736H30l-5-19.2h-0.1V736h-3.7V709.6z"/>
		<path d="M38,709.6h11.3v3.8h-7.1v7h5.7v3.8h-5.7v8.1h7.1v3.8H38V709.6z"/>
		<path d="M51.8,729.7v-1.5h3.9v1.8c0,1.9,0.8,2.6,2.1,2.6s2.1-0.7,2.1-2.6c0-2.2-0.8-3.6-3.5-5.9c-3.5-3-4.6-5.2-4.6-8.2
			c0-4.1,2.1-6.5,6.2-6.5s6,2.4,6,6.6v1.1h-3.9v-1.4c0-1.9-0.8-2.6-2.1-2.6s-2.1,0.7-2.1,2.5c0,1.9,0.9,3.3,3.6,5.7
			c3.5,3,4.6,5.2,4.6,8.4c0,4.3-2.2,6.7-6.2,6.7S51.8,733.9,51.8,729.7z"/>
		<path d="M67,729.9v-14.1c0-4.1,2.1-6.5,6.1-6.5s6.1,2.4,6.1,6.5v2.8h-3.9v-3c0-1.7-0.8-2.4-2.1-2.4s-2.1,0.7-2.1,2.4v14.7
			c0,1.7,0.8,2.4,2.1,2.4s2.1-0.7,2.1-2.4v-4h3.9v3.7c0,4.1-2.1,6.5-6.1,6.5S67,733.9,67,729.9z"/>
		<path d="M82.2,729.7v-13.8c0-4.2,2.2-6.6,6.3-6.6s6.3,2.4,6.3,6.6v13.8c0,4.2-2.2,6.6-6.3,6.6S82.2,733.9,82.2,729.7z M90.6,730
			v-14.4c0-1.9-0.8-2.6-2.1-2.6s-2.1,0.7-2.1,2.6V730c0,1.9,0.8,2.6,2.1,2.6S90.6,731.9,90.6,730z"/>
		<path d="M5.4,747.2h6.2c4.3,0,6.1,2,6.1,6.1v1.1c0,2.7-0.8,4.4-2.7,5.2v0.1c2.2,0.8,3.1,2.7,3.1,5.5v2.3c0,4.1-2.1,6.2-6.3,6.2
			H5.4V747.2z M11.1,757.9c1.5,0,2.5-0.7,2.5-2.8v-1.5c0-1.9-0.6-2.7-2.1-2.7h-2v7H11.1z M11.9,769.7c1.4,0,2.1-0.6,2.1-2.6v-2.3
			c0-2.4-0.8-3.2-2.7-3.2H9.5v8.1H11.9z"/>
		<path d="M21.3,747.2h4.1v26.3h-4.1V747.2z"/>
		<path d="M29,767.3v-13.8c0-4.2,2.2-6.6,6.3-6.6s6.3,2.4,6.3,6.6v13.8c0,4.2-2.2,6.6-6.3,6.6S29,771.5,29,767.3z M37.4,767.5v-14.4
			c0-1.9-0.8-2.6-2.1-2.6s-2.1,0.7-2.1,2.6v14.4c0,1.9,0.8,2.6,2.1,2.6S37.4,769.4,37.4,767.5z"/>
		<path d="M44.4,767.3v-1.5h3.9v1.8c0,1.9,0.8,2.6,2.1,2.6s2.1-0.7,2.1-2.6c0-2.2-0.8-3.6-3.5-5.9c-3.5-3-4.6-5.2-4.6-8.2
			c0-4.1,2.1-6.5,6.2-6.5s6,2.4,6,6.6v1.1h-3.9v-1.4c0-1.9-0.8-2.6-2.1-2.6c-1.3,0-2.1,0.7-2.1,2.5c0,1.9,0.9,3.3,3.6,5.7
			c3.5,3,4.6,5.2,4.6,8.4c0,4.3-2.2,6.7-6.2,6.7S44.4,771.5,44.4,767.3z"/>
		<path d="M59.8,747.2h6.1c4.1,0,6.2,2.3,6.2,6.5v2.6c0,4.2-2,6.5-6.2,6.5h-2v10.7h-4.1V747.2z M65.9,759c1.3,0,2-0.6,2-2.5v-3.1
			c0-1.9-0.7-2.5-2-2.5h-2v8.1H65.9z"/>
		<path d="M75.1,747.2h4.1v10.7h4.4v-10.7h4.1v26.3h-4.1v-11.8h-4.4v11.8h-4.1V747.2z"/>
		<path d="M91.6,747.2h11.3v3.8h-7.1v7h5.7v3.8h-5.7v8.1h7.1v3.8H91.6V747.2z"/>
		<path d="M106,747.2h6.1c4.3,0,6.1,2,6.1,6.1v1.6c0,2.7-0.9,4.4-2.7,5.2v0.1c2.1,0.6,2.7,2.6,2.7,5.6v4.6c0,1.3,0,2.2,0.5,3.2h-4.2
			c-0.2-0.7-0.4-1.1-0.4-3.2v-4.8c0-2.4-0.7-3.2-2.6-3.2h-1.4v11.3H106V747.2z M111.7,758.5c1.5,0,2.5-0.7,2.5-2.8v-2
			c0-1.9-0.6-2.7-2.1-2.7h-1.9v7.5H111.7z"/>
		<path d="M122,747.2h11.3v3.8h-7.1v7h5.7v3.8h-5.7v8.1h7.1v3.8H122V747.2z"/>
	</g>
</g>
</svg>
