<?xml version="1.0" encoding="utf-8"?>
<!-- Generator: Adobe Illustrator 24.2.3, SVG Export Plug-In . SVG Version: 6.00 Build 0)  -->
<svg version="1.1" xmlns="http://www.w3.org/2000/svg" xmlns:xlink="http://www.w3.org/1999/xlink" x="0px" y="0px" width="125.1px"
	 height="67px" viewBox="0 0 125.1 67" style="enable-background:new 0 0 125.1 67;" xml:space="preserve">
<style type="text/css">
	.st0{fill:#A3BD49;}
	.st1{fill:#9D1915;}
	.st2{fill:#575756;}
</style>
<g id="Calque_1">
</g>
<g id="Mode_Isolation">
	<g>
		<path class="st0" d="M83,25.5c-2.6,0-5.1,0-7.8,0c-0.2-1.2-0.5-2.5-0.7-3.7c-0.6-3.1-1.2-6.3-1.7-9.4c-0.1-0.5-0.2-1-0.4-1.5
			c-0.6-1.7-1.6-3.2-3.5-3.5c-2.1-0.3-4.1,0.2-5.6,1.9c-1.3,1.6-1.8,3.6-1.5,5.6c0.5,3.2,1.1,6.5,1.7,9.7c0,0.3,0.1,0.5,0.1,0.8
			c-2.6,0-5.2,0-7.8,0c-0.3-1.6-0.6-3.2-0.9-4.9c-0.3-1.7-0.6-3.4-1-5c-0.1-0.5-0.2-0.9-0.4-1.4c-0.8-2-2.1-3.4-4.5-3.4
			c-2.4,0-4.3,1-5.4,3.2c-1,2-0.8,4.1-0.4,6.2c0.3,1.7,0.6,3.5,1,5.2c-2.6,0-5.1,0-7.7,0c-0.3-1.7-0.7-3.4-1-5.1
			c-0.6-3.4-1.2-6.8-1.9-10.3c-0.4-2.2,0.3-3.4,2.5-4c0.5-0.1,0.9-0.2,1.4-0.3c1.7-0.2,2.5,0.3,3.5,2.4c2-2.9,4.8-4.5,8.4-4.8
			c3.5-0.3,6.5,0.7,8.9,3.6c0.5-1.1,1-2,1.6-2.9c3.6-4.9,13.5-6.7,18.1,1c1.3,2.2,1.9,4.6,2.4,7.1c0.8,4.2,1.5,8.4,2.3,12.5
			C82.9,25,82.9,25.3,83,25.5z"/>
		<path class="st1" d="M40.5,46.5c0.2,0,0.3-0.1,0.4-0.1c2.2,0,4.4,0,6.7,0c0.3,1.3,0.5,2.7,0.8,4c0.3,1.5,0.5,2.9,0.9,4.3
			c0.3,0.9,0.6,1.8,1.2,2.6c1.2,1.6,2.7,2.2,4.6,2c0.8-0.1,1.6-0.3,2.4-0.4c2.6-0.6,3.9-2.3,3.9-4.9c0.1-2-0.5-4-0.8-5.9
			c-0.1-0.5-0.2-1-0.3-1.5c2.4,0,4.7,0,7.1,0c0.3,0.9,0.4,1.9,0.6,2.9c0.3,1.2,0.6,2.4,1.3,3.5c1,1.5,2.4,2.2,4.2,2
			c1-0.1,2-0.3,3-0.5c2.1-0.5,3.4-2.1,3.4-4.3c0-1.2-0.2-2.3-0.4-3.5c2.4,0,4.8,0,7.1,0c1.3,5.5-0.2,13.3-8.6,15.2
			c-1.4,0.3-2.9,0.6-4.4,0.6c-2.8,0-4.3-0.5-6.9-2.5c-0.1,0-0.1,0-0.2,0.1c-1.3,3.7-4.1,5.5-7.8,6.4c-2.5,0.6-4.9,1-7.5,0.4
			c-4.3-1.1-6.9-3.9-8.5-7.9c-1.1-2.7-1.3-5.6-1.9-8.4C40.9,49.2,40.7,47.9,40.5,46.5z"/>
		<path class="st2" d="M0,31.2c0.6,0,1.2,0,1.9,0c0.4,1.5,0.8,3.1,1.3,4.8c0.6-1.6,0.9-3.2,1.3-4.7c0.6-0.2,1.2,0,1.9-0.1
			c0,3,0,6,0,9.1c-0.5,0.1-0.9,0.1-1.5,0c0-1.5,0-3,0-4.6c-0.1,0-0.1,0-0.2,0c-0.3,1.1-0.5,2.1-0.8,3.2c-0.4,0-0.8,0-1.3,0
			c-0.3-1.2-0.6-2.3-0.9-3.5c0,0-0.1,0-0.1,0c0,1.6,0,3.2,0,4.8c-0.5,0-1,0-1.5,0C0,37.3,0,34.3,0,31.2z"/>
		<path class="st2" d="M16.1,40.2c-0.5,0.1-1,0.1-1.6,0c-0.5-1.6-1.1-3.2-1.6-4.8c0,0-0.1,0-0.1,0c0,1.6,0,3.2,0,4.7
			c-0.5,0.1-1,0.1-1.5,0c0-3,0-6,0-9c0.5-0.2,1-0.1,1.6-0.1c0.6,1.6,1.1,3.3,1.7,4.9c0,0,0.1,0,0.1,0c0-1.6,0-3.2,0-4.8
			c0.5-0.1,1-0.1,1.6-0.1C16.1,34.2,16.1,37.2,16.1,40.2z"/>
		<path class="st2" d="M104.2,40.3c-0.6,0-1.1,0-1.7,0c0-3,0-6,0-9c0.5-0.2,1-0.1,1.7-0.1c0,1.2,0,2.4,0,3.6c0.5,0,1,0,1.5,0
			c0-1.2,0-2.4,0-3.6c0.6-0.1,1.2-0.1,1.7,0c0,3,0,5.9,0,9c-0.5,0.2-1.1,0-1.7,0.1c0-1.3,0-2.6,0-3.8c-0.5-0.2-1-0.1-1.5-0.1
			C104.2,37.7,104.2,38.9,104.2,40.3z"/>
		<path class="st2" d="M47.7,40.2c-0.4,0.1-0.7,0.1-1.1,0c-0.7-1.8-1.4-3.7-2.1-5.5c-0.1,0-0.1,0-0.2,0c0,1.8,0,3.7,0,5.5
			c-0.4,0.1-0.7,0.1-1.1,0c0-3,0-6,0-9c0.4-0.1,0.7-0.1,1.1,0c0.7,1.8,1.4,3.7,2.1,5.6c0.1,0,0.1,0,0.2,0c0-1.8,0-3.7,0-5.5
			c0.4-0.2,0.7-0.1,1.1-0.1C47.7,34.2,47.7,37.2,47.7,40.2z"/>
		<path class="st2" d="M94.9,34.3c-0.5,0-0.9,0-1.4,0c-0.3-0.3-0.1-0.6-0.2-0.9c-0.1-0.4-0.3-0.7-0.8-0.6c-0.5,0.1-0.6,0.4-0.6,0.8
			c0,0.5,0.3,0.8,0.7,1.1c0.7,0.6,1.5,1.1,2.1,1.9c0.6,1,0.6,2.2,0,3c-0.6,0.8-1.8,1.1-2.9,0.8c-1.1-0.4-1.6-1.2-1.4-2.7
			c0.5,0,0.9,0,1.4,0c0.2,0.2,0.1,0.5,0.2,0.8c0.1,0.4,0.4,0.6,0.8,0.5c0.4-0.1,0.6-0.3,0.6-0.7c0-0.5-0.2-0.9-0.6-1.2
			c-0.6-0.5-1.3-1-1.8-1.6c-1.4-1.5-0.8-3.7,1.1-4.2C93.6,30.9,95.3,32.1,94.9,34.3z"/>
		<path class="st2" d="M108.9,40.2c0-3,0-6,0-9c1.4,0,2.8,0,4.3,0c0.2,0.5,0.1,0.9,0,1.5c-0.8,0-1.6,0-2.4,0
			c-0.2,0.7-0.1,1.4-0.1,2.1c0.7,0.2,1.3,0,2,0.1c0.2,0.4,0.1,0.9,0.1,1.5c-0.7,0-1.4,0-2.1,0c0,0.8,0,1.5,0,2.3c0.8,0,1.6,0,2.5,0
			c0.2,0.5,0.1,1,0.1,1.5C111.8,40.2,110.4,40.2,108.9,40.2z"/>
		<path class="st2" d="M125,31.2c0.2,0.5,0.1,0.9,0,1.5c-0.9,0-1.7,0-2.5,0c-0.1,0.7-0.1,1.4-0.1,2.1c0.7,0,1.3,0,2,0
			c0.2,0.5,0.1,1,0.1,1.6c-0.7,0-1.4,0-2.1,0c0,0.8,0,1.5,0,2.3c0.8,0,1.7,0,2.5,0c0.2,0.5,0.1,1,0.1,1.5c-1.5,0-2.9,0-4.3,0
			c0-3,0-6,0-9C122.1,31.2,123.5,31.2,125,31.2z"/>
		<path class="st2" d="M19.5,32.7c0,0.8,0,1.4,0,2.2c0.7,0,1.3,0,2.1,0c0,0.5,0,1,0,1.5c-0.6,0.2-1.3,0-2,0.1
			c-0.2,0.7,0,1.4-0.1,2.2c0.9,0.2,1.7,0,2.6,0.1c0.1,0.5,0.1,0.9,0,1.4c-1.4,0-2.9,0-4.3,0c0-3,0-5.9,0-8.9c1.4,0,2.8,0,4.2,0
			c0.2,0.4,0.1,0.9,0,1.4C21.2,32.7,20.4,32.7,19.5,32.7z"/>
		<path class="st2" d="M40.3,31.2c0.3-0.1,0.7-0.1,1.1,0c0,1.1,0,2.2,0,3.3c0,1.3,0,2.5,0,3.8c0,1.2-1,2.1-2.1,2.1
			c-1.1,0.1-2.3-0.7-2.3-1.9c-0.1-2.4,0-4.9,0-7.3c0.4-0.2,0.7-0.1,1.1-0.1c0.2,0.3,0.1,0.6,0.1,0.9c0,1.9,0,3.7,0,5.6
			c0,1.1,0.3,1.6,1,1.5c0.7,0,1-0.5,1-1.6c0-1.8,0-3.7,0-5.5C40.2,31.9,40.1,31.6,40.3,31.2z"/>
		<path class="st2" d="M54.7,37.6c0.3,0,0.7,0,1,0c0,0.3,0.1,0.6,0.1,0.9c0.1,0.6,0.5,0.9,1.1,0.8c0.6-0.1,0.9-0.5,0.9-1.1
			c0-0.6-0.3-1-0.7-1.3c-0.6-0.5-1.2-1-1.8-1.5c-1-1-1.1-2.6-0.2-3.5c0.7-0.7,1.8-0.8,2.6-0.4c0.8,0.5,1.2,1.4,1,2.6
			c-0.3,0.1-0.6,0.1-1,0c0-0.3,0-0.6-0.1-0.8c-0.1-0.5-0.4-0.9-1-0.9c-0.6,0-0.9,0.4-1,1c-0.1,0.6,0.2,1,0.7,1.4
			c0.6,0.5,1.3,1,1.8,1.6c1.2,1.3,1,3.3-0.5,3.9c-0.8,0.4-1.6,0.3-2.3-0.2C54.7,39.4,54.5,38.6,54.7,37.6z"/>
		<path class="st2" d="M63.6,37.4c0.4-0.1,0.7-0.1,1.1,0c0.1,0.9,0.1,1.9-0.7,2.5c-0.7,0.5-1.5,0.6-2.3,0.3c-0.9-0.4-1.3-1-1.3-1.9
			c0-1.6,0-3.3,0-4.9c0-1.4,0.9-2.3,2.2-2.3c1.3,0,2.1,0.9,2.1,2.2c0,0.2,0,0.4,0,0.6c-0.4,0.2-0.7,0.1-1,0
			c-0.2-0.3-0.1-0.5-0.1-0.8c-0.1-0.5-0.4-0.9-1-0.9c-0.6,0-1,0.3-1,0.9c0,1.7,0,3.5,0,5.2c0,0.5,0.4,0.9,1,0.9c0.6,0,0.9-0.3,1-0.9
			C63.6,38.1,63.6,37.8,63.6,37.4z"/>
		<path class="st2" d="M26.1,40.2c-0.7,0-1.2,0-1.8,0c0-2.5,0-4.9,0-7.5c-0.5,0-0.9,0-1.4-0.1c-0.2-0.5-0.1-0.9-0.1-1.5
			c1.5,0,3,0,4.5,0c0.2,0.4,0.1,0.9,0.1,1.4c-0.4,0.2-0.8,0-1.3,0.1C26.1,35.2,26.1,37.7,26.1,40.2z"/>
		<path class="st2" d="M29.4,32.8c-0.6,0-1-0.1-1.4-0.1c-0.1-0.5-0.1-1,0-1.5c1.5,0,3,0,4.5,0c0.1,0.5,0.1,0.9,0,1.4
			c-0.4,0.2-0.9,0-1.3,0.2c0,2.4,0,4.9,0,7.4c-0.6,0.2-1.1,0.1-1.8,0.1C29.4,37.8,29.4,35.3,29.4,32.8z"/>
		<path class="st2" d="M53,35.1c0,0.4,0,0.7,0,1.1c-0.7,0-1.4,0-2.1,0c0,1,0,1.9,0,2.9c0.8,0,1.7,0,2.5,0c0.2,0.4,0.1,0.7,0.1,1.1
			c-1.2,0-2.5,0-3.8,0c0-2.9,0-5.9,0-9c1.2,0,2.4,0,3.7,0c0.2,0.3,0.1,0.6,0.1,1c-0.8,0.2-1.7,0-2.6,0.1c0,0.8,0,1.7,0,2.6
			C51.6,35.2,52.3,34.9,53,35.1z"/>
		<path class="st2" d="M81.2,40.3c0-3.1,0-6,0-9c0.6,0,1.1,0,1.7,0c0,3,0,5.9,0,8.9C82.4,40.4,81.8,40.3,81.2,40.3z"/>
		<path class="st2" d="M9.8,40.2c-0.6,0-1.1,0-1.6,0c0-3,0-6,0-9c0.6,0,1.1,0,1.6,0C9.8,34.2,9.8,37.2,9.8,40.2z"/>
		<path class="st2" d="M118.4,36.4c0.2-0.2,0.4-0.4,0.5-0.6c1.2-1.6,0.4-4.2-1.5-4.5c-1-0.2-2,0-3,0c0,3.1,0,6,0,9.1
			c0.6,0,1.1,0.1,1.7-0.1c0-1.1,0-2.2,0-3.3c0.1,0,0.2-0.1,0.3-0.1c0.8,1,0.7,2.4,1.3,3.6c0.5,0,1.1,0.1,1.7-0.1
			C119.2,38.9,118.8,37.6,118.4,36.4z M117.5,34.8c-0.2,0.5-0.7,0.4-1.3,0.3c0-0.8,0-1.5,0-2.3c0.5-0.1,1-0.2,1.3,0.3
			C117.8,33.6,117.8,34.3,117.5,34.8z"/>
		<path class="st2" d="M79.1,35.7c0.2-0.2,0.3-0.4,0.5-0.6c1-1.5,0-3.8-1.8-4c-0.8-0.1-1.6,0-2.5,0c0,3.1,0,6.1,0,9.1
			c0.9,0,1.8,0,2.7,0c1.3-0.1,2.1-1,2.1-2.2C80.1,37.1,80,36.3,79.1,35.7z M76.9,32.8c1.2,0,1.3,0.2,1.3,1.3c0,0.9-0.2,1-1.3,0.9
			C76.8,34.3,76.8,33.5,76.9,32.8z M78.1,38.4c-0.2,0.5-0.7,0.4-1.3,0.3c0-0.8,0-1.5,0-2.2c0.5-0.1,0.9-0.2,1.2,0.2
			C78.4,37.2,78.4,37.8,78.1,38.4z"/>
		<path class="st2" d="M89.1,33.3c-0.1-1.3-1-2.1-2.4-2.2c-1.3,0-2.5,0.8-2.5,2c-0.1,1.8-0.1,3.5,0,5.3c0.1,1.3,1.2,2.1,2.6,2
			c1.4-0.1,2.3-0.9,2.3-2.2c0-0.8,0-1.6,0-2.4C89.1,35,89.1,34.2,89.1,33.3z M87.3,38.1c0,0.4-0.2,0.8-0.7,0.8
			c-0.5,0-0.8-0.3-0.8-0.8c0-1.5,0-3.1,0-4.6c0-0.4,0.2-0.8,0.7-0.8c0.5,0,0.7,0.3,0.7,0.8c0,0.8,0,1.6,0,2.4c0,0,0,0,0,0
			C87.3,36.6,87.3,37.4,87.3,38.1z"/>
		<path class="st2" d="M101.2,33.4c-0.1-1.2-0.8-2-2-2.1c-0.9-0.1-1.9,0-2.9,0c0,3.1,0,6,0,9c0.6,0,1.1,0,1.7,0c0-0.8,0-1.5,0-2.3
			c0.3,0,0.4,0,0.6,0c1.7,0,2.6-0.9,2.6-2.6C101.3,34.7,101.3,34,101.2,33.4z M98.1,36.4c0-1.2,0-2.4,0-3.5c1.2-0.1,1.4,0,1.4,1.2
			c0,0.4,0,0.8,0,1.2C99.5,36.3,99.3,36.4,98.1,36.4z"/>
		<path class="st2" d="M68.2,40.5c1.2,0.1,2.3-0.7,2.4-1.9c0.1-1.8,0.1-3.7,0-5.5c0-1.1-1.1-1.9-2.3-1.9c-1.2,0-2.1,0.9-2.1,2.1
			c0,0.8,0,1.7,0,2.5c0,0.9,0,1.7,0,2.6C66.1,39.5,67,40.4,68.2,40.5z M67.3,33.5c0-0.7,0.3-1.1,1-1.1c0.7,0,1,0.5,1,1.2
			c0,0.8,0,1.5,0,2.3c0,0.8,0,1.5,0,2.3c0,0.7-0.3,1.1-1,1.1c-0.7,0-1-0.5-1-1.2C67.3,36.6,67.3,35.1,67.3,33.5z"/>
	</g>
</g>
</svg>
