<?xml version="1.0" encoding="utf-8"?>
<!-- Generator: Adobe Illustrator 24.3.0, SVG Export Plug-In . SVG Version: 6.00 Build 0)  -->
<svg version="1.1" xmlns="http://www.w3.org/2000/svg" xmlns:xlink="http://www.w3.org/1999/xlink" x="0px" y="0px" width="334.2px"
	 height="179px" viewBox="0 0 334.2 179" style="enable-background:new 0 0 334.2 179;" xml:space="preserve">
<g id="Calque_1">
	<g>
		<path d="M221.6,68.2c-6.9,0-13.7,0-20.7,0c-0.6-3.3-1.3-6.6-1.9-10c-1.6-8.4-3.1-16.7-4.7-25.1c-0.3-1.3-0.6-2.7-1.1-4
			c-1.6-4.6-4.1-8.5-9.4-9.3c-5.7-0.8-11,0.4-14.9,5.1c-3.6,4.4-4.8,9.6-3.9,15c1.4,8.7,3.1,17.3,4.6,25.9c0.1,0.7,0.2,1.4,0.3,2.2
			c-6.9,0-13.8,0-20.9,0c-0.8-4.3-1.6-8.6-2.4-13c-0.8-4.5-1.7-9-2.6-13.4c-0.3-1.3-0.7-2.5-1.1-3.7c-2.2-5.3-5.7-9-11.9-9.1
			c-6.5-0.1-11.5,2.7-14.4,8.6c-2.6,5.4-2.1,11-1,16.7c0.9,4.6,1.7,9.2,2.6,14c-7,0-13.7,0-20.7,0c-0.9-4.5-1.8-9.1-2.6-13.8
			c-1.7-9.1-3.3-18.3-5-27.4c-1.1-6,0.9-9.2,6.8-10.6c1.3-0.3,2.5-0.6,3.8-0.7c4.6-0.6,6.8,0.9,9.5,6.4c5.5-7.9,12.9-12.1,22.4-12.8
			c9.5-0.8,17.5,2,23.7,9.7c1.4-2.8,2.6-5.4,4.3-7.8c9.6-13,36.1-17.8,48.4,2.7c3.5,5.9,5.2,12.3,6.4,18.9c2,11.2,4.1,22.3,6.1,33.5
			C221.5,66.9,221.6,67.5,221.6,68.2z"/>
		<path d="M108.1,124.3c0.5-0.1,0.8-0.2,1.2-0.2c5.9,0,11.7,0,17.8,0c0.7,3.6,1.3,7.1,2,10.6c0.7,3.9,1.5,7.8,2.5,11.6
			c0.7,2.5,1.7,4.9,3.3,7c3.1,4.2,7.3,5.9,12.4,5.2c2.1-0.3,4.2-0.7,6.3-1.2c6.9-1.7,10.3-6,10.5-13.1c0.2-5.4-1.3-10.6-2.2-15.8
			c-0.2-1.3-0.5-2.7-0.7-4.1c6.3,0,12.5,0,18.9,0c0.9,2.5,1,5.1,1.6,7.7c0.7,3.3,1.7,6.5,3.5,9.4c2.6,4.1,6.5,5.8,11.2,5.4
			c2.7-0.2,5.5-0.8,8.1-1.4c5.7-1.4,9-5.7,9.2-11.6c0.1-3.1-0.4-6.2-1-9.4c6.4,0,12.7,0,19,0c3.5,14.6-0.4,35.6-22.9,40.6
			c-3.9,0.9-7.7,1.7-11.7,1.6c-7.5,0-11.4-1.4-18.5-6.6c-0.1,0.1-0.4,0.1-0.4,0.2c-3.5,9.8-11.1,14.8-20.7,17.1
			c-6.5,1.6-13.2,2.6-19.9,1c-11.5-2.8-18.4-10.4-22.7-21.1c-2.8-7.2-3.5-14.9-5-22.4C109.3,131.3,108.8,127.9,108.1,124.3z"/>
		<path d="M0,83.4c1.7,0,3.3,0,5.1,0c1.1,4,2.2,8.2,3.4,12.7c1.6-4.3,2.3-8.4,3.5-12.6c1.6-0.5,3.3-0.1,5.2-0.3c0,8.1,0,16.1,0,24.2
			c-1.3,0.3-2.5,0.2-4.1,0.1c0-4.1,0-8.1,0-12.2c-0.2,0-0.4,0-0.6-0.1c-0.7,2.9-1.4,5.7-2.2,8.6c-1.2,0-2.2,0-3.4,0
			c-0.8-3.1-1.6-6.3-2.4-9.4c-0.1,0-0.2,0-0.4,0c0,4.3,0,8.5,0,12.9c-1.5,0-2.7,0-4.1,0C0,99.5,0,91.6,0,83.4z"/>
		<path d="M43.1,107.5c-1.5,0.2-2.8,0.2-4.3,0c-1.5-4.2-2.9-8.5-4.4-12.8c-0.1,0-0.2,0-0.3,0c0,4.2,0,8.4,0,12.7
			c-1.4,0.3-2.7,0.2-4.1,0.1c0-8,0-15.9,0-24c1.3-0.4,2.6-0.2,4.2-0.2c1.5,4.3,3,8.7,4.4,13.1c0.1,0,0.2,0,0.4-0.1
			c0-4.3,0-8.5,0-12.8c1.4-0.4,2.7-0.2,4.1-0.2C43.1,91.3,43.1,99.3,43.1,107.5z"/>
		<path d="M278.5,107.6c-1.7,0-3,0-4.5,0c0-8,0-15.9,0-24c1.3-0.5,2.7-0.2,4.4-0.2c0,3.2,0,6.4,0,9.6c1.4,0,2.6,0,4,0
			c0-3.2,0-6.3,0-9.5c1.7-0.3,3.1-0.3,4.6,0c0,8,0,15.9,0,23.9c-1.4,0.4-2.9,0.1-4.5,0.3c0-3.5,0-6.8,0-10.1c-1.4-0.4-2.6-0.3-4-0.1
			C278.5,100.7,278.5,104,278.5,107.6z"/>
		<path d="M127.6,107.5c-1.1,0.2-1.9,0.2-2.9-0.1c-1.8-4.9-3.7-9.8-5.5-14.7c-0.2,0-0.4,0.1-0.5,0.1c0,4.9,0,9.8,0,14.6
			c-1.1,0.3-1.9,0.3-2.8,0.1c0-8,0-16,0-24c1-0.3,1.8-0.2,2.8,0c1.8,4.9,3.7,9.9,5.5,14.9c0.2,0,0.4-0.1,0.6-0.1c0-4.9,0-9.8,0-14.7
			c1.1-0.5,1.9-0.4,2.9-0.2C127.6,91.4,127.6,99.4,127.6,107.5z"/>
		<path d="M253.5,91.5c-1.3,0-2.5,0-3.7,0c-0.7-0.7-0.2-1.7-0.5-2.5c-0.3-1-0.9-1.7-2-1.6c-1.2,0.2-1.7,1.1-1.7,2.2
			c0,1.3,0.8,2.2,1.8,2.9c2,1.5,4.1,2.9,5.5,5c1.7,2.6,1.7,5.8,0,8c-1.7,2.2-4.8,3-7.7,2.1c-3-1-4.3-3.3-3.8-7.3c1.2,0,2.5,0,3.9,0
			c0.6,0.5,0.2,1.4,0.5,2.1c0.4,1,1.1,1.5,2.2,1.4c1.1-0.2,1.6-0.9,1.7-1.9c0.1-1.4-0.6-2.3-1.6-3.1c-1.6-1.4-3.4-2.6-4.9-4.2
			c-3.8-3.9-2.2-10,2.9-11.3C250.1,82.5,254.7,85.8,253.5,91.5z"/>
		<path d="M290.9,107.5c0-8,0-15.9,0-24c3.8,0,7.6,0,11.4,0c0.5,1.2,0.4,2.5,0,3.9c-2.1,0-4.3,0-6.5,0c-0.5,1.9-0.2,3.7-0.3,5.5
			c1.8,0.6,3.6,0,5.5,0.4c0.5,1.2,0.2,2.5,0.2,3.9c-1.8,0-3.6,0-5.5,0c0,2.1,0,4.1,0,6.2c2.2,0,4.4,0,6.6,0c0.6,1.4,0.4,2.7,0.3,4.1
			C298.7,107.5,294.9,107.5,290.9,107.5z"/>
		<path d="M333.8,83.5c0.5,1.3,0.3,2.5,0.1,3.9c-2.3,0-4.4,0-6.7,0c-0.4,1.9-0.1,3.7-0.2,5.7c1.8,0,3.6,0,5.4,0
			c0.5,1.5,0.3,2.7,0.2,4.2c-1.9,0-3.6,0-5.5,0c0,2.1,0,4.1,0,6.2c2.2,0,4.4,0,6.7,0c0.5,1.4,0.3,2.7,0.2,4c-3.9,0-7.6,0-11.6,0
			c0-8,0-15.9,0-24C326.3,83.5,330,83.5,333.8,83.5z"/>
		<path d="M52.2,87.4c0,2.1,0,3.8,0,5.8c1.8,0,3.6,0,5.5,0c0,1.4,0,2.6,0,3.9c-1.6,0.6-3.5,0-5.4,0.3c-0.5,1.9-0.1,3.8-0.2,5.9
			c2.3,0.6,4.6-0.1,6.9,0.4c0.3,1.2,0.2,2.4,0.1,3.8c-3.9,0-7.7,0-11.6,0c0-7.9,0-15.8,0-23.9c3.7,0,7.5,0,11.3,0
			c0.5,1.1,0.3,2.4,0.1,3.9C56.7,87.4,54.5,87.4,52.2,87.4z"/>
		<path d="M107.7,83.5c0.9-0.3,1.8-0.2,3.1,0c0,2.9,0,5.9,0,8.9c0,3.4,0.1,6.7,0,10.1c-0.1,3.2-2.6,5.5-5.6,5.7c-3,0.2-6.1-2-6.2-5
			c-0.2-6.5-0.1-13-0.1-19.5c1-0.6,2-0.4,2.9-0.2c0.7,0.8,0.4,1.7,0.4,2.5c0,5,0,10,0,15c0,2.9,0.9,4.2,2.7,4.1
			c1.8,0,2.6-1.4,2.6-4.3c0-4.9,0-9.8,0-14.7C107.5,85.2,107.2,84.3,107.7,83.5z"/>
		<path d="M146.1,100.5c0.9,0,1.8,0,2.7,0c0.1,0.8,0.1,1.6,0.3,2.3c0.4,1.6,1.4,2.4,3,2.2c1.7-0.2,2.5-1.3,2.5-3.1
			c0-1.5-0.8-2.6-1.9-3.5c-1.6-1.3-3.2-2.6-4.7-4c-2.7-2.6-2.8-7-0.5-9.3c1.8-1.8,4.8-2.3,6.9-1.1c2.2,1.2,3.2,3.7,2.7,6.9
			c-0.8,0.3-1.6,0.2-2.6,0.1c-0.1-0.7-0.1-1.5-0.2-2.2c-0.3-1.4-1.1-2.3-2.7-2.3c-1.7,0-2.4,1.1-2.6,2.6c-0.2,1.6,0.6,2.8,1.8,3.8
			c1.6,1.4,3.4,2.7,4.9,4.2c3.3,3.5,2.6,8.7-1.3,10.5c-2.1,1-4.2,0.8-6.1-0.6C146.1,105.4,145.7,103.1,146.1,100.5z"/>
		<path d="M169.9,100c1-0.1,1.9-0.3,2.8,0.1c0.3,2.5,0.3,5-2,6.8c-1.8,1.4-3.9,1.7-6.1,0.8c-2.3-0.9-3.6-2.6-3.6-5.1
			c0-4.4,0-8.8,0-13.2c0-3.7,2.4-6,5.9-6c3.4,0,5.6,2.3,5.7,5.9c0,0.5,0,1-0.1,1.5c-1,0.4-1.9,0.4-2.7,0.1c-0.4-0.7-0.2-1.4-0.3-2.1
			c-0.2-1.5-1-2.4-2.5-2.4c-1.5,0-2.6,0.9-2.6,2.3c-0.1,4.6-0.1,9.3,0,13.9c0,1.4,1.1,2.3,2.6,2.3c1.5,0,2.4-0.9,2.7-2.3
			C169.9,101.9,169.8,101,169.9,100z"/>
		<path d="M69.8,107.5c-1.8,0-3.1,0-4.8,0c0-6.6,0-13.2,0-19.9c-1.4-0.1-2.5-0.1-3.6-0.2c-0.6-1.3-0.4-2.5-0.2-3.9c4,0,7.9,0,12,0
			c0.5,1.2,0.3,2.4,0.2,3.7c-1.1,0.6-2.2,0.1-3.5,0.4C69.8,94.1,69.8,100.6,69.8,107.5z"/>
		<path d="M78.5,87.6c-1.5-0.1-2.6-0.1-3.7-0.2c-0.4-1.3-0.4-2.6,0-3.9c4,0,7.9,0,12,0c0.3,1.3,0.3,2.5,0.1,3.7
			c-1.1,0.6-2.3,0-3.6,0.5c0,6.5,0,13.1,0,19.7c-1.6,0.5-3.1,0.2-4.7,0.3C78.5,100.9,78.5,94.3,78.5,87.6z"/>
		<path d="M141.6,93.8c0,1,0,1.9,0,2.9c-1.9,0-3.7,0-5.6,0c0,2.6,0,5.1,0,7.8c2.3,0,4.5,0,6.7,0c0.5,1.1,0.3,1.9,0.2,2.9
			c-3.3,0-6.6,0-10.1,0c0-7.8,0-15.8,0-23.9c3.2,0,6.5,0,9.9,0c0.6,0.8,0.3,1.7,0.2,2.7c-2.2,0.5-4.4,0-6.8,0.3c0,2.2,0,4.5,0,7
			C137.7,94,139.7,93.4,141.6,93.8z"/>
		<path d="M217,107.6c0-8.2,0-16.1,0-24.1c1.5,0,2.9,0,4.5,0c0,8,0,15.9,0,23.9C220.1,107.9,218.7,107.5,217,107.6z"/>
		<path d="M26.1,107.5c-1.5,0-2.9,0-4.4,0c0-8,0-16,0-24.1c1.5,0,2.8,0,4.4,0C26.1,91.4,26.1,99.3,26.1,107.5z"/>
		<path d="M316.4,97.2c0.6-0.6,1.1-1.1,1.5-1.6c3.2-4.2,1-11.3-4-12.1c-2.6-0.4-5.2-0.1-7.9-0.1c0,8.2,0,16.1,0,24.2
			c1.6-0.1,3,0.3,4.6-0.3c0-3,0-5.9,0-8.9c0.3-0.1,0.6-0.2,0.8-0.3c2.2,2.7,1.9,6.5,3.6,9.5c1.5-0.1,2.9,0.2,4.4-0.2
			C318.4,103.9,317.4,100.5,316.4,97.2z M314,93.1c-0.6,1.3-2,1-3.4,0.8c0-2.2,0-4.1,0-6.2c1.3-0.3,2.7-0.6,3.4,0.7
			C314.7,89.8,314.7,91.6,314,93.1z"/>
		<path d="M211.3,95.4c0.5-0.6,0.9-1,1.3-1.5c2.7-4.1,0-10.2-4.8-10.6c-2.1-0.2-4.3,0-6.6,0c0,8.3,0,16.2,0,24.3
			c2.5,0,4.8,0.1,7.1,0c3.3-0.2,5.5-2.5,5.7-5.9C214,99.2,213.7,96.9,211.3,95.4z M205.4,87.5c3.2,0,3.6,0.5,3.4,3.6
			c-0.1,2.3-0.6,2.7-3.5,2.4C205.2,91.5,205.2,89.6,205.4,87.5z M208.7,102.5c-0.6,1.3-2,1-3.4,0.9c0-2,0-3.9,0-5.9
			c1.2-0.2,2.5-0.5,3.2,0.6C209.4,99.4,209.4,101.1,208.7,102.5z"/>
		<path d="M238,89.1c-0.2-3.4-2.8-5.6-6.4-5.8c-3.6-0.1-6.6,2-6.8,5.3c-0.2,4.7-0.2,9.4,0,14.2c0.2,3.4,3.3,5.6,7,5.4
			c3.6-0.2,6.1-2.5,6.2-5.9c0.1-2.1,0-4.3,0-6.4C238,93.5,238.1,91.3,238,89.1z M233.3,101.9c0,1.1-0.4,2.1-1.8,2.1
			c-1.4,0.1-2-0.9-2-2.1c-0.1-4.1,0-8.2,0-12.3c0-1.1,0.6-2,1.9-2c1.3,0,1.8,0.9,1.9,2c0.1,2.1,0,4.3,0,6.4c0,0,0,0,0,0
			C233.3,97.9,233.4,99.9,233.3,101.9z"/>
		<path d="M270.4,89.2c-0.3-3.1-2.3-5.4-5.3-5.7c-2.5-0.3-5.1-0.1-7.7-0.1c0,8.2,0,16.1,0,24.1c1.6,0,3,0,4.6,0c0-2,0-3.9,0-6
			c0.8,0,1.2,0,1.6,0c4.4-0.1,6.8-2.4,7-6.8C270.6,92.8,270.6,90.9,270.4,89.2z M262,97.1c0-3.1,0-6.3,0-9.4c3.2-0.4,3.7,0,3.7,3.1
			c0,1,0,2.1,0,3.1C265.7,97,265.3,97.4,262,97.1z"/>
		<path d="M182.1,108.1c3.2,0.2,6.2-2,6.3-5.1c0.2-4.9,0.2-9.8,0-14.7c-0.1-3-3-5.1-6.1-5c-3.2,0.1-5.6,2.3-5.7,5.5
			c-0.1,2.2,0,4.5,0,6.7c0,2.3,0,4.6,0,7C176.7,105.7,178.9,107.9,182.1,108.1z M179.8,89.5c0-1.8,0.8-3.1,2.7-3.1
			c2,0,2.6,1.4,2.7,3.1c0.1,2.1,0,4.1,0,6.2c0,2.1,0,4.1,0,6.2c0,1.8-0.9,3-2.7,3c-1.9,0-2.7-1.3-2.7-3.1
			C179.8,97.8,179.8,93.7,179.8,89.5z"/>
	</g>
</g>
<g id="Mode_Isolation">
</g>
</svg>
