<?xml version="1.0" encoding="utf-8"?>
<!-- Generator: Adobe Illustrator 24.2.3, SVG Export Plug-In . SVG Version: 6.00 Build 0)  -->
<svg version="1.1" xmlns="http://www.w3.org/2000/svg" xmlns:xlink="http://www.w3.org/1999/xlink" x="0px" y="0px"
	 viewBox="0 0 78.9 78.9" style="enable-background:new 0 0 78.9 78.9;" xml:space="preserve">
<style type="text/css">
	.st0{clip-path:url(#SVGID_2_);}
	.st1{fill:none;stroke:#A3BD49;stroke-width:0.5;stroke-miterlimit:10;}
	.st2{clip-path:url(#SVGID_4_);}
	.st3{fill:none;stroke:#9D1915;stroke-width:0.4067;stroke-miterlimit:10;}
	.st4{fill:#FFFFFF;stroke:#9D1915;stroke-width:0.75;stroke-miterlimit:10;}
</style>
<g id="Calque_1">
</g>
<g id="Mode_Isolation">
	<g>
		<defs>
			<path id="SVGID_1_" d="M39.4,0.4L39.4,0.4c-21.6,0-39,17.5-39,39v0c0,21.6,17.5,39,39,39h0c21.6,0,39-17.5,39-39v0
				C78.5,17.9,61,0.4,39.4,0.4z"/>
		</defs>
		<clipPath id="SVGID_2_">
			<use xlink:href="#SVGID_1_"  style="overflow:visible;"/>
		</clipPath>
		<g class="st0">
			<line class="st1" x1="20.4" y1="-2.3" x2="-30.6" y2="81.3"/>
			<line class="st1" x1="24.5" y1="-2.3" x2="-26.6" y2="81.3"/>
			<line class="st1" x1="28.5" y1="-2.3" x2="-22.5" y2="81.3"/>
			<line class="st1" x1="32.6" y1="-2.3" x2="-18.5" y2="81.3"/>
			<line class="st1" x1="36.6" y1="-2.3" x2="-14.4" y2="81.3"/>
			<line class="st1" x1="40.7" y1="-2.3" x2="-10.4" y2="81.3"/>
			<line class="st1" x1="44.7" y1="-2.3" x2="-6.3" y2="81.3"/>
			<line class="st1" x1="48.8" y1="-2.3" x2="-2.3" y2="81.3"/>
			<line class="st1" x1="52.8" y1="-2.3" x2="1.8" y2="81.3"/>
			<line class="st1" x1="56.9" y1="-2.3" x2="5.8" y2="81.3"/>
			<line class="st1" x1="60.9" y1="-2.3" x2="9.9" y2="81.3"/>
			<line class="st1" x1="65" y1="-2.3" x2="13.9" y2="81.3"/>
			<line class="st1" x1="69" y1="-2.3" x2="18" y2="81.3"/>
			<line class="st1" x1="73.1" y1="-2.3" x2="22" y2="81.3"/>
			<line class="st1" x1="77.1" y1="-2.3" x2="26.1" y2="81.3"/>
			<line class="st1" x1="81.2" y1="-2.3" x2="30.1" y2="81.3"/>
			<line class="st1" x1="85.2" y1="-2.3" x2="34.2" y2="81.3"/>
			<line class="st1" x1="89.3" y1="-2.3" x2="38.2" y2="81.3"/>
			<line class="st1" x1="93.3" y1="-2.3" x2="42.3" y2="81.3"/>
			<line class="st1" x1="97.4" y1="-2.3" x2="46.3" y2="81.3"/>
			<line class="st1" x1="101.4" y1="-2.3" x2="50.4" y2="81.3"/>
			<line class="st1" x1="105.5" y1="-2.3" x2="54.4" y2="81.3"/>
			<line class="st1" x1="109.5" y1="-2.3" x2="58.5" y2="81.3"/>
		</g>
		<use xlink:href="#SVGID_1_"  style="overflow:visible;fill:none;stroke:#9D1915;stroke-width:0.8;stroke-miterlimit:10;"/>
	</g>
	<g>
		<defs>
			<path id="SVGID_3_" d="M39.1,15c-13.6,0.2-24.5,11.4-24.3,25c0.2,13.6,11.4,24.5,25,24.3c13.6-0.2,24.5-11.4,24.3-25
				C63.9,25.8,52.7,14.8,39.1,15z"/>
		</defs>
		<clipPath id="SVGID_4_">
			<use xlink:href="#SVGID_3_"  style="overflow:visible;"/>
		</clipPath>
		<g class="st2">
			<line class="st3" x1="20.4" y1="-2.3" x2="-30.6" y2="81.3"/>
			<line class="st3" x1="24.5" y1="-2.3" x2="-26.6" y2="81.3"/>
			<line class="st3" x1="28.5" y1="-2.3" x2="-22.5" y2="81.3"/>
			<line class="st3" x1="32.6" y1="-2.3" x2="-18.5" y2="81.3"/>
			<line class="st3" x1="36.6" y1="-2.3" x2="-14.4" y2="81.3"/>
			<line class="st3" x1="40.7" y1="-2.3" x2="-10.4" y2="81.3"/>
			<line class="st3" x1="44.7" y1="-2.3" x2="-6.3" y2="81.3"/>
			<line class="st3" x1="48.8" y1="-2.3" x2="-2.3" y2="81.3"/>
			<line class="st3" x1="52.8" y1="-2.3" x2="1.8" y2="81.3"/>
			<line class="st3" x1="56.9" y1="-2.3" x2="5.8" y2="81.3"/>
			<line class="st3" x1="60.9" y1="-2.3" x2="9.9" y2="81.3"/>
			<line class="st3" x1="65" y1="-2.3" x2="13.9" y2="81.3"/>
			<line class="st3" x1="69" y1="-2.3" x2="18" y2="81.3"/>
			<line class="st3" x1="73.1" y1="-2.3" x2="22" y2="81.3"/>
			<line class="st3" x1="77.1" y1="-2.3" x2="26.1" y2="81.3"/>
			<line class="st3" x1="81.2" y1="-2.3" x2="30.1" y2="81.3"/>
			<line class="st3" x1="85.2" y1="-2.3" x2="34.2" y2="81.3"/>
			<line class="st3" x1="89.3" y1="-2.3" x2="38.2" y2="81.3"/>
			<line class="st3" x1="93.3" y1="-2.3" x2="42.3" y2="81.3"/>
			<line class="st3" x1="97.4" y1="-2.3" x2="46.3" y2="81.3"/>
			<line class="st3" x1="101.4" y1="-2.3" x2="50.4" y2="81.3"/>
			<line class="st3" x1="105.5" y1="-2.3" x2="54.4" y2="81.3"/>
			<line class="st3" x1="109.5" y1="-2.3" x2="58.5" y2="81.3"/>
		</g>
	</g>
	<path class="st4" d="M39.1,15c-13.6,0.2-24.5,11.4-24.3,25c0.2,13.6,11.4,24.5,25,24.3c13.6-0.2,24.5-11.4,24.3-25
		C63.9,25.8,52.7,14.8,39.1,15z M34.5,28.9c1.2-5.8,3.4-8.9,4.7-8.9c0,0,0,0,0,0c1.4,0,3.5,3.1,4.9,8.8l0.1,0.3l-9.8,0.1L34.5,28.9z
		 M22.9,28.9c2.1-3.2,5-5.7,8.5-7.3l0.6-0.3L31.7,22c-0.9,2-1.5,4.4-2,7.1l0,0.2l-7,0.1L22.9,28.9z M21,45.4
		c-0.5-1.8-0.8-3.6-0.9-5.4c0-1.9,0.2-3.7,0.7-5.5l7.6-0.1c-0.1,1.8-0.2,3.6-0.2,5.5c0,1.8,0.1,3.7,0.3,5.5L21,45.4z M31.9,58
		c-3.5-1.5-6.5-3.9-8.7-7l-0.3-0.4l7-0.1l0,0.2c0.6,2.7,1.3,5,2.2,7l0.3,0.6L31.9,58z M44.4,50.6c-1.2,5.8-3.4,8.9-4.7,8.9
		c0,0,0,0,0,0c-1.4,0-3.5-3.1-4.9-8.8l-0.1-0.3l9.8-0.1L44.4,50.6z M45.2,45.4l0,0.2l-11.3,0.2l0-0.2c-0.2-1.8-0.3-3.8-0.4-5.7
		c0-2,0-3.9,0.2-5.7l0-0.2L45,33.7l0,0.2c0.2,1.8,0.3,3.8,0.4,5.7C45.4,41.6,45.4,43.5,45.2,45.4z M46.4,21.2l0.6,0.2
		c3.5,1.5,6.5,3.9,8.7,7l0.3,0.4l-7,0.1l0-0.2c-0.6-2.7-1.3-5-2.2-7L46.4,21.2z M56,50.5c-2.1,3.2-5,5.7-8.5,7.3L46.9,58l0.3-0.6
		c0.9-2,1.5-4.4,2-7.1l0-0.2l7-0.1L56,50.5z M58.4,45.4l-8.5,0.1l0-0.3c0.2-1.9,0.2-3.8,0.2-5.7c0-1.9-0.1-3.8-0.3-5.7l0-0.3
		l8.5-0.1l0.1,0.2c0.6,1.9,0.9,3.8,0.9,5.8c0,2-0.2,3.9-0.8,5.8L58.4,45.4z"/>
</g>
</svg>
