<?xml version="1.0" encoding="utf-8"?>
<!-- Generator: Adobe Illustrator 24.2.3, SVG Export Plug-In . SVG Version: 6.00 Build 0)  -->
<svg version="1.1" xmlns="http://www.w3.org/2000/svg" xmlns:xlink="http://www.w3.org/1999/xlink" x="0px" y="0px" width="50px"
	 height="50px" viewBox="0 0 50 50" style="enable-background:new 0 0 50 50;" xml:space="preserve">
<style type="text/css">
	.st0{fill:#FFFFFF;}
</style>
<g id="Calque_1">
</g>
<g id="Mode_Isolation">
	<g>
		<g>
			<path class="st0" d="M1.5,23.5l0.9,0.9c-0.2-1.3,0.1-2.3,1-3.1c2.2-2.2,4.8-1,8.7,2.8C16,28,17,30.8,15,32.8
				c-0.8,0.8-1.8,1.2-3,1.1l14.6,14.6L25.1,50L0,24.9L1.5,23.5z M10.6,25.7c-3.1-3.1-5-4.3-6.4-2.8c-1.4,1.4-0.2,3.3,2.9,6.4
				s5,4.2,6.4,2.8C14.9,30.6,13.8,28.8,10.6,25.7z"/>
			<path class="st0" d="M10.8,14.2l1.5,1.5c-0.6-1.5-0.5-2.7,0.3-3.6l1.5,1.5c-1.5,1.7-0.9,3,1.2,5.1l6.7,6.7l-1.5,1.5L9.3,15.6
				L10.8,14.2z"/>
			<path class="st0" d="M17.6,6.9c2.2-2.2,5.3-1.4,9.2,2.5c3.9,3.9,4.7,7,2.5,9.2C27,20.8,23.9,20,20,16.1
				C16.1,12.3,15.3,9.1,17.6,6.9z M21.5,14.6c3.1,3.1,5.2,4.1,6.5,2.8c1.3-1.3,0.4-3.4-2.8-6.5c-3.1-3.1-5.3-4.1-6.5-2.8
				C17.4,9.5,18.4,11.5,21.5,14.6z"/>
		</g>
		<g>
			<path class="st0" d="M29.9,43.1c1-1,1-2.5,0-3.5c-1-1-2.3-0.8-4.4-0.7c-2.4,0.2-4.1,0.2-5.5-1.2c-1.6-1.6-1.6-3.9,0-5.5
				c0.7-0.7,1.5-1.1,2.6-1.4l1.4,1.4c-1.1,0-2.1,0.4-2.7,1c-0.9,0.9-0.9,2.2-0.1,3.1c0.9,0.9,2.1,0.8,4,0.6c2.7-0.2,4.4-0.3,5.9,1.2
				c1.8,1.8,1.8,4.3,0.1,6c-0.8,0.8-1.9,1.3-3,1.4L26.6,44C28.1,44.1,29.2,43.8,29.9,43.1z"/>
			<path class="st0" d="M25.9,26.7l7.4,7.4c1.9,1.9,3.2,2.5,4.4,1.3c1.2-1.2,0.6-2.4-1.3-4.3L29,23.6l1.4-1.4l7.6,7.6
				c2.6,2.6,3,4.7,0.9,6.7c-2.1,2.1-4.2,1.7-6.8-0.9l-7.6-7.6L25.9,26.7z"/>
			<path class="st0" d="M47.6,25.3c0.4,1.2,0.1,2.3-0.7,3.2c-2,2-4.7,0.7-8.8-3.4c-3.7-3.7-4.7-6.3-2.8-8.2c0.9-0.9,1.9-1.1,3.1-0.8
				L23.5,1.4L24.9,0L50,25.1l-1.3,1.3L47.6,25.3z M46.1,27c1.3-1.3,0.2-3.1-3-6.3c-3.1-3.1-5-4.3-6.3-3c-1.4,1.4-0.2,3.2,2.9,6.3
				C43,27.3,44.7,28.4,46.1,27z"/>
		</g>
	</g>
</g>
</svg>
