<?xml version="1.0" encoding="utf-8"?>
<!-- Generator: Adobe Illustrator 24.2.3, SVG Export Plug-In . SVG Version: 6.00 Build 0)  -->
<svg version="1.1" xmlns="http://www.w3.org/2000/svg" xmlns:xlink="http://www.w3.org/1999/xlink" x="0px" y="0px"
	 viewBox="0 0 39.7 55" style="enable-background:new 0 0 39.7 55;" xml:space="preserve">
<style type="text/css">
	.st0{fill:#A4BE4A;}
</style>
<g id="Calque_1">
</g>
<g id="Mode_Isolation">
	<path class="st0" d="M39.7,43l0-1l0-6.2l0-1l0-6.2l0-1l0-6.2l0-1l0-6.2l0-1l0-3.4c0-4.8-3.4-8.8-7.9-9.7c-0.2,0-0.4-0.1-0.7-0.1
		C30.6,0,30.2,0,29.7,0h-2.3h-0.6H23h-0.6h-3.7h-0.6h-3.7h-0.6h-3.7H10C9.9,0,9.7,0,9.6,0c-1.2,0-2.3,0.3-3.3,0.7
		C6.1,0.8,6,0.9,5.8,0.9C4.9,1.4,4,2,3.2,2.7C3.1,2.8,2.9,2.9,2.8,3.1C2,3.9,1.3,4.9,0.9,6C0.8,6.2,0.7,6.4,0.6,6.5
		C0.2,7.6,0,8.8,0,10c0,0.7,0.1,1.4,0.2,2c0.2,0.8,0.4,1.5,0.7,2.2C1.2,14.8,1.6,15.4,2,16c0.5,0.6,1,1.2,1.6,1.7
		c1.4,1.2,3.1,1.9,5,2.2c0.2,0,0.4,0,0.6,0.1c0.2,0,0.5,0,0.7,0h0.7c0.9,0,1.8,0.1,2.6,0.4c0.3,0.1,0.5,0.2,0.7,0.3
		c3.3,1.3,5.7,4.6,5.7,8.3l0,1.1l0,1l0,6.2l0,1l0,6.2l0,0.6c0,0.1,0,0.3,0,0.4c0.2,3.5,2.1,6.5,4.9,8.1c0.3,0.2,0.6,0.3,0.9,0.5
		c1.3,0.6,2.7,1,4.2,1c0,0,0,0,0,0c0.2,0,0.4,0,0.6,0c1.1-0.1,2.2-0.3,3.3-0.7c0.2-0.1,0.3-0.1,0.5-0.2c1-0.5,1.8-1.1,2.6-1.8
		c0,0,0.1-0.1,0.1-0.1c0.1-0.1,0.1-0.2,0.2-0.2c0.8-0.9,1.5-1.9,1.9-3c0.1-0.2,0.2-0.4,0.2-0.6c0.4-1,0.6-2.1,0.5-3.3L39.7,43z
		 M38.7,10l0,1.7L32.5,1.5C36.1,2.7,38.6,6,38.7,10z M29.7,1c0.7,0,1.5,0.1,2.2,0.3l6.8,11.4l0,6.2L27.9,1H29.7z M27.4,1l11.3,18.8
		l0,6.2l-15-25H27.4z M23.1,1l15.6,26l0,6.2L19.3,1H23.1z M18.8,1l19.9,33.1l0,6.2L15.1,1H18.8z M1,10c0-0.8,0.1-1.6,0.3-2.3L8,18.8
		C4,17.8,1,14.3,1,10z M10.7,19H10c-0.5,0-0.9,0-1.4-0.1L1.5,7c0.4-1.2,1-2.2,1.8-3.1l9.2,15.2C11.9,19.1,11.3,19,10.7,19z
		 M21.2,47.9l1.9,3.2C22.3,50.2,21.6,49.1,21.2,47.9z M24.4,52.2l-3.6-6c-0.1-0.4-0.1-0.8-0.1-1.3l0-5.1L29.2,54
		C27.4,53.9,25.8,53.2,24.4,52.2z M29.8,54l-9.1-15.1l0-6.2l12.4,20.6C32,53.8,30.9,54,29.8,54z M36.1,51.3
		c-0.8,0.8-1.6,1.4-2.6,1.8L20.7,31.8l0-2.8c0-4.6-3.2-8.5-7.5-9.6L3.7,3.6c0.8-0.7,1.7-1.4,2.6-1.8L36.1,51.3
		C36.1,51.3,36.1,51.3,36.1,51.3z M36.5,50.9L6.8,1.6C7.8,1.2,8.9,1,10,1h0.2l28.1,46.7C37.9,48.9,37.3,50,36.5,50.9z M38.5,47.1
		L10.8,1h3.7l24.3,40.3l0,3.7C38.7,45.7,38.6,46.4,38.5,47.1z"/>
</g>
</svg>
