<?xml version="1.0" encoding="utf-8"?>
<!-- Generator: Adobe Illustrator 24.3.0, SVG Export Plug-In . SVG Version: 6.00 Build 0)  -->
<svg version="1.1" id="Calque_1" xmlns="http://www.w3.org/2000/svg" xmlns:xlink="http://www.w3.org/1999/xlink" x="0px" y="0px"
	 width="606.8px" height="547px" viewBox="0 0 606.8 547" style="enable-background:new 0 0 606.8 547;" xml:space="preserve">
<style type="text/css">
	.st0{fill-rule:evenodd;clip-rule:evenodd;}
	.st1{fill:#FFFFFF;}
</style>
<g>
	<g>
		<path class="st0" d="M606.1,367.9c2.5-7.4-1.9-19-1.1-23.3c1.7-9.2-14.3-21.9-15.5-25c-1.7-4.4,1.2-16.5-6.7-21.2
			c-7.8-4.7-18.7-4.3-26.4-16.4c-3.3-5.2-3.4-18.9-4.2-24.4c-0.8-5.5-9.1-9.3-13.8-10.9c-4.7-1.6-10.6-12.2-10.6-17.7
			s-11.2-10.7-16.8-7c-5.6,3.6-14.8,3.8-23.9,5.5c-7.6,1.4-12.7-2.2-15.9-1.4c-3.1,0.8-12,0.9-18.3-3.8c-6.3-4.7-20.3-3.2-21.8,3
			s-2.3,10.5-7,11.3c-4.7,0.8-4.6,4.9-5.6,7c-1.9,4.1-6.9,9.2-10.1,9.2c-3.1,0-12.6,4.1-15.4,8.8c-3.3,5.6-10.5,5.9-16.2-2
			c-10.7-14.8-22.7-9.1-25.1-14.6c-3.1-7.4-13.9-3.8-16.2-8.5c-2.4-4.7-11-13.6-18.8-14.4c-7.8-0.8-15.9-1.9-13-10.5
			c2.6-7.8-1.1-9.6-4.2-13.5c-4.5-5.6,0.7-21.9-13.4-25.1c-14.1-3.1-23,2.3-26.9,0c-3.9-2.3-0.8-8.6-4.7-19.6
			c-3.9-11-13.5-10.9-13.5-18.7s3.4-6.6,4.1-12.8c1.1-10.2-12-13.1-23.8-25.7c-6.8-7.3-19.7-21.8-23.6-28.1
			c-3.9-6.3-2.4-26.2-9.4-33c-7.5-7.3-0.5-15.6-4.6-20.2c-9.3-10.5-16.5-11.7-25.9-14.1c-3.3-0.8-7.9-1-12.5-0.8L142.6,2
			c-1.2,0.9-2,2-2.2,3.5c-0.2,1.5,0.1,2.8,1,4.1l2.4,3.2c1.7,2.3,1.4,5.4-0.7,7.3l-16.5,15.2c-1,0.9-1.5,1.9-1.7,3.2l-2.5,17.8
			c-0.1,0.8-0.1,1.5,0.2,2.3l2.9,9.7c0.6,2.1,0,4.2-1.6,5.6l-4.5,4.1c-0.7,0.6-1.4,1-2.3,1.2l-8.6,2.2c-0.9,0.2-1.6,0.6-2.3,1.3
			L93.3,94.4c-0.4,0.3-0.7,0.6-1.2,0.8l-14.9,7.9c-1.1,0.6-1.9,1.4-2.4,2.5l-2.1,4.7c-0.9,1.9-0.6,4.1,0.8,5.6l2.8,3.3
			c0.4,0.5,0.7,1,0.9,1.6l3.9,10.5c0.5,1.3,1.4,2.3,2.6,2.9l5.8,2.9c0.8,0.4,1.6,0.6,2.5,0.6l8.4-0.1c1.7,0,3.2-0.8,4.2-2.2l1.2-1.6
			c0.3-0.4,0.6-1,1-1.6l0.5-0.8l3-5.2l3,5.1c0.5,0.8,0.9,1.7,1.2,2.3c0.2,0.3,0.3,0.6,0.4,0.8l3.7,6.7c0.2,0.4,0.5,0.8,0.8,1.4
			c0.3,0.5,0.9,1.5,1.5,2.5l3.8,6.9l-7.7-1.8c-0.7-0.2-1.3-0.3-1.9-0.5c-0.8-0.2-1.5-0.4-1.9-0.5l-0.1,0c-0.2,0-0.3,0-0.5,0
			c-1.2,0-2.4,0.6-3.2,1.6l-0.2,0.3c-1,1.3-2.2,2.9-2,4.3c0.2,1.2,1.2,1.9,2.8,2.8c0.2,0.1,0.5,0.3,0.7,0.4l1.5,1
			c1.3,0.9,2,2.3,1.8,3.9l0,0.3c-0.2,2,0.6,3.9,2.3,5l1.2,0.8c1,0.7,1.5,1.6,1.7,2.7c0.2,1.2-0.1,2.2-0.8,3.1c-0.8,1.1-2,1.8-3.5,2
			l-3.1,0.5c-1.9,0.3-3.3,1.4-4.1,3.1l-0.6,1.4c-0.8,1.7-2.2,2.8-4,3.2l-5.1,0.9c-0.9,0.2-1.7,0.5-2.4,1.1l-12.4,9.9
			c-0.4,0.3-0.8,0.7-1.1,1.2l-4.5,6.7c-0.4,0.6-1,1.3-1.9,1.7l-8.9,4.1c-1.5,0.7-2.5,1.7-2.9,3c-0.3,1-0.1,2.1,0.5,3.1l3.1,5
			c1.2,1.9,0.8,4.4-0.9,6.2l-4.2,4.5c-1,1-2.1,1.6-3.5,1.7l-5.4,0.4c-0.9,0.1-1.6,0.3-2.4,0.8l-12.3,7.5c-0.9,0.5-1.7,0.8-2.9,0.8
			l-6.5-0.1c-1,0-1.8,0.2-2.6,0.6l-17.5,9.4c-0.8,0.4-1.7,0.7-2.6,0.7c-0.3,0-0.6,0-0.9-0.1l1.3,0.5L1,264c-1.6,2.2-1.3,5.1,0.6,7
			l9.2,8.9c1,1,2.3,1.5,3.7,1.5c0.8,0,1.6-0.2,2.3-0.5l27.4-13c0.8-0.4,1.5-0.5,2.3-0.5c0.8,0,1.5,0.2,2.3,0.5
			c1.5,0.7,2.5,1.9,3,3.5l1,3.7c0.1,0.3,0.1,0.5,0.1,0.8l1.5,12.4c0.1,0.6,0.2,1.2,0.5,1.7l4.6,9.4c1.3,2.6,0.3,5.6-2.2,7.1
			l-6.4,3.7c-1.8,1.1-2.8,2.9-2.6,5l1.1,16c0.1,1.6,0.8,2.9,2.1,3.9l19.9,15.2c1.2,1,1.9,2.2,2.1,3.8l0.9,8.1c0.2,2,1.4,3.6,3.3,4.4
			l11.3,4.7c1.1,0.4,1.8,1.1,2.5,2.1l7.9,12.2c0.5,0.7,0.9,1.2,1.7,1.6l14.7,9.2c0.9,0.6,1.8,0.8,2.8,0.8c0.3,0,0.6,0,0.9-0.1
			l19.1-3.1c0.3-0.1,0.6-0.1,0.9-0.1c1.2,0,2.3,0.4,3.2,1.1l8.7,6.6c1,0.7,2,1.1,3.2,1.1c0.2,0,0.4,0,0.6,0l19.5-1.9
			c1.7-0.2,3.1-1,4-2.4l4.7-7.3c1-1.6,2.7-2.5,4.6-2.5c0.3,0,0.5,0,0.8,0.1l25.3,3.6c0.7,0.1,1.3,0.3,1.9,0.7l6.9,3.9
			c0.8,0.5,1.8,0.7,2.7,0.7c1.3,0,2.5-0.5,3.6-1.4l3.5-3.2c1-0.9,2.3-1.4,3.6-1.4c0.1,0,0.3,0,0.5,0l12.8,1c1.3,0.1,2.4,0.6,3.3,1.4
			l19.5,18.1c0.7,0.7,1.5,1.1,2.5,1.3l31.4,6.7c1.2,0.3,2.2,0.9,3,1.8l3.7,4.4c1.8,2.2,1.7,5.3-0.3,7.3l-2.6,2.6
			c-0.9,0.9-1.4,2-1.5,3.2l-0.4,4.3c-0.1,1.4,0.2,2.6,1.1,3.7l0.7,0.9c0.9,1.2,1.3,2.6,1,4.2l-4.5,27.7c-0.2,1.3,0,2.5,0.7,3.6
			l10.8,18.4c1,1.7,2.7,2.6,4.6,2.6c0.5,0,1.1-0.1,1.6-0.2l5.7-1.7c0.5-0.2,1.1-0.3,1.6-0.3c1.5,0,2.8,0.6,3.9,1.7l1.2,1.2
			c1.3,1.4,1.8,3.2,1.4,5l-1.5,6.5c-0.3,1.5-1.2,2.6-2.4,3.4l-9.6,5.9c-1.2,0.7-3.8,2.3-3.9,3.4c-0.1,0.9,0.6,1.8,1.6,2.8
			c0.2,0.2,0.3,0.4,0.5,0.5l0.7,0.8c1,1.2,2.5,1.8,4,1.8c0.9,0,1.9-0.3,2.7-0.7l25.9-14.9c0.8-0.5,1.8-0.7,2.7-0.7
			c1.3,0,2.6,0.5,3.6,1.4l12.2,10.8c1,0.9,2.2,1.4,3.5,1.4c0.5,0,1-0.1,1.5-0.2l19-5.2c0.5-0.1,0.9-0.2,1.4-0.2c0.1,0,0.3,0,0.4,0
			l8.4,0.6c1.7,0.1,3.1,0.9,4.1,2.3c0.4,0.6,0.7,1.1,0.9,1.6l0.8,1.8l-3.3,4.5c-0.6,0.8-0.7,1.5-0.5,2.1c0.5,1.4,2.9,2.5,6.6,3.2
			l17.8,3.4c0.3,0.1,0.7,0.1,1,0.1c2,0,3.8-1.1,4.7-2.8l15.9-29.4c0.3-0.5,0.5-1.1,0.6-1.7l1.7-10.3c0.3-1.6,1.2-2.9,2.6-3.8
			l7.8-4.7c0.9-0.5,1.8-0.8,2.8-0.8c0.7,0,1.4,0.2,2.2,0.4l8.1,3.4c0.7,0.3,1.4,0.4,2.1,0.4c0.4,0,0.8,0,1.2-0.1l9.7-2.3
			c0.4-0.1,0.9-0.2,1.3-0.2c0.8,0,1.5,0.2,2.3,0.5l9,4.2c1.6,0.7,2.6,2,3,3.7l2.3,9.9c0.3,1.2,0.9,2.1,1.8,2.9l13.9,11.7
			c0.8,0.6,1.6,1,2.5,1.2l16,2.8c0.3,0.1,0.6,0.1,1,0.1c1.6,0,3-0.7,4-1.9l0.5-0.6c1-1.2,1.5-2.7,1.2-4.3l-3.1-21
			c-0.1-0.4-0.1-0.8-0.1-1.2l0.6-8.2c0.1-1.2,0.5-2.2,1.2-3.1l13.8-16.6c1.1-1.3,2.5-2,4.1-2c0.5,0,1,0.1,1.5,0.2l7.8,2.1
			c0.5,0.1,1,0.2,1.5,0.2c0.8,0,1.5-0.2,2.3-0.6l11.1-5.4c1.4-0.7,2.3-1.8,2.8-3.3l5.9-19.6c0.4-1.2,0.3-2.3-0.1-3.4l-1.5-3.9
			c-0.3-0.9-0.4-1.7-0.3-2.6l2.5-20.7c0.1-1.2,0.7-2.1,1.6-2.8c0.4-0.3,0.7-0.5,1.1-0.6C606.4,407.5,600.8,383.7,606.1,367.9z"/>
	</g>
	<g>
		<path class="st1" d="M124,309.5c2.1,0,4,0,6.3,0c1.3,5,2.7,10,4.1,15.6c2-5.3,2.8-10.4,4.3-15.4c2-0.6,4.1-0.1,6.4-0.3
			c0,10,0,19.8,0,29.7c-1.6,0.3-3.1,0.2-5.1,0.1c0-5,0-10,0-15c-0.2,0-0.5,0-0.7-0.1c-0.9,3.5-1.8,7.1-2.7,10.6c-1.5,0-2.7,0-4.2,0
			c-1-3.9-1.9-7.7-2.9-11.5c-0.1,0-0.3,0-0.4,0c0,5.2,0,10.5,0,15.9c-1.8,0-3.3,0-5.1,0C124,329.4,124,319.6,124,309.5z"/>
		<path class="st1" d="M177,339.1c-1.8,0.3-3.4,0.3-5.3,0c-1.8-5.2-3.6-10.5-5.4-15.7c-0.1,0-0.2,0-0.4,0.1c0,5.2,0,10.4,0,15.6
			c-1.7,0.4-3.3,0.2-5.1,0.2c0-9.8,0-19.6,0-29.5c1.6-0.5,3.2-0.2,5.1-0.2c1.8,5.3,3.6,10.7,5.5,16.1c0.1,0,0.3-0.1,0.4-0.1
			c0-5.2,0-10.5,0-15.8c1.7-0.5,3.3-0.2,5.1-0.2C177,319.3,177,329.1,177,339.1z"/>
		<path class="st1" d="M466.5,339.2c-2.1,0-3.7,0-5.6,0c0-9.8,0-19.6,0-29.5c1.6-0.6,3.4-0.2,5.4-0.2c0,4,0,7.8,0,11.8
			c1.7,0,3.2,0,4.9,0c0-3.9,0-7.7,0-11.7c2.1-0.3,3.8-0.3,5.7,0c0,9.8,0,19.5,0,29.4c-1.8,0.5-3.5,0.1-5.6,0.3c0-4.3,0-8.4,0-12.4
			c-1.7-0.5-3.2-0.4-4.9-0.2C466.5,330.8,466.5,334.9,466.5,339.2z"/>
		<path class="st1" d="M280.9,339.1c-1.3,0.2-2.3,0.3-3.6-0.1c-2.2-6-4.5-12-6.8-18.1c-0.2,0-0.4,0.1-0.7,0.1c0,6,0,12,0,18
			c-1.4,0.4-2.4,0.4-3.5,0.1c0-9.9,0-19.7,0-29.5c1.2-0.3,2.2-0.3,3.5,0c2.2,6.1,4.5,12.2,6.8,18.4c0.2,0,0.5-0.1,0.7-0.1
			c0-6,0-12.1,0-18c1.3-0.6,2.3-0.4,3.6-0.2C280.9,319.4,280.9,329.2,280.9,339.1z"/>
		<path class="st1" d="M435.8,319.5c-1.6,0-3.1,0-4.6,0c-0.9-0.9-0.3-2.1-0.6-3c-0.4-1.2-1.1-2.1-2.5-2c-1.5,0.2-2.1,1.4-2.1,2.7
			c0,1.6,1,2.7,2.3,3.6c2.4,1.9,5,3.5,6.8,6.2c2.1,3.2,2.1,7.1,0,9.8c-2,2.7-5.9,3.7-9.5,2.6c-3.7-1.2-5.2-4-4.7-8.9
			c1.5,0,3.1,0,4.8,0c0.8,0.6,0.2,1.7,0.6,2.5c0.5,1.2,1.3,1.9,2.7,1.7c1.3-0.2,2-1.1,2.1-2.4c0.1-1.7-0.8-2.8-1.9-3.8
			c-2-1.7-4.2-3.2-6-5.1c-4.7-4.8-2.7-12.3,3.6-13.9C431.6,308.4,437.3,312.5,435.8,319.5z"/>
		<path class="st1" d="M481.8,339.1c0-9.9,0-19.6,0-29.5c4.7,0,9.3,0,14,0c0.6,1.5,0.5,3.1,0,4.8c-2.6,0-5.2,0-8,0
			c-0.6,2.3-0.2,4.5-0.3,6.8c2.2,0.7,4.4,0,6.7,0.5c0.6,1.5,0.3,3,0.2,4.8c-2.3,0-4.4,0-6.8,0c0,2.6,0,5,0,7.6c2.7,0,5.4,0,8.1,0
			c0.7,1.7,0.4,3.3,0.3,5C491.4,339.1,486.8,339.1,481.8,339.1z"/>
		<path class="st1" d="M534.6,309.6c0.6,1.6,0.3,3.1,0.1,4.8c-2.8,0-5.4,0-8.2,0c-0.5,2.3-0.2,4.5-0.3,7c2.3,0,4.4,0,6.7,0
			c0.6,1.8,0.3,3.3,0.3,5.1c-2.3,0-4.5,0-6.8,0c0,2.6,0,5,0,7.7c2.7,0,5.5,0,8.2,0c0.6,1.8,0.4,3.3,0.2,5c-4.8,0-9.4,0-14.2,0
			c0-9.8,0-19.6,0-29.5C525.3,309.6,529.9,309.6,534.6,309.6z"/>
		<path class="st1" d="M188.2,314.4c0,2.6,0,4.7,0,7.1c2.3,0,4.4,0,6.8,0c0,1.7,0,3.2,0,4.8c-2,0.8-4.3,0-6.6,0.4
			c-0.6,2.3-0.1,4.7-0.3,7.2c2.8,0.7,5.7-0.1,8.5,0.5c0.4,1.5,0.2,3,0.1,4.6c-4.7,0-9.4,0-14.3,0c0-9.7,0-19.4,0-29.4
			c4.6,0,9.2,0,13.9,0c0.7,1.4,0.4,2.9,0.2,4.7C193.8,314.4,191.1,314.4,188.2,314.4z"/>
		<path class="st1" d="M256.5,309.6c1.1-0.4,2.2-0.3,3.8,0c0,3.6,0,7.3,0,11c0,4.1,0.1,8.3-0.1,12.4c-0.2,3.9-3.2,6.7-6.9,7
			c-3.7,0.2-7.5-2.4-7.6-6.1c-0.3-8-0.1-16-0.1-24c1.3-0.7,2.4-0.4,3.5-0.3c0.8,0.9,0.5,2.1,0.5,3.1c0,6.1,0,12.3,0,18.4
			c0,3.5,1.1,5.1,3.4,5.1c2.2-0.1,3.2-1.7,3.2-5.2c0-6,0-12.1,0-18.1C256.2,311.7,255.9,310.6,256.5,309.6z"/>
		<path class="st1" d="M303.7,330.5c1.1,0,2.2,0,3.3,0c0.1,1,0.2,2,0.4,2.9c0.5,1.9,1.7,3,3.7,2.7c2.1-0.3,3.1-1.7,3.1-3.8
			c0-1.8-1-3.2-2.3-4.3c-1.9-1.7-4-3.2-5.8-5c-3.3-3.2-3.5-8.6-0.6-11.4c2.2-2.2,5.9-2.8,8.5-1.4c2.8,1.5,4,4.6,3.3,8.5
			c-1,0.4-2,0.3-3.2,0.1c-0.1-0.9-0.1-1.8-0.3-2.7c-0.4-1.7-1.4-2.9-3.3-2.8c-2,0.1-3,1.4-3.2,3.3c-0.3,2,0.8,3.4,2.2,4.7
			c2,1.7,4.2,3.3,6,5.2c4.1,4.3,3.3,10.7-1.6,12.9c-2.6,1.2-5.2,1-7.5-0.7C303.7,336.5,303.2,333.7,303.7,330.5z"/>
		<path class="st1" d="M332.9,329.9c1.3-0.2,2.3-0.3,3.5,0.1c0.4,3.1,0.3,6.1-2.4,8.3c-2.2,1.8-4.8,2.1-7.5,1
			c-2.8-1.2-4.4-3.2-4.4-6.3c0-5.4,0-10.8,0-16.2c0-4.5,2.9-7.4,7.3-7.4c4.1,0,6.9,2.9,7,7.3c0,0.6-0.1,1.3-0.1,1.9
			c-1.2,0.5-2.3,0.4-3.3,0.1c-0.6-0.8-0.3-1.7-0.4-2.5c-0.3-1.8-1.2-2.9-3.1-2.9c-1.8,0-3.2,1.1-3.2,2.8c-0.2,5.7-0.2,11.4,0,17.1
			c0,1.7,1.4,2.8,3.2,2.9c1.9,0,2.9-1.1,3.3-2.8C332.9,332.2,332.9,331.2,332.9,329.9z"/>
		<path class="st1" d="M209.9,339.1c-2.2,0-3.8,0-5.9,0c0-8.1,0-16.2,0-24.5c-1.7-0.1-3.1-0.2-4.5-0.2c-0.7-1.6-0.5-3.1-0.2-4.8
			c4.9,0,9.7,0,14.7,0c0.6,1.4,0.3,3,0.2,4.6c-1.3,0.7-2.7,0.1-4.4,0.5C209.9,322.6,209.9,330.7,209.9,339.1z"/>
		<path class="st1" d="M220.5,314.6c-1.8-0.1-3.2-0.2-4.6-0.2c-0.5-1.7-0.5-3.2,0-4.8c4.9,0,9.7,0,14.7,0c0.4,1.6,0.3,3.1,0.1,4.6
			c-1.4,0.7-2.8,0.1-4.4,0.6c0,8,0,16.1,0,24.2c-2,0.6-3.8,0.3-5.8,0.4C220.5,331.1,220.5,323,220.5,314.6z"/>
		<path class="st1" d="M298.2,322.4c0,1.2,0,2.3,0,3.5c-2.3,0-4.5,0-6.9,0c0,3.2,0,6.2,0,9.6c2.8,0,5.6,0,8.3,0
			c0.6,1.3,0.4,2.4,0.3,3.6c-4.1,0-8.1,0-12.5,0c0-9.6,0-19.4,0-29.4c3.9,0,8,0,12.2,0c0.7,1,0.4,2.1,0.2,3.3
			c-2.7,0.6-5.5,0-8.4,0.4c0,2.7,0,5.5,0,8.6C293.4,322.6,295.8,321.8,298.2,322.4z"/>
		<path class="st1" d="M390.9,339.3c0-10.1,0-19.8,0-29.7c1.9,0,3.6,0,5.5,0c0,9.8,0,19.5,0,29.4C394.7,339.6,393,339.2,390.9,339.3
			z"/>
		<path class="st1" d="M156.1,339.2c-1.9,0-3.5,0-5.4,0c0-9.9,0-19.7,0-29.6c1.8,0,3.5,0,5.4,0C156.1,319.4,156.1,329.1,156.1,339.2
			z"/>
		<path class="st1" d="M513.1,326.5c0.7-0.8,1.3-1.4,1.8-2c3.9-5.2,1.2-13.9-4.9-14.8c-3.2-0.5-6.5-0.1-9.7-0.1
			c0,10.1,0,19.9,0,29.7c2-0.1,3.7,0.4,5.7-0.4c0-3.7,0-7.3,0-10.9c0.3-0.1,0.7-0.2,1-0.3c2.7,3.3,2.3,8,4.4,11.7
			c1.8-0.1,3.5,0.3,5.4-0.3C515.6,334.7,514.3,330.5,513.1,326.5z M510.1,321.4c-0.8,1.6-2.4,1.2-4.1,0.9c0-2.7,0-5.1,0-7.6
			c1.6-0.4,3.3-0.8,4.1,0.9C511.1,317.4,511.1,319.6,510.1,321.4z"/>
		<path class="st1" d="M383.8,324.3c0.6-0.7,1.1-1.2,1.5-1.8c3.4-5.1,0-12.6-6-13c-2.6-0.2-5.2,0-8.1,0c0,10.2,0,19.9,0,29.9
			c3.1,0,5.9,0.1,8.7,0c4.1-0.3,6.8-3.1,7-7.2C387.2,329,386.9,326.1,383.8,324.3z M376.6,314.6c3.9,0,4.4,0.6,4.2,4.4
			c-0.1,2.9-0.7,3.3-4.3,2.9C376.4,319.5,376.3,317.1,376.6,314.6z M380.7,333c-0.8,1.7-2.4,1.3-4.2,1.1c0-2.5,0-4.8,0-7.3
			c1.5-0.3,3.1-0.7,4,0.8C381.6,329.2,381.5,331.2,380.7,333z"/>
		<path class="st1" d="M416.8,316.5c-0.2-4.1-3.4-6.9-7.8-7.1c-4.4-0.1-8.2,2.5-8.4,6.5c-0.3,5.8-0.3,11.6,0,17.4
			c0.2,4.1,4.1,6.9,8.6,6.6c4.4-0.2,7.5-3.1,7.6-7.3c0.1-2.6,0-5.3,0-7.9C416.8,322,416.9,319.2,416.8,316.5z M410.9,332.2
			c0,1.4-0.6,2.5-2.2,2.6c-1.8,0.1-2.5-1.1-2.5-2.6c-0.1-5.1-0.1-10.1,0-15.2c0-1.4,0.8-2.5,2.3-2.5c1.5,0,2.3,1.1,2.3,2.5
			c0.1,2.6,0,5.3,0,7.9c0,0,0,0,0,0C411,327.4,411,329.8,410.9,332.2z"/>
		<path class="st1" d="M456.6,316.6c-0.3-3.9-2.8-6.7-6.5-7.1c-3.1-0.3-6.3-0.1-9.5-0.1c0,10.1,0,19.8,0,29.6c1.9,0,3.7,0,5.6,0
			c0-2.5,0-4.8,0-7.4c0.9,0,1.5,0,2,0c5.4-0.1,8.4-3,8.6-8.4C456.8,321,456.8,318.8,456.6,316.6z M446.3,326.4c0-3.9,0-7.7,0-11.6
			c3.9-0.5,4.5,0,4.6,3.8c0,1.3,0,2.5,0,3.8C450.8,326.2,450.3,326.7,446.3,326.4z"/>
		<path class="st1" d="M348,339.9c4,0.2,7.6-2.4,7.7-6.3c0.2-6,0.2-12.1,0-18.1c-0.2-3.7-3.7-6.3-7.5-6.1c-4,0.2-6.8,2.9-7,6.8
			c-0.1,2.7,0,5.5,0,8.2c0,2.9-0.1,5.7,0,8.6C341.3,336.9,344.1,339.7,348,339.9z M345.2,317c0-2.2,1-3.8,3.4-3.8
			c2.4,0,3.3,1.7,3.3,3.8c0.1,2.5,0,5.1,0,7.6c0,2.5,0,5.1,0,7.6c0,2.2-1.1,3.7-3.4,3.7c-2.4,0-3.3-1.6-3.3-3.8
			C345.1,327.2,345.1,322.1,345.2,317z"/>
	</g>
</g>
</svg>
