<?xml version="1.0" encoding="utf-8"?>
<!-- Generator: Adobe Illustrator 24.2.3, SVG Export Plug-In . SVG Version: 6.00 Build 0)  -->
<svg version="1.1" xmlns="http://www.w3.org/2000/svg" xmlns:xlink="http://www.w3.org/1999/xlink" x="0px" y="0px" width="213.2px"
	 height="12.3px" viewBox="0 0 213.2 12.3" style="enable-background:new 0 0 213.2 12.3;" xml:space="preserve">
<style type="text/css">
	.st0{fill:#FFFFFF;}
</style>
<g id="Calque_1">
</g>
<g id="Mode_Isolation">
	<g>
		<path class="st0" d="M0,11.8v-1.6c0.1,0.1,0.3,0.2,0.5,0.3s0.4,0.2,0.6,0.3c0.2,0.1,0.4,0.1,0.6,0.2S2.2,11,2.4,11
			c0.6,0,1.1-0.1,1.4-0.3c0.3-0.2,0.5-0.5,0.5-0.9c0-0.2-0.1-0.4-0.2-0.6C4,9.1,3.8,8.9,3.7,8.8C3.5,8.6,3.3,8.5,3,8.4
			C2.7,8.3,2.5,8.2,2.2,8C1.9,7.9,1.6,7.7,1.3,7.5C1.1,7.4,0.8,7.2,0.6,7S0.3,6.5,0.2,6.3C0.1,6,0,5.7,0,5.4c0-0.4,0.1-0.8,0.3-1.1
			s0.4-0.6,0.8-0.8S1.7,3.1,2.1,3c0.4-0.1,0.8-0.1,1.2-0.1c1,0,1.6,0.1,2.1,0.3v1.5c-0.5-0.4-1.2-0.6-2-0.6c-0.2,0-0.4,0-0.7,0.1
			S2.4,4.3,2.2,4.4C2,4.5,1.9,4.6,1.8,4.8C1.6,4.9,1.6,5.1,1.6,5.3c0,0.2,0,0.4,0.1,0.5C1.8,6,1.9,6.1,2.1,6.2
			c0.2,0.1,0.4,0.2,0.6,0.4S3.2,6.8,3.5,7c0.3,0.2,0.6,0.3,0.9,0.5c0.3,0.2,0.5,0.4,0.7,0.6c0.2,0.2,0.4,0.5,0.5,0.7
			s0.2,0.6,0.2,0.9c0,0.5-0.1,0.9-0.3,1.2c-0.2,0.3-0.4,0.6-0.8,0.8c-0.3,0.2-0.7,0.3-1.1,0.4c-0.4,0.1-0.8,0.1-1.3,0.1
			c-0.2,0-0.3,0-0.6,0s-0.4-0.1-0.7-0.1c-0.2,0-0.5-0.1-0.7-0.2C0.3,11.9,0.1,11.8,0,11.8z"/>
		<path class="st0" d="M9.1,12.1H7.5V3h1.6V12.1z"/>
		<path class="st0" d="M17.1,4.3h-2.6v7.8H13V4.3h-2.6V3h6.7V4.3z"/>
		<path class="st0" d="M23.6,12.1h-5.1V3h4.9v1.3H20v2.6h3.1v1.3H20v2.7h3.6V12.1z"/>
		<path class="st0" d="M40.1,3l-2.5,9.1h-1.7l-1.7-6.4C34.1,5.5,34,5.2,34,4.9h0c0,0.3-0.1,0.6-0.2,0.9l-1.7,6.4h-1.7L27.8,3h1.7
			l1.7,6.7c0.1,0.3,0.1,0.6,0.1,0.9h0c0-0.2,0.1-0.5,0.2-0.9L33.3,3h1.6l1.7,6.7c0.1,0.2,0.1,0.5,0.1,0.8h0c0-0.2,0.1-0.5,0.1-0.8
			L38.5,3H40.1z"/>
		<path class="st0" d="M46.4,12.1h-5.1V3h4.9v1.3h-3.4v2.6H46v1.3h-3.1v2.7h3.6V12.1z"/>
		<path class="st0" d="M48.1,12.1V3h2.9c0.9,0,1.6,0.2,2.1,0.6c0.5,0.4,0.8,0.9,0.8,1.5c0,0.5-0.1,1-0.4,1.3s-0.7,0.7-1.2,0.8v0
			c0.6,0.1,1.1,0.3,1.5,0.7s0.6,0.9,0.6,1.5c0,0.8-0.3,1.4-0.9,1.9c-0.6,0.5-1.4,0.7-2.3,0.7H48.1z M49.6,4.2v2.6h1
			c0.5,0,0.9-0.1,1.2-0.4c0.3-0.2,0.4-0.6,0.4-1.1c0-0.8-0.5-1.2-1.6-1.2H49.6z M49.6,8v2.9h1.3c0.6,0,1-0.1,1.3-0.4
			c0.3-0.3,0.5-0.6,0.5-1.1c0-0.9-0.7-1.4-2-1.4H49.6z"/>
		<path class="st0" d="M64.6,12.1h-5.1V3h4.9v1.3H61v2.6h3.1v1.3H61v2.7h3.6V12.1z M63.9,0l-1.8,2.1H61L62.5,0H63.9z"/>
		<path class="st0" d="M72.6,11.7c-0.7,0.4-1.5,0.5-2.6,0.5c-1.3,0-2.4-0.4-3.2-1.3c-0.8-0.8-1.2-1.9-1.2-3.3c0-1.5,0.4-2.6,1.3-3.5
			s2-1.3,3.4-1.3c0.9,0,1.6,0.1,2.2,0.4v1.5c-0.6-0.4-1.3-0.5-2-0.5c-1,0-1.8,0.3-2.4,0.9c-0.6,0.6-0.9,1.5-0.9,2.5
			c0,1,0.3,1.8,0.9,2.4s1.3,0.9,2.3,0.9c0.9,0,1.6-0.2,2.2-0.6V11.7z"/>
		<path class="st0" d="M77.9,12.3c-1.3,0-2.4-0.4-3.2-1.3c-0.8-0.9-1.2-2-1.2-3.3c0-1.5,0.4-2.6,1.2-3.5c0.8-0.9,1.9-1.3,3.3-1.3
			c1.3,0,2.3,0.4,3.1,1.3s1.2,2,1.2,3.3c0,1.5-0.4,2.7-1.2,3.5S79.2,12.3,77.9,12.3z M77.9,4.2c-0.8,0-1.5,0.3-2,0.9
			s-0.8,1.4-0.8,2.5c0,1,0.3,1.8,0.8,2.4s1.2,0.9,2,0.9c0.9,0,1.6-0.3,2.1-0.9c0.5-0.6,0.8-1.4,0.8-2.5c0-1.1-0.2-1.9-0.7-2.5
			C79.5,4.5,78.8,4.2,77.9,4.2z"/>
		<path class="st0" d="M87.2,9.1h-3.5V8h3.5V9.1z"/>
		<path class="st0" d="M96.2,12.1h-1.8L93,9.7c-0.1-0.2-0.3-0.4-0.4-0.6c-0.1-0.2-0.3-0.3-0.4-0.4s-0.3-0.2-0.4-0.2
			c-0.2,0-0.3-0.1-0.5-0.1h-0.6v3.7h-1.5V3h3c0.4,0,0.8,0.1,1.2,0.2c0.4,0.1,0.7,0.3,0.9,0.5s0.5,0.5,0.6,0.8s0.2,0.7,0.2,1.1
			c0,0.3,0,0.6-0.1,0.9s-0.2,0.5-0.4,0.7c-0.2,0.2-0.4,0.4-0.6,0.5s-0.5,0.3-0.8,0.3v0c0.2,0.1,0.3,0.2,0.4,0.3
			c0.1,0.1,0.2,0.2,0.3,0.3C94,8.7,94.1,8.9,94.2,9s0.2,0.3,0.4,0.5L96.2,12.1z M90.7,4.2v3h1.3c0.2,0,0.4,0,0.6-0.1
			s0.4-0.2,0.5-0.3c0.1-0.1,0.3-0.3,0.3-0.5c0.1-0.2,0.1-0.4,0.1-0.7c0-0.4-0.1-0.8-0.4-1c-0.3-0.2-0.7-0.4-1.2-0.4H90.7z"/>
		<path class="st0" d="M102.4,12.1h-5.1V3h4.9v1.3h-3.4v2.6h3.1v1.3h-3.1v2.7h3.6V12.1z"/>
		<path class="st0" d="M103.6,11.8v-1.6c0.1,0.1,0.3,0.2,0.5,0.3c0.2,0.1,0.4,0.2,0.6,0.3c0.2,0.1,0.4,0.1,0.6,0.2s0.4,0.1,0.6,0.1
			c0.6,0,1.1-0.1,1.4-0.3c0.3-0.2,0.5-0.5,0.5-0.9c0-0.2-0.1-0.4-0.2-0.6c-0.1-0.2-0.2-0.3-0.4-0.4c-0.2-0.1-0.4-0.3-0.7-0.4
			c-0.3-0.1-0.5-0.2-0.8-0.4c-0.3-0.2-0.6-0.3-0.9-0.5c-0.3-0.2-0.5-0.4-0.7-0.6s-0.4-0.4-0.5-0.7c-0.1-0.3-0.2-0.6-0.2-0.9
			c0-0.4,0.1-0.8,0.3-1.1c0.2-0.3,0.4-0.6,0.8-0.8c0.3-0.2,0.7-0.4,1.1-0.5c0.4-0.1,0.8-0.1,1.2-0.1c1,0,1.6,0.1,2.1,0.3v1.5
			c-0.5-0.4-1.2-0.6-2-0.6c-0.2,0-0.4,0-0.7,0.1s-0.4,0.1-0.6,0.2c-0.2,0.1-0.3,0.2-0.4,0.4c-0.1,0.2-0.2,0.3-0.2,0.6
			c0,0.2,0,0.4,0.1,0.5c0.1,0.1,0.2,0.3,0.4,0.4s0.4,0.2,0.6,0.4s0.5,0.2,0.8,0.4c0.3,0.2,0.6,0.3,0.9,0.5s0.5,0.4,0.7,0.6
			c0.2,0.2,0.4,0.5,0.5,0.7c0.1,0.3,0.2,0.6,0.2,0.9c0,0.5-0.1,0.9-0.3,1.2c-0.2,0.3-0.4,0.6-0.8,0.8c-0.3,0.2-0.7,0.3-1.1,0.4
			c-0.4,0.1-0.8,0.1-1.3,0.1c-0.2,0-0.3,0-0.6,0s-0.4-0.1-0.7-0.1c-0.2,0-0.5-0.1-0.7-0.2C103.9,11.9,103.7,11.8,103.6,11.8z"/>
		<path class="st0" d="M112.6,8.8v3.3h-1.5V3h2.8c1,0,1.9,0.2,2.4,0.7c0.6,0.5,0.9,1.2,0.9,2.1c0,0.9-0.3,1.6-0.9,2.2
			c-0.6,0.6-1.4,0.8-2.4,0.8H112.6z M112.6,4.3v3.3h1c0.6,0,1.1-0.2,1.5-0.5c0.3-0.3,0.5-0.7,0.5-1.3c0-1.1-0.6-1.6-1.9-1.6H112.6z"
			/>
		<path class="st0" d="M122.4,12.3c-1.3,0-2.4-0.4-3.2-1.3c-0.8-0.9-1.2-2-1.2-3.3c0-1.5,0.4-2.6,1.2-3.5c0.8-0.9,1.9-1.3,3.3-1.3
			c1.3,0,2.3,0.4,3.1,1.3s1.2,2,1.2,3.3c0,1.5-0.4,2.7-1.2,3.5S123.8,12.3,122.4,12.3z M122.5,4.2c-0.8,0-1.5,0.3-2,0.9
			s-0.8,1.4-0.8,2.5c0,1,0.3,1.8,0.8,2.4s1.2,0.9,2,0.9c0.9,0,1.6-0.3,2.1-0.9c0.5-0.6,0.8-1.4,0.8-2.5c0-1.1-0.2-1.9-0.7-2.5
			C124,4.5,123.3,4.2,122.5,4.2z"/>
		<path class="st0" d="M136.2,12.1h-1.7l-4.3-6.7c-0.1-0.2-0.2-0.3-0.3-0.5h0c0,0.2,0.1,0.6,0.1,1.3v6h-1.5V3h1.8l4.2,6.5
			c0.2,0.3,0.3,0.5,0.3,0.6h0c0-0.2-0.1-0.7-0.1-1.2V3h1.5V12.1z"/>
		<path class="st0" d="M138,11.8v-1.6c0.1,0.1,0.3,0.2,0.5,0.3s0.4,0.2,0.6,0.3c0.2,0.1,0.4,0.1,0.6,0.2s0.4,0.1,0.6,0.1
			c0.6,0,1.1-0.1,1.4-0.3c0.3-0.2,0.5-0.5,0.5-0.9c0-0.2-0.1-0.4-0.2-0.6c-0.1-0.2-0.2-0.3-0.4-0.4c-0.2-0.1-0.4-0.3-0.7-0.4
			c-0.3-0.1-0.5-0.2-0.8-0.4c-0.3-0.2-0.6-0.3-0.9-0.5c-0.3-0.2-0.5-0.4-0.7-0.6s-0.4-0.4-0.5-0.7C138.1,6,138,5.7,138,5.4
			c0-0.4,0.1-0.8,0.3-1.1s0.4-0.6,0.8-0.8s0.7-0.4,1.1-0.5c0.4-0.1,0.8-0.1,1.2-0.1c1,0,1.6,0.1,2.1,0.3v1.5c-0.5-0.4-1.2-0.6-2-0.6
			c-0.2,0-0.4,0-0.7,0.1s-0.4,0.1-0.6,0.2c-0.2,0.1-0.3,0.2-0.4,0.4c-0.1,0.2-0.2,0.3-0.2,0.6c0,0.2,0,0.4,0.1,0.5
			c0.1,0.1,0.2,0.3,0.4,0.4c0.2,0.1,0.4,0.2,0.6,0.4s0.5,0.2,0.8,0.4c0.3,0.2,0.6,0.3,0.9,0.5c0.3,0.2,0.5,0.4,0.7,0.6
			c0.2,0.2,0.4,0.5,0.5,0.7s0.2,0.6,0.2,0.9c0,0.5-0.1,0.9-0.3,1.2c-0.2,0.3-0.4,0.6-0.8,0.8c-0.3,0.2-0.7,0.3-1.1,0.4
			c-0.4,0.1-0.8,0.1-1.3,0.1c-0.2,0-0.3,0-0.6,0s-0.4-0.1-0.7-0.1c-0.2,0-0.5-0.1-0.7-0.2C138.3,11.9,138.2,11.8,138,11.8z"/>
		<path class="st0" d="M153,12.1h-1.7l-0.8-2.3H147l-0.8,2.3h-1.7l3.4-9.1h1.7L153,12.1z M150.1,8.6l-1.3-3.6c0-0.1-0.1-0.3-0.1-0.6
			h0c0,0.2-0.1,0.4-0.1,0.6l-1.3,3.6H150.1z"/>
		<path class="st0" d="M154.3,12.1V3h2.9c0.9,0,1.6,0.2,2.1,0.6c0.5,0.4,0.8,0.9,0.8,1.5c0,0.5-0.1,1-0.4,1.3s-0.7,0.7-1.2,0.8v0
			c0.6,0.1,1.1,0.3,1.5,0.7s0.6,0.9,0.6,1.5c0,0.8-0.3,1.4-0.9,1.9c-0.6,0.5-1.4,0.7-2.3,0.7H154.3z M155.8,4.2v2.6h1
			c0.5,0,0.9-0.1,1.2-0.4c0.3-0.2,0.4-0.6,0.4-1.1c0-0.8-0.5-1.2-1.6-1.2H155.8z M155.8,8v2.9h1.3c0.6,0,1-0.1,1.3-0.4
			c0.3-0.3,0.5-0.6,0.5-1.1c0-0.9-0.7-1.4-2-1.4H155.8z"/>
		<path class="st0" d="M167.2,12.1h-5V3h1.5v7.8h3.5V12.1z"/>
		<path class="st0" d="M173.6,12.1h-5.1V3h4.9v1.3H170v2.6h3.1v1.3H170v2.7h3.6V12.1z"/>
		<path class="st0" d="M191.1,12.1h-5.7v-0.7c0-0.3,0-0.6,0.1-0.8c0.1-0.3,0.2-0.5,0.3-0.7c0.1-0.2,0.3-0.4,0.5-0.6
			c0.2-0.2,0.4-0.4,0.6-0.6c0.2-0.2,0.4-0.4,0.6-0.5c0.2-0.2,0.4-0.3,0.6-0.5c0.2-0.2,0.4-0.3,0.5-0.5c0.2-0.2,0.3-0.3,0.4-0.5
			c0.1-0.2,0.2-0.3,0.3-0.5s0.1-0.4,0.1-0.6c0-0.2,0-0.5-0.1-0.6c-0.1-0.2-0.2-0.3-0.3-0.5c-0.1-0.1-0.3-0.2-0.5-0.3
			c-0.2-0.1-0.4-0.1-0.6-0.1c-0.4,0-0.8,0.1-1.1,0.3c-0.4,0.2-0.8,0.4-1.1,0.8V3.7c0.2-0.1,0.4-0.3,0.6-0.4s0.4-0.2,0.6-0.3
			c0.2-0.1,0.4-0.1,0.6-0.2c0.2,0,0.5-0.1,0.7-0.1c0.4,0,0.8,0.1,1.1,0.2c0.3,0.1,0.6,0.3,0.9,0.5c0.2,0.2,0.4,0.5,0.5,0.8
			c0.1,0.3,0.2,0.7,0.2,1.1c0,0.4,0,0.7-0.1,1s-0.2,0.6-0.4,0.8c-0.2,0.3-0.4,0.5-0.6,0.7c-0.2,0.2-0.5,0.5-0.8,0.7
			c-0.2,0.2-0.5,0.4-0.7,0.6c-0.2,0.2-0.5,0.4-0.7,0.6c-0.2,0.2-0.4,0.4-0.5,0.5s-0.2,0.4-0.2,0.5v0h4.1V12.1z"/>
		<path class="st0" d="M195.5,12.3c-0.9,0-1.7-0.4-2.2-1.2c-0.5-0.8-0.8-1.9-0.8-3.4c0-1.6,0.3-2.8,0.8-3.7c0.6-0.8,1.4-1.2,2.4-1.2
			c2,0,3,1.6,3,4.7c0,1.5-0.3,2.7-0.8,3.5S196.5,12.3,195.5,12.3z M195.7,4c-1.1,0-1.7,1.2-1.7,3.6c0,2.3,0.5,3.4,1.6,3.4
			c1.1,0,1.6-1.2,1.6-3.5C197.2,5.2,196.7,4,195.7,4z"/>
		<path class="st0" d="M205.6,12.1h-5.7v-0.7c0-0.3,0-0.6,0.1-0.8c0.1-0.3,0.2-0.5,0.3-0.7c0.1-0.2,0.3-0.4,0.5-0.6
			c0.2-0.2,0.4-0.4,0.6-0.6c0.2-0.2,0.4-0.4,0.6-0.5c0.2-0.2,0.4-0.3,0.6-0.5c0.2-0.2,0.4-0.3,0.5-0.5c0.2-0.2,0.3-0.3,0.4-0.5
			c0.1-0.2,0.2-0.3,0.3-0.5s0.1-0.4,0.1-0.6c0-0.2,0-0.5-0.1-0.6c-0.1-0.2-0.2-0.3-0.3-0.5c-0.1-0.1-0.3-0.2-0.5-0.3
			c-0.2-0.1-0.4-0.1-0.6-0.1c-0.4,0-0.8,0.1-1.1,0.3c-0.4,0.2-0.8,0.4-1.1,0.8V3.7c0.2-0.1,0.4-0.3,0.6-0.4s0.4-0.2,0.6-0.3
			c0.2-0.1,0.4-0.1,0.6-0.2c0.2,0,0.5-0.1,0.7-0.1c0.4,0,0.8,0.1,1.1,0.2c0.3,0.1,0.6,0.3,0.9,0.5c0.2,0.2,0.4,0.5,0.5,0.8
			c0.1,0.3,0.2,0.7,0.2,1.1c0,0.4,0,0.7-0.1,1s-0.2,0.6-0.4,0.8c-0.2,0.3-0.4,0.5-0.6,0.7c-0.2,0.2-0.5,0.5-0.8,0.7
			c-0.2,0.2-0.5,0.4-0.7,0.6c-0.2,0.2-0.5,0.4-0.7,0.6c-0.2,0.2-0.4,0.4-0.5,0.5s-0.2,0.4-0.2,0.5v0h4.1V12.1z"/>
		<path class="st0" d="M210,12.3c-0.9,0-1.7-0.4-2.2-1.2c-0.5-0.8-0.8-1.9-0.8-3.4c0-1.6,0.3-2.8,0.8-3.7c0.6-0.8,1.4-1.2,2.4-1.2
			c2,0,3,1.6,3,4.7c0,1.5-0.3,2.7-0.8,3.5S211,12.3,210,12.3z M210.1,4c-1.1,0-1.7,1.2-1.7,3.6c0,2.3,0.5,3.4,1.6,3.4
			c1.1,0,1.6-1.2,1.6-3.5C211.7,5.2,211.2,4,210.1,4z"/>
	</g>
</g>
</svg>
