<?xml version="1.0" encoding="utf-8"?>
<!-- Generator: Adobe Illustrator 24.2.3, SVG Export Plug-In . SVG Version: 6.00 Build 0)  -->
<svg version="1.1" id="Calque_1" xmlns="http://www.w3.org/2000/svg" xmlns:xlink="http://www.w3.org/1999/xlink" x="0px" y="0px"
	 viewBox="0 0 15 38.6" style="enable-background:new 0 0 15 38.6;" xml:space="preserve">
<style type="text/css">
	.st0{fill:#3A8981;}
</style>
<g>
	<g>
		<polygon class="st0" points="3.2,0 2.8,0.3 2.9,0.5 3.5,0.5 		"/>
		<polygon class="st0" points="7.3,0 6.9,0.3 7,0.5 7.6,0.5 		"/>
		<polygon class="st0" points="11.4,0 11,0.3 11.1,0.5 11.7,0.5 		"/>
		<polygon class="st0" points="2.6,38.6 0,34.4 0,35.4 2,38.6 		"/>
		<polygon class="st0" points="6.7,38.6 0,27.8 0,28.8 6.1,38.6 		"/>
		<polygon class="st0" points="10.7,38.6 0,21.2 0,22.2 10.2,38.6 		"/>
		<polygon class="st0" points="14.8,38.6 0,14.6 0,15.6 14.2,38.6 		"/>
		<polygon class="st0" points="0,8.9 15,33.2 15,32.3 0,8 		"/>
		<polygon class="st0" points="0,2.3 15,26.6 15,25.7 0,1.4 		"/>
		<polygon class="st0" points="2.9,0.5 15,20 15,19.1 3.5,0.5 		"/>
		<polygon class="st0" points="7,0.5 15,13.4 15,12.4 7.6,0.5 		"/>
		<polygon class="st0" points="15,5.8 11.7,0.5 11.1,0.5 15,6.8 		"/>
	</g>
</g>
</svg>
