<?xml version="1.0" encoding="utf-8"?>
<!-- Generator: Adobe Illustrator 24.2.3, SVG Export Plug-In . SVG Version: 6.00 Build 0)  -->
<svg version="1.1" id="Calque_1" xmlns="http://www.w3.org/2000/svg" xmlns:xlink="http://www.w3.org/1999/xlink" x="0px" y="0px"
	 width="423.5px" height="79.1px" viewBox="0 0 423.5 79.1" style="enable-background:new 0 0 423.5 79.1;" xml:space="preserve">
<style type="text/css">
	.st0{fill:#FFFFFF;}
</style>
<g>
	<path class="st0" d="M246.3,77.3c-5.5,0-9.6,0-14.4,0c0-25.3,0-50.6,0-76.3c4.2-1.6,8.7-0.6,14-0.6c0,10.2,0,20.2,0,30.6
		c4.5,0,8.2,0,12.7,0c0-10,0-20,0-30.2c5.3-0.9,9.8-0.9,14.7-0.1c0,25.4,0,50.5,0,76.1c-4.6,1.4-9.1,0.3-14.4,0.8
		c0-11.1,0-21.7,0-32.2c-4.4-1.4-8.1-0.9-12.7-0.5C246.3,55.6,246.3,66.1,246.3,77.3z"/>
	<path class="st0" d="M166.8,26.3c-4.3,0-8.1,0-11.8,0c-2.3-2.3-0.7-5.3-1.6-7.8c-1.1-3.1-2.8-5.5-6.4-5.1c-3.9,0.5-5.5,3.5-5.4,7.1
		c0.1,4.1,2.6,6.9,5.8,9.4c6.2,4.8,13,9.1,17.5,15.9c5.4,8.2,5.4,18.5,0.1,25.4c-5.3,6.9-15.3,9.7-24.5,6.8
		c-9.6-3-13.5-10.4-12.2-23.1c3.9,0,7.9,0,12.3,0c2,1.6,0.6,4.4,1.5,6.6c1.3,3.2,3.5,4.9,7,4.4c3.4-0.5,5.1-2.8,5.4-6.2
		c0.4-4.3-2-7.2-5-9.8c-5.2-4.4-10.9-8.4-15.6-13.3c-12-12.4-6.9-31.8,9.2-35.9C155.9-2.6,170.8,8.1,166.8,26.3z"/>
	<path class="st0" d="M285.8,77c0-25.6,0-50.7,0-76.3c12.2,0,24.1,0,36.2,0c1.4,4,1.3,7.9,0,12.3c-6.8,0-13.6,0-20.6,0
		c-1.6,6-0.5,11.6-0.8,17.6c5.6,1.8,11.4,0,17.4,1.2c1.5,3.8,0.7,7.8,0.6,12.5c-5.9,0-11.5,0-17.5,0c0,6.8,0,13,0,19.8
		c7,0,14,0,21,0c1.8,4.5,1.1,8.5,0.8,12.9C310.6,77,298.7,77,285.8,77z"/>
	<path class="st0" d="M422.4,0.6c1.4,4.1,0.8,8.1,0.4,12.5c-7.3,0-14.1,0-21.2,0c-1.3,6-0.4,11.6-0.7,18c5.8,0,11.4,0,17.2,0
		c1.5,4.6,0.9,8.6,0.7,13.2c-5.9,0-11.5,0-17.5,0c0,6.8,0,13,0,19.8c7.1,0,14.1,0,21.2,0c1.5,4.5,1,8.5,0.6,12.9
		c-12.3,0-24.2,0-36.7,0c0-25.3,0-50.6,0-76.3C398.4,0.6,410.3,0.6,422.4,0.6z"/>
	<path class="st0" d="M50.8,77.3c0-26,0-51.1,0-76.7c4.9,0,9.3,0,14.2,0c0,25.4,0,50.5,0,76C60.6,78.2,56.1,77.2,50.8,77.3z"/>
	<path class="st0" d="M366.8,44.3c1.8-2,3.4-3.5,4.7-5.2c10.1-13.5,3-35.9-12.6-38.4c-8.2-1.3-16.7-0.2-25.1-0.2
		c0,26.1,0,51.3,0,76.9c5.1-0.2,9.7,0.9,14.8-1c0-9.5,0-18.9,0-28.3c0.9-0.3,1.8-0.6,2.6-0.8c7.1,8.5,6,20.7,11.3,30.2
		c4.6-0.2,9.2,0.7,14.1-0.7C373.2,65.5,370,54.8,366.8,44.3z M359.1,31.2c-2.1,4.1-6.3,3.1-10.7,2.4c0-6.9,0-13.1,0-19.6
		c4.1-1,8.5-2,10.7,2.3C361.5,20.9,361.5,26.4,359.1,31.2z"/>
	<path class="st0" d="M32.5,38.6c1.6-1.9,3-3.2,4-4.7c8.7-13.2,0-32.5-15.4-33.6C14.3-0.3,7.5,0.2,0,0.2c0,26.3,0,51.5,0,77.3
		c7.9,0,15.2,0.4,22.5-0.1c10.6-0.7,17.5-8.1,18.1-18.6C41.1,50.8,40.3,43.4,32.5,38.6z M13.8,13.5c10.1,0,11.4,1.5,11,11.3
		c-0.3,7.4-1.9,8.5-11.1,7.5C13.2,26.2,13.1,20,13.8,13.5z M24.3,61.1c-2,4.3-6.3,3.3-10.7,2.7c0-6.5,0-12.4,0-18.8
		c3.9-0.7,7.9-1.7,10.3,2C26.6,51.4,26.5,56.6,24.3,61.1z"/>
	<path class="st0" d="M117.6,18.4c-0.5-10.7-8.8-17.9-20.3-18.3C85.9-0.2,76.3,6.6,75.7,16.9c-0.7,15-0.8,30.1,0,45
		c0.5,10.7,10.5,17.7,22.2,17.1c11.5-0.6,19.4-8,19.8-18.8c0.2-6.8,0-13.7,0-20.5C117.7,32.6,118,25.5,117.6,18.4z M102.6,59.1
		c-0.1,3.5-1.4,6.6-5.6,6.7c-4.5,0.2-6.4-2.9-6.5-6.8c-0.2-13.1-0.2-26.2,0-39.3c0.1-3.6,2-6.4,6-6.4c4,0,5.8,2.8,5.9,6.4
		c0.2,6.8,0.1,13.6,0.1,20.5c0,0,0,0,0,0C102.6,46.6,102.8,52.8,102.6,59.1z"/>
	<path class="st0" d="M220.7,18.7c-0.8-10-7.2-17.3-16.9-18.2c-8-0.8-16.2-0.2-24.6-0.2c0,26,0,51.3,0,76.6c5,0,9.5,0,14.5,0
		c0-6.5,0-12.4,0-19.2c2.4,0,3.8,0,5.1,0c14.1-0.3,21.7-7.7,22.2-21.8C221.1,30.2,221.1,24.4,220.7,18.7z M194,44c0-10,0-20,0-30
		c10.2-1.2,11.7,0.1,11.8,9.9c0.1,3.3,0,6.6,0,9.8C205.7,43.7,204.4,44.8,194,44z"/>
</g>
</svg>
