<svg xmlns="http://www.w3.org/2000/svg" width="111.443" height="22.323" viewBox="0 0 111.443 22.323">
  <g id="Сгруппировать_840" data-name="Сгруппировать 840" transform="translate(-1203.484 -14722.005)">
    <path id="Контур_4892" data-name="Контур 4892" d="M1205.056,14737.289h-.037v1.653h-1.535V14722h1.535v7.508h.037a3.573,3.573,0,0,1,3.314-2.278,3.307,3.307,0,0,1,2.888,1.535,7.216,7.216,0,0,1,1.044,4.117,8.058,8.058,0,0,1-1.171,4.6,3.672,3.672,0,0,1-3.2,1.727A3.088,3.088,0,0,1,1205.056,14737.289Zm-.037-4.614v1.6a3.789,3.789,0,0,0,.772,2.407,2.387,2.387,0,0,0,1.961.989,2.452,2.452,0,0,0,2.186-1.274,6.708,6.708,0,0,0,.791-3.542,5.254,5.254,0,0,0-.74-2.993,2.306,2.306,0,0,0-2-1.084,2.546,2.546,0,0,0-2.153,1.111A4.591,4.591,0,0,0,1205.019,14732.675Z" fill="#fff"/>
    <path id="Контур_4893" data-name="Контур 4893" d="M1222.383,14727.5l-4.409,13.273q-1.179,3.551-3.314,3.553a2.951,2.951,0,0,1-1-.146v-1.642a2.444,2.444,0,0,0,.908.2q1.161,0,1.741-1.653l.767-2.168-3.744-11.418h1.7l2.593,8.8c.031.111.1.4.2.871h.056c.032-.179.094-.462.188-.849l2.724-8.826Z" fill="#fff"/>
    <path id="Контур_4894" data-name="Контур 4894" d="M1300.3,14727.174l-4.717,4.243,4.717,4.044v4.784h-2.979l-5.459-5.181v5.181h-4.728v-17.736h4.739v5.233l5.525-5.233h2.934Z" fill="#fff"/>
    <path id="Контур_4895" data-name="Контур 4895" d="M1314.927,14722.43v17.868h-13.155v-17.868Zm-4.772,4.784h-3.643v8.26h3.643Z" fill="#fff"/>
    <path id="Контур_4896" data-name="Контур 4896" d="M1248.91,14722.43v17.868h-4.739v-13.084h-1.816v13.045h-4.695v-13.045h-1.816v13.045h-4.717v-17.829Z" fill="#fff"/>
    <path id="Контур_4897" data-name="Контур 4897" d="M1263.847,14722.43v17.868h-13.155v-17.868Zm-4.739,4.784h-3.643v8.26h3.643Z" fill="#fff"/>
    <path id="Контур_4898" data-name="Контур 4898" d="M1272.185,14722.43v12.08h4.761v-7.3h3.665v8.3h-10.22v-13.058h-4.75v17.842h19.71v-17.868Z" fill="#fff"/>
  </g>
</svg>
