<svg xmlns="http://www.w3.org/2000/svg" width="92.767" height="147.087" viewBox="0 0 92.767 147.087">
  <g id="Сгруппировать_839" data-name="Сгруппировать 839" transform="translate(-600.5 -14653.913)">
    <path id="Контур_4883" data-name="Контур 4883" d="M667.935,14695.417v-3.31h-6.657v-4.309h-4.722v-5.717h-4.567v-5.717h-2.864v-15.449h-3.747v-4.849h-3.3v-2.154h-4.722v7.125h-3.87v3.563h-3.1v7.043h-3.174v6.048h-2.787v6.545H620.87v15.328h5.573v7.208h3.174v5.8H632.4v4.806h-2.709v3.334h-2.979v9.174h3.6v2.074h6.735v4.143h11.384v-3.479h3.246v-3.231H657.1v2.651H660.5v2.319h4.877v-17.647h2.942v-6.545h2.559v-5.113h2.089v-9.639Z" fill="#fff"/>
    <path id="Контур_4884" data-name="Контур 4884" d="M693.182,14780.888c.172-.326.083-.727-.262-1.193a16.369,16.369,0,0,0-4.181.382,3.469,3.469,0,0,1-1.483.142c-.035,0-.071,0-.107,0a4.4,4.4,0,0,1-2.148-.914c-1.1-.7-2.043-1.306-2.7-.039,1,3.272.68,6.25-.852,7.976a2.9,2.9,0,0,1-3.577.868c-1.556-.81-2.437-3.027-2.419-6.088v-.035l.021-.026c.92-1.114,2-2.379,3.15-3.718,5.323-6.217,12.611-14.73,13.984-20.4-.19-1.311-.656-2.076-1.383-2.274-3.191-.87-10.757,9.2-11.741,10.86-3.039,5.359-4.943,9.494-5.66,12.288l-.016.034c-3.111,3.945-9.566,7.486-14.223,6.475a6.608,6.608,0,0,1-4.937-4.694l-.036-.1.093-.016c5.538-.978,8.42-3.6,8.819-5.758a1.824,1.824,0,0,0-.6-1.862c-1.182-.924-4.1-.677-8.442,3.072-2.228,2.719-3.333,2.492-5.753,1.988-.422-.089-.9-.187-1.427-.279l-.018-.006a16.1,16.1,0,0,1-1.565-.913c-.893-.579-1.14-.738-2.07-.079-.408,3.016-2.316,8.543-4.146,10.071a1.419,1.419,0,0,1-1.24.406,1.276,1.276,0,0,1-1.092-.537,4.9,4.9,0,0,1-.582-3.258c.447-2.962.459-4.579.036-4.812-.534-.295-1.885,1.633-3.189,3.5-1.894,2.719-4.04,5.8-5.284,4.779-.931-.339-1.443-1.353-1.481-2.932-.079-3.293,1.811-7.859,2.866-8.316,2.094-.31,6.622-2.654,6.765-4.547.055-.722-.539-1.317-1.763-1.772-1.331-.5-3.74,1.748-5.5,3.382-.633.586-1.179,1.093-1.591,1.4l-.018.01a13.568,13.568,0,0,1-4.139.779,3.905,3.905,0,0,0-2.945,1.05.889.889,0,0,0,.208.656c.612.678,2.47.353,3.826.114a5.626,5.626,0,0,1,1.757-.171l.1.026-.052.1c-2.649,5.433-1.775,9.687.159,11.341,1.647,1.41,4.763,1.426,8.117-3.169l.132-.182,0,.24a4.158,4.158,0,0,0,1.836,3.745,3.834,3.834,0,0,0,4.549-.5c1.863-1.22,3.081-5.019,3.808-7.288.2-.632.379-1.179.521-1.525l.026-.063.057.017a14.279,14.279,0,0,0,7.031.563l.063-.01.017.074c.742,3.365,2.407,5.619,4.948,6.7,4.81,2.042,11.737-.626,15.815-4.173l.114-.1,0,.171c.055,3.371,1.185,5.918,3.181,7.166a5,5,0,0,0,5.813-.408c1.884-1.492,2.839-4.146,2.619-7.279l-.009-.129.1.037C686.41,14782.209,692.393,14782.387,693.182,14780.888Zm-17.022-2.949a63.6,63.6,0,0,1,3.584-8.025c1.971-4.391,8.421-11.737,10.959-12.48l.139-.042-.053.159c-1.806,5.416-8.825,14.6-14.513,20.489l-.25.259Zm-20.733,0a8.311,8.311,0,0,1,5.746-3.782l.021,0,.019.01a.442.442,0,0,1,.289.374c.024.346-.382.822-1.207,1.412a13.05,13.05,0,0,1-4.629,2.167.356.356,0,0,1-.218-.053l-.065-.05Zm-23.846-5.506a11.793,11.793,0,0,1,2.238-1.858l.592-.386-.508.529a11.117,11.117,0,0,1-2.24,1.859l-.479.286Z" fill="#fff"/>
    <path id="Контур_4885" data-name="Контур 4885" d="M631.613,14755.571c-1.2-4.506-4.875,8.563-5.916,8.545-5.77,7.24-6.035-3.086-3.4-9.6,4.826-8.925-5.184-.624-5.841-1.025-1.524.7-4.053,5.1-5.114,6.458-1.591-1.728-2-8.788-5.234-8.361-3.832.572-6.391,7.586-5.385,11.831,2.869,6.112,6.979,1.365,7.928-4.656a10.91,10.91,0,0,1,1.381,3.395,106.279,106.279,0,0,0-5.742,17.613c-2.452,9.081.156,26.25,8.7,19.827,5.79-8.413,4.047-26,.243-34.729-.948-2.658-1.436-2.168-.263-4.223,2.451-4.6,4-5.223,7.538-6.38C614.452,14777.184,628.467,14769.47,631.613,14755.571Zm-25.043,4.34c-.682,4.944-4.257,5.835-4.351,1.065-.166-2.371,2.218-8.245,4.111-7.214C607.181,14753.313,607.073,14759.593,606.57,14759.911Zm8.583,23.559c-.327,26.231-14.31,14.943-8.85-4.69.672-3.036,3.5-12.436,4.7-14.312A47.725,47.725,0,0,1,615.153,14783.47Z" fill="#fff"/>
    <path id="Контур_4886" data-name="Контур 4886" d="M636.275,14748.006c5.343,1.085-.981,7.893-4.757,9.011.135,3.412,2.407,4.514,4.633,4.163,6.121.666,10.456-11.559,11.253-7.533-2.036,6.689-13.709,14.915-17.259,5.6C628.057,14755.546,633.412,14748.032,636.275,14748.006Zm-4.319,6.567c0-.024-.054-.032-.162-.024.75.4,4.877-3.376,4.656-4.382C634.6,14750.215,632.633,14752.706,631.956,14754.573Z" fill="#fff"/>
    <path id="Контур_4887" data-name="Контур 4887" d="M662.967,14751.283c2.81,1.5-4.491,14.75-7.366,13.518-4.077,1.366-3.626-9.14-5.4-9.574-1.589-1.611-5.67,15.117-6.808,9.8.912-3.589,1.064-13.875,3.241-11.378-.037,1.669-.726,3.628-.851,6.247-.011-.222-.114-.275-.236-.247,1-2.924,5.637-11.263,7.026-3.488q.988,5.483,1.484,5.617C658.286,14766.108,661.173,14754.059,662.967,14751.283Z" fill="#fff"/>
    <path id="Контур_4888" data-name="Контур 4888" d="M668.733,14756.657c.009.037.021.066.03.1,2.115-2.791,2.263-10.076-1.563-9.691-3.589.072-7.087,10.165-6.578,13.621C661.766,14769.64,667.75,14759.154,668.733,14756.657Zm-5.343,5.074c-4.314-.2,3.607-17.817,5.155-10.751C669.013,14753.641,663.977,14762.105,663.39,14761.731Z" fill="#fff"/>
    <path id="Контур_4889" data-name="Контур 4889" d="M668.715,14754.192c-.039,9.35-.881,19.645-5.705,25.916-.3.388.024.41.214.8,4.566,3.928,10.4-34.278,5.491-26.716Z" fill="#fff"/>
    <path id="Контур_4890" data-name="Контур 4890" d="M671.644,14758.133c.016.075.03.153.05.218a7.373,7.373,0,0,0,1.154,1.89,6.715,6.715,0,0,0,6.875,1.477c1.731-.676,4.654-3.268,6.884-6.116q.918-1.819,1.515-3.255a1.328,1.328,0,0,0-.023-1.038h0a.782.782,0,0,0-1.5.024q-2.531,6.028-6.938,8.142l-.459.22a4.8,4.8,0,0,1-2.946.5,4.422,4.422,0,0,1-2.621-2.286l-.02-.065a.237.237,0,0,1,.031-.183,44.065,44.065,0,0,0,3.423-3.6q1.992-3.491,1.63-5.7-.456-1.478-2.428-.905l-.229.109a4.3,4.3,0,0,0-1.547,1.432q-1.2.987-2.58,4.668c-.119.716-.452,1.211-.556,1.968A10.683,10.683,0,0,0,671.644,14758.133Zm1.991-4.105a9,9,0,0,1,2.912-4.585l.115-.056c.093-.045.152-.028.175.046q.18.586-1.184,3.365a10.8,10.8,0,0,1-2.25,2.427A4.425,4.425,0,0,1,673.635,14754.027Z" fill="#fff"/>
    <path id="Контур_4891" data-name="Контур 4891" d="M631.48,14747.194c1.347-2.49,6.406-3.326,5.72-4.246C634.743,14740.875,624.158,14749.859,631.48,14747.194Z" fill="#fff"/>
  </g>
</svg>
