<svg xmlns="http://www.w3.org/2000/svg" xmlns:xlink="http://www.w3.org/1999/xlink" width="39.738" height="54.991" viewBox="0 0 39.738 54.991">
  <defs>
    <clipPath id="clip-path">
      <path id="Контур_19610" data-name="Контур 19610" d="M893.075,570.213a9.5,9.5,0,0,0-9.5-9.5H863.919a9.5,9.5,0,0,0-9.5,9.478l-.082,34.99a9.5,9.5,0,0,0,9.5,9.523h.012a9.5,9.5,0,0,0,9.5-9.466l.058-16.059a9.5,9.5,0,0,1,9.5-9.466h.668a9.5,9.5,0,0,0,9.5-9.5Z" fill="none" stroke="#f2f2f2" stroke-miterlimit="10" stroke-width="1"/>
    </clipPath>
  </defs>
  <g id="Сгруппировать_33583" data-name="Сгруппировать 33583" transform="translate(-853.837 -560.213)">
    <g id="Сгруппировать_33582" data-name="Сгруппировать 33582" clip-path="url(#clip-path)">
      <g id="Сгруппировать_33581" data-name="Сгруппировать 33581">
        <g id="Сгруппировать_33580" data-name="Сгруппировать 33580">
          <g id="Сгруппировать_33579" data-name="Сгруппировать 33579">
            <line id="Линия_137229" data-name="Линия 137229" x2="90.926" y2="151.066" transform="translate(793.168 511.85)" fill="none" stroke="#f2f2f2" stroke-miterlimit="10" stroke-width="1"/>
            <line id="Линия_137230" data-name="Линия 137230" x2="90.926" y2="151.066" transform="translate(797.464 511.85)" fill="none" stroke="#f2f2f2" stroke-miterlimit="10" stroke-width="1"/>
            <line id="Линия_137231" data-name="Линия 137231" x2="90.926" y2="151.066" transform="translate(801.76 511.85)" fill="none" stroke="#f2f2f2" stroke-miterlimit="10" stroke-width="1"/>
            <line id="Линия_137232" data-name="Линия 137232" x2="90.926" y2="151.066" transform="translate(806.055 511.85)" fill="none" stroke="#f2f2f2" stroke-miterlimit="10" stroke-width="1"/>
            <line id="Линия_137233" data-name="Линия 137233" x2="90.926" y2="151.066" transform="translate(810.351 511.85)" fill="none" stroke="#f2f2f2" stroke-miterlimit="10" stroke-width="1"/>
            <line id="Линия_137234" data-name="Линия 137234" x2="90.926" y2="151.066" transform="translate(814.647 511.85)" fill="none" stroke="#f2f2f2" stroke-miterlimit="10" stroke-width="1"/>
            <line id="Линия_137235" data-name="Линия 137235" x2="90.926" y2="151.066" transform="translate(818.943 511.85)" fill="none" stroke="#f2f2f2" stroke-miterlimit="10" stroke-width="1"/>
            <line id="Линия_137236" data-name="Линия 137236" x2="90.926" y2="151.066" transform="translate(823.238 511.85)" fill="none" stroke="#f2f2f2" stroke-miterlimit="10" stroke-width="1"/>
            <line id="Линия_137237" data-name="Линия 137237" x2="90.926" y2="151.066" transform="translate(827.534 511.85)" fill="none" stroke="#f2f2f2" stroke-miterlimit="10" stroke-width="1"/>
            <line id="Линия_137238" data-name="Линия 137238" x2="90.926" y2="151.066" transform="translate(831.83 511.85)" fill="none" stroke="#f2f2f2" stroke-miterlimit="10" stroke-width="1"/>
            <line id="Линия_137239" data-name="Линия 137239" x2="90.926" y2="151.066" transform="translate(836.125 511.85)" fill="none" stroke="#f2f2f2" stroke-miterlimit="10" stroke-width="1"/>
            <line id="Линия_137240" data-name="Линия 137240" x2="90.926" y2="151.066" transform="translate(840.421 511.85)" fill="none" stroke="#f2f2f2" stroke-miterlimit="10" stroke-width="1"/>
            <line id="Линия_137241" data-name="Линия 137241" x2="90.926" y2="151.066" transform="translate(844.717 511.85)" fill="none" stroke="#f2f2f2" stroke-miterlimit="10" stroke-width="1"/>
            <line id="Линия_137242" data-name="Линия 137242" x2="90.926" y2="151.066" transform="translate(849.013 511.85)" fill="none" stroke="#f2f2f2" stroke-miterlimit="10" stroke-width="1"/>
            <line id="Линия_137243" data-name="Линия 137243" x2="90.926" y2="151.066" transform="translate(853.308 511.85)" fill="none" stroke="#f2f2f2" stroke-miterlimit="10" stroke-width="1"/>
            <line id="Линия_137244" data-name="Линия 137244" x2="90.926" y2="151.066" transform="translate(857.604 511.85)" fill="none" stroke="#f2f2f2" stroke-miterlimit="10" stroke-width="1"/>
            <line id="Линия_137245" data-name="Линия 137245" x2="90.926" y2="151.066" transform="translate(861.9 511.85)" fill="none" stroke="#f2f2f2" stroke-miterlimit="10" stroke-width="1"/>
            <line id="Линия_137246" data-name="Линия 137246" x2="90.926" y2="151.066" transform="translate(866.195 511.85)" fill="none" stroke="#f2f2f2" stroke-miterlimit="10" stroke-width="1"/>
            <line id="Линия_137247" data-name="Линия 137247" x2="90.926" y2="151.066" transform="translate(870.491 511.85)" fill="none" stroke="#f2f2f2" stroke-miterlimit="10" stroke-width="1"/>
          </g>
        </g>
      </g>
    </g>
    <path id="Контур_19611" data-name="Контур 19611" d="M893.075,570.213a9.5,9.5,0,0,0-9.5-9.5H863.919a9.5,9.5,0,0,0-9.5,9.478l-.082,34.99a9.5,9.5,0,0,0,9.5,9.523h.012a9.5,9.5,0,0,0,9.5-9.466l.058-16.059a9.5,9.5,0,0,1,9.5-9.466h.668a9.5,9.5,0,0,0,9.5-9.5Z" fill="none" stroke="#f2f2f2" stroke-miterlimit="10" stroke-width="1"/>
  </g>
</svg>
