<?xml version="1.0" encoding="utf-8"?>
<!-- Generator: Adobe Illustrator 24.2.3, SVG Export Plug-In . SVG Version: 6.00 Build 0)  -->
<svg version="1.1" id="Calque_1" xmlns="http://www.w3.org/2000/svg" xmlns:xlink="http://www.w3.org/1999/xlink" x="0px" y="0px"
	 viewBox="0 0 64 64" style="enable-background:new 0 0 64 64;" xml:space="preserve">
<style type="text/css">
	.st0{fill:#FFFFFF;}
	.st1{fill:none;}
	.st2{fill:#010101;}
</style>
<g>
	<circle class="st0" cx="32" cy="32" r="32"/>
	<g>
		<path class="st1" d="M32,21.1c-1,0-2,0.1-3,0.3l0.6,1.7c5.1-1.2,10.4,1.6,12.2,6.7c1.8,5-0.4,10.4-5,12.8l0.8,2.1
			c8.3-2.3,15-8.9,17.3-11.4C52.2,30.3,42.8,21.1,32,21.1z"/>
		<path class="st2" d="M6.1,32.1C6,32.1,6,32.2,6.1,32.1C6,32.2,6,32.1,6.1,32.1z"/>
		<path class="st2" d="M6.3,31.9c0-0.1,0.1-0.1,0.2-0.2C6.4,31.8,6.3,31.8,6.3,31.9z"/>
		<path class="st2" d="M5.1,33.3l0.8,0.9c0,0,0,0,0.1,0.1c0,0-0.1-0.1-0.1-0.1L5.1,33.3z"/>
		<path class="st2" d="M6.6,35.2c-0.4-0.4-0.6-0.7-0.7-0.8C6,34.5,6.2,34.8,6.6,35.2z"/>
		<path class="st2" d="M9.7,38.3c-0.1-0.1-0.2-0.2-0.3-0.2C9.5,38.1,9.6,38.2,9.7,38.3z"/>
	</g>
	<path class="st2" d="M58.2,32.4C57.7,31.8,46.4,18.1,32,18.1c-1.4,0-2.7,0.1-4.1,0.4l-3-8.2l-3.3,0l3.3,8.9
		c-1.3,0.4-2.6,0.9-3.8,1.4l0,0c-0.9,0.4-1.8,0.9-2.7,1.4l0,0c-1.2,0.7-2.4,1.4-3.5,2.2l0,0c-0.9,0.6-1.7,1.3-2.5,1.9l0,0
		c-0.9,0.7-1.7,1.4-2.4,2v0c-0.3,0.2-0.5,0.5-0.8,0.7c0,0,0,0,0,0c0,0,0,0,0,0l0,0c-0.3,0.3-0.6,0.5-0.8,0.8c0,0,0,0,0,0
		C7.8,30.2,7.4,30.6,7,31c0,0,0,0,0,0c-0.1,0.1-0.2,0.2-0.2,0.2l0,0c0,0.1-0.1,0.1-0.1,0.1c-0.1,0.1-0.2,0.2-0.3,0.3
		c-0.1,0.1-0.1,0.1-0.2,0.2C6.2,32,6.1,32,6.1,32.1c0,0-0.1,0.1-0.1,0.1c-0.1,0.1-0.1,0.1-0.1,0.2l-0.8,0.9l0.8,0.9c0,0,0,0,0.1,0.1
		c0.1,0.1,0.3,0.4,0.7,0.8c0.5,0.5,1.2,1.3,2.1,2.2c0.2,0.2,0.5,0.5,0.8,0.7c0.1,0.1,0.2,0.2,0.3,0.2c0.1,0.1,0.2,0.2,0.3,0.3v0
		c1.1,1,2.4,2.1,3.9,3.2L10.3,32c0.9-0.8,1.9-1.9,3.2-2.9l6,16.2c1.2,0.6,2.5,1.2,3.8,1.7L16,27.1c1.1-0.8,2.2-1.5,3.5-2.3l8.7,23.3
		c1.1,0.2,2.2,0.3,3.3,0.3l-9.3-25c1.2-0.6,2.5-1.1,3.8-1.5l13.7,36.8l3.3,0l-4.2-11.2c11.1-3.2,19.1-12.9,19.4-13.3l0.8-0.9
		L58.2,32.4z M37.7,44.7l-0.8-2.1c4.6-2.4,6.8-7.8,5-12.8c-1.8-5.1-7.1-7.9-12.2-6.7L29,21.4c1-0.1,2-0.3,3-0.3
		c10.8,0,20.2,9.2,23,12.2C52.7,35.8,46,42.4,37.7,44.7z"/>
</g>
</svg>
