<svg xmlns="http://www.w3.org/2000/svg" width="286.129" height="110.752" viewBox="0 0 286.129 110.752">
  <g id="Сгруппировать_824" data-name="Сгруппировать 824" transform="translate(-1104.211 -14403.097)">
    <path id="Контур_4569" data-name="Контур 4569" d="M1112.148,14448.75s7.716,6.342,11.426.519a13.054,13.054,0,0,0,1.632-4.265,3.843,3.843,0,0,1,2.04-3.115,5.233,5.233,0,0,0,2.93,4.117,1.11,1.11,0,0,0,.668.148s0-.186-.371-.409c-.483-.3-.593-.185-.705-.3-.63-.521-1.335-1.261-1.373-1.855l1.855.816a2.305,2.305,0,0,1,1.409,2.188,6.736,6.736,0,0,0,.854,2.447s-4.34-.445-6.973,4.414l-.334-.556s-.037,1.595-1.039,2.15c0,0-.148-1.039-.853-1.187a3.256,3.256,0,0,1-1.262,2.338,1.489,1.489,0,0,0-.593-1.485s-1.076,2.264-3.116,2.188a3.086,3.086,0,0,0,.112-1.892s-2.152,2.04-4.044,1.226a2.788,2.788,0,0,0,.853-2.228s-2.522,1.411-4.821-2.039c0,0,.63.632,2.633-.445a3.865,3.865,0,0,1-.928-2.781" fill="#fff"/>
    <path id="Контур_4570" data-name="Контур 4570" d="M1115.413,14414.7s2.633.52.519,5.118c0,0-.964,3.635,1.113,5.267a3.624,3.624,0,0,1,.556.779s-2.6.927-.816,5.675a4.956,4.956,0,0,1-2.374-1.669s.445-.187.631-1.039a2.068,2.068,0,0,1-2.448-.853l1.261-.853s-1.113-.038-2.374-1.782l1.521-.63a2.951,2.951,0,0,1-2.152-1.928h1.446s-1.26-2.263-.926-3.524a4.171,4.171,0,0,0,1.817.964,2,2,0,0,0-.3-2.41,2.906,2.906,0,0,1,.112-2.41s.037.222.927.408c0,0,.927,0,1.484,2l.185-.186a3.519,3.519,0,0,1-.185-2.93" fill="#fff"/>
    <path id="Контур_4571" data-name="Контур 4571" d="M1136.89,14442.3l1.632-.147s7.864-1,7.716-11.312c0,0-.223-5.972-4.637-8.791a7.108,7.108,0,0,0-1.707-.927,4.215,4.215,0,0,0-3.486.261,2.961,2.961,0,0,0-1.113,1.409c-.112.445-.3,1.779,1.558,3.3l.668-.854s-1.261-.927-.891-1.892a1.378,1.378,0,0,1,1.336-.89c1.075-.075,4.674.223,6.6,7.01a11.152,11.152,0,0,1-2.782,9.42s.63-2.521-2.263-6.824c0,0-2.56-3.561.964-8.048l-1.113-.742s-4.488,5.267-.816,9.756c0,0,2.894,3.521,1.707,5.821a2.771,2.771,0,0,1-1.484,1.335c-.631.149-2.448.558-2.448.558" fill="#fff"/>
    <path id="Контур_4572" data-name="Контур 4572" d="M1141.119,14421.193s1.966-2.448,7.975-3.079c0,0,.371,1.669-2.93,2.708,0,0,.148.631,3-.075,0,0-1.15,2.634-4.562,1.373a4.623,4.623,0,0,0-2.486-.111" fill="#fff"/>
    <path id="Контур_4573" data-name="Контур 4573" d="M1127.58,14410.1s1.186.594,1.149,2.745l5.342,1.93a4.1,4.1,0,0,1,2.671-2.115s-.186-.37-1.633-.149a1.546,1.546,0,0,0-1.075-.593s-.3.409.074,1.225a6.725,6.725,0,0,0-.964.594s-.26-.558-.52-1c0,0,1-.26,1-1.075,0,0-.445.222-.668.148a1.292,1.292,0,0,0-.3-1.854,2.264,2.264,0,0,0-.854,1.521,3.086,3.086,0,0,0-.964-.481,2.215,2.215,0,0,0,.111,1.372,1.176,1.176,0,0,1-.816.519,1.5,1.5,0,0,1-.816-.965l.445-.037a1.544,1.544,0,0,0,.556-.444,1.712,1.712,0,0,0-.89-.223l-.037-.148h.149s.037-1.335-1.966-.965" fill="#fff"/>
    <path id="Контур_4574" data-name="Контур 4574" d="M1127.357,14436.14l-.186-.261a3.806,3.806,0,0,0,2.115-2.447c.594-3.078,2.3-3.114,2.3-3.114l-.223.26c-1.15.444-1.373,2.521-1.373,2.521a3.172,3.172,0,0,1-2.633,3.042m-1.632.186-1.15.408-.371-.111.074-.075.519-.111c1.373-.777,2.041-3.226,2.041-3.226a3.86,3.86,0,0,1,2.708-2.56l.148.223-.26.111a3.224,3.224,0,0,0-1.929,2.559c-.074,2.411-1.78,2.782-1.78,2.782m3.413-20.214s.185-.223.3,0l.038.111-.112.037a.863.863,0,0,0-.334.111.215.215,0,0,1-.333-.111l.445-.148m16.691,41.541c-.222-.521-.444-1.188-.444-1.188l1.706.038c-1.558-.038-1.67-2.745-1.67-2.745a4.528,4.528,0,0,1,.965-3.746c-4.451.112-5.527-2.6-5.527-2.6-2.077-2.039-2.782-6.862-2.782-6.862a2.051,2.051,0,0,0-.259-.705,3.467,3.467,0,0,0-.742-.926,30.738,30.738,0,0,0-3.228-2.3,7.434,7.434,0,0,1-1.965-1.966,3.739,3.739,0,0,1-1.781,1.223l-.112-.333a5.6,5.6,0,0,0,2.56-6.787,8.643,8.643,0,0,1,.853-2.04c2.968-3.969.891-9.643.891-9.643.815-1.335-.26-1.521-.26-1.521-1.076-.223-1.113.3-1.113.3l-.149-.036-.073-.111-3.042-1.113c-1-.557-1.484-.409-1.484-.409a1.273,1.273,0,0,0,.111.854.561.561,0,0,0,.482.111,1.382,1.382,0,0,1,1.6.519l-.149.186a.919.919,0,0,0-.63-.334c-.779-.073-.742.371-.742.371-.26.371-.371-.037-.371-.037l-.111-.371c-.816-.185-.668-1.3-.668-1.3a11.883,11.883,0,0,0-2.745.521c-.482.185-.334.52-.334.52l.408.594-.223.814c-.482,1.262.891,1.3.891,1.3h1.855c1.409.3.444,1.263.444,1.263.038,1.594-.89,1.261-.89,1.261-1.223-.964-1.891-.111-1.891-.111-.409.816.519.816.519.816,1.855.037.705,1.409.705,1.409a1.548,1.548,0,0,1-1.669.815c-2.931-.3-3.45,1.149-3.45,1.149-1.076,1.113-.928,4.265-.928,4.265a6.2,6.2,0,0,1,.074-4.079c-2.67.928-1.706,5.9-1.706,5.9-1.261-2.67-.408-4.3-.408-4.3-2.411.334-1.706,3.895-1.706,3.895l.927,2.262-2.485,1.261a2.955,2.955,0,0,1-3.265.112c-3.634-3.375-7.6-.147-7.6-.147a5.346,5.346,0,0,0,4.154.7c-.519.853-2.782,1.854-2.782,1.854,3.858,1.521,4.971-.259,4.971-.259a2.452,2.452,0,0,1-.371,2.484c1.483.407,3.3-1.447,3.3-1.447a3.73,3.73,0,0,1-.816,1.6c1.372-.037,2.893-1.78,2.893-1.78a1.978,1.978,0,0,1-.482,1.483,4.623,4.623,0,0,0,2.93-2,2.931,2.931,0,0,1-.482,1.743,3.413,3.413,0,0,0,1.855-1.039c-2.04-1.558-1.558-2.707-1.558-2.707a3.83,3.83,0,0,0,2.782,2.893c1.743-.3,2.819-3.151,2.819-3.151,1.336-2.819,3.005-2.522,3.005-2.522-2,.741-2.152,2-2.152,2-.742,2.967-1.854,3.376-1.854,3.376.371,1.149,2.856,1.779,2.856,1.779.63.3,1.558.778,2.04,1.04a7.791,7.791,0,0,1,4.377,5.674,5.678,5.678,0,0,0,3.6,4.748c5.9,1.928,5.453,6.083,5.453,6.083-.334,6.229-4.118,8.566-4.118,8.566l.112.036a2.23,2.23,0,0,0,1.743-.072,2.568,2.568,0,0,1,0,1.632c3.116-.446,4.711-3.821,4.711-3.821a2.869,2.869,0,0,0,2,1.075c-.816-1.3-.593-4-.593-4l1.223.777-.592-1.445-.224-.93a5.045,5.045,0,0,0,1.41.818,6.791,6.791,0,0,0-.594-1.224" fill="#fff"/>
    <path id="Контур_4575" data-name="Контур 4575" d="M1127.468,14441.74a1.843,1.843,0,0,1,2.522.964l.817,1.447a6.359,6.359,0,0,1,.519.927,2.461,2.461,0,0,0-1.632-1.113s-2.077-.741-2.226-2.225" fill="#fff"/>
    <path id="Контур_4576" data-name="Контур 4576" d="M1128.766,14413.293l-.037.26,4.3,1.669.52-.3" fill="#fff"/>
    <path id="Контур_4577" data-name="Контур 4577" d="M1122.312,14415.444s.112,3.337,3.153,3.3c0,0,.334-.371,2.263.63l-.111.445a2.26,2.26,0,0,0-2.077-.52,3.7,3.7,0,0,1-3.191-.3,2.272,2.272,0,0,1-.037-3.561" fill="#fff"/>
    <path id="Контур_4578" data-name="Контур 4578" d="M1161.906,14474.219h1.3V14403.1h-1.3" fill="#fff"/>
    <path id="Контур_4579" data-name="Контур 4579" d="M1178.365,14426.8v-7.685h1.123v6.739h2.852v.945h-3.975" fill="#fff"/>
    <path id="Контур_4580" data-name="Контур 4580" d="M1184.115,14426.8v-7.685h4.182v.857h-3.059v2.438h2.926v.856h-2.926v2.631h3.059v.9h-4.182" fill="#fff"/>
    <path id="Контур_4581" data-name="Контур 4581" d="M1199.741,14426.449a7.93,7.93,0,0,1-2.689.451,4.827,4.827,0,0,1-1.6-.252,3.536,3.536,0,0,1-1.249-.731,3.233,3.233,0,0,1-.813-1.19,4.677,4.677,0,0,1,0-3.243,3.744,3.744,0,0,1,.835-1.293,3.922,3.922,0,0,1,1.326-.864,4.681,4.681,0,0,1,1.774-.318,8.012,8.012,0,0,1,1.138.081,7.306,7.306,0,0,1,1.123.259l-.163,1a6.763,6.763,0,0,0-1.064-.317,5.254,5.254,0,0,0-1.079-.111,3.32,3.32,0,0,0-1.13.193,2.766,2.766,0,0,0-.953.569,2.7,2.7,0,0,0-.658.948,3.387,3.387,0,0,0-.244,1.341,3.5,3.5,0,0,0,.214,1.268,2.6,2.6,0,0,0,.6.933,2.552,2.552,0,0,0,.921.578,3.383,3.383,0,0,0,1.185.2,4.643,4.643,0,0,0,.744-.06,5.23,5.23,0,0,0,.655-.147v-2.853h1.123v3.555h0" fill="#fff"/>
    <path id="Контур_4582" data-name="Контур 4582" d="M1209.2,14422.895a4.568,4.568,0,0,1-.3,1.715,3.657,3.657,0,0,1-.821,1.263,3.462,3.462,0,0,1-1.219.776,4.232,4.232,0,0,1-1.515.266,4.1,4.1,0,0,1-1.61-.288,2.882,2.882,0,0,1-1.116-.812,3.464,3.464,0,0,1-.65-1.234,5.336,5.336,0,0,1-.215-1.551,4.405,4.405,0,0,1,.311-1.707,3.863,3.863,0,0,1,.827-1.265,3.521,3.521,0,0,1,1.212-.79,3.992,3.992,0,0,1,1.478-.273,3.5,3.5,0,0,1,2.66,1,4.033,4.033,0,0,1,.961,2.9h0m-1.2.111a3.412,3.412,0,0,0-.673-2.289,2.321,2.321,0,0,0-1.855-.777,2.44,2.44,0,0,0-.96.192,2.284,2.284,0,0,0-.806.57,2.824,2.824,0,0,0-.554.926,3.594,3.594,0,0,0-.207,1.274,5.209,5.209,0,0,0,.126,1.17,2.664,2.664,0,0,0,.421.963,2.15,2.15,0,0,0,.761.66,2.477,2.477,0,0,0,1.16.244,2.779,2.779,0,0,0,1.02-.186,2.223,2.223,0,0,0,.82-.556,2.647,2.647,0,0,0,.547-.918,3.72,3.72,0,0,0,.2-1.274" fill="#fff"/>
    <path id="Контур_4583" data-name="Контур 4583" d="M1217.832,14423.87a3.645,3.645,0,0,1-.185,1.16,2.519,2.519,0,0,1-.593.972,2.924,2.924,0,0,1-1.036.665,4.155,4.155,0,0,1-1.519.247,3.505,3.505,0,0,1-2.377-.709,2.589,2.589,0,0,1-.807-2.054v-5.055h1.123v4.892a1.867,1.867,0,0,0,.562,1.5,2.363,2.363,0,0,0,1.581.479,2,2,0,0,0,1.648-.6,2.418,2.418,0,0,0,.48-1.56v-4.714h1.123v4.773h0" fill="#fff"/>
    <path id="Контур_4584" data-name="Контур 4584" d="M1223.671,14426.8h-1.257l-3.029-7.685h1.256l1.744,4.566q.192.488.355.976c.108.324.207.646.3.961h.015l.325-.946q.162-.473.34-.931l1.862-4.626h1.167l-3.073,7.685" fill="#fff"/>
    <path id="Контур_4585" data-name="Контур 4585" d="M1228.371,14426.8v-7.685h4.182v.857h-3.059v2.438h2.926v.856h-2.926v2.631h3.059v.9h-4.182" fill="#fff"/>
    <path id="Контур_4586" data-name="Контур 4586" d="M1238.909,14426.8l-2.7-3.414h-.045v3.414h-1.123v-7.685q.341-.015.88-.022t1.219-.007a3.468,3.468,0,0,1,2.032.5,1.7,1.7,0,0,1,.7,1.478,2.157,2.157,0,0,1-.185.916,1.958,1.958,0,0,1-.517.681,2.422,2.422,0,0,1-.783.436,3.627,3.627,0,0,1-.983.186,4.779,4.779,0,0,1,.332.369c.114.138.234.285.362.443l2.232,2.7h-1.419m-.207-5.6a1.065,1.065,0,0,0-.458-.946,2.22,2.22,0,0,0-1.256-.31c-.187,0-.345,0-.473.007a2.566,2.566,0,0,0-.355.037v2.587c.119.009.254.017.407.021s.308.007.465.007a1.844,1.844,0,0,0,1.22-.377,1.267,1.267,0,0,0,.45-1.026" fill="#fff"/>
    <path id="Контур_4587" data-name="Контур 4587" d="M1247.5,14426.8l-3.147-4.8q-.252-.384-.481-.783t-.406-.769h-.015c.02.257.035.542.045.857s.014.7.014,1.152l.015,4.345h-1.093v-7.685h1.463l3.1,4.744a17.853,17.853,0,0,1,.931,1.566h.015q-.03-.4-.045-1.072t-.014-1.633l-.015-3.605h1.108v7.685H1247.5" fill="#fff"/>
    <path id="Контур_4588" data-name="Контур 4588" d="M1251.916,14426.8v-7.685h4.182v.857h-3.059v2.438h2.926v.856h-2.926v2.631h3.059v.9h-4.182" fill="#fff"/>
    <path id="Контур_4589" data-name="Контур 4589" d="M1266.533,14426.8l-.636-4.492q-.088-.665-.14-1.131c-.034-.31-.061-.569-.081-.775h-.015c-.049.168-.1.364-.163.591s-.133.468-.221.724l-1.759,5.084h-1.226l-1.626-4.759q-.148-.413-.288-.857a6.123,6.123,0,0,1-.2-.782h-.014q-.03.444-.082.908t-.125,1.027l-.577,4.463h-1.123l1.153-7.685h1.389l1.7,4.95c.1.267.184.522.258.77a6.238,6.238,0,0,1,.17.694h.015q.088-.385.185-.694c.064-.207.14-.444.229-.71l1.773-5.01h1.463l1.123,7.685h-1.182" fill="#fff"/>
    <path id="Контур_4590" data-name="Контур 4590" d="M1270.332,14426.8v-7.685h4.182v.857h-3.059v2.438h2.926v.856h-2.926v2.631h3.059v.9h-4.182" fill="#fff"/>
    <path id="Контур_4591" data-name="Контур 4591" d="M1282.067,14426.8l-3.148-4.8q-.25-.384-.48-.783t-.406-.769h-.015c.02.257.034.542.044.857s.015.7.015,1.152l.015,4.345H1277v-7.685h1.463l3.1,4.744a17.823,17.823,0,0,1,.931,1.566h.014q-.029-.4-.044-1.072t-.015-1.633l-.014-3.605h1.108v7.685h-1.478" fill="#fff"/>
    <path id="Контур_4592" data-name="Контур 4592" d="M1288.689,14420.058v6.738h-1.123v-6.738h-2.291v-.946h5.734v.946h-2.32" fill="#fff"/>
    <path id="Контур_4593" data-name="Контур 4593" d="M1184.986,14438.67a4.222,4.222,0,0,1-.341,1.766,3.322,3.322,0,0,1-.948,1.234,4.01,4.01,0,0,1-1.436.724,6.553,6.553,0,0,1-1.807.237q-.652,0-1.148-.015c-.331-.01-.645-.016-.941-.016v-7.685q.474,0,1.163-.014t1.311-.016a6.482,6.482,0,0,1,1.733.214,3.3,3.3,0,0,1,1.3.681,3.059,3.059,0,0,1,.822,1.182,4.553,4.553,0,0,1,.289,1.707h0m-1.2.081q0-2.978-3.133-2.978c-.177,0-.37,0-.576.008s-.4.017-.592.037v5.866c.138.011.313.02.525.029s.4.015.569.015a4.488,4.488,0,0,0,1.3-.178,2.728,2.728,0,0,0,1.012-.541,2.434,2.434,0,0,0,.657-.925,3.429,3.429,0,0,0,.237-1.334" fill="#fff"/>
    <path id="Контур_4594" data-name="Контур 4594" d="M1193.544,14439.675a3.618,3.618,0,0,1-.186,1.16,2.508,2.508,0,0,1-.592.971,2.9,2.9,0,0,1-1.037.665,4.133,4.133,0,0,1-1.518.248,3.5,3.5,0,0,1-2.377-.709,2.59,2.59,0,0,1-.808-2.054v-5.054h1.124v4.891a1.869,1.869,0,0,0,.561,1.5,2.361,2.361,0,0,0,1.581.48,2,2,0,0,0,1.648-.6,2.414,2.414,0,0,0,.48-1.559v-4.714h1.124v4.772h0" fill="#fff"/>
    <path id="Контур_4595" data-name="Контур 4595" d="M1205.372,14442.253a7.867,7.867,0,0,1-2.69.451,4.831,4.831,0,0,1-1.6-.251,3.536,3.536,0,0,1-1.249-.731,3.239,3.239,0,0,1-.812-1.189,4.673,4.673,0,0,1,0-3.244,3.768,3.768,0,0,1,.835-1.293,3.9,3.9,0,0,1,1.327-.864,4.68,4.68,0,0,1,1.773-.317,8,8,0,0,1,1.138.08,7.173,7.173,0,0,1,1.123.26l-.162,1a6.7,6.7,0,0,0-1.064-.318,5.263,5.263,0,0,0-1.079-.111,3.33,3.33,0,0,0-1.131.193,2.786,2.786,0,0,0-.953.57,2.7,2.7,0,0,0-.658.948,3.4,3.4,0,0,0-.243,1.341,3.525,3.525,0,0,0,.213,1.267,2.615,2.615,0,0,0,.6.934,2.568,2.568,0,0,0,.92.577,3.367,3.367,0,0,0,1.186.2,4.622,4.622,0,0,0,.743-.059,5.241,5.241,0,0,0,.656-.148v-2.852h1.123v3.554h0" fill="#fff"/>
    <path id="Контур_4596" data-name="Контур 4596" d="M1212.038,14442.6l-2.7-3.414h-.045v3.414h-1.123v-7.685q.34-.013.879-.022t1.22-.007a3.468,3.468,0,0,1,2.032.5,1.7,1.7,0,0,1,.7,1.479,2.161,2.161,0,0,1-.185.916,1.954,1.954,0,0,1-.517.68,2.421,2.421,0,0,1-.784.437,3.611,3.611,0,0,1-.982.185q.162.163.332.369c.113.138.234.286.362.444l2.232,2.7h-1.419m-.207-5.6a1.066,1.066,0,0,0-.458-.946,2.212,2.212,0,0,0-1.256-.31c-.187,0-.345,0-.473.007a2.567,2.567,0,0,0-.355.037v2.586c.118.01.254.018.407.023s.307.007.465.007a1.842,1.842,0,0,0,1.219-.377,1.267,1.267,0,0,0,.451-1.027" fill="#fff"/>
    <path id="Контур_4597" data-name="Контур 4597" d="M1220.448,14442.6l-.65-1.714h-3.591l-.665,1.714h-1.124l3.03-7.685h1.256l2.985,7.685h-1.241m-1.98-5.217c-.089-.226-.173-.455-.252-.687s-.147-.441-.207-.628h-.014c-.05.2-.111.408-.185.636s-.16.453-.259.679l-1.034,2.646h2.97l-1.019-2.646" fill="#fff"/>
    <path id="Контур_4598" data-name="Контур 4598" d="M1228.562,14442.6l-3.148-4.8q-.25-.384-.48-.783t-.406-.769h-.015c.02.257.034.542.044.856s.015.7.015,1.153l.015,4.345h-1.094v-7.685h1.463l3.1,4.744a17.852,17.852,0,0,1,.931,1.566h.015c-.02-.266-.035-.624-.045-1.071s-.015-.992-.015-1.633l-.014-3.606h1.108v7.685h-1.478" fill="#fff"/>
    <path id="Контур_4599" data-name="Контур 4599" d="M1239.6,14438.67a4.22,4.22,0,0,1-.341,1.766,3.321,3.321,0,0,1-.948,1.234,4.02,4.02,0,0,1-1.437.724,6.547,6.547,0,0,1-1.807.237q-.651,0-1.148-.015c-.33-.01-.644-.016-.94-.016v-7.685q.474,0,1.163-.014t1.31-.016a6.476,6.476,0,0,1,1.733.214,3.3,3.3,0,0,1,1.3.681,3.057,3.057,0,0,1,.822,1.182,4.572,4.572,0,0,1,.289,1.707h0m-1.2.081q0-2.978-3.133-2.978c-.178,0-.37,0-.577.008s-.4.017-.591.037v5.866c.138.011.313.02.525.029s.4.015.569.015a4.476,4.476,0,0,0,1.3-.178,2.72,2.72,0,0,0,1.012-.541,2.447,2.447,0,0,0,.658-.925,3.426,3.426,0,0,0,.237-1.334" fill="#fff"/>
    <path id="Контур_4600" data-name="Контур 4600" d="M1240.9,14439.364v-.887h3.429v.887H1240.9" fill="#fff"/>
    <path id="Контур_4601" data-name="Контур 4601" d="M1253.1,14438.67a4.22,4.22,0,0,1-.34,1.766,3.341,3.341,0,0,1-.948,1.234,4.02,4.02,0,0,1-1.437.724,6.547,6.547,0,0,1-1.807.237q-.651,0-1.148-.015c-.331-.01-.644-.016-.94-.016v-7.685q.474,0,1.162-.014c.46-.011.9-.016,1.311-.016a6.476,6.476,0,0,1,1.733.214,3.3,3.3,0,0,1,1.3.681,3.037,3.037,0,0,1,.822,1.182,4.552,4.552,0,0,1,.289,1.707h0m-1.2.081q0-2.978-3.133-2.978c-.177,0-.369,0-.576.008s-.4.017-.591.037v5.866c.138.011.313.02.525.029s.4.015.568.015a4.483,4.483,0,0,0,1.3-.178,2.728,2.728,0,0,0,1.012-.541,2.447,2.447,0,0,0,.658-.925,3.427,3.427,0,0,0,.236-1.334" fill="#fff"/>
    <path id="Контур_4602" data-name="Контур 4602" d="M1261.655,14439.675a3.645,3.645,0,0,1-.185,1.16,2.508,2.508,0,0,1-.593.971,2.9,2.9,0,0,1-1.036.665,4.134,4.134,0,0,1-1.519.248,3.5,3.5,0,0,1-2.377-.709,2.589,2.589,0,0,1-.807-2.054v-5.054h1.123v4.891a1.867,1.867,0,0,0,.562,1.5,2.358,2.358,0,0,0,1.581.48,2,2,0,0,0,1.648-.6,2.415,2.415,0,0,0,.48-1.559v-4.714h1.123v4.772h0" fill="#fff"/>
    <path id="Контур_4603" data-name="Контур 4603" d="M1269.651,14442.3a5.284,5.284,0,0,1-1.005.3,6.006,6.006,0,0,1-1.152.1,3.624,3.624,0,0,1-2.771-1,3.906,3.906,0,0,1-.939-2.786,5.179,5.179,0,0,1,.237-1.574,3.639,3.639,0,0,1,.724-1.307,3.37,3.37,0,0,1,1.249-.887,4.566,4.566,0,0,1,1.81-.325,8.161,8.161,0,0,1,.894.051,5.5,5.5,0,0,1,.879.17l-.1,1.021a6.188,6.188,0,0,0-1.818-.3,2.743,2.743,0,0,0-1.182.236,2.363,2.363,0,0,0-.835.644,2.678,2.678,0,0,0-.495.96,4.187,4.187,0,0,0-.163,1.189,3.045,3.045,0,0,0,.7,2.165,2.715,2.715,0,0,0,2.077.746,4.444,4.444,0,0,0,.945-.1,3.665,3.665,0,0,0,.857-.3l.089.989h0" fill="#fff"/>
    <path id="Контур_4604" data-name="Контур 4604" d="M1277.041,14442.6v-3.487H1272.9v3.487h-1.123v-7.67h1.123v3.237h4.138v-3.237h1.123v7.67h-1.123" fill="#fff"/>
    <path id="Контур_4605" data-name="Контур 4605" d="M1281.106,14442.6v-7.685h4.183v.857h-3.059v2.438h2.926v.857h-2.926v2.63h3.059v.9h-4.183m1.685-8.557-.488-.62,1.922-1.641.606.769-2.04,1.492" fill="#fff"/>
    <path id="Контур_4606" data-name="Контур 4606" d="M1297.531,14438.67a4.22,4.22,0,0,1-.341,1.766,3.321,3.321,0,0,1-.948,1.234,4.016,4.016,0,0,1-1.436.724,6.555,6.555,0,0,1-1.808.237q-.651,0-1.147-.015c-.331-.01-.645-.016-.941-.016v-7.685q.474,0,1.163-.014t1.311-.016a6.473,6.473,0,0,1,1.732.214,3.3,3.3,0,0,1,1.3.681,3.058,3.058,0,0,1,.822,1.182,4.572,4.572,0,0,1,.289,1.707h0m-1.2.081q0-2.978-3.133-2.978c-.178,0-.37,0-.577.008s-.4.017-.591.037v5.866c.138.011.313.02.525.029s.4.015.569.015a4.476,4.476,0,0,0,1.3-.178,2.73,2.73,0,0,0,1.013-.541,2.446,2.446,0,0,0,.657-.925,3.429,3.429,0,0,0,.237-1.334" fill="#fff"/>
    <path id="Контур_4607" data-name="Контур 4607" d="M1299.63,14442.6v-7.685h4.182v.857h-3.059v2.438h2.926v.857h-2.926v2.63h3.059v.9h-4.182" fill="#fff"/>
    <path id="Контур_4608" data-name="Контур 4608" d="M1309.434,14442.6v-7.685h1.123v6.739h2.852v.945h-3.975" fill="#fff"/>
    <path id="Контур_4609" data-name="Контур 4609" d="M1321.642,14439.675a3.648,3.648,0,0,1-.185,1.16,2.51,2.51,0,0,1-.593.971,2.894,2.894,0,0,1-1.037.665,4.126,4.126,0,0,1-1.518.248,3.5,3.5,0,0,1-2.377-.709,2.589,2.589,0,0,1-.807-2.054v-5.054h1.123v4.891a1.87,1.87,0,0,0,.561,1.5,2.363,2.363,0,0,0,1.582.48,2,2,0,0,0,1.647-.6,2.409,2.409,0,0,0,.481-1.559v-4.714h1.123v4.772h0" fill="#fff"/>
    <path id="Контур_4610" data-name="Контур 4610" d="M1329.357,14442.6l-2.2-3.088-2.217,3.088h-1.389l2.97-3.827-2.852-3.857h1.433l2.128,3.015,2.187-3.015h1.315l-2.837,3.8,2.97,3.887h-1.507" fill="#fff"/>
    <path id="Контур_4611" data-name="Контур 4611" d="M1332.861,14442.6v-7.685h4.182v.857h-3.059v2.438h2.926v.857h-2.926v2.63h3.059v.9h-4.182" fill="#fff"/>
    <path id="Контур_4612" data-name="Контур 4612" d="M1347.477,14442.6l-.635-4.492q-.089-.665-.14-1.131t-.082-.775h-.014c-.05.167-.1.365-.163.591s-.133.468-.222.724l-1.758,5.084h-1.227l-1.625-4.759c-.1-.274-.195-.561-.289-.856a6.091,6.091,0,0,1-.2-.783h-.015q-.03.444-.081.909c-.035.31-.077.652-.126,1.026l-.576,4.463H1339.2l1.152-7.685h1.39l1.7,4.951q.148.4.259.768a6.589,6.589,0,0,1,.17.7h.014c.06-.256.121-.488.185-.7s.141-.442.229-.709l1.774-5.01h1.463l1.123,7.685h-1.183" fill="#fff"/>
    <path id="Контур_4613" data-name="Контур 4613" d="M1356.464,14440.3a2.534,2.534,0,0,1-.126.746,1.917,1.917,0,0,1-.465.761,2.6,2.6,0,0,1-.946.591,4.357,4.357,0,0,1-1.567.237q-.369,0-.916-.008c-.364,0-.754-.012-1.167-.022v-7.685q.443,0,1.056-.014t1.382-.016a3.062,3.062,0,0,1,1.988.511,1.669,1.669,0,0,1,.6,1.337,1.687,1.687,0,0,1-.362,1.079,2.313,2.313,0,0,1-1.027.709v.015a1.913,1.913,0,0,1,1.175.643,1.758,1.758,0,0,1,.377,1.116h0m-1.33-3.406a1.073,1.073,0,0,0-.348-.822,1.953,1.953,0,0,0-1.307-.323h-.555q-.273,0-.524.015v2.468c.148.01.288.015.421.015h.273a2.875,2.875,0,0,0,1.5-.33,1.114,1.114,0,0,0,.54-1.021h0m.162,3.443a1.139,1.139,0,0,0-.162-.632,1.194,1.194,0,0,0-.458-.4,2.188,2.188,0,0,0-.7-.213,5.775,5.775,0,0,0-.857-.059h-.34c-.148,0-.276,0-.384.014v2.661c.108.02.246.037.414.051s.369.022.6.022a2.1,2.1,0,0,0,1.427-.4,1.331,1.331,0,0,0,.45-1.036" fill="#fff"/>
    <path id="Контур_4614" data-name="Контур 4614" d="M1365.627,14438.7a4.567,4.567,0,0,1-.3,1.714,3.666,3.666,0,0,1-.82,1.263,3.457,3.457,0,0,1-1.219.776,4.232,4.232,0,0,1-1.515.266,4.111,4.111,0,0,1-1.611-.288,2.876,2.876,0,0,1-1.115-.812,3.476,3.476,0,0,1-.651-1.234,5.375,5.375,0,0,1-.214-1.551,4.427,4.427,0,0,1,.31-1.707,3.85,3.85,0,0,1,.828-1.264,3.51,3.51,0,0,1,1.212-.791,3.992,3.992,0,0,1,1.478-.273,3.506,3.506,0,0,1,2.66,1,4.032,4.032,0,0,1,.96,2.9h0m-1.2.111a3.407,3.407,0,0,0-.672-2.288,2.32,2.32,0,0,0-1.855-.778,2.44,2.44,0,0,0-.96.192,2.3,2.3,0,0,0-.806.57,2.834,2.834,0,0,0-.554.926,3.594,3.594,0,0,0-.207,1.274,5.209,5.209,0,0,0,.126,1.17,2.657,2.657,0,0,0,.421.963,2.14,2.14,0,0,0,.761.66,2.486,2.486,0,0,0,1.16.244,2.779,2.779,0,0,0,1.02-.186,2.231,2.231,0,0,0,.82-.556,2.638,2.638,0,0,0,.547-.918,3.721,3.721,0,0,0,.2-1.274" fill="#fff"/>
    <path id="Контур_4615" data-name="Контур 4615" d="M1374.259,14439.675a3.645,3.645,0,0,1-.185,1.16,2.508,2.508,0,0,1-.593.971,2.893,2.893,0,0,1-1.037.665,4.125,4.125,0,0,1-1.518.248,3.5,3.5,0,0,1-2.377-.709,2.589,2.589,0,0,1-.807-2.054v-5.054h1.123v4.891a1.869,1.869,0,0,0,.561,1.5,2.363,2.363,0,0,0,1.582.48,2,2,0,0,0,1.647-.6,2.41,2.41,0,0,0,.481-1.559v-4.714h1.123v4.772h0" fill="#fff"/>
    <path id="Контур_4616" data-name="Контур 4616" d="M1381,14442.6l-2.705-3.414h-.044v3.414h-1.123v-7.685q.341-.013.879-.022t1.22-.007a3.462,3.462,0,0,1,2.031.5,1.7,1.7,0,0,1,.7,1.479,2.163,2.163,0,0,1-.184.916,1.945,1.945,0,0,1-.518.68,2.4,2.4,0,0,1-.783.437,3.613,3.613,0,0,1-.982.185c.108.108.219.231.332.369s.234.286.362.444l2.232,2.7H1381m-.207-5.6a1.066,1.066,0,0,0-.458-.946,2.214,2.214,0,0,0-1.256-.31c-.187,0-.345,0-.473.007a2.568,2.568,0,0,0-.355.037v2.586c.118.01.254.018.407.023s.307.007.465.007a1.841,1.841,0,0,0,1.219-.377,1.267,1.267,0,0,0,.451-1.027" fill="#fff"/>
    <path id="Контур_4617" data-name="Контур 4617" d="M1390.34,14442.253a7.878,7.878,0,0,1-2.69.451,4.832,4.832,0,0,1-1.6-.251,3.536,3.536,0,0,1-1.249-.731,3.239,3.239,0,0,1-.812-1.189,4.323,4.323,0,0,1-.289-1.641,4.379,4.379,0,0,1,.292-1.6,3.768,3.768,0,0,1,.835-1.293,3.9,3.9,0,0,1,1.327-.864,4.68,4.68,0,0,1,1.773-.317,8,8,0,0,1,1.138.08,7.173,7.173,0,0,1,1.123.26l-.163,1a6.64,6.64,0,0,0-1.064-.318,5.244,5.244,0,0,0-1.078-.111,3.33,3.33,0,0,0-1.131.193,2.786,2.786,0,0,0-.953.57,2.7,2.7,0,0,0-.658.948,3.4,3.4,0,0,0-.244,1.341,3.524,3.524,0,0,0,.214,1.267,2.611,2.611,0,0,0,.6.934,2.581,2.581,0,0,0,.921.577,3.363,3.363,0,0,0,1.186.2,4.622,4.622,0,0,0,.743-.059,5.241,5.241,0,0,0,.656-.148v-2.852h1.123v3.554h0" fill="#fff"/>
    <path id="Контур_4618" data-name="Контур 4618" d="M1186.894,14458.406l-1.139-7.689h-1.139l-1.8,5.274c-.1.272-.18.513-.245.718a7.074,7.074,0,0,0-.176.7h-.023a6.093,6.093,0,0,0-.171-.7q-.114-.376-.262-.8l-1.754-5.194h-1.105l-1.094,7.689h.9l.558-4.648c.046-.394.088-.751.126-1.069s.064-.635.079-.946h.012a6.768,6.768,0,0,0,.2.78q.137.426.285.849l1.708,5.035h.991l1.8-5.377q.136-.4.228-.724t.148-.563h.023c.022.213.051.469.085.769s.085.686.154,1.156l.683,4.739h.923" fill="#fff"/>
    <path id="Контур_4619" data-name="Контур 4619" d="M1189.673,14451.138a.551.551,0,0,0-.177-.41.581.581,0,0,0-.416-.171.574.574,0,0,0-.421.171.56.56,0,0,0-.171.41.552.552,0,0,0,.171.416.581.581,0,0,0,.421.165.587.587,0,0,0,.416-.165.544.544,0,0,0,.177-.416h0m-.171,7.269v-5.661h-.855v5.661h.855" fill="#fff"/>
    <path id="Контур_4620" data-name="Контур 4620" d="M1196.165,14458.406v-3.953a2.809,2.809,0,0,0-.086-.706,1.6,1.6,0,0,0-.279-.581,1.3,1.3,0,0,0-.518-.393,2.023,2.023,0,0,0-.815-.143,2.087,2.087,0,0,0-1.27.381,2.2,2.2,0,0,0-.757,1l-.023-.011a5.9,5.9,0,0,0,.068-.621c.016-.239.023-.45.023-.632h-.843v5.661h.855v-2.724a3.33,3.33,0,0,1,.125-.934,2.3,2.3,0,0,1,.359-.746,1.727,1.727,0,0,1,.552-.49,1.427,1.427,0,0,1,.695-.176.9.9,0,0,1,.837.364,2.006,2.006,0,0,1,.222,1.037v3.668h.855" fill="#fff"/>
    <path id="Контур_4621" data-name="Контур 4621" d="M1199.353,14451.138a.554.554,0,0,0-.176-.41.583.583,0,0,0-.416-.171.577.577,0,0,0-.422.171.563.563,0,0,0-.17.41.555.555,0,0,0,.17.416.583.583,0,0,0,.422.165.589.589,0,0,0,.416-.165.547.547,0,0,0,.176-.416h0m-.171,7.269v-5.661h-.854v5.661h.854" fill="#fff"/>
    <path id="Контур_4622" data-name="Контур 4622" d="M1204.57,14456.72a1.259,1.259,0,0,0-.2-.757,1.526,1.526,0,0,0-.513-.445,3.211,3.211,0,0,0-.666-.262,6.162,6.162,0,0,1-.667-.216,1.682,1.682,0,0,1-.512-.3.664.664,0,0,1-.2-.524.792.792,0,0,1,.307-.661,1.514,1.514,0,0,1,.934-.238,3.69,3.69,0,0,1,1.173.193l.023-.741c-.174-.038-.359-.067-.552-.091a4.817,4.817,0,0,0-.553-.034,3.28,3.28,0,0,0-.951.126,2.025,2.025,0,0,0-.695.349,1.441,1.441,0,0,0-.421.531,1.552,1.552,0,0,0-.143.661,1.351,1.351,0,0,0,.206.793,1.457,1.457,0,0,0,.512.457,3.185,3.185,0,0,0,.661.264c.235.063.455.133.66.205a1.494,1.494,0,0,1,.513.291.665.665,0,0,1,.205.524.8.8,0,0,1-.387.7,1.776,1.776,0,0,1-1,.257,4.066,4.066,0,0,1-.66-.054,4.814,4.814,0,0,1-.6-.139l-.023.785a5.064,5.064,0,0,0,.57.086q.308.028.626.027a3.359,3.359,0,0,0,1-.136,2.267,2.267,0,0,0,.746-.382,1.665,1.665,0,0,0,.467-.569,1.575,1.575,0,0,0,.16-.7" fill="#fff"/>
    <path id="Контур_4623" data-name="Контур 4623" d="M1209.045,14458.383v-.74a2.013,2.013,0,0,1-.381.07c-.141.014-.283.021-.427.021a1.288,1.288,0,0,1-.416-.058.5.5,0,0,1-.262-.2.957.957,0,0,1-.137-.392,4.14,4.14,0,0,1-.04-.625v-3.044h1.663v-.672h-1.663v-2.119l-.854.239v1.88h-1.23v.672h1.23v3.405a3.654,3.654,0,0,0,.068.758,1.188,1.188,0,0,0,.24.518.978.978,0,0,0,.45.3,2.205,2.205,0,0,0,.711.1,5.208,5.208,0,0,0,.542-.029,3.5,3.5,0,0,0,.506-.085" fill="#fff"/>
    <path id="Контур_4624" data-name="Контур 4624" d="M1214.774,14454.977a3.146,3.146,0,0,0-.125-.894,2.052,2.052,0,0,0-.393-.746,1.873,1.873,0,0,0-.689-.507,2.453,2.453,0,0,0-1-.188,2.393,2.393,0,0,0-1.053.223,2.2,2.2,0,0,0-.78.621,2.8,2.8,0,0,0-.485.939,4.02,4.02,0,0,0-.165,1.179,3.111,3.111,0,0,0,.667,2.2,2.554,2.554,0,0,0,1.953.706,5.261,5.261,0,0,0,1-.091,4.7,4.7,0,0,0,.865-.25l-.079-.729a3.575,3.575,0,0,1-.758.262,3.921,3.921,0,0,1-.883.1,1.8,1.8,0,0,1-1.441-.563,2.658,2.658,0,0,1-.438-1.839h3.782a1.306,1.306,0,0,0,.022-.229v-.194h0m-.888-.228h-2.871a1.854,1.854,0,0,1,.5-1.062,1.366,1.366,0,0,1,1-.4,1.313,1.313,0,0,1,1.019.4,1.415,1.415,0,0,1,.348,1.056h0m-.684-3.417-1.48-1.264-.479.592,1.572,1.149.387-.478" fill="#fff"/>
    <path id="Контур_4625" data-name="Контур 4625" d="M1219.193,14452.642a1.85,1.85,0,0,0-.78.068,1.644,1.644,0,0,0-.581.336,1.918,1.918,0,0,0-.4.524,2.847,2.847,0,0,0-.24.609l-.011-.012q.057-.365.091-.751c.023-.259.034-.483.034-.672h-.843v5.661h.855v-2.268a3.953,3.953,0,0,1,.45-2.124,1.266,1.266,0,0,1,1.4-.529l.034-.844" fill="#fff"/>
    <path id="Контур_4626" data-name="Контур 4626" d="M1224.74,14454.977a3.146,3.146,0,0,0-.126-.894,2.019,2.019,0,0,0-.393-.746,1.873,1.873,0,0,0-.689-.507,2.451,2.451,0,0,0-1-.188,2.4,2.4,0,0,0-1.054.223,2.212,2.212,0,0,0-.78.621,2.782,2.782,0,0,0-.484.939,4.02,4.02,0,0,0-.165,1.179,3.116,3.116,0,0,0,.666,2.2,2.557,2.557,0,0,0,1.954.706,5.241,5.241,0,0,0,1-.091,4.716,4.716,0,0,0,.866-.25l-.08-.729a3.565,3.565,0,0,1-.757.262,3.926,3.926,0,0,1-.883.1,1.793,1.793,0,0,1-1.441-.563,2.657,2.657,0,0,1-.439-1.839h3.782a1.313,1.313,0,0,0,.023-.229v-.194h0m-.889-.228h-2.87a1.842,1.842,0,0,1,.5-1.062,1.365,1.365,0,0,1,1-.4,1.317,1.317,0,0,1,1.02.4,1.411,1.411,0,0,1,.347,1.056" fill="#fff"/>
    <path id="Контур_4627" data-name="Контур 4627" d="M1233.265,14458.406v-8.316h-.854v2.644c-.2-.016-.379-.028-.546-.04s-.333-.018-.5-.018a3.224,3.224,0,0,0-1.193.211,2.538,2.538,0,0,0-.914.609,2.672,2.672,0,0,0-.585.991,4.088,4.088,0,0,0-.2,1.345,3.33,3.33,0,0,0,.511,1.959,1.8,1.8,0,0,0,1.568.717,2,2,0,0,0,1.193-.364,2.106,2.106,0,0,0,.749-.979l.025.012a4,4,0,0,0-.081.615c-.016.235-.023.44-.023.615h.854m-.854-2.929a3.249,3.249,0,0,1-.1.786,2.66,2.66,0,0,1-.311.752,1.883,1.883,0,0,1-.526.564,1.251,1.251,0,0,1-.735.222,1.119,1.119,0,0,1-1.029-.535,2.889,2.889,0,0,1-.327-1.5,2.675,2.675,0,0,1,.525-1.845,1.811,1.811,0,0,1,1.4-.57,4.774,4.774,0,0,1,1.108.138v1.992" fill="#fff"/>
    <path id="Контур_4628" data-name="Контур 4628" d="M1239.6,14454.977a3.146,3.146,0,0,0-.126-.894,2.019,2.019,0,0,0-.393-.746,1.873,1.873,0,0,0-.689-.507,2.451,2.451,0,0,0-1-.188,2.4,2.4,0,0,0-1.054.223,2.2,2.2,0,0,0-.78.621,2.784,2.784,0,0,0-.484.939,4.02,4.02,0,0,0-.166,1.179,3.115,3.115,0,0,0,.667,2.2,2.554,2.554,0,0,0,1.953.706,5.261,5.261,0,0,0,1-.091,4.682,4.682,0,0,0,.865-.25l-.079-.729a3.556,3.556,0,0,1-.758.262,3.914,3.914,0,0,1-.883.1,1.8,1.8,0,0,1-1.441-.563,2.664,2.664,0,0,1-.438-1.839h3.782a1.306,1.306,0,0,0,.022-.229v-.194h0m-.888-.228h-2.871a1.849,1.849,0,0,1,.5-1.062,1.364,1.364,0,0,1,1-.4,1.317,1.317,0,0,1,1.02.4,1.419,1.419,0,0,1,.347,1.056" fill="#fff"/>
    <path id="Контур_4629" data-name="Контур 4629" d="M1244.717,14458.406v-8.315h-.854v8.315h.854" fill="#fff"/>
    <path id="Контур_4630" data-name="Контур 4630" d="M1246.682,14452.767a4.371,4.371,0,0,0,.865-1.075,2.186,2.186,0,0,0,.284-.895.886.886,0,0,0-.159-.61.552.552,0,0,0-.45-.222.506.506,0,0,0-.293.086.547.547,0,0,0-.185.216.569.569,0,0,0-.051.285.548.548,0,0,0,.113.29.744.744,0,0,1,.112.269.754.754,0,0,1-.017.353,1.765,1.765,0,0,1-.191.444,3.145,3.145,0,0,1-.4.529l.371.33" fill="#fff"/>
    <path id="Контур_4631" data-name="Контур 4631" d="M1253.509,14458.406v-.729h-3v-2.882h2.848v-.706h-2.848v-2.666h3v-.706h-3.873v7.689h3.873m-.7-9.478-.467-.593-1.481,1.265.376.479,1.572-1.15" fill="#fff"/>
    <path id="Контур_4632" data-name="Контур 4632" d="M1259.978,14458.406v-3.953a2.809,2.809,0,0,0-.085-.706,1.592,1.592,0,0,0-.279-.581,1.3,1.3,0,0,0-.519-.393,2.014,2.014,0,0,0-.814-.143,2.085,2.085,0,0,0-1.27.381,2.205,2.205,0,0,0-.758,1l-.022-.011a5.87,5.87,0,0,0,.068-.621c.015-.239.023-.45.023-.632h-.843v5.661h.854v-2.724a3.366,3.366,0,0,1,.125-.934,2.319,2.319,0,0,1,.359-.746,1.74,1.74,0,0,1,.553-.49,1.423,1.423,0,0,1,.694-.176.9.9,0,0,1,.838.364,2,2,0,0,1,.222,1.037v3.668h.854" fill="#fff"/>
    <path id="Контур_4633" data-name="Контур 4633" d="M1266.3,14454.977a3.142,3.142,0,0,0-.125-.894,2.021,2.021,0,0,0-.393-.746,1.873,1.873,0,0,0-.689-.507,2.451,2.451,0,0,0-1-.188,2.394,2.394,0,0,0-1.054.223,2.2,2.2,0,0,0-.78.621,2.8,2.8,0,0,0-.485.939,4.02,4.02,0,0,0-.165,1.179,3.111,3.111,0,0,0,.667,2.2,2.555,2.555,0,0,0,1.953.706,5.261,5.261,0,0,0,1-.091,4.682,4.682,0,0,0,.865-.25l-.079-.729a3.576,3.576,0,0,1-.758.262,3.913,3.913,0,0,1-.883.1,1.8,1.8,0,0,1-1.441-.563,2.658,2.658,0,0,1-.438-1.839h3.782a1.3,1.3,0,0,0,.022-.229v-.194h0m-.888-.228h-2.871a1.849,1.849,0,0,1,.5-1.062,1.362,1.362,0,0,1,1-.4,1.313,1.313,0,0,1,1.019.4,1.415,1.415,0,0,1,.348,1.056" fill="#fff"/>
    <path id="Контур_4634" data-name="Контур 4634" d="M1270.718,14452.642a1.85,1.85,0,0,0-.78.068,1.644,1.644,0,0,0-.581.336,1.915,1.915,0,0,0-.4.524,2.841,2.841,0,0,0-.24.609l-.011-.012q.057-.365.091-.751c.023-.259.034-.483.034-.672h-.843v5.661h.855v-2.268a3.954,3.954,0,0,1,.45-2.124,1.266,1.266,0,0,1,1.4-.529l.034-.844" fill="#fff"/>
    <path id="Контур_4635" data-name="Контур 4635" d="M1276.891,14459.294a1.466,1.466,0,0,0-.489-1.173,2.107,2.107,0,0,0-1.413-.421h-1.1a1.963,1.963,0,0,1-.78-.114.381.381,0,0,1-.245-.365.48.48,0,0,1,.1-.3.673.673,0,0,1,.318-.216c.107.022.23.041.371.057a3.642,3.642,0,0,0,.4.022,3.18,3.18,0,0,0,1.076-.165,2.205,2.205,0,0,0,.769-.45,1.829,1.829,0,0,0,.462-.672,2.273,2.273,0,0,0,.153-.843,1.719,1.719,0,0,0-.148-.724,1.33,1.33,0,0,0-.4-.518h1.025v-.672h-1.925a3.277,3.277,0,0,0-.422-.08,3.832,3.832,0,0,0-.432-.023,2.865,2.865,0,0,0-1.037.177,2.306,2.306,0,0,0-.769.473,2.056,2.056,0,0,0-.484.693,2.111,2.111,0,0,0-.171.842,2.178,2.178,0,0,0,.2.967,1.552,1.552,0,0,0,.638.671,1.09,1.09,0,0,0-.461.383.952.952,0,0,0-.166.542.807.807,0,0,0,.154.486,1.085,1.085,0,0,0,.416.337,2.025,2.025,0,0,0-.689.587,1.468,1.468,0,0,0-.291.917,1.393,1.393,0,0,0,.638,1.241,3.083,3.083,0,0,0,1.72.422,4.215,4.215,0,0,0,1.2-.16,3.1,3.1,0,0,0,.94-.437,2.112,2.112,0,0,0,.615-.661,1.614,1.614,0,0,0,.222-.826h0m-1.23-4.567a1.32,1.32,0,0,1-.416,1.049,1.645,1.645,0,0,1-1.122.363,1.615,1.615,0,0,1-1.116-.358,1.344,1.344,0,0,1-.4-1.054,1.384,1.384,0,0,1,.41-1.03,1.567,1.567,0,0,1,1.151-.405,1.527,1.527,0,0,1,1.1.376,1.4,1.4,0,0,1,.393,1.06h0m.376,4.677a1.067,1.067,0,0,1-.518.918,2.57,2.57,0,0,1-1.453.352,2.73,2.73,0,0,1-.655-.074,1.8,1.8,0,0,1-.524-.21,1.015,1.015,0,0,1-.347-.345.927.927,0,0,1-.125-.482,1.042,1.042,0,0,1,.222-.651,1.761,1.761,0,0,1,.586-.481,1.354,1.354,0,0,0,.171.012h1.356a1.534,1.534,0,0,1,.968.255.854.854,0,0,1,.319.708" fill="#fff"/>
    <path id="Контур_4636" data-name="Контур 4636" d="M1279.556,14451.138a.554.554,0,0,0-.176-.41.583.583,0,0,0-.416-.171.577.577,0,0,0-.422.171.56.56,0,0,0-.171.41.552.552,0,0,0,.171.416.583.583,0,0,0,.422.165.589.589,0,0,0,.416-.165.547.547,0,0,0,.176-.416h0m-.171,7.269v-5.661h-.854v5.661h.854" fill="#fff"/>
    <path id="Контур_4637" data-name="Контур 4637" d="M1285.706,14454.977a3.146,3.146,0,0,0-.125-.894,2.021,2.021,0,0,0-.393-.746,1.873,1.873,0,0,0-.689-.507,2.451,2.451,0,0,0-1-.188,2.394,2.394,0,0,0-1.054.223,2.2,2.2,0,0,0-.78.621,2.8,2.8,0,0,0-.485.939,4.02,4.02,0,0,0-.165,1.179,3.111,3.111,0,0,0,.667,2.2,2.554,2.554,0,0,0,1.953.706,5.261,5.261,0,0,0,1-.091,4.682,4.682,0,0,0,.865-.25l-.079-.729a3.574,3.574,0,0,1-.758.262,3.913,3.913,0,0,1-.883.1,1.8,1.8,0,0,1-1.441-.563,2.658,2.658,0,0,1-.438-1.839h3.782a1.306,1.306,0,0,0,.022-.229v-.194h0m-.888-.228h-2.871a1.849,1.849,0,0,1,.5-1.062,1.364,1.364,0,0,1,1-.4,1.316,1.316,0,0,1,1.02.4,1.418,1.418,0,0,1,.347,1.056" fill="#fff"/>
    <path id="Контур_4638" data-name="Контур 4638" d="M1294.129,14454.977a3.181,3.181,0,0,0-.125-.894,2.05,2.05,0,0,0-.393-.746,1.881,1.881,0,0,0-.689-.507,2.456,2.456,0,0,0-1-.188,2.4,2.4,0,0,0-1.054.223,2.212,2.212,0,0,0-.78.621,2.8,2.8,0,0,0-.484.939,4.02,4.02,0,0,0-.165,1.179,3.115,3.115,0,0,0,.666,2.2,2.558,2.558,0,0,0,1.954.706,5.243,5.243,0,0,0,1-.091,4.693,4.693,0,0,0,.866-.25l-.08-.729a3.546,3.546,0,0,1-.757.262,3.927,3.927,0,0,1-.883.1,1.8,1.8,0,0,1-1.441-.563,2.657,2.657,0,0,1-.439-1.839h3.782a1.314,1.314,0,0,0,.023-.229v-.194h0m-.889-.228h-2.87a1.842,1.842,0,0,1,.5-1.062,1.366,1.366,0,0,1,1-.4,1.316,1.316,0,0,1,1.019.4,1.41,1.41,0,0,1,.347,1.056" fill="#fff"/>
    <path id="Контур_4639" data-name="Контур 4639" d="M1298.548,14458.383v-.74a2.008,2.008,0,0,1-.382.07c-.14.014-.283.021-.427.021a1.289,1.289,0,0,1-.416-.058.507.507,0,0,1-.262-.2.956.956,0,0,1-.136-.392,4,4,0,0,1-.04-.625v-3.044h1.663v-.672h-1.663v-2.119l-.855.239v1.88h-1.23v.672h1.23v3.405a3.574,3.574,0,0,0,.069.758,1.176,1.176,0,0,0,.239.518.99.99,0,0,0,.45.3,2.209,2.209,0,0,0,.712.1,5.177,5.177,0,0,0,.541-.029,3.536,3.536,0,0,0,.507-.085" fill="#fff"/>
    <path id="Контур_4640" data-name="Контур 4640" d="M1306.959,14458.406v-8.316h-.854v2.644c-.2-.016-.379-.028-.545-.04s-.334-.018-.5-.018a3.225,3.225,0,0,0-1.193.211,2.548,2.548,0,0,0-.914.609,2.67,2.67,0,0,0-.585.991,4.115,4.115,0,0,0-.2,1.345,3.322,3.322,0,0,0,.511,1.959,1.8,1.8,0,0,0,1.567.717,2,2,0,0,0,1.193-.364,2.1,2.1,0,0,0,.75-.979l.024.012a4,4,0,0,0-.081.615c-.016.235-.023.44-.023.615h.854m-.854-2.929a3.249,3.249,0,0,1-.1.786,2.628,2.628,0,0,1-.311.752,1.871,1.871,0,0,1-.526.564,1.251,1.251,0,0,1-.734.222,1.117,1.117,0,0,1-1.029-.535,2.879,2.879,0,0,1-.328-1.5,2.67,2.67,0,0,1,.526-1.845,1.807,1.807,0,0,1,1.4-.57,4.774,4.774,0,0,1,1.108.138v1.992" fill="#fff"/>
    <path id="Контур_4641" data-name="Контур 4641" d="M1313.292,14454.977a3.146,3.146,0,0,0-.126-.894,2.019,2.019,0,0,0-.393-.746,1.873,1.873,0,0,0-.689-.507,2.451,2.451,0,0,0-1-.188,2.4,2.4,0,0,0-1.054.223,2.2,2.2,0,0,0-.78.621,2.782,2.782,0,0,0-.484.939,4.02,4.02,0,0,0-.165,1.179,3.116,3.116,0,0,0,.666,2.2,2.555,2.555,0,0,0,1.954.706,5.249,5.249,0,0,0,1-.091,4.716,4.716,0,0,0,.866-.25l-.08-.729a3.556,3.556,0,0,1-.758.262,3.912,3.912,0,0,1-.882.1,1.793,1.793,0,0,1-1.441-.563,2.657,2.657,0,0,1-.439-1.839h3.782a1.313,1.313,0,0,0,.023-.229v-.194h0m-.889-.228h-2.87a1.842,1.842,0,0,1,.5-1.062,1.365,1.365,0,0,1,1-.4,1.317,1.317,0,0,1,1.02.4,1.415,1.415,0,0,1,.347,1.056" fill="#fff"/>
    <path id="Контур_4642" data-name="Контур 4642" d="M1179.251,14474.211v-8.315h-.854v8.315h.854" fill="#fff"/>
    <path id="Контур_4643" data-name="Контур 4643" d="M1181.216,14468.572a4.374,4.374,0,0,0,.865-1.076,2.175,2.175,0,0,0,.284-.895.887.887,0,0,0-.159-.609.551.551,0,0,0-.45-.223.5.5,0,0,0-.293.086.536.536,0,0,0-.185.217.555.555,0,0,0,.062.575.732.732,0,0,1,.112.268.757.757,0,0,1-.017.353,1.79,1.79,0,0,1-.191.444,3.189,3.189,0,0,1-.4.53l.371.33" fill="#fff"/>
    <path id="Контур_4644" data-name="Контур 4644" d="M1189.945,14474.211l-2.859-7.688h-.945l-2.86,7.688h.9l.684-1.891h3.417l.672,1.891h.991m-1.9-2.6H1185.1l1.116-3.042a9.181,9.181,0,0,0,.342-1.116h.023c.045.2.1.385.148.563s.118.366.194.564l1.116,3.03" fill="#fff"/>
    <path id="Контур_4645" data-name="Контур 4645" d="M1199.217,14474.211v-3.93a1.928,1.928,0,0,0-.438-1.407,1.664,1.664,0,0,0-1.232-.438,1.974,1.974,0,0,0-.76.137,2.179,2.179,0,0,0-.574.342,2.03,2.03,0,0,0-.4.438,2.372,2.372,0,0,0-.233.438,1.941,1.941,0,0,0-.08-.393,1.268,1.268,0,0,0-.24-.444,1.431,1.431,0,0,0-.48-.365,1.781,1.781,0,0,0-.788-.153,2.072,2.072,0,0,0-1.235.375,2.152,2.152,0,0,0-.765,1l-.023-.013a3.75,3.75,0,0,0,.074-.62c.011-.239.017-.449.017-.633h-.843v5.662h.854v-2.7a3.315,3.315,0,0,1,.131-.957,2.414,2.414,0,0,1,.365-.746,1.775,1.775,0,0,1,.541-.489,1.31,1.31,0,0,1,.661-.177,1.119,1.119,0,0,1,.524.108.756.756,0,0,1,.313.3,1.347,1.347,0,0,1,.148.45,3.449,3.449,0,0,1,.04.541v3.668h.854v-2.7a3.179,3.179,0,0,1,.142-.984,2.4,2.4,0,0,1,.38-.746,1.753,1.753,0,0,1,.539-.474,1.294,1.294,0,0,1,.629-.165,1.093,1.093,0,0,1,.505.1.8.8,0,0,1,.312.285,1.225,1.225,0,0,1,.159.443,3.459,3.459,0,0,1,.045.581v3.657h.855" fill="#fff"/>
    <path id="Контур_4646" data-name="Контур 4646" d="M1205.538,14470.782a3.148,3.148,0,0,0-.126-.895,2.013,2.013,0,0,0-.393-.746,1.874,1.874,0,0,0-.689-.507,2.451,2.451,0,0,0-1-.187,2.411,2.411,0,0,0-1.054.222,2.234,2.234,0,0,0-.78.621,2.777,2.777,0,0,0-.484.94,4.015,4.015,0,0,0-.165,1.179,3.117,3.117,0,0,0,.666,2.2,2.56,2.56,0,0,0,1.954.706,5.163,5.163,0,0,0,1-.092,4.8,4.8,0,0,0,.866-.25l-.08-.729a3.567,3.567,0,0,1-.757.262,3.871,3.871,0,0,1-.883.1,1.8,1.8,0,0,1-1.441-.564,2.657,2.657,0,0,1-.439-1.839h3.782a1.313,1.313,0,0,0,.023-.229v-.193h0m-.889-.229h-2.87a1.84,1.84,0,0,1,.5-1.062,1.362,1.362,0,0,1,1-.4,1.32,1.32,0,0,1,1.02.4,1.412,1.412,0,0,1,.347,1.056h0m-.022-4.089-.468-.592-1.48,1.264.376.479,1.572-1.15" fill="#fff"/>
    <path id="Контур_4647" data-name="Контур 4647" d="M1211.722,14474.211v-3.953a2.815,2.815,0,0,0-.085-.706,1.594,1.594,0,0,0-.279-.581,1.3,1.3,0,0,0-.518-.393,2.039,2.039,0,0,0-.815-.143,2.086,2.086,0,0,0-1.27.382,2.206,2.206,0,0,0-.758,1l-.022-.013a5.851,5.851,0,0,0,.068-.62c.015-.239.023-.449.023-.633h-.843v5.662h.854v-2.723a3.373,3.373,0,0,1,.125-.935,2.34,2.34,0,0,1,.359-.746,1.725,1.725,0,0,1,.553-.489,1.415,1.415,0,0,1,.695-.177.9.9,0,0,1,.837.364,2.006,2.006,0,0,1,.222,1.037v3.668h.854" fill="#fff"/>
    <path id="Контур_4648" data-name="Контур 4648" d="M1217.747,14474.211q-.022-.376-.022-.82v-3.1a2.862,2.862,0,0,0-.092-.74,1.338,1.338,0,0,0-.324-.587,1.556,1.556,0,0,0-.621-.381,2.922,2.922,0,0,0-.968-.137,4.544,4.544,0,0,0-1.071.119,5.031,5.031,0,0,0-.889.3l.08.752a3.023,3.023,0,0,1,.852-.364,3.464,3.464,0,0,1,.886-.126,1.241,1.241,0,0,1,1.012.348,1.533,1.533,0,0,1,.28.985v.467a6.527,6.527,0,0,0-1.474.148,3.78,3.78,0,0,0-1.08.41,1.924,1.924,0,0,0-.669.632,1.525,1.525,0,0,0-.228.814,1.242,1.242,0,0,0,.434,1.031,1.74,1.74,0,0,0,1.12.348,2.181,2.181,0,0,0,.68-.1,2.266,2.266,0,0,0,.571-.279,1.975,1.975,0,0,0,.44-.409,1.923,1.923,0,0,0,.286-.508h.021a3.715,3.715,0,0,0-.05.559q0,.308-.005.638h.831m-.877-2.563a2.2,2.2,0,0,1-.12.714,2.14,2.14,0,0,1-.338.629,1.684,1.684,0,0,1-.526.446,1.4,1.4,0,0,1-.686.171.964.964,0,0,1-.675-.228.78.78,0,0,1-.252-.611.964.964,0,0,1,.1-.419.976.976,0,0,1,.389-.391,2.634,2.634,0,0,1,.8-.289,6.17,6.17,0,0,1,1.31-.113v.091" fill="#fff"/>
    <path id="Контур_4649" data-name="Контур 4649" d="M1224.684,14475.1a1.467,1.467,0,0,0-.49-1.173,2.107,2.107,0,0,0-1.413-.421h-1.1a1.963,1.963,0,0,1-.78-.114.379.379,0,0,1-.245-.364.479.479,0,0,1,.1-.3.681.681,0,0,1,.319-.218,3.552,3.552,0,0,0,.37.058,3.642,3.642,0,0,0,.4.022,3.19,3.19,0,0,0,1.077-.165,2.2,2.2,0,0,0,.769-.45,1.819,1.819,0,0,0,.461-.672,2.274,2.274,0,0,0,.154-.843,1.729,1.729,0,0,0-.148-.723,1.357,1.357,0,0,0-.4-.52h1.025v-.672h-1.925a3.425,3.425,0,0,0-.421-.079,3.655,3.655,0,0,0-.433-.022,2.865,2.865,0,0,0-1.037.176,2.352,2.352,0,0,0-.769.472,2.081,2.081,0,0,0-.484.694,2.111,2.111,0,0,0-.171.842,2.189,2.189,0,0,0,.2.967,1.558,1.558,0,0,0,.638.671,1.1,1.1,0,0,0-.461.384.948.948,0,0,0-.165.542.806.806,0,0,0,.153.485,1.084,1.084,0,0,0,.416.337,2.035,2.035,0,0,0-.689.587,1.47,1.47,0,0,0-.29.918,1.389,1.389,0,0,0,.638,1.24,3.079,3.079,0,0,0,1.72.422,4.26,4.26,0,0,0,1.2-.159,3.109,3.109,0,0,0,.939-.438,2.114,2.114,0,0,0,.615-.661,1.607,1.607,0,0,0,.223-.826h0m-1.231-4.567a1.319,1.319,0,0,1-.415,1.048,1.644,1.644,0,0,1-1.122.365,1.611,1.611,0,0,1-1.117-.359,1.347,1.347,0,0,1-.4-1.054,1.382,1.382,0,0,1,.41-1.03,1.568,1.568,0,0,1,1.15-.405,1.524,1.524,0,0,1,1.1.376,1.4,1.4,0,0,1,.393,1.06h0m.376,4.677a1.065,1.065,0,0,1-.518.918,2.569,2.569,0,0,1-1.452.352,2.77,2.77,0,0,1-.655-.073,1.8,1.8,0,0,1-.524-.21,1.028,1.028,0,0,1-.348-.346.926.926,0,0,1-.125-.481,1.045,1.045,0,0,1,.222-.652,1.774,1.774,0,0,1,.587-.48,1.336,1.336,0,0,0,.171.011h1.355a1.532,1.532,0,0,1,.968.255.855.855,0,0,1,.319.708" fill="#fff"/>
    <path id="Контур_4650" data-name="Контур 4650" d="M1230.481,14470.782a3.183,3.183,0,0,0-.125-.895,2.042,2.042,0,0,0-.393-.746,1.885,1.885,0,0,0-.69-.507,2.451,2.451,0,0,0-1-.187,2.411,2.411,0,0,0-1.054.222,2.234,2.234,0,0,0-.78.621,2.777,2.777,0,0,0-.484.94,4.015,4.015,0,0,0-.165,1.179,3.117,3.117,0,0,0,.666,2.2,2.56,2.56,0,0,0,1.954.706,5.163,5.163,0,0,0,1-.092,4.8,4.8,0,0,0,.866-.25l-.08-.729a3.567,3.567,0,0,1-.757.262,3.871,3.871,0,0,1-.883.1,1.8,1.8,0,0,1-1.441-.564,2.657,2.657,0,0,1-.439-1.839h3.782a1.313,1.313,0,0,0,.023-.229v-.193h0m-.889-.229h-2.87a1.84,1.84,0,0,1,.5-1.062,1.362,1.362,0,0,1,1-.4,1.32,1.32,0,0,1,1.02.4,1.412,1.412,0,0,1,.347,1.056" fill="#fff"/>
    <path id="Контур_4651" data-name="Контур 4651" d="M1240.162,14474.211v-3.93a1.928,1.928,0,0,0-.437-1.407,1.663,1.663,0,0,0-1.232-.438,1.979,1.979,0,0,0-.761.137,2.187,2.187,0,0,0-.573.342,2.062,2.062,0,0,0-.4.438,2.369,2.369,0,0,0-.232.438,2,2,0,0,0-.08-.393,1.267,1.267,0,0,0-.24-.444,1.454,1.454,0,0,0-.48-.365,1.783,1.783,0,0,0-.789-.153,2.069,2.069,0,0,0-1.234.375,2.153,2.153,0,0,0-.766,1l-.022-.013a3.844,3.844,0,0,0,.074-.62c.011-.239.017-.449.017-.633h-.843v5.662h.854v-2.7a3.311,3.311,0,0,1,.131-.957,2.414,2.414,0,0,1,.365-.746,1.764,1.764,0,0,1,.541-.489,1.309,1.309,0,0,1,.66-.177,1.113,1.113,0,0,1,.524.108.752.752,0,0,1,.314.3,1.35,1.35,0,0,1,.148.45,3.587,3.587,0,0,1,.04.541v3.668h.854v-2.7a3.179,3.179,0,0,1,.142-.984,2.4,2.4,0,0,1,.38-.746,1.752,1.752,0,0,1,.539-.474,1.3,1.3,0,0,1,.629-.165,1.1,1.1,0,0,1,.505.1.8.8,0,0,1,.312.285,1.262,1.262,0,0,1,.159.443,3.459,3.459,0,0,1,.045.581v3.657h.854" fill="#fff"/>
    <path id="Контур_4652" data-name="Контур 4652" d="M1246.484,14470.782a3.148,3.148,0,0,0-.126-.895,2.012,2.012,0,0,0-.393-.746,1.873,1.873,0,0,0-.689-.507,2.451,2.451,0,0,0-1-.187,2.411,2.411,0,0,0-1.054.222,2.217,2.217,0,0,0-.78.621,2.779,2.779,0,0,0-.484.94,4.011,4.011,0,0,0-.166,1.179,3.117,3.117,0,0,0,.667,2.2,2.558,2.558,0,0,0,1.953.706,5.181,5.181,0,0,0,1-.092,4.759,4.759,0,0,0,.865-.25l-.079-.729a3.556,3.556,0,0,1-.758.262,3.86,3.86,0,0,1-.883.1,1.8,1.8,0,0,1-1.441-.564,2.664,2.664,0,0,1-.438-1.839h3.782a1.325,1.325,0,0,0,.023-.229v-.193h0m-.889-.229h-2.87a1.84,1.84,0,0,1,.5-1.062,1.362,1.362,0,0,1,1-.4,1.32,1.32,0,0,1,1.02.4,1.42,1.42,0,0,1,.347,1.056" fill="#fff"/>
    <path id="Контур_4653" data-name="Контур 4653" d="M1252.668,14474.211v-3.953a2.815,2.815,0,0,0-.085-.706,1.594,1.594,0,0,0-.279-.581,1.3,1.3,0,0,0-.519-.393,2.035,2.035,0,0,0-.814-.143,2.085,2.085,0,0,0-1.27.382,2.206,2.206,0,0,0-.758,1l-.023-.013a5.583,5.583,0,0,0,.069-.62c.015-.239.023-.449.023-.633h-.843v5.662h.854v-2.723a3.373,3.373,0,0,1,.125-.935,2.322,2.322,0,0,1,.359-.746,1.726,1.726,0,0,1,.553-.489,1.413,1.413,0,0,1,.694-.177.9.9,0,0,1,.838.364,2.006,2.006,0,0,1,.222,1.037v3.668h.854" fill="#fff"/>
    <path id="Контур_4654" data-name="Контур 4654" d="M1257.565,14474.188v-.74a2.012,2.012,0,0,1-.381.069,4.124,4.124,0,0,1-.427.021,1.319,1.319,0,0,1-.416-.057.509.509,0,0,1-.262-.2.968.968,0,0,1-.137-.393,4.15,4.15,0,0,1-.04-.625v-3.045h1.663v-.672H1255.9v-2.118l-.854.239v1.879h-1.23v.672h1.23v3.406a3.654,3.654,0,0,0,.068.758,1.212,1.212,0,0,0,.239.519,1,1,0,0,0,.45.3,2.211,2.211,0,0,0,.712.1c.175,0,.355-.01.541-.028a3.832,3.832,0,0,0,.507-.085" fill="#fff"/>
    <path id="Контур_4655" data-name="Контур 4655" d="M1265.977,14474.211v-8.316h-.855v2.644l-.545-.04c-.167-.011-.333-.017-.5-.017a3.2,3.2,0,0,0-1.192.211,2.537,2.537,0,0,0-.915.608,2.706,2.706,0,0,0-.585.991,4.113,4.113,0,0,0-.2,1.344,3.321,3.321,0,0,0,.511,1.96,1.8,1.8,0,0,0,1.568.718,2,2,0,0,0,1.192-.364,2.111,2.111,0,0,0,.75-.98l.024.013a4.275,4.275,0,0,0-.081.614c-.015.235-.023.44-.023.615h.855m-.855-2.928a3.255,3.255,0,0,1-.1.786,2.624,2.624,0,0,1-.311.752,1.863,1.863,0,0,1-.525.563,1.245,1.245,0,0,1-.735.223,1.121,1.121,0,0,1-1.029-.535,2.893,2.893,0,0,1-.328-1.5,2.669,2.669,0,0,1,.526-1.846,1.808,1.808,0,0,1,1.4-.569,4.816,4.816,0,0,1,1.108.137v1.993" fill="#fff"/>
    <path id="Контур_4656" data-name="Контур 4656" d="M1272.651,14474.211v-5.662h-.854v2.724a3.329,3.329,0,0,1-.126.934,2.29,2.29,0,0,1-.359.746,1.727,1.727,0,0,1-.552.49,1.417,1.417,0,0,1-.7.176.9.9,0,0,1-.837-.364,2,2,0,0,1-.222-1.037v-3.668h-.855v3.953a3.005,3.005,0,0,0,.08.706,1.47,1.47,0,0,0,.279.581,1.347,1.347,0,0,0,.524.393,2.021,2.021,0,0,0,.815.144,2.088,2.088,0,0,0,1.27-.382,2.2,2.2,0,0,0,.757-1l.023.012a5.819,5.819,0,0,0-.068.62c-.015.24-.023.45-.023.633h.843" fill="#fff"/>
    <path id="Контур_4657" data-name="Контур 4657" d="M1280.128,14474.188v-.74a2.012,2.012,0,0,1-.382.069,4.1,4.1,0,0,1-.427.021,1.324,1.324,0,0,1-.416-.057.513.513,0,0,1-.262-.2.968.968,0,0,1-.136-.393,4.025,4.025,0,0,1-.04-.625v-3.045h1.663v-.672h-1.663v-2.118l-.854.239v1.879h-1.231v.672h1.231v3.406a3.588,3.588,0,0,0,.068.758,1.2,1.2,0,0,0,.239.519,1,1,0,0,0,.45.3,2.207,2.207,0,0,0,.712.1c.175,0,.355-.01.541-.028a3.837,3.837,0,0,0,.507-.085" fill="#fff"/>
    <path id="Контур_4658" data-name="Контур 4658" d="M1285.857,14470.782a3.187,3.187,0,0,0-.125-.895,2.044,2.044,0,0,0-.393-.746,1.885,1.885,0,0,0-.69-.507,2.451,2.451,0,0,0-1-.187,2.411,2.411,0,0,0-1.054.222,2.234,2.234,0,0,0-.78.621,2.777,2.777,0,0,0-.484.94,4.015,4.015,0,0,0-.165,1.179,3.117,3.117,0,0,0,.666,2.2,2.561,2.561,0,0,0,1.954.706,5.163,5.163,0,0,0,1-.092,4.793,4.793,0,0,0,.866-.25l-.08-.729a3.564,3.564,0,0,1-.757.262,3.871,3.871,0,0,1-.883.1,1.8,1.8,0,0,1-1.441-.564,2.657,2.657,0,0,1-.439-1.839h3.782a1.314,1.314,0,0,0,.023-.229v-.193h0m-.889-.229h-2.87a1.84,1.84,0,0,1,.5-1.062,1.362,1.362,0,0,1,1-.4,1.32,1.32,0,0,1,1.02.4,1.412,1.412,0,0,1,.347,1.056" fill="#fff"/>
    <path id="Контур_4659" data-name="Контур 4659" d="M1290.276,14468.447a1.855,1.855,0,0,0-.781.067,1.639,1.639,0,0,0-.58.336,1.886,1.886,0,0,0-.405.524,2.85,2.85,0,0,0-.239.61l-.011-.013q.057-.363.091-.751c.022-.259.034-.482.034-.673h-.843v5.662h.854v-2.267a3.954,3.954,0,0,1,.45-2.124,1.267,1.267,0,0,1,1.4-.53l.034-.843" fill="#fff"/>
    <path id="Контур_4660" data-name="Контур 4660" d="M1294.4,14468.447a1.85,1.85,0,0,0-.78.067,1.654,1.654,0,0,0-.581.336,1.9,1.9,0,0,0-.4.524,2.844,2.844,0,0,0-.239.61l-.012-.013c.038-.242.069-.492.091-.751s.035-.482.035-.673h-.843v5.662h.854v-2.267a3.953,3.953,0,0,1,.45-2.124,1.267,1.267,0,0,1,1.4-.53l.034-.843" fill="#fff"/>
    <path id="Контур_4661" data-name="Контур 4661" d="M1296.813,14466.943a.551.551,0,0,0-.177-.41.577.577,0,0,0-.416-.171.571.571,0,0,0-.421.171.585.585,0,0,0,0,.826.585.585,0,0,0,.421.165.592.592,0,0,0,.416-.165.545.545,0,0,0,.177-.416h0m-.171,7.268v-5.662h-.855v5.662h.855" fill="#fff"/>
    <path id="Контур_4662" data-name="Контур 4662" d="M1301.539,14474.188v-.74a2.009,2.009,0,0,1-.382.069,4.1,4.1,0,0,1-.427.021,1.324,1.324,0,0,1-.416-.057.513.513,0,0,1-.262-.2.968.968,0,0,1-.136-.393,4.025,4.025,0,0,1-.04-.625v-3.045h1.663v-.672h-1.663v-2.118l-.854.239v1.879h-1.231v.672h1.231v3.406a3.58,3.58,0,0,0,.068.758,1.2,1.2,0,0,0,.239.519,1,1,0,0,0,.45.3,2.207,2.207,0,0,0,.712.1c.175,0,.355-.01.541-.028a3.832,3.832,0,0,0,.507-.085" fill="#fff"/>
    <path id="Контур_4663" data-name="Контур 4663" d="M1307.758,14471.283a3.814,3.814,0,0,0-.2-1.315,2.349,2.349,0,0,0-.541-.877,2.068,2.068,0,0,0-.8-.49,3.009,3.009,0,0,0-.968-.153,2.684,2.684,0,0,0-1.139.232,2.5,2.5,0,0,0-.849.639,2.813,2.813,0,0,0-.53.945,3.576,3.576,0,0,0-.182,1.146,4.2,4.2,0,0,0,.177,1.287,2.428,2.428,0,0,0,.5.9,2.016,2.016,0,0,0,.786.536,2.873,2.873,0,0,0,1.031.177,2.643,2.643,0,0,0,1.127-.233,2.533,2.533,0,0,0,.855-.645,2.886,2.886,0,0,0,.541-.962,3.678,3.678,0,0,0,.188-1.19h0m-.889.057a3.185,3.185,0,0,1-.142,1.008,2.069,2.069,0,0,1-.376.7,1.454,1.454,0,0,1-.541.4,1.6,1.6,0,0,1-.638.131,1.532,1.532,0,0,1-1.282-.575,2.662,2.662,0,0,1-.45-1.669,2.875,2.875,0,0,1,.149-.979,2.025,2.025,0,0,1,.387-.679,1.518,1.518,0,0,1,.552-.4,1.665,1.665,0,0,1,.644-.131,1.48,1.48,0,0,1,1.276.574,2.691,2.691,0,0,1,.421,1.612" fill="#fff"/>
    <path id="Контур_4664" data-name="Контур 4664" d="M1310.4,14466.943a.551.551,0,0,0-.177-.41.577.577,0,0,0-.416-.171.571.571,0,0,0-.421.171.584.584,0,0,0,0,.826.585.585,0,0,0,.421.165.592.592,0,0,0,.416-.165.546.546,0,0,0,.177-.416h0m-.171,7.268v-5.662h-.855v5.662h.855" fill="#fff"/>
    <path id="Контур_4665" data-name="Контур 4665" d="M1315.126,14468.447a1.851,1.851,0,0,0-.78.067,1.644,1.644,0,0,0-.581.336,1.928,1.928,0,0,0-.405.524,2.85,2.85,0,0,0-.239.61l-.011-.013q.057-.363.091-.751c.023-.259.034-.482.034-.673h-.843v5.662h.855v-2.267a3.963,3.963,0,0,1,.449-2.124,1.268,1.268,0,0,1,1.4-.53l.034-.843" fill="#fff"/>
    <path id="Контур_4666" data-name="Контур 4666" d="M1320.673,14470.782a3.148,3.148,0,0,0-.126-.895,2.013,2.013,0,0,0-.393-.746,1.874,1.874,0,0,0-.689-.507,2.451,2.451,0,0,0-1-.187,2.411,2.411,0,0,0-1.054.222,2.224,2.224,0,0,0-.78.621,2.777,2.777,0,0,0-.484.94,4.015,4.015,0,0,0-.165,1.179,3.117,3.117,0,0,0,.666,2.2,2.558,2.558,0,0,0,1.953.706,5.174,5.174,0,0,0,1-.092,4.8,4.8,0,0,0,.866-.25l-.08-.729a3.553,3.553,0,0,1-.758.262,3.857,3.857,0,0,1-.882.1,1.794,1.794,0,0,1-1.441-.564,2.657,2.657,0,0,1-.439-1.839h3.782a1.313,1.313,0,0,0,.023-.229v-.193h0m-.889-.229h-2.87a1.84,1.84,0,0,1,.5-1.062,1.362,1.362,0,0,1,1-.4,1.32,1.32,0,0,1,1.02.4,1.417,1.417,0,0,1,.347,1.056" fill="#fff"/>
    <path id="Контур_4667" data-name="Контур 4667" d="M1184.545,14494.012a4.834,4.834,0,0,0-.268-1.7,3.007,3.007,0,0,0-.774-1.186,3.219,3.219,0,0,0-1.242-.7,5.649,5.649,0,0,0-1.669-.228q-.6,0-1.19.018t-1.031.018v7.688c.266,0,.547,0,.843.018s.638.017,1.025.017a5.853,5.853,0,0,0,1.737-.245,3.71,3.71,0,0,0,1.362-.741,3.368,3.368,0,0,0,.888-1.235,4.339,4.339,0,0,0,.319-1.731h0m-.911.063a3.833,3.833,0,0,1-.239,1.42,2.658,2.658,0,0,1-.672.993,2.72,2.72,0,0,1-1.037.582,4.446,4.446,0,0,1-1.333.188q-.25,0-.564-.022c-.208-.016-.389-.034-.541-.058v-6.23q.228-.012.576-.023t.677-.011q3.133,0,3.133,3.161" fill="#fff"/>
    <path id="Контур_4668" data-name="Контур 4668" d="M1190.4,14494.5a3.141,3.141,0,0,0-.125-.894,2.044,2.044,0,0,0-.393-.746,1.873,1.873,0,0,0-.689-.507,2.683,2.683,0,0,0-2.056.033,2.217,2.217,0,0,0-.78.621,2.8,2.8,0,0,0-.485.939,4.025,4.025,0,0,0-.165,1.179,3.112,3.112,0,0,0,.667,2.2,2.558,2.558,0,0,0,1.953.706,5.261,5.261,0,0,0,1-.091,4.862,4.862,0,0,0,.865-.251l-.079-.729a3.369,3.369,0,0,1-.758.262,3.814,3.814,0,0,1-.883.1,1.8,1.8,0,0,1-1.441-.564,2.658,2.658,0,0,1-.438-1.84h3.782a1.285,1.285,0,0,0,.022-.227v-.194h0m-.888-.228h-2.871a1.849,1.849,0,0,1,.5-1.062,1.366,1.366,0,0,1,1-.4,1.318,1.318,0,0,1,1.019.4,1.422,1.422,0,0,1,.348,1.058h0m-.023-4.09-.467-.593-1.481,1.266.376.478,1.572-1.15" fill="#fff"/>
    <path id="Контур_4669" data-name="Контур 4669" d="M1196.88,14494.844a3.15,3.15,0,0,0-.541-2,1.86,1.86,0,0,0-1.544-.678,1.984,1.984,0,0,0-1.19.364,2.119,2.119,0,0,0-.746.979l-.023-.011a3.546,3.546,0,0,0,.074-.61c.012-.238.017-.445.017-.621h-.843v8.5h.855v-2.848a3.567,3.567,0,0,0,.518.069c.156.007.332.011.53.011a2.786,2.786,0,0,0,2.118-.814,3.264,3.264,0,0,0,.775-2.341h0m-.911.068a3.935,3.935,0,0,1-.136,1.1,1.962,1.962,0,0,1-.392.752,1.546,1.546,0,0,1-.607.428,2.191,2.191,0,0,1-.8.137,3.678,3.678,0,0,1-1.1-.148v-1.981a3.249,3.249,0,0,1,.1-.786,2.63,2.63,0,0,1,.312-.752,1.908,1.908,0,0,1,.522-.564,1.252,1.252,0,0,1,.743-.222,1.109,1.109,0,0,1,1.027.535,2.912,2.912,0,0,1,.324,1.5" fill="#fff"/>
    <path id="Контур_4670" data-name="Контур 4670" d="M1202.392,14497.931c-.015-.251-.022-.523-.022-.82v-3.1a2.844,2.844,0,0,0-.092-.739,1.319,1.319,0,0,0-.324-.588,1.581,1.581,0,0,0-.621-.382,2.951,2.951,0,0,0-.968-.136,4.552,4.552,0,0,0-1.071.119,5.022,5.022,0,0,0-.888.3l.079.752a3.023,3.023,0,0,1,.852-.364,3.463,3.463,0,0,1,.886-.126,1.238,1.238,0,0,1,1.012.349,1.528,1.528,0,0,1,.28.984v.468a6.588,6.588,0,0,0-1.474.147,3.78,3.78,0,0,0-1.08.41,1.931,1.931,0,0,0-.669.632,1.528,1.528,0,0,0-.228.815,1.242,1.242,0,0,0,.434,1.03,1.74,1.74,0,0,0,1.12.348,2.181,2.181,0,0,0,.68-.1,2.266,2.266,0,0,0,.571-.278,1.961,1.961,0,0,0,.44-.411,1.912,1.912,0,0,0,.286-.506h.021a3.686,3.686,0,0,0-.05.558c0,.205-.005.417-.005.638h.831m-.877-2.563a2.194,2.194,0,0,1-.12.714,2.1,2.1,0,0,1-.338.629,1.7,1.7,0,0,1-.526.447,1.409,1.409,0,0,1-.686.17.97.97,0,0,1-.675-.228.779.779,0,0,1-.252-.61.957.957,0,0,1,.1-.419.972.972,0,0,1,.389-.392,2.633,2.633,0,0,1,.795-.289,6.237,6.237,0,0,1,1.31-.113v.091" fill="#fff"/>
    <path id="Контур_4671" data-name="Контур 4671" d="M1207.278,14492.167a1.818,1.818,0,0,0-.78.068,1.615,1.615,0,0,0-.581.336,1.887,1.887,0,0,0-.4.523,2.78,2.78,0,0,0-.239.61l-.012-.012c.038-.243.068-.493.091-.752s.034-.482.034-.673h-.843v5.662h.855v-2.267a3.959,3.959,0,0,1,.45-2.125,1.268,1.268,0,0,1,1.4-.529l.034-.843" fill="#fff"/>
    <path id="Контур_4672" data-name="Контур 4672" d="M1211.4,14497.908v-.741a2.005,2.005,0,0,1-.382.071c-.14.014-.282.021-.427.021a1.285,1.285,0,0,1-.415-.057.5.5,0,0,1-.262-.2.947.947,0,0,1-.137-.392,4.026,4.026,0,0,1-.04-.625v-3.045h1.663v-.673h-1.663v-2.117l-.854.238v1.879h-1.231v.673h1.231v3.405a3.6,3.6,0,0,0,.068.759,1.192,1.192,0,0,0,.239.518,1,1,0,0,0,.45.3,2.21,2.21,0,0,0,.712.1c.175,0,.355-.011.541-.029a3.681,3.681,0,0,0,.507-.085" fill="#fff"/>
    <path id="Контур_4673" data-name="Контур 4673" d="M1217.13,14494.5a3.176,3.176,0,0,0-.125-.894,2.042,2.042,0,0,0-.393-.746,1.886,1.886,0,0,0-.69-.507,2.683,2.683,0,0,0-2.056.033,2.233,2.233,0,0,0-.78.621,2.782,2.782,0,0,0-.484.939,4.021,4.021,0,0,0-.165,1.179,3.117,3.117,0,0,0,.666,2.2,2.56,2.56,0,0,0,1.954.706,5.242,5.242,0,0,0,1-.091,4.851,4.851,0,0,0,.866-.251l-.08-.729a3.36,3.36,0,0,1-.757.262,3.82,3.82,0,0,1-.883.1,1.8,1.8,0,0,1-1.441-.564,2.658,2.658,0,0,1-.439-1.84h3.782a1.3,1.3,0,0,0,.023-.227v-.194h0m-.889-.228h-2.87a1.837,1.837,0,0,1,.5-1.062,1.366,1.366,0,0,1,1-.4,1.322,1.322,0,0,1,1.019.4,1.418,1.418,0,0,1,.347,1.058" fill="#fff"/>
    <path id="Контур_4674" data-name="Контур 4674" d="M1226.811,14497.931V14494a1.93,1.93,0,0,0-.437-1.407,1.664,1.664,0,0,0-1.232-.438,1.983,1.983,0,0,0-.761.137,2.189,2.189,0,0,0-.573.342,2.052,2.052,0,0,0-.4.438,2.314,2.314,0,0,0-.233.438,2.031,2.031,0,0,0-.08-.393,1.276,1.276,0,0,0-.24-.444,1.454,1.454,0,0,0-.48-.365,1.783,1.783,0,0,0-.789-.153,2.072,2.072,0,0,0-1.234.376,2.149,2.149,0,0,0-.765,1l-.023-.012a3.885,3.885,0,0,0,.074-.621c.011-.239.017-.449.017-.633h-.843v5.662h.854v-2.7a3.306,3.306,0,0,1,.131-.957,2.411,2.411,0,0,1,.365-.746,1.777,1.777,0,0,1,.541-.49,1.3,1.3,0,0,1,.661-.176,1.132,1.132,0,0,1,.524.107.752.752,0,0,1,.313.3,1.344,1.344,0,0,1,.148.449,3.587,3.587,0,0,1,.04.541v3.668h.854v-2.7a3.176,3.176,0,0,1,.142-.985,2.407,2.407,0,0,1,.38-.746,1.724,1.724,0,0,1,.539-.473,1.284,1.284,0,0,1,.629-.165,1.11,1.11,0,0,1,.505.1.784.784,0,0,1,.312.285,1.248,1.248,0,0,1,.159.444,3.434,3.434,0,0,1,.045.581v3.656h.854" fill="#fff"/>
    <path id="Контур_4675" data-name="Контур 4675" d="M1233.133,14494.5a3.141,3.141,0,0,0-.126-.894,2.013,2.013,0,0,0-.393-.746,1.873,1.873,0,0,0-.689-.507,2.683,2.683,0,0,0-2.056.033,2.225,2.225,0,0,0-.78.621,2.782,2.782,0,0,0-.484.939,4.025,4.025,0,0,0-.165,1.179,3.117,3.117,0,0,0,.666,2.2,2.558,2.558,0,0,0,1.953.706,5.254,5.254,0,0,0,1-.091,4.873,4.873,0,0,0,.866-.251l-.08-.729a3.351,3.351,0,0,1-.758.262,3.8,3.8,0,0,1-.882.1,1.794,1.794,0,0,1-1.441-.564,2.657,2.657,0,0,1-.439-1.84h3.782a1.293,1.293,0,0,0,.023-.227v-.194h0m-.889-.228h-2.87a1.837,1.837,0,0,1,.5-1.062,1.365,1.365,0,0,1,1-.4,1.322,1.322,0,0,1,1.02.4,1.422,1.422,0,0,1,.347,1.058" fill="#fff"/>
    <path id="Контур_4676" data-name="Контур 4676" d="M1239.317,14497.931v-3.953a2.8,2.8,0,0,0-.085-.705,1.579,1.579,0,0,0-.279-.581,1.3,1.3,0,0,0-.519-.394,2.034,2.034,0,0,0-.814-.143,2.086,2.086,0,0,0-1.27.382,2.2,2.2,0,0,0-.758,1l-.022-.012a5.87,5.87,0,0,0,.068-.621c.015-.239.023-.449.023-.633h-.843v5.662h.854v-2.723a3.366,3.366,0,0,1,.125-.934,2.319,2.319,0,0,1,.359-.746,1.74,1.74,0,0,1,.553-.49,1.413,1.413,0,0,1,.694-.176.9.9,0,0,1,.838.363,2.007,2.007,0,0,1,.222,1.037v3.668h.854" fill="#fff"/>
    <path id="Контур_4677" data-name="Контур 4677" d="M1244.214,14497.908v-.741a1.994,1.994,0,0,1-.381.071c-.141.014-.283.021-.427.021a1.291,1.291,0,0,1-.416-.057.509.509,0,0,1-.262-.2.963.963,0,0,1-.137-.392,4.152,4.152,0,0,1-.04-.625v-3.045h1.663v-.673h-1.663v-2.117l-.854.238v1.879h-1.23v.673h1.23v3.405a3.662,3.662,0,0,0,.068.759,1.193,1.193,0,0,0,.24.518.99.99,0,0,0,.45.3,2.2,2.2,0,0,0,.711.1c.175,0,.355-.011.542-.029a3.638,3.638,0,0,0,.506-.085" fill="#fff"/>
    <path id="Контур_4678" data-name="Контур 4678" d="M1252.626,14497.931v-8.315h-.855v2.643c-.2-.015-.378-.029-.545-.04s-.333-.017-.5-.017a3.218,3.218,0,0,0-1.192.211,2.514,2.514,0,0,0-.915.609,2.692,2.692,0,0,0-.585.99,4.12,4.12,0,0,0-.2,1.345,3.326,3.326,0,0,0,.511,1.96,1.8,1.8,0,0,0,1.568.717,2,2,0,0,0,1.192-.364,2.112,2.112,0,0,0,.75-.979l.024.011a4.322,4.322,0,0,0-.081.616c-.015.234-.023.439-.023.614h.855m-.855-2.928a3.3,3.3,0,0,1-.1.786,2.68,2.68,0,0,1-.311.752,1.9,1.9,0,0,1-.526.564,1.251,1.251,0,0,1-.735.222,1.121,1.121,0,0,1-1.029-.535,2.9,2.9,0,0,1-.328-1.5,2.67,2.67,0,0,1,.526-1.845,1.81,1.81,0,0,1,1.4-.57,4.812,4.812,0,0,1,1.108.137V14495" fill="#fff"/>
    <path id="Контур_4679" data-name="Контур 4679" d="M1258.958,14494.5a3.176,3.176,0,0,0-.125-.894,2.04,2.04,0,0,0-.393-.746,1.881,1.881,0,0,0-.689-.507,2.683,2.683,0,0,0-2.056.033,2.229,2.229,0,0,0-.781.621,2.8,2.8,0,0,0-.484.939,4.021,4.021,0,0,0-.165,1.179,3.112,3.112,0,0,0,.667,2.2,2.558,2.558,0,0,0,1.953.706,5.242,5.242,0,0,0,1-.091,4.851,4.851,0,0,0,.866-.251l-.08-.729a3.341,3.341,0,0,1-.757.262,3.813,3.813,0,0,1-.883.1,1.8,1.8,0,0,1-1.441-.564,2.652,2.652,0,0,1-.438-1.84h3.781a1.2,1.2,0,0,0,.023-.227v-.194h0m-.888-.228H1255.2a1.849,1.849,0,0,1,.5-1.062,1.366,1.366,0,0,1,1-.4,1.319,1.319,0,0,1,1.019.4,1.423,1.423,0,0,1,.348,1.058" fill="#fff"/>
    <path id="Контур_4680" data-name="Контур 4680" d="M1264.077,14497.931v-8.315h-.854v8.315h.854" fill="#fff"/>
    <path id="Контур_4681" data-name="Контур 4681" d="M1266.043,14492.292a4.359,4.359,0,0,0,.864-1.076,2.162,2.162,0,0,0,.285-.895.9.9,0,0,0-.159-.609.552.552,0,0,0-.45-.222.5.5,0,0,0-.293.085.546.546,0,0,0-.186.217.556.556,0,0,0-.05.285.55.55,0,0,0,.112.29.75.75,0,0,1,.113.268.773.773,0,0,1-.017.354,1.8,1.8,0,0,1-.191.443,3.108,3.108,0,0,1-.4.53l.372.33" fill="#fff"/>
    <path id="Контур_4682" data-name="Контур 4682" d="M1272.858,14497.931c-.015-.251-.023-.523-.023-.82v-3.1a2.845,2.845,0,0,0-.091-.739,1.331,1.331,0,0,0-.324-.588,1.58,1.58,0,0,0-.621-.382,2.95,2.95,0,0,0-.968-.136,4.545,4.545,0,0,0-1.071.119,5.031,5.031,0,0,0-.889.3l.08.752a3.023,3.023,0,0,1,.852-.364,3.465,3.465,0,0,1,.886-.126,1.238,1.238,0,0,1,1.012.349,1.529,1.529,0,0,1,.28.984v.468a6.589,6.589,0,0,0-1.474.147,3.78,3.78,0,0,0-1.08.41,1.923,1.923,0,0,0-.669.632,1.527,1.527,0,0,0-.228.815,1.239,1.239,0,0,0,.434,1.03,1.74,1.74,0,0,0,1.12.348,2.182,2.182,0,0,0,.68-.1,2.265,2.265,0,0,0,.571-.278,1.964,1.964,0,0,0,.44-.411,1.919,1.919,0,0,0,.286-.506h.021a3.685,3.685,0,0,0-.05.558c0,.205-.005.417-.005.638h.831m-.877-2.563a2.191,2.191,0,0,1-.12.714,2.116,2.116,0,0,1-.338.629,1.709,1.709,0,0,1-.526.447,1.411,1.411,0,0,1-.686.17.967.967,0,0,1-.675-.228.779.779,0,0,1-.252-.61.955.955,0,0,1,.1-.419.972.972,0,0,1,.389-.392,2.635,2.635,0,0,1,.8-.289,6.229,6.229,0,0,1,1.31-.113v.091" fill="#fff"/>
    <path id="Контур_4683" data-name="Контур 4683" d="M1283.007,14497.931V14494a1.934,1.934,0,0,0-.437-1.407,1.666,1.666,0,0,0-1.232-.438,1.976,1.976,0,0,0-.761.137,2.179,2.179,0,0,0-.574.342,2.079,2.079,0,0,0-.4.438,2.378,2.378,0,0,0-.233.438,1.894,1.894,0,0,0-.08-.393,1.276,1.276,0,0,0-.24-.444,1.433,1.433,0,0,0-.48-.365,1.779,1.779,0,0,0-.788-.153,2.072,2.072,0,0,0-1.235.376,2.148,2.148,0,0,0-.765,1l-.023-.012a3.775,3.775,0,0,0,.074-.621c.012-.239.017-.449.017-.633h-.843v5.662h.855v-2.7a3.273,3.273,0,0,1,.131-.957,2.413,2.413,0,0,1,.364-.746,1.791,1.791,0,0,1,.541-.49,1.3,1.3,0,0,1,.661-.176,1.129,1.129,0,0,1,.524.107.746.746,0,0,1,.313.3,1.323,1.323,0,0,1,.148.449,3.464,3.464,0,0,1,.04.541v3.668h.854v-2.7a3.206,3.206,0,0,1,.142-.985,2.423,2.423,0,0,1,.38-.746,1.734,1.734,0,0,1,.539-.473,1.286,1.286,0,0,1,.63-.165,1.1,1.1,0,0,1,.5.1.77.77,0,0,1,.312.285,1.21,1.21,0,0,1,.159.444,3.442,3.442,0,0,1,.046.581v3.656h.854" fill="#fff"/>
    <path id="Контур_4684" data-name="Контур 4684" d="M1289.328,14494.5a3.176,3.176,0,0,0-.125-.894,2.042,2.042,0,0,0-.393-.746,1.882,1.882,0,0,0-.689-.507,2.683,2.683,0,0,0-2.056.033,2.227,2.227,0,0,0-.781.621,2.8,2.8,0,0,0-.484.939,4.021,4.021,0,0,0-.165,1.179,3.117,3.117,0,0,0,.666,2.2,2.562,2.562,0,0,0,1.954.706,5.241,5.241,0,0,0,1-.091,4.851,4.851,0,0,0,.866-.251l-.08-.729a3.341,3.341,0,0,1-.757.262,3.82,3.82,0,0,1-.883.1,1.8,1.8,0,0,1-1.441-.564,2.658,2.658,0,0,1-.439-1.84h3.782a1.3,1.3,0,0,0,.023-.227v-.194h0m-.888-.228h-2.871a1.837,1.837,0,0,1,.5-1.062,1.366,1.366,0,0,1,1-.4,1.322,1.322,0,0,1,1.019.4,1.423,1.423,0,0,1,.348,1.058h0m-.023-4.09-.467-.593-1.481,1.266.376.478,1.572-1.15" fill="#fff"/>
    <path id="Контур_4685" data-name="Контур 4685" d="M1295.512,14497.931v-3.953a2.8,2.8,0,0,0-.085-.705,1.579,1.579,0,0,0-.279-.581,1.3,1.3,0,0,0-.518-.394,2.04,2.04,0,0,0-.815-.143,2.087,2.087,0,0,0-1.27.382,2.2,2.2,0,0,0-.757,1l-.023-.012a5.9,5.9,0,0,0,.068-.621c.015-.239.023-.449.023-.633h-.843v5.662h.854v-2.723a3.329,3.329,0,0,1,.126-.934,2.32,2.32,0,0,1,.358-.746,1.741,1.741,0,0,1,.553-.49,1.416,1.416,0,0,1,.695-.176.9.9,0,0,1,.837.363,2.009,2.009,0,0,1,.222,1.037v3.668h.854" fill="#fff"/>
    <path id="Контур_4686" data-name="Контур 4686" d="M1301.538,14497.931c-.016-.251-.023-.523-.023-.82v-3.1a2.887,2.887,0,0,0-.091-.739,1.331,1.331,0,0,0-.325-.588,1.581,1.581,0,0,0-.621-.382,2.951,2.951,0,0,0-.968-.136,4.552,4.552,0,0,0-1.071.119,5.022,5.022,0,0,0-.888.3l.079.752a3.022,3.022,0,0,1,.852-.364,3.469,3.469,0,0,1,.886-.126,1.237,1.237,0,0,1,1.012.349,1.528,1.528,0,0,1,.28.984v.468a6.588,6.588,0,0,0-1.474.147,3.794,3.794,0,0,0-1.08.41,1.92,1.92,0,0,0-.668.632,1.52,1.52,0,0,0-.229.815,1.242,1.242,0,0,0,.434,1.03,1.74,1.74,0,0,0,1.12.348,2.177,2.177,0,0,0,.68-.1,2.272,2.272,0,0,0,.572-.278,1.956,1.956,0,0,0,.439-.411,1.886,1.886,0,0,0,.286-.506h.022a3.45,3.45,0,0,0-.05.558c0,.205-.006.417-.006.638h.832m-.878-2.563a2.194,2.194,0,0,1-.12.714,2.116,2.116,0,0,1-.337.629,1.716,1.716,0,0,1-.527.447,1.409,1.409,0,0,1-.686.17.971.971,0,0,1-.675-.228.779.779,0,0,1-.252-.61.921.921,0,0,1,.492-.811,2.633,2.633,0,0,1,.795-.289,6.236,6.236,0,0,1,1.31-.113v.091" fill="#fff"/>
    <path id="Контур_4687" data-name="Контур 4687" d="M1308.474,14498.819a1.462,1.462,0,0,0-.49-1.173,2.1,2.1,0,0,0-1.412-.423h-1.1a2.015,2.015,0,0,1-.781-.112.381.381,0,0,1-.245-.365.485.485,0,0,1,.1-.3.686.686,0,0,1,.319-.217,3.614,3.614,0,0,0,.37.057,3.663,3.663,0,0,0,.4.023,3.211,3.211,0,0,0,1.077-.165,2.229,2.229,0,0,0,.769-.45,1.821,1.821,0,0,0,.461-.672,2.257,2.257,0,0,0,.154-.844,1.714,1.714,0,0,0-.148-.723,1.354,1.354,0,0,0-.4-.519h1.025v-.673h-1.925a3.332,3.332,0,0,0-.854-.1,2.868,2.868,0,0,0-1.037.176,2.349,2.349,0,0,0-.769.473,2.073,2.073,0,0,0-.484.693,2.111,2.111,0,0,0-.171.842,2.175,2.175,0,0,0,.206.967,1.545,1.545,0,0,0,.637.671,1.1,1.1,0,0,0-.461.383.954.954,0,0,0-.165.543.8.8,0,0,0,.154.486,1.081,1.081,0,0,0,.415.337,2.033,2.033,0,0,0-.689.587,1.472,1.472,0,0,0-.29.917,1.392,1.392,0,0,0,.638,1.241,3.087,3.087,0,0,0,1.72.422,4.291,4.291,0,0,0,1.2-.16,3.115,3.115,0,0,0,.94-.438,2.1,2.1,0,0,0,.615-.661,1.611,1.611,0,0,0,.222-.825h0m-1.23-4.568a1.319,1.319,0,0,1-.416,1.048,1.641,1.641,0,0,1-1.122.365,1.611,1.611,0,0,1-1.117-.359,1.345,1.345,0,0,1-.4-1.054,1.387,1.387,0,0,1,.41-1.031,1.572,1.572,0,0,1,1.15-.4,1.526,1.526,0,0,1,1.1.376,1.4,1.4,0,0,1,.393,1.059h0m.376,4.677a1.064,1.064,0,0,1-.519.918,2.564,2.564,0,0,1-1.452.352,2.769,2.769,0,0,1-.655-.073,1.818,1.818,0,0,1-.524-.21,1.022,1.022,0,0,1-.348-.346.926.926,0,0,1-.125-.481,1.045,1.045,0,0,1,.222-.652,1.775,1.775,0,0,1,.587-.481,1.174,1.174,0,0,0,.171.012h1.355a1.537,1.537,0,0,1,.969.255.858.858,0,0,1,.319.708" fill="#fff"/>
    <path id="Контур_4688" data-name="Контур 4688" d="M1314.271,14494.5a3.176,3.176,0,0,0-.125-.894,2.042,2.042,0,0,0-.393-.746,1.882,1.882,0,0,0-.689-.507,2.683,2.683,0,0,0-2.056.033,2.227,2.227,0,0,0-.781.621,2.8,2.8,0,0,0-.484.939,4.025,4.025,0,0,0-.165,1.179,3.117,3.117,0,0,0,.666,2.2,2.562,2.562,0,0,0,1.954.706,5.241,5.241,0,0,0,1-.091,4.851,4.851,0,0,0,.866-.251l-.08-.729a3.341,3.341,0,0,1-.757.262,3.82,3.82,0,0,1-.883.1,1.8,1.8,0,0,1-1.441-.564,2.658,2.658,0,0,1-.439-1.84h3.782a1.3,1.3,0,0,0,.023-.227v-.194h0m-.888-.228h-2.871a1.837,1.837,0,0,1,.5-1.062,1.366,1.366,0,0,1,1-.4,1.322,1.322,0,0,1,1.019.4,1.423,1.423,0,0,1,.348,1.058" fill="#fff"/>
    <path id="Контур_4689" data-name="Контур 4689" d="M1323.953,14497.931V14494a1.93,1.93,0,0,0-.438-1.407,1.664,1.664,0,0,0-1.232-.438,1.974,1.974,0,0,0-.76.137,2.181,2.181,0,0,0-.574.342,2.056,2.056,0,0,0-.4.438,2.314,2.314,0,0,0-.233.438,1.951,1.951,0,0,0-.08-.393,1.276,1.276,0,0,0-.24-.444,1.434,1.434,0,0,0-.48-.365,1.783,1.783,0,0,0-.789-.153,2.072,2.072,0,0,0-1.234.376,2.149,2.149,0,0,0-.765,1l-.023-.012a3.776,3.776,0,0,0,.074-.621c.011-.239.017-.449.017-.633h-.843v5.662h.854v-2.7a3.306,3.306,0,0,1,.131-.957,2.414,2.414,0,0,1,.365-.746,1.79,1.79,0,0,1,.541-.49,1.3,1.3,0,0,1,.661-.176,1.132,1.132,0,0,1,.524.107.752.752,0,0,1,.313.3,1.344,1.344,0,0,1,.148.449,3.465,3.465,0,0,1,.04.541v3.668h.854v-2.7a3.173,3.173,0,0,1,.142-.985,2.4,2.4,0,0,1,.38-.746,1.722,1.722,0,0,1,.539-.473,1.284,1.284,0,0,1,.629-.165,1.107,1.107,0,0,1,.505.1.784.784,0,0,1,.312.285,1.212,1.212,0,0,1,.159.444,3.434,3.434,0,0,1,.045.581v3.656h.855" fill="#fff"/>
    <path id="Контур_4690" data-name="Контур 4690" d="M1330.274,14494.5a3.137,3.137,0,0,0-.126-.894,2.013,2.013,0,0,0-.393-.746,1.873,1.873,0,0,0-.689-.507,2.683,2.683,0,0,0-2.056.033,2.234,2.234,0,0,0-.78.621,2.782,2.782,0,0,0-.484.939,4.025,4.025,0,0,0-.165,1.179,3.117,3.117,0,0,0,.666,2.2,2.559,2.559,0,0,0,1.954.706,5.243,5.243,0,0,0,1-.091,4.873,4.873,0,0,0,.866-.251l-.08-.729a3.351,3.351,0,0,1-.758.262,3.8,3.8,0,0,1-.882.1,1.794,1.794,0,0,1-1.441-.564,2.657,2.657,0,0,1-.439-1.84h3.782a1.293,1.293,0,0,0,.023-.227v-.194h0m-.889-.228h-2.87a1.837,1.837,0,0,1,.5-1.062,1.365,1.365,0,0,1,1-.4,1.322,1.322,0,0,1,1.02.4,1.422,1.422,0,0,1,.347,1.058" fill="#fff"/>
    <path id="Контур_4691" data-name="Контур 4691" d="M1336.458,14497.931v-3.953a2.8,2.8,0,0,0-.085-.705,1.579,1.579,0,0,0-.279-.581,1.3,1.3,0,0,0-.519-.394,2.031,2.031,0,0,0-.814-.143,2.086,2.086,0,0,0-1.27.382,2.2,2.2,0,0,0-.758,1l-.022-.012a5.935,5.935,0,0,0,.068-.621c.015-.239.023-.449.023-.633h-.843v5.662h.854v-2.723a3.366,3.366,0,0,1,.125-.934,2.34,2.34,0,0,1,.359-.746,1.74,1.74,0,0,1,.553-.49,1.414,1.414,0,0,1,.7-.176.9.9,0,0,1,.837.363,2.007,2.007,0,0,1,.222,1.037v3.668h.854" fill="#fff"/>
    <path id="Контур_4692" data-name="Контур 4692" d="M1341.356,14497.908v-.741a2.02,2.02,0,0,1-.382.071c-.141.014-.283.021-.427.021a1.291,1.291,0,0,1-.416-.057.513.513,0,0,1-.262-.2.961.961,0,0,1-.137-.392,4.15,4.15,0,0,1-.04-.625v-3.045h1.664v-.673h-1.664v-2.117l-.854.238v1.879h-1.23v.673h1.23v3.405a3.662,3.662,0,0,0,.068.759,1.193,1.193,0,0,0,.24.518,1,1,0,0,0,.45.3,2.206,2.206,0,0,0,.712.1c.174,0,.355-.011.541-.029a3.678,3.678,0,0,0,.507-.085" fill="#fff"/>
    <path id="Контур_4693" data-name="Контур 4693" d="M1182.631,14513.736v-8.316h-.854v2.644c-.2-.016-.378-.029-.545-.04s-.333-.018-.5-.018a3.215,3.215,0,0,0-1.192.211,2.526,2.526,0,0,0-.915.609,2.688,2.688,0,0,0-.585.991,4.113,4.113,0,0,0-.2,1.344,3.318,3.318,0,0,0,.511,1.959,1.8,1.8,0,0,0,1.568.718,2,2,0,0,0,1.192-.364,2.1,2.1,0,0,0,.75-.979l.024.011a4.309,4.309,0,0,0-.081.615c-.015.236-.023.44-.023.616h.854m-.854-2.929a3.249,3.249,0,0,1-.1.786,2.612,2.612,0,0,1-.311.752,1.866,1.866,0,0,1-.525.564,1.251,1.251,0,0,1-.735.222,1.12,1.12,0,0,1-1.029-.536,2.875,2.875,0,0,1-.328-1.5,2.671,2.671,0,0,1,.526-1.846,1.811,1.811,0,0,1,1.4-.569,4.716,4.716,0,0,1,1.108.138v1.992" fill="#fff"/>
    <path id="Контур_4694" data-name="Контур 4694" d="M1189.306,14513.736v-5.662h-.855v2.723a3.337,3.337,0,0,1-.125.935,2.3,2.3,0,0,1-.359.745,1.738,1.738,0,0,1-.552.49,1.417,1.417,0,0,1-.7.176.9.9,0,0,1-.837-.363,2,2,0,0,1-.222-1.037v-3.668h-.855v3.953a3.017,3.017,0,0,0,.08.706,1.475,1.475,0,0,0,.279.581,1.347,1.347,0,0,0,.524.393,2.041,2.041,0,0,0,.815.142,2.087,2.087,0,0,0,1.27-.381,2.2,2.2,0,0,0,.757-1l.023.012a5.943,5.943,0,0,0-.068.62c-.016.239-.023.45-.023.633h.843" fill="#fff"/>
    <path id="Контур_4695" data-name="Контур 4695" d="M1196.783,14513.713v-.741a1.932,1.932,0,0,1-.382.071c-.14.014-.283.021-.427.021a1.319,1.319,0,0,1-.416-.057.507.507,0,0,1-.262-.2.963.963,0,0,1-.136-.392,4.025,4.025,0,0,1-.04-.625v-3.045h1.663v-.672h-1.663v-2.119l-.855.24v1.879h-1.23v.672h1.23v3.406a3.58,3.58,0,0,0,.069.758,1.186,1.186,0,0,0,.239.518,1,1,0,0,0,.45.3,2.236,2.236,0,0,0,.712.1,5.177,5.177,0,0,0,.541-.029,3.536,3.536,0,0,0,.507-.085" fill="#fff"/>
    <path id="Контур_4696" data-name="Контур 4696" d="M1202.512,14510.307a3.137,3.137,0,0,0-.126-.894,2.013,2.013,0,0,0-.393-.746,1.874,1.874,0,0,0-.689-.507,2.435,2.435,0,0,0-1-.188,2.4,2.4,0,0,0-1.054.223,2.212,2.212,0,0,0-.78.621,2.768,2.768,0,0,0-.484.938,4.03,4.03,0,0,0-.165,1.179,3.117,3.117,0,0,0,.666,2.2,2.559,2.559,0,0,0,1.954.706,5.243,5.243,0,0,0,1-.091,4.876,4.876,0,0,0,.866-.251l-.08-.729a3.4,3.4,0,0,1-.758.263,3.857,3.857,0,0,1-.882.1,1.793,1.793,0,0,1-1.441-.563,2.66,2.66,0,0,1-.439-1.841h3.782a1.283,1.283,0,0,0,.023-.227v-.194h0m-.889-.228h-2.87a1.837,1.837,0,0,1,.5-1.062,1.365,1.365,0,0,1,1-.4,1.319,1.319,0,0,1,1.02.4,1.419,1.419,0,0,1,.347,1.057" fill="#fff"/>
    <path id="Контур_4697" data-name="Контур 4697" d="M1206.931,14507.972a1.839,1.839,0,0,0-.781.068,1.639,1.639,0,0,0-.581.336,1.9,1.9,0,0,0-.4.524,2.79,2.79,0,0,0-.239.608l-.012-.011q.057-.365.092-.752c.022-.258.034-.482.034-.672h-.843v5.662h.854v-2.268a3.96,3.96,0,0,1,.45-2.125,1.267,1.267,0,0,1,1.4-.528l.034-.844" fill="#fff"/>
    <path id="Контур_4698" data-name="Контур 4698" d="M1211.053,14507.972a1.834,1.834,0,0,0-.78.068,1.629,1.629,0,0,0-.581.336,1.906,1.906,0,0,0-.4.524,2.754,2.754,0,0,0-.239.608l-.012-.011c.038-.243.069-.494.091-.752s.034-.482.034-.672h-.842v5.662h.854v-2.268a3.959,3.959,0,0,1,.45-2.125,1.266,1.266,0,0,1,1.4-.528l.034-.844" fill="#fff"/>
    <path id="Контур_4699" data-name="Контур 4699" d="M1213.468,14506.468a.551.551,0,0,0-.177-.41.581.581,0,0,0-.416-.171.574.574,0,0,0-.421.171.56.56,0,0,0-.171.41.553.553,0,0,0,.171.416.581.581,0,0,0,.421.165.588.588,0,0,0,.416-.165.544.544,0,0,0,.177-.416h0m-.171,7.269v-5.662h-.855v5.662h.855" fill="#fff"/>
    <path id="Контур_4700" data-name="Контур 4700" d="M1218.194,14513.713v-.741a1.932,1.932,0,0,1-.382.071c-.14.014-.283.021-.427.021a1.323,1.323,0,0,1-.416-.057.507.507,0,0,1-.262-.2.961.961,0,0,1-.136-.392,4.009,4.009,0,0,1-.04-.625v-3.045h1.663v-.672h-1.663v-2.119l-.854.24v1.879h-1.231v.672h1.231v3.406a3.586,3.586,0,0,0,.068.758,1.186,1.186,0,0,0,.239.518,1,1,0,0,0,.45.3,2.236,2.236,0,0,0,.712.1,5.177,5.177,0,0,0,.541-.029,3.536,3.536,0,0,0,.507-.085" fill="#fff"/>
    <path id="Контур_4701" data-name="Контур 4701" d="M1224.413,14510.808a3.821,3.821,0,0,0-.2-1.315,2.342,2.342,0,0,0-.541-.877,2.057,2.057,0,0,0-.8-.49,3.036,3.036,0,0,0-.968-.153,2.67,2.67,0,0,0-1.139.233,2.5,2.5,0,0,0-.849.638,2.819,2.819,0,0,0-.53.946,3.569,3.569,0,0,0-.182,1.144,4.183,4.183,0,0,0,.177,1.287,2.429,2.429,0,0,0,.5.906,2,2,0,0,0,.786.535,2.852,2.852,0,0,0,1.031.177,2.629,2.629,0,0,0,1.127-.234,2.5,2.5,0,0,0,.855-.643,2.881,2.881,0,0,0,.541-.963,3.678,3.678,0,0,0,.188-1.19h0m-.889.058a3.194,3.194,0,0,1-.142,1.008,2.1,2.1,0,0,1-.376.7,1.461,1.461,0,0,1-.541.4,1.6,1.6,0,0,1-.638.132,1.535,1.535,0,0,1-1.282-.575,2.666,2.666,0,0,1-.45-1.669,2.891,2.891,0,0,1,.149-.98,2.023,2.023,0,0,1,.387-.677,1.524,1.524,0,0,1,.552-.4,1.664,1.664,0,0,1,.644-.131,1.481,1.481,0,0,1,1.276.575,2.687,2.687,0,0,1,.421,1.612" fill="#fff"/>
    <path id="Контур_4702" data-name="Контур 4702" d="M1227.055,14506.468a.551.551,0,0,0-.177-.41.581.581,0,0,0-.416-.171.574.574,0,0,0-.421.171.56.56,0,0,0-.171.41.553.553,0,0,0,.171.416.581.581,0,0,0,.421.165.588.588,0,0,0,.416-.165.544.544,0,0,0,.177-.416h0m-.171,7.269v-5.662h-.855v5.662h.855" fill="#fff"/>
    <path id="Контур_4703" data-name="Контур 4703" d="M1231.781,14507.972a1.834,1.834,0,0,0-.78.068,1.629,1.629,0,0,0-.581.336,1.9,1.9,0,0,0-.405.524,2.8,2.8,0,0,0-.239.608l-.011-.011q.057-.365.091-.752c.023-.258.034-.482.034-.672h-.843v5.662h.854v-2.268a3.96,3.96,0,0,1,.45-2.125,1.267,1.267,0,0,1,1.4-.528l.034-.844" fill="#fff"/>
    <path id="Контур_4704" data-name="Контур 4704" d="M1237.328,14510.307a3.137,3.137,0,0,0-.126-.894,2.012,2.012,0,0,0-.393-.746,1.873,1.873,0,0,0-.689-.507,2.435,2.435,0,0,0-1-.188,2.4,2.4,0,0,0-1.054.223,2.2,2.2,0,0,0-.78.621,2.768,2.768,0,0,0-.484.938,4.025,4.025,0,0,0-.165,1.179,3.117,3.117,0,0,0,.666,2.2,2.558,2.558,0,0,0,1.953.706,5.261,5.261,0,0,0,1-.091,4.875,4.875,0,0,0,.866-.251l-.08-.729a3.4,3.4,0,0,1-.758.263,3.86,3.86,0,0,1-.883.1,1.793,1.793,0,0,1-1.44-.563,2.661,2.661,0,0,1-.439-1.841h3.782a1.3,1.3,0,0,0,.023-.227v-.194h0m-.889-.228h-2.87a1.837,1.837,0,0,1,.5-1.062,1.366,1.366,0,0,1,1-.4,1.32,1.32,0,0,1,1.02.4,1.423,1.423,0,0,1,.347,1.057" fill="#fff"/>
  </g>
</svg>
