<?xml version="1.0" encoding="utf-8"?>
<!-- Generator: Adobe Illustrator 24.2.3, SVG Export Plug-In . SVG Version: 6.00 Build 0)  -->
<svg version="1.1" xmlns="http://www.w3.org/2000/svg" xmlns:xlink="http://www.w3.org/1999/xlink" x="0px" y="0px" width="129.2px"
	 height="50px" viewBox="0 0 129.2 50" style="enable-background:new 0 0 129.2 50;" xml:space="preserve">
<style type="text/css">
	.st0{fill:#FFFFFF;}
</style>
<g id="Calque_1">
</g>
<g id="Mode_Isolation">
	<g>
		<path class="st0" d="M3.6,20.6c0,0,3.5,2.9,5.2,0.2c0,0,0.6-0.9,0.7-1.9c0,0,0-0.9,0.9-1.4c0,0,0.1,1.3,1.3,1.9
			c0.1,0,0.2,0.1,0.3,0.1c0,0,0-0.1-0.2-0.2c-0.2-0.1-0.3-0.1-0.3-0.1c-0.3-0.2-0.6-0.6-0.6-0.8l0.8,0.4c0,0,0.6,0.2,0.6,1
			c0,0,0.1,0.6,0.4,1.1c0,0-2-0.2-3.1,2l-0.2-0.3c0,0,0,0.7-0.5,1c0,0-0.1-0.5-0.4-0.5c0,0-0.1,0.7-0.6,1.1c0,0,0.1-0.5-0.3-0.7
			c0,0-0.5,1-1.4,1c0,0,0.2-0.4,0.1-0.9c0,0-1,0.9-1.8,0.6c0,0,0.4-0.3,0.4-1c0,0-1.1,0.6-2.2-0.9c0,0,0.3,0.3,1.2-0.2
			C4,21.9,3.4,21.2,3.6,20.6"/>
		<path class="st0" d="M5.1,5.2c0,0,1.2,0.2,0.2,2.3c0,0-0.4,1.6,0.5,2.4c0,0,0.1,0.1,0.3,0.4c0,0-1.2,0.4-0.4,2.6
			c0,0-0.8-0.3-1.1-0.8c0,0,0.2-0.1,0.3-0.5c0,0-0.6,0.3-1.1-0.4l0.6-0.4c0,0-0.5,0-1.1-0.8L4,9.8c0,0-0.7-0.1-1-0.9h0.7
			c0,0-0.6-1-0.4-1.6c0,0,0.5,0.4,0.8,0.4c0,0,0.4-0.5-0.1-1.1c0,0-0.2-0.5,0.1-1.1c0,0,0,0.1,0.4,0.2c0,0,0.4,0,0.7,0.9l0.1-0.1
			C5.1,6.6,4.8,5.9,5.1,5.2"/>
		<path class="st0" d="M14.8,17.7l0.7-0.1c0,0,3.6-0.5,3.5-5.1c0,0-0.1-2.7-2.1-4c-0.2-0.1-0.5-0.3-0.8-0.4c-0.3-0.1-1-0.3-1.6,0.1
			c-0.2,0.1-0.4,0.4-0.5,0.6c-0.1,0.2-0.1,0.8,0.7,1.5L15,10c0,0-0.6-0.4-0.4-0.9c0.2-0.4,0.6-0.4,0.6-0.4c0.5,0,2.1,0.1,3,3.2
			c0,0,0.5,2.4-1.3,4.3c0,0,0.3-1.1-1-3.1c0,0-1.2-1.6,0.4-3.6l-0.5-0.3c0,0-2,2.4-0.4,4.4c0,0,1.3,1.6,0.8,2.6
			c-0.1,0.2-0.4,0.5-0.7,0.6c-0.3,0.1-1.1,0.3-1.1,0.3"/>
		<path class="st0" d="M16.7,8.2c0,0,0.9-1.1,3.6-1.4c0,0,0.2,0.8-1.3,1.2c0,0,0.1,0.3,1.4,0c0,0-0.5,1.2-2.1,0.6c0,0-0.7-0.2-1.1,0
			"/>
		<path class="st0" d="M10.6,3.2c0,0,0.5,0.3,0.5,1.2l2.4,0.9c0,0,0.3-0.7,1.2-1c0,0-0.1-0.2-0.7-0.1c0,0-0.1-0.2-0.5-0.3
			c0,0-0.1,0.2,0,0.6c0,0-0.4,0.2-0.4,0.3c0,0-0.1-0.3-0.2-0.5c0,0,0.5-0.1,0.5-0.5c0,0-0.2,0.1-0.3,0.1c0,0,0.4-0.5-0.1-0.8
			c0,0-0.3,0.2-0.4,0.7c0,0-0.3-0.2-0.4-0.2c0,0-0.1,0.2,0.1,0.6c0,0-0.1,0.2-0.4,0.2c0,0-0.3-0.1-0.4-0.4l0.2,0
			c0,0,0.2-0.1,0.3-0.2c0,0-0.2-0.1-0.4-0.1l0-0.1h0.1C11.4,3.6,11.5,3,10.6,3.2"/>
		<path class="st0" d="M10.4,14.9l-0.1-0.1c0.7-0.3,1-1.1,1-1.1c0.3-1.4,1-1.4,1-1.4l-0.1,0.1c-0.5,0.2-0.6,1.1-0.6,1.1
			C11.6,14.7,10.4,14.9,10.4,14.9 M9.7,15l-0.5,0.2L9,15.1l0,0l0.2-0.1c0.6-0.4,0.9-1.5,0.9-1.5c0.5-1.1,1.2-1.2,1.2-1.2l0.1,0.1
			l-0.1,0.1c-0.8,0.3-0.9,1.2-0.9,1.2C10.5,14.8,9.7,15,9.7,15 M11.3,5.9c0,0,0.1-0.1,0.1,0l0,0.1l-0.1,0c0,0-0.1,0-0.2,0.1
			c0,0-0.1,0.1-0.2-0.1L11.3,5.9 M18.8,24.6c-0.1-0.2-0.2-0.5-0.2-0.5l0.8,0c-0.7,0-0.8-1.2-0.8-1.2c-0.2-1,0.4-1.7,0.4-1.7
			c-2,0.1-2.5-1.2-2.5-1.2c-0.9-0.9-1.3-3.1-1.3-3.1s0-0.2-0.1-0.3c-0.1-0.2-0.1-0.2-0.3-0.4c-0.3-0.3-1.3-0.9-1.5-1
			c-0.6-0.4-0.9-0.9-0.9-0.9c-0.4,0.4-0.8,0.6-0.8,0.6l-0.1-0.2c1.9-1.2,1.2-3.1,1.2-3.1c0.1-0.4,0.4-0.9,0.4-0.9
			c1.3-1.8,0.4-4.4,0.4-4.4c0.4-0.6-0.1-0.7-0.1-0.7C13,5.5,13,5.8,13,5.8l-0.1,0l0-0.1l-1.4-0.5C11,4.9,10.8,5,10.8,5
			c0,0.3,0.1,0.4,0.1,0.4c0.1,0.1,0.2,0.1,0.2,0.1c0.5-0.1,0.7,0.2,0.7,0.2l-0.1,0.1c-0.1-0.2-0.3-0.2-0.3-0.2
			c-0.4,0-0.3,0.2-0.3,0.2c-0.1,0.2-0.2,0-0.2,0l-0.1-0.2C10.5,5.5,10.6,5,10.6,5C10,5,9.4,5.2,9.4,5.2C9.1,5.3,9.2,5.5,9.2,5.5
			l0.2,0.3L9.3,6.1C9.1,6.7,9.7,6.7,9.7,6.7h0.8c0.6,0.1,0.2,0.6,0.2,0.6c0,0.7-0.4,0.6-0.4,0.6c-0.6-0.4-0.9,0-0.9,0
			C9.3,8.2,9.7,8.2,9.7,8.2c0.8,0,0.3,0.6,0.3,0.6C9.8,9.3,9.3,9.2,9.3,9.2C8,9,7.7,9.7,7.7,9.7c-0.5,0.5-0.4,1.9-0.4,1.9
			c-0.4-0.9,0-1.8,0-1.8c-1.2,0.4-0.8,2.7-0.8,2.7c-0.6-1.2-0.2-1.9-0.2-1.9c-1.1,0.2-0.8,1.8-0.8,1.8l0.4,1l-1.1,0.6
			c-0.9,0.5-1.5,0.1-1.5,0.1C1.8,12.4,0,13.8,0,13.8c0.9,0.6,1.9,0.3,1.9,0.3C1.6,14.5,0.6,15,0.6,15c1.7,0.7,2.2-0.1,2.2-0.1
			C3.1,15.6,2.7,16,2.7,16c0.7,0.2,1.5-0.7,1.5-0.7C4.1,15.7,3.8,16,3.8,16c0.6,0,1.3-0.8,1.3-0.8c0.1,0.4-0.2,0.7-0.2,0.7
			C5.8,15.8,6.2,15,6.2,15c0,0.4-0.2,0.8-0.2,0.8c0.5-0.1,0.8-0.5,0.8-0.5c-0.9-0.7-0.7-1.2-0.7-1.2c0.3,1.1,1.3,1.3,1.3,1.3
			C8.2,15.3,8.7,14,8.7,14c0.6-1.3,1.4-1.1,1.4-1.1c-0.9,0.3-1,0.9-1,0.9c-0.3,1.3-0.8,1.5-0.8,1.5c0.2,0.5,1.3,0.8,1.3,0.8
			c0.3,0.1,0.7,0.4,0.9,0.5c1.8,0.9,2,2.6,2,2.6c0.3,1.7,1.6,2.1,1.6,2.1c2.7,0.9,2.5,2.7,2.5,2.7c-0.2,2.8-1.9,3.9-1.9,3.9l0.1,0
			c0.5,0.2,0.8,0,0.8,0c0.1,0.4,0,0.7,0,0.7c1.4-0.2,2.1-1.7,2.1-1.7c0.4,0.5,0.9,0.5,0.9,0.5c-0.4-0.6-0.3-1.8-0.3-1.8l0.6,0.4
			l-0.3-0.7l-0.1-0.4c0.2,0.2,0.6,0.4,0.6,0.4C19,25.1,18.9,24.9,18.8,24.6"/>
		<path class="st0" d="M10.5,17.4c0,0,0.7-0.4,1.1,0.4l0.4,0.7c0,0,0.2,0.3,0.2,0.4c0,0-0.1-0.3-0.7-0.5
			C11.5,18.5,10.6,18.1,10.5,17.4"/>
		<polyline class="st0" points="11.1,4.6 11.1,4.7 13,5.5 13.2,5.3 		"/>
		<path class="st0" d="M8.2,5.6c0,0,0.1,1.5,1.4,1.5c0,0,0.2-0.2,1,0.3l-0.1,0.2c0,0-0.3-0.4-0.9-0.2c0,0-0.9,0.3-1.4-0.1
			C8.2,7.2,7.3,6.4,8.2,5.6"/>
		<polyline class="st0" points="26,32.1 26.6,32.1 26.6,0 26,0 		"/>
		<polyline class="st0" points="33.5,10.7 33.5,7.2 34,7.2 34,10.3 35.3,10.3 35.3,10.7 33.5,10.7 		"/>
		<polyline class="st0" points="36.1,10.7 36.1,7.2 38,7.2 38,7.6 36.6,7.6 36.6,8.7 37.9,8.7 37.9,9.1 36.6,9.1 36.6,10.3 38,10.3 
			38,10.7 36.1,10.7 		"/>
		<path class="st0" d="M43.1,10.5c-0.2,0.1-0.4,0.1-0.6,0.2c-0.2,0-0.4,0.1-0.6,0.1c-0.3,0-0.5,0-0.7-0.1c-0.2-0.1-0.4-0.2-0.6-0.3
			c-0.2-0.1-0.3-0.3-0.4-0.5c-0.1-0.2-0.1-0.5-0.1-0.7c0-0.3,0-0.5,0.1-0.7c0.1-0.2,0.2-0.4,0.4-0.6c0.2-0.2,0.4-0.3,0.6-0.4
			c0.2-0.1,0.5-0.1,0.8-0.1c0.2,0,0.3,0,0.5,0c0.2,0,0.3,0.1,0.5,0.1L43,7.8c-0.2-0.1-0.3-0.1-0.5-0.1c-0.2,0-0.3-0.1-0.5-0.1
			c-0.2,0-0.3,0-0.5,0.1c-0.2,0.1-0.3,0.1-0.4,0.3c-0.1,0.1-0.2,0.3-0.3,0.4c-0.1,0.2-0.1,0.4-0.1,0.6c0,0.2,0,0.4,0.1,0.6
			c0.1,0.2,0.2,0.3,0.3,0.4c0.1,0.1,0.3,0.2,0.4,0.3c0.2,0.1,0.3,0.1,0.5,0.1c0.1,0,0.2,0,0.3,0c0.1,0,0.2,0,0.3-0.1V8.9h0.5
			L43.1,10.5L43.1,10.5"/>
		<path class="st0" d="M47.4,8.9c0,0.3,0,0.5-0.1,0.8c-0.1,0.2-0.2,0.4-0.4,0.6c-0.2,0.2-0.3,0.3-0.6,0.4c-0.2,0.1-0.4,0.1-0.7,0.1
			c-0.3,0-0.5,0-0.7-0.1c-0.2-0.1-0.4-0.2-0.5-0.4c-0.1-0.2-0.2-0.3-0.3-0.6C44.1,9.5,44,9.3,44,9c0-0.3,0-0.5,0.1-0.8
			c0.1-0.2,0.2-0.4,0.4-0.6c0.2-0.2,0.3-0.3,0.5-0.4c0.2-0.1,0.4-0.1,0.7-0.1c0.5,0,0.9,0.2,1.2,0.5C47.3,7.9,47.4,8.4,47.4,8.9
			L47.4,8.9 M46.9,9c0-0.5-0.1-0.8-0.3-1c-0.2-0.2-0.5-0.4-0.8-0.4c-0.2,0-0.3,0-0.4,0.1c-0.1,0.1-0.3,0.1-0.4,0.3
			c-0.1,0.1-0.2,0.3-0.3,0.4c-0.1,0.2-0.1,0.4-0.1,0.6c0,0.2,0,0.4,0.1,0.5c0,0.2,0.1,0.3,0.2,0.4c0.1,0.1,0.2,0.2,0.3,0.3
			c0.1,0.1,0.3,0.1,0.5,0.1c0.2,0,0.3,0,0.5-0.1c0.1-0.1,0.3-0.1,0.4-0.3c0.1-0.1,0.2-0.2,0.2-0.4C46.8,9.4,46.9,9.2,46.9,9"/>
		<path class="st0" d="M51.3,9.4c0,0.2,0,0.4-0.1,0.5c-0.1,0.2-0.1,0.3-0.3,0.4c-0.1,0.1-0.3,0.2-0.5,0.3c-0.2,0.1-0.4,0.1-0.7,0.1
			c-0.5,0-0.8-0.1-1.1-0.3c-0.2-0.2-0.4-0.5-0.4-0.9V7.2h0.5v2.2c0,0.3,0.1,0.5,0.3,0.7c0.2,0.1,0.4,0.2,0.7,0.2
			c0.4,0,0.6-0.1,0.7-0.3c0.1-0.2,0.2-0.4,0.2-0.7V7.2h0.5V9.4L51.3,9.4"/>
		<path class="st0" d="M53.9,10.7h-0.6L52,7.2h0.6l0.8,2.1c0.1,0.1,0.1,0.3,0.2,0.4c0,0.1,0.1,0.3,0.1,0.4h0c0-0.1,0.1-0.3,0.1-0.4
			c0-0.1,0.1-0.3,0.2-0.4l0.8-2.1h0.5L53.9,10.7"/>
		<polyline class="st0" points="56.1,10.7 56.1,7.2 57.9,7.2 57.9,7.6 56.6,7.6 56.6,8.7 57.9,8.7 57.9,9.1 56.6,9.1 56.6,10.3 
			57.9,10.3 57.9,10.7 56.1,10.7 		"/>
		<path class="st0" d="M60.8,10.7l-1.2-1.5h0v1.5h-0.5V7.2c0.1,0,0.2,0,0.4,0c0.2,0,0.3,0,0.6,0c0.4,0,0.7,0.1,0.9,0.2
			c0.2,0.2,0.3,0.4,0.3,0.7c0,0.2,0,0.3-0.1,0.4c-0.1,0.1-0.1,0.2-0.2,0.3C60.8,8.9,60.7,9,60.6,9c-0.1,0-0.3,0.1-0.4,0.1
			c0,0,0.1,0.1,0.2,0.2c0.1,0.1,0.1,0.1,0.2,0.2l1,1.2H60.8L60.8,10.7 M60.7,8.2c0-0.2-0.1-0.3-0.2-0.4c-0.1-0.1-0.3-0.1-0.6-0.1
			c-0.1,0-0.2,0-0.2,0s-0.1,0-0.2,0v1.2c0.1,0,0.1,0,0.2,0c0.1,0,0.1,0,0.2,0c0.2,0,0.4-0.1,0.6-0.2C60.6,8.5,60.7,8.4,60.7,8.2"/>
		<path class="st0" d="M64.7,10.7l-1.4-2.2c-0.1-0.1-0.1-0.2-0.2-0.4c-0.1-0.1-0.1-0.2-0.2-0.3h0c0,0.1,0,0.2,0,0.4
			c0,0.1,0,0.3,0,0.5l0,2h-0.5V7.2h0.7l1.4,2.1c0.2,0.2,0.3,0.5,0.4,0.7h0c0-0.1,0-0.3,0-0.5c0-0.2,0-0.4,0-0.7l0-1.6h0.5v3.5
			L64.7,10.7"/>
		<polyline class="st0" points="66.7,10.7 66.7,7.2 68.6,7.2 68.6,7.6 67.2,7.6 67.2,8.7 68.5,8.7 68.5,9.1 67.2,9.1 67.2,10.3 
			68.6,10.3 68.6,10.7 66.7,10.7 		"/>
		<path class="st0" d="M73.3,10.7l-0.3-2c0-0.2,0-0.4-0.1-0.5c0-0.1,0-0.3,0-0.4h0c0,0.1,0,0.2-0.1,0.3c0,0.1-0.1,0.2-0.1,0.3
			l-0.8,2.3h-0.6l-0.7-2.1c0-0.1-0.1-0.3-0.1-0.4c0-0.1-0.1-0.3-0.1-0.4h0c0,0.1,0,0.3,0,0.4c0,0.1,0,0.3-0.1,0.5l-0.3,2h-0.5
			l0.5-3.5h0.6l0.8,2.2c0,0.1,0.1,0.2,0.1,0.3c0,0.1,0.1,0.2,0.1,0.3h0c0-0.1,0.1-0.2,0.1-0.3c0-0.1,0.1-0.2,0.1-0.3l0.8-2.3h0.7
			l0.5,3.5L73.3,10.7"/>
		<polyline class="st0" points="75,10.7 75,7.2 76.9,7.2 76.9,7.6 75.5,7.6 75.5,8.7 76.8,8.7 76.8,9.1 75.5,9.1 75.5,10.3 
			76.9,10.3 76.9,10.7 75,10.7 		"/>
		<path class="st0" d="M80.3,10.7l-1.4-2.2c-0.1-0.1-0.1-0.2-0.2-0.4c-0.1-0.1-0.1-0.2-0.2-0.3h0c0,0.1,0,0.2,0,0.4
			c0,0.1,0,0.3,0,0.5l0,2H78V7.2h0.7l1.4,2.1c0.2,0.2,0.3,0.5,0.4,0.7h0c0-0.1,0-0.3,0-0.5c0-0.2,0-0.4,0-0.7l0-1.6H81v3.5
			L80.3,10.7"/>
		<polyline class="st0" points="83.3,7.7 83.3,10.7 82.8,10.7 82.8,7.7 81.7,7.7 81.7,7.2 84.3,7.2 84.3,7.7 83.3,7.7 		"/>
		<path class="st0" d="M36.5,16.1c0,0.3-0.1,0.6-0.2,0.8c-0.1,0.2-0.2,0.4-0.4,0.6c-0.2,0.1-0.4,0.3-0.6,0.3
			c-0.2,0.1-0.5,0.1-0.8,0.1c-0.2,0-0.4,0-0.5,0c-0.1,0-0.3,0-0.4,0v-3.5c0.1,0,0.3,0,0.5,0c0.2,0,0.4,0,0.6,0c0.3,0,0.6,0,0.8,0.1
			c0.2,0.1,0.4,0.2,0.6,0.3c0.2,0.1,0.3,0.3,0.4,0.5C36.4,15.5,36.5,15.8,36.5,16.1L36.5,16.1 M35.9,16.1c0-0.9-0.5-1.3-1.4-1.3
			c-0.1,0-0.2,0-0.3,0c-0.1,0-0.2,0-0.3,0v2.6c0.1,0,0.1,0,0.2,0c0.1,0,0.2,0,0.3,0c0.2,0,0.4,0,0.6-0.1c0.2-0.1,0.3-0.1,0.5-0.2
			c0.1-0.1,0.2-0.2,0.3-0.4C35.9,16.5,35.9,16.3,35.9,16.1"/>
		<path class="st0" d="M40.3,16.5c0,0.2,0,0.4-0.1,0.5c-0.1,0.2-0.1,0.3-0.3,0.4c-0.1,0.1-0.3,0.2-0.5,0.3c-0.2,0.1-0.4,0.1-0.7,0.1
			c-0.5,0-0.8-0.1-1.1-0.3c-0.2-0.2-0.4-0.5-0.4-0.9v-2.3h0.5v2.2c0,0.3,0.1,0.5,0.3,0.7c0.2,0.1,0.4,0.2,0.7,0.2
			c0.4,0,0.6-0.1,0.7-0.3c0.1-0.2,0.2-0.4,0.2-0.7v-2.1h0.5V16.5L40.3,16.5"/>
		<path class="st0" d="M45.7,17.7c-0.2,0.1-0.4,0.1-0.6,0.2c-0.2,0-0.4,0.1-0.6,0.1c-0.3,0-0.5,0-0.7-0.1c-0.2-0.1-0.4-0.2-0.6-0.3
			c-0.2-0.1-0.3-0.3-0.4-0.5c-0.1-0.2-0.1-0.5-0.1-0.7c0-0.3,0-0.5,0.1-0.7c0.1-0.2,0.2-0.4,0.4-0.6c0.2-0.2,0.4-0.3,0.6-0.4
			c0.2-0.1,0.5-0.1,0.8-0.1c0.2,0,0.3,0,0.5,0c0.2,0,0.3,0.1,0.5,0.1l-0.1,0.5c-0.2-0.1-0.3-0.1-0.5-0.1c-0.2,0-0.3-0.1-0.5-0.1
			c-0.2,0-0.3,0-0.5,0.1c-0.2,0.1-0.3,0.1-0.4,0.3s-0.2,0.3-0.3,0.4c-0.1,0.2-0.1,0.4-0.1,0.6c0,0.2,0,0.4,0.1,0.6
			c0.1,0.2,0.2,0.3,0.3,0.4c0.1,0.1,0.3,0.2,0.4,0.3c0.2,0.1,0.3,0.1,0.5,0.1c0.1,0,0.2,0,0.3,0c0.1,0,0.2,0,0.3-0.1v-1.3h0.5
			L45.7,17.7L45.7,17.7"/>
		<path class="st0" d="M48.7,17.8l-1.2-1.5h0v1.5h-0.5v-3.5c0.1,0,0.2,0,0.4,0s0.3,0,0.6,0c0.4,0,0.7,0.1,0.9,0.2
			c0.2,0.2,0.3,0.4,0.3,0.7c0,0.2,0,0.3-0.1,0.4c-0.1,0.1-0.1,0.2-0.2,0.3c-0.1,0.1-0.2,0.2-0.4,0.2c-0.1,0-0.3,0.1-0.4,0.1
			c0,0,0.1,0.1,0.2,0.2c0.1,0.1,0.1,0.1,0.2,0.2l1,1.2H48.7L48.7,17.8 M48.6,15.3c0-0.2-0.1-0.3-0.2-0.4c-0.1-0.1-0.3-0.1-0.6-0.1
			c-0.1,0-0.2,0-0.2,0c-0.1,0-0.1,0-0.2,0v1.2c0.1,0,0.1,0,0.2,0c0.1,0,0.1,0,0.2,0c0.2,0,0.4-0.1,0.6-0.2
			C48.5,15.7,48.6,15.5,48.6,15.3"/>
		<path class="st0" d="M52.5,17.8l-0.3-0.8h-1.6l-0.3,0.8h-0.5l1.4-3.5h0.6l1.3,3.5H52.5L52.5,17.8 M51.6,15.5
			c0-0.1-0.1-0.2-0.1-0.3c0-0.1-0.1-0.2-0.1-0.3h0c0,0.1-0.1,0.2-0.1,0.3c0,0.1-0.1,0.2-0.1,0.3l-0.5,1.2H52L51.6,15.5"/>
		<path class="st0" d="M56.1,17.8l-1.4-2.2c-0.1-0.1-0.1-0.2-0.2-0.4c-0.1-0.1-0.1-0.2-0.2-0.3h0c0,0.1,0,0.2,0,0.4
			c0,0.1,0,0.3,0,0.5l0,2h-0.5v-3.5h0.7l1.4,2.1c0.2,0.2,0.3,0.5,0.4,0.7h0c0-0.1,0-0.3,0-0.5c0-0.2,0-0.4,0-0.7l0-1.6h0.5v3.5
			L56.1,17.8"/>
		<path class="st0" d="M61.1,16.1c0,0.3-0.1,0.6-0.2,0.8c-0.1,0.2-0.2,0.4-0.4,0.6c-0.2,0.1-0.4,0.3-0.6,0.3
			c-0.2,0.1-0.5,0.1-0.8,0.1c-0.2,0-0.4,0-0.5,0c-0.1,0-0.3,0-0.4,0v-3.5c0.1,0,0.3,0,0.5,0c0.2,0,0.4,0,0.6,0c0.3,0,0.6,0,0.8,0.1
			c0.2,0.1,0.4,0.2,0.6,0.3c0.2,0.1,0.3,0.3,0.4,0.5S61.1,15.8,61.1,16.1L61.1,16.1 M60.6,16.1c0-0.9-0.5-1.3-1.4-1.3
			c-0.1,0-0.2,0-0.3,0c-0.1,0-0.2,0-0.3,0v2.6c0.1,0,0.1,0,0.2,0c0.1,0,0.2,0,0.3,0c0.2,0,0.4,0,0.6-0.1c0.2-0.1,0.3-0.1,0.5-0.2
			c0.1-0.1,0.2-0.2,0.3-0.4C60.5,16.5,60.6,16.3,60.6,16.1"/>
		<polyline class="st0" points="61.7,16.4 61.7,16 63.3,16 63.3,16.4 61.7,16.4 		"/>
		<path class="st0" d="M67.2,16.1c0,0.3-0.1,0.6-0.2,0.8c-0.1,0.2-0.2,0.4-0.4,0.6c-0.2,0.1-0.4,0.3-0.6,0.3
			c-0.2,0.1-0.5,0.1-0.8,0.1c-0.2,0-0.4,0-0.5,0c-0.1,0-0.3,0-0.4,0v-3.5c0.1,0,0.3,0,0.5,0c0.2,0,0.4,0,0.6,0c0.3,0,0.6,0,0.8,0.1
			c0.2,0.1,0.4,0.2,0.6,0.3c0.2,0.1,0.3,0.3,0.4,0.5C67.2,15.5,67.2,15.8,67.2,16.1L67.2,16.1 M66.7,16.1c0-0.9-0.5-1.3-1.4-1.3
			c-0.1,0-0.2,0-0.3,0c-0.1,0-0.2,0-0.3,0v2.6c0.1,0,0.1,0,0.2,0c0.1,0,0.2,0,0.3,0c0.2,0,0.4,0,0.6-0.1s0.3-0.1,0.5-0.2
			c0.1-0.1,0.2-0.2,0.3-0.4C66.6,16.5,66.7,16.3,66.7,16.1"/>
		<path class="st0" d="M71.1,16.5c0,0.2,0,0.4-0.1,0.5c-0.1,0.2-0.1,0.3-0.3,0.4c-0.1,0.1-0.3,0.2-0.5,0.3c-0.2,0.1-0.4,0.1-0.7,0.1
			c-0.5,0-0.8-0.1-1.1-0.3c-0.2-0.2-0.4-0.5-0.4-0.9v-2.3h0.5v2.2c0,0.3,0.1,0.5,0.3,0.7c0.2,0.1,0.4,0.2,0.7,0.2
			c0.4,0,0.6-0.1,0.7-0.3c0.1-0.2,0.2-0.4,0.2-0.7v-2.1h0.5V16.5L71.1,16.5"/>
		<path class="st0" d="M74.7,17.7c-0.1,0.1-0.3,0.1-0.5,0.1c-0.2,0-0.3,0-0.5,0c-0.6,0-1-0.2-1.3-0.5c-0.3-0.3-0.4-0.7-0.4-1.3
			c0-0.2,0-0.5,0.1-0.7c0.1-0.2,0.2-0.4,0.3-0.6c0.1-0.2,0.3-0.3,0.6-0.4c0.2-0.1,0.5-0.1,0.8-0.1c0.1,0,0.3,0,0.4,0
			c0.1,0,0.3,0,0.4,0.1l0,0.5c-0.3-0.1-0.6-0.1-0.8-0.1c-0.2,0-0.4,0-0.5,0.1c-0.2,0.1-0.3,0.2-0.4,0.3c-0.1,0.1-0.2,0.3-0.2,0.4
			c0,0.2-0.1,0.3-0.1,0.5c0,0.4,0.1,0.8,0.3,1c0.2,0.2,0.5,0.3,0.9,0.3c0.1,0,0.3,0,0.4,0c0.1,0,0.3-0.1,0.4-0.1L74.7,17.7
			L74.7,17.7"/>
		<polyline class="st0" points="78,17.8 78,16.3 76.2,16.3 76.2,17.8 75.7,17.8 75.7,14.4 76.2,14.4 76.2,15.8 78,15.8 78,14.4 
			78.5,14.4 78.5,17.8 78,17.8 		"/>
		<path class="st0" d="M79.9,17.8v-3.5h1.9v0.4h-1.4v1.1h1.3v0.4h-1.3v1.2h1.4v0.4H79.9L79.9,17.8 M80.6,14l-0.2-0.3l0.9-0.7
			l0.3,0.3L80.6,14"/>
		<path class="st0" d="M87.3,16.1c0,0.3-0.1,0.6-0.2,0.8c-0.1,0.2-0.2,0.4-0.4,0.6c-0.2,0.1-0.4,0.3-0.6,0.3
			c-0.2,0.1-0.5,0.1-0.8,0.1c-0.2,0-0.4,0-0.5,0c-0.1,0-0.3,0-0.4,0v-3.5c0.1,0,0.3,0,0.5,0c0.2,0,0.4,0,0.6,0c0.3,0,0.6,0,0.8,0.1
			c0.2,0.1,0.4,0.2,0.6,0.3c0.2,0.1,0.3,0.3,0.4,0.5S87.3,15.8,87.3,16.1L87.3,16.1 M86.7,16.1c0-0.9-0.5-1.3-1.4-1.3
			c-0.1,0-0.2,0-0.3,0s-0.2,0-0.3,0v2.6c0.1,0,0.1,0,0.2,0c0.1,0,0.2,0,0.3,0c0.2,0,0.4,0,0.6-0.1s0.3-0.1,0.5-0.2
			c0.1-0.1,0.2-0.2,0.3-0.4C86.7,16.5,86.7,16.3,86.7,16.1"/>
		<polyline class="st0" points="88.2,17.8 88.2,14.4 90.1,14.4 90.1,14.8 88.7,14.8 88.7,15.9 90.1,15.9 90.1,16.2 88.7,16.2 
			88.7,17.4 90.1,17.4 90.1,17.8 88.2,17.8 		"/>
		<polyline class="st0" points="92.6,17.8 92.6,14.4 93.2,14.4 93.2,17.4 94.4,17.4 94.4,17.8 92.6,17.8 		"/>
		<path class="st0" d="M98.2,16.5c0,0.2,0,0.4-0.1,0.5c-0.1,0.2-0.1,0.3-0.3,0.4c-0.1,0.1-0.3,0.2-0.5,0.3c-0.2,0.1-0.4,0.1-0.7,0.1
			c-0.5,0-0.8-0.1-1.1-0.3c-0.2-0.2-0.4-0.5-0.4-0.9v-2.3h0.5v2.2c0,0.3,0.1,0.5,0.3,0.7c0.2,0.1,0.4,0.2,0.7,0.2
			c0.4,0,0.6-0.1,0.7-0.3c0.1-0.2,0.2-0.4,0.2-0.7v-2.1h0.5V16.5L98.2,16.5"/>
		<polyline class="st0" points="101.6,17.8 100.6,16.4 99.6,17.8 99,17.8 100.4,16.1 99.1,14.4 99.7,14.4 100.7,15.7 101.7,14.4 
			102.3,14.4 101,16.1 102.3,17.8 101.6,17.8 		"/>
		<polyline class="st0" points="103.2,17.8 103.2,14.4 105.1,14.4 105.1,14.8 103.7,14.8 103.7,15.9 105.1,15.9 105.1,16.2 
			103.7,16.2 103.7,17.4 105.1,17.4 105.1,17.8 103.2,17.8 		"/>
		<path class="st0" d="M109.8,17.8l-0.3-2c0-0.2,0-0.4-0.1-0.5c0-0.1,0-0.3,0-0.4h0c0,0.1,0,0.2-0.1,0.3c0,0.1-0.1,0.2-0.1,0.3
			l-0.8,2.3h-0.6l-0.7-2.1c0-0.1-0.1-0.3-0.1-0.4c0-0.1-0.1-0.3-0.1-0.4h0c0,0.1,0,0.3,0,0.4c0,0.1,0,0.3-0.1,0.5l-0.3,2h-0.5
			l0.5-3.5h0.6l0.8,2.2c0,0.1,0.1,0.2,0.1,0.3c0,0.1,0.1,0.2,0.1,0.3h0c0-0.1,0.1-0.2,0.1-0.3c0-0.1,0.1-0.2,0.1-0.3l0.8-2.3h0.7
			l0.5,3.5L109.8,17.8"/>
		<path class="st0" d="M113.9,16.8c0,0.1,0,0.2-0.1,0.3c0,0.1-0.1,0.2-0.2,0.3c-0.1,0.1-0.2,0.2-0.4,0.3c-0.2,0.1-0.4,0.1-0.7,0.1
			c-0.1,0-0.2,0-0.4,0c-0.2,0-0.3,0-0.5,0v-3.5c0.1,0,0.3,0,0.5,0s0.4,0,0.6,0c0.4,0,0.7,0.1,0.9,0.2c0.2,0.2,0.3,0.4,0.3,0.6
			c0,0.2-0.1,0.3-0.2,0.5c-0.1,0.1-0.3,0.2-0.5,0.3v0c0.2,0,0.4,0.1,0.5,0.3C113.8,16.4,113.9,16.6,113.9,16.8L113.9,16.8
			 M113.3,15.3c0-0.2-0.1-0.3-0.2-0.4c-0.1-0.1-0.3-0.1-0.6-0.1c-0.1,0-0.2,0-0.3,0c-0.1,0-0.2,0-0.2,0v1.1c0.1,0,0.1,0,0.2,0
			s0.1,0,0.1,0c0.3,0,0.5,0,0.7-0.1C113.2,15.6,113.3,15.5,113.3,15.3L113.3,15.3 M113.4,16.8c0-0.1,0-0.2-0.1-0.3
			c0-0.1-0.1-0.1-0.2-0.2c-0.1,0-0.2-0.1-0.3-0.1c-0.1,0-0.2,0-0.4,0c0,0-0.1,0-0.2,0s-0.1,0-0.2,0v1.2c0,0,0.1,0,0.2,0
			c0.1,0,0.2,0,0.3,0c0.3,0,0.5-0.1,0.6-0.2C113.3,17.2,113.4,17,113.4,16.8"/>
		<path class="st0" d="M118,16.1c0,0.3,0,0.5-0.1,0.8c-0.1,0.2-0.2,0.4-0.4,0.6c-0.2,0.2-0.3,0.3-0.6,0.4c-0.2,0.1-0.4,0.1-0.7,0.1
			c-0.3,0-0.5,0-0.7-0.1c-0.2-0.1-0.4-0.2-0.5-0.4c-0.1-0.2-0.2-0.3-0.3-0.6c-0.1-0.2-0.1-0.4-0.1-0.7c0-0.3,0-0.5,0.1-0.8
			c0.1-0.2,0.2-0.4,0.4-0.6c0.2-0.2,0.3-0.3,0.5-0.4c0.2-0.1,0.4-0.1,0.7-0.1c0.5,0,0.9,0.2,1.2,0.5S118,15.5,118,16.1L118,16.1
			 M117.5,16.1c0-0.5-0.1-0.8-0.3-1c-0.2-0.2-0.5-0.4-0.8-0.4c-0.2,0-0.3,0-0.4,0.1c-0.1,0.1-0.3,0.1-0.4,0.3
			c-0.1,0.1-0.2,0.3-0.3,0.4s-0.1,0.4-0.1,0.6c0,0.2,0,0.4,0.1,0.5c0,0.2,0.1,0.3,0.2,0.4c0.1,0.1,0.2,0.2,0.3,0.3
			c0.1,0.1,0.3,0.1,0.5,0.1c0.2,0,0.3,0,0.5-0.1c0.1-0.1,0.3-0.1,0.4-0.3c0.1-0.1,0.2-0.2,0.2-0.4C117.4,16.5,117.5,16.3,117.5,16.1
			"/>
		<path class="st0" d="M121.9,16.5c0,0.2,0,0.4-0.1,0.5c-0.1,0.2-0.1,0.3-0.3,0.4c-0.1,0.1-0.3,0.2-0.5,0.3
			c-0.2,0.1-0.4,0.1-0.7,0.1c-0.5,0-0.8-0.1-1.1-0.3c-0.2-0.2-0.4-0.5-0.4-0.9v-2.3h0.5v2.2c0,0.3,0.1,0.5,0.3,0.7
			c0.2,0.1,0.4,0.2,0.7,0.2c0.4,0,0.6-0.1,0.7-0.3c0.1-0.2,0.2-0.4,0.2-0.7v-2.1h0.5V16.5L121.9,16.5"/>
		<path class="st0" d="M125,17.8l-1.2-1.5h0v1.5h-0.5v-3.5c0.1,0,0.2,0,0.4,0c0.2,0,0.3,0,0.6,0c0.4,0,0.7,0.1,0.9,0.2
			c0.2,0.2,0.3,0.4,0.3,0.7c0,0.2,0,0.3-0.1,0.4c-0.1,0.1-0.1,0.2-0.2,0.3c-0.1,0.1-0.2,0.2-0.4,0.2c-0.1,0-0.3,0.1-0.4,0.1
			c0,0,0.1,0.1,0.2,0.2c0.1,0.1,0.1,0.1,0.2,0.2l1,1.2H125L125,17.8 M124.9,15.3c0-0.2-0.1-0.3-0.2-0.4c-0.1-0.1-0.3-0.1-0.6-0.1
			c-0.1,0-0.2,0-0.2,0c-0.1,0-0.1,0-0.2,0v1.2c0.1,0,0.1,0,0.2,0c0.1,0,0.1,0,0.2,0c0.2,0,0.4-0.1,0.6-0.2
			C124.8,15.7,124.9,15.5,124.9,15.3"/>
		<path class="st0" d="M129.2,17.7c-0.2,0.1-0.4,0.1-0.6,0.2c-0.2,0-0.4,0.1-0.6,0.1c-0.3,0-0.5,0-0.7-0.1c-0.2-0.1-0.4-0.2-0.6-0.3
			c-0.2-0.1-0.3-0.3-0.4-0.5s-0.1-0.5-0.1-0.7c0-0.3,0-0.5,0.1-0.7c0.1-0.2,0.2-0.4,0.4-0.6c0.2-0.2,0.4-0.3,0.6-0.4
			c0.2-0.1,0.5-0.1,0.8-0.1c0.2,0,0.3,0,0.5,0c0.2,0,0.3,0.1,0.5,0.1l-0.1,0.5c-0.2-0.1-0.3-0.1-0.5-0.1c-0.2,0-0.3-0.1-0.5-0.1
			c-0.2,0-0.3,0-0.5,0.1c-0.2,0.1-0.3,0.1-0.4,0.3c-0.1,0.1-0.2,0.3-0.3,0.4c-0.1,0.2-0.1,0.4-0.1,0.6c0,0.2,0,0.4,0.1,0.6
			c0.1,0.2,0.2,0.3,0.3,0.4c0.1,0.1,0.3,0.2,0.4,0.3c0.2,0.1,0.3,0.1,0.5,0.1c0.1,0,0.2,0,0.3,0c0.1,0,0.2,0,0.3-0.1v-1.3h0.5V17.7
			L129.2,17.7"/>
		<path class="st0" d="M37.3,25l-0.5-3.5h-0.5l-0.8,2.4c0,0.1-0.1,0.2-0.1,0.3c0,0.1-0.1,0.2-0.1,0.3h0c0-0.1,0-0.2-0.1-0.3
			c0-0.1-0.1-0.2-0.1-0.4l-0.8-2.3h-0.5L33.3,25h0.4l0.3-2.1c0-0.2,0-0.3,0.1-0.5c0-0.1,0-0.3,0-0.4h0c0,0.1,0.1,0.2,0.1,0.4
			c0,0.1,0.1,0.3,0.1,0.4l0.8,2.3h0.4l0.8-2.4c0-0.1,0.1-0.2,0.1-0.3c0-0.1,0-0.2,0.1-0.3h0c0,0.1,0,0.2,0,0.3c0,0.1,0,0.3,0.1,0.5
			l0.3,2.1L37.3,25"/>
		<path class="st0" d="M38.6,21.7c0-0.1,0-0.1-0.1-0.2c-0.1-0.1-0.1-0.1-0.2-0.1c-0.1,0-0.1,0-0.2,0.1c-0.1,0.1-0.1,0.1-0.1,0.2
			c0,0.1,0,0.1,0.1,0.2c0.1,0,0.1,0.1,0.2,0.1c0.1,0,0.1,0,0.2-0.1C38.6,21.8,38.6,21.8,38.6,21.7L38.6,21.7 M38.5,25v-2.6h-0.4V25
			H38.5"/>
		<path class="st0" d="M41.5,25v-1.8c0-0.1,0-0.2,0-0.3c0-0.1-0.1-0.2-0.1-0.3c-0.1-0.1-0.1-0.1-0.2-0.2c-0.1,0-0.2-0.1-0.4-0.1
			c-0.2,0-0.4,0.1-0.6,0.2c-0.2,0.1-0.3,0.3-0.3,0.4l0,0c0-0.1,0-0.2,0-0.3c0-0.1,0-0.2,0-0.3h-0.4V25h0.4v-1.2c0-0.2,0-0.3,0.1-0.4
			c0-0.1,0.1-0.2,0.2-0.3c0.1-0.1,0.2-0.2,0.2-0.2c0.1-0.1,0.2-0.1,0.3-0.1c0.2,0,0.3,0.1,0.4,0.2c0.1,0.1,0.1,0.3,0.1,0.5V25
			L41.5,25"/>
		<path class="st0" d="M43,21.7c0-0.1,0-0.1-0.1-0.2c-0.1-0.1-0.1-0.1-0.2-0.1c-0.1,0-0.1,0-0.2,0.1c-0.1,0.1-0.1,0.1-0.1,0.2
			c0,0.1,0,0.1,0.1,0.2c0.1,0,0.1,0.1,0.2,0.1c0.1,0,0.1,0,0.2-0.1C42.9,21.8,43,21.8,43,21.7L43,21.7 M42.9,25v-2.6h-0.4V25H42.9"
			/>
		<path class="st0" d="M45.3,24.2c0-0.1,0-0.3-0.1-0.3c-0.1-0.1-0.1-0.2-0.2-0.2c-0.1,0-0.2-0.1-0.3-0.1c-0.1,0-0.2-0.1-0.3-0.1
			c-0.1,0-0.2-0.1-0.2-0.1c-0.1-0.1-0.1-0.1-0.1-0.2c0-0.1,0-0.2,0.1-0.3c0.1-0.1,0.2-0.1,0.4-0.1c0.2,0,0.4,0,0.5,0.1l0-0.3
			c-0.1,0-0.2,0-0.2,0c-0.1,0-0.2,0-0.2,0c-0.2,0-0.3,0-0.4,0.1c-0.1,0-0.2,0.1-0.3,0.2c-0.1,0.1-0.1,0.1-0.2,0.2
			c0,0.1-0.1,0.2-0.1,0.3c0,0.2,0,0.3,0.1,0.4c0.1,0.1,0.1,0.2,0.2,0.2c0.1,0,0.2,0.1,0.3,0.1c0.1,0,0.2,0.1,0.3,0.1
			c0.1,0,0.2,0.1,0.2,0.1c0.1,0.1,0.1,0.1,0.1,0.2c0,0.1-0.1,0.2-0.2,0.3c-0.1,0.1-0.3,0.1-0.5,0.1c-0.1,0-0.2,0-0.3,0
			c-0.1,0-0.2,0-0.3-0.1l0,0.4c0.1,0,0.2,0,0.3,0c0.1,0,0.2,0,0.3,0c0.2,0,0.3,0,0.4-0.1c0.1,0,0.2-0.1,0.3-0.2s0.2-0.2,0.2-0.3
			C45.3,24.4,45.3,24.3,45.3,24.2"/>
		<path class="st0" d="M47.3,25v-0.3c-0.1,0-0.1,0-0.2,0c-0.1,0-0.1,0-0.2,0c-0.1,0-0.1,0-0.2,0c0,0-0.1,0-0.1-0.1
			c0,0,0-0.1-0.1-0.2c0-0.1,0-0.2,0-0.3v-1.4h0.8v-0.3h-0.8v-1l-0.4,0.1v0.8h-0.6v0.3h0.6v1.5c0,0.1,0,0.2,0,0.3
			c0,0.1,0.1,0.2,0.1,0.2c0.1,0.1,0.1,0.1,0.2,0.1c0.1,0,0.2,0,0.3,0c0.1,0,0.2,0,0.2,0C47.2,25,47.3,25,47.3,25"/>
		<path class="st0" d="M49.9,23.4c0-0.1,0-0.3-0.1-0.4c0-0.1-0.1-0.2-0.2-0.3c-0.1-0.1-0.2-0.2-0.3-0.2c-0.1-0.1-0.3-0.1-0.5-0.1
			c-0.2,0-0.3,0-0.5,0.1c-0.1,0.1-0.3,0.2-0.4,0.3c-0.1,0.1-0.2,0.3-0.2,0.4c0,0.2-0.1,0.3-0.1,0.5c0,0.4,0.1,0.8,0.3,1
			c0.2,0.2,0.5,0.3,0.9,0.3c0.2,0,0.3,0,0.5,0c0.1,0,0.3-0.1,0.4-0.1l0-0.3c-0.1,0-0.2,0.1-0.3,0.1c-0.1,0-0.3,0-0.4,0
			c-0.3,0-0.5-0.1-0.7-0.3c-0.1-0.2-0.2-0.4-0.2-0.8h1.7C49.9,23.6,49.9,23.5,49.9,23.4C49.9,23.5,49.9,23.4,49.9,23.4L49.9,23.4
			 M49.5,23.3h-1.3c0-0.2,0.1-0.4,0.2-0.5c0.1-0.1,0.3-0.2,0.5-0.2c0.2,0,0.3,0.1,0.5,0.2C49.5,23,49.5,23.1,49.5,23.3L49.5,23.3
			 M49.2,21.8l-0.7-0.6l-0.2,0.3L49,22L49.2,21.8"/>
		<path class="st0" d="M51.9,22.4c-0.1,0-0.3,0-0.4,0c-0.1,0-0.2,0.1-0.3,0.2c-0.1,0.1-0.1,0.1-0.2,0.2c0,0.1-0.1,0.2-0.1,0.3l0,0
			c0-0.1,0-0.2,0-0.3c0-0.1,0-0.2,0-0.3h-0.4V25h0.4v-1c0-0.4,0.1-0.8,0.2-1c0.1-0.2,0.3-0.3,0.6-0.2L51.9,22.4"/>
		<path class="st0" d="M54.4,23.4c0-0.1,0-0.3-0.1-0.4c0-0.1-0.1-0.2-0.2-0.3c-0.1-0.1-0.2-0.2-0.3-0.2c-0.1-0.1-0.3-0.1-0.5-0.1
			c-0.2,0-0.3,0-0.5,0.1c-0.1,0.1-0.3,0.2-0.4,0.3c-0.1,0.1-0.2,0.3-0.2,0.4c0,0.2-0.1,0.3-0.1,0.5c0,0.4,0.1,0.8,0.3,1
			c0.2,0.2,0.5,0.3,0.9,0.3c0.2,0,0.3,0,0.5,0c0.1,0,0.3-0.1,0.4-0.1l0-0.3c-0.1,0-0.2,0.1-0.3,0.1c-0.1,0-0.3,0-0.4,0
			c-0.3,0-0.5-0.1-0.7-0.3c-0.1-0.2-0.2-0.4-0.2-0.8h1.7C54.4,23.6,54.4,23.5,54.4,23.4C54.4,23.5,54.4,23.4,54.4,23.4L54.4,23.4
			 M54,23.3h-1.3c0-0.2,0.1-0.4,0.2-0.5c0.1-0.1,0.3-0.2,0.5-0.2c0.2,0,0.3,0.1,0.5,0.2C54,23,54,23.1,54,23.3"/>
		<path class="st0" d="M58.3,25v-3.8h-0.4v1.2c-0.1,0-0.2,0-0.2,0c-0.1,0-0.2,0-0.2,0c-0.2,0-0.4,0-0.5,0.1
			c-0.2,0.1-0.3,0.2-0.4,0.3c-0.1,0.1-0.2,0.3-0.3,0.4c-0.1,0.2-0.1,0.4-0.1,0.6c0,0.4,0.1,0.7,0.2,0.9c0.2,0.2,0.4,0.3,0.7,0.3
			c0.2,0,0.4-0.1,0.5-0.2c0.2-0.1,0.3-0.3,0.3-0.4l0,0c0,0.1,0,0.2,0,0.3c0,0.1,0,0.2,0,0.3H58.3L58.3,25 M57.9,23.6
			c0,0.1,0,0.2,0,0.4c0,0.1-0.1,0.2-0.1,0.3c-0.1,0.1-0.1,0.2-0.2,0.3c-0.1,0.1-0.2,0.1-0.3,0.1c-0.2,0-0.4-0.1-0.5-0.2
			c-0.1-0.2-0.1-0.4-0.1-0.7c0-0.4,0.1-0.7,0.2-0.8c0.2-0.2,0.4-0.3,0.6-0.3c0.2,0,0.3,0,0.5,0.1L57.9,23.6"/>
		<path class="st0" d="M61.1,23.4c0-0.1,0-0.3-0.1-0.4c0-0.1-0.1-0.2-0.2-0.3c-0.1-0.1-0.2-0.2-0.3-0.2c-0.1-0.1-0.3-0.1-0.5-0.1
			c-0.2,0-0.3,0-0.5,0.1c-0.1,0.1-0.3,0.2-0.4,0.3c-0.1,0.1-0.2,0.3-0.2,0.4c0,0.2-0.1,0.3-0.1,0.5c0,0.4,0.1,0.8,0.3,1
			c0.2,0.2,0.5,0.3,0.9,0.3c0.2,0,0.3,0,0.5,0s0.3-0.1,0.4-0.1l0-0.3c-0.1,0-0.2,0.1-0.3,0.1c-0.1,0-0.3,0-0.4,0
			c-0.3,0-0.5-0.1-0.7-0.3c-0.1-0.2-0.2-0.4-0.2-0.8h1.7C61.1,23.6,61.1,23.5,61.1,23.4C61.1,23.5,61.1,23.4,61.1,23.4L61.1,23.4
			 M60.7,23.3h-1.3c0-0.2,0.1-0.4,0.2-0.5c0.1-0.1,0.3-0.2,0.5-0.2c0.2,0,0.3,0.1,0.5,0.2C60.7,23,60.7,23.1,60.7,23.3"/>
		<polyline class="st0" points="63.4,25 63.4,21.2 63,21.2 63,25 63.4,25 		"/>
		<path class="st0" d="M64.3,22.4c0.2-0.2,0.3-0.3,0.4-0.5c0.1-0.2,0.1-0.3,0.1-0.4s0-0.2-0.1-0.3c-0.1-0.1-0.1-0.1-0.2-0.1
			c-0.1,0-0.1,0-0.1,0c0,0-0.1,0.1-0.1,0.1c0,0,0,0.1,0,0.1c0,0,0,0.1,0.1,0.1c0,0,0,0.1,0.1,0.1c0,0,0,0.1,0,0.2
			c0,0.1,0,0.1-0.1,0.2c0,0.1-0.1,0.2-0.2,0.2L64.3,22.4"/>
		<path class="st0" d="M67.4,25v-0.3H66v-1.3h1.3V23H66v-1.2h1.4v-0.3h-1.7V25L67.4,25L67.4,25 M67.1,20.7l-0.2-0.3L66.2,21l0.2,0.2
			L67.1,20.7"/>
		<path class="st0" d="M70.3,25v-1.8c0-0.1,0-0.2,0-0.3c0-0.1-0.1-0.2-0.1-0.3c-0.1-0.1-0.1-0.1-0.2-0.2c-0.1,0-0.2-0.1-0.4-0.1
			c-0.2,0-0.4,0.1-0.6,0.2c-0.2,0.1-0.3,0.3-0.3,0.4l0,0c0-0.1,0-0.2,0-0.3c0-0.1,0-0.2,0-0.3h-0.4V25h0.4v-1.2c0-0.2,0-0.3,0.1-0.4
			c0-0.1,0.1-0.2,0.2-0.3c0.1-0.1,0.2-0.2,0.2-0.2c0.1-0.1,0.2-0.1,0.3-0.1c0.2,0,0.3,0.1,0.4,0.2c0.1,0.1,0.1,0.3,0.1,0.5V25
			L70.3,25"/>
		<path class="st0" d="M73.2,23.4c0-0.1,0-0.3-0.1-0.4c0-0.1-0.1-0.2-0.2-0.3c-0.1-0.1-0.2-0.2-0.3-0.2c-0.1-0.1-0.3-0.1-0.5-0.1
			c-0.2,0-0.3,0-0.5,0.1c-0.1,0.1-0.3,0.2-0.4,0.3c-0.1,0.1-0.2,0.3-0.2,0.4c0,0.2-0.1,0.3-0.1,0.5c0,0.4,0.1,0.8,0.3,1
			c0.2,0.2,0.5,0.3,0.9,0.3c0.2,0,0.3,0,0.5,0c0.1,0,0.3-0.1,0.4-0.1l0-0.3c-0.1,0-0.2,0.1-0.3,0.1c-0.1,0-0.3,0-0.4,0
			c-0.3,0-0.5-0.1-0.7-0.3c-0.1-0.2-0.2-0.4-0.2-0.8h1.7C73.2,23.6,73.2,23.5,73.2,23.4C73.2,23.5,73.2,23.4,73.2,23.4L73.2,23.4
			 M72.8,23.3h-1.3c0-0.2,0.1-0.4,0.2-0.5c0.1-0.1,0.3-0.2,0.5-0.2c0.2,0,0.3,0.1,0.5,0.2C72.7,23,72.8,23.1,72.8,23.3"/>
		<path class="st0" d="M75.2,22.4c-0.1,0-0.3,0-0.4,0c-0.1,0-0.2,0.1-0.3,0.2c-0.1,0.1-0.1,0.1-0.2,0.2c0,0.1-0.1,0.2-0.1,0.3l0,0
			c0-0.1,0-0.2,0-0.3c0-0.1,0-0.2,0-0.3h-0.4V25h0.4v-1c0-0.4,0.1-0.8,0.2-1c0.1-0.2,0.3-0.3,0.6-0.2L75.2,22.4"/>
		<path class="st0" d="M78,25.4c0-0.2-0.1-0.4-0.2-0.5c-0.1-0.1-0.4-0.2-0.6-0.2h-0.5c-0.2,0-0.3,0-0.4-0.1s-0.1-0.1-0.1-0.2
			c0,0,0-0.1,0-0.1c0,0,0.1-0.1,0.1-0.1c0,0,0.1,0,0.2,0c0.1,0,0.1,0,0.2,0c0.2,0,0.3,0,0.5-0.1c0.1,0,0.3-0.1,0.3-0.2
			c0.1-0.1,0.2-0.2,0.2-0.3c0-0.1,0.1-0.2,0.1-0.4c0-0.1,0-0.2-0.1-0.3c0-0.1-0.1-0.2-0.2-0.2H78v-0.3h-0.9c-0.1,0-0.1,0-0.2,0
			c-0.1,0-0.1,0-0.2,0c-0.2,0-0.3,0-0.5,0.1c-0.1,0.1-0.3,0.1-0.3,0.2c-0.1,0.1-0.2,0.2-0.2,0.3c-0.1,0.1-0.1,0.2-0.1,0.4
			c0,0.2,0,0.3,0.1,0.4c0.1,0.1,0.2,0.2,0.3,0.3c-0.1,0-0.2,0.1-0.2,0.2c0,0.1-0.1,0.2-0.1,0.2c0,0.1,0,0.2,0.1,0.2
			c0,0.1,0.1,0.1,0.2,0.2c-0.1,0.1-0.2,0.1-0.3,0.3c-0.1,0.1-0.1,0.3-0.1,0.4c0,0.2,0.1,0.4,0.3,0.6c0.2,0.1,0.5,0.2,0.8,0.2
			c0.2,0,0.4,0,0.5-0.1c0.2,0,0.3-0.1,0.4-0.2c0.1-0.1,0.2-0.2,0.3-0.3C77.9,25.6,78,25.5,78,25.4L78,25.4 M77.4,23.3
			c0,0.2-0.1,0.4-0.2,0.5c-0.1,0.1-0.3,0.2-0.5,0.2c-0.2,0-0.4-0.1-0.5-0.2c-0.1-0.1-0.2-0.3-0.2-0.5c0-0.2,0.1-0.3,0.2-0.5
			c0.1-0.1,0.3-0.2,0.5-0.2c0.2,0,0.4,0.1,0.5,0.2C77.3,22.9,77.4,23.1,77.4,23.3L77.4,23.3 M77.6,25.4c0,0.2-0.1,0.3-0.2,0.4
			C77.2,25.9,77,26,76.7,26c-0.1,0-0.2,0-0.3,0c-0.1,0-0.2-0.1-0.2-0.1c-0.1,0-0.1-0.1-0.2-0.2c0-0.1-0.1-0.1-0.1-0.2
			c0-0.1,0-0.2,0.1-0.3c0.1-0.1,0.2-0.2,0.3-0.2c0,0,0,0,0.1,0c0,0,0.1,0,0.1,0H77c0.2,0,0.3,0,0.4,0.1
			C77.5,25.2,77.6,25.3,77.6,25.4"/>
		<path class="st0" d="M79.2,21.7c0-0.1,0-0.1-0.1-0.2c-0.1-0.1-0.1-0.1-0.2-0.1c-0.1,0-0.1,0-0.2,0.1c-0.1,0.1-0.1,0.1-0.1,0.2
			c0,0.1,0,0.1,0.1,0.2c0.1,0,0.1,0.1,0.2,0.1c0.1,0,0.1,0,0.2-0.1C79.1,21.8,79.2,21.8,79.2,21.7L79.2,21.7 M79.1,25v-2.6h-0.4V25
			H79.1"/>
		<path class="st0" d="M81.9,23.4c0-0.1,0-0.3-0.1-0.4c0-0.1-0.1-0.2-0.2-0.3c-0.1-0.1-0.2-0.2-0.3-0.2c-0.1-0.1-0.3-0.1-0.5-0.1
			c-0.2,0-0.3,0-0.5,0.1c-0.1,0.1-0.3,0.2-0.4,0.3c-0.1,0.1-0.2,0.3-0.2,0.4c0,0.2-0.1,0.3-0.1,0.5c0,0.4,0.1,0.8,0.3,1
			c0.2,0.2,0.5,0.3,0.9,0.3c0.2,0,0.3,0,0.5,0c0.1,0,0.3-0.1,0.4-0.1l0-0.3c-0.1,0-0.2,0.1-0.3,0.1c-0.1,0-0.3,0-0.4,0
			c-0.3,0-0.5-0.1-0.7-0.3c-0.1-0.2-0.2-0.4-0.2-0.8h1.7C81.9,23.6,81.9,23.5,81.9,23.4C81.9,23.5,81.9,23.4,81.9,23.4L81.9,23.4
			 M81.5,23.3h-1.3c0-0.2,0.1-0.4,0.2-0.5c0.1-0.1,0.3-0.2,0.5-0.2c0.2,0,0.3,0.1,0.5,0.2C81.5,23,81.5,23.1,81.5,23.3"/>
		<path class="st0" d="M85.7,23.4c0-0.1,0-0.3-0.1-0.4c0-0.1-0.1-0.2-0.2-0.3c-0.1-0.1-0.2-0.2-0.3-0.2c-0.1-0.1-0.3-0.1-0.5-0.1
			c-0.2,0-0.3,0-0.5,0.1c-0.1,0.1-0.3,0.2-0.4,0.3c-0.1,0.1-0.2,0.3-0.2,0.4c0,0.2-0.1,0.3-0.1,0.5c0,0.4,0.1,0.8,0.3,1
			c0.2,0.2,0.5,0.3,0.9,0.3c0.2,0,0.3,0,0.5,0c0.1,0,0.3-0.1,0.4-0.1l0-0.3c-0.1,0-0.2,0.1-0.3,0.1c-0.1,0-0.3,0-0.4,0
			c-0.3,0-0.5-0.1-0.7-0.3C84.1,24.3,84,24,84,23.6h1.7C85.7,23.6,85.7,23.5,85.7,23.4C85.7,23.5,85.7,23.4,85.7,23.4L85.7,23.4
			 M85.3,23.3H84c0-0.2,0.1-0.4,0.2-0.5c0.1-0.1,0.3-0.2,0.5-0.2c0.2,0,0.3,0.1,0.5,0.2C85.3,23,85.3,23.1,85.3,23.3"/>
		<path class="st0" d="M87.7,25v-0.3c-0.1,0-0.1,0-0.2,0s-0.1,0-0.2,0c-0.1,0-0.1,0-0.2,0c0,0-0.1,0-0.1-0.1c0,0,0-0.1-0.1-0.2
			c0-0.1,0-0.2,0-0.3v-1.4h0.8v-0.3H87v-1l-0.4,0.1v0.8H86v0.3h0.6v1.5c0,0.1,0,0.2,0,0.3c0,0.1,0.1,0.2,0.1,0.2s0.1,0.1,0.2,0.1
			c0.1,0,0.2,0,0.3,0c0.1,0,0.2,0,0.2,0C87.6,25,87.7,25,87.7,25"/>
		<path class="st0" d="M91.5,25v-3.8h-0.4v1.2c-0.1,0-0.2,0-0.2,0c-0.1,0-0.2,0-0.2,0c-0.2,0-0.4,0-0.5,0.1
			c-0.2,0.1-0.3,0.2-0.4,0.3c-0.1,0.1-0.2,0.3-0.3,0.4c-0.1,0.2-0.1,0.4-0.1,0.6c0,0.4,0.1,0.7,0.2,0.9c0.2,0.2,0.4,0.3,0.7,0.3
			c0.2,0,0.4-0.1,0.5-0.2c0.2-0.1,0.3-0.3,0.3-0.4l0,0c0,0.1,0,0.2,0,0.3c0,0.1,0,0.2,0,0.3H91.5L91.5,25 M91.1,23.6
			c0,0.1,0,0.2,0,0.4c0,0.1-0.1,0.2-0.1,0.3c-0.1,0.1-0.1,0.2-0.2,0.3c-0.1,0.1-0.2,0.1-0.3,0.1c-0.2,0-0.4-0.1-0.5-0.2
			c-0.1-0.2-0.1-0.4-0.1-0.7c0-0.4,0.1-0.7,0.2-0.8c0.2-0.2,0.4-0.3,0.6-0.3c0.2,0,0.3,0,0.5,0.1L91.1,23.6"/>
		<path class="st0" d="M94.4,23.4c0-0.1,0-0.3-0.1-0.4c0-0.1-0.1-0.2-0.2-0.3c-0.1-0.1-0.2-0.2-0.3-0.2c-0.1-0.1-0.3-0.1-0.5-0.1
			c-0.2,0-0.3,0-0.5,0.1c-0.1,0.1-0.3,0.2-0.4,0.3c-0.1,0.1-0.2,0.3-0.2,0.4c0,0.2-0.1,0.3-0.1,0.5c0,0.4,0.1,0.8,0.3,1
			c0.2,0.2,0.5,0.3,0.9,0.3c0.2,0,0.3,0,0.5,0c0.1,0,0.3-0.1,0.4-0.1l0-0.3c-0.1,0-0.2,0.1-0.3,0.1c-0.1,0-0.3,0-0.4,0
			c-0.3,0-0.5-0.1-0.7-0.3c-0.1-0.2-0.2-0.4-0.2-0.8h1.7C94.4,23.6,94.4,23.5,94.4,23.4C94.4,23.5,94.4,23.4,94.4,23.4L94.4,23.4
			 M94,23.3h-1.3c0-0.2,0.1-0.4,0.2-0.5c0.1-0.1,0.3-0.2,0.5-0.2c0.2,0,0.3,0.1,0.5,0.2C93.9,23,94,23.1,94,23.3"/>
		<polyline class="st0" points="33.9,32.1 33.9,28.4 33.5,28.4 33.5,32.1 33.9,32.1 		"/>
		<path class="st0" d="M34.8,29.6c0.2-0.2,0.3-0.3,0.4-0.5c0.1-0.2,0.1-0.3,0.1-0.4s0-0.2-0.1-0.3c-0.1-0.1-0.1-0.1-0.2-0.1
			c-0.1,0-0.1,0-0.1,0c0,0-0.1,0.1-0.1,0.1c0,0,0,0.1,0,0.1c0,0,0,0.1,0.1,0.1c0,0,0,0.1,0.1,0.1c0,0,0,0.1,0,0.2
			c0,0.1,0,0.1-0.1,0.2s-0.1,0.2-0.2,0.2L34.8,29.6"/>
		<path class="st0" d="M38.7,32.1l-1.3-3.5H37l-1.3,3.5h0.4l0.3-0.9H38l0.3,0.9H38.7L38.7,32.1 M37.8,30.9h-1.3l0.5-1.4
			c0.1-0.2,0.1-0.3,0.2-0.5h0c0,0.1,0,0.2,0.1,0.3c0,0.1,0.1,0.2,0.1,0.3L37.8,30.9"/>
		<path class="st0" d="M42.9,32.1v-1.8c0-0.3-0.1-0.5-0.2-0.6c-0.1-0.1-0.3-0.2-0.6-0.2c-0.1,0-0.2,0-0.3,0.1
			c-0.1,0-0.2,0.1-0.3,0.2c-0.1,0.1-0.1,0.1-0.2,0.2c0,0.1-0.1,0.1-0.1,0.2c0,0,0-0.1,0-0.2c0-0.1-0.1-0.1-0.1-0.2
			c-0.1-0.1-0.1-0.1-0.2-0.2c-0.1,0-0.2-0.1-0.4-0.1c-0.2,0-0.4,0.1-0.6,0.2c-0.2,0.1-0.3,0.3-0.3,0.5l0,0c0-0.1,0-0.2,0-0.3
			c0-0.1,0-0.2,0-0.3h-0.4v2.6h0.4v-1.2c0-0.2,0-0.3,0.1-0.4s0.1-0.2,0.2-0.3c0.1-0.1,0.2-0.2,0.2-0.2c0.1-0.1,0.2-0.1,0.3-0.1
			c0.1,0,0.2,0,0.2,0c0.1,0,0.1,0.1,0.1,0.1c0,0.1,0.1,0.1,0.1,0.2c0,0.1,0,0.2,0,0.2v1.7h0.4v-1.2c0-0.2,0-0.3,0.1-0.4
			c0-0.1,0.1-0.2,0.2-0.3c0.1-0.1,0.2-0.2,0.2-0.2c0.1,0,0.2-0.1,0.3-0.1c0.1,0,0.2,0,0.2,0s0.1,0.1,0.1,0.1c0,0.1,0.1,0.1,0.1,0.2
			c0,0.1,0,0.2,0,0.3v1.7L42.9,32.1"/>
		<path class="st0" d="M45.7,30.6c0-0.1,0-0.3-0.1-0.4c0-0.1-0.1-0.2-0.2-0.3c-0.1-0.1-0.2-0.2-0.3-0.2c-0.1-0.1-0.3-0.1-0.5-0.1
			c-0.2,0-0.3,0-0.5,0.1c-0.1,0.1-0.3,0.2-0.4,0.3c-0.1,0.1-0.2,0.3-0.2,0.4c0,0.2-0.1,0.3-0.1,0.5c0,0.4,0.1,0.8,0.3,1
			c0.2,0.2,0.5,0.3,0.9,0.3c0.2,0,0.3,0,0.5,0c0.1,0,0.3-0.1,0.4-0.1l0-0.3c-0.1,0-0.2,0.1-0.3,0.1c-0.1,0-0.3,0-0.4,0
			c-0.3,0-0.5-0.1-0.7-0.3c-0.1-0.2-0.2-0.4-0.2-0.8h1.7C45.7,30.7,45.7,30.7,45.7,30.6C45.7,30.6,45.7,30.6,45.7,30.6L45.7,30.6
			 M45.3,30.5H44c0-0.2,0.1-0.4,0.2-0.5c0.1-0.1,0.3-0.2,0.5-0.2c0.2,0,0.3,0.1,0.5,0.2C45.3,30.1,45.4,30.3,45.3,30.5L45.3,30.5
			 M45.3,28.6l-0.2-0.3l-0.7,0.6l0.2,0.2L45.3,28.6"/>
		<path class="st0" d="M48.5,32.1v-1.8c0-0.1,0-0.2,0-0.3c0-0.1-0.1-0.2-0.1-0.3c-0.1-0.1-0.1-0.1-0.2-0.2c-0.1,0-0.2-0.1-0.4-0.1
			c-0.2,0-0.4,0.1-0.6,0.2c-0.2,0.1-0.3,0.3-0.3,0.4l0,0c0-0.1,0-0.2,0-0.3c0-0.1,0-0.2,0-0.3h-0.4v2.6h0.4v-1.2
			c0-0.2,0-0.3,0.1-0.4c0-0.1,0.1-0.2,0.2-0.3c0.1-0.1,0.2-0.2,0.2-0.2c0.1-0.1,0.2-0.1,0.3-0.1c0.2,0,0.3,0.1,0.4,0.2
			c0.1,0.1,0.1,0.3,0.1,0.5v1.7L48.5,32.1"/>
		<path class="st0" d="M51.3,32.1c0-0.1,0-0.2,0-0.4c0-0.1,0-0.3,0-0.4v-1c0-0.1,0-0.2,0-0.3c0-0.1-0.1-0.2-0.1-0.3
			c-0.1-0.1-0.2-0.1-0.3-0.2s-0.3-0.1-0.4-0.1c-0.2,0-0.3,0-0.5,0.1c-0.1,0-0.3,0.1-0.4,0.1l0,0.3c0.1-0.1,0.2-0.1,0.4-0.2
			c0.1,0,0.3-0.1,0.4-0.1c0.2,0,0.4,0.1,0.5,0.2c0.1,0.1,0.1,0.3,0.1,0.4v0.2c-0.3,0-0.5,0-0.7,0.1c-0.2,0-0.4,0.1-0.5,0.2
			c-0.1,0.1-0.2,0.2-0.3,0.3c-0.1,0.1-0.1,0.2-0.1,0.4c0,0.2,0.1,0.4,0.2,0.5c0.1,0.1,0.3,0.2,0.5,0.2c0.1,0,0.2,0,0.3,0
			c0.1,0,0.2-0.1,0.3-0.1c0.1-0.1,0.1-0.1,0.2-0.2c0.1-0.1,0.1-0.1,0.1-0.2h0c0,0.1,0,0.2,0,0.3c0,0.1,0,0.2,0,0.3H51.3L51.3,32.1
			 M50.9,30.9c0,0.1,0,0.2-0.1,0.3c0,0.1-0.1,0.2-0.2,0.3c-0.1,0.1-0.1,0.2-0.2,0.2c-0.1,0.1-0.2,0.1-0.3,0.1c-0.1,0-0.2,0-0.3-0.1
			c-0.1-0.1-0.1-0.2-0.1-0.3c0-0.1,0-0.1,0-0.2c0-0.1,0.1-0.1,0.2-0.2C50,31,50.1,31,50.3,31C50.4,30.9,50.6,30.9,50.9,30.9
			L50.9,30.9"/>
		<path class="st0" d="M54.4,32.5c0-0.2-0.1-0.4-0.2-0.5c-0.1-0.1-0.4-0.2-0.6-0.2H53c-0.2,0-0.3,0-0.4-0.1c-0.1,0-0.1-0.1-0.1-0.2
			c0,0,0-0.1,0-0.1c0,0,0.1-0.1,0.1-0.1c0,0,0.1,0,0.2,0c0.1,0,0.1,0,0.2,0c0.2,0,0.3,0,0.5-0.1c0.1,0,0.3-0.1,0.3-0.2
			c0.1-0.1,0.2-0.2,0.2-0.3s0.1-0.2,0.1-0.4c0-0.1,0-0.2-0.1-0.3c0-0.1-0.1-0.2-0.2-0.2h0.5v-0.3h-0.9c-0.1,0-0.1,0-0.2,0
			c-0.1,0-0.1,0-0.2,0c-0.2,0-0.3,0-0.5,0.1c-0.1,0.1-0.3,0.1-0.3,0.2c-0.1,0.1-0.2,0.2-0.2,0.3c-0.1,0.1-0.1,0.2-0.1,0.4
			c0,0.2,0,0.3,0.1,0.4c0.1,0.1,0.2,0.2,0.3,0.3c-0.1,0-0.2,0.1-0.2,0.2c0,0.1-0.1,0.2-0.1,0.2c0,0.1,0,0.2,0.1,0.2
			c0,0.1,0.1,0.1,0.2,0.2c-0.1,0.1-0.2,0.1-0.3,0.3C52,32.4,52,32.5,52,32.7c0,0.2,0.1,0.4,0.3,0.6c0.2,0.1,0.5,0.2,0.8,0.2
			c0.2,0,0.4,0,0.5-0.1c0.2,0,0.3-0.1,0.4-0.2c0.1-0.1,0.2-0.2,0.3-0.3C54.4,32.8,54.4,32.6,54.4,32.5L54.4,32.5 M53.8,30.4
			c0,0.2-0.1,0.4-0.2,0.5c-0.1,0.1-0.3,0.2-0.5,0.2c-0.2,0-0.4-0.1-0.5-0.2c-0.1-0.1-0.2-0.3-0.2-0.5c0-0.2,0.1-0.3,0.2-0.5
			c0.1-0.1,0.3-0.2,0.5-0.2c0.2,0,0.4,0.1,0.5,0.2C53.8,30.1,53.8,30.2,53.8,30.4L53.8,30.4 M54,32.6c0,0.2-0.1,0.3-0.2,0.4
			c-0.2,0.1-0.4,0.2-0.7,0.2c-0.1,0-0.2,0-0.3,0c-0.1,0-0.2-0.1-0.2-0.1c-0.1,0-0.1-0.1-0.2-0.2c0-0.1-0.1-0.1-0.1-0.2
			c0-0.1,0-0.2,0.1-0.3c0.1-0.1,0.2-0.2,0.3-0.2c0,0,0,0,0.1,0c0,0,0.1,0,0.1,0h0.5c0.2,0,0.3,0,0.4,0.1C54,32.3,54,32.4,54,32.6"/>
		<path class="st0" d="M57,30.6c0-0.1,0-0.3-0.1-0.4c0-0.1-0.1-0.2-0.2-0.3c-0.1-0.1-0.2-0.2-0.3-0.2c-0.1-0.1-0.3-0.1-0.5-0.1
			c-0.2,0-0.3,0-0.5,0.1c-0.1,0.1-0.3,0.2-0.4,0.3C55.1,30,55,30.1,55,30.3c0,0.2-0.1,0.3-0.1,0.5c0,0.4,0.1,0.8,0.3,1
			c0.2,0.2,0.5,0.3,0.9,0.3c0.2,0,0.3,0,0.5,0c0.1,0,0.3-0.1,0.4-0.1l0-0.3c-0.1,0-0.2,0.1-0.3,0.1c-0.1,0-0.3,0-0.4,0
			c-0.3,0-0.5-0.1-0.7-0.3c-0.1-0.2-0.2-0.4-0.2-0.8H57C57,30.7,57,30.7,57,30.6C57,30.6,57,30.6,57,30.6L57,30.6 M56.6,30.5h-1.3
			c0-0.2,0.1-0.4,0.2-0.5c0.1-0.1,0.3-0.2,0.5-0.2c0.2,0,0.3,0.1,0.5,0.2C56.6,30.1,56.6,30.3,56.6,30.5"/>
		<path class="st0" d="M61.4,32.1v-1.8c0-0.3-0.1-0.5-0.2-0.6c-0.1-0.1-0.3-0.2-0.6-0.2c-0.1,0-0.2,0-0.3,0.1
			c-0.1,0-0.2,0.1-0.3,0.2c-0.1,0.1-0.1,0.1-0.2,0.2c0,0.1-0.1,0.1-0.1,0.2c0,0,0-0.1,0-0.2c0-0.1-0.1-0.1-0.1-0.2
			c-0.1-0.1-0.1-0.1-0.2-0.2c-0.1,0-0.2-0.1-0.4-0.1c-0.2,0-0.4,0.1-0.6,0.2c-0.2,0.1-0.3,0.3-0.3,0.5l0,0c0-0.1,0-0.2,0-0.3
			c0-0.1,0-0.2,0-0.3h-0.4v2.6h0.4v-1.2c0-0.2,0-0.3,0.1-0.4c0-0.1,0.1-0.2,0.2-0.3c0.1-0.1,0.2-0.2,0.2-0.2
			c0.1-0.1,0.2-0.1,0.3-0.1c0.1,0,0.2,0,0.2,0c0.1,0,0.1,0.1,0.1,0.1c0,0.1,0.1,0.1,0.1,0.2c0,0.1,0,0.2,0,0.2v1.7h0.4v-1.2
			c0-0.2,0-0.3,0.1-0.4c0-0.1,0.1-0.2,0.2-0.3c0.1-0.1,0.2-0.2,0.2-0.2c0.1,0,0.2-0.1,0.3-0.1c0.1,0,0.2,0,0.2,0
			c0.1,0,0.1,0.1,0.1,0.1c0,0.1,0.1,0.1,0.1,0.2c0,0.1,0,0.2,0,0.3v1.7L61.4,32.1"/>
		<path class="st0" d="M64.2,30.6c0-0.1,0-0.3-0.1-0.4c0-0.1-0.1-0.2-0.2-0.3c-0.1-0.1-0.2-0.2-0.3-0.2c-0.1-0.1-0.3-0.1-0.5-0.1
			c-0.2,0-0.3,0-0.5,0.1c-0.1,0.1-0.3,0.2-0.4,0.3c-0.1,0.1-0.2,0.3-0.2,0.4c0,0.2-0.1,0.3-0.1,0.5c0,0.4,0.1,0.8,0.3,1
			c0.2,0.2,0.5,0.3,0.9,0.3c0.2,0,0.3,0,0.5,0c0.1,0,0.3-0.1,0.4-0.1l0-0.3c-0.1,0-0.2,0.1-0.3,0.1c-0.1,0-0.3,0-0.4,0
			c-0.3,0-0.5-0.1-0.7-0.3c-0.1-0.2-0.2-0.4-0.2-0.8h1.7C64.2,30.7,64.2,30.7,64.2,30.6C64.2,30.6,64.2,30.6,64.2,30.6L64.2,30.6
			 M63.8,30.5h-1.3c0-0.2,0.1-0.4,0.2-0.5c0.1-0.1,0.3-0.2,0.5-0.2c0.2,0,0.3,0.1,0.5,0.2C63.8,30.1,63.8,30.3,63.8,30.5"/>
		<path class="st0" d="M67,32.1v-1.8c0-0.1,0-0.2,0-0.3c0-0.1-0.1-0.2-0.1-0.3c-0.1-0.1-0.1-0.1-0.2-0.2c-0.1,0-0.2-0.1-0.4-0.1
			c-0.2,0-0.4,0.1-0.6,0.2s-0.3,0.3-0.3,0.4l0,0c0-0.1,0-0.2,0-0.3c0-0.1,0-0.2,0-0.3H65v2.6h0.4v-1.2c0-0.2,0-0.3,0.1-0.4
			c0-0.1,0.1-0.2,0.2-0.3c0.1-0.1,0.2-0.2,0.2-0.2c0.1-0.1,0.2-0.1,0.3-0.1c0.2,0,0.3,0.1,0.4,0.2c0.1,0.1,0.1,0.3,0.1,0.5v1.7
			L67,32.1"/>
		<path class="st0" d="M69.2,32.1v-0.3c-0.1,0-0.1,0-0.2,0c-0.1,0-0.1,0-0.2,0c-0.1,0-0.1,0-0.2,0c0,0-0.1,0-0.1-0.1
			c0,0,0-0.1-0.1-0.2c0-0.1,0-0.2,0-0.3v-1.4h0.8v-0.3h-0.8v-1l-0.4,0.1v0.8h-0.6v0.3h0.6v1.5c0,0.1,0,0.2,0,0.3
			c0,0.1,0.1,0.2,0.1,0.2c0.1,0.1,0.1,0.1,0.2,0.1c0.1,0,0.2,0,0.3,0c0.1,0,0.2,0,0.2,0C69.1,32.1,69.2,32.1,69.2,32.1"/>
		<path class="st0" d="M73,32.1v-3.8h-0.4v1.2c-0.1,0-0.2,0-0.2,0c-0.1,0-0.2,0-0.2,0c-0.2,0-0.4,0-0.5,0.1
			c-0.2,0.1-0.3,0.2-0.4,0.3C71.1,30,71,30.2,71,30.3c-0.1,0.2-0.1,0.4-0.1,0.6c0,0.4,0.1,0.7,0.2,0.9c0.2,0.2,0.4,0.3,0.7,0.3
			c0.2,0,0.4-0.1,0.5-0.2c0.2-0.1,0.3-0.3,0.3-0.4l0,0c0,0.1,0,0.2,0,0.3c0,0.1,0,0.2,0,0.3H73L73,32.1 M72.6,30.8
			c0,0.1,0,0.2,0,0.4c0,0.1-0.1,0.2-0.1,0.3c-0.1,0.1-0.1,0.2-0.2,0.3c-0.1,0.1-0.2,0.1-0.3,0.1c-0.2,0-0.4-0.1-0.5-0.2
			c-0.1-0.2-0.1-0.4-0.1-0.7c0-0.4,0.1-0.7,0.2-0.8c0.2-0.2,0.4-0.3,0.6-0.3c0.2,0,0.3,0,0.5,0.1L72.6,30.8"/>
		<path class="st0" d="M76,32.1v-2.6h-0.4v1.2c0,0.2,0,0.3-0.1,0.4c0,0.1-0.1,0.2-0.2,0.3c-0.1,0.1-0.2,0.2-0.2,0.2
			s-0.2,0.1-0.3,0.1c-0.2,0-0.3-0.1-0.4-0.2c-0.1-0.1-0.1-0.3-0.1-0.5v-1.7H74v1.8c0,0.1,0,0.2,0,0.3c0,0.1,0.1,0.2,0.1,0.3
			c0.1,0.1,0.1,0.1,0.2,0.2c0.1,0,0.2,0.1,0.4,0.1c0.2,0,0.4-0.1,0.6-0.2c0.2-0.1,0.3-0.3,0.3-0.4l0,0c0,0.1,0,0.2,0,0.3
			c0,0.1,0,0.2,0,0.3L76,32.1"/>
		<path class="st0" d="M79.4,32.1v-0.3c-0.1,0-0.1,0-0.2,0c-0.1,0-0.1,0-0.2,0c-0.1,0-0.1,0-0.2,0c0,0-0.1,0-0.1-0.1
			c0,0,0-0.1-0.1-0.2c0-0.1,0-0.2,0-0.3v-1.4h0.8v-0.3h-0.8v-1l-0.4,0.1v0.8h-0.6v0.3h0.6v1.5c0,0.1,0,0.2,0,0.3
			c0,0.1,0.1,0.2,0.1,0.2c0.1,0.1,0.1,0.1,0.2,0.1c0.1,0,0.2,0,0.3,0c0.1,0,0.2,0,0.2,0C79.3,32.1,79.4,32.1,79.4,32.1"/>
		<path class="st0" d="M82,30.6c0-0.1,0-0.3-0.1-0.4c0-0.1-0.1-0.2-0.2-0.3c-0.1-0.1-0.2-0.2-0.3-0.2c-0.1-0.1-0.3-0.1-0.5-0.1
			c-0.2,0-0.3,0-0.5,0.1c-0.1,0.1-0.3,0.2-0.4,0.3C80.1,30,80,30.1,80,30.3c0,0.2-0.1,0.3-0.1,0.5c0,0.4,0.1,0.8,0.3,1
			c0.2,0.2,0.5,0.3,0.9,0.3c0.2,0,0.3,0,0.5,0c0.1,0,0.3-0.1,0.4-0.1l0-0.3c-0.1,0-0.2,0.1-0.3,0.1c-0.1,0-0.3,0-0.4,0
			c-0.3,0-0.5-0.1-0.7-0.3c-0.1-0.2-0.2-0.4-0.2-0.8H82C82,30.7,82,30.7,82,30.6C82,30.6,82,30.6,82,30.6L82,30.6 M81.6,30.5h-1.3
			c0-0.2,0.1-0.4,0.2-0.5c0.1-0.1,0.3-0.2,0.5-0.2c0.2,0,0.3,0.1,0.5,0.2C81.6,30.1,81.6,30.3,81.6,30.5"/>
		<path class="st0" d="M84,29.5c-0.1,0-0.3,0-0.4,0c-0.1,0-0.2,0.1-0.3,0.2c-0.1,0.1-0.1,0.1-0.2,0.2s-0.1,0.2-0.1,0.3l0,0
			c0-0.1,0-0.2,0-0.3s0-0.2,0-0.3h-0.4v2.6h0.4v-1c0-0.4,0.1-0.8,0.2-1s0.3-0.3,0.6-0.2L84,29.5"/>
		<path class="st0" d="M85.9,29.5c-0.1,0-0.3,0-0.4,0c-0.1,0-0.2,0.1-0.3,0.2c-0.1,0.1-0.1,0.1-0.2,0.2S85,30.1,85,30.2l0,0
			c0-0.1,0-0.2,0-0.3c0-0.1,0-0.2,0-0.3h-0.4v2.6H85v-1c0-0.4,0.1-0.8,0.2-1s0.3-0.3,0.6-0.2L85.9,29.5"/>
		<path class="st0" d="M87,28.8c0-0.1,0-0.1-0.1-0.2c-0.1-0.1-0.1-0.1-0.2-0.1c-0.1,0-0.1,0-0.2,0.1c-0.1,0.1-0.1,0.1-0.1,0.2
			c0,0.1,0,0.1,0.1,0.2c0.1,0,0.1,0.1,0.2,0.1c0.1,0,0.1,0,0.2-0.1S87,28.9,87,28.8L87,28.8 M86.9,32.1v-2.6h-0.4v2.6H86.9"/>
		<path class="st0" d="M89.1,32.1v-0.3c-0.1,0-0.1,0-0.2,0c-0.1,0-0.1,0-0.2,0c-0.1,0-0.1,0-0.2,0c0,0-0.1,0-0.1-0.1
			c0,0,0-0.1-0.1-0.2c0-0.1,0-0.2,0-0.3v-1.4h0.8v-0.3h-0.8v-1l-0.4,0.1v0.8h-0.6v0.3h0.6v1.5c0,0.1,0,0.2,0,0.3
			c0,0.1,0.1,0.2,0.1,0.2c0.1,0.1,0.1,0.1,0.2,0.1c0.1,0,0.2,0,0.3,0c0.1,0,0.2,0,0.2,0C88.9,32.1,89,32.1,89.1,32.1"/>
		<path class="st0" d="M91.9,30.8c0-0.2,0-0.4-0.1-0.6c-0.1-0.2-0.1-0.3-0.2-0.4c-0.1-0.1-0.2-0.2-0.4-0.2c-0.1,0-0.3-0.1-0.4-0.1
			c-0.2,0-0.4,0-0.5,0.1c-0.2,0.1-0.3,0.2-0.4,0.3c-0.1,0.1-0.2,0.3-0.2,0.4c-0.1,0.2-0.1,0.3-0.1,0.5c0,0.2,0,0.4,0.1,0.6
			c0.1,0.2,0.1,0.3,0.2,0.4c0.1,0.1,0.2,0.2,0.4,0.2c0.1,0.1,0.3,0.1,0.5,0.1c0.2,0,0.4,0,0.5-0.1c0.2-0.1,0.3-0.2,0.4-0.3
			c0.1-0.1,0.2-0.3,0.2-0.4C91.9,31.2,91.9,31,91.9,30.8L91.9,30.8 M91.5,30.8c0,0.2,0,0.3-0.1,0.5c0,0.1-0.1,0.2-0.2,0.3
			c-0.1,0.1-0.2,0.1-0.2,0.2c-0.1,0-0.2,0.1-0.3,0.1c-0.3,0-0.4-0.1-0.6-0.3c-0.1-0.2-0.2-0.4-0.2-0.8c0-0.2,0-0.3,0.1-0.4
			c0-0.1,0.1-0.2,0.2-0.3c0.1-0.1,0.2-0.1,0.2-0.2s0.2-0.1,0.3-0.1c0.3,0,0.4,0.1,0.6,0.3C91.4,30.3,91.5,30.5,91.5,30.8"/>
		<path class="st0" d="M93.1,28.8c0-0.1,0-0.1-0.1-0.2c-0.1-0.1-0.1-0.1-0.2-0.1c-0.1,0-0.1,0-0.2,0.1c-0.1,0.1-0.1,0.1-0.1,0.2
			c0,0.1,0,0.1,0.1,0.2c0.1,0,0.1,0.1,0.2,0.1c0.1,0,0.1,0,0.2-0.1C93.1,29,93.1,28.9,93.1,28.8L93.1,28.8 M93,32.1v-2.6h-0.4v2.6
			H93"/>
		<path class="st0" d="M95.2,29.5c-0.1,0-0.3,0-0.4,0c-0.1,0-0.2,0.1-0.3,0.2c-0.1,0.1-0.1,0.1-0.2,0.2s-0.1,0.2-0.1,0.3l0,0
			c0-0.1,0-0.2,0-0.3c0-0.1,0-0.2,0-0.3H94v2.6h0.4v-1c0-0.4,0.1-0.8,0.2-1s0.3-0.3,0.6-0.2L95.2,29.5"/>
		<path class="st0" d="M97.7,30.6c0-0.1,0-0.3-0.1-0.4c0-0.1-0.1-0.2-0.2-0.3c-0.1-0.1-0.2-0.2-0.3-0.2c-0.1-0.1-0.3-0.1-0.5-0.1
			c-0.2,0-0.3,0-0.5,0.1c-0.1,0.1-0.3,0.2-0.4,0.3c-0.1,0.1-0.2,0.3-0.2,0.4c0,0.2-0.1,0.3-0.1,0.5c0,0.4,0.1,0.8,0.3,1
			c0.2,0.2,0.5,0.3,0.9,0.3c0.2,0,0.3,0,0.5,0c0.1,0,0.3-0.1,0.4-0.1l0-0.3c-0.1,0-0.2,0.1-0.3,0.1c-0.1,0-0.3,0-0.4,0
			c-0.3,0-0.5-0.1-0.7-0.3c-0.1-0.2-0.2-0.4-0.2-0.8h1.7C97.7,30.7,97.7,30.7,97.7,30.6C97.7,30.6,97.7,30.6,97.7,30.6L97.7,30.6
			 M97.3,30.5H96c0-0.2,0.1-0.4,0.2-0.5c0.1-0.1,0.3-0.2,0.5-0.2c0.2,0,0.3,0.1,0.5,0.2C97.3,30.1,97.3,30.3,97.3,30.5"/>
		<path class="st0" d="M36.3,41c0-0.3,0-0.6-0.1-0.8c-0.1-0.2-0.2-0.4-0.3-0.5c-0.2-0.1-0.3-0.2-0.6-0.3c-0.2-0.1-0.5-0.1-0.8-0.1
			c-0.2,0-0.4,0-0.5,0c-0.2,0-0.3,0-0.5,0v3.5c0.1,0,0.2,0,0.4,0c0.1,0,0.3,0,0.5,0c0.3,0,0.5,0,0.8-0.1c0.2-0.1,0.4-0.2,0.6-0.3
			c0.2-0.1,0.3-0.3,0.4-0.6C36.2,41.6,36.3,41.3,36.3,41L36.3,41 M35.9,41.1c0,0.2,0,0.5-0.1,0.6c-0.1,0.2-0.2,0.3-0.3,0.4
			c-0.1,0.1-0.3,0.2-0.5,0.3c-0.2,0.1-0.4,0.1-0.6,0.1c-0.1,0-0.2,0-0.3,0c-0.1,0-0.2,0-0.2,0v-2.8c0.1,0,0.2,0,0.3,0
			c0.1,0,0.2,0,0.3,0C35.4,39.6,35.9,40.1,35.9,41.1"/>
		<path class="st0" d="M38.9,41.3c0-0.1,0-0.3-0.1-0.4c0-0.1-0.1-0.2-0.2-0.3c-0.1-0.1-0.2-0.2-0.3-0.2c-0.1-0.1-0.3-0.1-0.5-0.1
			c-0.2,0-0.3,0-0.5,0.1c-0.1,0.1-0.3,0.2-0.4,0.3c-0.1,0.1-0.2,0.3-0.2,0.4c0,0.2-0.1,0.3-0.1,0.5c0,0.4,0.1,0.8,0.3,1
			c0.2,0.2,0.5,0.3,0.9,0.3c0.2,0,0.3,0,0.5,0c0.1,0,0.3-0.1,0.4-0.1l0-0.3c-0.1,0-0.2,0.1-0.3,0.1c-0.1,0-0.3,0-0.4,0
			c-0.3,0-0.5-0.1-0.7-0.3c-0.1-0.2-0.2-0.4-0.2-0.8h1.7C38.9,41.4,38.9,41.4,38.9,41.3C38.9,41.3,38.9,41.3,38.9,41.3L38.9,41.3
			 M38.5,41.2h-1.3c0-0.2,0.1-0.4,0.2-0.5c0.1-0.1,0.3-0.2,0.5-0.2c0.2,0,0.3,0.1,0.5,0.2C38.5,40.8,38.5,41,38.5,41.2L38.5,41.2
			 M38.5,39.3L38.3,39l-0.7,0.6l0.2,0.2L38.5,39.3"/>
		<path class="st0" d="M41.8,41.4c0-0.4-0.1-0.7-0.2-0.9c-0.2-0.2-0.4-0.3-0.7-0.3c-0.2,0-0.4,0.1-0.5,0.2c-0.2,0.1-0.3,0.3-0.3,0.4
			l0,0c0-0.1,0-0.2,0-0.3c0-0.1,0-0.2,0-0.3h-0.4v3.8h0.4v-1.3c0.1,0,0.2,0,0.2,0c0.1,0,0.1,0,0.2,0c0.4,0,0.7-0.1,1-0.4
			C41.7,42.2,41.8,41.9,41.8,41.4L41.8,41.4 M41.4,41.5c0,0.2,0,0.4-0.1,0.5c0,0.1-0.1,0.3-0.2,0.3c-0.1,0.1-0.2,0.2-0.3,0.2
			c-0.1,0-0.2,0.1-0.4,0.1c-0.2,0-0.4,0-0.5-0.1v-0.9c0-0.1,0-0.2,0-0.4c0-0.1,0.1-0.2,0.1-0.3c0.1-0.1,0.1-0.2,0.2-0.3
			c0.1-0.1,0.2-0.1,0.3-0.1c0.2,0,0.4,0.1,0.5,0.2C41.4,40.9,41.4,41.2,41.4,41.5"/>
		<path class="st0" d="M44.3,42.8c0-0.1,0-0.2,0-0.4c0-0.1,0-0.3,0-0.4v-1c0-0.1,0-0.2,0-0.3s-0.1-0.2-0.1-0.3
			c-0.1-0.1-0.2-0.1-0.3-0.2c-0.1,0-0.3-0.1-0.4-0.1c-0.2,0-0.3,0-0.5,0.1s-0.3,0.1-0.4,0.1l0,0.3c0.1-0.1,0.2-0.1,0.4-0.2
			c0.1,0,0.3-0.1,0.4-0.1c0.2,0,0.4,0.1,0.5,0.2c0.1,0.1,0.1,0.3,0.1,0.4v0.2c-0.3,0-0.5,0-0.7,0.1c-0.2,0-0.4,0.1-0.5,0.2
			c-0.1,0.1-0.2,0.2-0.3,0.3c-0.1,0.1-0.1,0.2-0.1,0.4c0,0.2,0.1,0.4,0.2,0.5c0.1,0.1,0.3,0.2,0.5,0.2c0.1,0,0.2,0,0.3,0
			c0.1,0,0.2-0.1,0.3-0.1c0.1-0.1,0.1-0.1,0.2-0.2c0.1-0.1,0.1-0.1,0.1-0.2h0c0,0.1,0,0.2,0,0.3s0,0.2,0,0.3H44.3L44.3,42.8
			 M43.9,41.7c0,0.1,0,0.2-0.1,0.3c0,0.1-0.1,0.2-0.2,0.3c-0.1,0.1-0.1,0.2-0.2,0.2c-0.1,0.1-0.2,0.1-0.3,0.1c-0.1,0-0.2,0-0.3-0.1
			c-0.1-0.1-0.1-0.2-0.1-0.3c0-0.1,0-0.1,0-0.2c0-0.1,0.1-0.1,0.2-0.2c0.1-0.1,0.2-0.1,0.4-0.1C43.5,41.6,43.7,41.6,43.9,41.7
			L43.9,41.7"/>
		<path class="st0" d="M46.5,40.2c-0.1,0-0.3,0-0.4,0c-0.1,0-0.2,0.1-0.3,0.2c-0.1,0.1-0.1,0.1-0.2,0.2c0,0.1-0.1,0.2-0.1,0.3l0,0
			c0-0.1,0-0.2,0-0.3c0-0.1,0-0.2,0-0.3h-0.4v2.6h0.4v-1c0-0.4,0.1-0.8,0.2-1c0.1-0.2,0.3-0.3,0.6-0.2L46.5,40.2"/>
		<path class="st0" d="M48.4,42.8v-0.3c-0.1,0-0.1,0-0.2,0c-0.1,0-0.1,0-0.2,0c-0.1,0-0.1,0-0.2,0c0,0-0.1,0-0.1-0.1
			c0,0,0-0.1-0.1-0.2c0-0.1,0-0.2,0-0.3v-1.4h0.8v-0.3h-0.8v-1l-0.4,0.1v0.8h-0.6v0.3h0.6v1.5c0,0.1,0,0.2,0,0.3
			c0,0.1,0.1,0.2,0.1,0.2c0.1,0.1,0.1,0.1,0.2,0.1c0.1,0,0.2,0,0.3,0c0.1,0,0.2,0,0.2,0C48.2,42.8,48.3,42.8,48.4,42.8"/>
		<path class="st0" d="M51,41.3c0-0.1,0-0.3-0.1-0.4c0-0.1-0.1-0.2-0.2-0.3c-0.1-0.1-0.2-0.2-0.3-0.2c-0.1-0.1-0.3-0.1-0.5-0.1
			c-0.2,0-0.3,0-0.5,0.1c-0.1,0.1-0.3,0.2-0.4,0.3c-0.1,0.1-0.2,0.3-0.2,0.4c0,0.2-0.1,0.3-0.1,0.5c0,0.4,0.1,0.8,0.3,1
			c0.2,0.2,0.5,0.3,0.9,0.3c0.2,0,0.3,0,0.5,0c0.1,0,0.3-0.1,0.4-0.1l0-0.3c-0.1,0-0.2,0.1-0.3,0.1c-0.1,0-0.3,0-0.4,0
			c-0.3,0-0.5-0.1-0.7-0.3c-0.1-0.2-0.2-0.4-0.2-0.8H51C51,41.4,51,41.4,51,41.3C51,41.3,51,41.3,51,41.3L51,41.3 M50.6,41.2h-1.3
			c0-0.2,0.1-0.4,0.2-0.5c0.1-0.1,0.3-0.2,0.5-0.2c0.2,0,0.3,0.1,0.5,0.2C50.5,40.8,50.6,41,50.6,41.2"/>
		<path class="st0" d="M55.3,42.8V41c0-0.3-0.1-0.5-0.2-0.6c-0.1-0.1-0.3-0.2-0.6-0.2c-0.1,0-0.2,0-0.3,0.1c-0.1,0-0.2,0.1-0.3,0.2
			s-0.1,0.1-0.2,0.2c0,0.1-0.1,0.1-0.1,0.2c0,0,0-0.1,0-0.2c0-0.1-0.1-0.1-0.1-0.2c-0.1-0.1-0.1-0.1-0.2-0.2c-0.1,0-0.2-0.1-0.4-0.1
			c-0.2,0-0.4,0.1-0.6,0.2c-0.2,0.1-0.3,0.3-0.3,0.5l0,0c0-0.1,0-0.2,0-0.3c0-0.1,0-0.2,0-0.3h-0.4v2.6h0.4v-1.2
			c0-0.2,0-0.3,0.1-0.4c0-0.1,0.1-0.2,0.2-0.3c0.1-0.1,0.2-0.2,0.2-0.2c0.1-0.1,0.2-0.1,0.3-0.1c0.1,0,0.2,0,0.2,0
			c0.1,0,0.1,0.1,0.1,0.1c0,0.1,0.1,0.1,0.1,0.2c0,0.1,0,0.2,0,0.2v1.7h0.4v-1.2c0-0.2,0-0.3,0.1-0.4c0-0.1,0.1-0.2,0.2-0.3
			c0.1-0.1,0.2-0.2,0.2-0.2c0.1,0,0.2-0.1,0.3-0.1c0.1,0,0.2,0,0.2,0c0.1,0,0.1,0.1,0.1,0.1c0,0.1,0.1,0.1,0.1,0.2
			c0,0.1,0,0.2,0,0.3v1.7L55.3,42.8"/>
		<path class="st0" d="M58.2,41.3c0-0.1,0-0.3-0.1-0.4c0-0.1-0.1-0.2-0.2-0.3c-0.1-0.1-0.2-0.2-0.3-0.2c-0.1-0.1-0.3-0.1-0.5-0.1
			c-0.2,0-0.3,0-0.5,0.1c-0.1,0.1-0.3,0.2-0.4,0.3c-0.1,0.1-0.2,0.3-0.2,0.4c0,0.2-0.1,0.3-0.1,0.5c0,0.4,0.1,0.8,0.3,1
			c0.2,0.2,0.5,0.3,0.9,0.3c0.2,0,0.3,0,0.5,0c0.1,0,0.3-0.1,0.4-0.1l0-0.3c-0.1,0-0.2,0.1-0.3,0.1c-0.1,0-0.3,0-0.4,0
			c-0.3,0-0.5-0.1-0.7-0.3c-0.1-0.2-0.2-0.4-0.2-0.8h1.7C58.2,41.4,58.2,41.4,58.2,41.3C58.2,41.3,58.2,41.3,58.2,41.3L58.2,41.3
			 M57.8,41.2h-1.3c0-0.2,0.1-0.4,0.2-0.5c0.1-0.1,0.3-0.2,0.5-0.2c0.2,0,0.3,0.1,0.5,0.2C57.8,40.8,57.8,41,57.8,41.2"/>
		<path class="st0" d="M61,42.8V41c0-0.1,0-0.2,0-0.3c0-0.1-0.1-0.2-0.1-0.3c-0.1-0.1-0.1-0.1-0.2-0.2c-0.1,0-0.2-0.1-0.4-0.1
			c-0.2,0-0.4,0.1-0.6,0.2c-0.2,0.1-0.3,0.3-0.3,0.4l0,0c0-0.1,0-0.2,0-0.3c0-0.1,0-0.2,0-0.3H59v2.6h0.4v-1.2c0-0.2,0-0.3,0.1-0.4
			c0-0.1,0.1-0.2,0.2-0.3c0.1-0.1,0.2-0.2,0.2-0.2c0.1-0.1,0.2-0.1,0.3-0.1c0.2,0,0.3,0.1,0.4,0.2c0.1,0.1,0.1,0.3,0.1,0.5v1.7
			L61,42.8"/>
		<path class="st0" d="M63.2,42.8v-0.3c-0.1,0-0.1,0-0.2,0c-0.1,0-0.1,0-0.2,0c-0.1,0-0.1,0-0.2,0c0,0-0.1,0-0.1-0.1
			c0,0,0-0.1-0.1-0.2c0-0.1,0-0.2,0-0.3v-1.4h0.8v-0.3h-0.8v-1l-0.4,0.1v0.8h-0.6v0.3h0.6v1.5c0,0.1,0,0.2,0,0.3
			c0,0.1,0.1,0.2,0.1,0.2c0.1,0.1,0.1,0.1,0.2,0.1c0.1,0,0.2,0,0.3,0c0.1,0,0.2,0,0.2,0C63.1,42.8,63.1,42.8,63.2,42.8"/>
		<path class="st0" d="M67,42.8v-3.8h-0.4v1.2c-0.1,0-0.2,0-0.2,0c-0.1,0-0.2,0-0.2,0c-0.2,0-0.4,0-0.5,0.1
			c-0.2,0.1-0.3,0.2-0.4,0.3c-0.1,0.1-0.2,0.3-0.3,0.4c-0.1,0.2-0.1,0.4-0.1,0.6c0,0.4,0.1,0.7,0.2,0.9c0.2,0.2,0.4,0.3,0.7,0.3
			c0.2,0,0.4-0.1,0.5-0.2c0.2-0.1,0.3-0.3,0.3-0.4l0,0c0,0.1,0,0.2,0,0.3c0,0.1,0,0.2,0,0.3H67L67,42.8 M66.6,41.5
			c0,0.1,0,0.2,0,0.4c0,0.1-0.1,0.2-0.1,0.3c-0.1,0.1-0.1,0.2-0.2,0.3c-0.1,0.1-0.2,0.1-0.3,0.1c-0.2,0-0.4-0.1-0.5-0.2
			c-0.1-0.2-0.1-0.4-0.1-0.7c0-0.4,0.1-0.7,0.2-0.8c0.2-0.2,0.4-0.3,0.6-0.3c0.2,0,0.3,0,0.5,0.1L66.6,41.5"/>
		<path class="st0" d="M69.9,41.3c0-0.1,0-0.3-0.1-0.4c0-0.1-0.1-0.2-0.2-0.3c-0.1-0.1-0.2-0.2-0.3-0.2c-0.1-0.1-0.3-0.1-0.5-0.1
			c-0.2,0-0.3,0-0.5,0.1c-0.1,0.1-0.3,0.2-0.4,0.3c-0.1,0.1-0.2,0.3-0.2,0.4c0,0.2-0.1,0.3-0.1,0.5c0,0.4,0.1,0.8,0.3,1
			c0.2,0.2,0.5,0.3,0.9,0.3c0.2,0,0.3,0,0.5,0c0.1,0,0.3-0.1,0.4-0.1l0-0.3c-0.1,0-0.2,0.1-0.3,0.1c-0.1,0-0.3,0-0.4,0
			c-0.3,0-0.5-0.1-0.7-0.3c-0.1-0.2-0.2-0.4-0.2-0.8h1.7C69.9,41.4,69.9,41.4,69.9,41.3C69.9,41.3,69.9,41.3,69.9,41.3L69.9,41.3
			 M69.5,41.2h-1.3c0-0.2,0.1-0.4,0.2-0.5c0.1-0.1,0.3-0.2,0.5-0.2c0.2,0,0.3,0.1,0.5,0.2C69.4,40.8,69.5,41,69.5,41.2"/>
		<polyline class="st0" points="72.2,42.8 72.2,39.1 71.8,39.1 71.8,42.8 72.2,42.8 		"/>
		<path class="st0" d="M73.1,40.3c0.2-0.2,0.3-0.3,0.4-0.5c0.1-0.2,0.1-0.3,0.1-0.4c0-0.1,0-0.2-0.1-0.3C73.5,39,73.4,39,73.3,39
			c-0.1,0-0.1,0-0.1,0c0,0-0.1,0.1-0.1,0.1c0,0,0,0.1,0,0.1c0,0,0,0.1,0.1,0.1c0,0,0,0.1,0.1,0.1c0,0,0,0.1,0,0.2
			c0,0.1,0,0.1-0.1,0.2c0,0.1-0.1,0.2-0.2,0.2L73.1,40.3"/>
		<path class="st0" d="M76.1,42.8c0-0.1,0-0.2,0-0.4c0-0.1,0-0.3,0-0.4v-1c0-0.1,0-0.2,0-0.3c0-0.1-0.1-0.2-0.1-0.3
			c-0.1-0.1-0.2-0.1-0.3-0.2c-0.1,0-0.3-0.1-0.4-0.1c-0.2,0-0.3,0-0.5,0.1c-0.1,0-0.3,0.1-0.4,0.1l0,0.3c0.1-0.1,0.2-0.1,0.4-0.2
			c0.1,0,0.3-0.1,0.4-0.1c0.2,0,0.4,0.1,0.5,0.2c0.1,0.1,0.1,0.3,0.1,0.4v0.2c-0.3,0-0.5,0-0.7,0.1c-0.2,0-0.4,0.1-0.5,0.2
			c-0.1,0.1-0.2,0.2-0.3,0.3c-0.1,0.1-0.1,0.2-0.1,0.4c0,0.2,0.1,0.4,0.2,0.5c0.1,0.1,0.3,0.2,0.5,0.2c0.1,0,0.2,0,0.3,0
			c0.1,0,0.2-0.1,0.3-0.1c0.1-0.1,0.1-0.1,0.2-0.2c0.1-0.1,0.1-0.1,0.1-0.2h0c0,0.1,0,0.2,0,0.3s0,0.2,0,0.3H76.1L76.1,42.8
			 M75.7,41.7c0,0.1,0,0.2-0.1,0.3c0,0.1-0.1,0.2-0.2,0.3c-0.1,0.1-0.1,0.2-0.2,0.2c-0.1,0.1-0.2,0.1-0.3,0.1c-0.1,0-0.2,0-0.3-0.1
			c-0.1-0.1-0.1-0.2-0.1-0.3c0-0.1,0-0.1,0-0.2c0-0.1,0.1-0.1,0.2-0.2c0.1-0.1,0.2-0.1,0.4-0.1C75.3,41.6,75.5,41.6,75.7,41.7
			L75.7,41.7"/>
		<path class="st0" d="M80.7,42.8V41c0-0.3-0.1-0.5-0.2-0.6c-0.1-0.1-0.3-0.2-0.6-0.2c-0.1,0-0.2,0-0.3,0.1c-0.1,0-0.2,0.1-0.3,0.2
			s-0.1,0.1-0.2,0.2c0,0.1-0.1,0.1-0.1,0.2c0,0,0-0.1,0-0.2c0-0.1-0.1-0.1-0.1-0.2c-0.1-0.1-0.1-0.1-0.2-0.2c-0.1,0-0.2-0.1-0.4-0.1
			c-0.2,0-0.4,0.1-0.6,0.2c-0.2,0.1-0.3,0.3-0.3,0.5l0,0c0-0.1,0-0.2,0-0.3c0-0.1,0-0.2,0-0.3h-0.4v2.6h0.4v-1.2
			c0-0.2,0-0.3,0.1-0.4c0-0.1,0.1-0.2,0.2-0.3c0.1-0.1,0.2-0.2,0.2-0.2c0.1-0.1,0.2-0.1,0.3-0.1c0.1,0,0.2,0,0.2,0
			c0.1,0,0.1,0.1,0.1,0.1c0,0.1,0.1,0.1,0.1,0.2c0,0.1,0,0.2,0,0.2v1.7h0.4v-1.2c0-0.2,0-0.3,0.1-0.4c0-0.1,0.1-0.2,0.2-0.3
			c0.1-0.1,0.2-0.2,0.2-0.2c0.1,0,0.2-0.1,0.3-0.1c0.1,0,0.2,0,0.2,0c0.1,0,0.1,0.1,0.1,0.1c0,0.1,0.1,0.1,0.1,0.2
			c0,0.1,0,0.2,0,0.3v1.7L80.7,42.8"/>
		<path class="st0" d="M83.6,41.3c0-0.1,0-0.3-0.1-0.4c0-0.1-0.1-0.2-0.2-0.3c-0.1-0.1-0.2-0.2-0.3-0.2c-0.1-0.1-0.3-0.1-0.5-0.1
			c-0.2,0-0.3,0-0.5,0.1c-0.1,0.1-0.3,0.2-0.4,0.3c-0.1,0.1-0.2,0.3-0.2,0.4c0,0.2-0.1,0.3-0.1,0.5c0,0.4,0.1,0.8,0.3,1
			c0.2,0.2,0.5,0.3,0.9,0.3c0.2,0,0.3,0,0.5,0c0.1,0,0.3-0.1,0.4-0.1l0-0.3c-0.1,0-0.2,0.1-0.3,0.1c-0.1,0-0.3,0-0.4,0
			c-0.3,0-0.5-0.1-0.7-0.3c-0.1-0.2-0.2-0.4-0.2-0.8h1.7C83.6,41.4,83.6,41.4,83.6,41.3C83.6,41.3,83.6,41.3,83.6,41.3L83.6,41.3
			 M83.2,41.2h-1.3c0-0.2,0.1-0.4,0.2-0.5c0.1-0.1,0.3-0.2,0.5-0.2c0.2,0,0.3,0.1,0.5,0.2C83.1,40.8,83.2,41,83.2,41.2L83.2,41.2
			 M83.2,39.3L82.9,39l-0.7,0.6l0.2,0.2L83.2,39.3"/>
		<path class="st0" d="M86.4,42.8V41c0-0.1,0-0.2,0-0.3c0-0.1-0.1-0.2-0.1-0.3c-0.1-0.1-0.1-0.1-0.2-0.2c-0.1,0-0.2-0.1-0.4-0.1
			c-0.2,0-0.4,0.1-0.6,0.2c-0.2,0.1-0.3,0.3-0.3,0.4l0,0c0-0.1,0-0.2,0-0.3c0-0.1,0-0.2,0-0.3h-0.4v2.6h0.4v-1.2
			c0-0.2,0-0.3,0.1-0.4c0-0.1,0.1-0.2,0.2-0.3s0.2-0.2,0.2-0.2c0.1-0.1,0.2-0.1,0.3-0.1c0.2,0,0.3,0.1,0.4,0.2
			c0.1,0.1,0.1,0.3,0.1,0.5v1.7L86.4,42.8"/>
		<path class="st0" d="M89.1,42.8c0-0.1,0-0.2,0-0.4c0-0.1,0-0.3,0-0.4v-1c0-0.1,0-0.2,0-0.3c0-0.1-0.1-0.2-0.1-0.3
			c-0.1-0.1-0.2-0.1-0.3-0.2c-0.1,0-0.3-0.1-0.4-0.1c-0.2,0-0.3,0-0.5,0.1c-0.1,0-0.3,0.1-0.4,0.1l0,0.3c0.1-0.1,0.2-0.1,0.4-0.2
			c0.1,0,0.3-0.1,0.4-0.1c0.2,0,0.4,0.1,0.5,0.2c0.1,0.1,0.1,0.3,0.1,0.4v0.2c-0.3,0-0.5,0-0.7,0.1c-0.2,0-0.4,0.1-0.5,0.2
			c-0.1,0.1-0.2,0.2-0.3,0.3c-0.1,0.1-0.1,0.2-0.1,0.4c0,0.2,0.1,0.4,0.2,0.5c0.1,0.1,0.3,0.2,0.5,0.2c0.1,0,0.2,0,0.3,0
			c0.1,0,0.2-0.1,0.3-0.1c0.1-0.1,0.1-0.1,0.2-0.2c0.1-0.1,0.1-0.1,0.1-0.2h0c0,0.1,0,0.2,0,0.3s0,0.2,0,0.3H89.1L89.1,42.8
			 M88.7,41.7c0,0.1,0,0.2-0.1,0.3c0,0.1-0.1,0.2-0.2,0.3c-0.1,0.1-0.1,0.2-0.2,0.2c-0.1,0.1-0.2,0.1-0.3,0.1c-0.1,0-0.2,0-0.3-0.1
			c-0.1-0.1-0.1-0.2-0.1-0.3c0-0.1,0-0.1,0-0.2c0-0.1,0.1-0.1,0.2-0.2c0.1-0.1,0.2-0.1,0.4-0.1C88.2,41.6,88.4,41.6,88.7,41.7
			L88.7,41.7"/>
		<path class="st0" d="M92.2,43.2c0-0.2-0.1-0.4-0.2-0.5c-0.1-0.1-0.4-0.2-0.6-0.2h-0.5c-0.2,0-0.3,0-0.4-0.1
			c-0.1,0-0.1-0.1-0.1-0.2c0,0,0-0.1,0-0.1c0,0,0.1-0.1,0.1-0.1c0,0,0.1,0,0.2,0c0.1,0,0.1,0,0.2,0c0.2,0,0.3,0,0.5-0.1
			c0.1,0,0.3-0.1,0.3-0.2c0.1-0.1,0.2-0.2,0.2-0.3c0-0.1,0.1-0.2,0.1-0.4c0-0.1,0-0.2-0.1-0.3c0-0.1-0.1-0.2-0.2-0.2h0.5v-0.3h-0.9
			c-0.1,0-0.1,0-0.2,0c-0.1,0-0.1,0-0.2,0c-0.2,0-0.3,0-0.5,0.1c-0.1,0.1-0.3,0.1-0.3,0.2c-0.1,0.1-0.2,0.2-0.2,0.3
			c-0.1,0.1-0.1,0.2-0.1,0.4c0,0.2,0,0.3,0.1,0.4c0.1,0.1,0.2,0.2,0.3,0.3c-0.1,0-0.2,0.1-0.2,0.2c0,0.1-0.1,0.2-0.1,0.2
			c0,0.1,0,0.2,0.1,0.2c0,0.1,0.1,0.1,0.2,0.2c-0.1,0.1-0.2,0.1-0.3,0.3c-0.1,0.1-0.1,0.3-0.1,0.4c0,0.2,0.1,0.4,0.3,0.6
			c0.2,0.1,0.5,0.2,0.8,0.2c0.2,0,0.4,0,0.5-0.1c0.2,0,0.3-0.1,0.4-0.2c0.1-0.1,0.2-0.2,0.3-0.3C92.2,43.5,92.2,43.3,92.2,43.2
			L92.2,43.2 M91.7,41.2c0,0.2-0.1,0.4-0.2,0.5c-0.1,0.1-0.3,0.2-0.5,0.2c-0.2,0-0.4-0.1-0.5-0.2c-0.1-0.1-0.2-0.3-0.2-0.5
			c0-0.2,0.1-0.3,0.2-0.5c0.1-0.1,0.3-0.2,0.5-0.2c0.2,0,0.4,0.1,0.5,0.2C91.6,40.8,91.7,40.9,91.7,41.2L91.7,41.2 M91.8,43.3
			c0,0.2-0.1,0.3-0.2,0.4c-0.2,0.1-0.4,0.2-0.7,0.2c-0.1,0-0.2,0-0.3,0c-0.1,0-0.2-0.1-0.2-0.1c-0.1,0-0.1-0.1-0.2-0.2
			c0-0.1-0.1-0.1-0.1-0.2c0-0.1,0-0.2,0.1-0.3c0.1-0.1,0.2-0.2,0.3-0.2c0,0,0,0,0.1,0c0,0,0.1,0,0.1,0h0.5c0.2,0,0.3,0,0.4,0.1
			C91.8,43,91.8,43.1,91.8,43.3"/>
		<path class="st0" d="M94.8,41.3c0-0.1,0-0.3-0.1-0.4c0-0.1-0.1-0.2-0.2-0.3c-0.1-0.1-0.2-0.2-0.3-0.2c-0.1-0.1-0.3-0.1-0.5-0.1
			c-0.2,0-0.3,0-0.5,0.1c-0.1,0.1-0.3,0.2-0.4,0.3c-0.1,0.1-0.2,0.3-0.2,0.4c0,0.2-0.1,0.3-0.1,0.5c0,0.4,0.1,0.8,0.3,1
			c0.2,0.2,0.5,0.3,0.9,0.3c0.2,0,0.3,0,0.5,0c0.1,0,0.3-0.1,0.4-0.1l0-0.3c-0.1,0-0.2,0.1-0.3,0.1c-0.1,0-0.3,0-0.4,0
			c-0.3,0-0.5-0.1-0.7-0.3c-0.1-0.2-0.2-0.4-0.2-0.8h1.7C94.8,41.4,94.8,41.4,94.8,41.3C94.8,41.3,94.8,41.3,94.8,41.3L94.8,41.3
			 M94.4,41.2h-1.3c0-0.2,0.1-0.4,0.2-0.5c0.1-0.1,0.3-0.2,0.5-0.2c0.2,0,0.3,0.1,0.5,0.2C94.4,40.8,94.4,41,94.4,41.2"/>
		<path class="st0" d="M99.2,42.8V41c0-0.3-0.1-0.5-0.2-0.6c-0.1-0.1-0.3-0.2-0.6-0.2c-0.1,0-0.2,0-0.3,0.1s-0.2,0.1-0.3,0.2
			c-0.1,0.1-0.1,0.1-0.2,0.2c0,0.1-0.1,0.1-0.1,0.2c0,0,0-0.1,0-0.2c0-0.1-0.1-0.1-0.1-0.2c-0.1-0.1-0.1-0.1-0.2-0.2
			c-0.1,0-0.2-0.1-0.4-0.1c-0.2,0-0.4,0.1-0.6,0.2c-0.2,0.1-0.3,0.3-0.3,0.5l0,0c0-0.1,0-0.2,0-0.3c0-0.1,0-0.2,0-0.3h-0.4v2.6H96
			v-1.2c0-0.2,0-0.3,0.1-0.4c0-0.1,0.1-0.2,0.2-0.3s0.2-0.2,0.2-0.2c0.1-0.1,0.2-0.1,0.3-0.1c0.1,0,0.2,0,0.2,0
			c0.1,0,0.1,0.1,0.1,0.1c0,0.1,0.1,0.1,0.1,0.2c0,0.1,0,0.2,0,0.2v1.7h0.4v-1.2c0-0.2,0-0.3,0.1-0.4c0-0.1,0.1-0.2,0.2-0.3
			c0.1-0.1,0.2-0.2,0.2-0.2c0.1,0,0.2-0.1,0.3-0.1c0.1,0,0.2,0,0.2,0c0.1,0,0.1,0.1,0.1,0.1c0,0.1,0.1,0.1,0.1,0.2
			c0,0.1,0,0.2,0,0.3v1.7L99.2,42.8"/>
		<path class="st0" d="M102.1,41.3c0-0.1,0-0.3-0.1-0.4c0-0.1-0.1-0.2-0.2-0.3c-0.1-0.1-0.2-0.2-0.3-0.2c-0.1-0.1-0.3-0.1-0.5-0.1
			c-0.2,0-0.3,0-0.5,0.1c-0.1,0.1-0.3,0.2-0.4,0.3c-0.1,0.1-0.2,0.3-0.2,0.4c0,0.2-0.1,0.3-0.1,0.5c0,0.4,0.1,0.8,0.3,1
			c0.2,0.2,0.5,0.3,0.9,0.3c0.2,0,0.3,0,0.5,0c0.1,0,0.3-0.1,0.4-0.1l0-0.3c-0.1,0-0.2,0.1-0.3,0.1c-0.1,0-0.3,0-0.4,0
			c-0.3,0-0.5-0.1-0.7-0.3c-0.1-0.2-0.2-0.4-0.2-0.8h1.7C102.1,41.4,102.1,41.4,102.1,41.3C102.1,41.3,102.1,41.3,102.1,41.3
			L102.1,41.3 M101.7,41.2h-1.3c0-0.2,0.1-0.4,0.2-0.5c0.1-0.1,0.3-0.2,0.5-0.2c0.2,0,0.3,0.1,0.5,0.2
			C101.6,40.8,101.7,41,101.7,41.2"/>
		<path class="st0" d="M104.8,42.8V41c0-0.1,0-0.2,0-0.3c0-0.1-0.1-0.2-0.1-0.3c-0.1-0.1-0.1-0.1-0.2-0.2c-0.1,0-0.2-0.1-0.4-0.1
			c-0.2,0-0.4,0.1-0.6,0.2c-0.2,0.1-0.3,0.3-0.3,0.4l0,0c0-0.1,0-0.2,0-0.3c0-0.1,0-0.2,0-0.3h-0.4v2.6h0.4v-1.2
			c0-0.2,0-0.3,0.1-0.4c0-0.1,0.1-0.2,0.2-0.3c0.1-0.1,0.2-0.2,0.2-0.2c0.1-0.1,0.2-0.1,0.3-0.1c0.2,0,0.3,0.1,0.4,0.2
			c0.1,0.1,0.1,0.3,0.1,0.5v1.7L104.8,42.8"/>
		<path class="st0" d="M107.1,42.8v-0.3c-0.1,0-0.1,0-0.2,0c-0.1,0-0.1,0-0.2,0c-0.1,0-0.1,0-0.2,0c0,0-0.1,0-0.1-0.1
			c0,0,0-0.1-0.1-0.2c0-0.1,0-0.2,0-0.3v-1.4h0.8v-0.3h-0.8v-1l-0.4,0.1v0.8h-0.6v0.3h0.6v1.5c0,0.1,0,0.2,0,0.3
			c0,0.1,0.1,0.2,0.1,0.2c0.1,0.1,0.1,0.1,0.2,0.1c0.1,0,0.2,0,0.3,0c0.1,0,0.2,0,0.2,0S107,42.8,107.1,42.8"/>
		<path class="st0" d="M35.4,49.9v-3.8H35v1.2c-0.1,0-0.2,0-0.2,0c-0.1,0-0.2,0-0.2,0c-0.2,0-0.4,0-0.5,0.1
			c-0.2,0.1-0.3,0.2-0.4,0.3c-0.1,0.1-0.2,0.3-0.3,0.4c-0.1,0.2-0.1,0.4-0.1,0.6c0,0.4,0.1,0.7,0.2,0.9c0.2,0.2,0.4,0.3,0.7,0.3
			c0.2,0,0.4-0.1,0.5-0.2c0.2-0.1,0.3-0.3,0.3-0.4l0,0c0,0.1,0,0.2,0,0.3c0,0.1,0,0.2,0,0.3H35.4L35.4,49.9 M35,48.6
			c0,0.1,0,0.2,0,0.4c0,0.1-0.1,0.2-0.1,0.3c-0.1,0.1-0.1,0.2-0.2,0.3c-0.1,0.1-0.2,0.1-0.3,0.1c-0.2,0-0.4-0.1-0.5-0.2
			c-0.1-0.2-0.1-0.4-0.1-0.7c0-0.4,0.1-0.7,0.2-0.8c0.2-0.2,0.4-0.3,0.6-0.3c0.2,0,0.3,0,0.5,0.1L35,48.6"/>
		<path class="st0" d="M38.4,49.9v-2.6H38v1.2c0,0.2,0,0.3-0.1,0.4c0,0.1-0.1,0.2-0.2,0.3c-0.1,0.1-0.2,0.2-0.2,0.2
			c-0.1,0.1-0.2,0.1-0.3,0.1c-0.2,0-0.3-0.1-0.4-0.2c-0.1-0.1-0.1-0.3-0.1-0.5v-1.7h-0.4v1.8c0,0.1,0,0.2,0,0.3
			c0,0.1,0.1,0.2,0.1,0.3c0.1,0.1,0.1,0.1,0.2,0.2c0.1,0,0.2,0.1,0.4,0.1c0.2,0,0.4-0.1,0.6-0.2c0.2-0.1,0.3-0.3,0.3-0.4l0,0
			c0,0.1,0,0.2,0,0.3c0,0.1,0,0.2,0,0.3L38.4,49.9"/>
		<path class="st0" d="M41.8,49.9v-0.3c-0.1,0-0.1,0-0.2,0c-0.1,0-0.1,0-0.2,0c-0.1,0-0.1,0-0.2,0c0,0-0.1,0-0.1-0.1
			c0,0,0-0.1-0.1-0.2c0-0.1,0-0.2,0-0.3v-1.4h0.8v-0.3H41v-1l-0.4,0.1v0.8h-0.6v0.3h0.6v1.5c0,0.1,0,0.2,0,0.3
			c0,0.1,0.1,0.2,0.1,0.2c0.1,0.1,0.1,0.1,0.2,0.1c0.1,0,0.2,0,0.3,0c0.1,0,0.2,0,0.2,0C41.6,50,41.7,50,41.8,49.9"/>
		<path class="st0" d="M44.4,48.4c0-0.1,0-0.3-0.1-0.4c0-0.1-0.1-0.2-0.2-0.3c-0.1-0.1-0.2-0.2-0.3-0.2c-0.1-0.1-0.3-0.1-0.5-0.1
			c-0.2,0-0.3,0-0.5,0.1c-0.1,0.1-0.3,0.2-0.4,0.3c-0.1,0.1-0.2,0.3-0.2,0.4c0,0.2-0.1,0.3-0.1,0.5c0,0.4,0.1,0.8,0.3,1
			c0.2,0.2,0.5,0.3,0.9,0.3c0.2,0,0.3,0,0.5,0c0.1,0,0.3-0.1,0.4-0.1l0-0.3c-0.1,0-0.2,0.1-0.3,0.1c-0.1,0-0.3,0-0.4,0
			c-0.3,0-0.5-0.1-0.7-0.3c-0.1-0.2-0.2-0.4-0.2-0.8h1.7C44.4,48.6,44.4,48.5,44.4,48.4C44.4,48.5,44.4,48.4,44.4,48.4L44.4,48.4
			 M44,48.3h-1.3c0-0.2,0.1-0.4,0.2-0.5c0.1-0.1,0.3-0.2,0.5-0.2c0.2,0,0.3,0.1,0.5,0.2C43.9,47.9,44,48.1,44,48.3"/>
		<path class="st0" d="M46.4,47.3c-0.1,0-0.3,0-0.4,0c-0.1,0-0.2,0.1-0.3,0.2c-0.1,0.1-0.1,0.1-0.2,0.2c0,0.1-0.1,0.2-0.1,0.3l0,0
			c0-0.1,0-0.2,0-0.3s0-0.2,0-0.3h-0.4v2.6h0.4v-1c0-0.4,0.1-0.8,0.2-1c0.1-0.2,0.3-0.3,0.6-0.2L46.4,47.3"/>
		<path class="st0" d="M48.2,47.3c-0.1,0-0.3,0-0.4,0c-0.1,0-0.2,0.1-0.3,0.2c-0.1,0.1-0.1,0.1-0.2,0.2c0,0.1-0.1,0.2-0.1,0.3l0,0
			c0-0.1,0-0.2,0-0.3c0-0.1,0-0.2,0-0.3H47v2.6h0.4v-1c0-0.4,0.1-0.8,0.2-1c0.1-0.2,0.3-0.3,0.6-0.2L48.2,47.3"/>
		<path class="st0" d="M49.3,46.7c0-0.1,0-0.1-0.1-0.2c-0.1-0.1-0.1-0.1-0.2-0.1c-0.1,0-0.1,0-0.2,0.1c-0.1,0.1-0.1,0.1-0.1,0.2
			c0,0.1,0,0.1,0.1,0.2c0.1,0,0.1,0.1,0.2,0.1c0.1,0,0.1,0,0.2-0.1C49.3,46.8,49.3,46.7,49.3,46.7L49.3,46.7 M49.2,49.9v-2.6h-0.4
			v2.6H49.2"/>
		<path class="st0" d="M51.5,49.9v-0.3c-0.1,0-0.1,0-0.2,0c-0.1,0-0.1,0-0.2,0c-0.1,0-0.1,0-0.2,0c0,0-0.1,0-0.1-0.1
			c0,0,0-0.1-0.1-0.2c0-0.1,0-0.2,0-0.3v-1.4h0.8v-0.3h-0.8v-1l-0.4,0.1v0.8h-0.6v0.3h0.6v1.5c0,0.1,0,0.2,0,0.3
			c0,0.1,0.1,0.2,0.1,0.2c0.1,0.1,0.1,0.1,0.2,0.1c0.1,0,0.2,0,0.3,0c0.1,0,0.2,0,0.2,0C51.3,50,51.4,50,51.5,49.9"/>
		<path class="st0" d="M54.3,48.6c0-0.2,0-0.4-0.1-0.6c-0.1-0.2-0.1-0.3-0.2-0.4c-0.1-0.1-0.2-0.2-0.4-0.2c-0.1,0-0.3-0.1-0.4-0.1
			c-0.2,0-0.4,0-0.5,0.1c-0.2,0.1-0.3,0.2-0.4,0.3c-0.1,0.1-0.2,0.3-0.2,0.4s-0.1,0.3-0.1,0.5c0,0.2,0,0.4,0.1,0.6
			c0.1,0.2,0.1,0.3,0.2,0.4c0.1,0.1,0.2,0.2,0.4,0.2C52.7,50,52.9,50,53,50c0.2,0,0.4,0,0.5-0.1c0.2-0.1,0.3-0.2,0.4-0.3
			c0.1-0.1,0.2-0.3,0.2-0.4C54.2,49,54.3,48.8,54.3,48.6L54.3,48.6 M53.9,48.7c0,0.2,0,0.3-0.1,0.5c0,0.1-0.1,0.2-0.2,0.3
			c-0.1,0.1-0.2,0.1-0.2,0.2c-0.1,0-0.2,0.1-0.3,0.1c-0.3,0-0.4-0.1-0.6-0.3c-0.1-0.2-0.2-0.4-0.2-0.8c0-0.2,0-0.3,0.1-0.4
			c0-0.1,0.1-0.2,0.2-0.3c0.1-0.1,0.2-0.1,0.2-0.2c0.1,0,0.2-0.1,0.3-0.1c0.3,0,0.4,0.1,0.6,0.3C53.8,48.1,53.9,48.3,53.9,48.7"/>
		<path class="st0" d="M55.5,46.7c0-0.1,0-0.1-0.1-0.2c-0.1-0.1-0.1-0.1-0.2-0.1c-0.1,0-0.1,0-0.2,0.1c-0.1,0.1-0.1,0.1-0.1,0.2
			c0,0.1,0,0.1,0.1,0.2c0.1,0,0.1,0.1,0.2,0.1c0.1,0,0.1,0,0.2-0.1C55.4,46.8,55.5,46.7,55.5,46.7L55.5,46.7 M55.4,49.9v-2.6H55v2.6
			H55.4"/>
		<path class="st0" d="M57.6,47.3c-0.1,0-0.3,0-0.4,0c-0.1,0-0.2,0.1-0.3,0.2c-0.1,0.1-0.1,0.1-0.2,0.2c0,0.1-0.1,0.2-0.1,0.3l0,0
			c0-0.1,0-0.2,0-0.3s0-0.2,0-0.3h-0.4v2.6h0.4v-1c0-0.4,0.1-0.8,0.2-1c0.1-0.2,0.3-0.3,0.6-0.2L57.6,47.3"/>
		<path class="st0" d="M60.1,48.4c0-0.1,0-0.3-0.1-0.4c0-0.1-0.1-0.2-0.2-0.3c-0.1-0.1-0.2-0.2-0.3-0.2c-0.1-0.1-0.3-0.1-0.5-0.1
			c-0.2,0-0.3,0-0.5,0.1c-0.1,0.1-0.3,0.2-0.4,0.3c-0.1,0.1-0.2,0.3-0.2,0.4c0,0.2-0.1,0.3-0.1,0.5c0,0.4,0.1,0.8,0.3,1
			c0.2,0.2,0.5,0.3,0.9,0.3c0.2,0,0.3,0,0.5,0c0.1,0,0.3-0.1,0.4-0.1l0-0.3c-0.1,0-0.2,0.1-0.3,0.1c-0.1,0-0.3,0-0.4,0
			c-0.3,0-0.5-0.1-0.7-0.3c-0.1-0.2-0.2-0.4-0.2-0.8h1.7C60.1,48.6,60.1,48.5,60.1,48.4C60.1,48.5,60.1,48.4,60.1,48.4L60.1,48.4
			 M59.7,48.3h-1.3c0-0.2,0.1-0.4,0.2-0.5c0.1-0.1,0.3-0.2,0.5-0.2c0.2,0,0.3,0.1,0.5,0.2C59.6,47.9,59.7,48.1,59.7,48.3"/>
	</g>
</g>
</svg>
