<svg xmlns="http://www.w3.org/2000/svg" width="206.778" height="110.753" viewBox="0 0 206.778 110.753">
  <g id="Сгруппировать_823" data-name="Сгруппировать 823" transform="translate(-109.66 -14403.097)">
    <path id="Контур_4546" data-name="Контур 4546" d="M246.781,14445.3H233.946c-.392-2.037-.8-4.105-1.186-6.178-.962-5.176-1.9-10.356-2.879-15.531a17.038,17.038,0,0,0-.666-2.459c-1-2.854-2.567-5.284-5.8-5.762-3.548-.525-6.822.252-9.22,3.181a11.425,11.425,0,0,0-2.416,9.3c.836,5.357,1.9,10.681,2.861,16.019.075.417.128.839.211,1.381h-12.9c-.492-2.643-.992-5.349-1.5-8.054-.522-2.77-1.034-5.54-1.591-8.3a12.709,12.709,0,0,0-.7-2.277c-1.353-3.3-3.551-5.584-7.357-5.646a9.021,9.021,0,0,0-8.883,5.352c-1.618,3.335-1.27,6.82-.591,10.314.554,2.853,1.052,5.715,1.592,8.664H170.123c-.537-2.812-1.1-5.657-1.621-8.51-1.039-5.648-2.049-11.3-3.087-16.954-.681-3.706.57-5.691,4.207-6.578a21.637,21.637,0,0,1,2.35-.444c2.842-.36,4.2.557,5.851,3.979a17.788,17.788,0,0,1,13.84-7.939c5.867-.485,10.8,1.208,14.647,5.976a31.049,31.049,0,0,1,2.68-4.806c5.928-8.028,22.333-11,29.919,1.682a34.3,34.3,0,0,1,3.965,11.716q1.892,10.361,3.8,20.719C246.739,14444.5,246.742,14444.865,246.781,14445.3Z" fill="#fff"/>
    <path id="Контур_4547" data-name="Контур 4547" d="M176.554,14480.024a5.53,5.53,0,0,1,.717-.1c3.62-.006,7.241,0,11.041,0,.42,2.212.832,4.384,1.244,6.555.456,2.4.9,4.806,1.561,7.161a13.125,13.125,0,0,0,2.032,4.313,7.689,7.689,0,0,0,7.674,3.236,36.82,36.82,0,0,0,3.917-.74c4.249-1.052,6.37-3.738,6.5-8.116.1-3.338-.827-6.535-1.333-9.789-.128-.828-.285-1.652-.442-2.555h11.691a37.808,37.808,0,0,1,.988,4.762,17.235,17.235,0,0,0,2.178,5.794,7.073,7.073,0,0,0,6.956,3.352,31.245,31.245,0,0,0,5.024-.888,7.181,7.181,0,0,0,5.7-7.162,27.386,27.386,0,0,0-.632-5.813h11.777c2.141,9.019-.255,22.025-14.179,25.111a32.652,32.652,0,0,1-7.258,1.017c-4.664-.026-7.062-.865-11.431-4.113-.088.036-.233.051-.254.11-2.182,6.07-6.856,9.165-12.831,10.582-4.053.961-8.153,1.626-12.326.6-7.1-1.741-11.415-6.462-14.019-13.029-1.764-4.445-2.172-9.2-3.118-13.832C177.3,14484.35,176.95,14482.209,176.554,14480.024Z" fill="#fff"/>
    <path id="Контур_4548" data-name="Контур 4548" d="M109.66,14454.689h3.164l2.075,7.855c.985-2.653,1.409-5.217,2.164-7.766a19.727,19.727,0,0,1,3.217-.165v14.966a9.232,9.232,0,0,1-2.542.045v-7.529l-.358-.036q-.672,2.665-1.344,5.337H113.9l-1.465-5.809-.219.021v7.987H109.66Z" fill="#fff"/>
    <path id="Контур_4549" data-name="Контур 4549" d="M136.332,14469.588a8.276,8.276,0,0,1-2.67-.006c-.9-2.621-1.815-5.261-2.726-7.9l-.176.03v7.846a8.486,8.486,0,0,1-2.549.076v-14.851a7.977,7.977,0,0,1,2.589-.095q1.371,4.031,2.743,8.074l.224-.038v-7.944a8.923,8.923,0,0,1,2.565-.1Z" fill="#fff"/>
    <path id="Контур_4550" data-name="Контур 4550" d="M281.97,14469.652h-2.8V14454.8a7.875,7.875,0,0,1,2.729-.119v5.955h2.467v-5.876a8.58,8.58,0,0,1,2.869-.014v14.8a14.8,14.8,0,0,1-2.8.165v-6.258a5.879,5.879,0,0,0-2.47-.092Z" fill="#fff"/>
    <path id="Контур_4551" data-name="Контур 4551" d="M188.589,14469.6a3.753,3.753,0,0,1-1.805-.055c-1.131-3-2.281-6.06-3.431-9.116l-.329.055v9.052a3.255,3.255,0,0,1-1.76.049v-14.826a3.338,3.338,0,0,1,1.754-.007c1.13,3.046,2.28,6.145,3.43,9.241l.35-.074v-9.071a2.756,2.756,0,0,1,1.791-.115Z" fill="#fff"/>
    <path id="Контур_4552" data-name="Контур 4552" d="M266.5,14459.734h-2.3c-.442-.453-.14-1.033-.313-1.523-.216-.612-.553-1.078-1.25-.983a1.217,1.217,0,0,0-1.052,1.382,2.362,2.362,0,0,0,1.134,1.821,13.708,13.708,0,0,1,3.4,3.1,4.306,4.306,0,0,1,.023,4.938,4.357,4.357,0,0,1-4.756,1.316c-1.858-.592-2.634-2.024-2.382-4.5h2.391c.38.316.126.856.3,1.283a1.23,1.23,0,0,0,2.4-.353,2.195,2.195,0,0,0-.972-1.905c-1.013-.859-2.116-1.632-3.037-2.579a4.1,4.1,0,0,1,1.786-6.976C264.383,14454.121,267.274,14456.19,266.5,14459.734Z" fill="#fff"/>
    <path id="Контур_4553" data-name="Контур 4553" d="M289.654,14469.586v-14.835H296.7a3.756,3.756,0,0,1,0,2.4h-4.015a15.27,15.27,0,0,0-.16,3.427c1.1.342,2.221-.007,3.375.227a6.265,6.265,0,0,1,.123,2.425H292.61v3.848H296.7a5.193,5.193,0,0,1,.158,2.508Z" fill="#fff"/>
    <path id="Контур_4554" data-name="Контур 4554" d="M316.216,14454.743a5.287,5.287,0,0,1,.069,2.427h-4.127a19.577,19.577,0,0,0-.126,3.5h3.351a6.728,6.728,0,0,1,.138,2.573h-3.412v3.849h4.126a5.623,5.623,0,0,1,.122,2.5h-7.149v-14.852Z" fill="#fff"/>
    <path id="Контур_4555" data-name="Контур 4555" d="M141.952,14457.157v3.563h3.4v2.407c-1.02.377-2.147.014-3.32.212a18.747,18.747,0,0,0-.133,3.638c1.409.346,2.849-.035,4.291.247a7.114,7.114,0,0,1,.047,2.337h-7.185v-14.787h7.012a4.285,4.285,0,0,1,.08,2.383Z" fill="#fff"/>
    <path id="Контур_4556" data-name="Контур 4556" d="M176.3,14454.751a3.363,3.363,0,0,1,1.892.014c0,1.822,0,3.672,0,5.522,0,2.076.058,4.155-.026,6.229a3.625,3.625,0,0,1-3.489,3.5,3.517,3.517,0,0,1-3.835-3.088c-.144-4.027-.044-8.064-.044-12.069a2.664,2.664,0,0,1,1.776-.155c.4.478.233,1.032.236,1.542.016,3.089,0,6.177.01,9.265.005,1.772.552,2.583,1.686,2.556,1.1-.027,1.622-.852,1.626-2.633.006-3.034-.006-6.069.008-9.1A2.887,2.887,0,0,1,176.3,14454.751Z" fill="#fff"/>
    <path id="Контур_4557" data-name="Контур 4557" d="M200.076,14465.252h1.649c.068.506.092.984.2,1.442a1.575,1.575,0,0,0,1.852,1.362,1.67,1.67,0,0,0,1.543-1.89,2.869,2.869,0,0,0-1.164-2.181c-.971-.83-2-1.605-2.9-2.5a4.171,4.171,0,0,1-.31-5.76,3.735,3.735,0,0,1,4.282-.681c1.39.753,1.991,2.291,1.66,4.278a2.914,2.914,0,0,1-1.619.043,12.282,12.282,0,0,0-.149-1.372,1.566,1.566,0,0,0-1.656-1.418,1.635,1.635,0,0,0-1.633,1.637,2.564,2.564,0,0,0,1.1,2.346,39.716,39.716,0,0,1,3.013,2.612c2.061,2.176,1.639,5.375-.786,6.479a3.543,3.543,0,0,1-3.777-.359A3.768,3.768,0,0,1,200.076,14465.252Z" fill="#fff"/>
    <path id="Контур_4558" data-name="Контур 4558" d="M214.764,14464.961a3.175,3.175,0,0,1,1.744.068c.207,1.568.172,3.094-1.215,4.183a3.563,3.563,0,0,1-3.754.5,3.234,3.234,0,0,1-2.219-3.177c-.007-2.714-.023-5.429,0-8.142a3.516,3.516,0,0,1,3.664-3.74,3.419,3.419,0,0,1,3.522,3.672c.007.314-.027.63-.042.954a2.265,2.265,0,0,1-1.675.06c-.278-.422-.136-.867-.205-1.28a1.519,1.519,0,0,0-1.575-1.475,1.484,1.484,0,0,0-1.635,1.427q-.12,4.307,0,8.616a1.5,1.5,0,0,0,1.62,1.45,1.578,1.578,0,0,0,1.646-1.429A12.058,12.058,0,0,0,214.764,14464.961Z" fill="#fff"/>
    <path id="Контур_4559" data-name="Контур 4559" d="M152.847,14469.605h-2.966v-12.337l-2.256-.111a4.133,4.133,0,0,1-.1-2.417h7.414a4.9,4.9,0,0,1,.109,2.291c-.674.342-1.381.069-2.2.248Z" fill="#fff"/>
    <path id="Контур_4560" data-name="Контур 4560" d="M158.205,14457.267l-2.315-.125a4.2,4.2,0,0,1-.006-2.424h7.407a5.64,5.64,0,0,1,.047,2.315c-.7.361-1.412.031-2.217.284v12.181a10.472,10.472,0,0,1-2.916.178Z" fill="#fff"/>
    <path id="Контур_4561" data-name="Контур 4561" d="M197.278,14461.16v1.774h-3.453v4.813h4.158a3.36,3.36,0,0,1,.144,1.82h-6.272v-14.8h6.119c.371.479.213,1.038.1,1.673-1.358.3-2.743,0-4.22.187v4.3C194.882,14461.258,196.067,14460.86,197.278,14461.16Z" fill="#fff"/>
    <path id="Контур_4562" data-name="Контур 4562" d="M243.932,14469.663v-14.92h2.77v14.786A9.345,9.345,0,0,1,243.932,14469.663Z" fill="#fff"/>
    <path id="Контур_4563" data-name="Контур 4563" d="M125.783,14469.618H123.07v-14.894h2.713Z" fill="#fff"/>
    <path id="Контур_4564" data-name="Контур 4564" d="M305.409,14463.226c.346-.385.656-.68.909-1.018,1.963-2.626.591-6.979-2.457-7.463a31.406,31.406,0,0,0-4.882-.045v14.966a8.333,8.333,0,0,0,2.876-.2v-5.506l.513-.162c1.373,1.65,1.168,4.023,2.2,5.871a10.223,10.223,0,0,0,2.74-.142C306.652,14467.353,306.027,14465.278,305.409,14463.226Zm-1.5-2.549c-.4.793-1.232.6-2.086.467v-3.813c.794-.2,1.645-.383,2.079.447A3.163,3.163,0,0,1,303.912,14460.677Z" fill="#fff"/>
    <path id="Контур_4565" data-name="Контур 4565" d="M240.372,14462.127a11,11,0,0,0,.777-.923c1.7-2.561-.008-6.317-3-6.539-1.313-.1-2.64-.016-4.1-.016v15.029c1.536,0,2.966.07,4.386-.017a3.611,3.611,0,0,0,3.518-3.62C242.042,14464.5,241.891,14463.061,240.372,14462.127Zm-3.627-4.875c1.965,0,2.219.29,2.13,2.206-.066,1.437-.365,1.647-2.149,1.459A17.355,17.355,0,0,1,236.745,14457.252Zm2.043,9.253c-.4.832-1.217.65-2.089.534v-3.654c.755-.142,1.538-.338,2,.4A2.776,2.776,0,0,1,238.788,14466.5Z" fill="#fff"/>
    <path id="Контур_4566" data-name="Контур 4566" d="M256.935,14458.206a3.764,3.764,0,0,0-3.947-3.559c-2.226-.068-4.1,1.246-4.2,3.264-.145,2.914-.146,5.846,0,8.76.1,2.085,2.047,3.448,4.311,3.329a3.755,3.755,0,0,0,3.843-3.666c.048-1.326.009-2.656.009-3.984C256.947,14460.968,257,14459.584,256.935,14458.206Zm-2.925,7.911c-.02.686-.278,1.281-1.089,1.312-.884.033-1.247-.571-1.257-1.326q-.051-3.819.008-7.639a1.168,1.168,0,1,1,2.331.014c.037,1.325.011,2.652.011,3.979h0C254.019,14463.677,254.044,14464.9,254.01,14466.117Z" fill="#fff"/>
    <path id="Контур_4567" data-name="Контур 4567" d="M276.976,14458.257a3.633,3.633,0,0,0-3.282-3.547c-1.563-.155-3.155-.032-4.79-.032v14.9h2.819v-3.733c.467,0,.73,0,.993,0,2.735-.057,4.225-1.5,4.318-4.234A28.814,28.814,0,0,0,276.976,14458.257Zm-5.181,4.928v-5.84c1.976-.23,2.274.02,2.3,1.918q.015.958,0,1.914C274.073,14463.113,273.817,14463.341,271.8,14463.185Z" fill="#fff"/>
    <path id="Контур_4568" data-name="Контур 4568" d="M222.343,14470a3.5,3.5,0,0,0,3.9-3.165c.115-3.028.118-6.067-.011-9.094a3.682,3.682,0,0,0-7.306.307c-.045,1.382-.008,2.767-.01,4.15,0,1.436-.03,2.873.006,4.309A3.5,3.5,0,0,0,222.343,14470Zm-1.427-11.516c.006-1.11.517-1.893,1.693-1.9,1.207,0,1.636.85,1.663,1.922.033,1.278.008,2.559.009,3.836s.006,2.559,0,3.837c-.007,1.125-.533,1.873-1.694,1.88-1.2.008-1.665-.8-1.671-1.9Q220.9,14462.319,220.916,14458.484Z" fill="#fff"/>
  </g>
</svg>
