<?xml version="1.0" encoding="utf-8"?>
<!-- Generator: Adobe Illustrator 24.2.3, SVG Export Plug-In . SVG Version: 6.00 Build 0)  -->
<svg version="1.1" xmlns="http://www.w3.org/2000/svg" xmlns:xlink="http://www.w3.org/1999/xlink" x="0px" y="0px" width="93.4px"
	 height="50px" viewBox="0 0 93.4 50" style="enable-background:new 0 0 93.4 50;" xml:space="preserve">
<style type="text/css">
	.st0{fill:#FFFFFF;}
</style>
<g id="Calque_1">
</g>
<g id="Mode_Isolation">
	<g>
		<path class="st0" d="M61.9,19.1c-1.9,0-3.8,0-5.8,0c-0.2-0.9-0.4-1.9-0.5-2.8c-0.4-2.3-0.9-4.7-1.3-7c-0.1-0.4-0.2-0.7-0.3-1.1
			c-0.5-1.3-1.2-2.4-2.6-2.6c-1.6-0.2-3.1,0.1-4.2,1.4c-1,1.2-1.3,2.7-1.1,4.2c0.4,2.4,0.9,4.8,1.3,7.2c0,0.2,0.1,0.4,0.1,0.6
			c-1.9,0-3.8,0-5.8,0c-0.2-1.2-0.4-2.4-0.7-3.6c-0.2-1.3-0.5-2.5-0.7-3.7c-0.1-0.4-0.2-0.7-0.3-1c-0.6-1.5-1.6-2.5-3.3-2.5
			c-1.8,0-3.2,0.8-4,2.4c-0.7,1.5-0.6,3.1-0.3,4.7c0.3,1.3,0.5,2.6,0.7,3.9c-2,0-3.8,0-5.8,0c-0.2-1.3-0.5-2.6-0.7-3.8
			c-0.5-2.6-0.9-5.1-1.4-7.7c-0.3-1.7,0.3-2.6,1.9-3c0.3-0.1,0.7-0.2,1.1-0.2c1.3-0.2,1.9,0.3,2.6,1.8C32.3,4,34.4,2.8,37,2.6
			c2.6-0.2,4.9,0.5,6.6,2.7c0.4-0.8,0.7-1.5,1.2-2.2c2.7-3.6,10.1-5,13.5,0.8c1,1.6,1.5,3.4,1.8,5.3c0.6,3.1,1.1,6.2,1.7,9.4
			C61.9,18.7,61.9,18.9,61.9,19.1z"/>
		<path class="st0" d="M30.2,34.7c0.1,0,0.2,0,0.3,0c1.6,0,3.3,0,5,0c0.2,1,0.4,2,0.6,3c0.2,1.1,0.4,2.2,0.7,3.2
			c0.2,0.7,0.5,1.4,0.9,1.9c0.9,1.2,2,1.7,3.5,1.5c0.6-0.1,1.2-0.2,1.8-0.3c1.9-0.5,2.9-1.7,2.9-3.7c0-1.5-0.4-3-0.6-4.4
			c-0.1-0.4-0.1-0.7-0.2-1.2c1.8,0,3.5,0,5.3,0c0.2,0.7,0.3,1.4,0.4,2.1c0.2,0.9,0.5,1.8,1,2.6c0.7,1.2,1.8,1.6,3.1,1.5
			c0.8-0.1,1.5-0.2,2.3-0.4c1.6-0.4,2.5-1.6,2.6-3.2c0-0.9-0.1-1.7-0.3-2.6c1.8,0,3.6,0,5.3,0c1,4.1-0.1,9.9-6.4,11.3
			c-1.1,0.2-2.2,0.5-3.3,0.5c-2.1,0-3.2-0.4-5.2-1.9c0,0-0.1,0-0.1,0c-1,2.7-3.1,4.1-5.8,4.8c-1.8,0.4-3.7,0.7-5.6,0.3
			c-3.2-0.8-5.2-2.9-6.3-5.9c-0.8-2-1-4.2-1.4-6.2C30.5,36.7,30.4,35.7,30.2,34.7z"/>
		<path class="st0" d="M0,23.3c0.5,0,0.9,0,1.4,0c0.3,1.1,0.6,2.3,0.9,3.5c0.4-1.2,0.6-2.4,1-3.5c0.5-0.1,0.9,0,1.5-0.1
			c0,2.3,0,4.5,0,6.8c-0.4,0.1-0.7,0-1.1,0c0-1.1,0-2.3,0-3.4c-0.1,0-0.1,0-0.2,0c-0.2,0.8-0.4,1.6-0.6,2.4c-0.3,0-0.6,0-1,0
			c-0.2-0.9-0.4-1.7-0.7-2.6c0,0-0.1,0-0.1,0c0,1.2,0,2.4,0,3.6c-0.4,0-0.8,0-1.2,0C0,27.8,0,25.6,0,23.3z"/>
		<path class="st0" d="M12,30c-0.4,0.1-0.8,0.1-1.2,0c-0.4-1.2-0.8-2.4-1.2-3.6c0,0-0.1,0-0.1,0c0,1.2,0,2.4,0,3.5
			c-0.4,0.1-0.7,0.1-1.2,0c0-2.2,0-4.4,0-6.7c0.4-0.1,0.7-0.1,1.2,0c0.4,1.2,0.8,2.4,1.2,3.6c0,0,0.1,0,0.1,0c0-1.2,0-2.4,0-3.6
			c0.4-0.1,0.7-0.1,1.2,0C12,25.5,12,27.7,12,30z"/>
		<path class="st0" d="M77.8,30c-0.5,0-0.8,0-1.3,0c0-2.2,0-4.4,0-6.7c0.4-0.1,0.8,0,1.2-0.1c0,0.9,0,1.8,0,2.7c0.4,0,0.7,0,1.1,0
			c0-0.9,0-1.8,0-2.7c0.5-0.1,0.9-0.1,1.3,0c0,2.2,0,4.4,0,6.7c-0.4,0.1-0.8,0-1.3,0.1c0-1,0-1.9,0-2.8c-0.4-0.1-0.7-0.1-1.1,0
			C77.8,28.1,77.8,29.1,77.8,30z"/>
		<path class="st0" d="M35.6,30c-0.3,0-0.5,0.1-0.8,0c-0.5-1.4-1-2.7-1.5-4.1c0,0-0.1,0-0.1,0c0,1.4,0,2.7,0,4.1
			c-0.3,0.1-0.5,0.1-0.8,0c0-2.2,0-4.5,0-6.7c0.3-0.1,0.5-0.1,0.8,0c0.5,1.4,1,2.8,1.5,4.2c0.1,0,0.1,0,0.2,0c0-1.4,0-2.7,0-4.1
			c0.3-0.1,0.5-0.1,0.8-0.1C35.6,25.5,35.6,27.8,35.6,30z"/>
		<path class="st0" d="M70.8,25.6c-0.4,0-0.7,0-1,0c-0.2-0.2-0.1-0.5-0.1-0.7c-0.1-0.3-0.2-0.5-0.6-0.4c-0.3,0-0.5,0.3-0.5,0.6
			c0,0.4,0.2,0.6,0.5,0.8c0.5,0.4,1.1,0.8,1.5,1.4c0.5,0.7,0.5,1.6,0,2.2c-0.5,0.6-1.3,0.9-2.1,0.6c-0.8-0.3-1.2-0.9-1.1-2
			c0.3,0,0.7,0,1.1,0c0.2,0.1,0.1,0.4,0.1,0.6c0.1,0.3,0.3,0.4,0.6,0.4c0.3,0,0.4-0.2,0.5-0.5c0-0.4-0.2-0.6-0.4-0.9
			c-0.5-0.4-1-0.7-1.4-1.2c-1.1-1.1-0.6-2.8,0.8-3.1C69.9,23,71.2,24,70.8,25.6z"/>
		<path class="st0" d="M81.3,30c0-2.2,0-4.4,0-6.7c1.1,0,2.1,0,3.2,0c0.1,0.3,0.1,0.7,0,1.1c-0.6,0-1.2,0-1.8,0
			c-0.1,0.5,0,1-0.1,1.5c0.5,0.2,1,0,1.5,0.1c0.1,0.3,0.1,0.7,0.1,1.1c-0.5,0-1,0-1.5,0c0,0.6,0,1.1,0,1.7c0.6,0,1.2,0,1.8,0
			c0.2,0.4,0.1,0.7,0.1,1.1C83.4,30,82.4,30,81.3,30z"/>
		<path class="st0" d="M93.3,23.3c0.1,0.4,0.1,0.7,0,1.1c-0.6,0-1.2,0-1.9,0c-0.1,0.5,0,1-0.1,1.6c0.5,0,1,0,1.5,0
			c0.1,0.4,0.1,0.8,0.1,1.2c-0.5,0-1,0-1.5,0c0,0.6,0,1.1,0,1.7c0.6,0,1.2,0,1.9,0c0.1,0.4,0.1,0.7,0.1,1.1c-1.1,0-2.1,0-3.2,0
			c0-2.2,0-4.4,0-6.7C91.1,23.3,92.2,23.3,93.3,23.3z"/>
		<path class="st0" d="M14.6,24.4c0,0.6,0,1.1,0,1.6c0.5,0,1,0,1.5,0c0,0.4,0,0.7,0,1.1c-0.5,0.2-1,0-1.5,0.1
			c-0.1,0.5,0,1.1-0.1,1.6c0.6,0.2,1.3,0,1.9,0.1c0.1,0.3,0.1,0.7,0,1.1c-1.1,0-2.1,0-3.2,0c0-2.2,0-4.4,0-6.7c1,0,2.1,0,3.2,0
			c0.2,0.3,0.1,0.7,0,1.1C15.8,24.4,15.2,24.4,14.6,24.4z"/>
		<path class="st0" d="M30.1,23.3c0.3-0.1,0.5-0.1,0.9,0c0,0.8,0,1.7,0,2.5c0,0.9,0,1.9,0,2.8c0,0.9-0.7,1.5-1.6,1.6
			c-0.8,0-1.7-0.5-1.7-1.4c-0.1-1.8,0-3.6,0-5.4c0.3-0.2,0.5-0.1,0.8-0.1c0.2,0.2,0.1,0.5,0.1,0.7c0,1.4,0,2.8,0,4.2
			c0,0.8,0.2,1.2,0.8,1.2c0.5,0,0.7-0.4,0.7-1.2c0-1.4,0-2.7,0-4.1C30,23.8,30,23.6,30.1,23.3z"/>
		<path class="st0" d="M40.8,28.1c0.3,0,0.5,0,0.7,0c0,0.2,0,0.4,0.1,0.7c0.1,0.4,0.4,0.7,0.8,0.6c0.5-0.1,0.7-0.4,0.7-0.9
			c0-0.4-0.2-0.7-0.5-1c-0.4-0.4-0.9-0.7-1.3-1.1c-0.7-0.7-0.8-1.9-0.1-2.6c0.5-0.5,1.3-0.6,1.9-0.3c0.6,0.3,0.9,1,0.7,1.9
			c-0.2,0.1-0.5,0.1-0.7,0c0-0.2,0-0.4-0.1-0.6c-0.1-0.4-0.3-0.7-0.7-0.6c-0.5,0-0.7,0.3-0.7,0.7c-0.1,0.5,0.2,0.8,0.5,1.1
			c0.5,0.4,0.9,0.7,1.4,1.2c0.9,1,0.7,2.4-0.4,2.9c-0.6,0.3-1.2,0.2-1.7-0.2C40.8,29.4,40.7,28.8,40.8,28.1z"/>
		<path class="st0" d="M47.4,27.9c0.3,0,0.5-0.1,0.8,0c0.1,0.7,0.1,1.4-0.5,1.9c-0.5,0.4-1.1,0.5-1.7,0.2c-0.6-0.3-1-0.7-1-1.4
			c0-1.2,0-2.5,0-3.7c0-1,0.7-1.7,1.7-1.7c0.9,0,1.6,0.6,1.6,1.7c0,0.1,0,0.3,0,0.4c-0.3,0.1-0.5,0.1-0.8,0
			c-0.1-0.2-0.1-0.4-0.1-0.6c-0.1-0.4-0.3-0.7-0.7-0.7c-0.4,0-0.7,0.2-0.7,0.6c0,1.3,0,2.6,0,3.9c0,0.4,0.3,0.6,0.7,0.7
			c0.4,0,0.7-0.3,0.7-0.6C47.4,28.5,47.4,28.2,47.4,27.9z"/>
		<path class="st0" d="M19.5,30c-0.5,0-0.9,0-1.3,0c0-1.8,0-3.7,0-5.6c-0.4,0-0.7,0-1-0.1c-0.2-0.4-0.1-0.7,0-1.1c1.1,0,2.2,0,3.3,0
			c0.1,0.3,0.1,0.7,0,1c-0.3,0.2-0.6,0-1,0.1C19.5,26.3,19.5,28.1,19.5,30z"/>
		<path class="st0" d="M21.9,24.5c-0.4,0-0.7,0-1-0.1c-0.1-0.4-0.1-0.7,0-1.1c1.1,0,2.2,0,3.3,0c0.1,0.4,0.1,0.7,0,1
			c-0.3,0.2-0.6,0-1,0.1c0,1.8,0,3.6,0,5.5c-0.5,0.1-0.9,0.1-1.3,0.1C21.9,28.2,21.9,26.4,21.9,24.5z"/>
		<path class="st0" d="M39.6,26.2c0,0.3,0,0.5,0,0.8c-0.5,0-1,0-1.6,0c0,0.7,0,1.4,0,2.2c0.6,0,1.3,0,1.9,0c0.1,0.3,0.1,0.5,0.1,0.8
			c-0.9,0-1.8,0-2.8,0c0-2.2,0-4.4,0-6.7c0.9,0,1.8,0,2.8,0c0.2,0.2,0.1,0.5,0,0.8c-0.6,0.1-1.2,0-1.9,0.1c0,0.6,0,1.3,0,1.9
			C38.5,26.3,39,26.1,39.6,26.2z"/>
		<path class="st0" d="M60.6,30.1c0-2.3,0-4.5,0-6.7c0.4,0,0.8,0,1.3,0c0,2.2,0,4.4,0,6.7C61.5,30.1,61.1,30,60.6,30.1z"/>
		<path class="st0" d="M7.3,30c-0.4,0-0.8,0-1.2,0c0-2.2,0-4.5,0-6.7c0.4,0,0.8,0,1.2,0C7.3,25.5,7.3,27.8,7.3,30z"/>
		<path class="st0" d="M88.4,27.1c0.2-0.2,0.3-0.3,0.4-0.5c0.9-1.2,0.3-3.2-1.1-3.4c-0.7-0.1-1.5,0-2.2,0c0,2.3,0,4.5,0,6.8
			c0.4,0,0.8,0.1,1.3-0.1c0-0.8,0-1.7,0-2.5c0.1,0,0.2,0,0.2-0.1c0.6,0.7,0.5,1.8,1,2.7c0.4,0,0.8,0.1,1.2-0.1
			C88.9,29,88.7,28.1,88.4,27.1z M87.7,26c-0.2,0.4-0.6,0.3-0.9,0.2c0-0.6,0-1.1,0-1.7c0.4-0.1,0.7-0.2,0.9,0.2
			C87.9,25.1,87.9,25.6,87.7,26z"/>
		<path class="st0" d="M59,26.6c0.1-0.2,0.3-0.3,0.4-0.4c0.8-1.2,0-2.9-1.4-3c-0.6,0-1.2,0-1.8,0c0,2.3,0,4.5,0,6.8c0.7,0,1.3,0,2,0
			c0.9-0.1,1.5-0.7,1.6-1.6C59.8,27.7,59.7,27.1,59,26.6z M57.4,24.4c0.9,0,1,0.1,1,1c0,0.6-0.2,0.7-1,0.7
			C57.3,25.6,57.3,25,57.4,24.4z M58.3,28.6c-0.2,0.4-0.5,0.3-0.9,0.2c0-0.6,0-1.1,0-1.6c0.3-0.1,0.7-0.2,0.9,0.2
			C58.5,27.8,58.5,28.2,58.3,28.6z"/>
		<path class="st0" d="M66.5,24.9c0-0.9-0.8-1.6-1.8-1.6c-1,0-1.9,0.6-1.9,1.5c-0.1,1.3-0.1,2.6,0,4c0,0.9,0.9,1.6,1.9,1.5
			c1-0.1,1.7-0.7,1.7-1.7c0-0.6,0-1.2,0-1.8C66.5,26.1,66.5,25.5,66.5,24.9z M65.2,28.5c0,0.3-0.1,0.6-0.5,0.6
			c-0.4,0-0.6-0.3-0.6-0.6c0-1.1,0-2.3,0-3.4c0-0.3,0.2-0.6,0.5-0.6c0.4,0,0.5,0.2,0.5,0.6c0,0.6,0,1.2,0,1.8c0,0,0,0,0,0
			C65.2,27.3,65.2,27.9,65.2,28.5z"/>
		<path class="st0" d="M75.5,24.9c-0.1-0.9-0.6-1.5-1.5-1.6c-0.7-0.1-1.4,0-2.2,0c0,2.3,0,4.5,0,6.7c0.4,0,0.8,0,1.3,0
			c0-0.6,0-1.1,0-1.7c0.2,0,0.3,0,0.4,0c1.2,0,1.9-0.7,1.9-1.9C75.6,25.9,75.6,25.4,75.5,24.9z M73.2,27.1c0-0.9,0-1.8,0-2.6
			c0.9-0.1,1,0,1,0.9c0,0.3,0,0.6,0,0.9C74.2,27.1,74.1,27.2,73.2,27.1z"/>
		<path class="st0" d="M50.9,30.2c0.9,0.1,1.7-0.6,1.8-1.4c0.1-1.4,0.1-2.7,0-4.1c0-0.8-0.8-1.4-1.7-1.4c-0.9,0-1.6,0.7-1.6,1.5
			c0,0.6,0,1.2,0,1.9c0,0.6,0,1.3,0,1.9C49.3,29.5,50,30.1,50.9,30.2z M50.2,25c0-0.5,0.2-0.9,0.8-0.9c0.5,0,0.7,0.4,0.8,0.9
			c0,0.6,0,1.2,0,1.7c0,0.6,0,1.2,0,1.7c0,0.5-0.2,0.8-0.8,0.8c-0.5,0-0.8-0.4-0.8-0.9C50.2,27.3,50.2,26.2,50.2,25z"/>
	</g>
</g>
</svg>
