<?xml version="1.0" encoding="utf-8"?>
<!-- Generator: Adobe Illustrator 24.2.3, SVG Export Plug-In . SVG Version: 6.00 Build 0)  -->
<svg version="1.1" xmlns="http://www.w3.org/2000/svg" xmlns:xlink="http://www.w3.org/1999/xlink" x="0px" y="0px"
	 viewBox="0 0 78.9 78.9" style="enable-background:new 0 0 78.9 78.9;" xml:space="preserve">
<style type="text/css">
	.st0{clip-path:url(#SVGID_2_);}
	.st1{fill:none;stroke:#A3BD49;stroke-width:0.5;stroke-miterlimit:10;}
	.st2{clip-path:url(#SVGID_4_);}
	.st3{fill:none;stroke:#9D1915;stroke-width:0.4067;stroke-miterlimit:10;}
	.st4{fill:#FFFFFF;stroke:#9D1915;stroke-width:0.75;stroke-miterlimit:10;}
</style>
<g id="Calque_1">
</g>
<g id="Mode_Isolation">
	<g>
		<defs>
			<path id="SVGID_1_" d="M39.4,0.4L39.4,0.4c-21.6,0-39,17.5-39,39v0c0,21.6,17.5,39,39,39h0c21.6,0,39-17.5,39-39v0
				C78.5,17.9,61,0.4,39.4,0.4z"/>
		</defs>
		<clipPath id="SVGID_2_">
			<use xlink:href="#SVGID_1_"  style="overflow:visible;"/>
		</clipPath>
		<g class="st0">
			<line class="st1" x1="20.4" y1="-2.3" x2="-30.6" y2="81.3"/>
			<line class="st1" x1="24.5" y1="-2.3" x2="-26.6" y2="81.3"/>
			<line class="st1" x1="28.5" y1="-2.3" x2="-22.5" y2="81.3"/>
			<line class="st1" x1="32.6" y1="-2.3" x2="-18.5" y2="81.3"/>
			<line class="st1" x1="36.6" y1="-2.3" x2="-14.4" y2="81.3"/>
			<line class="st1" x1="40.7" y1="-2.3" x2="-10.4" y2="81.3"/>
			<line class="st1" x1="44.7" y1="-2.3" x2="-6.3" y2="81.3"/>
			<line class="st1" x1="48.8" y1="-2.3" x2="-2.3" y2="81.3"/>
			<line class="st1" x1="52.8" y1="-2.3" x2="1.8" y2="81.3"/>
			<line class="st1" x1="56.9" y1="-2.3" x2="5.8" y2="81.3"/>
			<line class="st1" x1="60.9" y1="-2.3" x2="9.9" y2="81.3"/>
			<line class="st1" x1="65" y1="-2.3" x2="13.9" y2="81.3"/>
			<line class="st1" x1="69" y1="-2.3" x2="18" y2="81.3"/>
			<line class="st1" x1="73.1" y1="-2.3" x2="22" y2="81.3"/>
			<line class="st1" x1="77.1" y1="-2.3" x2="26.1" y2="81.3"/>
			<line class="st1" x1="81.2" y1="-2.3" x2="30.1" y2="81.3"/>
			<line class="st1" x1="85.2" y1="-2.3" x2="34.2" y2="81.3"/>
			<line class="st1" x1="89.3" y1="-2.3" x2="38.2" y2="81.3"/>
			<line class="st1" x1="93.3" y1="-2.3" x2="42.3" y2="81.3"/>
			<line class="st1" x1="97.4" y1="-2.3" x2="46.3" y2="81.3"/>
			<line class="st1" x1="101.4" y1="-2.3" x2="50.4" y2="81.3"/>
			<line class="st1" x1="105.5" y1="-2.3" x2="54.4" y2="81.3"/>
			<line class="st1" x1="109.5" y1="-2.3" x2="58.5" y2="81.3"/>
		</g>
		<use xlink:href="#SVGID_1_"  style="overflow:visible;fill:none;stroke:#9D1915;stroke-width:0.8;stroke-miterlimit:10;"/>
	</g>
	<g>
		<defs>
			<path id="SVGID_3_" d="M54.9,24H24c-3.2,0-5.8,2.6-5.8,5.8v19.3c0,3.2,2.6,5.8,5.8,5.8h30.9c3.2,0,5.8-2.6,5.8-5.8V29.8
				C60.7,26.6,58.1,24,54.9,24z"/>
		</defs>
		<clipPath id="SVGID_4_">
			<use xlink:href="#SVGID_3_"  style="overflow:visible;"/>
		</clipPath>
		<g class="st2">
			<line class="st3" x1="20.4" y1="-2.3" x2="-30.6" y2="81.3"/>
			<line class="st3" x1="24.5" y1="-2.3" x2="-26.6" y2="81.3"/>
			<line class="st3" x1="28.5" y1="-2.3" x2="-22.5" y2="81.3"/>
			<line class="st3" x1="32.6" y1="-2.3" x2="-18.5" y2="81.3"/>
			<line class="st3" x1="36.6" y1="-2.3" x2="-14.4" y2="81.3"/>
			<line class="st3" x1="40.7" y1="-2.3" x2="-10.4" y2="81.3"/>
			<line class="st3" x1="44.7" y1="-2.3" x2="-6.3" y2="81.3"/>
			<line class="st3" x1="48.8" y1="-2.3" x2="-2.3" y2="81.3"/>
			<line class="st3" x1="52.8" y1="-2.3" x2="1.8" y2="81.3"/>
			<line class="st3" x1="56.9" y1="-2.3" x2="5.8" y2="81.3"/>
			<line class="st3" x1="60.9" y1="-2.3" x2="9.9" y2="81.3"/>
			<line class="st3" x1="65" y1="-2.3" x2="13.9" y2="81.3"/>
			<line class="st3" x1="69" y1="-2.3" x2="18" y2="81.3"/>
			<line class="st3" x1="73.1" y1="-2.3" x2="22" y2="81.3"/>
			<line class="st3" x1="77.1" y1="-2.3" x2="26.1" y2="81.3"/>
			<line class="st3" x1="81.2" y1="-2.3" x2="30.1" y2="81.3"/>
			<line class="st3" x1="85.2" y1="-2.3" x2="34.2" y2="81.3"/>
			<line class="st3" x1="89.3" y1="-2.3" x2="38.2" y2="81.3"/>
			<line class="st3" x1="93.3" y1="-2.3" x2="42.3" y2="81.3"/>
			<line class="st3" x1="97.4" y1="-2.3" x2="46.3" y2="81.3"/>
			<line class="st3" x1="101.4" y1="-2.3" x2="50.4" y2="81.3"/>
			<line class="st3" x1="105.5" y1="-2.3" x2="54.4" y2="81.3"/>
			<line class="st3" x1="109.5" y1="-2.3" x2="58.5" y2="81.3"/>
		</g>
	</g>
	<path class="st4" d="M54.9,24H24c-3.2,0-5.8,2.6-5.8,5.8v19.3c0,3.2,2.6,5.8,5.8,5.8h30.9c3.2,0,5.8-2.6,5.8-5.8V29.8
		C60.7,26.6,58.1,24,54.9,24z M54.7,27.6L41,41.3c-0.4,0.4-1,0.6-1.5,0.6s-1.1-0.2-1.5-0.6L24.2,27.6H54.7z M21.8,48.9V30l9.5,9.5
		L21.8,48.9z M25.4,50.8l8.3-8.3l1.5,1.5c1.1,1.1,2.7,1.8,4.3,1.8s3.1-0.6,4.3-1.8l1.5-1.5l8.3,8.3H25.4z M57.1,48.9l-9.5-9.5
		l9.5-9.5V48.9z"/>
</g>
</svg>
