<?xml version="1.0" encoding="utf-8"?>
<!-- Generator: Adobe Illustrator 24.3.0, SVG Export Plug-In . SVG Version: 6.00 Build 0)  -->
<svg version="1.1" id="Calque_1" xmlns="http://www.w3.org/2000/svg" xmlns:xlink="http://www.w3.org/1999/xlink" x="0px" y="0px"
	 width="113px" height="113px" viewBox="0 0 113 113" style="enable-background:new 0 0 113 113;" xml:space="preserve">
<style type="text/css">
	.st0{fill:none;stroke:#000000;stroke-width:2;stroke-miterlimit:10;}
</style>
<g>
	<path class="st0" d="M61.2,71.6c-1.8,1.6-3,2.6-3.1,2.7l-1.6,1.3l-1.6-1.3c-0.1-0.1-1.3-1.1-3.1-2.7c-4.9,0.3-9.5,0.9-12.9,1.9
		c-3.3,1-4.5,1.9-4.9,2.3c0.5,0.5,2,1.6,6.5,2.7c4.4,1.1,10.1,1.6,16,1.6c5.9,0,11.6-0.6,16-1.6c4.5-1.1,6-2.2,6.5-2.7
		c-0.4-0.4-1.6-1.3-5-2.3C70.6,72.5,66,71.8,61.2,71.6z"/>
	<path class="st0" d="M56.5,46.8c2.9,0,5.3-2.4,5.3-5.3c0-2.9-2.4-5.3-5.3-5.3c-2.9,0-5.3,2.4-5.3,5.3
		C51.2,44.4,53.6,46.8,56.5,46.8z"/>
	<path d="M56.5,68.9c1.8-1.6,4.9-4.5,8-8.1c6-7,9.2-13.2,9.2-18.1v-1.2c0-9.5-7.7-17.2-17.2-17.2c-9.5,0-17.2,7.7-17.2,17.2v1.2
		c0,4.9,3.2,11.1,9.3,18.1C51.6,64.4,54.7,67.2,56.5,68.9z M56.5,31c5.8,0,10.5,4.7,10.5,10.5s-4.7,10.5-10.5,10.5S46,47.2,46,41.5
		S50.7,31,56.5,31z"/>
	<path class="st0" d="M56.5,1L56.5,1C25.8,1,1,25.8,1,56.5v0C1,87.1,25.8,112,56.5,112h0c30.6,0,55.5-24.8,55.5-55.5v0
		C112,25.8,87.1,1,56.5,1z M75,83.2c-5,1.4-11.5,2.1-18.5,2.1c-7,0-13.5-0.8-18.5-2.1c-6.2-1.7-9.3-4.2-9.3-7.4c0-6,11-8.2,18.3-9
		c-0.8-0.8-1.5-1.7-2.3-2.6c-7-8.1-10.5-15.3-10.5-21.5v-1.2c0-12.3,10-22.4,22.3-22.4c12.3,0,22.3,10,22.3,22.4v1.2
		c0,6.2-3.5,13.5-10.5,21.5c-0.8,0.9-1.6,1.8-2.3,2.6c7.3,0.8,18.3,3,18.3,9C84.3,79,81.1,81.5,75,83.2z"/>
</g>
</svg>
