<?xml version="1.0" encoding="utf-8"?>
<!-- Generator: Adobe Illustrator 24.3.0, SVG Export Plug-In . SVG Version: 6.00 Build 0)  -->
<svg version="1.1" id="Calque_1" xmlns="http://www.w3.org/2000/svg" xmlns:xlink="http://www.w3.org/1999/xlink" x="0px" y="0px"
	 width="113px" height="113px" viewBox="0 0 113 113" style="enable-background:new 0 0 113 113;" xml:space="preserve">
<style type="text/css">
	.st0{fill:none;stroke:#000000;stroke-width:2;stroke-miterlimit:10;}
</style>
<g>
	<path d="M41.3,57.1c0-2.7,0.1-5.5,0.3-8.1l-11.5,0.2c-0.8,2.6-1.1,5.3-1.1,8.1c0,2.8,0.5,5.5,1.3,8.1l11.5-0.2
		C41.5,62.5,41.3,59.8,41.3,57.1z"/>
	<path d="M33.9,72.6c3,4.4,7.3,7.8,12.2,9.9c-1.3-2.9-2.4-6.3-3.2-10L33.9,72.6z"/>
	<path d="M56.4,29.1c-1.6,0-4.6,4.2-6.4,12.4l13-0.2C61.1,33.2,58,29.1,56.4,29.1z"/>
	<path d="M57.1,84.6c1.6,0,4.6-4.2,6.4-12.4l-13,0.2C52.4,80.5,55.5,84.6,57.1,84.6z"/>
	<path d="M45.5,31.5c-4.9,2.2-9.1,5.8-12,10.2l9-0.1C43.2,37.9,44.2,34.4,45.5,31.5z"/>
	<path class="st0" d="M56.5,1L56.5,1C25.8,1,1,25.8,1,56.5v0C1,87.1,25.8,112,56.5,112h0c30.6,0,55.5-24.8,55.5-55.5v0
		C112,25.8,87.1,1,56.5,1z M57.2,91.9c-19.3,0.3-35.3-15.3-35.6-34.6C21.4,38,36.9,22,56.3,21.8C75.6,21.5,91.5,37,91.8,56.4
		C92.1,75.7,76.6,91.7,57.2,91.9z"/>
	<path d="M48.9,48.9c-0.2,2.5-0.3,5.2-0.3,8.1c0,2.9,0.2,5.6,0.5,8.1l15.4-0.2c0.2-2.5,0.3-5.2,0.3-8.1c0-2.9-0.2-5.6-0.5-8.1
		L48.9,48.9z"/>
	<path d="M68,82.2c4.9-2.2,9.1-5.8,12-10.2l-9,0.1C70.2,75.8,69.3,79.3,68,82.2z"/>
	<path d="M72.2,56.7c0,2.7-0.1,5.5-0.3,8.1l11.5-0.2c0.8-2.6,1.1-5.3,1.1-8.1c0-2.8-0.5-5.5-1.3-8.1l-11.5,0.2
		C72,51.2,72.1,53.9,72.2,56.7z"/>
	<path d="M79.6,41.1c-3-4.4-7.3-7.8-12.2-9.9c1.3,2.9,2.4,6.3,3.2,10L79.6,41.1z"/>
</g>
</svg>
