<?xml version="1.0" encoding="utf-8"?>
<!-- Generator: Adobe Illustrator 24.2.3, SVG Export Plug-In . SVG Version: 6.00 Build 0)  -->
<svg version="1.1" xmlns="http://www.w3.org/2000/svg" xmlns:xlink="http://www.w3.org/1999/xlink" x="0px" y="0px" width="67px"
	 height="67px" viewBox="0 0 67 67" style="enable-background:new 0 0 67 67;" xml:space="preserve">
<style type="text/css">
	.st0{fill:#575756;}
	.st1{fill:#9D1915;}
</style>
<g id="Calque_1">
</g>
<g id="Mode_Isolation">
	<g>
		<g>
			<path class="st0" d="M2,31.4l1.3,1.3C3,31,3.4,29.6,4.6,28.5c2.9-2.9,6.5-1.4,11.6,3.8c5.2,5.2,6.6,9,3.8,11.7
				c-1.1,1.1-2.4,1.6-4.1,1.4L35.6,65l-2,2L0,33.4L2,31.4z M14.2,34.4c-4.2-4.2-6.7-5.8-8.6-3.8c-1.9,1.9-0.3,4.4,3.8,8.6
				s6.7,5.7,8.6,3.8C20,41,18.4,38.6,14.2,34.4z"/>
			<path class="st0" d="M14.4,19l2,2c-0.8-2-0.7-3.6,0.4-4.9l2,2c-2,2.3-1.2,4,1.6,6.9l9,9l-2,2l-15-15L14.4,19z"/>
			<path class="st0" d="M23.5,9.2c2.9-2.9,7.1-1.9,12.3,3.3c5.2,5.2,6.3,9.4,3.3,12.3c-3,3-7.2,2-12.4-3.3
				C21.6,16.4,20.5,12.3,23.5,9.2z M28.8,19.6c4.2,4.2,6.9,5.6,8.8,3.7c1.7-1.7,0.5-4.6-3.7-8.7c-4.2-4.2-7-5.5-8.8-3.7
				C23.3,12.7,24.6,15.4,28.8,19.6z"/>
		</g>
		<g>
			<path class="st1" d="M40.1,57.7c1.4-1.4,1.4-3.3,0-4.7c-1.4-1.3-3.1-1.1-5.9-0.9c-3.3,0.2-5.4,0.3-7.3-1.6
				c-2.1-2.1-2.1-5.2,0-7.3c0.9-0.9,2-1.5,3.4-1.9l1.9,1.9c-1.5,0-2.8,0.5-3.6,1.3c-1.2,1.2-1.2,3-0.1,4.2c1.3,1.3,2.9,1.1,5.3,0.9
				c3.6-0.3,5.9-0.4,8,1.7c2.4,2.4,2.4,5.8,0.1,8.1c-1.1,1.1-2.5,1.7-4.1,1.9L35.7,59C37.7,59.1,39.1,58.6,40.1,57.7z"/>
			<path class="st1" d="M34.7,35.8l9.9,9.9c2.6,2.6,4.2,3.3,5.9,1.7c1.6-1.6,0.9-3.2-1.7-5.8l-9.9-9.9l1.8-1.8l10.2,10.2
				c3.5,3.5,4,6.3,1.3,9c-2.8,2.8-5.6,2.3-9.1-1.2L32.9,37.6L34.7,35.8z"/>
			<path class="st1" d="M63.8,34c0.6,1.6,0.2,3.1-1,4.3c-2.7,2.7-6.3,1-11.8-4.5c-4.9-4.9-6.3-8.4-3.7-11c1.2-1.2,2.6-1.5,4.1-1
				L31.5,1.8L33.4,0L67,33.6l-1.8,1.8L63.8,34z M61.8,36.2c1.7-1.7,0.2-4.2-4-8.4c-4.2-4.2-6.7-5.7-8.4-4c-1.8,1.8-0.3,4.3,3.9,8.5
				C57.6,36.6,59.9,38.1,61.8,36.2z"/>
		</g>
	</g>
</g>
</svg>
