<svg xmlns="http://www.w3.org/2000/svg" width="110.688" height="110.753" viewBox="0 0 110.688 110.753">
  <g id="Сгруппировать_827" data-name="Сгруппировать 827" transform="translate(-850.215 -14403.096)">
    <g id="Сгруппировать_825" data-name="Сгруппировать 825">
      <path id="Контур_4705" data-name="Контур 4705" d="M853.477,14455.045l2.077,2.072a7.727,7.727,0,0,1,2.2-6.976c4.815-4.813,10.678-2.266,19.245,6.3,8.666,8.666,10.936,14.81,6.346,19.4a8.117,8.117,0,0,1-6.716,2.355l32.393,32.391-3.264,3.263-55.542-55.542Zm20.245,4.873c-6.956-6.955-10.993-9.561-14.254-6.3-3.1,3.095-.551,7.3,6.349,14.2s11.056,9.4,14.153,6.3C883.235,14470.862,880.677,14466.875,873.722,14459.918Z" fill="#fff"/>
      <path id="Контур_4706" data-name="Контур 4706" d="M874.081,14434.441l3.371,3.374c-1.345-3.326-1.11-5.95.664-8.032l3.322,3.32c-3.372,3.785-2.066,6.63,2.657,11.356l14.847,14.845-3.246,3.246-24.866-24.862Z" fill="#fff"/>
      <path id="Контур_4707" data-name="Контур 4707" d="M889.108,14418.376c4.811-4.814,11.8-3.081,20.36,5.485s10.356,15.5,5.488,20.361c-4.977,4.979-11.856,3.243-20.473-5.375S884.13,14423.352,889.108,14418.376Zm8.71,17.138c6.957,6.954,11.48,9.18,14.486,6.169,2.844-2.845.785-7.53-6.118-14.432s-11.643-9.017-14.488-6.173C888.689,14424.088,890.862,14428.556,897.818,14435.514Z" fill="#fff"/>
    </g>
    <g id="Сгруппировать_826" data-name="Сгруппировать 826">
      <path id="Контур_4708" data-name="Контур 4708" d="M916.461,14498.471a5.261,5.261,0,0,0-.03-7.756c-2.232-2.23-5.179-1.88-9.778-1.538-5.372.392-8.991.48-12.105-2.633a8.274,8.274,0,0,1,0-12.149,11.66,11.66,0,0,1,5.671-3.08l3.167,3.167a8.459,8.459,0,0,0-5.933,2.2,4.749,4.749,0,0,0-.125,6.876c2.075,2.074,4.758,1.779,8.842,1.435,5.891-.494,9.771-.634,13.142,2.742,3.943,3.945,4.02,9.578.213,13.387a10.641,10.641,0,0,1-6.711,3.076l-3.629-3.635C912.492,14500.782,914.919,14500.016,916.461,14498.471Z" fill="#fff"/>
      <path id="Контур_4709" data-name="Контур 4709" d="M907.572,14462.2l16.3,16.3c4.264,4.254,7.006,5.454,9.682,2.775s1.426-5.368-2.831-9.621l-16.3-16.3,3.039-3.033,16.816,16.815c5.762,5.762,6.66,10.368,2.078,14.947s-9.235,3.734-15-2.026l-16.821-16.816Z" fill="#fff"/>
      <path id="Контур_4710" data-name="Контур 4710" d="M955.684,14459.246a6.565,6.565,0,0,1-1.623,7.128c-4.478,4.476-10.437,1.611-19.516-7.474-8.15-8.149-10.4-13.9-6.127-18.169a6.489,6.489,0,0,1,6.817-1.731l-32.87-32.865,3.038-3.039,55.5,55.5-2.935,2.932Zm-3.342,3.759c2.881-2.881.334-6.974-6.576-13.881s-11.047-9.5-13.927-6.622c-3.04,3.036-.438,7.081,6.517,14.038C945.365,14463.545,949.307,14466.042,952.342,14463Z" fill="#fff"/>
    </g>
  </g>
</svg>
