<svg xmlns="http://www.w3.org/2000/svg" width="340.564" height="23.383" viewBox="0 0 340.564 23.383">
  <g id="Сгруппировать_838" data-name="Сгруппировать 838" transform="translate(-777.654 -14719.188)">
    <path id="Контур_4857" data-name="Контур 4857" d="M777.664,14741.592v-2.966a3.925,3.925,0,0,0,.8.653,5.594,5.594,0,0,0,.979.49,6.625,6.625,0,0,0,1.034.309,4.621,4.621,0,0,0,.954.11,3.551,3.551,0,0,0,2.266-.606,2.128,2.128,0,0,0,.745-1.755,2.2,2.2,0,0,0-.248-1.071,2.912,2.912,0,0,0-.7-.829,7.068,7.068,0,0,0-1.049-.72q-.6-.346-1.293-.721-.741-.472-1.379-.956a6.277,6.277,0,0,1-1.111-1.071,4.631,4.631,0,0,1-.74-1.325,5.062,5.062,0,0,1-.269-1.73,4.6,4.6,0,0,1,.462-2.125,4.377,4.377,0,0,1,1.217-1.488,5.131,5.131,0,0,1,1.718-.871,6.889,6.889,0,0,1,1.968-.285,6.8,6.8,0,0,1,3.326.617v2.845a4.707,4.707,0,0,0-3.184-1.065,4.845,4.845,0,0,0-1.07.121,2.862,2.862,0,0,0-.953.4,2.234,2.234,0,0,0-.685.715,1.991,1.991,0,0,0-.264,1.053,2.311,2.311,0,0,0,.2,1,2.5,2.5,0,0,0,.594.774,5.922,5.922,0,0,0,.953.684q.563.333,1.3.721a17.225,17.225,0,0,1,1.435.992,7.18,7.18,0,0,1,1.186,1.149,5.149,5.149,0,0,1,.811,1.4,4.78,4.78,0,0,1,.3,1.749,5.007,5.007,0,0,1-.447,2.227,4.044,4.044,0,0,1-1.2,1.477,4.88,4.88,0,0,1-1.739.823,8.261,8.261,0,0,1-2.079.254,7.323,7.323,0,0,1-.9-.066,10.923,10.923,0,0,1-1.09-.193,8.707,8.707,0,0,1-1.054-.309A3.088,3.088,0,0,1,777.664,14741.592Z" fill="#fff"/>
    <path id="Контур_4858" data-name="Контур 4858" d="M792.115,14742.281h-2.484v-17.356h2.484Z" fill="#fff"/>
    <path id="Контур_4859" data-name="Контур 4859" d="M805.024,14727.369h-4.178v14.912h-2.413v-14.912h-4.168v-2.444h10.759Z" fill="#fff"/>
    <path id="Контур_4860" data-name="Контур 4860" d="M815.317,14742.281h-8.164v-17.356h7.839v2.444h-5.425v4.914h5v2.434h-5v5.132h5.75Z" fill="#fff"/>
    <path id="Контур_4861" data-name="Контур 4861" d="M841.652,14724.925l-3.985,17.356h-2.728l-2.768-12.14a9.686,9.686,0,0,1-.213-1.694h-.041a9.752,9.752,0,0,1-.243,1.67l-2.779,12.164h-2.789l-4.066-17.356h2.647l2.636,12.709a10.936,10.936,0,0,1,.2,1.67h.051a11.14,11.14,0,0,1,.284-1.67l2.981-12.709h2.485l2.758,12.806a12.011,12.011,0,0,1,.213,1.549h.04a11.218,11.218,0,0,1,.234-1.6l2.586-12.757Z" fill="#fff"/>
    <path id="Контур_4862" data-name="Контур 4862" d="M851.833,14742.281H843.67v-17.356h7.839v2.444h-5.425v4.914h5v2.434h-5v5.132h5.749Z" fill="#fff"/>
    <path id="Контур_4863" data-name="Контур 4863" d="M854.419,14742.281v-17.356h4.614a4.829,4.829,0,0,1,3.341,1.1,3.665,3.665,0,0,1,1.232,2.868,4.65,4.65,0,0,1-.7,2.566,3.826,3.826,0,0,1-1.937,1.549v.049a3.574,3.574,0,0,1,2.4,1.325,4.513,4.513,0,0,1,.9,2.911,4.719,4.719,0,0,1-1.471,3.606,5.208,5.208,0,0,1-3.711,1.38Zm2.4-15.045v4.938h1.562a2.47,2.47,0,0,0,2.687-2.711q0-2.228-2.494-2.228Zm0,7.25v5.5h2.059a2.568,2.568,0,0,0,2.819-2.8q0-2.7-3.133-2.7Z" fill="#fff"/>
    <path id="Контур_4864" data-name="Контур 4864" d="M880.835,14742.281h-8.163v-17.356h7.839v2.444h-5.425v4.914h5v2.434h-5v5.132h5.749Zm-1.105-23.093-2.9,3.969h-1.744l2.454-3.969Z" fill="#fff"/>
    <path id="Контур_4865" data-name="Контур 4865" d="M893.562,14741.555a7.633,7.633,0,0,1-4.087,1.017,6.165,6.165,0,0,1-5.07-2.383,9.726,9.726,0,0,1-1.906-6.259,10.15,10.15,0,0,1,2.144-6.729,6.766,6.766,0,0,1,5.421-2.566,7.607,7.607,0,0,1,3.5.715v2.856a5.489,5.489,0,0,0-3.245-1.041,4.7,4.7,0,0,0-3.828,1.8,7.412,7.412,0,0,0-1.465,4.817,7.074,7.074,0,0,0,1.369,4.569,4.395,4.395,0,0,0,3.6,1.7,5.685,5.685,0,0,0,3.569-1.161Z" fill="#fff"/>
    <path id="Контур_4866" data-name="Контур 4866" d="M902.05,14742.571a6.057,6.057,0,0,1-5.035-2.433,10.019,10.019,0,0,1-1.891-6.33,10.647,10.647,0,0,1,1.926-6.681,6.263,6.263,0,0,1,5.233-2.494,5.934,5.934,0,0,1,4.933,2.421,10.062,10.062,0,0,1,1.871,6.33,10.685,10.685,0,0,1-1.916,6.718A6.153,6.153,0,0,1,902.05,14742.571Zm.111-15.407a3.814,3.814,0,0,0-3.25,1.779,7.971,7.971,0,0,0-1.252,4.684,8.061,8.061,0,0,0,1.217,4.66,3.708,3.708,0,0,0,3.184,1.767,3.843,3.843,0,0,0,3.3-1.682,7.977,7.977,0,0,0,1.206-4.709,8.387,8.387,0,0,0-1.171-4.8A3.716,3.716,0,0,0,902.161,14727.164Z" fill="#fff"/>
    <path id="Контур_4867" data-name="Контур 4867" d="M916.957,14736.544H911.42v-2.069h5.537Z" fill="#fff"/>
    <path id="Контур_4868" data-name="Контур 4868" d="M931.336,14742.281h-2.819l-2.322-4.647a10.168,10.168,0,0,0-.614-1.1,4.122,4.122,0,0,0-.608-.744,1.962,1.962,0,0,0-.675-.424,2.38,2.38,0,0,0-.821-.133H922.5v7.044h-2.4v-17.356h4.787a5.887,5.887,0,0,1,1.886.29,4.147,4.147,0,0,1,1.5.878,4.038,4.038,0,0,1,1,1.465,5.376,5.376,0,0,1,.36,2.051,5.914,5.914,0,0,1-.228,1.688,4.657,4.657,0,0,1-.649,1.368,4.245,4.245,0,0,1-1.014,1.023,4.625,4.625,0,0,1-1.333.652v.049a3.859,3.859,0,0,1,.689.587q.294.321.558.66a7.6,7.6,0,0,1,.522.769c.173.286.363.619.573,1Zm-8.833-15.021v5.641h2.008a2.558,2.558,0,0,0,1.03-.206,2.341,2.341,0,0,0,.816-.593,2.753,2.753,0,0,0,.537-.944,3.782,3.782,0,0,0,.193-1.247,2.735,2.735,0,0,0-.659-1.948,2.478,2.478,0,0,0-1.9-.7Z" fill="#fff"/>
    <path id="Контур_4869" data-name="Контур 4869" d="M941.193,14742.281h-8.164v-17.356h7.839v2.444h-5.425v4.914h5v2.434h-5v5.132h5.75Z" fill="#fff"/>
    <path id="Контур_4870" data-name="Контур 4870" d="M943.109,14741.592v-2.966a3.9,3.9,0,0,0,.8.653,5.6,5.6,0,0,0,.979.49,6.625,6.625,0,0,0,1.034.309,4.621,4.621,0,0,0,.954.11,3.551,3.551,0,0,0,2.266-.606,2.128,2.128,0,0,0,.745-1.755,2.207,2.207,0,0,0-.248-1.071,2.913,2.913,0,0,0-.7-.829,7.119,7.119,0,0,0-1.049-.72q-.6-.346-1.293-.721-.741-.472-1.379-.956a6.278,6.278,0,0,1-1.111-1.071,4.633,4.633,0,0,1-.74-1.325,5.062,5.062,0,0,1-.269-1.73,4.617,4.617,0,0,1,.461-2.125,4.4,4.4,0,0,1,1.217-1.488,5.146,5.146,0,0,1,1.719-.871,6.89,6.89,0,0,1,1.968-.285,6.8,6.8,0,0,1,3.326.617v2.845a4.71,4.71,0,0,0-3.185-1.065,4.843,4.843,0,0,0-1.069.121,2.876,2.876,0,0,0-.954.4,2.241,2.241,0,0,0-.684.715,1.991,1.991,0,0,0-.264,1.053,2.312,2.312,0,0,0,.2,1,2.493,2.493,0,0,0,.593.774,5.936,5.936,0,0,0,.954.684q.563.333,1.3.721a17.235,17.235,0,0,1,1.435.992,7.18,7.18,0,0,1,1.186,1.149,5.176,5.176,0,0,1,.811,1.4,4.782,4.782,0,0,1,.3,1.749,5.007,5.007,0,0,1-.446,2.227,4.036,4.036,0,0,1-1.2,1.477,4.864,4.864,0,0,1-1.739.823,8.249,8.249,0,0,1-2.078.254,7.322,7.322,0,0,1-.9-.066,10.92,10.92,0,0,1-1.09-.193,8.707,8.707,0,0,1-1.054-.309A3.088,3.088,0,0,1,943.109,14741.592Z" fill="#fff"/>
    <path id="Контур_4871" data-name="Контур 4871" d="M957.489,14735.987v6.294h-2.4v-17.356H959.5a5.227,5.227,0,0,1,3.884,1.392,5.333,5.333,0,0,1,1.379,3.922,5.975,5.975,0,0,1-1.44,4.14,4.962,4.962,0,0,1-3.894,1.609Zm0-8.69v6.343h1.561a3.1,3.1,0,0,0,2.363-.859,3.39,3.39,0,0,0,.812-2.421q0-3.063-2.982-3.062Z" fill="#fff"/>
    <path id="Контур_4872" data-name="Контур 4872" d="M973.217,14742.571a6.057,6.057,0,0,1-5.035-2.433,10.019,10.019,0,0,1-1.891-6.33,10.64,10.64,0,0,1,1.927-6.681,6.26,6.26,0,0,1,5.232-2.494,5.937,5.937,0,0,1,4.934,2.421,10.068,10.068,0,0,1,1.871,6.33,10.685,10.685,0,0,1-1.917,6.718A6.153,6.153,0,0,1,973.217,14742.571Zm.112-15.407a3.813,3.813,0,0,0-3.25,1.779,7.964,7.964,0,0,0-1.253,4.684,8.068,8.068,0,0,0,1.217,4.66,3.708,3.708,0,0,0,3.184,1.767,3.843,3.843,0,0,0,3.3-1.682,7.976,7.976,0,0,0,1.206-4.709,8.387,8.387,0,0,0-1.171-4.8A3.715,3.715,0,0,0,973.329,14727.164Z" fill="#fff"/>
    <path id="Контур_4873" data-name="Контур 4873" d="M995.253,14742.281h-2.637l-6.946-12.757a6.14,6.14,0,0,1-.436-1h-.061a21.327,21.327,0,0,1,.081,2.385v11.377h-2.332v-17.356h2.808l6.714,12.454q.425.776.547,1.065h.041a18.265,18.265,0,0,1-.1-2.336v-11.184h2.323Z" fill="#fff"/>
    <path id="Контур_4874" data-name="Контур 4874" d="M998.183,14741.592v-2.966a3.9,3.9,0,0,0,.8.653,5.594,5.594,0,0,0,.979.49,6.592,6.592,0,0,0,1.034.309,4.62,4.62,0,0,0,.953.11,3.553,3.553,0,0,0,2.267-.606,2.128,2.128,0,0,0,.745-1.755,2.206,2.206,0,0,0-.248-1.071,2.928,2.928,0,0,0-.7-.829,7.07,7.07,0,0,0-1.049-.72q-.6-.346-1.293-.721-.741-.472-1.38-.956a6.3,6.3,0,0,1-1.11-1.071,4.63,4.63,0,0,1-.74-1.325,5.06,5.06,0,0,1-.269-1.73,4.6,4.6,0,0,1,.462-2.125,4.388,4.388,0,0,1,1.216-1.488,5.145,5.145,0,0,1,1.719-.871,6.884,6.884,0,0,1,1.968-.285,6.8,6.8,0,0,1,3.326.617v2.845a4.709,4.709,0,0,0-3.184-1.065,4.846,4.846,0,0,0-1.07.121,2.876,2.876,0,0,0-.954.4,2.242,2.242,0,0,0-.684.715,1.992,1.992,0,0,0-.264,1.053,2.311,2.311,0,0,0,.2,1,2.493,2.493,0,0,0,.593.774,5.968,5.968,0,0,0,.953.684q.564.333,1.3.721a17.389,17.389,0,0,1,1.435.992,7.219,7.219,0,0,1,1.186,1.149,5.174,5.174,0,0,1,.811,1.4,4.8,4.8,0,0,1,.3,1.749,5.008,5.008,0,0,1-.446,2.227,4.043,4.043,0,0,1-1.2,1.477,4.877,4.877,0,0,1-1.74.823,8.248,8.248,0,0,1-2.078.254,7.322,7.322,0,0,1-.9-.066,10.921,10.921,0,0,1-1.09-.193,8.776,8.776,0,0,1-1.055-.309A3.1,3.1,0,0,1,998.183,14741.592Z" fill="#fff"/>
    <path id="Контур_4875" data-name="Контур 4875" d="M1022.1,14742.281h-2.647l-1.308-4.418h-5.719l-1.258,4.418h-2.636l5.445-17.356h2.718Zm-4.594-6.766-2.018-6.924a9.66,9.66,0,0,1-.192-1.089h-.041a8.16,8.16,0,0,1-.2,1.089l-2,6.924Z" fill="#fff"/>
    <path id="Контур_4876" data-name="Контур 4876" d="M1024.1,14742.281v-17.356h4.614a4.828,4.828,0,0,1,3.341,1.1,3.665,3.665,0,0,1,1.232,2.868,4.642,4.642,0,0,1-.7,2.566,3.823,3.823,0,0,1-1.936,1.549v.049a3.574,3.574,0,0,1,2.4,1.325,4.513,4.513,0,0,1,.9,2.911,4.718,4.718,0,0,1-1.47,3.606,5.209,5.209,0,0,1-3.712,1.38Zm2.4-15.045v4.938h1.562a2.47,2.47,0,0,0,2.687-2.711q0-2.228-2.495-2.228Zm0,7.25v5.5h2.059a2.568,2.568,0,0,0,2.819-2.8q0-2.7-3.134-2.7Z" fill="#fff"/>
    <path id="Контур_4877" data-name="Контур 4877" d="M1044.7,14742.281h-8.051v-17.356h2.413v14.924h5.638Z" fill="#fff"/>
    <path id="Контур_4878" data-name="Контур 4878" d="M1054.961,14742.281H1046.8v-17.356h7.838v2.444h-5.425v4.914h5v2.434h-5v5.132h5.75Z" fill="#fff"/>
    <path id="Контур_4879" data-name="Контур 4879" d="M1083,14742.281h-9.127v-1.343a5.928,5.928,0,0,1,.193-1.544,6.86,6.86,0,0,1,.517-1.355,7.517,7.517,0,0,1,.761-1.2q.435-.562.932-1.09t1.014-1.017q.517-.489,1.015-.986.465-.472.851-.926a6.08,6.08,0,0,0,.66-.938,4.6,4.6,0,0,0,.425-1.022,4.254,4.254,0,0,0,.152-1.168,3.7,3.7,0,0,0-.177-1.2,2.385,2.385,0,0,0-.5-.859,2.072,2.072,0,0,0-.755-.521,2.529,2.529,0,0,0-.953-.176,3.822,3.822,0,0,0-1.816.5,6.335,6.335,0,0,0-1.774,1.489v-2.7a7.422,7.422,0,0,1,.9-.7,5.79,5.79,0,0,1,.943-.5,5.073,5.073,0,0,1,1.024-.3,6.39,6.39,0,0,1,1.146-.1,4.943,4.943,0,0,1,1.785.309,3.69,3.69,0,0,1,1.369.908,4.056,4.056,0,0,1,.877,1.5,6.268,6.268,0,0,1,.31,2.058,7.569,7.569,0,0,1-.218,1.894,6.724,6.724,0,0,1-.619,1.567,7.987,7.987,0,0,1-.968,1.38q-.569.653-1.268,1.344-.588.57-1.171,1.107t-1.05,1.053a5.7,5.7,0,0,0-.755,1.029,2.091,2.091,0,0,0-.289,1.036v.06H1083Z" fill="#fff"/>
    <path id="Контур_4880" data-name="Контур 4880" d="M1090.017,14742.571a3.922,3.922,0,0,1-3.544-2.215,13.033,13.033,0,0,1-1.273-6.4,14.51,14.51,0,0,1,1.328-6.96,4.186,4.186,0,0,1,3.834-2.36q4.8,0,4.8,8.9a13.512,13.512,0,0,1-1.354,6.724A4.194,4.194,0,0,1,1090.017,14742.571Zm.233-15.7q-2.646,0-2.647,6.96,0,6.511,2.6,6.512,2.556,0,2.556-6.621Q1092.755,14726.874,1090.25,14726.873Z" fill="#fff"/>
    <path id="Контур_4881" data-name="Контур 4881" d="M1106.059,14742.281h-9.126v-1.343a5.928,5.928,0,0,1,.193-1.544,6.815,6.815,0,0,1,.517-1.355,7.529,7.529,0,0,1,.76-1.2q.437-.562.933-1.09t1.014-1.017q.517-.489,1.014-.986.467-.472.852-.926a6,6,0,0,0,.659-.938,4.567,4.567,0,0,0,.426-1.022,4.258,4.258,0,0,0,.152-1.168,3.7,3.7,0,0,0-.177-1.2,2.389,2.389,0,0,0-.5-.859,2.073,2.073,0,0,0-.755-.521,2.531,2.531,0,0,0-.954-.176,3.821,3.821,0,0,0-1.815.5,6.352,6.352,0,0,0-1.775,1.489v-2.7a7.5,7.5,0,0,1,.9-.7,5.785,5.785,0,0,1,.943-.5,5.072,5.072,0,0,1,1.024-.3,6.382,6.382,0,0,1,1.146-.1,4.944,4.944,0,0,1,1.785.309,3.692,3.692,0,0,1,1.369.908,4.069,4.069,0,0,1,.877,1.5,6.292,6.292,0,0,1,.309,2.058,7.523,7.523,0,0,1-.218,1.894,6.684,6.684,0,0,1-.618,1.567,7.934,7.934,0,0,1-.969,1.38q-.567.653-1.267,1.344-.588.57-1.172,1.107t-1.049,1.053a5.708,5.708,0,0,0-.755,1.029,2.092,2.092,0,0,0-.29,1.036v.06h6.561Z" fill="#fff"/>
    <path id="Контур_4882" data-name="Контур 4882" d="M1113.077,14742.571a3.922,3.922,0,0,1-3.544-2.215,13.033,13.033,0,0,1-1.273-6.4,14.51,14.51,0,0,1,1.328-6.96,4.185,4.185,0,0,1,3.834-2.36q4.8,0,4.8,8.9a13.513,13.513,0,0,1-1.354,6.724A4.194,4.194,0,0,1,1113.077,14742.571Zm.233-15.7q-2.646,0-2.647,6.96,0,6.511,2.6,6.512,2.556,0,2.556-6.621Q1115.815,14726.874,1113.31,14726.873Z" fill="#fff"/>
  </g>
</svg>
