<?xml version="1.0" encoding="utf-8"?>
<!-- Generator: Adobe Illustrator 24.2.3, SVG Export Plug-In . SVG Version: 6.00 Build 0)  -->
<svg version="1.1" id="Calque_1" xmlns="http://www.w3.org/2000/svg" xmlns:xlink="http://www.w3.org/1999/xlink" x="0px" y="0px"
	 width="340px" height="306.5px" viewBox="0 0 340 306.5" style="enable-background:new 0 0 340 306.5;" xml:space="preserve">
<style type="text/css">
	.st0{fill-rule:evenodd;clip-rule:evenodd;fill:#9D1915;}
	.st1{fill:#FFFFFF;}
</style>
<g>
	<g>
		<path class="st0" d="M339.6,206.1c1.4-4.1-1-10.6-0.6-13.1c0.9-5.2-8-12.3-8.7-14c-0.9-2.5,0.7-9.3-3.7-11.9
			c-4.4-2.6-10.5-2.4-14.8-9.2c-1.8-2.9-1.9-10.6-2.4-13.7c-0.4-3.1-5.1-5.2-7.7-6.1c-2.6-0.9-5.9-6.9-5.9-9.9s-6.3-6-9.4-3.9
			c-3.1,2-8.3,2.1-13.4,3.1c-4.3,0.8-7.1-1.2-8.9-0.8c-1.8,0.4-6.7,0.5-10.3-2.1c-3.5-2.6-11.4-1.8-12.2,1.7
			c-0.9,3.5-1.3,5.9-3.9,6.3c-2.6,0.4-2.6,2.7-3.1,3.9c-1,2.3-3.9,5.2-5.6,5.2c-1.8,0-7,2.3-8.6,4.9c-1.9,3.1-5.9,3.3-9-1.1
			c-6-8.3-12.7-5.1-14-8.2c-1.8-4.2-7.8-2.1-9.1-4.8c-1.3-2.6-6.1-7.6-10.5-8.1c-4.4-0.4-8.9-1-7.3-5.9c1.4-4.4-0.6-5.4-2.4-7.6
			c-2.5-3.1,0.4-12.3-7.5-14c-7.9-1.8-12.9,1.3-15.1,0c-2.2-1.3-0.4-4.8-2.6-11s-7.6-6.1-7.6-10.5s1.9-3.7,2.3-7.2
			c0.6-5.7-6.7-7.3-13.3-14.4c-3.8-4.1-11-12.2-13.2-15.7c-2.2-3.5-1.4-14.7-5.3-18.5c-4.2-4.1-0.3-8.7-2.6-11.3
			c-5.2-5.9-9.3-6.6-14.5-7.9C86.6,0,84-0.1,81.4,0l-1.6,1.1c-0.7,0.5-1.1,1.1-1.2,2c-0.1,0.8,0,1.6,0.5,2.3l1.3,1.8
			c0.9,1.3,0.8,3-0.4,4.1l-9.3,8.5c-0.5,0.5-0.8,1.1-0.9,1.8l-1.4,10c-0.1,0.5,0,0.8,0.1,1.3l1.6,5.5c0.3,1.2,0,2.3-0.9,3.1
			l-2.5,2.3c-0.4,0.3-0.8,0.6-1.3,0.7l-4.8,1.2c-0.5,0.1-0.9,0.4-1.3,0.7l-7.1,6.6c-0.2,0.2-0.4,0.3-0.6,0.5l-8.4,4.4
			c-0.6,0.3-1,0.8-1.3,1.4l-1.2,2.6c-0.5,1.1-0.3,2.3,0.4,3.2l1.5,1.8c0.2,0.3,0.4,0.6,0.5,0.9l2.2,5.9c0.3,0.7,0.8,1.3,1.5,1.6
			l3.2,1.6c0.4,0.2,0.9,0.3,1.4,0.3l4.7-0.1c1,0,1.8-0.4,2.4-1.2l0.7-0.9c0.2-0.2,0.4-0.6,0.6-0.9l0.3-0.5l1.7-2.9l1.7,2.9
			c0.3,0.4,0.5,0.9,0.7,1.3c0.1,0.2,0.2,0.3,0.2,0.5l2,3.8c0.1,0.2,0.3,0.5,0.5,0.8c0.2,0.3,0.5,0.8,0.8,1.4l2.2,3.9l-4.3-1
			c-0.4-0.1-0.7-0.2-1.1-0.3c-0.4-0.1-0.8-0.2-1-0.3l-0.1,0c-0.1,0-0.2,0-0.3,0c-0.7,0-1.3,0.3-1.8,0.9l-0.1,0.2
			c-0.6,0.7-1.3,1.6-1.1,2.4c0.1,0.6,0.7,1.1,1.6,1.6c0.1,0.1,0.3,0.2,0.4,0.2l0.8,0.5c0.7,0.5,1.1,1.3,1,2.2l0,0.1
			c-0.1,1.1,0.3,2.2,1.3,2.8l0.7,0.5c0.5,0.4,0.9,0.9,1,1.5c0.1,0.6,0,1.2-0.4,1.8c-0.5,0.6-1.1,1-1.9,1.1l-1.7,0.3
			c-1,0.2-1.9,0.8-2.3,1.8l-0.3,0.8c-0.4,1-1.2,1.6-2.2,1.8l-2.8,0.5c-0.5,0.1-0.9,0.3-1.3,0.6l-7,5.6c-0.2,0.2-0.4,0.4-0.6,0.7
			l-2.5,3.7c-0.2,0.3-0.5,0.7-1.1,1l-5,2.3c-0.8,0.4-1.4,1-1.6,1.7c-0.2,0.6-0.1,1.2,0.3,1.8l1.7,2.8c0.7,1.1,0.5,2.5-0.5,3.5
			l-2.4,2.5c-0.5,0.6-1.2,0.9-2,1l-3,0.2c-0.5,0-0.9,0.2-1.3,0.4l-6.9,4.2c-0.5,0.3-1,0.4-1.6,0.4l-3.6,0c-0.6,0-1,0.1-1.5,0.4
			l-9.8,5.2c-0.5,0.2-0.9,0.4-1.4,0.4c-0.2,0-0.3,0-0.5,0l0.7,0.3l-3.4,4.8c-0.9,1.2-0.7,2.9,0.3,3.9l5.1,5c0.6,0.6,1.3,0.9,2.1,0.9
			c0.4,0,0.9-0.1,1.3-0.3l15.4-7.3c0.4-0.2,0.9-0.3,1.3-0.3c0.4,0,0.9,0.1,1.3,0.3c0.9,0.4,1.4,1.1,1.7,2l0.6,2.1
			c0,0.2,0.1,0.3,0.1,0.4l0.8,6.9c0,0.3,0.1,0.6,0.3,1l2.6,5.3c0.7,1.5,0.2,3.2-1.2,4l-3.6,2.1c-1,0.6-1.6,1.6-1.5,2.8l0.6,9
			c0.1,0.9,0.5,1.6,1.2,2.2l11.2,8.5c0.7,0.5,1.1,1.2,1.2,2.1l0.5,4.5c0.1,1.1,0.8,2,1.8,2.5l6.3,2.7c0.6,0.2,1,0.6,1.4,1.2l4.4,6.8
			c0.3,0.4,0.5,0.7,0.9,0.9l8.2,5.2c0.5,0.3,1,0.5,1.6,0.5c0.2,0,0.3,0,0.5,0l10.7-1.8c0.2,0,0.4,0,0.5,0c0.7,0,1.3,0.2,1.8,0.6
			l4.9,3.7c0.5,0.4,1.1,0.6,1.8,0.6c0.1,0,0.2,0,0.3,0l10.9-1.1c0.9-0.1,1.7-0.6,2.2-1.4l2.6-4.1c0.6-0.9,1.5-1.4,2.6-1.4
			c0.1,0,0.3,0,0.5,0l14.2,2c0.4,0.1,0.7,0.2,1.1,0.4l3.9,2.2c0.5,0.3,1,0.4,1.5,0.4c0.7,0,1.4-0.3,2-0.8l2-1.8
			c0.6-0.5,1.3-0.8,2-0.8c0.1,0,0.2,0,0.3,0l7.2,0.6c0.7,0.1,1.3,0.3,1.8,0.8l10.9,10.1c0.4,0.4,0.9,0.6,1.4,0.7l17.6,3.8
			c0.7,0.1,1.2,0.5,1.7,1l2.1,2.5c1,1.2,1,3-0.1,4.1l-1.4,1.5c-0.5,0.5-0.8,1.1-0.8,1.8l-0.2,2.4c-0.1,0.8,0.1,1.5,0.6,2.1l0.4,0.5
			c0.5,0.7,0.7,1.5,0.6,2.3l-2.5,15.5c-0.1,0.7,0,1.4,0.4,2l6.1,10.3c0.5,0.9,1.5,1.5,2.6,1.5c0.3,0,0.6,0,0.9-0.1l3.2-1
			c0.3-0.1,0.6-0.1,0.9-0.1c0.8,0,1.6,0.3,2.2,0.9l0.7,0.7c0.7,0.8,1,1.8,0.8,2.8l-0.8,3.6c-0.2,0.8-0.6,1.5-1.4,1.9l-5.4,3.3
			c-0.7,0.4-2.1,1.3-2.2,1.9c-0.1,0.5,0.3,1,0.9,1.5c0.1,0.1,0.2,0.2,0.3,0.3l0.4,0.4c0.6,0.7,1.4,1,2.2,1c0.5,0,1-0.1,1.5-0.4
			l14.5-8.3c0.5-0.3,1-0.4,1.5-0.4c0.7,0,1.5,0.3,2,0.8l6.8,6.1c0.6,0.5,1.2,0.8,2,0.8c0.3,0,0.6,0,0.8-0.1l10.7-2.9
			c0.3-0.1,0.5-0.1,0.8-0.1c0.1,0,0.2,0,0.2,0l4.7,0.3c0.9,0.1,1.7,0.5,2.3,1.3c0.2,0.3,0.4,0.6,0.5,0.9l0.4,1l-1.9,2.5
			c-0.3,0.4-0.4,0.8-0.3,1.2c0.3,0.8,1.6,1.4,3.7,1.8l10,1.9c0.2,0,0.4,0.1,0.6,0.1c1.1,0,2.1-0.6,2.6-1.6l8.9-16.5
			c0.2-0.3,0.3-0.6,0.3-0.9l0.9-5.8c0.1-0.9,0.6-1.7,1.4-2.1l4.4-2.6c0.5-0.3,1-0.4,1.6-0.4c0.4,0,0.8,0.1,1.2,0.3l4.5,1.9
			c0.4,0.2,0.8,0.2,1.2,0.2c0.2,0,0.5,0,0.7-0.1l5.4-1.3c0.2-0.1,0.5-0.1,0.7-0.1c0.4,0,0.9,0.1,1.3,0.3l5,2.3
			c0.9,0.4,1.5,1.1,1.7,2.1l1.3,5.6c0.2,0.7,0.5,1.2,1,1.6l7.8,6.5c0.4,0.4,0.9,0.6,1.4,0.7l9,1.6c0.2,0,0.4,0,0.5,0
			c0.9,0,1.7-0.4,2.3-1.1l0.3-0.3c0.6-0.7,0.8-1.5,0.7-2.4l-1.8-11.8c0-0.2,0-0.4,0-0.7l0.3-4.6c0-0.7,0.3-1.2,0.7-1.7l7.8-9.3
			c0.6-0.7,1.4-1.1,2.3-1.1c0.3,0,0.6,0,0.8,0.1l4.4,1.2c0.3,0.1,0.6,0.1,0.8,0.1c0.4,0,0.9-0.1,1.3-0.3l6.2-3
			c0.8-0.4,1.3-1,1.6-1.8l3.3-11c0.2-0.7,0.2-1.3-0.1-1.9l-0.8-2.2c-0.2-0.5-0.2-0.9-0.2-1.4l1.4-11.6c0.1-0.7,0.4-1.2,0.9-1.6
			c0.2-0.1,0.4-0.3,0.6-0.3C339.7,228.3,336.6,215,339.6,206.1z"/>
	</g>
	<g>
		<path class="st1" d="M83.9,173c1,0,1.9,0,3,0c0.6,2.4,1.3,4.8,2,7.5c0.9-2.5,1.3-5,2.1-7.4c1-0.3,2,0,3.1-0.2c0,4.8,0,9.5,0,14.3
			c-0.7,0.2-1.5,0.1-2.4,0c0-2.4,0-4.8,0-7.2c-0.1,0-0.2,0-0.3,0c-0.4,1.7-0.9,3.4-1.3,5.1c-0.7,0-1.3,0-2,0
			c-0.5-1.8-0.9-3.7-1.4-5.5c-0.1,0-0.1,0-0.2,0c0,2.5,0,5,0,7.6c-0.9,0-1.6,0-2.4,0C83.9,182.5,83.9,177.8,83.9,173z"/>
		<path class="st1" d="M109.3,187.2c-0.9,0.1-1.7,0.1-2.5,0c-0.9-2.5-1.7-5-2.6-7.5c-0.1,0-0.1,0-0.2,0c0,2.5,0,5,0,7.5
			c-0.8,0.2-1.6,0.1-2.4,0.1c0-4.7,0-9.4,0-14.1c0.8-0.2,1.6-0.1,2.5-0.1c0.9,2.6,1.7,5.1,2.6,7.7c0.1,0,0.1,0,0.2,0
			c0-2.5,0-5,0-7.6c0.8-0.2,1.6-0.1,2.4-0.1C109.3,177.7,109.3,182.4,109.3,187.2z"/>
		<path class="st1" d="M248,187.3c-1,0-1.8,0-2.7,0c0-4.7,0-9.4,0-14.1c0.8-0.3,1.6-0.1,2.6-0.1c0,1.9,0,3.7,0,5.7
			c0.8,0,1.5,0,2.3,0c0-1.9,0-3.7,0-5.6c1-0.2,1.8-0.2,2.7,0c0,4.7,0,9.3,0,14.1c-0.9,0.3-1.7,0.1-2.7,0.2c0-2.1,0-4,0-6
			c-0.8-0.3-1.5-0.2-2.4-0.1C248,183.2,248,185.2,248,187.3z"/>
		<path class="st1" d="M159.1,187.2c-0.6,0.1-1.1,0.1-1.7-0.1c-1.1-2.9-2.2-5.8-3.3-8.7c-0.1,0-0.2,0-0.3,0.1c0,2.9,0,5.8,0,8.6
			c-0.7,0.2-1.1,0.2-1.7,0c0-4.7,0-9.4,0-14.1c0.6-0.2,1.1-0.1,1.7,0c1.1,2.9,2.2,5.9,3.3,8.8c0.1,0,0.2,0,0.3-0.1
			c0-2.9,0-5.8,0-8.6c0.6-0.3,1.1-0.2,1.7-0.1C159.1,177.8,159.1,182.4,159.1,187.2z"/>
		<path class="st1" d="M233.3,177.8c-0.8,0-1.5,0-2.2,0c-0.4-0.4-0.1-1-0.3-1.5c-0.2-0.6-0.5-1-1.2-0.9c-0.7,0.1-1,0.7-1,1.3
			c0,0.8,0.5,1.3,1.1,1.7c1.2,0.9,2.4,1.7,3.2,2.9c1,1.5,1,3.4,0,4.7c-1,1.3-2.8,1.8-4.5,1.3c-1.8-0.6-2.5-1.9-2.3-4.3
			c0.7,0,1.5,0,2.3,0c0.4,0.3,0.1,0.8,0.3,1.2c0.2,0.6,0.6,0.9,1.3,0.8c0.6-0.1,0.9-0.5,1-1.1c0.1-0.8-0.4-1.3-0.9-1.8
			c-1-0.8-2-1.6-2.9-2.5c-2.2-2.3-1.3-5.9,1.7-6.6C231.3,172.5,234,174.4,233.3,177.8z"/>
		<path class="st1" d="M255.3,187.2c0-4.7,0-9.4,0-14.1c2.3,0,4.5,0,6.7,0c0.3,0.7,0.2,1.5,0,2.3c-1.3,0-2.5,0-3.8,0
			c-0.3,1.1-0.1,2.2-0.2,3.3c1,0.3,2.1,0,3.2,0.2c0.3,0.7,0.1,1.4,0.1,2.3c-1.1,0-2.1,0-3.3,0c0,1.3,0,2.4,0,3.7c1.3,0,2.6,0,3.9,0
			c0.3,0.8,0.2,1.6,0.1,2.4C259.9,187.2,257.7,187.2,255.3,187.2z"/>
		<path class="st1" d="M280.6,173.1c0.3,0.8,0.2,1.5,0.1,2.3c-1.4,0-2.6,0-3.9,0c-0.2,1.1-0.1,2.2-0.1,3.3c1.1,0,2.1,0,3.2,0
			c0.3,0.9,0.2,1.6,0.1,2.5c-1.1,0-2.1,0-3.2,0c0,1.3,0,2.4,0,3.7c1.3,0,2.6,0,3.9,0c0.3,0.8,0.2,1.6,0.1,2.4c-2.3,0-4.5,0-6.8,0
			c0-4.7,0-9.4,0-14.1C276.2,173.1,278.4,173.1,280.6,173.1z"/>
		<path class="st1" d="M114.7,175.4c0,1.3,0,2.3,0,3.4c1.1,0,2.1,0,3.2,0c0,0.8,0,1.5,0,2.3c-1,0.4-2,0-3.2,0.2
			c-0.3,1.1-0.1,2.3-0.1,3.5c1.3,0.3,2.7,0,4.1,0.2c0.2,0.7,0.1,1.4,0,2.2c-2.3,0-4.5,0-6.8,0c0-4.7,0-9.3,0-14.1c2.2,0,4.4,0,6.7,0
			c0.3,0.7,0.2,1.4,0.1,2.3C117.3,175.4,116,175.4,114.7,175.4z"/>
		<path class="st1" d="M147.4,173.1c0.5-0.2,1.1-0.1,1.8,0c0,1.7,0,3.5,0,5.3c0,2,0.1,4,0,5.9c-0.1,1.9-1.5,3.2-3.3,3.3
			c-1.8,0.1-3.6-1.2-3.7-2.9c-0.1-3.8,0-7.7,0-11.5c0.6-0.3,1.2-0.2,1.7-0.1c0.4,0.5,0.2,1,0.2,1.5c0,2.9,0,5.9,0,8.8
			c0,1.7,0.5,2.5,1.6,2.4c1.1,0,1.5-0.8,1.5-2.5c0-2.9,0-5.8,0-8.7C147.2,174.1,147.1,173.6,147.4,173.1z"/>
		<path class="st1" d="M170,183.1c0.5,0,1,0,1.6,0c0.1,0.5,0.1,0.9,0.2,1.4c0.2,0.9,0.8,1.4,1.8,1.3c1-0.1,1.5-0.8,1.5-1.8
			c0-0.9-0.5-1.5-1.1-2.1c-0.9-0.8-1.9-1.5-2.8-2.4c-1.6-1.6-1.7-4.1-0.3-5.5c1.1-1.1,2.8-1.3,4.1-0.6c1.3,0.7,1.9,2.2,1.6,4.1
			c-0.5,0.2-1,0.1-1.5,0c0-0.4,0-0.9-0.1-1.3c-0.2-0.8-0.7-1.4-1.6-1.4c-1,0-1.4,0.7-1.6,1.6c-0.1,1,0.4,1.6,1,2.2
			c1,0.8,2,1.6,2.9,2.5c2,2.1,1.6,5.1-0.7,6.2c-1.3,0.6-2.5,0.5-3.6-0.3C170,186,169.7,184.6,170,183.1z"/>
		<path class="st1" d="M184,182.8c0.6-0.1,1.1-0.2,1.7,0.1c0.2,1.5,0.2,2.9-1.2,4c-1.1,0.8-2.3,1-3.6,0.5c-1.3-0.6-2.1-1.5-2.1-3
			c0-2.6,0-5.2,0-7.8c0-2.2,1.4-3.5,3.5-3.6c2,0,3.3,1.4,3.4,3.5c0,0.3,0,0.6,0,0.9c-0.6,0.3-1.1,0.2-1.6,0.1
			c-0.3-0.4-0.1-0.8-0.2-1.2c-0.1-0.9-0.6-1.4-1.5-1.4c-0.9,0-1.5,0.5-1.6,1.4c-0.1,2.7-0.1,5.5,0,8.2c0,0.8,0.7,1.4,1.5,1.4
			c0.9,0,1.4-0.5,1.6-1.4C184,183.9,184,183.4,184,182.8z"/>
		<path class="st1" d="M125,187.2c-1,0-1.8,0-2.8,0c0-3.9,0-7.8,0-11.7c-0.8,0-1.5-0.1-2.1-0.1c-0.3-0.8-0.2-1.5-0.1-2.3
			c2.4,0,4.7,0,7.1,0c0.3,0.7,0.1,1.4,0.1,2.2c-0.6,0.3-1.3,0.1-2.1,0.2C125,179.3,125,183.2,125,187.2z"/>
		<path class="st1" d="M130.1,175.5c-0.9,0-1.5-0.1-2.2-0.1c-0.2-0.8-0.2-1.5,0-2.3c2.4,0,4.7,0,7.1,0c0.2,0.8,0.2,1.5,0,2.2
			c-0.7,0.3-1.3,0-2.1,0.3c0,3.8,0,7.7,0,11.6c-1,0.3-1.8,0.1-2.8,0.2C130.1,183.3,130.1,179.5,130.1,175.5z"/>
		<path class="st1" d="M167.4,179.2c0,0.6,0,1.1,0,1.7c-1.1,0-2.2,0-3.3,0c0,1.5,0,3,0,4.6c1.3,0,2.7,0,4,0c0.3,0.6,0.2,1.1,0.1,1.7
			c-2,0-3.9,0-6,0c0-4.6,0-9.3,0-14.1c1.9,0,3.8,0,5.8,0c0.4,0.5,0.2,1,0.1,1.6c-1.3,0.3-2.6,0-4,0.2c0,1.3,0,2.6,0,4.1
			C165.1,179.3,166.2,178.9,167.4,179.2z"/>
		<path class="st1" d="M211.8,187.3c0-4.8,0-9.5,0-14.2c0.9,0,1.7,0,2.6,0c0,4.7,0,9.4,0,14.1C213.6,187.4,212.8,187.2,211.8,187.3z
			"/>
		<path class="st1" d="M99.3,187.2c-0.9,0-1.7,0-2.6,0c0-4.7,0-9.4,0-14.2c0.9,0,1.7,0,2.6,0C99.3,177.7,99.3,182.4,99.3,187.2z"/>
		<path class="st1" d="M270.3,181.1c0.3-0.4,0.6-0.6,0.9-1c1.9-2.5,0.6-6.6-2.3-7.1c-1.5-0.2-3.1,0-4.6,0c0,4.8,0,9.5,0,14.3
			c0.9,0,1.8,0.2,2.7-0.2c0-1.8,0-3.5,0-5.2c0.2-0.1,0.3-0.1,0.5-0.2c1.3,1.6,1.1,3.8,2.1,5.6c0.9,0,1.7,0.1,2.6-0.1
			C271.5,185.1,270.9,183.1,270.3,181.1z M268.9,178.7c-0.4,0.8-1.2,0.6-2,0.4c0-1.3,0-2.4,0-3.6c0.8-0.2,1.6-0.4,2,0.4
			C269.4,176.8,269.4,177.8,268.9,178.7z"/>
		<path class="st1" d="M208.4,180.1c0.3-0.3,0.5-0.6,0.7-0.9c1.6-2.4,0-6-2.9-6.2c-1.3-0.1-2.5,0-3.9,0c0,4.9,0,9.5,0,14.3
			c1.5,0,2.8,0.1,4.2,0c2-0.1,3.2-1.5,3.4-3.4C210,182.4,209.9,181,208.4,180.1z M204.9,175.5c1.9,0,2.1,0.3,2,2.1
			c-0.1,1.4-0.3,1.6-2,1.4C204.8,177.8,204.8,176.7,204.9,175.5z M206.9,184.3c-0.4,0.8-1.2,0.6-2,0.5c0-1.2,0-2.3,0-3.5
			c0.7-0.1,1.5-0.3,1.9,0.4C207.3,182.5,207.3,183.4,206.9,184.3z"/>
		<path class="st1" d="M224.2,176.4c-0.1-2-1.6-3.3-3.8-3.4c-2.1-0.1-3.9,1.2-4,3.1c-0.1,2.8-0.1,5.6,0,8.3c0.1,2,1.9,3.3,4.1,3.2
			c2.1-0.1,3.6-1.5,3.7-3.5c0-1.3,0-2.5,0-3.8C224.2,179,224.2,177.7,224.2,176.4z M221.4,183.9c0,0.7-0.3,1.2-1,1.2
			c-0.8,0-1.2-0.5-1.2-1.3c0-2.4,0-4.9,0-7.3c0-0.7,0.4-1.2,1.1-1.2c0.7,0,1.1,0.5,1.1,1.2c0,1.3,0,2.5,0,3.8c0,0,0,0,0,0
			C221.4,181.6,221.4,182.7,221.4,183.9z"/>
		<path class="st1" d="M243.3,176.4c-0.2-1.8-1.3-3.2-3.1-3.4c-1.5-0.1-3,0-4.6,0c0,4.8,0,9.5,0,14.2c0.9,0,1.8,0,2.7,0
			c0-1.2,0-2.3,0-3.6c0.4,0,0.7,0,0.9,0c2.6-0.1,4-1.4,4.1-4C243.4,178.5,243.4,177.5,243.3,176.4z M238.3,181.1c0-1.9,0-3.7,0-5.6
			c1.9-0.2,2.2,0,2.2,1.8c0,0.6,0,1.2,0,1.8C240.5,181,240.3,181.3,238.3,181.1z"/>
		<path class="st1" d="M191.2,187.6c1.9,0.1,3.6-1.2,3.7-3c0.1-2.9,0.1-5.8,0-8.7c-0.1-1.8-1.8-3-3.6-2.9c-1.9,0.1-3.3,1.4-3.3,3.2
			c0,1.3,0,2.6,0,4c0,1.4,0,2.7,0,4.1C188,186.1,189.4,187.5,191.2,187.6z M189.9,176.6c0-1.1,0.5-1.8,1.6-1.8
			c1.1,0,1.6,0.8,1.6,1.8c0,1.2,0,2.4,0,3.7c0,1.2,0,2.4,0,3.7c0,1.1-0.5,1.8-1.6,1.8c-1.1,0-1.6-0.8-1.6-1.8
			C189.9,181.5,189.9,179.1,189.9,176.6z"/>
	</g>
</g>
</svg>
