<?xml version="1.0" encoding="utf-8"?>
<!-- Generator: Adobe Illustrator 24.2.3, SVG Export Plug-In . SVG Version: 6.00 Build 0)  -->
<svg version="1.1" xmlns="http://www.w3.org/2000/svg" xmlns:xlink="http://www.w3.org/1999/xlink" x="0px" y="0px"
	 viewBox="0 0 71.6 76.8" style="enable-background:new 0 0 71.6 76.8;" xml:space="preserve">
<style type="text/css">
	.st0{fill:#3A8980;}
</style>
<g id="Calque_1">
</g>
<g id="Mode_Isolation">
	<g>
		<polygon class="st0" points="32.7,30.9 40.1,45.8 40.6,45.8 33.2,30.9 		"/>
		<polygon class="st0" points="31.6,27.7 24.7,13.7 24.3,14 31.3,28 		"/>
		<path class="st0" d="M0.9,38.4c0,0.1,0,0.1,0,0.2L3.1,43L4,43.8l-3.1-6.1C0.9,37.9,0.9,38.1,0.9,38.4z"/>
		<path class="st0" d="M2.7,34.1c-0.1,0.1-0.2,0.2-0.3,0.3l7.3,14.7l0.9,0.8L2.7,34.1L2.7,34.1z"/>
		<polygon class="st0" points="4.9,32.1 16.4,55.4 17.3,56.2 5.2,31.8 		"/>
		<polygon class="st0" points="7.3,29.9 23.1,61.6 24,62.4 7.6,29.5 		"/>
		<polygon class="st0" points="9.8,27.6 29.8,67.8 30.7,68.6 10.1,27.3 		"/>
		<path class="st0" d="M12.2,25.3L36.4,74l0.1,0.1c0.2,0.2,0.5,0.4,0.7,0.6L12.5,25L12.2,25.3z"/>
		<path class="st0" d="M14.7,23L41,75.9c0,0,0.1,0,0.1,0c0.1,0,0.2,0,0.4,0L15,22.7L14.7,23z"/>
		<polygon class="st0" points="30.1,45.8 17.4,20.4 17.1,20.7 29.6,45.8 		"/>
		<path class="st0" d="M30.9,48.4l13.3,26.7c0.1-0.1,0.3-0.1,0.4-0.2L31.8,49.3L30.9,48.4z"/>
		<polygon class="st0" points="37.6,54.6 46.7,73 47,72.6 38.5,55.5 		"/>
		<polygon class="st0" points="33.7,45.8 19.9,18.2 19.6,18.5 33.2,45.8 		"/>
		<polygon class="st0" points="29.3,30.9 36.8,45.8 37.3,45.8 29.8,30.9 		"/>
		<path class="st0" d="M48.8,69l-3.6-7.3l-0.9-0.8l4.4,8.9C48.7,69.5,48.7,69.2,48.8,69z"/>
		<polygon class="st0" points="29.3,29.8 22.3,15.9 22,16.2 28.9,30.1 		"/>
		<polygon class="st0" points="34.2,25.3 27.2,11.3 26.9,11.6 33.8,25.6 		"/>
		<polygon class="st0" points="36.5,30.9 43.9,45.8 44.4,45.8 37,30.9 		"/>
		<polygon class="st0" points="40.1,30.9 47.5,45.8 48,45.8 40.6,30.9 		"/>
		<polygon class="st0" points="36.6,23 29.7,9 29.4,9.4 36.3,23.3 		"/>
		<polygon class="st0" points="43.7,30.9 51.1,45.8 51.6,45.8 44.2,30.9 		"/>
		<polygon class="st0" points="39.1,20.7 32.1,6.8 31.8,7.1 38.7,21 		"/>
		<polygon class="st0" points="41.5,18.4 34.6,4.5 34.3,4.8 41.2,18.7 		"/>
		<polygon class="st0" points="47.3,30.9 54.7,45.8 55.2,45.8 47.7,30.9 		"/>
		<path class="st0" d="M44,16.2L37.1,2.2c-0.1,0.1-0.2,0.2-0.3,0.3l6.9,13.9L44,16.2z"/>
		<polygon class="st0" points="50.8,30.9 58.3,45.8 58.8,45.8 51.3,30.9 		"/>
		<path class="st0" d="M46.4,13.9L40,1c-0.1,0-0.3,0.1-0.4,0.1l6.5,13.1L46.4,13.9z"/>
		<polygon class="st0" points="54.4,30.9 61.9,45.8 62.3,45.8 54.9,30.9 		"/>
		<path class="st0" d="M48.5,10.9l-4.7-9.4c-0.2-0.1-0.4-0.2-0.6-0.2l5.1,10.2C48.4,11.2,48.4,11,48.5,10.9z"/>
		<path class="st0" d="M58,30.9l7.3,14.6c0.1,0,0.3-0.1,0.4-0.1l-7.2-14.5H58z"/>
		<path class="st0" d="M61.6,30.9L68.1,44c0.1-0.1,0.2-0.2,0.3-0.3l-6.4-12.8H61.6z"/>
		<path class="st0" d="M66,31.5c-0.2-0.1-0.4-0.1-0.6-0.2l4.8,9.7c0.1-0.2,0.1-0.4,0.2-0.6L66,31.5z"/>
		<polygon class="st0" points="30.3,30 31.7,28.8 31.3,28 29.3,29.8 29.8,30.9 32.7,30.9 32.3,30 		"/>
		<polygon class="st0" points="36.6,30 37,30.9 40.1,30.9 39.7,30 		"/>
		<polygon class="st0" points="32.8,30 33.2,30.9 36.5,30.9 36.1,30 		"/>
		<polygon class="st0" points="44.4,45.8 44.9,46.7 48,46.7 47.5,45.8 		"/>
		<polygon class="st0" points="44.1,17.3 43.6,16.5 41.5,18.4 41.9,19.2 		"/>
		<path class="st0" d="M47.3,14.2c0.6-0.5,1.1-1.2,1.4-1.8l-0.5-1c-0.4,0.8-0.9,1.6-1.6,2.2l-0.3,0.3l0.4,0.8L47.3,14.2z"/>
		<polygon class="st0" points="46.5,15 46.1,14.2 44,16.2 44.4,17 		"/>
		<polygon class="st0" points="36.7,24.1 36.3,23.3 34.2,25.3 34.6,26.1 		"/>
		<polygon class="st0" points="34.3,26.4 33.8,25.6 31.6,27.7 32,28.5 		"/>
		<polygon class="st0" points="41.6,19.6 41.2,18.7 39.1,20.7 39.5,21.5 		"/>
		<polygon class="st0" points="39.2,21.8 38.7,21 36.6,23 37,23.8 		"/>
		<polygon class="st0" points="28.1,30.9 29.3,30.9 28.9,30.1 		"/>
		<path class="st0" d="M70.7,42.1l-0.5-1c-0.3,0.9-0.8,1.7-1.5,2.4c-0.1,0.1-0.2,0.2-0.3,0.3l0.4,0.8c0.2-0.2,0.4-0.3,0.5-0.5
			C69.9,43.4,70.4,42.8,70.7,42.1z"/>
		<path class="st0" d="M63.2,45.8h-0.9l0.4,0.9h0.5c0.8,0,1.7-0.1,2.4-0.4l-0.4-0.8C64.6,45.7,63.9,45.8,63.2,45.8z"/>
		<polygon class="st0" points="48,45.8 48.4,46.7 51.5,46.7 51.1,45.8 		"/>
		<polygon class="st0" points="19.6,18.5 19.2,17.7 17,19.6 17.4,20.4 		"/>
		<path class="st0" d="M65.7,45.4l0.4,0.8c0.9-0.3,1.7-0.8,2.4-1.4L68.1,44C67.4,44.6,66.6,45.1,65.7,45.4z"/>
		<polygon class="st0" points="9.8,27.6 9.4,26.8 7.2,28.7 7.6,29.5 		"/>
		<polygon class="st0" points="14.7,23 14.3,22.2 12.1,24.2 12.5,25 		"/>
		<polygon class="st0" points="12.2,25.3 11.8,24.5 9.7,26.5 10.1,27.3 		"/>
		<polygon class="st0" points="17.1,20.7 16.7,19.9 14.6,21.9 15,22.7 		"/>
		<polygon class="st0" points="40.1,30 40.6,30.9 43.7,30.9 43.2,30 		"/>
		<polygon class="st0" points="24.3,14 23.9,13.2 21.9,15.1 22.3,15.9 		"/>
		<polygon class="st0" points="7.3,29.9 6.9,29 4.8,31 5.2,31.8 		"/>
		<polygon class="st0" points="51.6,45.8 52,46.7 55.1,46.7 54.7,45.8 		"/>
		<polygon class="st0" points="58.8,45.8 59.2,46.7 62.3,46.7 61.9,45.8 		"/>
		<path class="st0" d="M2.4,34.4L2,33.6c-0.8,0.8-1.4,1.7-1.7,2.8l0.6,1.3C1.1,36.5,1.6,35.3,2.4,34.4z"/>
		<polygon class="st0" points="4.9,32.1 4.5,31.3 2.3,33.3 2.7,34.1 		"/>
		<polygon class="st0" points="55.2,45.8 55.6,46.7 58.7,46.7 58.3,45.8 		"/>
		<path class="st0" d="M37.3,74.7l0.7,1.4c1,0.4,2,0.7,3.1,0.7c0.1,0,0.2,0,0.3,0L41,75.9C39.6,75.8,38.3,75.4,37.3,74.7z"/>
		<polygon class="st0" points="34.1,46.7 37.2,46.7 36.8,45.8 33.7,45.8 		"/>
		<polygon class="st0" points="40.6,45.8 41.1,46.7 44.4,46.7 43.9,45.8 		"/>
		<polygon class="st0" points="38.5,55.5 44.2,60.8 43.1,58.6 37.4,53.2 		"/>
		<polygon class="st0" points="37.3,45.8 37.7,46.7 40.6,46.7 40.1,45.8 		"/>
		<path class="st0" d="M30.7,68.6l1.1,2.2l4.2,3.9c0.4,0.4,0.9,0.7,1.3,1L36.4,74L30.7,68.6z"/>
		<polygon class="st0" points="24,62.4 25.1,64.6 30.9,70 29.8,67.8 		"/>
		<polygon class="st0" points="58.5,30.9 61.6,30.9 61.2,30 58.1,30 		"/>
		<polygon class="st0" points="17.3,56.2 18.4,58.4 24.2,63.8 23.1,61.6 		"/>
		<polygon class="st0" points="33.6,46.7 33.2,45.8 30.1,45.8 30.5,46.7 		"/>
		<polygon class="st0" points="22,16.2 21.6,15.4 19.5,17.3 19.9,18.2 		"/>
		<polygon class="st0" points="28.1,45.8 30.9,48.4 29.6,45.8 		"/>
		<polygon class="st0" points="30.7,47 31.8,49.3 37.6,54.6 36.4,52.4 		"/>
		<polygon class="st0" points="26.9,11.6 26.5,10.8 24.2,12.9 24.7,13.7 		"/>
		<path class="st0" d="M46.7,63.2c1.3,1.2,2.1,2.9,2.1,4.6c0,0.4,0,0.8-0.1,1.2l0.6,1.2c0.2-0.8,0.4-1.6,0.3-2.5
			c-0.1-2-0.9-3.9-2.4-5.2L44,59.5l1.1,2.2L46.7,63.2z"/>
		<path class="st0" d="M41.4,75.9l0.4,0.9c0.9-0.1,1.9-0.4,2.7-0.8l-0.4-0.8C43.3,75.6,42.4,75.8,41.4,75.9z"/>
		<path class="st0" d="M46,73.8c-0.4,0.4-0.9,0.8-1.4,1.1l0.4,0.8c0.6-0.4,1.2-0.8,1.7-1.3l0.5-0.5L46.7,73L46,73.8z"/>
		<path class="st0" d="M70.7,37.7c0.1,0.9,0,1.8-0.3,2.7l0.5,1.1c0.5-1.2,0.7-2.5,0.6-3.9c-0.3-3.5-2.8-6.3-6.2-7.3l0.6,1.1
			C68.5,32.5,70.4,34.9,70.7,37.7z"/>
		<path class="st0" d="M46,3l1.1,1.2c1.2,1.3,1.8,3,1.8,4.8c0,0.7-0.1,1.3-0.3,1.9l0.5,1.1C49.5,11,49.7,10,49.7,9
			c0-0.9-0.1-1.9-0.4-2.7l-0.8-1.7c-0.2-0.3-0.5-0.7-0.8-1l-1.1-1.2c-0.9-1-2.1-1.7-3.3-2.1l0.6,1.2C44.6,1.8,45.4,2.4,46,3z"/>
		<path class="st0" d="M41.1,0.9c0.7,0,1.5,0.1,2.1,0.4l-0.5-1.1C42.2,0.1,41.6,0,41.1,0c-0.5,0-1,0.1-1.5,0.2L40,1
			C40.4,0.9,40.7,0.9,41.1,0.9z"/>
		<polygon class="st0" points="31.8,7.1 31.4,6.3 29.3,8.2 29.7,9 		"/>
		<polygon class="st0" points="47.3,30 47.7,30.9 50.8,30.9 50.4,30 		"/>
		<path class="st0" d="M39.6,1.1l-0.4-0.8c-0.9,0.2-1.7,0.6-2.5,1.2l0.4,0.8C37.8,1.7,38.7,1.3,39.6,1.1z"/>
		<polygon class="st0" points="34.3,4.8 33.9,4 31.7,6 32.1,6.8 		"/>
		<polygon class="st0" points="10.7,50 11.8,52.2 17.5,57.6 16.4,55.4 		"/>
		<polygon class="st0" points="43.7,30 44.2,30.9 47.3,30.9 46.8,30 		"/>
		<path class="st0" d="M36.6,2.7c0,0,0.1-0.1,0.1-0.1l-0.4-0.8C36.2,1.8,36.1,1.9,36,2l-1.8,1.7l0.4,0.8L36.6,2.7z"/>
		<polygon class="st0" points="4,43.8 5.1,46 10.9,51.4 9.7,49.2 		"/>
		<polygon class="st0" points="54.5,30 54.9,30.9 58,30.9 57.6,30 		"/>
		<path class="st0" d="M2.7,42.6c-1.1-1.1-1.8-2.5-1.8-4.1L0.1,37C0,37.5,0,37.9,0,38.4c0,1.9,0.8,3.6,2.1,4.9l2,1.9L3.1,43
			L2.7,42.6z"/>
		<path class="st0" d="M47.1,72.6L47.1,72.6l0.3,0.9l0.3-0.3c0.6-0.7,1.1-1.5,1.5-2.3l-0.6-1.1C48.4,70.8,47.8,71.7,47.1,72.6z"/>
		<polygon class="st0" points="29.4,9.4 29,8.5 26.8,10.5 27.2,11.3 		"/>
		<path class="st0" d="M63,30.9c0.8,0,1.6,0.1,2.3,0.4l-0.5-1C64.2,30.1,63.6,30,63,30h-1.4l0.4,0.9H63z"/>
		<polygon class="st0" points="50.9,30 51.3,30.9 54.4,30.9 54,30 		"/>
		<polygon class="st0" points="32,28.5 31.6,27.7 31.3,28 31.7,28.8 		"/>
		<polygon class="st0" points="32.3,30 32.7,30.9 33.2,30.9 32.8,30 		"/>
		<polygon class="st0" points="40.1,45.8 40.6,46.7 41.1,46.7 40.6,45.8 		"/>
		<polygon class="st0" points="24.7,13.7 24.2,12.9 23.9,13.2 24.3,14 		"/>
		<path class="st0" d="M0.9,38.4c0-0.2,0-0.5,0-0.7l-0.6-1.3c-0.1,0.2-0.1,0.4-0.2,0.6l0.8,1.5C0.9,38.5,0.9,38.4,0.9,38.4z"/>
		<polygon class="st0" points="3.1,43 4.2,45.2 5.1,46 4,43.8 		"/>
		<path class="st0" d="M2.7,34.1L2.7,34.1l-0.4-0.8l-0.2,0.2c0,0-0.1,0.1-0.1,0.1l0.4,0.8C2.5,34.3,2.6,34.2,2.7,34.1z"/>
		<polygon class="st0" points="9.7,49.2 10.9,51.4 11.8,52.2 10.7,50 		"/>
		<polygon class="st0" points="16.4,55.4 17.5,57.6 18.4,58.4 17.3,56.2 		"/>
		<polygon class="st0" points="5.2,31.8 4.8,31 4.5,31.3 4.9,32.1 		"/>
		<polygon class="st0" points="23.1,61.6 24.2,63.8 25.1,64.6 24,62.4 		"/>
		<polygon class="st0" points="7.6,29.5 7.2,28.7 6.9,29 7.3,29.9 		"/>
		<polygon class="st0" points="29.8,67.8 30.9,70 31.8,70.8 30.7,68.6 		"/>
		<polygon class="st0" points="10.1,27.3 9.7,26.5 9.4,26.8 9.8,27.6 		"/>
		<polygon class="st0" points="12.5,25 12.1,24.2 11.8,24.5 12.2,25.3 		"/>
		<path class="st0" d="M36.6,74.1L36.4,74l0.9,1.8c0.2,0.1,0.4,0.2,0.7,0.3l-0.7-1.4C37,74.5,36.8,74.3,36.6,74.1z"/>
		<path class="st0" d="M41.1,75.9c0,0-0.1,0-0.1,0l0.4,0.9c0.2,0,0.3,0,0.5,0l-0.4-0.9C41.3,75.9,41.2,75.9,41.1,75.9z"/>
		<polygon class="st0" points="15,22.7 14.6,21.9 14.3,22.2 14.7,23 		"/>
		<path class="st0" d="M44.2,75.1l0.4,0.8c0.1-0.1,0.3-0.1,0.4-0.2l-0.4-0.8C44.4,75,44.3,75,44.2,75.1z"/>
		<polygon class="st0" points="17.4,20.4 17,19.6 16.7,19.9 17.1,20.7 		"/>
		<polygon class="st0" points="30.3,46.7 30.5,46.7 30.1,45.8 29.6,45.8 30.9,48.4 31.8,49.3 30.7,47 		"/>
		<polygon class="st0" points="19.9,18.2 19.5,17.3 19.2,17.7 19.6,18.5 		"/>
		<polygon class="st0" points="33.6,46.7 34.1,46.7 33.7,45.8 33.2,45.8 		"/>
		<polygon class="st0" points="37.6,54.6 38.5,55.5 37.4,53.2 36.4,52.4 		"/>
		<polygon class="st0" points="46.7,73 47.1,73.8 47.4,73.5 47,72.6 		"/>
		<path class="st0" d="M48.6,69.7l0.6,1.1c0.1-0.2,0.1-0.4,0.2-0.6L48.8,69C48.7,69.2,48.7,69.5,48.6,69.7z"/>
		<polygon class="st0" points="36.8,45.8 37.2,46.7 37.7,46.7 37.3,45.8 		"/>
		<polygon class="st0" points="22.3,15.9 21.9,15.1 21.6,15.4 22,16.2 		"/>
		<polygon class="st0" points="28.9,30.1 29.3,30.9 29.8,30.9 29.3,29.8 		"/>
		<polygon class="st0" points="44.2,60.8 45.1,61.7 44,59.5 43.1,58.6 		"/>
		<polygon class="st0" points="27.2,11.3 26.8,10.5 26.5,10.8 26.9,11.6 		"/>
		<polygon class="st0" points="36.1,30 36.5,30.9 37,30.9 36.6,30 		"/>
		<polygon class="st0" points="34.6,26.1 34.2,25.3 33.8,25.6 34.3,26.4 		"/>
		<polygon class="st0" points="43.9,45.8 44.4,46.7 44.9,46.7 44.4,45.8 		"/>
		<polygon class="st0" points="37,23.8 36.6,23 36.3,23.3 36.7,24.1 		"/>
		<polygon class="st0" points="29.7,9 29.3,8.2 29,8.5 29.4,9.4 		"/>
		<polygon class="st0" points="47.5,45.8 48,46.7 48.4,46.7 48,45.8 		"/>
		<polygon class="st0" points="39.7,30 40.1,30.9 40.6,30.9 40.1,30 		"/>
		<polygon class="st0" points="32.1,6.8 31.7,6 31.4,6.3 31.8,7.1 		"/>
		<polygon class="st0" points="43.2,30 43.7,30.9 44.2,30.9 43.7,30 		"/>
		<polygon class="st0" points="39.5,21.5 39.1,20.7 38.7,21 39.2,21.8 		"/>
		<polygon class="st0" points="51.1,45.8 51.5,46.7 52,46.7 51.6,45.8 		"/>
		<polygon class="st0" points="54.7,45.8 55.1,46.7 55.6,46.7 55.2,45.8 		"/>
		<polygon class="st0" points="46.8,30 47.3,30.9 47.7,30.9 47.3,30 		"/>
		<polygon class="st0" points="34.6,4.5 34.2,3.7 33.9,4 34.3,4.8 		"/>
		<polygon class="st0" points="41.9,19.2 41.5,18.4 41.2,18.7 41.6,19.6 		"/>
		<path class="st0" d="M37.1,2.2l-0.4-0.8c-0.1,0.1-0.2,0.2-0.4,0.3l0.4,0.8C36.8,2.4,36.9,2.3,37.1,2.2z"/>
		<polygon class="st0" points="58.3,45.8 58.7,46.7 59.2,46.7 58.8,45.8 		"/>
		<polygon class="st0" points="44.4,17 44,16.2 43.6,16.5 44.1,17.3 		"/>
		<polygon class="st0" points="50.4,30 50.8,30.9 51.3,30.9 50.9,30 		"/>
		<polygon class="st0" points="46.8,14.7 46.4,13.9 46.1,14.2 46.5,15 		"/>
		<path class="st0" d="M40,1l-0.4-0.8c-0.1,0-0.3,0.1-0.4,0.1l0.4,0.8C39.7,1,39.9,1,40,1z"/>
		<polygon class="st0" points="61.9,45.8 62.3,46.7 62.8,46.7 62.3,45.8 		"/>
		<polygon class="st0" points="54,30 54.4,30.9 54.9,30.9 54.5,30 		"/>
		<path class="st0" d="M65.3,45.5l0.4,0.8c0.1,0,0.3-0.1,0.4-0.1l-0.4-0.8C65.6,45.5,65.4,45.5,65.3,45.5z"/>
		<polygon class="st0" points="57.6,30 58,30.9 58.5,30.9 58.1,30 		"/>
		<path class="st0" d="M43.8,1.5l-0.6-1.2c-0.2-0.1-0.4-0.1-0.6-0.1l0.5,1.1C43.4,1.3,43.6,1.4,43.8,1.5z"/>
		<path class="st0" d="M48.8,12.4c0.1-0.2,0.2-0.3,0.2-0.5l-0.5-1.1c-0.1,0.2-0.1,0.4-0.2,0.6L48.8,12.4z"/>
		<path class="st0" d="M68.1,44l0.4,0.8c0.1-0.1,0.2-0.2,0.3-0.3l-0.4-0.8C68.3,43.8,68.2,43.9,68.1,44z"/>
		<polygon class="st0" points="61.6,30.9 62.1,30.9 61.6,30 61.2,30 		"/>
		<path class="st0" d="M48.5,4.6l0.8,1.7C49.1,5.7,48.8,5.1,48.5,4.6z"/>
		<path class="st0" d="M66,31.5l-0.6-1.1c-0.2-0.1-0.4-0.1-0.6-0.1l0.5,1C65.6,31.4,65.8,31.4,66,31.5z"/>
		<path class="st0" d="M70.2,41l0.5,1c0.1-0.2,0.2-0.3,0.2-0.5l-0.5-1.1C70.3,40.6,70.3,40.8,70.2,41z"/>
	</g>
</g>
</svg>
