<svg xmlns="http://www.w3.org/2000/svg" width="31.072" height="30" viewBox="0 0 31.072 30">
  <path id="Контур_16280" data-name="Контур 16280" d="M5546,4937.152h-17.041a6.94,6.94,0,0,1-7.1-6.745V4913.9a6.94,6.94,0,0,1,7.1-6.746H5546a6.783,6.783,0,0,1,6.923,6.746v16.331A6.715,6.715,0,0,1,5546,4937.152Zm-17.041-26.982a4.077,4.077,0,0,0-4.083,3.728v16.331a3.84,3.84,0,0,0,4.083,3.728H5546a4.076,4.076,0,0,0,4.083-3.728V4913.9a3.84,3.84,0,0,0-4.083-3.728Zm8.521,19.7a7.807,7.807,0,0,1-7.989-7.811,8.16,8.16,0,0,1,7.989-7.81,7.917,7.917,0,0,1,7.988,7.81A7.806,7.806,0,0,1,5537.48,4929.874Zm0-12.426a4.675,4.675,0,0,0-4.971,4.615,4.984,4.984,0,1,0,4.971-4.615Zm8.343-4.793a1.953,1.953,0,1,0,1.952,1.953A1.775,1.775,0,0,0,5545.823,4912.655Z" transform="translate(-5521.858 -4907.152)" fill="#939385"/>
</svg>
