<?xml version="1.0" encoding="utf-8"?>
<!-- Generator: Adobe Illustrator 24.2.3, SVG Export Plug-In . SVG Version: 6.00 Build 0)  -->
<svg version="1.1" id="Calque_1" xmlns="http://www.w3.org/2000/svg" xmlns:xlink="http://www.w3.org/1999/xlink" x="0px" y="0px"
	 viewBox="0 0 1920.8 171.6" style="enable-background:new 0 0 1920.8 171.6;" xml:space="preserve">
<style type="text/css">
	.st0{fill:#A4BE4A;}
	.st1{fill:#F2F2F2;}
</style>
<path class="st0" d="M0,28.3v143h1387.6c0.6-0.1,532.4,0,532.4,0v-143H0z"/>
<g>
	<g>
		<g>
			<g>
				<polygon class="st0" points="548.1,171.5 445.6,0.4 446.2,0 548.8,171.1 				"/>
			</g>
			<g>
				<polygon class="st0" points="554.2,171.5 451.6,0.4 452.3,0 554.9,171.1 				"/>
			</g>
			<g>
				<polygon class="st0" points="560.3,171.5 457.7,0.4 458.4,0 560.9,171.1 				"/>
			</g>
			<g>
				<polygon class="st0" points="566.4,171.5 463.8,0.4 464.4,0 567,171.1 				"/>
			</g>
			<g>
				<polygon class="st0" points="572.4,171.5 469.9,0.4 470.5,0 573.1,171.1 				"/>
			</g>
			<g>
				<polygon class="st0" points="578.5,171.5 476,0.4 476.6,0 579.2,171.1 				"/>
			</g>
			<g>
				<polygon class="st0" points="584.6,171.5 482,0.4 482.7,0 585.3,171.1 				"/>
			</g>
			<g>
				<polygon class="st0" points="590.7,171.5 488.1,0.4 488.8,0 591.3,171.1 				"/>
			</g>
			<g>
				<polygon class="st0" points="596.8,171.5 494.2,0.4 494.8,0 597.4,171.1 				"/>
			</g>
			<g>
				<polygon class="st0" points="602.8,171.5 500.3,0.4 500.9,0 603.5,171.1 				"/>
			</g>
			<g>
				<polygon class="st0" points="608.9,171.5 506.4,0.4 507,0 609.6,171.1 				"/>
			</g>
			<g>
				<polygon class="st0" points="615,171.5 512.4,0.4 513.1,0 615.7,171.1 				"/>
			</g>
			<g>
				<polygon class="st0" points="621.1,171.5 518.5,0.4 519.2,0 621.7,171.1 				"/>
			</g>
			<g>
				<polygon class="st0" points="627.2,171.5 524.6,0.4 525.2,0 627.8,171.1 				"/>
			</g>
			<g>
				<polygon class="st0" points="633.2,171.5 530.7,0.4 531.3,0 633.9,171.1 				"/>
			</g>
			<g>
				<polygon class="st0" points="639.3,171.5 536.8,0.4 537.4,0 640,171.1 				"/>
			</g>
			<g>
				<polygon class="st0" points="645.4,171.5 542.8,0.4 543.5,0 646.1,171.1 				"/>
			</g>
			<g>
				<polygon class="st0" points="651.5,171.5 548.9,0.4 549.6,0 652.1,171.1 				"/>
			</g>
			<g>
				<polygon class="st0" points="657.6,171.5 555,0.4 555.7,0 658.2,171.1 				"/>
			</g>
			<g>
				<polygon class="st0" points="663.6,171.5 561.1,0.4 561.7,0 664.3,171.1 				"/>
			</g>
			<g>
				<polygon class="st0" points="669.7,171.5 567.2,0.4 567.8,0 670.4,171.1 				"/>
			</g>
			<g>
				<polygon class="st0" points="675.8,171.5 573.2,0.4 573.9,0 676.5,171.1 				"/>
			</g>
			<g>
				<polygon class="st0" points="681.9,171.5 579.3,0.4 580,0 682.5,171.1 				"/>
			</g>
			<g>
				<polygon class="st0" points="688,171.5 585.4,0.4 586.1,0 688.6,171.1 				"/>
			</g>
			<g>
				<polygon class="st0" points="694.1,171.5 591.5,0.4 592.1,0 694.7,171.1 				"/>
			</g>
			<g>
				<polygon class="st0" points="700.1,171.5 597.6,0.4 598.2,0 700.8,171.1 				"/>
			</g>
			<g>
				<polygon class="st0" points="706.2,171.5 603.6,0.4 604.3,0 706.9,171.1 				"/>
			</g>
			<g>
				<polygon class="st0" points="712.3,171.5 609.7,0.4 610.4,0 712.9,171.1 				"/>
			</g>
			<g>
				<polygon class="st0" points="718.4,171.5 615.8,0.4 616.5,0 719,171.1 				"/>
			</g>
			<g>
				<polygon class="st0" points="724.5,171.5 621.9,0.4 622.5,0 725.1,171.1 				"/>
			</g>
			<g>
				<polygon class="st0" points="730.5,171.5 628,0.4 628.6,0 731.2,171.1 				"/>
			</g>
			<g>
				<polygon class="st0" points="736.6,171.5 634,0.4 634.7,0 737.3,171.1 				"/>
			</g>
			<g>
				<polygon class="st0" points="742.7,171.5 640.1,0.4 640.8,0 743.3,171.1 				"/>
			</g>
			<g>
				<polygon class="st0" points="748.8,171.5 646.2,0.4 646.9,0 749.4,171.1 				"/>
			</g>
			<g>
				<polygon class="st0" points="754.9,171.5 652.3,0.4 652.9,0 755.5,171.1 				"/>
			</g>
			<g>
				<polygon class="st0" points="760.9,171.5 658.4,0.4 659,0 761.6,171.1 				"/>
			</g>
			<g>
				<polygon class="st0" points="767,171.5 664.4,0.4 665.1,0 767.7,171.1 				"/>
			</g>
			<g>
				<polygon class="st0" points="773.1,171.5 670.5,0.4 671.2,0 773.7,171.1 				"/>
			</g>
			<g>
				<polygon class="st0" points="779.2,171.5 676.6,0.4 677.3,0 779.8,171.1 				"/>
			</g>
			<g>
				<polygon class="st0" points="785.3,171.5 682.7,0.4 683.3,0 785.9,171.1 				"/>
			</g>
			<g>
				<polygon class="st0" points="791.3,171.5 688.8,0.4 689.4,0 792,171.1 				"/>
			</g>
			<g>
				<polygon class="st0" points="797.4,171.5 694.8,0.4 695.5,0 798.1,171.1 				"/>
			</g>
			<g>
				<polygon class="st0" points="803.5,171.5 700.9,0.4 701.6,0 804.1,171.1 				"/>
			</g>
			<g>
				<polygon class="st0" points="809.6,171.5 707,0.4 707.7,0 810.2,171.1 				"/>
			</g>
			<g>
				<polygon class="st0" points="815.7,171.5 713.1,0.4 713.7,0 816.3,171.1 				"/>
			</g>
			<g>
				<polygon class="st0" points="821.7,171.5 719.2,0.4 719.8,0 822.4,171.1 				"/>
			</g>
			<g>
				<polygon class="st0" points="827.8,171.5 725.3,0.4 725.9,0 828.5,171.1 				"/>
			</g>
			<g>
				<polygon class="st0" points="833.9,171.5 731.3,0.4 732,0 834.6,171.1 				"/>
			</g>
		</g>
		<g>
			<g>
				<polygon class="st0" points="840,171.5 737.4,0.4 738.1,0 840.6,171.1 				"/>
			</g>
			<g>
				<polygon class="st0" points="846.1,171.5 743.5,0.4 744.1,0 846.7,171.1 				"/>
			</g>
			<g>
				<polygon class="st0" points="852.1,171.5 749.6,0.4 750.2,0 852.8,171.1 				"/>
			</g>
			<g>
				<polygon class="st0" points="858.2,171.5 755.7,0.4 756.3,0 858.9,171.1 				"/>
			</g>
			<g>
				<polygon class="st0" points="864.3,171.5 761.7,0.4 762.4,0 865,171.1 				"/>
			</g>
			<g>
				<polygon class="st0" points="870.4,171.5 767.8,0.4 768.5,0 871,171.1 				"/>
			</g>
			<g>
				<polygon class="st0" points="876.5,171.5 773.9,0.4 774.5,0 877.1,171.1 				"/>
			</g>
			<g>
				<polygon class="st0" points="882.5,171.5 780,0.4 780.6,0 883.2,171.1 				"/>
			</g>
			<g>
				<polygon class="st0" points="888.6,171.5 786.1,0.4 786.7,0 889.3,171.1 				"/>
			</g>
			<g>
				<polygon class="st0" points="894.7,171.5 792.1,0.4 792.8,0 895.4,171.1 				"/>
			</g>
			<g>
				<polygon class="st0" points="900.8,171.5 798.2,0.4 798.9,0 901.4,171.1 				"/>
			</g>
			<g>
				<polygon class="st0" points="906.9,171.5 804.3,0.4 804.9,0 907.5,171.1 				"/>
			</g>
			<g>
				<polygon class="st0" points="912.9,171.5 810.4,0.4 811,0 913.6,171.1 				"/>
			</g>
			<g>
				<polygon class="st0" points="919,171.5 816.5,0.4 817.1,0 919.7,171.1 				"/>
			</g>
			<g>
				<polygon class="st0" points="925.1,171.5 822.5,0.4 823.2,0 925.8,171.1 				"/>
			</g>
			<g>
				<polygon class="st0" points="931.2,171.5 828.6,0.4 829.3,0 931.8,171.1 				"/>
			</g>
			<g>
				<polygon class="st0" points="937.3,171.5 834.7,0.4 835.3,0 937.9,171.1 				"/>
			</g>
			<g>
				<polygon class="st0" points="943.3,171.5 840.8,0.4 841.4,0 944,171.1 				"/>
			</g>
			<g>
				<polygon class="st0" points="949.4,171.5 846.9,0.4 847.5,0 950.1,171.1 				"/>
			</g>
			<g>
				<polygon class="st0" points="955.5,171.5 852.9,0.4 853.6,0 956.2,171.1 				"/>
			</g>
			<g>
				<polygon class="st0" points="961.6,171.5 859,0.4 859.7,0 962.2,171.1 				"/>
			</g>
			<g>
				<polygon class="st0" points="967.7,171.5 865.1,0.4 865.7,0 968.3,171.1 				"/>
			</g>
			<g>
				<polygon class="st0" points="973.7,171.5 871.2,0.4 871.8,0 974.4,171.1 				"/>
			</g>
			<g>
				<polygon class="st0" points="979.8,171.5 877.3,0.4 877.9,0 980.5,171.1 				"/>
			</g>
			<g>
				<polygon class="st0" points="985.9,171.5 883.3,0.4 884,0 986.6,171.1 				"/>
			</g>
			<g>
				<polygon class="st0" points="992,171.5 889.4,0.4 890.1,0 992.6,171.1 				"/>
			</g>
			<g>
				<polygon class="st0" points="998.1,171.5 895.5,0.4 896.2,0 998.7,171.1 				"/>
			</g>
			<g>
				<polygon class="st0" points="1004.1,171.5 901.6,0.4 902.2,0 1004.8,171.1 				"/>
			</g>
			<g>
				<polygon class="st0" points="1010.2,171.5 907.7,0.4 908.3,0 1010.9,171.1 				"/>
			</g>
			<g>
				<polygon class="st0" points="1016.3,171.5 913.7,0.4 914.4,0 1017,171.1 				"/>
			</g>
			<g>
				<polygon class="st0" points="1022.4,171.5 919.8,0.4 920.5,0 1023,171.1 				"/>
			</g>
			<g>
				<polygon class="st0" points="1028.5,171.5 925.9,0.4 926.6,0 1029.1,171.1 				"/>
			</g>
			<g>
				<polygon class="st0" points="1034.6,171.5 932,0.4 932.6,0 1035.2,171.1 				"/>
			</g>
			<g>
				<polygon class="st0" points="1040.6,171.5 938.1,0.4 938.7,0 1041.3,171.1 				"/>
			</g>
			<g>
				<polygon class="st0" points="1046.7,171.5 944.1,0.4 944.8,0 1047.4,171.1 				"/>
			</g>
			<g>
				<polygon class="st0" points="1052.8,171.5 950.2,0.4 950.9,0 1053.4,171.1 				"/>
			</g>
			<g>
				<polygon class="st0" points="1058.9,171.5 956.3,0.4 957,0 1059.5,171.1 				"/>
			</g>
			<g>
				<polygon class="st0" points="1065,171.5 962.4,0.4 963,0 1065.6,171.1 				"/>
			</g>
			<g>
				<polygon class="st0" points="1071,171.5 968.5,0.4 969.1,0 1071.7,171.1 				"/>
			</g>
			<g>
				<polygon class="st0" points="1077.1,171.5 974.5,0.4 975.2,0 1077.8,171.1 				"/>
			</g>
			<g>
				<polygon class="st0" points="1083.2,171.5 980.6,0.4 981.3,0 1083.8,171.1 				"/>
			</g>
			<g>
				<polygon class="st0" points="1089.3,171.5 986.7,0.4 987.4,0 1089.9,171.1 				"/>
			</g>
			<g>
				<polygon class="st0" points="1095.4,171.5 992.8,0.4 993.4,0 1096,171.1 				"/>
			</g>
			<g>
				<polygon class="st0" points="1101.4,171.5 998.9,0.4 999.5,0 1102.1,171.1 				"/>
			</g>
			<g>
				<polygon class="st0" points="1107.5,171.5 1004.9,0.4 1005.6,0 1108.2,171.1 				"/>
			</g>
			<g>
				<polygon class="st0" points="1113.6,171.5 1011,0.4 1011.7,0 1114.2,171.1 				"/>
			</g>
			<g>
				<polygon class="st0" points="1119.7,171.5 1017.1,0.4 1017.8,0 1120.3,171.1 				"/>
			</g>
		</g>
		<g>
			<g>
				<polygon class="st0" points="1125.8,171.5 1023.2,0.4 1023.8,0 1126.4,171.1 				"/>
			</g>
			<g>
				<polygon class="st0" points="1131.8,171.5 1029.3,0.4 1029.9,0 1132.5,171.1 				"/>
			</g>
			<g>
				<polygon class="st0" points="1137.9,171.5 1035.3,0.4 1036,0 1138.6,171.1 				"/>
			</g>
			<g>
				<polygon class="st0" points="1144,171.5 1041.4,0.4 1042.1,0 1144.6,171.1 				"/>
			</g>
			<g>
				<polygon class="st0" points="1150.1,171.5 1047.5,0.4 1048.2,0 1150.7,171.1 				"/>
			</g>
			<g>
				<polygon class="st0" points="1156.2,171.5 1053.6,0.4 1054.2,0 1156.8,171.1 				"/>
			</g>
			<g>
				<polygon class="st0" points="1162.2,171.5 1059.7,0.4 1060.3,0 1162.9,171.1 				"/>
			</g>
			<g>
				<polygon class="st0" points="1168.3,171.5 1065.7,0.4 1066.4,0 1169,171.1 				"/>
			</g>
			<g>
				<polygon class="st0" points="1174.4,171.5 1071.8,0.4 1072.5,0 1175,171.1 				"/>
			</g>
			<g>
				<polygon class="st0" points="1180.5,171.5 1077.9,0.4 1078.6,0 1181.1,171.1 				"/>
			</g>
			<g>
				<polygon class="st0" points="1186.6,171.5 1084,0.4 1084.6,0 1187.2,171.1 				"/>
			</g>
			<g>
				<polygon class="st0" points="1192.6,171.5 1090.1,0.4 1090.7,0 1193.3,171.1 				"/>
			</g>
			<g>
				<polygon class="st0" points="1198.7,171.5 1096.2,0.4 1096.8,0 1199.4,171.1 				"/>
			</g>
			<g>
				<polygon class="st0" points="1204.8,171.5 1102.2,0.4 1102.9,0 1205.5,171.1 				"/>
			</g>
			<g>
				<polygon class="st0" points="1210.9,171.5 1108.3,0.4 1109,0 1211.5,171.1 				"/>
			</g>
			<g>
				<polygon class="st0" points="1217,171.5 1114.4,0.4 1115,0 1217.6,171.1 				"/>
			</g>
			<g>
				<polygon class="st0" points="1223,171.5 1120.5,0.4 1121.1,0 1223.7,171.1 				"/>
			</g>
			<g>
				<polygon class="st0" points="1229.1,171.5 1126.6,0.4 1127.2,0 1229.8,171.1 				"/>
			</g>
			<g>
				<polygon class="st0" points="1235.2,171.5 1132.6,0.4 1133.3,0 1235.9,171.1 				"/>
			</g>
			<g>
				<polygon class="st0" points="1241.3,171.5 1138.7,0.4 1139.4,0 1241.9,171.1 				"/>
			</g>
			<g>
				<polygon class="st0" points="1247.4,171.5 1144.8,0.4 1145.4,0 1248,171.1 				"/>
			</g>
			<g>
				<polygon class="st0" points="1253.4,171.5 1150.9,0.4 1151.5,0 1254.1,171.1 				"/>
			</g>
			<g>
				<polygon class="st0" points="1259.5,171.5 1157,0.4 1157.6,0 1260.2,171.1 				"/>
			</g>
			<g>
				<polygon class="st0" points="1265.6,171.5 1163,0.4 1163.7,0 1266.3,171.1 				"/>
			</g>
			<g>
				<polygon class="st0" points="1271.7,171.5 1169.1,0.4 1169.8,0 1272.3,171.1 				"/>
			</g>
			<g>
				<polygon class="st0" points="1277.8,171.5 1175.2,0.4 1175.8,0 1278.4,171.1 				"/>
			</g>
			<g>
				<polygon class="st0" points="1283.8,171.5 1181.3,0.4 1181.9,0 1284.5,171.1 				"/>
			</g>
			<g>
				<polygon class="st0" points="1289.9,171.5 1187.4,0.4 1188,0 1290.6,171.1 				"/>
			</g>
			<g>
				<polygon class="st0" points="1296,171.5 1193.4,0.4 1194.1,0 1296.7,171.1 				"/>
			</g>
			<g>
				<polygon class="st0" points="1302.1,171.5 1199.5,0.4 1200.2,0 1302.7,171.1 				"/>
			</g>
			<g>
				<polygon class="st0" points="1308.2,171.5 1205.6,0.4 1206.2,0 1308.8,171.1 				"/>
			</g>
			<g>
				<polygon class="st0" points="1314.2,171.5 1211.7,0.4 1212.3,0 1314.9,171.1 				"/>
			</g>
			<g>
				<polygon class="st0" points="1320.3,171.5 1217.8,0.4 1218.4,0 1321,171.1 				"/>
			</g>
			<g>
				<polygon class="st0" points="1326.4,171.5 1223.8,0.4 1224.5,0 1327.1,171.1 				"/>
			</g>
			<g>
				<polygon class="st0" points="1332.5,171.5 1229.9,0.4 1230.6,0 1333.1,171.1 				"/>
			</g>
			<g>
				<polygon class="st0" points="1338.6,171.5 1236,0.4 1236.6,0 1339.2,171.1 				"/>
			</g>
			<g>
				<polygon class="st0" points="1344.6,171.5 1242.1,0.4 1242.7,0 1345.3,171.1 				"/>
			</g>
			<g>
				<polygon class="st0" points="1350.7,171.5 1248.2,0.4 1248.8,0 1351.4,171.1 				"/>
			</g>
			<g>
				<polygon class="st0" points="1356.8,171.5 1254.2,0.4 1254.9,0 1357.5,171.1 				"/>
			</g>
			<g>
				<polygon class="st0" points="1362.9,171.5 1260.3,0.4 1261,0 1363.5,171.1 				"/>
			</g>
			<g>
				<polygon class="st0" points="1369,171.5 1266.4,0.4 1267.1,0 1369.6,171.1 				"/>
			</g>
			<g>
				<polygon class="st0" points="1375,171.5 1272.5,0.4 1273.1,0 1375.7,171.1 				"/>
			</g>
			<g>
				<polygon class="st0" points="1381.1,171.5 1278.6,0.4 1279.2,0 1381.8,171.1 				"/>
			</g>
			<g>
				<path class="st0" d="M1387.9,171.1L1285.3,0l-0.7,0.4l102.5,171C1387.3,171.3,1387.9,171.1,1387.9,171.1z"/>
			</g>
			<g>
				<path class="st0" d="M1393.8,170.9L1291.4,0l-0.7,0.4L1393,170.9C1393.3,170.9,1393.5,170.9,1393.8,170.9z"/>
			</g>
			<g>
				<path class="st0" d="M1399.9,171.1L1399.9,171.1L1297.5,0l-0.7,0.4l102.3,170.7C1399.4,171.1,1399.7,171.1,1399.9,171.1z"/>
			</g>
			<g>
				<polygon class="st0" points="1405.5,171.5 1302.9,0.4 1303.5,0 1406.1,171.1 				"/>
			</g>
		</g>
	</g>
</g>
<g>
	<g>
		<g>
			<g>
				<polygon class="st1" points="1407.2,171.6 1320.7,28 1320.1,28.4 1406.3,171.6 				"/>
			</g>
			<g>
				<polygon class="st1" points="1413.2,171.6 1326.8,28 1326.2,28.4 1412.3,171.6 				"/>
			</g>
			<g>
				<polygon class="st1" points="1419.3,171.6 1332.9,28 1332.3,28.4 1418.4,171.6 				"/>
			</g>
			<g>
				<polygon class="st1" points="1425.4,171.6 1339,28 1338.3,28.4 1424.5,171.6 				"/>
			</g>
			<g>
				<polygon class="st1" points="1431.5,171.6 1345.1,28 1344.4,28.4 1430.6,171.6 				"/>
			</g>
			<g>
				<polygon class="st1" points="1437.6,171.6 1351.1,28 1350.5,28.4 1436.7,171.6 				"/>
			</g>
			<g>
				<polygon class="st1" points="1443.6,171.6 1357.2,28 1356.6,28.4 1442.7,171.6 				"/>
			</g>
			<g>
				<polygon class="st1" points="1449.7,171.6 1363.3,28 1362.7,28.4 1448.8,171.6 				"/>
			</g>
			<g>
				<polygon class="st1" points="1455.8,171.6 1369.4,28 1368.7,28.4 1454.9,171.6 				"/>
			</g>
			<g>
				<polygon class="st1" points="1461.9,171.6 1375.5,28 1374.8,28.4 1461,171.6 				"/>
			</g>
			<g>
				<polygon class="st1" points="1468,171.6 1381.5,28 1380.9,28.4 1467.1,171.6 				"/>
			</g>
			<g>
				<polygon class="st1" points="1474,171.6 1387.6,28 1387,28.4 1473.1,171.6 				"/>
			</g>
			<g>
				<polygon class="st1" points="1480.1,171.6 1393.7,28 1393.1,28.4 1479.2,171.6 				"/>
			</g>
			<g>
				<polygon class="st1" points="1486.2,171.6 1399.8,28 1399.1,28.4 1485.3,171.6 				"/>
			</g>
			<g>
				<polygon class="st1" points="1492.3,171.6 1405.9,28 1405.2,28.4 1491.4,171.6 				"/>
			</g>
			<g>
				<polygon class="st1" points="1498.4,171.6 1411.9,28 1411.3,28.4 1497.5,171.6 				"/>
			</g>
			<g>
				<polygon class="st1" points="1504.4,171.6 1418,28 1417.4,28.4 1503.5,171.6 				"/>
			</g>
			<g>
				<polygon class="st1" points="1510.5,171.6 1424.1,28 1423.5,28.4 1509.6,171.6 				"/>
			</g>
			<g>
				<polygon class="st1" points="1516.6,171.6 1430.2,28 1429.5,28.4 1515.7,171.6 				"/>
			</g>
			<g>
				<polygon class="st1" points="1522.7,171.6 1436.3,28 1435.6,28.4 1521.8,171.6 				"/>
			</g>
			<g>
				<polygon class="st1" points="1528.8,171.6 1442.3,28 1441.7,28.4 1527.9,171.6 				"/>
			</g>
			<g>
				<polygon class="st1" points="1534.8,171.6 1448.4,28 1447.8,28.4 1534,171.6 				"/>
			</g>
			<g>
				<polygon class="st1" points="1540.9,171.6 1454.5,28 1453.9,28.4 1540,171.6 				"/>
			</g>
			<g>
				<polygon class="st1" points="1547,171.6 1460.6,28 1459.9,28.4 1546.1,171.6 				"/>
			</g>
			<g>
				<polygon class="st1" points="1553.1,171.6 1466.7,28 1466,28.4 1552.2,171.6 				"/>
			</g>
			<g>
				<polygon class="st1" points="1559.2,171.6 1472.8,28 1472.1,28.4 1558.3,171.6 				"/>
			</g>
			<g>
				<polygon class="st1" points="1565.2,171.6 1478.8,28 1478.2,28.4 1564.4,171.6 				"/>
			</g>
			<g>
				<polygon class="st1" points="1571.3,171.6 1484.9,28 1484.3,28.4 1570.4,171.6 				"/>
			</g>
			<g>
				<polygon class="st1" points="1577.4,171.6 1491,28 1490.3,28.4 1576.5,171.6 				"/>
			</g>
			<g>
				<polygon class="st1" points="1583.5,171.6 1497.1,28 1496.4,28.4 1582.6,171.6 				"/>
			</g>
			<g>
				<polygon class="st1" points="1589.6,171.6 1503.2,28 1502.5,28.4 1588.7,171.6 				"/>
			</g>
			<g>
				<polygon class="st1" points="1595.6,171.6 1509.2,28 1508.6,28.4 1594.8,171.6 				"/>
			</g>
			<g>
				<polygon class="st1" points="1601.7,171.6 1515.3,28 1514.7,28.4 1600.8,171.6 				"/>
			</g>
			<g>
				<polygon class="st1" points="1607.8,171.6 1521.4,28 1520.7,28.4 1606.9,171.6 				"/>
			</g>
			<g>
				<polygon class="st1" points="1613.9,171.6 1527.5,28 1526.8,28.4 1613,171.6 				"/>
			</g>
			<g>
				<polygon class="st1" points="1620,171.6 1533.6,28 1532.9,28.4 1619.1,171.6 				"/>
			</g>
			<g>
				<polygon class="st1" points="1626,171.6 1539.6,28 1539,28.4 1625.2,171.6 				"/>
			</g>
			<g>
				<polygon class="st1" points="1632.1,171.6 1545.7,28 1545.1,28.4 1631.2,171.6 				"/>
			</g>
			<g>
				<polygon class="st1" points="1638.2,171.6 1551.8,28 1551.1,28.4 1637.3,171.6 				"/>
			</g>
			<g>
				<polygon class="st1" points="1644.3,171.6 1557.9,28 1557.2,28.4 1643.4,171.6 				"/>
			</g>
			<g>
				<polygon class="st1" points="1650.4,171.6 1564,28 1563.3,28.4 1649.5,171.6 				"/>
			</g>
			<g>
				<polygon class="st1" points="1656.4,171.6 1570,28 1569.4,28.4 1655.6,171.6 				"/>
			</g>
			<g>
				<polygon class="st1" points="1662.5,171.6 1576.1,28 1575.5,28.4 1661.6,171.6 				"/>
			</g>
			<g>
				<polygon class="st1" points="1668.6,171.6 1582.2,28 1581.5,28.4 1667.7,171.6 				"/>
			</g>
			<g>
				<polygon class="st1" points="1674.7,171.6 1588.3,28 1587.6,28.4 1673.8,171.6 				"/>
			</g>
			<g>
				<polygon class="st1" points="1680.8,171.6 1594.4,28 1593.7,28.4 1679.9,171.6 				"/>
			</g>
			<g>
				<polygon class="st1" points="1686.8,171.6 1600.4,28 1599.8,28.4 1686,171.6 				"/>
			</g>
			<g>
				<polygon class="st1" points="1692.9,171.6 1606.5,28 1605.9,28.4 1692,171.6 				"/>
			</g>
		</g>
		<g>
			<g>
				<polygon class="st1" points="1699,171.6 1612.6,28 1611.9,28.4 1698.1,171.6 				"/>
			</g>
			<g>
				<polygon class="st1" points="1705.1,171.6 1618.7,28 1618,28.4 1704.2,171.6 				"/>
			</g>
			<g>
				<polygon class="st1" points="1711.2,171.6 1624.8,28 1624.1,28.4 1710.3,171.6 				"/>
			</g>
			<g>
				<polygon class="st1" points="1717.2,171.6 1630.8,28 1630.2,28.4 1716.4,171.6 				"/>
			</g>
			<g>
				<polygon class="st1" points="1723.3,171.6 1636.9,28 1636.3,28.4 1722.4,171.6 				"/>
			</g>
			<g>
				<polygon class="st1" points="1729.4,171.6 1643,28 1642.3,28.4 1728.5,171.6 				"/>
			</g>
			<g>
				<polygon class="st1" points="1735.5,171.6 1649.1,28 1648.4,28.4 1734.6,171.6 				"/>
			</g>
			<g>
				<polygon class="st1" points="1741.6,171.6 1655.2,28 1654.5,28.4 1740.7,171.6 				"/>
			</g>
			<g>
				<polygon class="st1" points="1747.7,171.6 1661.2,28 1660.6,28.4 1746.8,171.6 				"/>
			</g>
			<g>
				<polygon class="st1" points="1753.7,171.6 1667.3,28 1666.7,28.4 1752.8,171.6 				"/>
			</g>
			<g>
				<polygon class="st1" points="1759.8,171.6 1673.4,28 1672.8,28.4 1758.9,171.6 				"/>
			</g>
			<g>
				<polygon class="st1" points="1765.9,171.6 1679.5,28 1678.8,28.4 1765,171.6 				"/>
			</g>
			<g>
				<polygon class="st1" points="1772,171.6 1685.6,28 1684.9,28.4 1771.1,171.6 				"/>
			</g>
			<g>
				<polygon class="st1" points="1778.1,171.6 1691.6,28 1691,28.4 1777.2,171.6 				"/>
			</g>
			<g>
				<polygon class="st1" points="1784.1,171.6 1697.7,28 1697.1,28.4 1783.2,171.6 				"/>
			</g>
			<g>
				<polygon class="st1" points="1790.2,171.6 1703.8,28 1703.2,28.4 1789.3,171.6 				"/>
			</g>
			<g>
				<polygon class="st1" points="1796.3,171.6 1709.9,28 1709.2,28.4 1795.4,171.6 				"/>
			</g>
			<g>
				<polygon class="st1" points="1802.4,171.6 1716,28 1715.3,28.4 1801.5,171.6 				"/>
			</g>
			<g>
				<polygon class="st1" points="1808.5,171.6 1722,28 1721.4,28.4 1807.6,171.6 				"/>
			</g>
			<g>
				<polygon class="st1" points="1814.5,171.6 1728.1,28 1727.5,28.4 1813.6,171.6 				"/>
			</g>
			<g>
				<polygon class="st1" points="1820.6,171.6 1734.2,28 1733.6,28.4 1819.7,171.6 				"/>
			</g>
			<g>
				<polygon class="st1" points="1826.7,171.6 1740.3,28 1739.6,28.4 1825.8,171.6 				"/>
			</g>
			<g>
				<polygon class="st1" points="1832.8,171.6 1746.4,28 1745.7,28.4 1831.9,171.6 				"/>
			</g>
			<g>
				<polygon class="st1" points="1838.9,171.6 1752.4,28 1751.8,28.4 1838,171.6 				"/>
			</g>
			<g>
				<polygon class="st1" points="1844.9,171.6 1758.5,28 1757.9,28.4 1844,171.6 				"/>
			</g>
			<g>
				<polygon class="st1" points="1851,171.6 1764.6,28 1764,28.4 1850.1,171.6 				"/>
			</g>
			<g>
				<polygon class="st1" points="1857.1,171.6 1770.7,28 1770,28.4 1856.2,171.6 				"/>
			</g>
			<g>
				<polygon class="st1" points="1863.2,171.6 1776.8,28 1776.1,28.4 1862.3,171.6 				"/>
			</g>
			<g>
				<polygon class="st1" points="1869.3,171.6 1782.8,28 1782.2,28.4 1868.4,171.6 				"/>
			</g>
			<g>
				<polygon class="st1" points="1875.3,171.6 1788.9,28 1788.3,28.4 1874.4,171.6 				"/>
			</g>
			<g>
				<polygon class="st1" points="1881.4,171.6 1795,28 1794.4,28.4 1880.5,171.6 				"/>
			</g>
			<g>
				<polygon class="st1" points="1887.5,171.6 1801.1,28 1800.4,28.4 1886.6,171.6 				"/>
			</g>
			<g>
				<polygon class="st1" points="1893.6,171.6 1807.2,28 1806.5,28.4 1892.7,171.6 				"/>
			</g>
			<g>
				<polygon class="st1" points="1899.7,171.6 1813.3,28 1812.6,28.4 1898.8,171.6 				"/>
			</g>
			<g>
				<polygon class="st1" points="1905.7,171.6 1819.3,28 1818.7,28.4 1904.9,171.6 				"/>
			</g>
			<g>
				<polygon class="st1" points="1911.8,171.6 1825.4,28 1824.8,28.4 1910.9,171.6 				"/>
			</g>
			<g>
				<polygon class="st1" points="1917.9,171.6 1831.5,28 1830.8,28.4 1917,171.6 				"/>
			</g>
			<g>
				<polygon class="st1" points="1920.8,166.3 1837.6,28 1836.9,28.4 1920.8,167.8 				"/>
			</g>
			<g>
				<polygon class="st1" points="1920.8,156.2 1843.7,28 1843,28.4 1920.8,157.7 				"/>
			</g>
			<g>
				<polygon class="st1" points="1920.8,146.1 1849.7,28 1849.1,28.4 1920.8,147.6 				"/>
			</g>
			<g>
				<polygon class="st1" points="1920.8,136 1855.8,28 1855.2,28.4 1920.8,137.5 				"/>
			</g>
			<g>
				<polygon class="st1" points="1920.8,125.9 1861.9,28 1861.2,28.4 1920.8,127.4 				"/>
			</g>
			<g>
				<polygon class="st1" points="1920.8,115.8 1868,28 1867.3,28.4 1920.8,117.3 				"/>
			</g>
			<g>
				<polygon class="st1" points="1920.8,105.7 1874.1,28 1873.4,28.4 1920.8,107.2 				"/>
			</g>
			<g>
				<polygon class="st1" points="1920.8,95.6 1880.1,28 1879.5,28.4 1920.8,97.1 				"/>
			</g>
			<g>
				<polygon class="st1" points="1920.8,85.5 1886.2,28 1885.6,28.4 1920.8,87 				"/>
			</g>
			<g>
				<polygon class="st1" points="1920.8,75.4 1892.3,28 1891.6,28.4 1920.8,76.9 				"/>
			</g>
		</g>
		<g>
			<g>
				<polygon class="st1" points="1920.8,65.3 1898.4,28 1897.7,28.4 1920.8,66.8 				"/>
			</g>
			<g>
				<polygon class="st1" points="1920.8,55.2 1904.5,28 1903.8,28.4 1920.8,56.7 				"/>
			</g>
			<g>
				<polygon class="st1" points="1920.8,45.1 1910.5,28 1909.9,28.4 1920.8,46.6 				"/>
			</g>
			<g>
				<polygon class="st1" points="1920.8,35 1916.6,28 1916,28.4 1920.8,36.5 				"/>
			</g>
		</g>
	</g>
</g>
</svg>
