<?xml version="1.0" encoding="utf-8"?>
<!-- Generator: Adobe Illustrator 24.2.3, SVG Export Plug-In . SVG Version: 6.00 Build 0)  -->
<svg version="1.1" xmlns="http://www.w3.org/2000/svg" xmlns:xlink="http://www.w3.org/1999/xlink" x="0px" y="0px" width="58.1px"
	 height="77.1px" viewBox="0 0 58.1 77.1" style="enable-background:new 0 0 58.1 77.1;" xml:space="preserve">
<style type="text/css">
	.st0{fill:#FFFFFF;}
</style>
<g id="Calque_1">
</g>
<g id="Mode_Isolation">
	<g>
		<polygon class="st0" points="42.2,21.8 42.2,20 38,20 38,17.8 35.1,17.8 35.1,14.8 32.2,14.8 32.2,11.8 30.4,11.8 30.4,3.7 
			28.1,3.7 28.1,1.1 26,1.1 26,0 23.1,0 23.1,0 23.1,3.7 20.6,3.7 20.6,5.6 18.7,5.6 18.7,9.3 16.7,9.3 16.7,12.5 15,12.5 15,15.9 
			12.8,15.9 12.8,23.9 16.2,23.9 16.2,27.7 18.2,27.7 18.2,30.8 20,30.8 20,33.3 18.3,33.3 18.3,35 16.4,35 16.4,39.8 18.7,39.8 
			18.7,40.9 22.9,40.9 22.9,43.1 30,43.1 30,41.3 32,41.3 32,39.6 35.4,39.6 35.4,41 37.6,41 37.6,42.2 40.6,42.2 40.6,32.9 
			42.5,32.9 42.5,29.5 44.1,29.5 44.1,26.8 45.4,26.8 45.4,21.8 		"/>
		<path class="st0" d="M58,66.6c0.1-0.2,0.1-0.4-0.2-0.6c-1-0.1-1.9,0.1-2.6,0.2c-0.5,0.1-0.8,0.1-0.9,0.1c0,0,0,0-0.1,0
			c-0.4,0-0.9-0.2-1.3-0.5c-0.7-0.4-1.3-0.7-1.7,0c0.6,1.7,0.4,3.3-0.5,4.2c-0.6,0.6-1.5,0.8-2.2,0.5c-1-0.4-1.5-1.6-1.5-3.2v0l0,0
			c0.6-0.6,1.3-1.2,2-2c3.3-3.3,7.9-7.7,8.8-10.7c-0.1-0.7-0.4-1.1-0.9-1.2c-2-0.5-6.7,4.8-7.3,5.7c-1.9,2.8-3.1,5-3.5,6.4l0,0
			c-1.9,2.1-6,3.9-8.9,3.4c-1.5-0.3-2.5-1.1-3.1-2.5l0-0.1l0.1,0c3.5-0.5,5.3-1.9,5.5-3c0.1-0.4,0-0.8-0.4-1
			c-0.7-0.5-2.6-0.4-5.3,1.6c-1.4,1.4-2.1,1.3-3.6,1c-0.3,0-0.6-0.1-0.9-0.1l0,0c-0.4-0.2-0.7-0.3-1-0.5c-0.6-0.3-0.7-0.4-1.3,0
			c-0.3,1.6-1.4,4.5-2.6,5.3c-0.3,0.2-0.5,0.3-0.8,0.2c-0.3,0-0.5-0.1-0.7-0.3c-0.3-0.3-0.4-1-0.4-1.7c0.3-1.6,0.3-2.4,0-2.5
			c-0.3-0.2-1.2,0.9-2,1.8c-1.2,1.4-2.5,3-3.3,2.5c-0.6-0.2-0.9-0.7-0.9-1.5c0-1.7,1.1-4.1,1.8-4.4c1.3-0.2,4.1-1.4,4.2-2.4
			c0-0.4-0.3-0.7-1.1-0.9c-0.8-0.3-2.3,0.9-3.4,1.8c-0.4,0.3-0.7,0.6-1,0.7l0,0c-1.2,0.3-2,0.4-2.6,0.4c-0.7,0-1.2,0.1-1.8,0.6
			c0,0.1,0,0.3,0.1,0.3c0.4,0.4,1.5,0.2,2.4,0.1c0.5-0.1,0.9-0.1,1.1-0.1l0.1,0l0,0.1c-1.7,2.8-1.1,5.1,0.1,5.9c1,0.7,3,0.7,5.1-1.7
			l0.1-0.1l0,0.1c0,0.9,0.4,1.6,1.1,2c0.9,0.5,2,0.3,2.8-0.3c1.2-0.6,1.9-2.6,2.4-3.8c0.1-0.3,0.2-0.6,0.3-0.8l0,0l0,0
			c1.9,0.5,2.9,0.5,4.4,0.3l0,0l0,0c0.5,1.8,1.5,2.9,3.1,3.5c3,1.1,7.3-0.3,9.9-2.2l0.1-0.1l0,0.1c0,1.8,0.7,3.1,2,3.8
			c1.1,0.6,2.6,0.5,3.6-0.2c1.2-0.8,1.8-2.2,1.6-3.8l0-0.1l0.1,0C53.8,67.3,57.5,67.4,58,66.6z M47.4,65c0.7-1.5,1.4-3,2.2-4.2
			c1.2-2.3,5.3-6.2,6.9-6.5l0.1,0l0,0.1C55.4,57.2,51,62,47.4,65l-0.1,0.2L47.4,65z M34.4,65c0.7-1,1.9-1.7,3.6-2l0,0l0,0
			c0.1,0,0.2,0.1,0.2,0.2c0,0.2-0.2,0.4-0.8,0.7c-0.9,0.5-2.4,1.1-2.9,1.1C34.5,65.1,34.4,65.1,34.4,65L34.4,65L34.4,65z M19.5,62.2
			c0.4-0.4,0.9-0.7,1.4-1l0.4-0.2l-0.3,0.3C20.4,61.7,19.9,62,19.5,62.2l-0.2,0.2L19.5,62.2z"/>
		<path class="st0" d="M19.5,53.3c-0.8-2.4-3.1,4.5-3.7,4.5c-3.6,3.8-3.8-1.6-2.1-5c3-4.7-3.2-0.3-3.7-0.5c-1,0.4-2.5,2.7-3.2,3.4
			c-1-0.9-1.3-4.6-3.3-4.4c-2.4,0.3-4,4-3.4,6.2c1.8,3.2,4.4,0.7,5-2.4c0.5,0.9,0.8,1.4,0.9,1.8C4.8,59,3.2,62.7,2.4,66
			c-1.5,4.8,0.1,13.8,5.4,10.4C11.4,72,10.4,62.8,8,58.2c-0.6-1.4-0.9-1.1-0.2-2.2c1.5-2.4,2.5-2.7,4.7-3.3
			C8.7,64.6,17.5,60.6,19.5,53.3z M3.8,55.6c-0.4,2.6-2.7,3.1-2.7,0.6c-0.1-1.2,1.4-4.3,2.6-3.8C4.2,52.1,4.1,55.4,3.8,55.6z
			 M9.2,67.9c-0.2,13.8-9,7.8-5.5-2.5C4.1,63.9,5.8,59,6.6,58C8.3,61.3,9.2,64.9,9.2,67.9z"/>
		<path class="st0" d="M22.4,49.3c3.3,0.6-0.6,4.1-3,4.7c0.1,1.8,1.5,2.4,2.9,2.2c3.8,0.3,6.5-6.1,7-4c-1.3,3.5-8.6,7.8-10.8,2.9
			C17.2,53.3,20.6,49.4,22.4,49.3z M19.7,52.8c0,0,0,0-0.1,0c0.5,0.2,3.1-1.8,2.9-2.3C21.3,50.5,20.1,51.8,19.7,52.8z"/>
		<path class="st0" d="M39.1,51.1c1.8,0.8-2.8,7.7-4.6,7.1c-2.6,0.7-2.3-4.8-3.4-5c-1-0.8-3.5,7.9-4.3,5.1c0.6-1.9,0.7-7.3,2-6
			c0,0.9-0.5,1.9-0.5,3.3c0-0.1-0.1-0.1-0.1-0.1c0.6-1.5,3.5-5.9,4.4-1.8c0.4,1.9,0.7,2.9,0.9,2.9C36.2,58.8,38,52.5,39.1,51.1z"/>
		<path class="st0" d="M42.7,53.9C42.7,53.9,42.7,53.9,42.7,53.9c1.3-1.4,1.4-5.2-1-5c-2.2,0-4.4,5.3-4.1,7.1
			C38.3,60.7,42.1,55.2,42.7,53.9z M39.4,56.5c-2.7-0.1,2.3-9.3,3.2-5.6C42.9,52.3,39.7,56.7,39.4,56.5z"/>
		<path class="st0" d="M42.7,52.6c0,4.9-0.6,10.3-3.6,13.6c-0.2,0.2,0,0.2,0.1,0.4C42.1,68.7,45.8,48.6,42.7,52.6L42.7,52.6z"/>
		<path class="st0" d="M44.5,54.7c0,0,0,0.1,0,0.1c0.4,0.7,0.6,0.8,0.7,1c1.8,1.4,3.8,1,4.3,0.8c1.1-0.4,2.9-1.7,4.3-3.2
			c0.4-0.6,0.7-1.2,0.9-1.7c0.1-0.2,0.1-0.4,0-0.5l0,0c-0.2-0.4-0.7-0.4-0.9,0c-1.1,2.1-2.5,3.5-4.3,4.3l-0.3,0.1
			c-0.6,0.3-1.3,0.3-1.8,0.3c-0.6-0.1-1.1-0.5-1.6-1.2l0,0c0,0,0-0.1,0-0.1c1.2-1,1.9-1.6,2.1-1.9c0.8-1.2,1.2-2.2,1-3
			c-0.2-0.5-0.7-0.7-1.5-0.5l-0.1,0.1c-0.3,0.1-0.7,0.4-1,0.8c-0.5,0.3-1,1.2-1.6,2.4c-0.1,0.4-0.3,0.6-0.3,1S44.5,54.7,44.5,54.7z
			 M45.8,52.5c0.3-0.9,0.9-1.7,1.8-2.4l0.1,0c0.1,0,0.1,0,0.1,0c0.1,0.2-0.2,0.8-0.7,1.8c-0.6,0.7-1.1,1.1-1.4,1.3
			C45.6,53,45.7,52.8,45.8,52.5z"/>
		<path class="st0" d="M19.4,48.9c0.8-1.3,4-1.7,3.6-2.2C21.4,45.6,14.8,50.3,19.4,48.9z"/>
	</g>
</g>
</svg>
