<svg xmlns="http://www.w3.org/2000/svg" width="19.536" height="18.097" viewBox="0 0 19.536 18.097">
  <path id="Контур_14959" data-name="Контур 14959" d="M213.436,66.1H202.742a4.265,4.265,0,0,1-4.421-4.113V52.113A4.265,4.265,0,0,1,202.742,48h10.694a4.265,4.265,0,0,1,4.421,4.113v9.871A4.265,4.265,0,0,1,213.436,66.1ZM202.742,49.851a2.4,2.4,0,0,0-2.468,2.262v9.871a2.4,2.4,0,0,0,2.468,2.262h10.694a2.4,2.4,0,0,0,2.468-2.262V52.113a2.4,2.4,0,0,0-2.468-2.262Zm5.347,11.927a4.644,4.644,0,1,1,5.038-4.627A4.839,4.839,0,0,1,208.089,61.778Zm0-7.506A2.99,2.99,0,0,0,205,57.151a3.092,3.092,0,0,0,6.17,0A2.926,2.926,0,0,0,208.089,54.272Zm5.244-2.982a1.188,1.188,0,0,0-1.234,1.234,1.327,1.327,0,0,0,1.234,1.234,1.188,1.188,0,0,0,1.234-1.234A1.135,1.135,0,0,0,213.333,51.29Z" transform="translate(-198.321 -48)" fill="#3a8980"/>
</svg>
