<?xml version="1.0" encoding="utf-8"?>
<!-- Generator: Adobe Illustrator 24.3.0, SVG Export Plug-In . SVG Version: 6.00 Build 0)  -->
<svg version="1.1" id="Calque_1" xmlns="http://www.w3.org/2000/svg" xmlns:xlink="http://www.w3.org/1999/xlink" x="0px" y="0px"
	 width="593.1px" height="717.2px" viewBox="0 0 593.1 717.2" style="enable-background:new 0 0 593.1 717.2;" xml:space="preserve"
	>
<style type="text/css">
	.st0{fill-rule:evenodd;clip-rule:evenodd;fill:#9D1915;}
	.st1{fill-rule:evenodd;clip-rule:evenodd;fill:#939385;}
	.st2{fill:#FFFFFF;}
	.st3{fill:#9D1915;}
</style>
<g>
	<g>
		<path id="SVGID_1_" class="st0" d="M342.9,657.7c0.8-2.4-0.6-6.3-0.4-7.7c0.6-3.1-4.8-7.3-5.1-8.3c-0.6-1.5,0.4-5.5-2.2-7.1
			s-6.2-1.4-8.8-5.5c-1.1-1.7-1.1-6.3-1.4-8.1s-3-3.1-4.6-3.6s-3.5-4.1-3.5-5.9s-3.7-3.6-5.6-2.3c-1.9,1.2-4.9,1.3-7.9,1.8
			c-2.5,0.5-4.2-0.7-5.3-0.5c-1,0.3-4,0.3-6.1-1.3s-6.7-1.1-7.2,1s-0.8,3.5-2.3,3.7c-1.6,0.3-1.5,1.6-1.9,2.3
			c-0.6,1.4-2.3,3.1-3.3,3.1s-4.2,1.4-5.1,2.9c-1.1,1.9-3.5,2-5.4-0.7c-3.6-4.9-7.6-3-8.3-4.8c-1-2.5-4.6-1.3-5.4-2.8
			c-0.8-1.6-3.6-4.5-6.2-4.8c-2.6-0.3-5.3-0.6-4.3-3.5c0.8-2.6-0.4-3.2-1.4-4.5c-1.5-1.9,0.2-7.3-4.5-8.3s-7.6,0.8-8.9,0
			c-1.3-0.8-0.3-2.9-1.6-6.5s-4.5-3.6-4.5-6.2s1.1-2.2,1.4-4.3c0.4-3.4-4-4.4-7.9-8.5c-2.3-2.4-6.5-7.2-7.8-9.3s-0.8-8.7-3.1-11
			c-2.5-2.4-0.2-5.2-1.5-6.7c-3.1-3.5-5.5-3.9-8.6-4.7c-1.1-0.3-2.6-0.3-4.1-0.3l-0.9,0.6c-0.4,0.3-0.7,0.7-0.7,1.2
			c-0.1,0.5,0,0.9,0.3,1.3l0.8,1.1c0.6,0.7,0.5,1.8-0.2,2.4l-5.5,5c-0.3,0.3-0.5,0.6-0.6,1.1l-0.8,5.9c0,0.3,0,0.5,0.1,0.8l1,3.2
			c0.2,0.7,0,1.4-0.5,1.9l-1.5,1.4c-0.2,0.2-0.5,0.3-0.8,0.4l-2.9,0.7c-0.3,0.1-0.5,0.2-0.8,0.4l-4.2,3.9c-0.1,0.1-0.2,0.2-0.4,0.3
			l-5,2.6c-0.4,0.2-0.6,0.5-0.8,0.8l-0.7,1.6c-0.3,0.6-0.2,1.3,0.3,1.9l0.9,1.1c0.1,0.2,0.2,0.3,0.3,0.5l1.3,3.5
			c0.2,0.4,0.5,0.8,0.9,1l1.9,1c0.3,0.1,0.5,0.2,0.8,0.2h2.8c0.6,0,1.1-0.3,1.4-0.7l0.4-0.5c0.1-0.1,0.2-0.3,0.3-0.5l0.2-0.3l1-1.7
			l1,1.7c0.2,0.3,0.3,0.6,0.4,0.8c0.1,0.1,0.1,0.2,0.1,0.3l1.2,2.2c0.1,0.1,0.2,0.3,0.3,0.5s0.3,0.5,0.5,0.8l1.3,2.3l-2.6-0.6
			c-0.2-0.1-0.4-0.1-0.6-0.2c-0.3-0.1-0.5-0.1-0.6-0.2l0,0c-0.1,0-0.1,0-0.2,0c-0.4,0-0.8,0.2-1,0.5l-0.1,0.1
			c-0.3,0.4-0.7,1-0.7,1.4c0.1,0.4,0.4,0.6,0.9,0.9c0.1,0,0.2,0.1,0.2,0.1l0.5,0.3c0.4,0.3,0.7,0.8,0.6,1.3v0.1
			c-0.1,0.7,0.2,1.3,0.8,1.7l0.4,0.3c0.3,0.2,0.5,0.5,0.6,0.9s0,0.7-0.3,1c-0.3,0.4-0.7,0.6-1.2,0.7l-1,0.2c-0.6,0.1-1.1,0.5-1.4,1
			l-0.2,0.5c-0.2,0.6-0.7,0.9-1.3,1.1l-1.7,0.3c-0.3,0.1-0.6,0.2-0.8,0.4l-4.1,3.3c-0.1,0.1-0.3,0.2-0.4,0.4l-1.5,2.2
			c-0.1,0.2-0.3,0.4-0.6,0.6l-3,1.4c-0.5,0.2-0.8,0.6-1,1c-0.1,0.3,0,0.7,0.2,1l1,1.7c0.4,0.6,0.3,1.5-0.3,2.1l-1.4,1.5
			c-0.3,0.3-0.7,0.5-1.2,0.6l-1.8,0.1c-0.3,0-0.5,0.1-0.8,0.3l-4.1,2.5c-0.3,0.2-0.6,0.3-1,0.3h-2.2c-0.3,0-0.6,0.1-0.9,0.2
			l-5.8,3.1c-0.3,0.1-0.6,0.2-0.9,0.2c-0.1,0-0.2,0-0.3,0l0.4,0.2l-2,2.8c-0.5,0.7-0.4,1.7,0.2,2.3l3,3c0.3,0.3,0.8,0.5,1.2,0.5
			c0.3,0,0.5-0.1,0.8-0.2l9.1-4.3c0.3-0.1,0.5-0.2,0.8-0.2s0.5,0.1,0.8,0.2c0.5,0.2,0.8,0.6,1,1.2l0.3,1.2c0,0.1,0,0.2,0,0.3
			l0.5,4.1c0,0.2,0.1,0.4,0.2,0.6l1.5,3.1c0.4,0.9,0.1,1.9-0.7,2.4l-2.1,1.2c-0.6,0.4-0.9,1-0.9,1.7l0.3,5.3c0,0.5,0.3,1,0.7,1.3
			l6.6,5c0.4,0.3,0.6,0.7,0.7,1.3l0.3,2.7c0.1,0.7,0.5,1.2,1.1,1.5l3.7,1.6c0.4,0.1,0.6,0.4,0.8,0.7l2.6,4c0.2,0.2,0.3,0.4,0.5,0.5
			l4.9,3.1c0.3,0.2,0.6,0.3,0.9,0.3c0.1,0,0.2,0,0.3,0l6.4-1c0.1,0,0.2,0,0.3,0c0.4,0,0.8,0.1,1.1,0.4l2.9,2.2
			c0.3,0.2,0.7,0.4,1.1,0.4c0.1,0,0.1,0,0.2,0l6.5-0.6c0.6-0.1,1-0.3,1.3-0.8l1.5-2.4c0.3-0.5,0.9-0.8,1.5-0.8c0.1,0,0.2,0,0.3,0
			l8.4,1.2c0.2,0,0.4,0.1,0.6,0.2l2.3,1.3c0.3,0.2,0.6,0.2,0.9,0.2c0.4,0,0.8-0.2,1.2-0.5l1.2-1.1c0.3-0.3,0.7-0.5,1.2-0.5
			c0,0,0.1,0,0.2,0l4.3,0.3c0.4,0,0.8,0.2,1.1,0.5l6.5,6c0.2,0.2,0.5,0.4,0.8,0.4l10.4,2.2c0.4,0.1,0.7,0.3,1,0.6l1.2,1.5
			c0.6,0.7,0.6,1.8-0.1,2.4l-0.8,0.9c-0.3,0.3-0.5,0.7-0.5,1.1l0,1.2c0,0.5,0.1,0.9,0.4,1.2l0.2,0.3c0.3,0.4,0.4,0.9,0.3,1.4
			l-1.5,9.2c-0.1,0.4,0,0.8,0.2,1.2l3.6,6.1c0.3,0.6,0.9,0.9,1.5,0.9c0.2,0,0.4,0,0.5-0.1l1.9-0.6c0.2-0.1,0.4-0.1,0.5-0.1
			c0.5,0,0.9,0.2,1.3,0.6l0.4,0.4c0.4,0.5,0.6,1.1,0.5,1.7l-0.5,2.2c-0.1,0.5-0.4,0.9-0.8,1.1l-3.2,2c-0.4,0.2-1.3,0.8-1.3,1.1
			s0.2,0.6,0.5,0.9c0.1,0.1,0.1,0.1,0.2,0.2l0.2,0.3c0.3,0.4,0.8,0.6,1.3,0.6c0.3,0,0.6-0.1,0.9-0.2l8.6-4.9
			c0.3-0.2,0.6-0.2,0.9-0.2c0.4,0,0.9,0.2,1.2,0.5l4.1,3.6c0.3,0.3,0.7,0.5,1.2,0.5c0.2,0,0.3,0,0.5-0.1l6.3-1.7
			c0.2,0,0.3-0.1,0.5-0.1h0.1l2.8,0.2c0.6,0,1,0.3,1.3,0.8c0.1,0.2,0.2,0.4,0.3,0.5l0.3,0.6l-1.1,1.5c-0.2,0.3-0.2,0.5-0.2,0.7
			c0.2,0.5,1,0.8,2.2,1.1l5.9,1.1c0.1,0,0.2,0,0.3,0c0.7,0,1.2-0.4,1.6-0.9l5.3-9.8c0.1-0.2,0.2-0.4,0.2-0.6l0.6-3.4
			c0.1-0.5,0.4-1,0.9-1.3l2.6-1.6c0.3-0.2,0.6-0.3,0.9-0.3c0.2,0,0.5,0,0.7,0.1l2.7,1.1c0.2,0.1,0.5,0.1,0.7,0.1c0.1,0,0.3,0,0.4,0
			l3.2-0.8c0.1,0,0.3-0.1,0.4-0.1c0.3,0,0.5,0.1,0.8,0.2l3,1.4c0.5,0.2,0.9,0.7,1,1.2l0.8,3.3c0.1,0.4,0.3,0.7,0.6,1l4.6,3.9
			c0.3,0.2,0.5,0.3,0.8,0.4l5.3,0.9c0.1,0,0.2,0,0.3,0c0.5,0,1-0.2,1.3-0.6l0.2-0.2c0.3-0.4,0.5-0.9,0.4-1.4l-1-7c0-0.1,0-0.3,0-0.4
			l0.2-2.7c0-0.4,0.2-0.7,0.4-1l4.6-5.5c0.4-0.4,0.8-0.7,1.4-0.7c0.2,0,0.3,0,0.5,0.1l2.6,0.7c0.2,0,0.3,0.1,0.5,0.1
			c0.3,0,0.5-0.1,0.8-0.2l3.7-1.8c0.5-0.2,0.8-0.6,0.9-1.1l1.9-6.5c0.1-0.4,0.1-0.8,0-1.1l-0.5-1.3c-0.1-0.3-0.1-0.6-0.1-0.9
			l0.8-6.9c0-0.4,0.2-0.7,0.5-0.9c0.1-0.1,0.2-0.2,0.4-0.2C343,670.9,341.2,663,342.9,657.7z"/>
	</g>
	<g>
		<defs>
			<path id="SVGID_2_" d="M342.9,657.7c0.8-2.4-0.6-6.3-0.4-7.7c0.6-3.1-4.8-7.3-5.1-8.3c-0.6-1.5,0.4-5.5-2.2-7.1s-6.2-1.4-8.8-5.5
				c-1.1-1.7-1.1-6.3-1.4-8.1s-3-3.1-4.6-3.6s-3.5-4.1-3.5-5.9s-3.7-3.6-5.6-2.3c-1.9,1.2-4.9,1.3-7.9,1.8c-2.5,0.5-4.2-0.7-5.3-0.5
				c-1,0.3-4,0.3-6.1-1.3s-6.7-1.1-7.2,1s-0.8,3.5-2.3,3.7c-1.6,0.3-1.5,1.6-1.9,2.3c-0.6,1.4-2.3,3.1-3.3,3.1s-4.2,1.4-5.1,2.9
				c-1.1,1.9-3.5,2-5.4-0.7c-3.6-4.9-7.6-3-8.3-4.8c-1-2.5-4.6-1.3-5.4-2.8c-0.8-1.6-3.6-4.5-6.2-4.8c-2.6-0.3-5.3-0.6-4.3-3.5
				c0.8-2.6-0.4-3.2-1.4-4.5c-1.5-1.9,0.2-7.3-4.5-8.3s-7.6,0.8-8.9,0c-1.3-0.8-0.3-2.9-1.6-6.5s-4.5-3.6-4.5-6.2s1.1-2.2,1.4-4.3
				c0.4-3.4-4-4.4-7.9-8.5c-2.3-2.4-6.5-7.2-7.8-9.3s-0.8-8.7-3.1-11c-2.5-2.4-0.2-5.2-1.5-6.7c-3.1-3.5-5.5-3.9-8.6-4.7
				c-1.1-0.3-2.6-0.3-4.1-0.3l-0.9,0.6c-0.4,0.3-0.7,0.7-0.7,1.2c-0.1,0.5,0,0.9,0.3,1.3l0.8,1.1c0.6,0.7,0.5,1.8-0.2,2.4l-5.5,5
				c-0.3,0.3-0.5,0.6-0.6,1.1l-0.8,5.9c0,0.3,0,0.5,0.1,0.8l1,3.2c0.2,0.7,0,1.4-0.5,1.9l-1.5,1.4c-0.2,0.2-0.5,0.3-0.8,0.4
				l-2.9,0.7c-0.3,0.1-0.5,0.2-0.8,0.4l-4.2,3.9c-0.1,0.1-0.2,0.2-0.4,0.3l-5,2.6c-0.4,0.2-0.6,0.5-0.8,0.8l-0.7,1.6
				c-0.3,0.6-0.2,1.3,0.3,1.9l0.9,1.1c0.1,0.2,0.2,0.3,0.3,0.5l1.3,3.5c0.2,0.4,0.5,0.8,0.9,1l1.9,1c0.3,0.1,0.5,0.2,0.8,0.2h2.8
				c0.6,0,1.1-0.3,1.4-0.7l0.4-0.5c0.1-0.1,0.2-0.3,0.3-0.5l0.2-0.3l1-1.7l1,1.7c0.2,0.3,0.3,0.6,0.4,0.8c0.1,0.1,0.1,0.2,0.1,0.3
				l1.2,2.2c0.1,0.1,0.2,0.3,0.3,0.5s0.3,0.5,0.5,0.8l1.3,2.3l-2.6-0.6c-0.2-0.1-0.4-0.1-0.6-0.2c-0.3-0.1-0.5-0.1-0.6-0.2l0,0
				c-0.1,0-0.1,0-0.2,0c-0.4,0-0.8,0.2-1,0.5l-0.1,0.1c-0.3,0.4-0.7,1-0.7,1.4c0.1,0.4,0.4,0.6,0.9,0.9c0.1,0,0.2,0.1,0.2,0.1
				l0.5,0.3c0.4,0.3,0.7,0.8,0.6,1.3v0.1c-0.1,0.7,0.2,1.3,0.8,1.7l0.4,0.3c0.3,0.2,0.5,0.5,0.6,0.9s0,0.7-0.3,1
				c-0.3,0.4-0.7,0.6-1.2,0.7l-1,0.2c-0.6,0.1-1.1,0.5-1.4,1l-0.2,0.5c-0.2,0.6-0.7,0.9-1.3,1.1l-1.7,0.3c-0.3,0.1-0.6,0.2-0.8,0.4
				l-4.1,3.3c-0.1,0.1-0.3,0.2-0.4,0.4l-1.5,2.2c-0.1,0.2-0.3,0.4-0.6,0.6l-3,1.4c-0.5,0.2-0.8,0.6-1,1c-0.1,0.3,0,0.7,0.2,1l1,1.7
				c0.4,0.6,0.3,1.5-0.3,2.1l-1.4,1.5c-0.3,0.3-0.7,0.5-1.2,0.6l-1.8,0.1c-0.3,0-0.5,0.1-0.8,0.3l-4.1,2.5c-0.3,0.2-0.6,0.3-1,0.3
				h-2.2c-0.3,0-0.6,0.1-0.9,0.2l-5.8,3.1c-0.3,0.1-0.6,0.2-0.9,0.2c-0.1,0-0.2,0-0.3,0l0.4,0.2l-2,2.8c-0.5,0.7-0.4,1.7,0.2,2.3
				l3,3c0.3,0.3,0.8,0.5,1.2,0.5c0.3,0,0.5-0.1,0.8-0.2l9.1-4.3c0.3-0.1,0.5-0.2,0.8-0.2s0.5,0.1,0.8,0.2c0.5,0.2,0.8,0.6,1,1.2
				l0.3,1.2c0,0.1,0,0.2,0,0.3l0.5,4.1c0,0.2,0.1,0.4,0.2,0.6l1.5,3.1c0.4,0.9,0.1,1.9-0.7,2.4l-2.1,1.2c-0.6,0.4-0.9,1-0.9,1.7
				l0.3,5.3c0,0.5,0.3,1,0.7,1.3l6.6,5c0.4,0.3,0.6,0.7,0.7,1.3l0.3,2.7c0.1,0.7,0.5,1.2,1.1,1.5l3.7,1.6c0.4,0.1,0.6,0.4,0.8,0.7
				l2.6,4c0.2,0.2,0.3,0.4,0.5,0.5l4.9,3.1c0.3,0.2,0.6,0.3,0.9,0.3c0.1,0,0.2,0,0.3,0l6.4-1c0.1,0,0.2,0,0.3,0
				c0.4,0,0.8,0.1,1.1,0.4l2.9,2.2c0.3,0.2,0.7,0.4,1.1,0.4c0.1,0,0.1,0,0.2,0l6.5-0.6c0.6-0.1,1-0.3,1.3-0.8l1.5-2.4
				c0.3-0.5,0.9-0.8,1.5-0.8c0.1,0,0.2,0,0.3,0l8.4,1.2c0.2,0,0.4,0.1,0.6,0.2l2.3,1.3c0.3,0.2,0.6,0.2,0.9,0.2
				c0.4,0,0.8-0.2,1.2-0.5l1.2-1.1c0.3-0.3,0.7-0.5,1.2-0.5c0,0,0.1,0,0.2,0l4.3,0.3c0.4,0,0.8,0.2,1.1,0.5l6.5,6
				c0.2,0.2,0.5,0.4,0.8,0.4l10.4,2.2c0.4,0.1,0.7,0.3,1,0.6l1.2,1.5c0.6,0.7,0.6,1.8-0.1,2.4l-0.8,0.9c-0.3,0.3-0.5,0.7-0.5,1.1
				l0,1.2c0,0.5,0.1,0.9,0.4,1.2l0.2,0.3c0.3,0.4,0.4,0.9,0.3,1.4l-1.5,9.2c-0.1,0.4,0,0.8,0.2,1.2l3.6,6.1c0.3,0.6,0.9,0.9,1.5,0.9
				c0.2,0,0.4,0,0.5-0.1l1.9-0.6c0.2-0.1,0.4-0.1,0.5-0.1c0.5,0,0.9,0.2,1.3,0.6l0.4,0.4c0.4,0.5,0.6,1.1,0.5,1.7l-0.5,2.2
				c-0.1,0.5-0.4,0.9-0.8,1.1l-3.2,2c-0.4,0.2-1.3,0.8-1.3,1.1s0.2,0.6,0.5,0.9c0.1,0.1,0.1,0.1,0.2,0.2l0.2,0.3
				c0.3,0.4,0.8,0.6,1.3,0.6c0.3,0,0.6-0.1,0.9-0.2l8.6-4.9c0.3-0.2,0.6-0.2,0.9-0.2c0.4,0,0.9,0.2,1.2,0.5l4.1,3.6
				c0.3,0.3,0.7,0.5,1.2,0.5c0.2,0,0.3,0,0.5-0.1l6.3-1.7c0.2,0,0.3-0.1,0.5-0.1h0.1l2.8,0.2c0.6,0,1,0.3,1.3,0.8
				c0.1,0.2,0.2,0.4,0.3,0.5l0.3,0.6l-1.1,1.5c-0.2,0.3-0.2,0.5-0.2,0.7c0.2,0.5,1,0.8,2.2,1.1l5.9,1.1c0.1,0,0.2,0,0.3,0
				c0.7,0,1.2-0.4,1.6-0.9l5.3-9.8c0.1-0.2,0.2-0.4,0.2-0.6l0.6-3.4c0.1-0.5,0.4-1,0.9-1.3l2.6-1.6c0.3-0.2,0.6-0.3,0.9-0.3
				c0.2,0,0.5,0,0.7,0.1l2.7,1.1c0.2,0.1,0.5,0.1,0.7,0.1c0.1,0,0.3,0,0.4,0l3.2-0.8c0.1,0,0.3-0.1,0.4-0.1c0.3,0,0.5,0.1,0.8,0.2
				l3,1.4c0.5,0.2,0.9,0.7,1,1.2l0.8,3.3c0.1,0.4,0.3,0.7,0.6,1l4.6,3.9c0.3,0.2,0.5,0.3,0.8,0.4l5.3,0.9c0.1,0,0.2,0,0.3,0
				c0.5,0,1-0.2,1.3-0.6l0.2-0.2c0.3-0.4,0.5-0.9,0.4-1.4l-1-7c0-0.1,0-0.3,0-0.4l0.2-2.7c0-0.4,0.2-0.7,0.4-1l4.6-5.5
				c0.4-0.4,0.8-0.7,1.4-0.7c0.2,0,0.3,0,0.5,0.1l2.6,0.7c0.2,0,0.3,0.1,0.5,0.1c0.3,0,0.5-0.1,0.8-0.2l3.7-1.8
				c0.5-0.2,0.8-0.6,0.9-1.1l1.9-6.5c0.1-0.4,0.1-0.8,0-1.1l-0.5-1.3c-0.1-0.3-0.1-0.6-0.1-0.9l0.8-6.9c0-0.4,0.2-0.7,0.5-0.9
				c0.1-0.1,0.2-0.2,0.4-0.2C343,670.9,341.2,663,342.9,657.7z"/>
		</defs>
		<clipPath id="SVGID_3_">
			<use xlink:href="#SVGID_2_"  style="overflow:visible;"/>
		</clipPath>
	</g>
</g>
<path class="st1" d="M590.9,379.5c2.5-2,2.7-6.2,1.5-9.1c-0.8-2-1.5-2.4-1.9-2.6c-0.2-0.1-0.4-0.1-0.6-0.1c-0.5,0-0.9,0.2-1.3,0.3
	c-1.3,0.6-1.3,1.9-1,4.7v0.4c0.1,1.2-0.3,1.8-0.7,2c-0.3,0.2-0.7,0.3-1.2,0.3c-0.6,0-1.3-0.2-1.9-0.5c-1.3-0.8-1.9-2.2-2.7-4
	c-0.1-0.3-0.3-0.7-0.4-1c-0.6-1.4-1.5-1.6-3.8-2.1c-1.1-0.2-2.5-0.5-4.4-1.1c-4-1.2-4.9-2.5-5.7-4.1c-0.2-0.4-0.3-0.7-0.6-1
	c-0.8-1.3-3-2-4.9-2.6c-0.5-0.2-1.1-0.4-1.6-0.6c-0.7-0.3-1.3-0.4-1.8-0.4c-0.8,0-1.4,0.3-2,0.8c-0.4,0.3-1.1,0.9-1.9,1.7
	c-1.1,1-2.4,2.3-3.9,3.6c-1.8,1.5-3.5,1.9-4.7,1.9c-1,0-2.1-0.3-2.9-0.7c-1.3-0.7-2.5-1.2-4-1.2c-0.5,0-1,0.1-1.6,0.2
	c-0.7,0.1-1.3,0.2-1.8,0.2c-1.2,0-2.1-0.3-3.3-1.2c-1.6-1.2-4.5-1.5-7.1-1.6c-2-0.1-4.2-1.1-6-2c-0.6-0.3-1.2-0.6-1.7-0.8
	c-1.7-0.7-3.4-1.8-5.1-3.5c-0.7-0.7-1.4-1.5-2.3-2.5c-0.8-1-1.8-2-2.9-3.2c-2.1-2.1-3.5-4-5-5.9l-0.3-0.4c-0.9-1.2-2.3-2.4-3.6-3.5
	c-0.9-0.8-1.8-1.5-2.5-2.3c-1.2-1.2-1.8-2.4-2.6-3.6c-0.4-0.8-1-1.6-1.6-2.6c-1.4-2.1-2.7-2.2-4.1-2.2c-0.2,0-0.4,0-0.5,0h-0.4
	c-1.4,0-4.9,0.1-7.6,1.1c-2.4,0.8-3.4,4.2-4.4,7.8l-0.2,0.6c-1,3.4-1.8,3.9-3.8,4.8c-0.2,0.1-0.4,0.2-0.6,0.3
	c-0.3,0.2-0.7,0.3-1.2,0.3c-1.5,0-2.4-1.4-3.4-3.5c-1-2-1-2.6-1-4.2v-0.6c0-2,0.2-7.3,0.4-10.6c0.2-2.5-0.8-3.9-1.9-5.5
	c-0.4-0.6-0.8-1.1-1.1-1.8c-1.2-2.1-1.1-3.5-1.1-5.1c0-0.3,0-0.6,0-1c0-2.4-1.1-3.1-2-3.5c-0.3-0.1-0.7-0.2-1.2-0.2
	c-1.1,0-2.5,0.3-4.3,0.9c-0.5,0.2-0.9,0.2-1.3,0.2c-1.2,0-2.1-0.6-3.4-1.6c-1.5-1.2-2.7-3.2-2.7-4.7c0-1.4-1.5-2.3-2.7-3.1l-0.2-0.1
	c-0.8-0.5-1.4-0.6-2.4-0.6c-0.2,0-0.5,0-0.7,0c-0.3,0-0.6,0-1,0c-1.9,0-4.6-0.5-6.5-1.5c-1.8-1-4.9-3.2-7.2-5.5
	c-2.4-2.4-4.1-4.1-5.3-6.9c-1-2.3-3-2.8-4.9-3.3c-0.4-0.1-0.8-0.2-1.1-0.3c-1.9-0.6-2.9-2.3-3.9-4.1c-0.1-0.2-0.2-0.4-0.4-0.6
	c-0.8-1.4-1.6-3.4-2.2-5.2c-0.3-0.8-0.5-1.5-0.8-2.1c-0.3-0.8-0.7-2-0.2-2.8c0.2-0.4,0.6-0.7,1.2-0.9c1-0.3,1.6-1,1.6-2.2
	c0-0.1,0-0.3,0-0.5v-0.1c0.1-1,0.2-2.6-0.6-3.2c-0.9-0.7-2-1.6-2.6-2.6s-1.8-2-3.8-3.6l-0.4-0.3c-0.7-0.6-1.1-1.2-1-1.7
	c0.1-0.7,0.7-1.2,0.9-1.3l2.2-1.6c0.5-0.3,0.7-0.8,0.7-1.4l0.1-3.7c0-0.5-0.1-0.9-0.5-1.2l-0.8-0.9c-0.4-0.5-0.6-1.1-0.4-1.7
	l0.4-1.4c0.1-0.5,0.1-0.9-0.1-1.3l-2-3.8c-0.3-0.6-0.3-1.3,0.1-1.8l0.3-0.4c0.1-0.1,0.2-0.3,0.4-0.5c0.4-0.5,1-1.3,0.9-1.7
	c-0.2-0.4-1.2-0.5-1.9-0.5c-0.2,0-0.5,0-0.6,0l-3.7-0.5c-0.6-0.1-1.1-0.4-1.4-1l-0.7-1.4c-0.3-0.6-0.8-0.9-1.5-1l-2.3-0.1
	c-0.5,0-0.9,0.2-1.2,0.5l-0.7,0.7c-0.1,0.1-0.2,0.3-0.4,0.4c-0.1,0.1-0.2,0.2-0.3,0.3l-1.1,1.2l-0.8-1.4c-0.2-0.3-0.4-0.8-0.5-1.4
	l-0.9-4.7c0-0.1,0-0.2,0-0.3l-0.1-4.5c0-0.2,0-0.3-0.1-0.4l-0.8-2.6c-0.3-1-0.5-1.5-0.9-1.7c-0.1,0-0.1,0-0.2,0
	c-0.4,0-1,0.3-1.5,0.7l-3.3,2c-0.7,0.4-1,1.2-0.8,2l0.7,2.5c0.1,0.1,1.1,0.9,2.7,1.9c0.5,0.3,0.8,0.6,1.1,0.8l1.1,0.9l-1.1,0.9
	c-0.3,0.2-0.5,0.4-0.8,0.5c-0.4,0.2-0.9,0.5-1.3,0.9c-0.6,0.6-1.4,0.9-2.1,0.9c-0.4,0-0.9-0.1-1.3-0.3c-1.2-0.7-1.9-1.2-2.1-2.4
	l-0.1-0.4c-0.2-1-0.4-2.1-1.2-3.9l-0.2-0.5c-0.7-1.6-0.9-2.2-1.9-3.2c-1.1-1.2-1.9-2.2-2.7-4.6l-0.2-0.6c-0.7-2-0.7-2.5,0.4-5.8
	c0.8-2.5,1-3.9,1.2-5.2c0.1-0.7,0.2-1.4,0.4-2.2c0.4-1.6-0.5-2.1-4-3c-0.6-0.2-1.3-0.3-2-0.5c-3.2-0.9-4.8-3-6.1-4.7
	c-0.3-0.4-0.6-0.8-0.9-1.1c-0.9-1.1-2.1-1.2-3.3-1.3c-0.8-0.1-1.6-0.1-2.2-0.5c-0.6-0.3-1-0.7-1.2-1l-0.1-0.2v-0.3
	c0-0.5,0.3-1,0.8-1.6c0.2-0.2,0.4-0.4,0.5-0.5c0.7-0.7,1-1,1.4-2.3c0.3-0.9,0.5-1.2,1.1-1.7c0.2-0.2,0.5-0.3,0.8-0.7
	c1-0.9,1-1.8,0.8-3.6c0,0,0-0.5-0.1-0.7c-0.1-1.8-1-2.1-3.7-2.4c-0.3,0-0.6-0.1-1-0.1c-2-0.3-2.4-0.8-3.1-2.2
	c-0.2-0.3-0.4-0.7-0.6-1.1l-1.5-2.3l2.7,0.6h0.1c0.4,0,0.9-0.3,1.4-0.6c1.4-0.8,1.5-1.2,1.9-2.5l-0.2-3.2c0-0.6-0.3-1.1-0.8-1.4
	l-4.3-2.6c-0.3-0.2-0.5-0.4-0.7-0.8l-1.7-3.5c-0.2-0.4-0.2-0.9-0.1-1.4l1.7-5.1c0.1-0.3,0.1-0.6,0.1-0.9l-1.1-6
	c-0.1-0.3-0.2-0.6-0.4-0.9l-2.5-2.9c-0.1-0.1-0.1-0.2-0.2-0.3l-2.9-5c-0.3-0.5-0.3-1.2-0.1-1.7l1-2c0.6-1.1,0.4-1.5,0.2-1.7
	c-0.3-0.3-0.7-0.5-1.1-0.5c-0.2,0-0.4,0.1-0.5,0.2l-1.6,1.3c-0.3,0.2-0.6,0.4-0.8,0.5l-1,0.5l-0.5-1c-0.1-0.2-0.2-0.4-0.3-0.5
	c0-0.1-0.1-0.2-0.1-0.3l-0.6-1.3c-0.2-0.4-0.2-0.8-0.1-1.2l0.6-2.4c0.2-0.8,0.9-1.4,1.7-1.4h2c0.9,0,1.6-0.7,1.7-1.5l0.2-1.6
	c0.1-0.5,0.3-0.8,0.6-1.1l1.6-1.4c0.5-0.5,0.9-1,0.9-1.5c0-0.3-0.1-0.5-0.3-0.7l-0.7-0.7c-0.5-0.4-1-0.7-1.4-0.7
	c-0.2,0-0.4,0.1-0.6,0.1l-2.4,1.3l-0.6-0.7c-0.2-0.2-0.4-0.6-0.7-1.1c-0.3-0.5-0.2-1.1,0.1-1.6l2.5-4.5c0.2-0.4,0.3-0.8,0.2-1.2
	l-1.2-5.6c-0.1-0.5,0-0.9,0.2-1.3l1.7-2.9c0.3-0.6,0.9-0.9,1.5-0.9c0.1,0,0.2,0,0.4,0l1.9,0.4c0.1,0,0.2,0,0.4,0
	c0.7,0,1.2-0.4,1.6-1c0.6-1.1,0.2-1.4,0-1.5l-2.4-2c-0.5-0.4-0.7-1-0.6-1.7l0.3-1.5c0.1-0.7,0.6-1.2,1.3-1.4l1.5-0.4
	c0.8-0.2,1.3-0.8,1.3-1.6l0.1-1.5c0-0.4-0.1-0.8-0.3-1.1l-1.2-1.9c-0.2-0.3-0.3-0.7-0.3-1.1l0.3-3.3c0-0.4,0-0.7-0.3-1.1l-1.3-2.1
	c-0.2-0.3-0.3-0.7-0.3-1l0.2-3.3c0-0.4,0.2-0.8,0.5-1.1l3.9-4.1c0.2-0.2,0.4-0.5,0.4-0.9l0.7-3.5c0-0.1,0-0.2,0-0.3l-5.3-0.3
	c-0.4,0-0.8-0.2-1.1-0.4l-4.6-3.9c-0.3-0.3-0.7-0.4-1.1-0.4c-0.2,0-0.5,0-0.7,0.1l-2,0.8c-0.2,0.1-0.3,0.1-0.5,0.1
	c-0.5,0-1-0.3-1.2-0.7l-0.1-0.2c-0.4-0.7-0.2-1.5,0.3-2.1l1.8-1.8c0.3-0.3,0.5-0.7,0.5-1.1l0.3-4c0-0.5,0.2-0.8,0.5-1.2l3-3.1
	c0.7-0.7,0.7-1.8,0-2.5l-3.2-3.3c-0.5-0.5-0.6-1.2-0.4-1.8l1.4-4.5c0.2-0.7,0-1.6-0.7-2l-8.9-6.2c-0.3-0.2-0.6-0.3-1-0.3
	c-0.1,0-0.2,0-0.3,0l-5.2,1c-0.1,0-0.2,0-0.4,0c-0.3,0-0.6-0.1-0.9-0.3l-1.7-1c-0.3-0.2-0.6-0.3-0.9-0.3c-0.2,0-0.5,0.1-0.7,0.2
	l-1.5,0.6c-0.7,0.3-1.1,1-1.1,1.7l0.2,4.1c0,0.2,0,0.4-0.1,0.6l-1,3.6c-0.2,0.6-0.5,1-1.1,1.2l-8,3.3c-0.2,0.1-0.4,0.1-0.6,0.1
	l-2.5,0.1c-0.5,0-1-0.2-1.3-0.6l-0.6-0.6c-0.3-0.3-0.7-0.5-1.1-0.6l-12.9-1.3c-0.9-0.1-1.6-0.8-1.6-1.7l-0.6-9.4c0-0.1,0-0.2,0-0.2
	L279,1.3c-0.2-0.8-0.9-1.4-1.7-1.4c-0.1,0-0.2,0-0.3,0l-5,0.7c-0.3,0-0.5,0.1-0.7,0.3l-5.6,3.7c0.3,0.3,0,0.4-0.3,0.4l-18.6,0.9
	c-0.3,0-0.6,0.1-0.9,0.3l-3.8,2.4c-0.3,0.2-0.6,0.5-0.7,0.9l-2.6,7.2c-0.1,0.4-0.1,0.8,0,1.2l2,5.5c0.2,0.6,0.1,1.3-0.3,1.8
	l-2.9,3.4c-0.4,0.5-0.5,1.1-0.3,1.7l1.8,5.3c0.2,0.5,0.1,1.1-0.2,1.6l-2.3,3.6c-0.2,0.3-0.3,0.7-0.3,1l0.3,6.2
	c0,0.9-0.6,1.7-1.4,1.8L223,52.6c-0.1,0-0.2,0.1-0.3,0.1l-14.9,6.1c-0.2,0.1-0.3,0.2-0.5,0.3l-9.2,7.9c-0.3,0.3-0.5,0.6-0.6,1.1
	l-1.8,11.5c0,0.2-0.1,0.3-0.2,0.5l-3.8,8c-0.1,0.2-0.1,0.4-0.2,0.6l-1,11.7c-0.1,0.7-0.4,1.2-1,1.5l-8.4,4c-0.1,0.1-0.3,0.1-0.4,0.2
	l-4.4,3.6c-0.2,0.2-0.4,0.4-0.5,0.6l-4.4,10c-0.2,0.4-0.2,0.8-0.1,1.2l0.5,1.8c0.2,0.7,0.7,1.2,1.4,1.3l1.2,0.2
	c0.4,0.1,0.7,0.2,1,0.5l3.6,3.8c0.4,0.4,0.5,0.8,0.5,1.4l-0.3,4.2c0,0.3-0.1,0.6-0.3,0.9L173,144c-0.3,0.5-0.4,1-0.2,1.6l0.8,2.6
	c0.3,0.9-0.1,1.8-0.9,2.2l-2.2,1.1c-0.3,0.2-0.5,0.4-0.7,0.6l-2.2,3.5c-0.1,0.2-0.3,0.3-0.4,0.5l-3.6,2.7c-0.2,0.2-0.4,0.3-0.7,0.3
	l-6.7,1.5c-0.2,0.1-0.4,0.1-0.6,0.3l-6.8,4.7c-0.6,0.4-0.9,1.1-0.7,1.9l1.6,7.2c0,0.1,0.1,0.3,0.1,0.4l1.2,2.3
	c0.1,0.1,0.1,0.2,0.2,0.3l4.8,6.1c0.2,0.2,0.4,0.4,0.7,0.5l2.6,1.2c0.7,0.3,1.1,1,1.1,1.8l-0.1,1.1c0,0.5,0.1,1,0.5,1.4l0.7,0.8
	c0.4,0.5,0.6,1,0.4,1.7l-0.6,2.6c-0.1,0.3-0.2,0.5-0.4,0.7l-3.8,4.7c-0.3,0.4-0.6,0.6-1.1,0.6l-4.9,0.9c-0.7,0.1-1.2,0.6-1.4,1.2
	l-0.4,1.1c-0.2,0.8-0.9,1.2-1.7,1.2H146c-0.6,0-1.1,0.2-1.4,0.7l-0.9,1.2c-0.3,0.4-0.4,0.8-0.4,1.2l0.1,1c0.1,0.7-0.2,1.3-0.8,1.7
	l-4,2.6c-0.3,0.2-0.6,0.3-1,0.3h-0.1H137c-0.5,0-0.9-0.2-1.3-0.6l-0.6-0.7c-0.3-0.4-0.8-0.6-1.3-0.6c-0.4,0-0.8,0.1-1.1,0.4
	l-2.2,1.8c-0.3,0.3-0.7,0.4-1.1,0.4c-0.2,0-0.5,0-0.7-0.1l-2.7-1.1c-0.2-0.1-0.4-0.1-0.7-0.1c-0.2,0-0.4,0-0.5,0.1l-2.1,0.6
	c-0.8,0.2-1.3,0.9-1.3,1.8l0.1,1.3c0,0.5-0.1,0.9-0.4,1.2l-0.9,1.1c-0.3,0.3-0.4,0.7-0.4,1.2l0.1,2.1c0,0.3-0.1,0.6-0.2,0.9
	l-0.9,1.5c-0.3,0.5-0.3,1.1-0.1,1.6l1,2.1c0.2,0.5,0.2,1-0.1,1.4v0.1c-0.5,0.7-0.5,1.6,0,2.2l0.7,0.8c0.3,0.3,0.4,0.7,0.4,1.1v2.6
	c0,0.8-0.4,1.4-1.2,1.7l-0.4,0.2c-0.7,0.3-1.1,0.8-1.1,1.5l-0.2,1.9c-0.1,0.9-0.7,1.6-1.6,1.6l-0.5,0.1c-0.9,0.1-1.6,0.9-1.6,1.8
	l0.1,3c0,0.4-0.1,0.7-0.3,1l-2.2,3.3c-0.2,0.3-0.3,0.7-0.3,1.1l0.1,1.7c0,0.7,0.4,1.2,1,1.5l0.6,0.3c0.7,0.3,1,1.1,0.7,1.8
	c-0.2,0.4-0.5,0.8-1,1l-7.2,2.9c-0.2,0.1-0.3,0.2-0.5,0.3l-5.7,4.9c-0.3,0.2-0.5,0.5-0.6,0.9l-0.7,2.6c-0.1,0.3-0.2,0.5-0.4,0.7
	l-1.4,1.6c-0.5,0.6-0.6,1.4-0.1,2.1l0.6,0.9c0.2,0.4,0.6,0.6,1,0.8l4,1.2c0.3,0.1,0.5,0.2,0.7,0.4l3.6,3.2c0.2,0.2,0.4,0.3,0.6,0.4
	l10.7,3.5c0.2,0.1,0.4,0.2,0.6,0.4l4.1,3.6c0.4,0.3,0.6,0.7,0.6,1.2l0.2,2.1c0,0.5,0.3,1,0.7,1.3c0.2,0.2,0.5,0.3,0.8,0.4l-0.4,2
	h-0.4c-2.3,0-2.3,0.3-2.4,0.9c-0.1,0.8,0.4,1.2,2.1,1.8c0.6,0.2,1,0.4,1.3,0.6l1,0.6l-0.7,1c-0.1,0.1-0.1,0.2-0.2,0.3l-0.1,0.2
	l-0.3,0.1c-0.2,0.1-0.4,0.1-0.6,0.1s-0.4,0-0.7-0.1c-0.2,0-0.3,0-0.5,0c-0.8,0-1.3,0.5-2,2.1l-0.7,1.6l-1.2-1.2l-0.2-0.2l-0.1-0.1
	c-0.2-0.4-0.3-0.8-0.2-1.4c0-1.1-0.2-1.3-0.7-1.4c-0.1,0-0.2,0-0.2,0c-0.5,0-1,0.4-1.5,1c-0.4,0.4-0.8,0.9-1.4,1.1
	c-0.3,0.1-0.7,0.2-1.1,0.2c-1.3,0-2.6-0.8-3.4-2.1c-0.4-0.7-0.9-1-1.4-1l0,0c-0.7,0-1.4,0.6-2,1.6c-0.8,1.3-0.8,2.4,0.1,3.6
	c1,1.3,1.3,2.6,0.9,4c-0.3,1-0.3,2.3,1.7,3.5c1.1,0.7,2,1.5,2.4,2.2l1,1.7l-2,0.1c-0.4,0-0.8-0.1-1.2-0.2c-0.9-0.3-1.8-0.6-2.8-0.6
	s-1.8,0.4-2.6,1.1c-1.7,1.7-1.9,2.5-1.7,2.9c0.2,0.5,0.9,0.5,1.5,0.5h0.1c0.4,0,0.7,0,1.1,0c0.5,0,0.9,0,1.3,0
	c1.7,0,3.3,0.2,3.7,2.3c0.5,2.4,0,3.6-1.5,4.2c-0.2,0.1-0.4,0.1-0.6,0.1c-1.3,0-2-1.3-2.2-1.8s-0.6-0.7-1.1-0.7c-0.1,0-0.1,0-0.2,0
	c-0.7,0.1-1.3,0.9-1.5,2c-0.4,2.3,0,2.8,0.8,3.5l0.1,0.1l0.1,0.1c0.4,0.5,0.4,1.4,0.1,2c-0.2,0.2-0.5,0.6-1.3,0.6
	c-0.2,0-0.4,0-0.5-0.1c-0.7-0.1-1.5-0.3-2.2-0.3s-1.1,0.1-1.4,0.4c-0.3,0.2-0.5,0.6-0.5,1.2c0,1.9,0.2,2.3,1.6,3.2
	c1.6,1.1,3.3,2.5,3.5,5.7l0.2,4.2c0,0.6-0.2,1.1-0.6,1.4l-1.4,1.3c-0.5,0.5-0.7,1.2-0.5,1.8l0.4,1.4c0.1,0.5,0.4,0.8,0.9,1.1
	l2.3,1.2c0.7,0.4,1.1,1.2,0.9,2l-0.8,3.2c-0.1,0.2-0.1,0.4,0,0.6l1.5,13.1c0,0.2,0.1,0.4,0.2,0.6l1.4,2.8c0.3,0.6,0.9,1,1.6,1
	c0.2,0,0.5,0,0.7-0.1l6.2-2.5c0.2-0.1,0.3-0.1,0.5-0.1c0.4,0,0.7,0.1,1,0.4s0.8,0.5,1.2,0.5c0.2,0,0.4,0,0.5-0.1l1-0.3
	c0.2-0.1,0.3-0.1,0.5-0.1c0.1,0,0.2,0,0.3,0l1.7,0.3c0.1,0,0.2,0,0.4,0c0.3,0,0.7-0.1,0.9-0.3l1.7-1.1c0.3-0.2,0.6-0.3,1-0.3
	c0.1,0,0.2,0,0.4,0l1.8,0.3c0.7,0.1,1.2,0.6,1.4,1.3l0.1,0.4c0.1,0.3,0.2,0.5,0.4,0.7c0.5,0.5,0.8,1.1,0.6,1.8l-0.5,1.8
	c-0.2,0.8,0.1,1.5,0.8,1.9l2.4,1.6c0.7,0.5,1,1.4,0.7,2.2l-0.5,1.2c-0.1,0.3-0.2,0.6-0.1,0.9l0.3,2c0.1,0.7,0.6,1.2,1.3,1.4l2.5,0.6
	c0.5,0.1,0.9,0.5,1.2,1l1.9,4c0.1,0.2,0.2,0.4,0.2,0.6l0.4,4.9c0,0.5,0.2,0.9,0.6,1.2l3.2,2.8c0.4,0.3,0.6,0.7,0.6,1.2l0.5,4.7
	c0,0.3,0.1,0.5,0.2,0.7l2.3,4.1c0.3,0.5,0.7,0.8,1.3,0.9l1.9,0.3c0.4,0.1,0.8,0.3,1.1,0.6l1.3,1.5c0.4,0.5,0.6,1.2,0.3,1.8l-0.2,0.7
	c-0.1,0.4-0.1,0.8,0,1.1l0.8,2.5c0.2,0.7,0,1.4-0.5,1.9l-0.9,0.9c-0.4,0.4-0.6,1-0.5,1.6l0.2,1.5c0.1,0.5,0,0.9-0.3,1.3l-0.9,1.4
	c-0.2,0.4-0.3,0.8-0.3,1.2l0.7,6.5c0.1,0.9,0.9,1.6,1.8,1.6l3-0.1c0.3,0,0.5,0.1,0.8,0.2l3.1,1.5c0.3,0.1,0.5,0.2,0.8,0.2
	s0.5-0.1,0.8-0.2l9.9-5c0.3-0.1,0.5-0.2,0.8-0.2c0.2,0,0.3,0,0.5,0.1l2.8,0.8c0.4,0.1,0.8,0.4,1,0.7l1.3,2c0.2,0.3,0.5,0.5,0.8,0.6
	l1.9,0.8c0.7,0.3,1.1,1,1.1,1.7l-0.1,2.4c0,0.5,0.2,1,0.5,1.3l4.6,4.6c0.2,0.2,0.3,0.3,0.4,0.6l0.6,1.3c0.3,0.7,0.2,1.5-0.4,2
	l-7.3,7c-0.1,0.1-0.2,0.2-0.2,0.3l-4,5.8c-0.1,0.2-0.2,0.3-0.2,0.5l-2.3,7.7c0,0.1-0.1,0.2-0.1,0.3l-0.5,5.2c0,0.4,0.1,0.8,0.3,1.2
	l1.7,2.6c0.3,0.4,0.7,0.7,1.2,0.8l1.5,0.2c0.4,0.1,0.6,0.2,0.9,0.4l1.9,1.6c0.2,0.2,0.4,0.3,0.7,0.4l5.7,1.5c0.1,0,0.2,0,0.3,0
	l3.9,0.4l0.3,0.5c0.4,0.6,1,1.6,1.3,2.3c0.2,0.5,0.4,0.8,0.7,0.9c0.1,0,0.1,0,0.2,0c0.2,0,0.4-0.1,0.6-0.2l1.4-0.6l0.2,1.5
	c0,0.3,0.2,0.8,0.5,0.9c0,0,0,0,0.1,0s0.2-0.1,0.3-0.2l1.3-1.3l0.6,1.8c0.1,0.2,0.2,0.3,0.3,0.4c0.1,0,0.1,0,0.2,0
	c0.4,0,0.8-0.3,1.4-0.8c0.2-0.2,0.4-0.3,0.5-0.4l1.2-1l0.6,1.4c0,0.1,0.1,0.2,0.1,0.3c0.1,0.2,0.2,0.4,0.2,0.6
	c0.2,0.4,0.3,0.8,0.4,1.1l0.2,1l-0.9,0.4c-0.1,0-0.2,0.1-0.3,0.1c-1.7,0.5-1.9,0.8-2.6,2c-0.7,1.2-0.9,1.7-0.9,1.8l0.8,2.4
	c0.1,0.4,0.1,0.8,0,1.2l-1.2,3.3c0,0.1,0,3.4,0.9,6.6c0.6,2.3,1.1,3.9,1.3,4.7l0.1,0.5l-2.1,3.2c-0.3,0.5-0.9,0.8-1.5,0.8
	c-0.1,0-0.3,0-0.4,0l-4.1-0.9c-0.1,0-0.3,0-0.4,0c-0.4,0-0.7,0.1-1,0.3l-3.1,2.1l0.2-0.1c1.5,0,3.1,0,4.1,0.3
	c3.1,0.8,5.5,1.2,8.6,4.7c1.4,1.5-1,4.3,1.5,6.7c2.3,2.2,1.8,8.9,3.1,11s5.6,6.9,7.8,9.3c3.9,4.2,8.3,5.1,7.9,8.5
	c-0.2,2.1-1.4,1.7-1.4,4.3s3.2,2.6,4.5,6.2s0.3,5.7,1.6,6.5s4.3-1,8.9,0c4.7,1,3,6.5,4.5,8.3c1,1.3,2.2,1.9,1.4,4.5
	c-0.9,2.9,1.7,3.2,4.3,3.5s5.5,3.2,6.2,4.8c0.8,1.6,4.4,0.4,5.4,2.8c0.8,1.8,4.8-0.1,8.3,4.8c1.9,2.6,4.3,2.5,5.4,0.7
	c0.9-1.6,4.1-2.9,5.1-2.9s2.7-1.7,3.3-3.1c0.3-0.7,0.3-2.1,1.9-2.3c1.6-0.3,1.8-1.7,2.3-3.7c0.5-2.1,5.2-2.6,7.2-1
	c2.1,1.6,5,1.5,6.1,1.3c1-0.3,2.7,0.9,5.3,0.5c3-0.6,6.1-0.6,7.9-1.8c1.9-1.2,5.6,0.5,5.6,2.3s2,5.4,3.5,5.9
	c1.6,0.5,4.3,1.8,4.6,3.6c0.3,1.8,0.3,6.4,1.4,8.1c2.6,4,6.2,3.9,8.8,5.5c2.6,1.6,1.7,5.6,2.2,7.1c0.4,1,5.7,5.2,5.1,8.3
	c-0.3,1.4,1.2,5.3,0.4,7.7c-1.8,5.3,0.1,13.2,0.2,14.9c-0.1,0-0.3,0.1-0.4,0.2c-0.1,0.1-0.2,0.2-0.3,0.3c0.1-0.1,0.2-0.2,0.3-0.3
	c0.2-0.2,0.5-0.3,0.8-0.3c0.1,0,0.2,0,0.3,0c0.4,0.1,0.8,0.3,1,0.6l1.6,1.9c0.3,0.4,0.8,0.6,1.3,0.6c0.3,0,0.5-0.1,0.8-0.2l2.9-1.4
	l0.3,1.5c0,0.2,0,0.3,0,0.5v0.1v0.1c-0.1,0.2-0.2,0.5-0.3,0.9c-0.3,0.8-0.8,2.1-0.5,2.2c0.1,0,0.1,0,0.1,0c0.5,0,1.6-1,2.4-1.6
	l0.1-0.1c0.2-0.1,0.3-0.3,0.4-0.3l5.3-3.9l0.2-0.6l1,0.2c0.2,0,0.5,0.2,0.8,0.4c0.1,0.1,0.2,0.2,0.4,0.4c0.2,0.3,0.5,0.5,0.7,0.5
	h0.1c0.4-0.1,1-0.6,1.3-1c0.3-0.5,0.2-1.1-0.3-1.9l-3-4.9c-0.5-0.8-0.3-1.8,0.5-2.4l2.7-2.1c0.2-0.2,0.5-0.3,0.8-0.3l2.1-0.4
	c0.4-0.1,0.7-0.2,0.9-0.5l2.8-2.8c0.3-0.3,0.8-0.5,1.3-0.5c0.2,0,0.5,0,0.7,0.1l3.2,1.3c0.2,0.1,0.4,0.1,0.6,0.1l3.2,0.1
	c0.2,0,0.4,0,0.6,0.1l4.5,1.7c0.2,0.1,0.4,0.1,0.6,0.1c0.1,0,0.2,0,0.4,0l5-1c0.1,0,0.2,0,0.3,0h0.1l6.2,0.4h0.1
	c0.6,0,1.1-0.2,1.4-0.7l1.2-1.5c0.3-0.4,0.8-0.7,1.4-0.7l9.6-0.4c0.5,0,1-0.3,1.3-0.7l0.6-0.8c0.3-0.4,0.8-0.7,1.4-0.7h0.1
	c0.5,0,1,0.2,1.3,0.6l2.3,2.5c0.3,0.4,0.8,0.6,1.3,0.6c0.2,0,0.3,0,0.5-0.1l3-0.8c0.2,0,0.3-0.1,0.5-0.1c0.4,0,0.7,0.1,1,0.3
	l5.4,3.9c0.3,0.2,0.7,0.3,1,0.3l4.8-0.2c0.3,0,0.5,0.1,0.8,0.2l3.8,1.8c0.6,0.3,0.9,0.7,1,1.3l0.8,4.7v0.1c0.1,0.2,0.7,0.4,2.8,0.4
	c0.3,0,0.6,0,0.8,0l3.2,0.3l-2.7,1.9c-1.3,0.9-1.8,1.2-1.3,2.7l0.1,0.2c0.4,1.5,0.6,2.1,1.6,3c0.7,0.6,1.1,0.7,1.4,0.7
	c0.6,0,1.4-0.4,2.6-1.3c1.1-0.9,1.9-1,2.3-1h1.3l-0.2,1.3c0,0.4-0.2,0.8-0.5,1.2c-0.2,0.3-0.3,0.6-0.5,0.9c-1.5,2.6-1.6,3.3-0.5,4
	c0.8,0.5,1.4,1,2,1.5c0.3,0.2,0.5,0.4,0.8,0.6c0.4,0.3,0.7,0.5,1.1,0.5c0.2,0,0.4-0.1,0.7-0.2l2.9-1.2c0.2-0.1,0.4-0.1,0.7-0.1
	c0.2,0,0.3,0,0.5,0.1l4.2,1.1c0.3,0.1,0.6,0.3,0.9,0.5l8.7,9.4c0.3,0.4,0.8,0.6,1.3,0.6c0.2,0,0.3,0,0.5-0.1l2-0.5
	c0.2,0,0.3-0.1,0.5-0.1c0.3,0,0.7,0.1,1,0.3l1.7,1.1c0.3,0.2,0.5,0.3,0.9,0.3l4.3,0.2c0.4,0,0.8,0.2,1.1,0.4l3.8,3.3
	c0.3,0.3,0.7,0.4,1.2,0.4s0.9-0.2,1.3-0.5l0.7-0.7c0.3-0.4,0.8-0.5,1.3-0.5c0.2,0,0.4,0,0.5,0.1v-0.8c0-2.5,0-10.7,0-13.8
	c0-3.6,0-5-0.7-10.8c-0.5-3.9-0.2-5.8,0-7.6c0.1-0.9,0.2-1.8,0.2-2.8c0-3-0.1-3.5-0.9-5.2c-0.5-0.9-0.8-2.1-1.2-3.6
	c-0.3-1.2-0.7-2.6-1.2-4.2c-0.3-0.9-0.7-1.9-1.1-3c-1.4-3.5-3-7.7-3.1-11.4c0-3.5,0.4-4.3,1.2-5.5c0.2-0.3,0.5-0.7,0.7-1.1
	c1.2-2.1,1.4-2.4,4.1-4.1c1.9-1.2,3-3.1,4.6-5.7c0.7-1.2,1.5-2.6,2.6-4c3.1-4.5,0.5-7.2-1.4-9.2s-6.5-5.6-10-8.1
	c-1.7-1.2-2.5-2.3-2.5-3.5c-0.1-1.3,0.7-2.7,2.5-4.3c1.2-1.1,2.3-1.8,3.5-1.8c0.9,0,1.7,0.4,2.7,0.9c0.5,0.2,1,0.5,1.7,0.7
	c0.8,0.3,1.6,0.5,2.3,0.5c0.9,0,1.6-0.2,2.2-0.7c0.7-0.5,1.1-1.3,1-2.2c-0.1-1.3-0.7-1.9-1.9-3.2c-0.8-0.8-1.7-1.8-3-3.3
	c-3-3.7,1-7.5,3.6-10l0,0c0.3-0.3,0.6-0.6,0.9-0.8c0.3-0.3,0.6-0.6,0.9-0.9c1.9-2,3.2-3.4,7.4-3.7c4.8-0.4,7.2-5.6,8.6-8.4v-0.1
	c1.4-2.8,3.3-4.3,6.1-6.6l0.4-0.3c3.7-2.9,4-6.1,4-7c0-1.7,0.3-2.4,0.7-3.4v-0.1c0.1-0.2,0.2-0.4,0.3-0.6l0,0c0.5-1,1.4-2.7,1.7-5.3
	c0.3-2.1,1.5-4.1,2.7-6.1c0.7-1.1,1.3-2.2,1.9-3.3c1.6-3.3,2-6.7,1.8-8.7c-0.2-1.7-1.8-3.5-3.7-4.2c-1.3-0.5-2.5-1-3-2.1
	c-0.3-0.7-0.2-1.4,0.1-2.3c1.1-2.5,3.8-4.5,7.9-7.5l1.1-0.8c4.3-3.2,7.1-9.2,8.8-12.8l0.3-0.7c1.3-2.8,2.9-3.2,6.1-4.1
	c0.6-0.2,1.4-0.4,2.2-0.6c4.2-1.3,9.3-3.3,11-4.9c1.6-1.5,4.8-5.7,6.2-8.1s1.6-3.9,1.6-6.2c0-2.4-1.8-7.6-3.1-9.9
	c-0.8-1.3-1.1-2.4-0.7-3.1c0.2-0.5,0.8-0.9,1.7-1c0.2,0,0.3,0,0.5,0c0.8,0,1.5,0.4,2.3,1c0.8,0.5,1.9,1.3,3.7,2
	c0.7,0.3,1.6,0.6,2.4,0.6c0.6,0,0.8-0.2,0.9-0.3c0.7-0.6,0.2-2.2,0.1-2.9c-0.5-1.8-1.6-2.9-2.8-4c-0.5-0.5-1.1-1-1.6-1.6
	c-0.2-0.2-0.4-0.4-0.6-0.6c-1.5-1.6-1.7-2.1-2.1-5.5c-0.4-3.6-0.3-9-0.2-11.9V426c0-0.4,0-0.7,0-0.9c0-2.4,0.9-3.3,1.6-3.7
	c0.1-0.1,0.3-0.2,0.5-0.3c0.8-0.6,2.2-1.6,4.5-2.9c2.7-1.6,3.3-2.2,4.5-4.6c1.1-2.2,0-4.5-2.3-8c-1.9-2.8-1.7-3.4,0.4-7.2l0.4-0.7
	c2.1-3.8,0.4-5.1-1.4-6.5c-0.3-0.3-0.6-0.5-0.9-0.8c-2.1-1.9-1.3-3.5-0.4-4.8C586.1,383.7,588.2,381.7,590.9,379.5z"/>
<g>
	<path class="st2" d="M247.4,404.9v-12.4c0-3.8,1.9-6,5.5-6c3.7,0,5.5,2.2,5.5,6v2H255v-2.3c0-1.7-0.7-2.3-1.9-2.3s-1.9,0.6-1.9,2.3
		v13c0,1.7,0.7,2.3,1.9,2.3s1.9-0.6,1.9-2.3v-4.6h-1.9v-3.4h5.4v7.7c0,3.8-1.9,6-5.5,6C249.3,410.9,247.4,408.7,247.4,404.9z"/>
	<path class="st2" d="M261.6,386.9h5.5c3.9,0,5.5,1.8,5.5,5.4v1.5c0,2.4-0.8,4-2.4,4.7v0.1c1.9,0.6,2.5,2.3,2.5,5v4.2
		c0,1.2,0,2,0.4,2.9h-3.8c-0.2-0.6-0.3-1-0.3-2.9v-4.3c0-2.2-0.6-2.9-2.3-2.9h-1.3v10.1h-3.7v-23.8H261.6z M266.6,397
		c1.4,0,2.2-0.6,2.2-2.5v-1.8c0-1.7-0.6-2.4-1.9-2.4h-1.7v6.8h1.4V397z"/>
	<path class="st2" d="M278.8,386.9h5l3.9,23.7H284l-0.7-4.7v0.1H279l-0.7,4.6h-3.5L278.8,386.9z M282.8,402.7l-1.7-11.7H281
		l-1.6,11.7H282.8z"/>
	<path class="st2" d="M290.1,386.9h4.7l3.6,14.2h0.1v-14.2h3.3v23.7H298l-4.5-17.3h-0.1v17.3h-3.3V386.9z"/>
	<path class="st2" d="M305.3,386.9h5.7c3.7,0,5.5,2.1,5.5,5.9v12c0,3.8-1.8,5.9-5.5,5.9h-5.7V386.9z M310.9,407.2
		c1.2,0,1.9-0.6,1.9-2.3v-12.3c0-1.7-0.7-2.3-1.9-2.3H309v16.9L310.9,407.2L310.9,407.2z"/>
	<path class="st2" d="M319.1,397h7.4v3.4h-7.4V397z"/>
	<path class="st2" d="M329.5,386.9h5.7c3.7,0,5.5,2.1,5.5,5.9v12c0,3.8-1.8,5.9-5.5,5.9h-5.7V386.9z M335.1,407.2
		c1.2,0,1.9-0.6,1.9-2.3v-12.3c0-1.7-0.7-2.3-1.9-2.3h-1.9v16.9L335.1,407.2L335.1,407.2z"/>
	<path class="st2" d="M343.8,404.9v-18.1h3.7v18.3c0,1.7,0.7,2.3,1.9,2.3c1.2,0,1.9-0.6,1.9-2.3v-18.3h3.6v18.1c0,3.8-1.9,6-5.5,6
		C345.7,410.9,343.8,408.7,343.8,404.9z"/>
	<path class="st2" d="M357.9,405.1v-12.7c0-3.7,1.9-5.8,5.5-5.8s5.5,2.2,5.5,5.8v2.5h-3.5v-2.7c0-1.6-0.7-2.2-1.9-2.2
		s-1.9,0.6-1.9,2.2v13.2c0,1.6,0.7,2.2,1.9,2.2s1.9-0.6,1.9-2.2v-3.6h3.5v3.3c0,3.7-1.9,5.8-5.5,5.8
		C359.8,410.9,357.9,408.7,357.9,405.1z"/>
	<path class="st2" d="M371.8,386.9h3.7v9.6h4v-9.6h3.7v23.7h-3.7v-10.7h-4v10.7h-3.7V386.9z"/>
	<path class="st2" d="M386.7,386.9h10.1v3.4h-6.4v6.3h5.1v3.4h-5.1v7.3h6.4v3.4h-10.1V386.9z M392.1,381.4h4.1l-3.6,3.9h-2.8
		L392.1,381.4z"/>
	<path class="st2" d="M247.7,420.6h5.7c3.7,0,5.5,2.1,5.5,5.9v12c0,3.8-1.8,5.9-5.5,5.9h-5.7V420.6z M253.3,440.9
		c1.2,0,1.9-0.6,1.9-2.3v-12.3c0-1.7-0.7-2.3-1.9-2.3h-1.9v16.9L253.3,440.9L253.3,440.9z"/>
	<path class="st2" d="M262.1,420.6h10.1v3.4h-6.4v6.3h5.1v3.4h-5.1v7.3h6.4v3.4h-10.1V420.6z"/>
	<path class="st2" d="M281.1,420.6h3.7v20.3h6.1v3.4h-9.8L281.1,420.6L281.1,420.6z"/>
	<path class="st2" d="M293.3,438.7v-18.1h3.7V439c0,1.7,0.7,2.3,1.9,2.3c1.2,0,1.9-0.6,1.9-2.3v-18.3h3.6v18.1c0,3.8-1.9,6-5.5,6
		C295.2,444.7,293.3,442.5,293.3,438.7z"/>
	<path class="st2" d="M311,432.2l-4.1-11.6h3.9l2.5,7.6h0.1l2.6-7.6h3.5l-4.1,11.6l4.3,12.1h-3.9l-2.7-8.3H313l-2.8,8.3h-3.5
		L311,432.2z"/>
	<path class="st2" d="M322.1,420.6h10.1v3.4h-6.4v6.3h5.1v3.4h-5.1v7.3h6.4v3.4h-10.1V420.6z"/>
	<path class="st2" d="M335.1,420.6h5.3l2.4,16.9h0.1l2.4-16.9h5.3v23.7H347v-17.9h-0.1l-2.7,17.9h-3.1l-2.7-17.9h-0.1v17.9h-3.2
		L335.1,420.6L335.1,420.6z"/>
	<path class="st2" d="M353.9,420.6h5.6c3.9,0,5.5,1.8,5.5,5.4v0.9c0,2.4-0.7,4-2.4,4.6v0.1c2,0.7,2.8,2.4,2.8,4.9v2
		c0,3.7-1.9,5.6-5.6,5.6h-5.9V420.6z M359.1,430.3c1.4,0,2.2-0.6,2.2-2.5v-1.3c0-1.7-0.6-2.4-1.9-2.4h-1.8v6.3h1.5V430.3z
		 M359.8,440.9c1.3,0,1.9-0.6,1.9-2.3v-2.1c0-2.2-0.7-2.9-2.4-2.9h-1.7v7.3H359.8z"/>
	<path class="st2" d="M368,438.7v-12.4c0-3.8,2-6,5.6-6s5.6,2.2,5.6,6v12.4c0,3.8-2,6-5.6,6S368,442.5,368,438.7z M375.6,438.9V426
		c0-1.7-0.7-2.3-1.9-2.3s-1.9,0.6-1.9,2.3v12.9c0,1.7,0.7,2.3,1.9,2.3S375.6,440.6,375.6,438.9z"/>
	<path class="st2" d="M382.4,438.7v-18.1h3.7V439c0,1.7,0.7,2.3,1.9,2.3c1.2,0,1.9-0.6,1.9-2.3v-18.3h3.6v18.1c0,3.8-1.9,6-5.5,6
		C384.3,444.7,382.4,442.5,382.4,438.7z"/>
	<path class="st2" d="M396.8,420.6h5.5c3.9,0,5.5,1.8,5.5,5.4v1.5c0,2.4-0.8,4-2.4,4.7v0.1c1.9,0.6,2.5,2.3,2.5,5v4.2
		c0,1.2,0,2,0.4,2.9h-3.8c-0.2-0.6-0.3-1-0.3-2.9v-4.3c0-2.2-0.6-2.9-2.3-2.9h-1.3v10.1h-3.7v-23.8H396.8z M401.9,430.8
		c1.4,0,2.2-0.6,2.2-2.5v-1.8c0-1.7-0.6-2.4-1.9-2.4h-1.7v6.8h1.4V430.8z"/>
	<path class="st2" d="M410.8,438.7v-12.4c0-3.8,1.9-6,5.5-6c3.7,0,5.5,2.2,5.5,6v2h-3.5V426c0-1.7-0.7-2.3-1.9-2.3s-1.9,0.6-1.9,2.3
		v13c0,1.7,0.7,2.3,1.9,2.3s1.9-0.6,1.9-2.3v-4.6h-1.9V431h5.4v7.7c0,3.8-1.9,6-5.5,6C412.7,444.7,410.8,442.5,410.8,438.7z"/>
</g>
<g>
	<g>
		<path class="st3" d="M1.4,569.5h5.3l2.4,16.9h0.1l2.4-16.9h5.3v23.7h-3.5v-17.9h-0.1l-2.7,17.9H7.4l-2.7-17.9H4.6v17.9H1.4V569.5z
			"/>
		<path class="st3" d="M20.3,569.5H24v23.7h-3.7V569.5z"/>
		<path class="st3" d="M27.4,569.5h4.7l3.6,14.2h0.1v-14.2h3.3v23.7h-3.8l-4.5-17.3h-0.1v17.3h-3.3
			C27.4,593.2,27.4,569.5,27.4,569.5z"/>
		<path class="st3" d="M42.6,569.5h10.1v3.4h-6.4v6.3h5.1v3.4h-5.1v7.3h6.4v3.4H42.6V569.5z"/>
		<path class="st3" d="M58.4,572.9h-3.9v-3.4H66v3.4h-3.9v20.3h-3.7C58.4,593.2,58.4,572.9,58.4,572.9z"/>
		<path class="st3" d="M71.8,572.9h-3.9v-3.4h11.5v3.4h-3.9v20.3h-3.7V572.9z"/>
		<path class="st3" d="M1.3,622.5v-18.1H5v18.3c0,1.7,0.7,2.3,1.9,2.3s1.9-0.6,1.9-2.3v-18.3h3.6v18.1c0,3.8-1.9,6-5.5,6
			C3.1,628.5,1.3,626.3,1.3,622.5z"/>
		<path class="st3" d="M15.7,604.5h4.7l3.6,14.2l0,0v-14.2h3.3v23.7h-3.8L19,610.9l0,0v17.3h-3.3V604.5z"/>
		<path class="st3" d="M30.8,604.5h10.1v3.4h-6.4v6.3h5.1v3.4h-5.1v7.3h6.4v3.4H30.8V604.5z"/>
		<path class="st3" d="M43.2,622.5v-1.4h3.5v1.6c0,1.7,0.7,2.3,1.9,2.3s1.9-0.6,1.9-2.4c0-2-0.7-3.2-3.2-5.3
			c-3.1-2.7-4.1-4.7-4.1-7.4c0-3.7,1.9-5.9,5.5-5.9s5.4,2.2,5.4,6v1h-3.5v-1.2c0-1.7-0.7-2.3-1.9-2.3s-1.9,0.6-1.9,2.3
			s0.8,3,3.2,5.1c3.1,2.7,4.1,4.6,4.1,7.6c0,3.9-2,6-5.6,6C45,628.5,43.2,626.3,43.2,622.5z"/>
		<path class="st3" d="M56.8,622.7V610c0-3.7,1.9-5.8,5.5-5.8c3.6,0,5.5,2.2,5.5,5.8v2.5h-3.5v-2.7c0-1.6-0.7-2.2-1.9-2.2
			s-1.9,0.6-1.9,2.2V623c0,1.6,0.7,2.2,1.9,2.2s1.9-0.6,1.9-2.2v-3.6h3.5v3.3c0,3.7-1.9,5.8-5.5,5.8S56.8,626.3,56.8,622.7z"/>
		<path class="st3" d="M70.5,622.5v-12.4c0-3.8,2-6,5.6-6s5.6,2.2,5.6,6v12.4c0,3.8-2,6-5.6,6S70.5,626.3,70.5,622.5z M78.1,622.8
			v-12.9c0-1.7-0.7-2.3-1.9-2.3s-1.9,0.6-1.9,2.3v12.9c0,1.7,0.7,2.3,1.9,2.3S78.1,624.5,78.1,622.8z"/>
		<path class="st3" d="M1.4,639.4H7c3.9,0,5.5,1.8,5.5,5.4v0.9c0,2.4-0.7,4-2.4,4.6v0.1c2,0.7,2.8,2.4,2.8,4.9v2
			c0,3.7-1.9,5.6-5.6,5.6H1.4V639.4z M6.6,649.1c1.4,0,2.2-0.6,2.2-2.5v-1.3c0-1.7-0.6-2.4-1.9-2.4H5.1v6.3L6.6,649.1L6.6,649.1z
			 M7.2,659.7c1.3,0,1.9-0.6,1.9-2.3v-2.1c0-2.2-0.7-2.9-2.4-2.9H5.1v7.3H7.2z"/>
		<path class="st3" d="M15.7,639.4h3.7v23.7h-3.7V639.4z"/>
		<path class="st3" d="M22.6,657.5v-12.4c0-3.8,2-6,5.6-6c3.7,0,5.6,2.2,5.6,6v12.4c0,3.8-2,6-5.6,6S22.6,661.3,22.6,657.5z
			 M30.2,657.7v-12.9c0-1.7-0.7-2.3-1.9-2.3c-1.2,0-1.9,0.6-1.9,2.3v12.9c0,1.7,0.7,2.3,1.9,2.3C29.5,660.1,30.2,659.4,30.2,657.7z"
			/>
		<path class="st3" d="M36.5,657.5v-1.4H40v1.6c0,1.7,0.7,2.3,1.9,2.3s1.9-0.6,1.9-2.4c0-2-0.7-3.2-3.2-5.3
			c-3.1-2.7-4.1-4.7-4.1-7.4c0-3.7,1.9-5.9,5.5-5.9s5.4,2.2,5.4,6v1H44v-1.2c0-1.7-0.7-2.3-1.9-2.3s-1.9,0.6-1.9,2.3s0.8,3,3.2,5.1
			c3.1,2.7,4.1,4.6,4.1,7.6c0,3.9-2,6-5.6,6C38.3,663.5,36.5,661.3,36.5,657.5z"/>
		<path class="st3" d="M50.4,639.4h5.5c3.7,0,5.5,2.1,5.5,5.9v2.3c0,3.8-1.8,5.9-5.5,5.9h-1.8v9.6h-3.7V639.4z M55.9,650.1
			c1.2,0,1.8-0.5,1.8-2.2v-2.8c0-1.7-0.6-2.2-1.8-2.2h-1.8v7.3L55.9,650.1L55.9,650.1z"/>
		<path class="st3" d="M64.1,639.4h3.7v9.6h4v-9.6h3.7v23.7h-3.7v-10.7h-4v10.7h-3.7V639.4z"/>
		<path class="st3" d="M79,639.4h10.1v3.4h-6.4v6.3h5.1v3.4h-5.1v7.3h6.4v3.4H79V639.4z"/>
		<path class="st3" d="M92,639.4h5.5c3.9,0,5.5,1.8,5.5,5.4v1.5c0,2.4-0.8,4-2.4,4.7v0.1c1.9,0.6,2.5,2.3,2.5,5v4.2
			c0,1.1,0,2,0.4,2.9h-3.8c-0.2-0.6-0.3-1-0.3-2.9V656c0-2.2-0.6-2.9-2.3-2.9h-1.3v10.1H92V639.4z M97,649.6c1.4,0,2.2-0.6,2.2-2.5
			v-1.8c0-1.7-0.6-2.4-1.9-2.4h-1.7v6.8L97,649.6L97,649.6z"/>
		<path class="st3" d="M106.3,639.4h10.1v3.4H110v6.3h5.1v3.4H110v7.3h6.4v3.4h-10.1V639.4z"/>
	</g>
</g>
</svg>
