<svg xmlns="http://www.w3.org/2000/svg" xmlns:xlink="http://www.w3.org/1999/xlink" width="593.136" height="717.221" viewBox="0 0 593.136 717.221">
  <defs>
    <clipPath id="clip-path">
      <path id="Контур_14935" data-name="Контур 14935" d="M662.944,1982.646c.816-2.449-.618-6.307-.358-7.737.559-3.071-4.757-7.287-5.136-8.29-.553-1.463.39-5.494-2.211-7.055s-6.209-1.43-8.777-5.461c-1.091-1.712-1.138-6.274-1.4-8.095s-3.024-3.088-4.584-3.609-3.512-4.063-3.512-5.884-3.715-3.558-5.591-2.34c-1.853,1.2-4.909,1.268-7.932,1.82-2.52.461-4.227-.715-5.267-.455a8.267,8.267,0,0,1-6.079-1.268c-2.08-1.56-6.73-1.073-7.25,1.008s-.78,3.479-2.341,3.739-1.531,1.629-1.853,2.34c-.618,1.366-2.308,3.056-3.348,3.056s-4.171,1.363-5.1,2.926c-1.1,1.853-3.478,1.95-5.364-.65-3.558-4.908-7.554-3.019-8.322-4.844-1.04-2.471-4.616-1.268-5.4-2.828s-3.642-4.519-6.242-4.779-5.267-.618-4.324-3.479c.85-2.579-.352-3.19-1.4-4.486-1.495-1.853.228-7.282-4.454-8.322s-7.639.78-8.939,0-.261-2.861-1.561-6.5-4.486-3.609-4.486-6.209,1.138-2.178,1.365-4.259c.372-3.4-4-4.356-7.9-8.55a96.817,96.817,0,0,1-7.834-9.33c-1.3-2.081-.813-8.712-3.121-10.955-2.49-2.42-.163-5.17-1.528-6.7-3.1-3.47-5.494-3.9-8.615-4.681a16.7,16.7,0,0,0-4.147-.28l-.921.641a1.779,1.779,0,0,0-.414,2.518l.794,1.076a1.81,1.81,0,0,1-.233,2.415l-5.5,5.039a1.709,1.709,0,0,0-.559,1.063l-.837,5.927a1.667,1.667,0,0,0,.057.756l.961,3.232a1.776,1.776,0,0,1-.526,1.865l-1.5,1.352a1.741,1.741,0,0,1-.764.407l-2.871.73a1.705,1.705,0,0,0-.77.418l-4.216,3.9a1.756,1.756,0,0,1-.383.273l-4.957,2.633a1.718,1.718,0,0,0-.787.838l-.708,1.563a1.765,1.765,0,0,0,.257,1.875l.916,1.1a1.746,1.746,0,0,1,.309.533l1.281,3.473a1.736,1.736,0,0,0,.868.972l1.916.968a1.79,1.79,0,0,0,.828.191l2.774-.04a1.727,1.727,0,0,0,1.4-.717l.407-.545a5.475,5.475,0,0,0,.332-.544l.156-.271,1-1.715,1.008,1.71c.155.262.306.556.408.755.054.106.1.2.147.282l1.214,2.231c.064.118.163.279.281.47s.308.5.488.826l1.275,2.3-2.56-.6c-.225-.054-.443-.111-.643-.164-.263-.07-.49-.13-.619-.152l-.031-.005a1.6,1.6,0,0,0-.168-.01,1.309,1.309,0,0,0-1.047.522l-.071.09c-.332.427-.746.958-.667,1.434.065.383.415.623.922.932.078.047.155.094.226.141l.485.32a1.344,1.344,0,0,1,.6,1.305l-.011.086a1.731,1.731,0,0,0,.754,1.674l.4.279a1.364,1.364,0,0,1,.309,1.951,1.756,1.756,0,0,1-1.152.676l-1.031.16a1.728,1.728,0,0,0-1.353,1.042l-.2.459a1.772,1.772,0,0,1-1.332,1.053l-1.68.309a1.722,1.722,0,0,0-.788.359l-4.132,3.3a1.7,1.7,0,0,0-.362.39l-1.506,2.212a1.551,1.551,0,0,1-.627.57l-2.971,1.377a1.67,1.67,0,0,0-.954.982,1.256,1.256,0,0,0,.164,1.039l1.019,1.665a1.7,1.7,0,0,1-.295,2.061l-1.4,1.488a1.761,1.761,0,0,1-1.176.567l-1.8.148a1.7,1.7,0,0,0-.781.254l-4.07,2.481a1.81,1.81,0,0,1-.961.265l-2.161-.02a1.8,1.8,0,0,0-.874.212l-5.8,3.109a1.78,1.78,0,0,1-.85.221,1.731,1.731,0,0,1-.3-.025l.442.168L462,1948.14a1.766,1.766,0,0,0,.207,2.312l3.043,2.956a1.76,1.76,0,0,0,1.23.507,1.781,1.781,0,0,0,.773-.177l9.107-4.331a1.766,1.766,0,0,1,1.539-.007,1.765,1.765,0,0,1,.991,1.178l.33,1.236a1.9,1.9,0,0,1,.049.255l.483,4.116a1.744,1.744,0,0,0,.167.569l1.519,3.134a1.8,1.8,0,0,1-.715,2.357l-2.127,1.244a1.724,1.724,0,0,0-.876,1.653l.349,5.327a1.735,1.735,0,0,0,.7,1.3l6.609,5.038a1.753,1.753,0,0,1,.7,1.251l.282,2.69a1.737,1.737,0,0,0,1.081,1.453l3.743,1.574a1.733,1.733,0,0,1,.815.683l2.63,4.046a1.667,1.667,0,0,0,.548.538l4.883,3.055a1.685,1.685,0,0,0,.919.273,1.865,1.865,0,0,0,.312-.026l6.353-1.042a1.928,1.928,0,0,1,.314-.026,1.749,1.749,0,0,1,1.077.371l2.893,2.2a1.726,1.726,0,0,0,1.059.363,1.6,1.6,0,0,0,.194-.011l6.484-.645a1.726,1.726,0,0,0,1.322-.811l1.55-2.421a1.772,1.772,0,0,1,1.517-.839,1.843,1.843,0,0,1,.27.02l8.407,1.211a1.743,1.743,0,0,1,.641.218l2.293,1.3a1.8,1.8,0,0,0,.888.241,1.746,1.746,0,0,0,1.182-.467l1.166-1.051a1.75,1.75,0,0,1,1.2-.467c.049,0,.1,0,.156.006l4.252.336a1.751,1.751,0,0,1,1.091.478l6.488,6.014a1.692,1.692,0,0,0,.838.434l10.442,2.234a1.757,1.757,0,0,1,1.009.606l1.232,1.465a1.811,1.811,0,0,1-.086,2.432l-.85.875a1.724,1.724,0,0,0-.495,1.077l-.13,1.438a1.7,1.7,0,0,0,.352,1.236l.229.3a1.753,1.753,0,0,1,.345,1.386l-1.5,9.207a1.718,1.718,0,0,0,.223,1.188l3.587,6.095a1.76,1.76,0,0,0,1.528.879,1.835,1.835,0,0,0,.523-.078l1.9-.577a1.833,1.833,0,0,1,.545-.083,1.786,1.786,0,0,1,1.287.555l.4.41a1.76,1.76,0,0,1,.463,1.674l-.5,2.153a1.753,1.753,0,0,1-.809,1.13l-3.176,1.972c-.407.249-1.252.767-1.306,1.132-.044.3.2.581.516.917.058.06.114.118.159.171l.23.26a1.752,1.752,0,0,0,1.325.61,1.808,1.808,0,0,0,.9-.244l8.587-4.939a1.84,1.84,0,0,1,.91-.247,1.81,1.81,0,0,1,1.2.462l4.053,3.591a1.733,1.733,0,0,0,1.16.453,1.826,1.826,0,0,0,.493-.069l6.313-1.741a1.754,1.754,0,0,1,.465-.063c.044,0,.09,0,.143.005l2.8.2a1.759,1.759,0,0,1,1.347.765,2.814,2.814,0,0,1,.3.529l.255.613-1.108,1.48a.709.709,0,0,0-.157.7c.177.455.953.833,2.185,1.065l5.912,1.118a1.83,1.83,0,0,0,.337.031,1.77,1.77,0,0,0,1.56-.937l5.264-9.778a1.672,1.672,0,0,0,.189-.556l.56-3.428a1.765,1.765,0,0,1,.856-1.262l2.6-1.567a1.786,1.786,0,0,1,.926-.264,1.833,1.833,0,0,1,.715.149l2.689,1.138a1.712,1.712,0,0,0,.683.143,1.829,1.829,0,0,0,.415-.049l3.222-.751a1.885,1.885,0,0,1,.426-.051,1.746,1.746,0,0,1,.751.172l2.993,1.389a1.752,1.752,0,0,1,1.006,1.236l.766,3.3a1.73,1.73,0,0,0,.588.959l4.608,3.879a1.72,1.72,0,0,0,.84.392l5.317.929a1.911,1.911,0,0,0,.318.027,1.735,1.735,0,0,0,1.341-.627l.172-.2a1.732,1.732,0,0,0,.406-1.417l-1.038-6.983a1.729,1.729,0,0,1-.018-.4l.186-2.735a1.723,1.723,0,0,1,.415-1.034l4.593-5.528a1.769,1.769,0,0,1,1.378-.657,1.893,1.893,0,0,1,.494.067l2.6.707a1.834,1.834,0,0,0,.483.067,1.7,1.7,0,0,0,.764-.185l3.678-1.8a1.714,1.714,0,0,0,.924-1.089l1.947-6.508a1.719,1.719,0,0,0-.04-1.139l-.493-1.306a1.742,1.742,0,0,1-.1-.857l.825-6.89a1.314,1.314,0,0,1,.544-.937,1.373,1.373,0,0,1,.369-.2C663.048,1995.82,661.192,1987.9,662.944,1982.646Z" fill="#9d1915" clip-rule="evenodd"/>
    </clipPath>
  </defs>
  <g id="Сгруппировать_33592" data-name="Сгруппировать 33592" transform="translate(-320.031 -1324.916)">
    <g id="Сгруппировать_25645" data-name="Сгруппировать 25645">
      <path id="Контур_14934" data-name="Контур 14934" d="M662.944,1982.646c.816-2.449-.618-6.307-.358-7.737.559-3.071-4.757-7.287-5.136-8.29-.553-1.463.39-5.494-2.211-7.055s-6.209-1.43-8.777-5.461c-1.091-1.712-1.138-6.274-1.4-8.095s-3.024-3.088-4.584-3.609-3.512-4.063-3.512-5.884-3.715-3.558-5.591-2.34c-1.853,1.2-4.909,1.268-7.932,1.82-2.52.461-4.227-.715-5.267-.455a8.267,8.267,0,0,1-6.079-1.268c-2.08-1.56-6.73-1.073-7.25,1.008s-.78,3.479-2.341,3.739-1.531,1.629-1.853,2.34c-.618,1.366-2.308,3.056-3.348,3.056s-4.171,1.363-5.1,2.926c-1.1,1.853-3.478,1.95-5.364-.65-3.558-4.908-7.554-3.019-8.322-4.844-1.04-2.471-4.616-1.268-5.4-2.828s-3.642-4.519-6.242-4.779-5.267-.618-4.324-3.479c.85-2.579-.352-3.19-1.4-4.486-1.495-1.853.228-7.282-4.454-8.322s-7.639.78-8.939,0-.261-2.861-1.561-6.5-4.486-3.609-4.486-6.209,1.138-2.178,1.365-4.259c.372-3.4-4-4.356-7.9-8.55a96.817,96.817,0,0,1-7.834-9.33c-1.3-2.081-.813-8.712-3.121-10.955-2.49-2.42-.163-5.17-1.528-6.7-3.1-3.47-5.494-3.9-8.615-4.681a16.7,16.7,0,0,0-4.147-.28l-.921.641a1.779,1.779,0,0,0-.414,2.518l.794,1.076a1.81,1.81,0,0,1-.233,2.415l-5.5,5.039a1.709,1.709,0,0,0-.559,1.063l-.837,5.927a1.667,1.667,0,0,0,.057.756l.961,3.232a1.776,1.776,0,0,1-.526,1.865l-1.5,1.352a1.741,1.741,0,0,1-.764.407l-2.871.73a1.705,1.705,0,0,0-.77.418l-4.216,3.9a1.756,1.756,0,0,1-.383.273l-4.957,2.633a1.718,1.718,0,0,0-.787.838l-.708,1.563a1.765,1.765,0,0,0,.257,1.875l.916,1.1a1.746,1.746,0,0,1,.309.533l1.281,3.473a1.736,1.736,0,0,0,.868.972l1.916.968a1.79,1.79,0,0,0,.828.191l2.774-.04a1.727,1.727,0,0,0,1.4-.717l.407-.545a5.475,5.475,0,0,0,.332-.544l.156-.271,1-1.715,1.008,1.71c.155.262.306.556.408.755.054.106.1.2.147.282l1.214,2.231c.064.118.163.279.281.47s.308.5.488.826l1.275,2.3-2.56-.6c-.225-.054-.443-.111-.643-.164-.263-.07-.49-.13-.619-.152l-.031-.005a1.6,1.6,0,0,0-.168-.01,1.309,1.309,0,0,0-1.047.522l-.071.09c-.332.427-.746.958-.667,1.434.065.383.415.623.922.932.078.047.155.094.226.141l.485.32a1.344,1.344,0,0,1,.6,1.305l-.011.086a1.731,1.731,0,0,0,.754,1.674l.4.279a1.364,1.364,0,0,1,.309,1.951,1.756,1.756,0,0,1-1.152.676l-1.031.16a1.728,1.728,0,0,0-1.353,1.042l-.2.459a1.772,1.772,0,0,1-1.332,1.053l-1.68.309a1.722,1.722,0,0,0-.788.359l-4.132,3.3a1.7,1.7,0,0,0-.362.39l-1.506,2.212a1.551,1.551,0,0,1-.627.57l-2.971,1.377a1.67,1.67,0,0,0-.954.982,1.256,1.256,0,0,0,.164,1.039l1.019,1.665a1.7,1.7,0,0,1-.295,2.061l-1.4,1.488a1.761,1.761,0,0,1-1.176.567l-1.8.148a1.7,1.7,0,0,0-.781.254l-4.07,2.481a1.81,1.81,0,0,1-.961.265l-2.161-.02a1.8,1.8,0,0,0-.874.212l-5.8,3.109a1.78,1.78,0,0,1-.85.221,1.731,1.731,0,0,1-.3-.025l.442.168L462,1948.14a1.766,1.766,0,0,0,.207,2.312l3.043,2.956a1.76,1.76,0,0,0,1.23.507,1.781,1.781,0,0,0,.773-.177l9.107-4.331a1.766,1.766,0,0,1,1.539-.007,1.765,1.765,0,0,1,.991,1.178l.33,1.236a1.9,1.9,0,0,1,.049.255l.483,4.116a1.744,1.744,0,0,0,.167.569l1.519,3.134a1.8,1.8,0,0,1-.715,2.357l-2.127,1.244a1.724,1.724,0,0,0-.876,1.653l.349,5.327a1.735,1.735,0,0,0,.7,1.3l6.609,5.038a1.753,1.753,0,0,1,.7,1.251l.282,2.69a1.737,1.737,0,0,0,1.081,1.453l3.743,1.574a1.733,1.733,0,0,1,.815.683l2.63,4.046a1.667,1.667,0,0,0,.548.538l4.883,3.055a1.685,1.685,0,0,0,.919.273,1.865,1.865,0,0,0,.312-.026l6.353-1.042a1.928,1.928,0,0,1,.314-.026,1.749,1.749,0,0,1,1.077.371l2.893,2.2a1.726,1.726,0,0,0,1.059.363,1.6,1.6,0,0,0,.194-.011l6.484-.645a1.726,1.726,0,0,0,1.322-.811l1.55-2.421a1.772,1.772,0,0,1,1.517-.839,1.843,1.843,0,0,1,.27.02l8.407,1.211a1.743,1.743,0,0,1,.641.218l2.293,1.3a1.8,1.8,0,0,0,.888.241,1.746,1.746,0,0,0,1.182-.467l1.166-1.051a1.75,1.75,0,0,1,1.2-.467c.049,0,.1,0,.156.006l4.252.336a1.751,1.751,0,0,1,1.091.478l6.488,6.014a1.692,1.692,0,0,0,.838.434l10.442,2.234a1.757,1.757,0,0,1,1.009.606l1.232,1.465a1.811,1.811,0,0,1-.086,2.432l-.85.875a1.724,1.724,0,0,0-.495,1.077l-.13,1.438a1.7,1.7,0,0,0,.352,1.236l.229.3a1.753,1.753,0,0,1,.345,1.386l-1.5,9.207a1.718,1.718,0,0,0,.223,1.188l3.587,6.095a1.76,1.76,0,0,0,1.528.879,1.835,1.835,0,0,0,.523-.078l1.9-.577a1.833,1.833,0,0,1,.545-.083,1.786,1.786,0,0,1,1.287.555l.4.41a1.76,1.76,0,0,1,.463,1.674l-.5,2.153a1.753,1.753,0,0,1-.809,1.13l-3.176,1.972c-.407.249-1.252.767-1.306,1.132-.044.3.2.581.516.917.058.06.114.118.159.171l.23.26a1.752,1.752,0,0,0,1.325.61,1.808,1.808,0,0,0,.9-.244l8.587-4.939a1.84,1.84,0,0,1,.91-.247,1.81,1.81,0,0,1,1.2.462l4.053,3.591a1.733,1.733,0,0,0,1.16.453,1.826,1.826,0,0,0,.493-.069l6.313-1.741a1.754,1.754,0,0,1,.465-.063c.044,0,.09,0,.143.005l2.8.2a1.759,1.759,0,0,1,1.347.765,2.814,2.814,0,0,1,.3.529l.255.613-1.108,1.48a.709.709,0,0,0-.157.7c.177.455.953.833,2.185,1.065l5.912,1.118a1.83,1.83,0,0,0,.337.031,1.77,1.77,0,0,0,1.56-.937l5.264-9.778a1.672,1.672,0,0,0,.189-.556l.56-3.428a1.765,1.765,0,0,1,.856-1.262l2.6-1.567a1.786,1.786,0,0,1,.926-.264,1.833,1.833,0,0,1,.715.149l2.689,1.138a1.712,1.712,0,0,0,.683.143,1.829,1.829,0,0,0,.415-.049l3.222-.751a1.885,1.885,0,0,1,.426-.051,1.746,1.746,0,0,1,.751.172l2.993,1.389a1.752,1.752,0,0,1,1.006,1.236l.766,3.3a1.73,1.73,0,0,0,.588.959l4.608,3.879a1.72,1.72,0,0,0,.84.392l5.317.929a1.911,1.911,0,0,0,.318.027,1.735,1.735,0,0,0,1.341-.627l.172-.2a1.732,1.732,0,0,0,.406-1.417l-1.038-6.983a1.729,1.729,0,0,1-.018-.4l.186-2.735a1.723,1.723,0,0,1,.415-1.034l4.593-5.528a1.769,1.769,0,0,1,1.378-.657,1.893,1.893,0,0,1,.494.067l2.6.707a1.834,1.834,0,0,0,.483.067,1.7,1.7,0,0,0,.764-.185l3.678-1.8a1.714,1.714,0,0,0,.924-1.089l1.947-6.508a1.719,1.719,0,0,0-.04-1.139l-.493-1.306a1.742,1.742,0,0,1-.1-.857l.825-6.89a1.314,1.314,0,0,1,.544-.937,1.373,1.373,0,0,1,.369-.2C663.048,1995.82,661.192,1987.9,662.944,1982.646Z" fill="#9d1915" fill-rule="evenodd"/>
      <g id="Сгруппировать_25644" data-name="Сгруппировать 25644" clip-path="url(#clip-path)">
        <g id="Сгруппировать_25643" data-name="Сгруппировать 25643">
          <line id="Линия_104902" data-name="Линия 104902" y1="208.345" x2="125.402" transform="translate(373.092 1837.469)" fill="#9d1915"/>
          <line id="Линия_104903" data-name="Линия 104903" y1="208.345" x2="125.402" transform="translate(379.017 1837.469)" fill="#9d1915"/>
          <line id="Линия_104904" data-name="Линия 104904" y1="208.345" x2="125.402" transform="translate(384.941 1837.469)" fill="#9d1915"/>
          <line id="Линия_104905" data-name="Линия 104905" y1="208.345" x2="125.402" transform="translate(390.866 1837.469)" fill="#9d1915"/>
          <line id="Линия_104906" data-name="Линия 104906" y1="208.345" x2="125.402" transform="translate(396.79 1837.469)" fill="#9d1915"/>
          <line id="Линия_104907" data-name="Линия 104907" y1="208.345" x2="125.402" transform="translate(402.715 1837.469)" fill="#9d1915"/>
          <line id="Линия_104908" data-name="Линия 104908" y1="208.345" x2="125.402" transform="translate(408.639 1837.469)" fill="#9d1915"/>
          <line id="Линия_104909" data-name="Линия 104909" y1="208.345" x2="125.402" transform="translate(414.564 1837.469)" fill="#9d1915"/>
          <line id="Линия_104910" data-name="Линия 104910" y1="208.345" x2="125.402" transform="translate(420.488 1837.469)" fill="#9d1915"/>
          <line id="Линия_104911" data-name="Линия 104911" y1="208.345" x2="125.402" transform="translate(426.413 1837.469)" fill="#9d1915"/>
          <line id="Линия_104912" data-name="Линия 104912" y1="208.345" x2="125.402" transform="translate(432.337 1837.469)" fill="#9d1915"/>
          <line id="Линия_104913" data-name="Линия 104913" y1="208.345" x2="125.402" transform="translate(438.262 1837.469)" fill="#9d1915"/>
          <line id="Линия_104914" data-name="Линия 104914" y1="208.345" x2="125.402" transform="translate(444.186 1837.469)" fill="#9d1915"/>
          <line id="Линия_104915" data-name="Линия 104915" y1="208.345" x2="125.402" transform="translate(450.111 1837.469)" fill="#9d1915"/>
          <line id="Линия_104916" data-name="Линия 104916" y1="208.345" x2="125.402" transform="translate(456.035 1837.469)" fill="#9d1915"/>
          <line id="Линия_104917" data-name="Линия 104917" y1="208.345" x2="125.402" transform="translate(461.96 1837.469)" fill="#9d1915"/>
          <line id="Линия_104918" data-name="Линия 104918" y1="208.345" x2="125.402" transform="translate(467.884 1837.469)" fill="#9d1915"/>
          <line id="Линия_104919" data-name="Линия 104919" y1="208.345" x2="125.402" transform="translate(473.809 1837.469)" fill="#9d1915"/>
          <line id="Линия_104920" data-name="Линия 104920" y1="208.345" x2="125.402" transform="translate(479.733 1837.469)" fill="#9d1915"/>
          <line id="Линия_104921" data-name="Линия 104921" y1="208.345" x2="125.402" transform="translate(485.658 1837.469)" fill="#9d1915"/>
          <line id="Линия_104922" data-name="Линия 104922" y1="208.345" x2="125.402" transform="translate(491.582 1837.469)" fill="#9d1915"/>
          <line id="Линия_104923" data-name="Линия 104923" y1="208.345" x2="125.402" transform="translate(497.507 1837.469)" fill="#9d1915"/>
          <line id="Линия_104924" data-name="Линия 104924" y1="208.345" x2="125.402" transform="translate(503.431 1837.469)" fill="#9d1915"/>
          <line id="Линия_104925" data-name="Линия 104925" y1="208.345" x2="125.402" transform="translate(509.356 1837.469)" fill="#9d1915"/>
          <line id="Линия_104926" data-name="Линия 104926" y1="208.345" x2="125.402" transform="translate(515.28 1837.469)" fill="#9d1915"/>
          <line id="Линия_104927" data-name="Линия 104927" y1="208.345" x2="125.402" transform="translate(521.205 1837.469)" fill="#9d1915"/>
          <line id="Линия_104928" data-name="Линия 104928" y1="208.345" x2="125.402" transform="translate(527.129 1837.469)" fill="#9d1915"/>
          <line id="Линия_104929" data-name="Линия 104929" y1="208.345" x2="125.402" transform="translate(533.054 1837.469)" fill="#9d1915"/>
          <line id="Линия_104930" data-name="Линия 104930" y1="208.345" x2="125.402" transform="translate(538.978 1837.469)" fill="#9d1915"/>
          <line id="Линия_104931" data-name="Линия 104931" y1="208.345" x2="125.402" transform="translate(544.903 1837.469)" fill="#9d1915"/>
          <line id="Линия_104932" data-name="Линия 104932" y1="208.345" x2="125.402" transform="translate(550.828 1837.469)" fill="#9d1915"/>
          <line id="Линия_104933" data-name="Линия 104933" y1="208.345" x2="125.402" transform="translate(556.752 1837.469)" fill="#9d1915"/>
          <line id="Линия_104934" data-name="Линия 104934" y1="208.345" x2="125.402" transform="translate(562.677 1837.469)" fill="#9d1915"/>
          <line id="Линия_104935" data-name="Линия 104935" y1="208.345" x2="125.402" transform="translate(568.601 1837.469)" fill="#9d1915"/>
          <line id="Линия_104936" data-name="Линия 104936" y1="208.345" x2="125.402" transform="translate(574.526 1837.469)" fill="#9d1915"/>
          <line id="Линия_104937" data-name="Линия 104937" y1="208.345" x2="125.402" transform="translate(580.45 1837.469)" fill="#9d1915"/>
          <line id="Линия_104938" data-name="Линия 104938" y1="208.345" x2="125.402" transform="translate(586.375 1837.469)" fill="#9d1915"/>
          <line id="Линия_104939" data-name="Линия 104939" y1="208.345" x2="125.402" transform="translate(592.299 1837.469)" fill="#9d1915"/>
          <line id="Линия_104940" data-name="Линия 104940" y1="208.345" x2="125.402" transform="translate(598.224 1837.469)" fill="#9d1915"/>
          <line id="Линия_104941" data-name="Линия 104941" y1="208.345" x2="125.402" transform="translate(604.148 1837.469)" fill="#9d1915"/>
          <line id="Линия_104942" data-name="Линия 104942" y1="208.345" x2="125.402" transform="translate(610.073 1837.469)" fill="#9d1915"/>
          <line id="Линия_104943" data-name="Линия 104943" y1="208.345" x2="125.402" transform="translate(615.997 1837.469)" fill="#9d1915"/>
          <line id="Линия_104944" data-name="Линия 104944" y1="208.345" x2="125.402" transform="translate(621.922 1837.469)" fill="#9d1915"/>
          <line id="Линия_104945" data-name="Линия 104945" y1="208.345" x2="125.402" transform="translate(627.846 1837.469)" fill="#9d1915"/>
          <line id="Линия_104946" data-name="Линия 104946" y1="208.345" x2="125.402" transform="translate(633.771 1837.469)" fill="#9d1915"/>
          <line id="Линия_104947" data-name="Линия 104947" y1="208.345" x2="125.402" transform="translate(639.695 1837.469)" fill="#9d1915"/>
          <line id="Линия_104948" data-name="Линия 104948" y1="208.345" x2="125.402" transform="translate(645.62 1837.469)" fill="#9d1915"/>
          <line id="Линия_104949" data-name="Линия 104949" y1="208.345" x2="125.402" transform="translate(651.544 1837.469)" fill="#9d1915"/>
        </g>
      </g>
    </g>
    <path id="Контур_14936" data-name="Контур 14936" d="M910.971,1704.388c2.47-1.973,2.692-6.192,1.48-9.13-.809-1.962-1.472-2.417-1.9-2.589a1.547,1.547,0,0,0-.586-.111,3.274,3.274,0,0,0-1.265.331c-1.318.584-1.313,1.874-.986,4.68l.045.384a1.935,1.935,0,0,1-.744,2.023,2.241,2.241,0,0,1-1.226.322,3.737,3.737,0,0,1-1.859-.516c-1.328-.776-1.932-2.189-2.717-4.021-.14-.325-.283-.661-.438-1.008-.632-1.41-1.473-1.642-3.831-2.111a44.1,44.1,0,0,1-4.389-1.059c-4.022-1.2-4.913-2.521-5.666-4.134a7.889,7.889,0,0,0-.553-1.042c-.832-1.26-2.975-1.979-4.866-2.614-.547-.183-1.112-.373-1.574-.559a4.814,4.814,0,0,0-1.764-.4,2.978,2.978,0,0,0-1.977.816c-.41.332-1.062.945-1.905,1.739-1.067,1.005-2.4,2.256-3.933,3.595a7.122,7.122,0,0,1-4.717,1.875,6.068,6.068,0,0,1-2.939-.745,7.75,7.75,0,0,0-3.978-1.235,8.182,8.182,0,0,0-1.6.167,9.3,9.3,0,0,1-1.8.207,5.4,5.4,0,0,1-3.319-1.16c-1.649-1.162-4.509-1.462-7.09-1.6a17.414,17.414,0,0,1-5.961-1.984c-.638-.3-1.242-.588-1.739-.78a15.312,15.312,0,0,1-5.057-3.45c-.729-.715-1.435-1.514-2.284-2.477s-1.8-2.042-2.945-3.2a55,55,0,0,1-4.966-5.913l-.293-.386a24.066,24.066,0,0,0-3.55-3.454c-.905-.77-1.759-1.5-2.522-2.278a17.091,17.091,0,0,1-2.58-3.611c-.449-.766-.957-1.635-1.625-2.586a4.323,4.323,0,0,0-4.061-2.231c-.179,0-.357,0-.537.006l-.436.007a27.232,27.232,0,0,0-7.646,1.069c-2.42.817-3.389,4.214-4.415,7.81l-.163.572c-.963,3.358-1.819,3.87-3.842,4.806-.184.085-.376.174-.577.269a2.807,2.807,0,0,1-1.232.323c-1.46,0-2.425-1.386-3.424-3.465a7.335,7.335,0,0,1-.985-4.2l0-.558c0-1.954.169-7.281.4-10.637.175-2.519-.761-3.917-1.853-5.547-.378-.564-.768-1.148-1.131-1.811a8.518,8.518,0,0,1-1.075-5.094c.01-.32.02-.648.02-.99,0-2.373-1.066-3.1-1.994-3.46a3.44,3.44,0,0,0-1.234-.188,15.178,15.178,0,0,0-4.339.872,4.286,4.286,0,0,1-1.334.232c-1.2,0-2.095-.6-3.42-1.6a6.9,6.9,0,0,1-2.741-4.738c0-1.358-1.491-2.314-2.688-3.08l-.156-.1a3.823,3.823,0,0,0-2.367-.616c-.221,0-.45.005-.692.01-.3.007-.631.014-1,.014a15.2,15.2,0,0,1-6.545-1.488,36.131,36.131,0,0,1-7.224-5.529c-2.363-2.363-4.07-4.07-5.32-6.9-1.031-2.334-3.021-2.843-4.949-3.338-.4-.1-.777-.2-1.13-.308-1.918-.586-2.865-2.272-3.876-4.076-.116-.208-.233-.417-.353-.626a37.746,37.746,0,0,1-2.218-5.223c-.278-.756-.542-1.469-.783-2.057a3.669,3.669,0,0,1-.24-2.812,1.68,1.68,0,0,1,1.172-.866,2.047,2.047,0,0,0,1.592-2.183c0-.111.012-.269.029-.459l.007-.068c.083-.955.224-2.553-.568-3.177a9.625,9.625,0,0,1-2.586-2.646c-.559-1.007-1.793-2-3.837-3.643l-.375-.3a2.138,2.138,0,0,1-1.02-1.726,1.939,1.939,0,0,1,.929-1.337l2.2-1.584a1.725,1.725,0,0,0,.733-1.391l.1-3.692a1.73,1.73,0,0,0-.45-1.234l-.8-.894a1.757,1.757,0,0,1-.39-1.71l.417-1.447a1.728,1.728,0,0,0-.132-1.316l-1.971-3.776a1.771,1.771,0,0,1,.086-1.83l.259-.4c.068-.1.229-.309.386-.5.417-.515,1.047-1.292.854-1.713s-1.2-.457-1.871-.48c-.245-.008-.5-.021-.62-.037l-3.667-.5a1.768,1.768,0,0,1-1.364-.962l-.727-1.4a1.739,1.739,0,0,0-1.5-.959l-2.34-.1a1.707,1.707,0,0,0-1.238.516l-.745.737a5.011,5.011,0,0,0-.361.427c-.077.1-.181.229-.279.342l-1.068,1.245-.821-1.421a4.4,4.4,0,0,1-.46-1.386l-.853-4.655a1.712,1.712,0,0,1-.029-.268l-.136-4.475a1.705,1.705,0,0,0-.072-.448l-.763-2.589c-.288-.975-.512-1.529-.87-1.669a.55.55,0,0,0-.206-.038,3.889,3.889,0,0,0-1.546.684l-3.266,1.958a1.762,1.762,0,0,0-.8,1.987l.658,2.459c.075.061,1.137.909,2.654,1.9a12.926,12.926,0,0,1,1.08.761l1.107.9-1.11.9a4.959,4.959,0,0,1-.849.515,4.593,4.593,0,0,0-1.263.854,3.078,3.078,0,0,1-2.136.929,2.5,2.5,0,0,1-1.257-.332c-1.228-.7-1.856-1.233-2.1-2.378l-.084-.39a17.745,17.745,0,0,0-1.206-3.851l-.2-.458a8.547,8.547,0,0,0-1.908-3.191,10.5,10.5,0,0,1-2.737-4.582l-.2-.607c-.683-2.01-.71-2.514.383-5.792a27.594,27.594,0,0,0,1.243-5.229c.108-.72.211-1.4.4-2.2.389-1.6-.549-2.1-3.986-3.018-.622-.165-1.264-.337-1.959-.542a11.376,11.376,0,0,1-6.052-4.69c-.3-.388-.575-.755-.864-1.094a4.418,4.418,0,0,0-3.3-1.31,6.208,6.208,0,0,1-2.237-.5,2.52,2.52,0,0,1-1.183-1.028l-.117-.241v-.267a2.4,2.4,0,0,1,.848-1.566c.2-.2.369-.366.52-.512a4.327,4.327,0,0,0,1.439-2.321,2.622,2.622,0,0,1,1.136-1.712,8.47,8.47,0,0,0,.83-.657c1-.9.982-1.763.848-3.633,0,0-.037-.517-.051-.735-.113-1.848-.974-2.058-3.679-2.442-.3-.043-.625-.089-.97-.141-1.991-.3-2.435-.837-3.114-2.177-.169-.334-.361-.712-.618-1.123l-1.452-2.318,2.676.563a.583.583,0,0,0,.126.013,3.594,3.594,0,0,0,1.442-.636,3.465,3.465,0,0,0,1.939-2.542l-.16-3.15a1.736,1.736,0,0,0-.847-1.429l-4.324-2.644a1.748,1.748,0,0,1-.686-.758l-1.682-3.474a1.763,1.763,0,0,1-.088-1.362l1.68-5.057a1.722,1.722,0,0,0,.063-.869l-1.052-5.99a1.709,1.709,0,0,0-.4-.853l-2.462-2.868a1.736,1.736,0,0,1-.182-.257l-2.9-4.957a1.761,1.761,0,0,1-.052-1.737l1-1.983c.567-1.124.39-1.5.172-1.707a1.728,1.728,0,0,0-1.115-.486.822.822,0,0,0-.529.177l-1.633,1.285a4.952,4.952,0,0,1-.834.536l-1.015.5-.528-1c-.082-.157-.171-.354-.253-.539-.043-.1-.084-.192-.123-.272l-.632-1.318a1.746,1.746,0,0,1-.131-1.2l.55-2.359a1.789,1.789,0,0,1,1.734-1.4l1.989-.036a1.771,1.771,0,0,0,1.731-1.544l.209-1.564a1.737,1.737,0,0,1,.615-1.135l1.614-1.392a2.271,2.271,0,0,0,.889-1.5.98.98,0,0,0-.322-.749l-.744-.709a2.2,2.2,0,0,0-1.442-.694,1.248,1.248,0,0,0-.594.15l-2.376,1.261-.608-.678a4.7,4.7,0,0,1-.683-1.133,1.771,1.771,0,0,1,.061-1.647l2.522-4.517a1.711,1.711,0,0,0,.185-1.246l-1.218-5.6a1.762,1.762,0,0,1,.214-1.31l1.7-2.858a1.789,1.789,0,0,1,1.544-.888,1.881,1.881,0,0,1,.352.033l1.88.356a1.845,1.845,0,0,0,.353.034,1.8,1.8,0,0,0,1.586-1.012c.592-1.084.211-1.394.047-1.528l-2.4-1.953a1.7,1.7,0,0,1-.576-1.687l.286-1.529a1.771,1.771,0,0,1,1.339-1.425l1.538-.387a1.739,1.739,0,0,0,1.339-1.57l.13-1.475a1.715,1.715,0,0,0-.273-1.114l-1.184-1.854a1.751,1.751,0,0,1-.278-1.131l.284-3.293a1.721,1.721,0,0,0-.253-1.079l-1.306-2.141a1.737,1.737,0,0,1-.263-1.04l.175-3.3a1.746,1.746,0,0,1,.49-1.147l3.87-4.116a1.713,1.713,0,0,0,.444-.852l.74-3.5a1.674,1.674,0,0,0,.037-.284l-5.287-.3a1.73,1.73,0,0,1-1.065-.423l-4.587-3.857a1.745,1.745,0,0,0-1.131-.422,1.81,1.81,0,0,0-.673.132l-1.957.78a1.377,1.377,0,0,1-.511.1,1.359,1.359,0,0,1-1.214-.747l-.078-.153a1.794,1.794,0,0,1,.313-2.085l1.754-1.812a1.716,1.716,0,0,0,.5-1.124l.256-3.992a1.744,1.744,0,0,1,.512-1.151l3-3.074a1.771,1.771,0,0,0,.007-2.478l-3.2-3.324a1.765,1.765,0,0,1-.422-1.806l1.415-4.464a1.772,1.772,0,0,0-.679-2l-8.873-6.181a1.722,1.722,0,0,0-1-.321,1.827,1.827,0,0,0-.349.033l-5.217.983a1.952,1.952,0,0,1-.352.033,1.741,1.741,0,0,1-.914-.261l-1.736-1.042a1.744,1.744,0,0,0-1.632-.1l-1.452.639a1.765,1.765,0,0,0-1.061,1.732l.237,4.071a1.7,1.7,0,0,1-.064.593l-1.019,3.646a1.757,1.757,0,0,1-1.065,1.192l-8.043,3.264a1.772,1.772,0,0,1-.615.13l-2.468.081a1.74,1.74,0,0,1-1.318-.578l-.587-.63a1.711,1.711,0,0,0-1.122-.558l-12.93-1.32a1.809,1.809,0,0,1-1.626-1.7l-.557-9.379a1.454,1.454,0,0,0-.029-.233l-2.232-11.452a1.777,1.777,0,0,0-2-1.42l-5.038.736a1.649,1.649,0,0,0-.726.277l-5.551,3.679a1.733,1.733,0,0,1-.916.3l-18.609.861a1.725,1.725,0,0,0-.87.275l-3.783,2.4a1.718,1.718,0,0,0-.721.9l-2.629,7.249a1.709,1.709,0,0,0,0,1.212l2,5.533a1.769,1.769,0,0,1-.326,1.8l-2.875,3.362a1.72,1.72,0,0,0-.335,1.725l1.8,5.349a1.755,1.755,0,0,1-.187,1.553l-2.3,3.613a1.715,1.715,0,0,0-.276,1.031l.266,6.193a1.811,1.811,0,0,1-1.413,1.849l-12.234,2.756a1.833,1.833,0,0,0-.281.088l-14.893,6.074a1.7,1.7,0,0,0-.489.3l-9.174,7.905a1.714,1.714,0,0,0-.6,1.068l-1.816,11.45a1.7,1.7,0,0,1-.156.5l-3.847,8.024a1.694,1.694,0,0,0-.168.614l-1.012,11.664a1.774,1.774,0,0,1-1.025,1.481l-8.438,4.034a1.7,1.7,0,0,0-.374.24l-4.35,3.629a1.733,1.733,0,0,0-.485.642l-4.439,9.956a1.714,1.714,0,0,0-.085,1.214l.516,1.807a1.762,1.762,0,0,0,1.431,1.268l1.248.2a1.732,1.732,0,0,1,1.02.534l3.639,3.78a1.746,1.746,0,0,1,.5,1.375l-.274,4.2a1.749,1.749,0,0,1-.328.923l-5.933,8.416a1.721,1.721,0,0,0-.237,1.579l.842,2.573a1.8,1.8,0,0,1-.913,2.186l-2.205,1.1a1.7,1.7,0,0,0-.71.643l-2.233,3.546a1.782,1.782,0,0,1-.44.479l-3.585,2.714a1.721,1.721,0,0,1-.7.326l-6.672,1.473a1.679,1.679,0,0,0-.627.274l-6.794,4.7a1.77,1.77,0,0,0-.724,1.856l1.614,7.155a1.68,1.68,0,0,0,.149.412l1.151,2.279a1.773,1.773,0,0,0,.2.309l4.842,6.053a1.706,1.706,0,0,0,.66.511l2.615,1.177a1.775,1.775,0,0,1,1.064,1.791l-.084,1.1a1.711,1.711,0,0,0,.481,1.355l.726.771a1.765,1.765,0,0,1,.446,1.656l-.608,2.606a1.727,1.727,0,0,1-.358.736l-3.774,4.653a1.743,1.743,0,0,1-1.1.644l-4.873.856a1.73,1.73,0,0,0-1.383,1.2l-.359,1.1a1.789,1.789,0,0,1-1.724,1.248h-1.8a1.724,1.724,0,0,0-1.409.693l-.936,1.212a1.735,1.735,0,0,0-.364,1.24l.085.988a1.762,1.762,0,0,1-.826,1.679l-4.013,2.58a1.729,1.729,0,0,1-.963.288h-.078l-.5-.025a1.752,1.752,0,0,1-1.275-.619l-.6-.69a1.761,1.761,0,0,0-2.476-.2l-2.193,1.818a1.775,1.775,0,0,1-1.146.426,1.846,1.846,0,0,1-.7-.139l-2.659-1.079a1.744,1.744,0,0,0-.662-.134,1.815,1.815,0,0,0-.532.083l-2.1.65a1.736,1.736,0,0,0-1.253,1.778l.058,1.32a1.74,1.74,0,0,1-.4,1.221l-.909,1.125a1.709,1.709,0,0,0-.394,1.167l.055,2.083a1.744,1.744,0,0,1-.229.932l-.853,1.525a1.739,1.739,0,0,0-.056,1.628l1.008,2.138a1.339,1.339,0,0,1-.145,1.408l-.043.056a1.773,1.773,0,0,0,.049,2.212l.7.845a1.746,1.746,0,0,1,.417,1.146l.017,2.58a1.778,1.778,0,0,1-1.153,1.7l-.395.154a1.724,1.724,0,0,0-1.124,1.505l-.164,1.9a1.8,1.8,0,0,1-1.615,1.647l-.509.055a1.77,1.77,0,0,0-1.591,1.81l.067,2.951a1.734,1.734,0,0,1-.3,1.045l-2.182,3.283a1.725,1.725,0,0,0-.3,1.079l.09,1.692a1.736,1.736,0,0,0,1.018,1.516l.647.305a1.361,1.361,0,0,1,.676,1.769,1.757,1.757,0,0,1-.983.953l-7.187,2.911a1.7,1.7,0,0,0-.5.3l-5.661,4.9a1.718,1.718,0,0,0-.561.913l-.653,2.611a1.729,1.729,0,0,1-.372.729l-1.384,1.647a1.774,1.774,0,0,0-.141,2.1l.569.9a1.716,1.716,0,0,0,1.006.758l3.953,1.153a1.726,1.726,0,0,1,.693.38l3.612,3.177a1.666,1.666,0,0,0,.618.355l10.657,3.515a1.718,1.718,0,0,1,.624.356l4.075,3.558a1.749,1.749,0,0,1,.613,1.225l.165,2.1a1.728,1.728,0,0,0,.73,1.3,4.379,4.379,0,0,0,.779.445l-.484,2.223h-.408c-2.254,0-2.3.27-2.415.923-.132.755.359,1.185,2.1,1.839a8.7,8.7,0,0,1,1.322.59l1.04.616-.656,1.015a2.347,2.347,0,0,1-.216.29l-.136.185-.274.125a1.446,1.446,0,0,1-.623.12,3.966,3.966,0,0,1-.688-.072,2.671,2.671,0,0,0-.468-.045c-.824,0-1.288.487-1.991,2.095l-.742,1.588-1.173-1.222-.22-.224-.063-.1a2.317,2.317,0,0,1-.245-1.389c.018-1.062-.189-1.282-.662-1.375a1.246,1.246,0,0,0-.244-.026c-.54,0-.965.43-1.464.993a3.96,3.96,0,0,1-1.371,1.141,2.759,2.759,0,0,1-1.061.2,4.158,4.158,0,0,1-3.416-2.113,1.719,1.719,0,0,0-1.4-.991h-.036a2.863,2.863,0,0,0-2.042,1.556,2.833,2.833,0,0,0,.074,3.576,4.324,4.324,0,0,1,.863,3.995c-.292,1.049-.314,2.291,1.746,3.546a7.039,7.039,0,0,1,2.4,2.2l.957,1.675-2.009.065a3.831,3.831,0,0,1-1.2-.221,9.033,9.033,0,0,0-2.8-.618,3.592,3.592,0,0,0-2.626,1.119c-1.728,1.677-1.9,2.48-1.747,2.858.186.45.94.545,1.539.545h.091c.375-.006.747-.02,1.113-.035.478-.018.9-.03,1.268-.03,1.651,0,3.3.18,3.7,2.329.452,2.4.006,3.607-1.54,4.186a1.83,1.83,0,0,1-.642.117c-1.307,0-2.015-1.33-2.247-1.766a1.214,1.214,0,0,0-1.05-.722,1.137,1.137,0,0,0-.163.012c-.715.109-1.275.861-1.5,2.013-.441,2.3.005,2.816.769,3.47l.088.075.072.092a1.89,1.89,0,0,1,.077,2.015,1.413,1.413,0,0,1-1.265.646,2.7,2.7,0,0,1-.543-.061,11.447,11.447,0,0,0-2.227-.3,2.246,2.246,0,0,0-1.436.373,1.4,1.4,0,0,0-.462,1.152c0,1.886.2,2.306,1.553,3.21a6.626,6.626,0,0,1,3.467,5.7l.16,4.158a1.763,1.763,0,0,1-.608,1.426l-1.439,1.278a1.765,1.765,0,0,0-.525,1.834l.415,1.41a1.721,1.721,0,0,0,.867,1.065l2.268,1.215a1.793,1.793,0,0,1,.9,2.032l-.781,3.174a1.692,1.692,0,0,0-.039.63l1.528,13.126a1.7,1.7,0,0,0,.171.578l1.383,2.824a1.8,1.8,0,0,0,1.608.995,1.739,1.739,0,0,0,.661-.13l6.218-2.53a1.4,1.4,0,0,1,.514-.1,1.342,1.342,0,0,1,.961.41,1.72,1.72,0,0,0,1.241.531,1.825,1.825,0,0,0,.536-.082l.977-.294a1.733,1.733,0,0,1,.864-.044l1.654.317a1.852,1.852,0,0,0,.352.034,1.727,1.727,0,0,0,.943-.282l1.676-1.071a1.753,1.753,0,0,1,.96-.291,1.87,1.87,0,0,1,.358.036l1.791.34a1.781,1.781,0,0,1,1.41,1.3l.123.449a1.3,1.3,0,0,0,.427.668,1.771,1.771,0,0,1,.582,1.837l-.478,1.85a1.733,1.733,0,0,0,.755,1.938l2.41,1.563a1.8,1.8,0,0,1,.707,2.176l-.455,1.175a1.714,1.714,0,0,0-.093.945l.34,1.959a1.737,1.737,0,0,0,1.313,1.42l2.488.634a1.76,1.76,0,0,1,1.186.974l1.9,3.967a1.728,1.728,0,0,1,.17.635l.391,4.857a1.725,1.725,0,0,0,.6,1.192l3.208,2.83a1.765,1.765,0,0,1,.6,1.171l.5,4.749a1.689,1.689,0,0,0,.213.677l2.294,4.14a1.725,1.725,0,0,0,1.281.9l1.906.3a1.746,1.746,0,0,1,1.084.6l1.345,1.539a1.772,1.772,0,0,1,.342,1.8l-.247.694a1.724,1.724,0,0,0-.018,1.139l.811,2.535a1.78,1.78,0,0,1-.465,1.856l-.9.875a1.732,1.732,0,0,0-.519,1.56l.243,1.513a1.751,1.751,0,0,1-.285,1.3l-.933,1.39a1.724,1.724,0,0,0-.291,1.191l.725,6.456a1.78,1.78,0,0,0,1.8,1.58l3.01-.052a1.742,1.742,0,0,1,.806.187l3.083,1.52a1.715,1.715,0,0,0,1.59-.007l9.926-5.016a1.751,1.751,0,0,1,.807-.2,1.838,1.838,0,0,1,.5.071l2.818.791a1.743,1.743,0,0,1,1.016.734l1.321,1.961a1.71,1.71,0,0,0,.791.649l1.916.8a1.775,1.775,0,0,1,1.112,1.746l-.1,2.405a1.721,1.721,0,0,0,.521,1.331l4.579,4.58a1.717,1.717,0,0,1,.382.559l.554,1.275a1.776,1.776,0,0,1-.407,2.031l-7.314,7.026a1.784,1.784,0,0,0-.236.28l-3.954,5.762a1.681,1.681,0,0,0-.24.5l-2.279,7.729a1.664,1.664,0,0,0-.064.338l-.489,5.219a1.7,1.7,0,0,0,.3,1.16l1.73,2.565a1.717,1.717,0,0,0,1.195.762l1.507.241a1.731,1.731,0,0,1,.914.43l1.858,1.633a1.707,1.707,0,0,0,.723.385l5.66,1.49a1.627,1.627,0,0,0,.281.05l3.881.373.3.48a17.534,17.534,0,0,1,1.268,2.279c.208.522.406.785.658.876a.629.629,0,0,0,.217.037,1.462,1.462,0,0,0,.58-.154l1.42-.644.212,1.544c.042.31.157.84.451.9a.262.262,0,0,0,.052.006.491.491,0,0,0,.316-.169l1.326-1.3.589,1.758a.6.6,0,0,0,.314.4.52.52,0,0,0,.21.044,2.5,2.5,0,0,0,1.427-.834c.2-.189.361-.326.485-.426l1.2-.96.6,1.41c.037.086.078.188.123.31.077.206.157.405.246.622a7.636,7.636,0,0,1,.388,1.1l.212.952-.9.374c-.074.03-.173.067-.3.1-1.7.5-1.91.771-2.6,1.983a10.761,10.761,0,0,0-.873,1.774l.75,2.357a1.758,1.758,0,0,1-.021,1.163l-1.177,3.286A29.148,29.148,0,0,0,521,1849.9c.626,2.274,1.064,3.93,1.267,4.706l.131.5-2.119,3.223a1.772,1.772,0,0,1-1.5.82,1.839,1.839,0,0,1-.4-.044l-4.149-.906a1.867,1.867,0,0,0-.4-.045,1.717,1.717,0,0,0-.994.323l-3.062,2.132.17-.118a16.7,16.7,0,0,1,4.146.28c3.121.781,5.513,1.211,8.615,4.681,1.365,1.528-.962,4.278,1.528,6.7,2.308,2.243,1.82,8.874,3.121,10.955a96.817,96.817,0,0,0,7.834,9.33c3.9,4.194,8.272,5.15,7.9,8.55-.227,2.081-1.365,1.658-1.365,4.259s3.186,2.568,4.486,6.209.26,5.722,1.561,6.5,4.258-1.04,8.939,0,2.959,6.469,4.454,8.322c1.046,1.3,2.248,1.907,1.4,4.486-.943,2.861,1.722,3.219,4.323,3.479s5.461,3.218,6.242,4.779,4.356.357,5.4,2.828c.768,1.825,4.764-.064,8.322,4.844,1.886,2.6,4.259,2.5,5.364.65.933-1.564,4.064-2.926,5.1-2.926s2.73-1.69,3.348-3.056c.323-.711.294-2.08,1.853-2.34s1.821-1.659,2.341-3.739,5.17-2.568,7.25-1.008a8.267,8.267,0,0,0,6.079,1.268c1.04-.26,2.747.916,5.267.455,3.023-.552,6.079-.618,7.932-1.82,1.876-1.218,5.591.52,5.591,2.34s1.951,5.364,3.512,5.884,4.323,1.788,4.584,3.609.306,6.383,1.4,8.095c2.568,4.031,6.177,3.9,8.777,5.461s1.658,5.592,2.211,7.055c.379,1,5.7,5.219,5.136,8.29-.26,1.43,1.174,5.288.358,7.737-1.752,5.256.1,13.174.246,14.921a1.388,1.388,0,0,0-.369.2,1.352,1.352,0,0,0-.263.289,1.352,1.352,0,0,1,.263-.289,1.316,1.316,0,0,1,.8-.268,1.512,1.512,0,0,1,.26.023,1.769,1.769,0,0,1,1.03.6l1.649,1.91a1.741,1.741,0,0,0,1.333.627,1.784,1.784,0,0,0,.8-.191l2.9-1.429.275,1.516a1.763,1.763,0,0,1,.017.507l-.01.095-.025.092c-.052.182-.169.471-.347.909-.336.823-.844,2.065-.542,2.248a.169.169,0,0,0,.1.034c.474,0,1.646-.992,2.42-1.649l.088-.074c.175-.149.315-.266.4-.328l5.3-3.874.209-.567.956.168a2.105,2.105,0,0,1,.825.389,2.382,2.382,0,0,1,.379.364c.237.261.455.477.734.477a.716.716,0,0,0,.134-.014,2.631,2.631,0,0,0,1.271-.978c.311-.473.221-1.06-.293-1.9l-2.959-4.858a1.806,1.806,0,0,1,.455-2.392l2.731-2.062a1.71,1.71,0,0,1,.764-.337l2.1-.387a1.687,1.687,0,0,0,.931-.487l2.8-2.785a1.788,1.788,0,0,1,1.265-.533,1.819,1.819,0,0,1,.692.138l3.161,1.276a1.691,1.691,0,0,0,.624.129l3.185.074a1.746,1.746,0,0,1,.6.116l4.524,1.7a1.7,1.7,0,0,0,.611.117,1.785,1.785,0,0,0,.363-.038l4.985-1a1.647,1.647,0,0,1,.344-.034l.088,0,6.217.4c.042,0,.084,0,.125,0a1.733,1.733,0,0,0,1.4-.69l1.162-1.5a1.764,1.764,0,0,1,1.36-.7l9.584-.379a1.73,1.73,0,0,0,1.342-.695l.585-.763a1.768,1.768,0,0,1,1.372-.706h.069a1.771,1.771,0,0,1,1.339.593l2.269,2.5a1.745,1.745,0,0,0,1.3.586,1.84,1.84,0,0,0,.457-.059l3-.762a1.9,1.9,0,0,1,.462-.059,1.753,1.753,0,0,1,1.037.342l5.39,3.853a1.726,1.726,0,0,0,1.036.331l4.79-.171a1.74,1.74,0,0,1,.77.174l3.779,1.788a1.768,1.768,0,0,1,1.012,1.338l.785,4.661.009.1c.131.18.717.4,2.763.4.309,0,.566.012.778.03l3.179.266-2.7,1.906c-1.31.924-1.751,1.235-1.319,2.712l.05.173a4.827,4.827,0,0,0,1.622,2.953,2.135,2.135,0,0,0,1.392.653,4.837,4.837,0,0,0,2.583-1.344,3.75,3.75,0,0,1,2.266-.964h1.319l-.165,1.309a3.451,3.451,0,0,1-.453,1.223c-.174.306-.343.594-.52.9-1.512,2.59-1.6,3.3-.512,4.011.755.491,1.423,1.013,2.012,1.473.28.22.539.423.778.6a1.814,1.814,0,0,0,1.055.477,1.862,1.862,0,0,0,.675-.153l2.914-1.156a1.764,1.764,0,0,1,.659-.132,1.885,1.885,0,0,1,.462.061l4.225,1.09a1.761,1.761,0,0,1,.876.523l8.687,9.374a1.74,1.74,0,0,0,1.284.574,1.864,1.864,0,0,0,.465-.06l2-.515a1.9,1.9,0,0,1,.472-.063,1.761,1.761,0,0,1,.97.3l1.73,1.122a1.707,1.707,0,0,0,.87.284l4.314.237a1.758,1.758,0,0,1,1.093.447l3.788,3.32a1.784,1.784,0,0,0,2.437-.087l.73-.737a1.787,1.787,0,0,1,1.274-.543,1.824,1.824,0,0,1,.531.08v-.751c0-2.537-.01-10.68-.01-13.772a67.785,67.785,0,0,0-.713-10.813,27.464,27.464,0,0,1-.027-7.647,22.4,22.4,0,0,0,.207-2.783c0-3.045-.088-3.531-.948-5.192a18.59,18.59,0,0,1-1.2-3.628c-.321-1.205-.683-2.571-1.222-4.155-.3-.871-.7-1.894-1.124-2.977-1.356-3.451-3.043-7.746-3.066-11.351-.022-3.535.407-4.318,1.231-5.5a12.436,12.436,0,0,0,.7-1.1c1.194-2.135,1.426-2.366,4.135-4.106,1.9-1.222,3.038-3.1,4.608-5.692.727-1.2,1.549-2.56,2.579-4.046,3.146-4.541.523-7.245-1.394-9.219a97.8,97.8,0,0,0-10.009-8.079c-1.663-1.2-2.469-2.311-2.537-3.495-.074-1.274.746-2.676,2.506-4.287,1.211-1.109,2.274-1.848,3.522-1.848a6.279,6.279,0,0,1,2.694.858c.489.233,1.043.5,1.676.749a6.3,6.3,0,0,0,2.316.48,3.707,3.707,0,0,0,2.211-.661,2.419,2.419,0,0,0,1.035-2.178c-.093-1.325-.674-1.924-1.947-3.238-.762-.786-1.711-1.764-2.952-3.289-3-3.685.96-7.506,3.579-10.035l.046-.044c.31-.3.6-.582.863-.846.316-.32.608-.628.889-.924,1.88-1.979,3.239-3.409,7.441-3.747,4.756-.381,7.249-5.576,8.591-8.371l.042-.087c1.365-2.845,3.265-4.322,6.144-6.56l.4-.309c3.716-2.894,4.005-6.11,4.005-7.028a7.012,7.012,0,0,1,.727-3.378l.047-.106c.076-.174.177-.374.3-.605l.024-.047a15.456,15.456,0,0,0,1.728-5.285c.294-2.131,1.475-4.059,2.733-6.111.652-1.063,1.326-2.163,1.905-3.34a17.2,17.2,0,0,0,1.782-8.651,5.738,5.738,0,0,0-3.733-4.235c-1.281-.458-2.532-1.029-3-2.086a2.932,2.932,0,0,1,.138-2.348c1.067-2.544,3.767-4.509,7.857-7.484l1.093-.8c4.338-3.169,7.131-9.179,8.8-12.772l.317-.679c1.3-2.778,2.9-3.213,6.091-4.087.645-.176,1.376-.375,2.18-.617,4.222-1.272,9.27-3.293,11.031-4.942a47.377,47.377,0,0,0,6.206-8.122,10.656,10.656,0,0,0,1.6-6.232c0-2.429-1.772-7.612-3.145-9.854-.809-1.321-1.051-2.36-.72-3.085a2.055,2.055,0,0,1,1.685-1.042,2.784,2.784,0,0,1,.453-.039,4.247,4.247,0,0,1,2.349,1,17.72,17.72,0,0,0,3.71,1.98,7.456,7.456,0,0,0,2.391.588,1.215,1.215,0,0,0,.891-.267c.652-.579.248-2.158.054-2.916a8.287,8.287,0,0,0-2.839-4.021c-.539-.506-1.1-1.028-1.644-1.647-.206-.233-.394-.439-.58-.642-1.465-1.6-1.7-2.064-2.1-5.547a99.3,99.3,0,0,1-.192-11.907l.007-.269c.009-.358.017-.67.021-.928.048-2.428.91-3.29,1.554-3.728.137-.092.3-.205.485-.336.829-.58,2.218-1.552,4.492-2.9,2.726-1.618,3.313-2.221,4.494-4.613,1.086-2.2.013-4.515-2.345-8.019-1.906-2.832-1.737-3.353.384-7.236l.389-.714c2.055-3.785.374-5.113-1.416-6.527-.33-.259-.641-.505-.943-.777-2.13-1.908-1.332-3.5-.418-4.835A31.594,31.594,0,0,1,910.971,1704.388Z" fill="#939385" fill-rule="evenodd"/>
    <text id="GRAND-DUCHÉ_DE_LUXEMBOURG" data-name="GRAND-DUCHÉ
DE LUXEMBOURG" transform="translate(566.313 1735.465)" fill="#fff" font-size="33.836" font-family="BebasNeue-Regular, Bebas Neue" letter-spacing="0.02em"><tspan x="0" y="0">GRAND-DUCH</tspan><tspan y="0" font-family="SegoeUI-Semibold, Segoe UI" font-weight="600">É</tspan><tspan y="0"></tspan><tspan x="0" y="33.77">DE LUXEMBOURG</tspan></text>
    <text id="MINETT_UNESCO_BIOSPHERE" data-name="MINETT
UNESCO
BIOSPHERE" transform="translate(320.031 1918.072)" fill="#9d1915" font-size="33.836" font-family="BebasNeue-Regular, Bebas Neue" letter-spacing="0.02em"><tspan x="0" y="0">MINETT</tspan><tspan x="0" y="34.986">UNESCO</tspan><tspan x="0" y="69.973">BIOSPHERE</tspan></text>
  </g>
</svg>
