<?xml version="1.0" encoding="utf-8"?>
<!-- Generator: Adobe Illustrator 24.2.3, SVG Export Plug-In . SVG Version: 6.00 Build 0)  -->
<svg version="1.1" id="Calque_1" xmlns="http://www.w3.org/2000/svg" xmlns:xlink="http://www.w3.org/1999/xlink" x="0px" y="0px"
	 viewBox="0 0 15 67.9" style="enable-background:new 0 0 15 67.9;" xml:space="preserve">
<style type="text/css">
	.st0{fill:#3A8981;}
</style>
<g>
	<g>
		<path class="st0" d="M10,0l5,8.1V7.2L10.5,0C10.3,0,10.1,0,10,0z"/>
		<polygon class="st0" points="3.5,67.9 0,62.2 0,63.2 2.9,67.9 		"/>
		<polygon class="st0" points="7.6,67.9 0,55.6 0,56.5 7,67.9 		"/>
		<polygon class="st0" points="11.7,67.9 0,49 0,49.9 11.1,67.9 		"/>
		<polygon class="st0" points="0,43.3 15,67.6 15,66.7 0,42.4 		"/>
		<polygon class="st0" points="0,36.7 15,61 15,60 0,35.8 		"/>
		<polygon class="st0" points="0,30.1 15,54.4 15,53.4 0,29.2 		"/>
		<polygon class="st0" points="0,23.5 15,47.8 15,46.8 0,22.6 		"/>
		<polygon class="st0" points="0,16.9 15,41.2 15,40.2 0,15.9 		"/>
		<polygon class="st0" points="0,10.3 15,34.6 15,33.6 0,9.3 		"/>
		<polygon class="st0" points="0,3.7 15,28 15,27 0,2.7 		"/>
		<path class="st0" d="M1.8,0.1L15,21.4v-1L2.4,0.1C2.2,0.1,2,0.1,1.8,0.1z"/>
		<path class="st0" d="M5.9,0L15,14.7v-0.9L6.5,0C6.3,0,6.1,0,5.9,0z"/>
	</g>
</g>
</svg>
