<?xml version="1.0" encoding="utf-8"?>
<!-- Generator: Adobe Illustrator 24.2.3, SVG Export Plug-In . SVG Version: 6.00 Build 0)  -->
<svg version="1.1" xmlns="http://www.w3.org/2000/svg" xmlns:xlink="http://www.w3.org/1999/xlink" x="0px" y="0px" width="129.6px"
	 height="70px" viewBox="0 0 129.6 70" style="enable-background:new 0 0 129.6 70;" xml:space="preserve">
<style type="text/css">
	.st0{fill:#FFFFFF;}
</style>
<g id="Calque_1">
</g>
<g id="Mode_Isolation">
	<g>
		<g>
			<path class="st0" d="M56.2,0.5c0,0.3-0.2,0.5-0.5,0.5c-0.3,0-0.5-0.2-0.5-0.5c0-0.3,0.2-0.5,0.5-0.5C55.9,0,56.2,0.2,56.2,0.5"/>
			<path class="st0" d="M56.2,2.5c0,0.3-0.2,0.5-0.5,0.5c-0.3,0-0.5-0.2-0.5-0.5c0-0.3,0.2-0.5,0.5-0.5C55.9,1.9,56.2,2.2,56.2,2.5"
				/>
			<path class="st0" d="M56.2,4.6c0,0.3-0.2,0.5-0.5,0.5c-0.3,0-0.5-0.2-0.5-0.5c0-0.3,0.2-0.5,0.5-0.5C55.9,4.1,56.2,4.3,56.2,4.6"
				/>
			<path class="st0" d="M56.2,6.7c0,0.3-0.2,0.5-0.5,0.5c-0.3,0-0.5-0.2-0.5-0.5c0-0.3,0.2-0.5,0.5-0.5C55.9,6.2,56.2,6.4,56.2,6.7"
				/>
			<path class="st0" d="M56.2,9c0,0.3-0.2,0.5-0.5,0.5c-0.3,0-0.5-0.2-0.5-0.5c0-0.3,0.2-0.5,0.5-0.5C55.9,8.4,56.2,8.7,56.2,9"/>
			<path class="st0" d="M56.2,11.2c0,0.3-0.2,0.5-0.5,0.5c-0.3,0-0.5-0.2-0.5-0.5c0-0.3,0.2-0.5,0.5-0.5
				C55.9,10.7,56.2,10.9,56.2,11.2"/>
			<path class="st0" d="M56.2,13.6c0,0.3-0.2,0.5-0.5,0.5c-0.3,0-0.5-0.2-0.5-0.5c0-0.3,0.2-0.5,0.5-0.5
				C55.9,13,56.2,13.3,56.2,13.6"/>
			<path class="st0" d="M56.2,15.9c0,0.3-0.2,0.5-0.5,0.5c-0.3,0-0.5-0.2-0.5-0.5c0-0.3,0.2-0.5,0.5-0.5
				C55.9,15.4,56.2,15.6,56.2,15.9"/>
			<path class="st0" d="M56.2,18.5c0,0.3-0.2,0.5-0.5,0.5c-0.3,0-0.5-0.2-0.5-0.5c0-0.3,0.2-0.5,0.5-0.5
				C55.9,17.9,56.2,18.1,56.2,18.5"/>
			<path class="st0" d="M56.2,21c0,0.3-0.2,0.5-0.5,0.5c-0.3,0-0.5-0.2-0.5-0.5c0-0.3,0.2-0.5,0.5-0.5C55.9,20.4,56.2,20.7,56.2,21"
				/>
			<path class="st0" d="M56.2,23.6c0,0.3-0.2,0.5-0.5,0.5c-0.3,0-0.5-0.2-0.5-0.5c0-0.3,0.2-0.5,0.5-0.5
				C55.9,23.1,56.2,23.3,56.2,23.6"/>
			<path class="st0" d="M56.2,26.4c0,0.3-0.2,0.5-0.5,0.5c-0.3,0-0.5-0.2-0.5-0.5c0-0.3,0.2-0.5,0.5-0.5
				C55.9,25.8,56.2,26.1,56.2,26.4"/>
			<path class="st0" d="M56.2,29.2c0,0.3-0.2,0.5-0.5,0.5c-0.3,0-0.5-0.2-0.5-0.5c0-0.3,0.2-0.5,0.5-0.5
				C55.9,28.7,56.2,28.9,56.2,29.2"/>
			<path class="st0" d="M56.2,32.5c0,0.3-0.2,0.5-0.5,0.5c-0.3,0-0.5-0.2-0.5-0.5c0-0.3,0.2-0.5,0.5-0.5
				C55.9,31.9,56.2,32.2,56.2,32.5"/>
			<path class="st0" d="M56.2,36c0,0.3-0.2,0.5-0.5,0.5c-0.3,0-0.5-0.2-0.5-0.5c0-0.3,0.2-0.5,0.5-0.5C55.9,35.5,56.2,35.7,56.2,36"
				/>
			<path class="st0" d="M56.2,40.3c0,0.3-0.2,0.5-0.5,0.5c-0.3,0-0.5-0.2-0.5-0.5c0-0.3,0.2-0.5,0.5-0.5
				C55.9,39.7,56.2,39.9,56.2,40.3"/>
			<path class="st0" d="M56.2,44.8c0,0.3-0.2,0.5-0.5,0.5c-0.3,0-0.5-0.2-0.5-0.5c0-0.3,0.2-0.5,0.5-0.5
				C55.9,44.2,56.2,44.5,56.2,44.8"/>
			<path class="st0" d="M56.2,50c0,0.3-0.2,0.5-0.5,0.5c-0.3,0-0.5-0.2-0.5-0.5c0-0.3,0.2-0.5,0.5-0.5C55.9,49.4,56.2,49.7,56.2,50"
				/>
			<path class="st0" d="M56.2,55.8c0,0.3-0.2,0.5-0.5,0.5c-0.3,0-0.5-0.2-0.5-0.5c0-0.3,0.2-0.5,0.5-0.5
				C55.9,55.3,56.2,55.5,56.2,55.8"/>
			<path class="st0" d="M56.2,62.3c0,0.3-0.2,0.5-0.5,0.5c-0.3,0-0.5-0.2-0.5-0.5c0-0.3,0.2-0.5,0.5-0.5
				C55.9,61.8,56.2,62,56.2,62.3"/>
			<path class="st0" d="M56.2,69.5c0,0.3-0.2,0.5-0.5,0.5c-0.3,0-0.5-0.2-0.5-0.5c0-0.3,0.2-0.5,0.5-0.5
				C55.9,68.9,56.2,69.2,56.2,69.5"/>
			<rect x="14.1" y="30.2" class="st0" width="32.1" height="1.3"/>
			<rect x="12.3" y="32.5" class="st0" width="35.7" height="1.3"/>
			<rect x="10.6" y="34.8" class="st0" width="39.1" height="1.3"/>
			<rect x="14.1" y="13.2" class="st0" width="32.1" height="1.3"/>
			<polygon class="st0" points="20.6,12.4 30.1,9.5 39.5,12.4 43.4,12.4 30.1,8.3 16.7,12.4 			"/>
			<polygon class="st0" points="14.1,12.4 30,7.5 46.2,12.4 46.2,10.9 30.1,6 14.1,10.9 			"/>
			<path class="st0" d="M16,28.4c0,0,0,1,1.1,1c1.1,0,1.1-1,1.1-1V15.4h-0.8v13.1c0,0,0,0.2-0.3,0.2c-0.3,0-0.2-0.3-0.2-0.3v-13H16
				V28.4z"/>
			<polygon class="st0" points="21.2,29.5 21.9,29.5 21.9,21 22.7,29.5 23.5,29.5 23.5,15.4 22.7,15.4 22.7,22.9 21.9,15.4 
				21.2,15.4 			"/>
			<polygon class="st0" points="26.6,29.5 28.7,29.5 28.7,28.7 27.5,28.7 27.5,22.4 28.4,22.4 28.4,21.6 27.5,21.6 27.5,16.1 
				28.4,16.1 28.4,15.4 26.6,15.4 			"/>
			<path class="st0" d="M39,19.6v-3.2c0,0,0-1-1.1-1c-1.1,0-1.1,1-1.1,1v12c0,0,0,1,1.1,1c1.1,0,1.1-1,1.1-1v-3.5h-0.8v3.5
				c0,0,0,0.3-0.3,0.3c-0.3,0-0.3-0.3-0.3-0.3v-12c0,0,0-0.3,0.3-0.3c0.3,0,0.3,0.3,0.3,0.3v3.2H39z"/>
			<path class="st0" d="M44.3,16.4c0,0,0.1-1-1.1-1c-1.2,0-1.2,1-1.2,1v12c0,0,0,1,1.1,1c1.2,0,1.2-1,1.2-1V16.4z M43.5,28.4
				c0,0,0,0.3-0.3,0.3c-0.3,0-0.3-0.3-0.3-0.3v-12c0,0,0-0.3,0.3-0.3c0.3,0,0.3,0.3,0.3,0.3V28.4z"/>
			<path class="st0" d="M32.8,28.4c0,0,0,0.3-0.2,0.3c-0.2,0-0.2-0.3-0.2-0.3v-3.5h-0.9v3.5c0,0,0,1,1.1,1c1.1,0,1.1-1,1.1-1
				s0-2.4,0-3c0-1.7-1.3-4.8-1.3-5.8v-3.2c0,0,0-0.3,0.2-0.3c0.2,0,0.2,0.3,0.2,0.3v3.2h0.9v-3.2c0,0,0-1-1.1-1c-1.1,0-1.1,1-1.1,1
				v2.7c0,1.8,1.3,4.7,1.3,6.1V28.4z"/>
		</g>
		<g>
			<path class="st0" d="M64.6,49.7l0.5,0.1c-0.1,0.4-0.3,0.7-0.5,0.9c-0.3,0.2-0.6,0.3-1,0.3c-0.4,0-0.7-0.1-1-0.2
				c-0.2-0.2-0.4-0.4-0.6-0.7c-0.1-0.3-0.2-0.6-0.2-1c0-0.4,0.1-0.7,0.2-1c0.1-0.3,0.4-0.5,0.6-0.6c0.3-0.1,0.6-0.2,0.9-0.2
				c0.4,0,0.7,0.1,0.9,0.3c0.2,0.2,0.4,0.4,0.5,0.8l-0.5,0.1c-0.1-0.3-0.2-0.5-0.4-0.6c-0.2-0.1-0.4-0.2-0.6-0.2
				c-0.3,0-0.5,0.1-0.7,0.2s-0.3,0.3-0.4,0.5c-0.1,0.2-0.1,0.5-0.1,0.7c0,0.3,0,0.6,0.1,0.8c0.1,0.2,0.2,0.4,0.4,0.5
				c0.2,0.1,0.4,0.2,0.6,0.2c0.3,0,0.5-0.1,0.7-0.2C64.4,50.2,64.5,50,64.6,49.7z"/>
			<path class="st0" d="M65.4,49.6c0-0.5,0.1-0.9,0.4-1.1c0.2-0.2,0.5-0.3,0.8-0.3c0.4,0,0.7,0.1,0.9,0.4c0.2,0.2,0.3,0.6,0.3,1
				c0,0.3-0.1,0.6-0.2,0.8c-0.1,0.2-0.3,0.3-0.4,0.5C67.1,51,66.9,51,66.7,51c-0.4,0-0.7-0.1-0.9-0.4C65.5,50.4,65.4,50.1,65.4,49.6
				z M65.9,49.6c0,0.3,0.1,0.6,0.2,0.8c0.1,0.2,0.3,0.3,0.6,0.3c0.2,0,0.4-0.1,0.6-0.3c0.1-0.2,0.2-0.4,0.2-0.8
				c0-0.3-0.1-0.6-0.2-0.7s-0.3-0.3-0.6-0.3c-0.2,0-0.4,0.1-0.6,0.3C66,49,65.9,49.3,65.9,49.6z"/>
			<path class="st0" d="M68.4,50.9v-2.6h0.4v0.4c0.1-0.1,0.2-0.2,0.3-0.3c0.1-0.1,0.3-0.1,0.5-0.1c0.2,0,0.4,0,0.5,0.1
				c0.1,0.1,0.2,0.2,0.3,0.3c0.2-0.3,0.5-0.5,0.8-0.5c0.3,0,0.5,0.1,0.6,0.2s0.2,0.4,0.2,0.7v1.8h-0.4v-1.7c0-0.2,0-0.3,0-0.4
				c0-0.1-0.1-0.1-0.2-0.2c-0.1,0-0.2-0.1-0.3-0.1c-0.2,0-0.3,0.1-0.5,0.2c-0.1,0.1-0.2,0.3-0.2,0.6v1.5H70v-1.7
				c0-0.2,0-0.3-0.1-0.4c-0.1-0.1-0.2-0.1-0.4-0.1c-0.1,0-0.2,0-0.4,0.1c-0.1,0.1-0.2,0.2-0.2,0.3c0,0.1-0.1,0.3-0.1,0.6v1.4H68.4z"
				/>
			<path class="st0" d="M72.7,50.9v-2.6h0.4v0.4c0.1-0.1,0.2-0.2,0.3-0.3c0.1-0.1,0.3-0.1,0.5-0.1c0.2,0,0.4,0,0.5,0.1
				c0.1,0.1,0.2,0.2,0.3,0.3c0.2-0.3,0.5-0.5,0.8-0.5c0.3,0,0.5,0.1,0.6,0.2c0.1,0.1,0.2,0.4,0.2,0.7v1.8h-0.4v-1.7
				c0-0.2,0-0.3,0-0.4c0-0.1-0.1-0.1-0.2-0.2c-0.1,0-0.2-0.1-0.3-0.1c-0.2,0-0.3,0.1-0.5,0.2c-0.1,0.1-0.2,0.3-0.2,0.6v1.5h-0.4
				v-1.7c0-0.2,0-0.3-0.1-0.4c-0.1-0.1-0.2-0.1-0.4-0.1c-0.1,0-0.2,0-0.3,0.1c-0.1,0.1-0.2,0.2-0.2,0.3c0,0.1-0.1,0.3-0.1,0.6v1.4
				H72.7z"/>
			<path class="st0" d="M76.9,47.8v-0.5h0.4v0.5H76.9z M76.9,50.9v-2.6h0.4v2.6H76.9z"/>
			<path class="st0" d="M77.9,50.2l0.4-0.1c0,0.2,0.1,0.3,0.2,0.4c0.1,0.1,0.3,0.1,0.5,0.1c0.2,0,0.4,0,0.5-0.1
				c0.1-0.1,0.1-0.2,0.1-0.3c0-0.1,0-0.2-0.1-0.2c-0.1,0-0.2-0.1-0.5-0.2c-0.3-0.1-0.6-0.2-0.7-0.2c-0.1-0.1-0.2-0.1-0.3-0.3
				c-0.1-0.1-0.1-0.2-0.1-0.4c0-0.1,0-0.2,0.1-0.3c0.1-0.1,0.1-0.2,0.2-0.3c0.1-0.1,0.2-0.1,0.3-0.1c0.1,0,0.2-0.1,0.4-0.1
				c0.2,0,0.4,0,0.5,0.1c0.2,0.1,0.3,0.1,0.3,0.2c0.1,0.1,0.1,0.2,0.2,0.4L79.5,49c0-0.1-0.1-0.2-0.2-0.3c-0.1-0.1-0.2-0.1-0.4-0.1
				c-0.2,0-0.4,0-0.4,0.1c-0.1,0.1-0.1,0.1-0.1,0.2c0,0.1,0,0.1,0.1,0.2c0,0,0.1,0.1,0.2,0.1c0,0,0.2,0.1,0.4,0.1
				c0.3,0.1,0.5,0.2,0.7,0.2c0.1,0.1,0.2,0.1,0.3,0.2c0.1,0.1,0.1,0.2,0.1,0.4c0,0.1,0,0.3-0.1,0.4c-0.1,0.1-0.2,0.2-0.4,0.3
				C79.4,51,79.2,51,79,51c-0.3,0-0.6-0.1-0.8-0.2C78,50.6,77.9,50.4,77.9,50.2z"/>
			<path class="st0" d="M80.4,50.2l0.4-0.1c0,0.2,0.1,0.3,0.2,0.4c0.1,0.1,0.3,0.1,0.5,0.1c0.2,0,0.4,0,0.5-0.1
				c0.1-0.1,0.1-0.2,0.1-0.3c0-0.1,0-0.2-0.1-0.2c-0.1,0-0.2-0.1-0.5-0.2c-0.3-0.1-0.6-0.2-0.7-0.2c-0.1-0.1-0.2-0.1-0.3-0.3
				c-0.1-0.1-0.1-0.2-0.1-0.4c0-0.1,0-0.2,0.1-0.3c0.1-0.1,0.1-0.2,0.2-0.3c0.1-0.1,0.2-0.1,0.3-0.1c0.1,0,0.2-0.1,0.4-0.1
				c0.2,0,0.4,0,0.5,0.1c0.2,0.1,0.3,0.1,0.3,0.2c0.1,0.1,0.1,0.2,0.2,0.4L82.1,49c0-0.1-0.1-0.2-0.2-0.3c-0.1-0.1-0.2-0.1-0.4-0.1
				c-0.2,0-0.4,0-0.4,0.1c-0.1,0.1-0.1,0.1-0.1,0.2c0,0.1,0,0.1,0.1,0.2c0,0,0.1,0.1,0.2,0.1c0,0,0.2,0.1,0.4,0.1
				c0.3,0.1,0.5,0.2,0.7,0.2c0.1,0.1,0.2,0.1,0.3,0.2c0.1,0.1,0.1,0.2,0.1,0.4c0,0.1,0,0.3-0.1,0.4c-0.1,0.1-0.2,0.2-0.4,0.3
				C81.9,51,81.8,51,81.5,51c-0.3,0-0.6-0.1-0.8-0.2C80.6,50.6,80.5,50.4,80.4,50.2z"/>
			<path class="st0" d="M83.1,47.8v-0.5h0.4v0.5H83.1z M83.1,50.9v-2.6h0.4v2.6H83.1z"/>
			<path class="st0" d="M84.1,49.6c0-0.5,0.1-0.9,0.4-1.1c0.2-0.2,0.5-0.3,0.8-0.3c0.4,0,0.7,0.1,0.9,0.4c0.2,0.2,0.3,0.6,0.3,1
				c0,0.3-0.1,0.6-0.2,0.8c-0.1,0.2-0.3,0.3-0.4,0.5C85.8,51,85.6,51,85.3,51c-0.4,0-0.7-0.1-0.9-0.4C84.2,50.4,84.1,50.1,84.1,49.6
				z M84.6,49.6c0,0.3,0.1,0.6,0.2,0.8c0.1,0.2,0.3,0.3,0.6,0.3c0.2,0,0.4-0.1,0.6-0.3c0.1-0.2,0.2-0.4,0.2-0.8
				c0-0.3-0.1-0.6-0.2-0.7s-0.3-0.3-0.6-0.3c-0.2,0-0.4,0.1-0.6,0.3C84.6,49,84.6,49.3,84.6,49.6z"/>
			<path class="st0" d="M87.1,50.9v-2.6h0.4v0.4c0.2-0.3,0.5-0.4,0.8-0.4c0.2,0,0.3,0,0.4,0.1c0.1,0.1,0.2,0.1,0.3,0.2
				c0.1,0.1,0.1,0.2,0.1,0.3c0,0.1,0,0.2,0,0.4v1.6h-0.4v-1.6c0-0.2,0-0.3-0.1-0.4c0-0.1-0.1-0.2-0.2-0.2s-0.2-0.1-0.3-0.1
				c-0.2,0-0.4,0.1-0.5,0.2c-0.1,0.1-0.2,0.4-0.2,0.7v1.4H87.1z"/>
			<path class="st0" d="M91.4,50.9v-3.6h0.4v3.6H91.4z"/>
			<path class="st0" d="M94.2,50.9v-0.4C94,50.9,93.7,51,93.4,51c-0.2,0-0.3,0-0.4-0.1c-0.1-0.1-0.2-0.1-0.3-0.2
				c-0.1-0.1-0.1-0.2-0.1-0.3c0-0.1,0-0.2,0-0.4v-1.6h0.4v1.5c0,0.2,0,0.4,0,0.5c0,0.1,0.1,0.2,0.2,0.3c0.1,0.1,0.2,0.1,0.3,0.1
				c0.1,0,0.3,0,0.4-0.1c0.1-0.1,0.2-0.2,0.2-0.3c0-0.1,0.1-0.3,0.1-0.5v-1.4h0.4v2.6H94.2z"/>
			<path class="st0" d="M95,50.9l1-1.4l-0.9-1.3h0.6l0.4,0.6c0.1,0.1,0.1,0.2,0.2,0.3c0.1-0.1,0.1-0.2,0.2-0.3l0.4-0.6h0.5l-0.9,1.2
				l1,1.4H97l-0.5-0.8l-0.1-0.2l-0.7,1H95z"/>
			<path class="st0" d="M99.7,50.1l0.5,0.1c-0.1,0.3-0.2,0.5-0.4,0.6C99.5,50.9,99.3,51,99,51c-0.4,0-0.7-0.1-0.9-0.4
				c-0.2-0.2-0.3-0.6-0.3-1c0-0.4,0.1-0.8,0.3-1s0.5-0.4,0.9-0.4c0.4,0,0.6,0.1,0.9,0.4c0.2,0.2,0.3,0.6,0.3,1c0,0,0,0.1,0,0.1h-2
				c0,0.3,0.1,0.5,0.2,0.7c0.1,0.2,0.3,0.2,0.6,0.2c0.2,0,0.3,0,0.4-0.1S99.6,50.3,99.7,50.1z M98.2,49.4h1.5c0-0.2-0.1-0.4-0.2-0.5
				c-0.1-0.2-0.3-0.3-0.6-0.3c-0.2,0-0.4,0.1-0.5,0.2C98.3,49,98.2,49.1,98.2,49.4z"/>
			<path class="st0" d="M100.7,50.9v-2.6h0.4v0.4c0.1-0.1,0.2-0.2,0.3-0.3c0.1-0.1,0.3-0.1,0.5-0.1c0.2,0,0.4,0,0.5,0.1
				c0.1,0.1,0.2,0.2,0.3,0.3c0.2-0.3,0.5-0.5,0.8-0.5c0.3,0,0.5,0.1,0.6,0.2c0.1,0.1,0.2,0.4,0.2,0.7v1.8h-0.4v-1.7
				c0-0.2,0-0.3,0-0.4c0-0.1-0.1-0.1-0.2-0.2c-0.1,0-0.2-0.1-0.3-0.1c-0.2,0-0.3,0.1-0.5,0.2c-0.1,0.1-0.2,0.3-0.2,0.6v1.5h-0.4
				v-1.7c0-0.2,0-0.3-0.1-0.4c-0.1-0.1-0.2-0.1-0.4-0.1c-0.1,0-0.2,0-0.3,0.1c-0.1,0.1-0.2,0.2-0.2,0.3c0,0.1-0.1,0.3-0.1,0.6v1.4
				H100.7z"/>
			<path class="st0" d="M105.4,50.9H105v-3.6h0.4v1.3c0.2-0.2,0.4-0.4,0.7-0.4c0.2,0,0.3,0,0.5,0.1c0.1,0.1,0.3,0.2,0.4,0.3
				c0.1,0.1,0.2,0.3,0.2,0.4c0.1,0.2,0.1,0.3,0.1,0.5c0,0.5-0.1,0.8-0.3,1c-0.2,0.2-0.5,0.4-0.8,0.4c-0.3,0-0.6-0.1-0.7-0.4V50.9z
				 M105.4,49.6c0,0.3,0,0.5,0.1,0.7c0.1,0.2,0.3,0.3,0.6,0.3c0.2,0,0.4-0.1,0.5-0.3c0.1-0.2,0.2-0.4,0.2-0.8c0-0.3-0.1-0.6-0.2-0.8
				c-0.1-0.2-0.3-0.2-0.5-0.2c-0.2,0-0.4,0.1-0.5,0.3C105.4,49,105.4,49.3,105.4,49.6z"/>
			<path class="st0" d="M107.6,49.6c0-0.5,0.1-0.9,0.4-1.1c0.2-0.2,0.5-0.3,0.8-0.3c0.4,0,0.7,0.1,0.9,0.4c0.2,0.2,0.3,0.6,0.3,1
				c0,0.3-0.1,0.6-0.2,0.8c-0.1,0.2-0.3,0.3-0.4,0.5c-0.2,0.1-0.4,0.2-0.6,0.2c-0.4,0-0.7-0.1-0.9-0.4
				C107.7,50.4,107.6,50.1,107.6,49.6z M108.1,49.6c0,0.3,0.1,0.6,0.2,0.8c0.1,0.2,0.3,0.3,0.6,0.3c0.2,0,0.4-0.1,0.6-0.3
				c0.1-0.2,0.2-0.4,0.2-0.8c0-0.3-0.1-0.6-0.2-0.7s-0.3-0.3-0.6-0.3c-0.2,0-0.4,0.1-0.6,0.3C108.2,49,108.1,49.3,108.1,49.6z"/>
			<path class="st0" d="M112.4,50.9v-0.4c-0.2,0.3-0.5,0.4-0.8,0.4c-0.2,0-0.3,0-0.4-0.1c-0.1-0.1-0.2-0.1-0.3-0.2
				c-0.1-0.1-0.1-0.2-0.1-0.3c0-0.1,0-0.2,0-0.4v-1.6h0.4v1.5c0,0.2,0,0.4,0,0.5c0,0.1,0.1,0.2,0.2,0.3c0.1,0.1,0.2,0.1,0.3,0.1
				c0.1,0,0.3,0,0.4-0.1c0.1-0.1,0.2-0.2,0.3-0.3c0-0.1,0.1-0.3,0.1-0.5v-1.4h0.4v2.6H112.4z"/>
			<path class="st0" d="M113.5,50.9v-2.6h0.4v0.4c0.1-0.2,0.2-0.3,0.3-0.4c0.1-0.1,0.2-0.1,0.3-0.1c0.2,0,0.3,0,0.5,0.1l-0.2,0.4
				c-0.1-0.1-0.2-0.1-0.3-0.1c-0.1,0-0.2,0-0.3,0.1c-0.1,0.1-0.1,0.1-0.2,0.2c0,0.2-0.1,0.3-0.1,0.5v1.4H113.5z"/>
			<path class="st0" d="M115.1,51.2l0.4,0.1c0,0.1,0.1,0.2,0.2,0.3c0.1,0.1,0.3,0.1,0.5,0.1c0.2,0,0.4,0,0.5-0.1
				c0.1-0.1,0.2-0.2,0.2-0.3c0-0.1,0-0.3,0-0.6c-0.2,0.2-0.4,0.3-0.7,0.3c-0.4,0-0.6-0.1-0.8-0.4c-0.2-0.3-0.3-0.6-0.3-0.9
				c0-0.3,0-0.5,0.1-0.7c0.1-0.2,0.2-0.4,0.4-0.5c0.2-0.1,0.4-0.2,0.6-0.2c0.3,0,0.6,0.1,0.8,0.4v-0.3h0.4v2.3c0,0.4,0,0.7-0.1,0.9
				c-0.1,0.2-0.2,0.3-0.4,0.4c-0.2,0.1-0.4,0.1-0.7,0.1c-0.3,0-0.6-0.1-0.8-0.2C115.2,51.7,115.1,51.4,115.1,51.2z M115.5,49.6
				c0,0.3,0.1,0.6,0.2,0.8c0.1,0.2,0.3,0.2,0.5,0.2c0.2,0,0.4-0.1,0.5-0.2c0.1-0.2,0.2-0.4,0.2-0.7c0-0.3-0.1-0.6-0.2-0.7
				c-0.1-0.2-0.3-0.2-0.5-0.2c-0.2,0-0.4,0.1-0.5,0.2C115.5,49,115.5,49.3,115.5,49.6z"/>
			<path class="st0" d="M119.8,50.1l0.5,0.1c-0.1,0.3-0.2,0.5-0.4,0.6c-0.2,0.1-0.4,0.2-0.8,0.2c-0.4,0-0.7-0.1-0.9-0.4
				c-0.2-0.2-0.3-0.6-0.3-1c0-0.4,0.1-0.8,0.3-1s0.5-0.4,0.9-0.4c0.4,0,0.6,0.1,0.9,0.4c0.2,0.2,0.3,0.6,0.3,1c0,0,0,0.1,0,0.1h-2
				c0,0.3,0.1,0.5,0.2,0.7c0.1,0.2,0.3,0.2,0.6,0.2c0.2,0,0.3,0,0.4-0.1S119.7,50.3,119.8,50.1z M118.3,49.4h1.5
				c0-0.2-0.1-0.4-0.2-0.5c-0.1-0.2-0.3-0.3-0.6-0.3c-0.2,0-0.4,0.1-0.5,0.2C118.4,49,118.4,49.1,118.3,49.4z"/>
			<path class="st0" d="M120.7,49.6c0-0.5,0.1-0.9,0.4-1.1c0.2-0.2,0.5-0.3,0.8-0.3c0.4,0,0.7,0.1,0.9,0.4c0.2,0.2,0.3,0.6,0.3,1
				c0,0.3-0.1,0.6-0.2,0.8c-0.1,0.2-0.3,0.3-0.4,0.5c-0.2,0.1-0.4,0.2-0.6,0.2c-0.4,0-0.7-0.1-0.9-0.4
				C120.8,50.4,120.7,50.1,120.7,49.6z M121.1,49.6c0,0.3,0.1,0.6,0.2,0.8s0.3,0.3,0.6,0.3c0.2,0,0.4-0.1,0.6-0.3
				c0.1-0.2,0.2-0.4,0.2-0.8c0-0.3-0.1-0.6-0.2-0.7s-0.3-0.3-0.6-0.3c-0.2,0-0.4,0.1-0.6,0.3S121.1,49.3,121.1,49.6z"/>
			<path class="st0" d="M123.7,47.8v-0.5h0.4v0.5H123.7z M123.7,50.9v-2.6h0.4v2.6H123.7z"/>
			<path class="st0" d="M124.6,50.2l0.4-0.1c0,0.2,0.1,0.3,0.2,0.4c0.1,0.1,0.3,0.1,0.5,0.1c0.2,0,0.4,0,0.5-0.1
				c0.1-0.1,0.1-0.2,0.1-0.3c0-0.1,0-0.2-0.1-0.2c-0.1,0-0.2-0.1-0.5-0.2c-0.3-0.1-0.6-0.2-0.7-0.2c-0.1-0.1-0.2-0.1-0.3-0.3
				c-0.1-0.1-0.1-0.2-0.1-0.4c0-0.1,0-0.2,0.1-0.3c0.1-0.1,0.1-0.2,0.2-0.3c0.1-0.1,0.2-0.1,0.3-0.1c0.1,0,0.2-0.1,0.4-0.1
				c0.2,0,0.4,0,0.5,0.1c0.2,0.1,0.3,0.1,0.3,0.2c0.1,0.1,0.1,0.2,0.2,0.4l-0.4,0.1c0-0.1-0.1-0.2-0.2-0.3c-0.1-0.1-0.2-0.1-0.4-0.1
				c-0.2,0-0.4,0-0.4,0.1c-0.1,0.1-0.1,0.1-0.1,0.2c0,0.1,0,0.1,0.1,0.2c0,0,0.1,0.1,0.2,0.1c0,0,0.2,0.1,0.4,0.1
				c0.3,0.1,0.5,0.2,0.7,0.2c0.1,0.1,0.2,0.1,0.3,0.2c0.1,0.1,0.1,0.2,0.1,0.4c0,0.1,0,0.3-0.1,0.4c-0.1,0.1-0.2,0.2-0.4,0.3
				c-0.2,0.1-0.4,0.1-0.6,0.1c-0.3,0-0.6-0.1-0.8-0.2C124.8,50.6,124.7,50.4,124.6,50.2z"/>
			<path class="st0" d="M129.2,50.1l0.5,0.1c-0.1,0.3-0.2,0.5-0.4,0.6c-0.2,0.1-0.4,0.2-0.8,0.2c-0.4,0-0.7-0.1-0.9-0.4
				c-0.2-0.2-0.3-0.6-0.3-1c0-0.4,0.1-0.8,0.3-1s0.5-0.4,0.9-0.4c0.4,0,0.6,0.1,0.9,0.4c0.2,0.2,0.3,0.6,0.3,1c0,0,0,0.1,0,0.1h-2
				c0,0.3,0.1,0.5,0.2,0.7c0.1,0.2,0.3,0.2,0.6,0.2c0.2,0,0.3,0,0.4-0.1C129,50.4,129.1,50.3,129.2,50.1z M127.7,49.4h1.5
				c0-0.2-0.1-0.4-0.2-0.5c-0.1-0.2-0.3-0.3-0.6-0.3c-0.2,0-0.4,0.1-0.5,0.2C127.8,49,127.7,49.1,127.7,49.4z"/>
		</g>
		<g>
			<path class="st0" d="M61.9,57.5v-3.7h0.4v0.3c0.1-0.1,0.2-0.2,0.3-0.3c0.1-0.1,0.3-0.1,0.4-0.1c0.2,0,0.4,0.1,0.6,0.2
				c0.2,0.1,0.3,0.3,0.4,0.5c0.1,0.2,0.1,0.4,0.1,0.7c0,0.3,0,0.5-0.1,0.7c-0.1,0.2-0.2,0.4-0.4,0.5c-0.2,0.1-0.4,0.2-0.6,0.2
				c-0.1,0-0.3,0-0.4-0.1s-0.2-0.1-0.3-0.2v1.3H61.9z M62.3,55.2c0,0.3,0.1,0.6,0.2,0.8c0.1,0.2,0.3,0.2,0.5,0.2
				c0.2,0,0.4-0.1,0.5-0.3c0.1-0.2,0.2-0.4,0.2-0.8c0-0.3-0.1-0.6-0.2-0.8c-0.1-0.2-0.3-0.3-0.5-0.3c-0.2,0-0.4,0.1-0.5,0.3
				C62.4,54.6,62.3,54.9,62.3,55.2z"/>
			<path class="st0" d="M64.6,55.2c0-0.5,0.1-0.9,0.4-1.1c0.2-0.2,0.5-0.3,0.8-0.3c0.4,0,0.7,0.1,0.9,0.4c0.2,0.2,0.3,0.6,0.3,1
				c0,0.3-0.1,0.6-0.2,0.8s-0.3,0.3-0.4,0.5c-0.2,0.1-0.4,0.2-0.6,0.2c-0.4,0-0.7-0.1-0.9-0.4C64.7,56,64.6,55.6,64.6,55.2z
				 M65,55.2c0,0.3,0.1,0.6,0.2,0.8c0.1,0.2,0.3,0.3,0.6,0.3c0.2,0,0.4-0.1,0.6-0.3c0.1-0.2,0.2-0.4,0.2-0.8c0-0.3-0.1-0.6-0.2-0.7
				s-0.3-0.3-0.6-0.3c-0.2,0-0.4,0.1-0.6,0.3C65.1,54.6,65,54.8,65,55.2z"/>
			<path class="st0" d="M69.3,56.5v-0.4c-0.2,0.3-0.5,0.4-0.8,0.4c-0.2,0-0.3,0-0.4-0.1c-0.1-0.1-0.2-0.1-0.3-0.2
				c-0.1-0.1-0.1-0.2-0.1-0.3c0-0.1,0-0.2,0-0.4v-1.6H68v1.5c0,0.2,0,0.4,0,0.5c0,0.1,0.1,0.2,0.2,0.3c0.1,0.1,0.2,0.1,0.3,0.1
				c0.1,0,0.3,0,0.4-0.1s0.2-0.2,0.2-0.3c0-0.1,0.1-0.3,0.1-0.5v-1.4h0.4v2.6H69.3z"/>
			<path class="st0" d="M70.4,56.5v-2.6h0.4v0.4c0.1-0.2,0.2-0.3,0.3-0.4c0.1-0.1,0.2-0.1,0.3-0.1c0.2,0,0.3,0,0.5,0.1l-0.2,0.4
				c-0.1-0.1-0.2-0.1-0.3-0.1c-0.1,0-0.2,0-0.3,0.1c-0.1,0.1-0.1,0.1-0.2,0.2c0,0.2-0.1,0.3-0.1,0.5v1.4H70.4z"/>
			<path class="st0" d="M73.5,56.5v-3.6H74v3.6H73.5z"/>
			<path class="st0" d="M76.4,56.2c-0.2,0.1-0.3,0.2-0.5,0.3c-0.2,0.1-0.3,0.1-0.5,0.1c-0.3,0-0.5-0.1-0.7-0.2
				c-0.2-0.1-0.2-0.3-0.2-0.5c0-0.1,0-0.2,0.1-0.4c0.1-0.1,0.1-0.2,0.2-0.3c0.1-0.1,0.2-0.1,0.3-0.1c0.1,0,0.2,0,0.4-0.1
				c0.4,0,0.6-0.1,0.8-0.2c0-0.1,0-0.1,0-0.1c0-0.2,0-0.3-0.1-0.4c-0.1-0.1-0.3-0.2-0.5-0.2c-0.2,0-0.4,0-0.5,0.1s-0.2,0.2-0.2,0.4
				l-0.4-0.1c0-0.2,0.1-0.3,0.2-0.5c0.1-0.1,0.2-0.2,0.4-0.3c0.2-0.1,0.4-0.1,0.6-0.1c0.2,0,0.4,0,0.6,0.1c0.1,0.1,0.2,0.1,0.3,0.2
				c0.1,0.1,0.1,0.2,0.1,0.3c0,0.1,0,0.2,0,0.4v0.6c0,0.4,0,0.7,0,0.8s0.1,0.2,0.1,0.3h-0.5C76.4,56.4,76.4,56.3,76.4,56.2z
				 M76.3,55.2c-0.2,0.1-0.4,0.1-0.7,0.2c-0.2,0-0.3,0.1-0.4,0.1c-0.1,0-0.1,0.1-0.2,0.1c0,0.1-0.1,0.1-0.1,0.2c0,0.1,0,0.2,0.1,0.3
				c0.1,0.1,0.2,0.1,0.4,0.1c0.2,0,0.3,0,0.5-0.1c0.1-0.1,0.2-0.2,0.3-0.3c0-0.1,0.1-0.3,0.1-0.4V55.2z"/>
			<path class="st0" d="M80.6,55.5l0.4,0.1c0,0.3-0.2,0.5-0.4,0.7c-0.2,0.2-0.4,0.3-0.7,0.3c-0.4,0-0.7-0.1-0.9-0.4
				c-0.2-0.2-0.3-0.6-0.3-1c0-0.3,0-0.5,0.1-0.7c0.1-0.2,0.2-0.4,0.4-0.5c0.2-0.1,0.4-0.2,0.6-0.2c0.3,0,0.5,0.1,0.7,0.2
				s0.3,0.4,0.4,0.6l-0.4,0.1c0-0.2-0.1-0.3-0.2-0.4c-0.1-0.1-0.2-0.1-0.4-0.1c-0.2,0-0.4,0.1-0.6,0.2c-0.1,0.2-0.2,0.4-0.2,0.8
				c0,0.4,0.1,0.6,0.2,0.8c0.1,0.2,0.3,0.2,0.5,0.2c0.2,0,0.3-0.1,0.4-0.2C80.5,55.9,80.6,55.8,80.6,55.5z"/>
			<path class="st0" d="M81.3,55.2c0-0.5,0.1-0.9,0.4-1.1c0.2-0.2,0.5-0.3,0.8-0.3c0.4,0,0.7,0.1,0.9,0.4c0.2,0.2,0.3,0.6,0.3,1
				c0,0.3-0.1,0.6-0.2,0.8c-0.1,0.2-0.3,0.3-0.4,0.5c-0.2,0.1-0.4,0.2-0.6,0.2c-0.4,0-0.7-0.1-0.9-0.4C81.4,56,81.3,55.6,81.3,55.2z
				 M81.7,55.2c0,0.3,0.1,0.6,0.2,0.8s0.3,0.3,0.6,0.3c0.2,0,0.4-0.1,0.6-0.3c0.1-0.2,0.2-0.4,0.2-0.8c0-0.3-0.1-0.6-0.2-0.7
				c-0.1-0.2-0.3-0.3-0.6-0.3c-0.2,0-0.4,0.1-0.6,0.3S81.7,54.8,81.7,55.2z"/>
			<path class="st0" d="M84.1,55.2c0-0.5,0.1-0.9,0.4-1.1c0.2-0.2,0.5-0.3,0.8-0.3c0.4,0,0.7,0.1,0.9,0.4c0.2,0.2,0.3,0.6,0.3,1
				c0,0.3-0.1,0.6-0.2,0.8c-0.1,0.2-0.2,0.3-0.4,0.5c-0.2,0.1-0.4,0.2-0.6,0.2c-0.4,0-0.7-0.1-0.9-0.4C84.2,56,84.1,55.6,84.1,55.2z
				 M84.6,55.2c0,0.3,0.1,0.6,0.2,0.8c0.1,0.2,0.3,0.3,0.6,0.3c0.2,0,0.4-0.1,0.6-0.3c0.1-0.2,0.2-0.4,0.2-0.8
				c0-0.3-0.1-0.6-0.2-0.7s-0.3-0.3-0.6-0.3c-0.2,0-0.4,0.1-0.6,0.3C84.7,54.6,84.6,54.8,84.6,55.2z"/>
			<path class="st0" d="M87.1,57.5v-3.7h0.4v0.3c0.1-0.1,0.2-0.2,0.3-0.3c0.1-0.1,0.3-0.1,0.4-0.1c0.2,0,0.4,0.1,0.6,0.2
				c0.2,0.1,0.3,0.3,0.4,0.5c0.1,0.2,0.1,0.4,0.1,0.7c0,0.3,0,0.5-0.1,0.7c-0.1,0.2-0.2,0.4-0.4,0.5c-0.2,0.1-0.4,0.2-0.6,0.2
				c-0.1,0-0.3,0-0.4-0.1s-0.2-0.1-0.3-0.2v1.3H87.1z M87.5,55.2c0,0.3,0.1,0.6,0.2,0.8c0.1,0.2,0.3,0.2,0.5,0.2
				c0.2,0,0.4-0.1,0.5-0.3c0.1-0.2,0.2-0.4,0.2-0.8c0-0.3-0.1-0.6-0.2-0.8c-0.1-0.2-0.3-0.3-0.5-0.3c-0.2,0-0.4,0.1-0.5,0.3
				C87.6,54.6,87.5,54.9,87.5,55.2z"/>
			<path class="st0" d="M91.8,55.7l0.5,0.1c-0.1,0.3-0.2,0.5-0.4,0.6c-0.2,0.1-0.4,0.2-0.8,0.2c-0.4,0-0.7-0.1-0.9-0.4
				c-0.2-0.2-0.3-0.6-0.3-1c0-0.4,0.1-0.8,0.3-1s0.5-0.4,0.9-0.4c0.4,0,0.6,0.1,0.9,0.4c0.2,0.2,0.3,0.6,0.3,1c0,0,0,0.1,0,0.1h-2
				c0,0.3,0.1,0.5,0.2,0.7c0.1,0.2,0.3,0.2,0.6,0.2c0.2,0,0.3,0,0.4-0.1S91.7,55.8,91.8,55.7z M90.3,54.9h1.5c0-0.2-0.1-0.4-0.2-0.5
				c-0.1-0.2-0.3-0.3-0.6-0.3c-0.2,0-0.4,0.1-0.5,0.2C90.4,54.5,90.3,54.7,90.3,54.9z M90.8,53.5l0.3-0.7h0.6l-0.5,0.7H90.8z"/>
			<path class="st0" d="M92.8,56.5v-2.6h0.4v0.4c0.1-0.2,0.2-0.3,0.3-0.4c0.1-0.1,0.2-0.1,0.3-0.1c0.2,0,0.3,0,0.5,0.1l-0.2,0.4
				c-0.1-0.1-0.2-0.1-0.3-0.1c-0.1,0-0.2,0-0.3,0.1c-0.1,0.1-0.1,0.1-0.2,0.2c0,0.2-0.1,0.3-0.1,0.5v1.4H92.8z"/>
			<path class="st0" d="M96.2,56.2c-0.2,0.1-0.3,0.2-0.5,0.3c-0.2,0.1-0.3,0.1-0.5,0.1c-0.3,0-0.5-0.1-0.7-0.2
				c-0.2-0.1-0.2-0.3-0.2-0.5c0-0.1,0-0.2,0.1-0.4c0.1-0.1,0.1-0.2,0.2-0.3c0.1-0.1,0.2-0.1,0.3-0.1c0.1,0,0.2,0,0.4-0.1
				c0.4,0,0.6-0.1,0.8-0.2c0-0.1,0-0.1,0-0.1c0-0.2,0-0.3-0.1-0.4c-0.1-0.1-0.3-0.2-0.5-0.2c-0.2,0-0.4,0-0.5,0.1s-0.2,0.2-0.2,0.4
				l-0.4-0.1c0-0.2,0.1-0.3,0.2-0.5c0.1-0.1,0.2-0.2,0.4-0.3c0.2-0.1,0.4-0.1,0.6-0.1c0.2,0,0.4,0,0.6,0.1c0.1,0.1,0.2,0.1,0.3,0.2
				c0.1,0.1,0.1,0.2,0.1,0.3c0,0.1,0,0.2,0,0.4v0.6c0,0.4,0,0.7,0,0.8s0.1,0.2,0.1,0.3h-0.5C96.3,56.4,96.2,56.3,96.2,56.2z
				 M96.2,55.2c-0.2,0.1-0.4,0.1-0.7,0.2c-0.2,0-0.3,0.1-0.4,0.1c-0.1,0-0.1,0.1-0.2,0.1c0,0.1-0.1,0.1-0.1,0.2c0,0.1,0,0.2,0.1,0.3
				c0.1,0.1,0.2,0.1,0.4,0.1c0.2,0,0.3,0,0.5-0.1c0.1-0.1,0.2-0.2,0.3-0.3c0-0.1,0.1-0.3,0.1-0.4V55.2z"/>
			<path class="st0" d="M98.3,56.1l0.1,0.4c-0.1,0-0.2,0-0.3,0c-0.2,0-0.3,0-0.4-0.1c-0.1-0.1-0.2-0.1-0.2-0.2
				c0-0.1-0.1-0.3-0.1-0.5v-1.5h-0.3v-0.3h0.3v-0.7l0.4-0.3v0.9h0.5v0.3h-0.5v1.5c0,0.1,0,0.2,0,0.2c0,0,0,0.1,0.1,0.1
				c0,0,0.1,0,0.2,0C98.2,56.1,98.2,56.1,98.3,56.1z"/>
			<path class="st0" d="M98.7,53.4v-0.5h0.4v0.5H98.7z M98.7,56.5v-2.6h0.4v2.6H98.7z"/>
			<path class="st0" d="M99.7,55.2c0-0.5,0.1-0.9,0.4-1.1c0.2-0.2,0.5-0.3,0.8-0.3c0.4,0,0.7,0.1,0.9,0.4c0.2,0.2,0.3,0.6,0.3,1
				c0,0.3-0.1,0.6-0.2,0.8c-0.1,0.2-0.3,0.3-0.4,0.5c-0.2,0.1-0.4,0.2-0.6,0.2c-0.4,0-0.7-0.1-0.9-0.4C99.8,56,99.7,55.6,99.7,55.2z
				 M100.2,55.2c0,0.3,0.1,0.6,0.2,0.8c0.1,0.2,0.3,0.3,0.6,0.3c0.2,0,0.4-0.1,0.6-0.3c0.1-0.2,0.2-0.4,0.2-0.8
				c0-0.3-0.1-0.6-0.2-0.7s-0.3-0.3-0.6-0.3c-0.2,0-0.4,0.1-0.6,0.3C100.2,54.6,100.2,54.8,100.2,55.2z"/>
			<path class="st0" d="M102.7,56.5v-2.6h0.4v0.4c0.2-0.3,0.5-0.4,0.8-0.4c0.2,0,0.3,0,0.4,0.1c0.1,0.1,0.2,0.1,0.3,0.2
				c0.1,0.1,0.1,0.2,0.1,0.3c0,0.1,0,0.2,0,0.4v1.6h-0.4v-1.6c0-0.2,0-0.3-0.1-0.4c0-0.1-0.1-0.2-0.2-0.2c-0.1-0.1-0.2-0.1-0.3-0.1
				c-0.2,0-0.4,0.1-0.5,0.2c-0.1,0.1-0.2,0.4-0.2,0.7v1.4H102.7z"/>
		</g>
		<g>
			<path class="st0" d="M63.6,61.7c-0.2,0.1-0.3,0.2-0.5,0.3c-0.2,0.1-0.3,0.1-0.5,0.1c-0.3,0-0.5-0.1-0.7-0.2
				c-0.2-0.1-0.2-0.3-0.2-0.5c0-0.1,0-0.2,0.1-0.4c0.1-0.1,0.1-0.2,0.2-0.3c0.1-0.1,0.2-0.1,0.3-0.1c0.1,0,0.2,0,0.4-0.1
				c0.4,0,0.6-0.1,0.8-0.2c0-0.1,0-0.1,0-0.1c0-0.2,0-0.3-0.1-0.4c-0.1-0.1-0.3-0.2-0.5-0.2c-0.2,0-0.4,0-0.5,0.1
				c-0.1,0.1-0.2,0.2-0.2,0.4l-0.4-0.1c0-0.2,0.1-0.3,0.2-0.5c0.1-0.1,0.2-0.2,0.4-0.3c0.2-0.1,0.4-0.1,0.6-0.1c0.2,0,0.4,0,0.6,0.1
				c0.1,0.1,0.2,0.1,0.3,0.2c0.1,0.1,0.1,0.2,0.1,0.3c0,0.1,0,0.2,0,0.4V61c0,0.4,0,0.7,0,0.8c0,0.1,0.1,0.2,0.1,0.3h-0.5
				C63.7,62,63.6,61.9,63.6,61.7z M63.6,60.7c-0.2,0.1-0.4,0.1-0.7,0.2c-0.2,0-0.3,0.1-0.4,0.1c-0.1,0-0.1,0.1-0.2,0.1
				c0,0.1-0.1,0.1-0.1,0.2c0,0.1,0,0.2,0.1,0.3c0.1,0.1,0.2,0.1,0.4,0.1c0.2,0,0.3,0,0.5-0.1c0.1-0.1,0.2-0.2,0.3-0.3
				c0-0.1,0.1-0.3,0.1-0.4V60.7z"/>
			<path class="st0" d="M65.5,62.1l-1-2.6h0.5l0.6,1.6c0.1,0.2,0.1,0.3,0.2,0.5c0-0.1,0.1-0.3,0.2-0.5l0.6-1.6h0.5l-1,2.6H65.5z"/>
			<path class="st0" d="M69.1,61.2l0.5,0.1c-0.1,0.3-0.2,0.5-0.4,0.6c-0.2,0.1-0.4,0.2-0.8,0.2c-0.4,0-0.7-0.1-0.9-0.4
				c-0.2-0.2-0.3-0.6-0.3-1c0-0.4,0.1-0.8,0.3-1c0.2-0.2,0.5-0.4,0.9-0.4c0.4,0,0.6,0.1,0.9,0.4c0.2,0.2,0.3,0.6,0.3,1
				c0,0,0,0.1,0,0.1h-2c0,0.3,0.1,0.5,0.2,0.7c0.1,0.2,0.3,0.2,0.6,0.2c0.2,0,0.3,0,0.4-0.1S69,61.4,69.1,61.2z M67.6,60.5h1.5
				c0-0.2-0.1-0.4-0.2-0.5c-0.1-0.2-0.3-0.3-0.6-0.3c-0.2,0-0.4,0.1-0.5,0.2C67.7,60.1,67.6,60.3,67.6,60.5z"/>
			<path class="st0" d="M71.8,61.1l0.4,0.1c0,0.3-0.2,0.5-0.4,0.7c-0.2,0.2-0.4,0.3-0.7,0.3c-0.4,0-0.7-0.1-0.9-0.4
				c-0.2-0.2-0.3-0.6-0.3-1c0-0.3,0-0.5,0.1-0.7c0.1-0.2,0.2-0.4,0.4-0.5c0.2-0.1,0.4-0.2,0.6-0.2c0.3,0,0.5,0.1,0.7,0.2
				c0.2,0.1,0.3,0.4,0.4,0.6l-0.4,0.1c0-0.2-0.1-0.3-0.2-0.4c-0.1-0.1-0.2-0.1-0.4-0.1c-0.2,0-0.4,0.1-0.5,0.2
				c-0.1,0.2-0.2,0.4-0.2,0.8c0,0.4,0.1,0.6,0.2,0.8c0.1,0.2,0.3,0.2,0.5,0.2c0.2,0,0.3-0.1,0.4-0.2C71.7,61.5,71.8,61.3,71.8,61.1z
				"/>
			<path class="st0" d="M74.1,62.1v-3.6h0.4v3.6H74.1z"/>
			<path class="st0" d="M75.2,58.9v-0.5h0.5v0.4c0,0.2,0,0.4-0.1,0.5c-0.1,0.1-0.2,0.2-0.3,0.3l-0.1-0.2c0.1,0,0.2-0.1,0.2-0.2
				c0-0.1,0.1-0.2,0.1-0.3H75.2z"/>
			<path class="st0" d="M78.8,58.4h0.5v2.1c0,0.4,0,0.7-0.1,0.9c-0.1,0.2-0.2,0.4-0.4,0.5c-0.2,0.1-0.5,0.2-0.9,0.2
				c-0.3,0-0.6-0.1-0.8-0.2c-0.2-0.1-0.4-0.3-0.5-0.5c-0.1-0.2-0.1-0.5-0.1-0.9v-2.1h0.5v2.1c0,0.3,0,0.6,0.1,0.7
				c0.1,0.2,0.2,0.3,0.3,0.3c0.1,0.1,0.3,0.1,0.5,0.1c0.4,0,0.6-0.1,0.8-0.2c0.2-0.2,0.2-0.5,0.2-0.9V58.4z"/>
			<path class="st0" d="M80.1,62.1v-3.6h0.5l1.9,2.9v-2.9H83v3.6h-0.5l-1.9-2.9v2.9H80.1z"/>
			<path class="st0" d="M83.8,62.1v-3.6h2.6v0.4h-2.2V60h2v0.4h-2v1.2h2.2v0.4H83.8z"/>
			<path class="st0" d="M87,60.9l0.5,0c0,0.2,0.1,0.3,0.2,0.4c0.1,0.1,0.2,0.2,0.4,0.3c0.2,0.1,0.4,0.1,0.6,0.1c0.2,0,0.3,0,0.5-0.1
				c0.1-0.1,0.2-0.1,0.3-0.2c0.1-0.1,0.1-0.2,0.1-0.3c0-0.1,0-0.2-0.1-0.3c-0.1-0.1-0.2-0.2-0.3-0.2c-0.1,0-0.3-0.1-0.6-0.2
				c-0.3-0.1-0.6-0.2-0.7-0.2c-0.2-0.1-0.3-0.2-0.4-0.3c-0.1-0.1-0.1-0.3-0.1-0.5c0-0.2,0.1-0.4,0.2-0.5c0.1-0.2,0.3-0.3,0.5-0.4
				c0.2-0.1,0.4-0.1,0.7-0.1c0.3,0,0.5,0,0.7,0.1c0.2,0.1,0.4,0.2,0.5,0.4c0.1,0.2,0.2,0.4,0.2,0.6l-0.5,0c0-0.2-0.1-0.4-0.3-0.5
				c-0.1-0.1-0.4-0.2-0.6-0.2c-0.3,0-0.5,0.1-0.6,0.2c-0.1,0.1-0.2,0.2-0.2,0.4c0,0.1,0,0.2,0.1,0.3c0.1,0.1,0.3,0.2,0.7,0.3
				c0.4,0.1,0.7,0.2,0.8,0.2c0.2,0.1,0.4,0.2,0.5,0.4c0.1,0.2,0.2,0.3,0.2,0.5c0,0.2-0.1,0.4-0.2,0.5c-0.1,0.2-0.3,0.3-0.5,0.4
				c-0.2,0.1-0.4,0.1-0.7,0.1c-0.3,0-0.6,0-0.8-0.1c-0.2-0.1-0.4-0.2-0.5-0.4C87.1,61.4,87,61.1,87,60.9z"/>
			<path class="st0" d="M93.2,60.8l0.5,0.1c-0.1,0.4-0.3,0.7-0.5,0.9c-0.3,0.2-0.6,0.3-1,0.3c-0.4,0-0.7-0.1-1-0.2
				c-0.2-0.2-0.4-0.4-0.6-0.7c-0.1-0.3-0.2-0.6-0.2-1c0-0.4,0.1-0.7,0.2-1c0.1-0.3,0.4-0.5,0.6-0.6c0.3-0.1,0.6-0.2,0.9-0.2
				c0.4,0,0.7,0.1,0.9,0.3c0.2,0.2,0.4,0.4,0.5,0.8l-0.5,0.1c-0.1-0.3-0.2-0.5-0.4-0.6c-0.2-0.1-0.4-0.2-0.6-0.2
				c-0.3,0-0.5,0.1-0.7,0.2s-0.3,0.3-0.4,0.5c-0.1,0.2-0.1,0.5-0.1,0.7c0,0.3,0,0.6,0.1,0.8c0.1,0.2,0.2,0.4,0.4,0.5
				s0.4,0.2,0.6,0.2c0.3,0,0.5-0.1,0.7-0.2C93,61.3,93.1,61.1,93.2,60.8z"/>
			<path class="st0" d="M94.1,60.3c0-0.6,0.2-1.1,0.5-1.4c0.3-0.3,0.7-0.5,1.3-0.5c0.3,0,0.6,0.1,0.9,0.2c0.3,0.2,0.5,0.4,0.6,0.7
				c0.1,0.3,0.2,0.6,0.2,1c0,0.4-0.1,0.7-0.2,1c-0.1,0.3-0.4,0.5-0.6,0.7c-0.3,0.2-0.6,0.2-0.9,0.2c-0.3,0-0.6-0.1-0.9-0.2
				c-0.3-0.2-0.5-0.4-0.6-0.7C94.2,60.9,94.1,60.6,94.1,60.3z M94.6,60.3c0,0.4,0.1,0.8,0.4,1c0.2,0.3,0.5,0.4,0.9,0.4
				c0.4,0,0.7-0.1,0.9-0.4c0.2-0.3,0.4-0.6,0.4-1.1c0-0.3,0-0.6-0.2-0.8c-0.1-0.2-0.2-0.4-0.4-0.5c-0.2-0.1-0.4-0.2-0.7-0.2
				c-0.3,0-0.6,0.1-0.9,0.4S94.6,59.7,94.6,60.3z"/>
		</g>
		<g>
			<path class="st0" d="M21.4,44c0-0.6,0.2-1.1,0.5-1.4c0.3-0.3,0.7-0.5,1.3-0.5c0.3,0,0.6,0.1,0.9,0.2c0.3,0.2,0.5,0.4,0.6,0.7
				c0.1,0.3,0.2,0.6,0.2,1c0,0.4-0.1,0.7-0.2,1c-0.1,0.3-0.4,0.5-0.6,0.7c-0.3,0.2-0.6,0.2-0.9,0.2c-0.3,0-0.7-0.1-0.9-0.2
				c-0.3-0.2-0.5-0.4-0.6-0.7C21.5,44.6,21.4,44.3,21.4,44z M21.9,44c0,0.4,0.1,0.8,0.4,1c0.2,0.3,0.5,0.4,0.9,0.4
				c0.4,0,0.7-0.1,0.9-0.4c0.2-0.3,0.4-0.6,0.4-1.1c0-0.3-0.1-0.6-0.2-0.8c-0.1-0.2-0.2-0.4-0.4-0.5c-0.2-0.1-0.4-0.2-0.7-0.2
				c-0.3,0-0.6,0.1-0.9,0.4C22.1,43,21.9,43.4,21.9,44z"/>
			<path class="st0" d="M25.5,45.7v-2.6h0.4v0.4c0.1-0.2,0.2-0.3,0.3-0.4c0.1-0.1,0.2-0.1,0.3-0.1c0.2,0,0.3,0,0.5,0.1l-0.2,0.4
				c-0.1-0.1-0.2-0.1-0.3-0.1c-0.1,0-0.2,0-0.3,0.1c-0.1,0.1-0.1,0.1-0.2,0.2c0,0.2-0.1,0.3-0.1,0.5v1.4H25.5z"/>
			<path class="st0" d="M27.1,46l0.4,0.1c0,0.1,0.1,0.2,0.2,0.3c0.1,0.1,0.3,0.1,0.5,0.1c0.2,0,0.4,0,0.5-0.1
				c0.1-0.1,0.2-0.2,0.2-0.3c0-0.1,0-0.3,0-0.6c-0.2,0.2-0.4,0.3-0.7,0.3c-0.4,0-0.6-0.1-0.8-0.4c-0.2-0.3-0.3-0.6-0.3-0.9
				c0-0.3,0-0.5,0.1-0.7c0.1-0.2,0.2-0.4,0.4-0.5c0.2-0.1,0.4-0.2,0.6-0.2c0.3,0,0.6,0.1,0.8,0.4v-0.3h0.4v2.3c0,0.4,0,0.7-0.1,0.9
				c-0.1,0.2-0.2,0.3-0.4,0.4c-0.2,0.1-0.4,0.1-0.7,0.1c-0.3,0-0.6-0.1-0.8-0.2C27.2,46.5,27.1,46.2,27.1,46z M27.5,44.4
				c0,0.3,0.1,0.6,0.2,0.8c0.1,0.2,0.3,0.2,0.5,0.2c0.2,0,0.4-0.1,0.5-0.2c0.1-0.2,0.2-0.4,0.2-0.7c0-0.3-0.1-0.6-0.2-0.7
				c-0.1-0.2-0.3-0.2-0.5-0.2c-0.2,0-0.4,0.1-0.5,0.2C27.6,43.8,27.5,44,27.5,44.4z"/>
			<path class="st0" d="M31.8,45.4c-0.2,0.1-0.3,0.2-0.5,0.3c-0.2,0.1-0.3,0.1-0.5,0.1c-0.3,0-0.5-0.1-0.7-0.2
				c-0.2-0.1-0.2-0.3-0.2-0.5c0-0.1,0-0.2,0.1-0.4c0.1-0.1,0.1-0.2,0.2-0.3c0.1-0.1,0.2-0.1,0.3-0.1c0.1,0,0.2,0,0.4-0.1
				c0.4,0,0.6-0.1,0.8-0.2c0-0.1,0-0.1,0-0.1c0-0.2,0-0.3-0.1-0.4c-0.1-0.1-0.3-0.2-0.5-0.2c-0.2,0-0.4,0-0.5,0.1
				c-0.1,0.1-0.2,0.2-0.2,0.4L30,43.8c0-0.2,0.1-0.3,0.2-0.5c0.1-0.1,0.2-0.2,0.4-0.3s0.4-0.1,0.6-0.1c0.2,0,0.4,0,0.5,0.1
				c0.1,0.1,0.2,0.1,0.3,0.2c0.1,0.1,0.1,0.2,0.1,0.3c0,0.1,0,0.2,0,0.4v0.6c0,0.4,0,0.7,0,0.8c0,0.1,0.1,0.2,0.1,0.3h-0.5
				C31.8,45.6,31.8,45.5,31.8,45.4z M31.7,44.4c-0.2,0.1-0.4,0.1-0.7,0.2c-0.2,0-0.3,0.1-0.4,0.1c-0.1,0-0.1,0.1-0.2,0.1
				c0,0.1-0.1,0.1-0.1,0.2c0,0.1,0,0.2,0.1,0.3c0.1,0.1,0.2,0.1,0.4,0.1c0.2,0,0.3,0,0.5-0.1c0.1-0.1,0.2-0.2,0.3-0.3
				c0-0.1,0.1-0.3,0.1-0.4V44.4z"/>
			<path class="st0" d="M32.9,45.7v-2.6h0.4v0.4c0.2-0.3,0.5-0.4,0.8-0.4c0.2,0,0.3,0,0.4,0.1c0.1,0.1,0.2,0.1,0.3,0.2
				c0.1,0.1,0.1,0.2,0.1,0.3c0,0.1,0,0.2,0,0.4v1.6h-0.4v-1.6c0-0.2,0-0.3-0.1-0.4c0-0.1-0.1-0.2-0.2-0.2c-0.1-0.1-0.2-0.1-0.3-0.1
				c-0.2,0-0.4,0.1-0.5,0.2c-0.1,0.1-0.2,0.4-0.2,0.7v1.4H32.9z"/>
			<path class="st0" d="M35.7,42.6v-0.5h0.4v0.5H35.7z M35.7,45.7v-2.6h0.4v2.6H35.7z"/>
			<path class="st0" d="M36.7,44.9l0.4-0.1c0,0.2,0.1,0.3,0.2,0.4c0.1,0.1,0.3,0.1,0.5,0.1c0.2,0,0.4,0,0.5-0.1
				c0.1-0.1,0.1-0.2,0.1-0.3c0-0.1,0-0.2-0.1-0.2c-0.1,0-0.2-0.1-0.5-0.2c-0.3-0.1-0.6-0.2-0.7-0.2c-0.1-0.1-0.2-0.1-0.3-0.3
				c-0.1-0.1-0.1-0.2-0.1-0.4c0-0.1,0-0.2,0.1-0.3s0.1-0.2,0.2-0.3c0.1-0.1,0.2-0.1,0.3-0.1c0.1,0,0.2-0.1,0.4-0.1
				c0.2,0,0.4,0,0.5,0.1c0.2,0.1,0.3,0.1,0.3,0.2c0.1,0.1,0.1,0.2,0.2,0.4l-0.4,0.1c0-0.1-0.1-0.2-0.2-0.3c-0.1-0.1-0.2-0.1-0.4-0.1
				c-0.2,0-0.4,0-0.4,0.1c-0.1,0.1-0.1,0.1-0.1,0.2c0,0.1,0,0.1,0.1,0.2c0,0,0.1,0.1,0.2,0.1c0,0,0.2,0.1,0.4,0.1
				c0.3,0.1,0.5,0.2,0.7,0.2c0.1,0.1,0.2,0.1,0.3,0.2c0.1,0.1,0.1,0.2,0.1,0.4c0,0.1,0,0.3-0.1,0.4c-0.1,0.1-0.2,0.2-0.4,0.3
				c-0.2,0.1-0.3,0.1-0.6,0.1c-0.3,0-0.6-0.1-0.8-0.2C36.8,45.4,36.7,45.2,36.7,44.9z"/>
			<path class="st0" d="M41.1,45.4c-0.2,0.1-0.3,0.2-0.5,0.3c-0.2,0.1-0.3,0.1-0.5,0.1c-0.3,0-0.5-0.1-0.7-0.2s-0.2-0.3-0.2-0.5
				c0-0.1,0-0.2,0.1-0.4c0.1-0.1,0.1-0.2,0.2-0.3c0.1-0.1,0.2-0.1,0.3-0.1c0.1,0,0.2,0,0.4-0.1c0.4,0,0.6-0.1,0.8-0.2
				c0-0.1,0-0.1,0-0.1c0-0.2,0-0.3-0.1-0.4c-0.1-0.1-0.3-0.2-0.5-0.2c-0.2,0-0.4,0-0.5,0.1c-0.1,0.1-0.2,0.2-0.2,0.4l-0.4-0.1
				c0-0.2,0.1-0.3,0.2-0.5c0.1-0.1,0.2-0.2,0.4-0.3c0.2-0.1,0.4-0.1,0.6-0.1c0.2,0,0.4,0,0.5,0.1c0.1,0.1,0.2,0.1,0.3,0.2
				c0.1,0.1,0.1,0.2,0.1,0.3c0,0.1,0,0.2,0,0.4v0.6c0,0.4,0,0.7,0,0.8c0,0.1,0.1,0.2,0.1,0.3h-0.5C41.2,45.6,41.1,45.5,41.1,45.4z
				 M41.1,44.4c-0.2,0.1-0.4,0.1-0.7,0.2c-0.2,0-0.3,0.1-0.4,0.1c-0.1,0-0.1,0.1-0.2,0.1c0,0.1-0.1,0.1-0.1,0.2c0,0.1,0,0.2,0.1,0.3
				c0.1,0.1,0.2,0.1,0.4,0.1c0.2,0,0.3,0,0.5-0.1c0.1-0.1,0.2-0.2,0.3-0.3c0-0.1,0.1-0.3,0.1-0.4V44.4z"/>
			<path class="st0" d="M43.2,45.3l0.1,0.4c-0.1,0-0.2,0-0.3,0c-0.2,0-0.3,0-0.4-0.1c-0.1-0.1-0.2-0.1-0.2-0.2
				c0-0.1-0.1-0.3-0.1-0.5v-1.5H42v-0.3h0.3v-0.7l0.4-0.3v0.9h0.5v0.3h-0.5V45c0,0.1,0,0.2,0,0.2c0,0,0,0.1,0.1,0.1c0,0,0.1,0,0.2,0
				C43.1,45.4,43.1,45.3,43.2,45.3z"/>
			<path class="st0" d="M43.6,42.6v-0.5h0.4v0.5H43.6z M43.6,45.7v-2.6h0.4v2.6H43.6z"/>
			<path class="st0" d="M44.6,44.4c0-0.5,0.1-0.9,0.4-1.1c0.2-0.2,0.5-0.3,0.8-0.3c0.4,0,0.7,0.1,0.9,0.4c0.2,0.2,0.3,0.6,0.3,1
				c0,0.3-0.1,0.6-0.2,0.8c-0.1,0.2-0.3,0.3-0.4,0.5c-0.2,0.1-0.4,0.2-0.6,0.2c-0.4,0-0.7-0.1-0.9-0.4
				C44.7,45.2,44.6,44.9,44.6,44.4z M45.1,44.4c0,0.3,0.1,0.6,0.2,0.8c0.1,0.2,0.3,0.3,0.6,0.3c0.2,0,0.4-0.1,0.6-0.3
				c0.1-0.2,0.2-0.4,0.2-0.8c0-0.3-0.1-0.6-0.2-0.7s-0.3-0.3-0.6-0.3c-0.2,0-0.4,0.1-0.6,0.3C45.1,43.8,45.1,44.1,45.1,44.4z"/>
			<path class="st0" d="M47.6,45.7v-2.6H48v0.4c0.2-0.3,0.5-0.4,0.8-0.4c0.2,0,0.3,0,0.4,0.1c0.1,0.1,0.2,0.1,0.3,0.2
				c0.1,0.1,0.1,0.2,0.1,0.3c0,0.1,0,0.2,0,0.4v1.6h-0.4v-1.6c0-0.2,0-0.3-0.1-0.4c0-0.1-0.1-0.2-0.2-0.2c-0.1-0.1-0.2-0.1-0.3-0.1
				c-0.2,0-0.4,0.1-0.5,0.2c-0.1,0.1-0.2,0.4-0.2,0.7v1.4H47.6z"/>
		</g>
		<g>
			<path class="st0" d="M10.8,51.3V51c-0.2,0.3-0.4,0.4-0.7,0.4c-0.2,0-0.4-0.1-0.6-0.2c-0.2-0.1-0.3-0.3-0.4-0.5
				C9,50.5,8.9,50.2,8.9,50c0-0.3,0-0.5,0.1-0.7c0.1-0.2,0.2-0.4,0.4-0.5c0.2-0.1,0.4-0.2,0.6-0.2c0.2,0,0.3,0,0.4,0.1
				c0.1,0.1,0.2,0.2,0.3,0.3v-1.3h0.4v3.6H10.8z M9.4,50c0,0.3,0.1,0.6,0.2,0.8c0.1,0.2,0.3,0.3,0.5,0.3c0.2,0,0.4-0.1,0.5-0.2
				c0.1-0.2,0.2-0.4,0.2-0.7c0-0.4-0.1-0.6-0.2-0.8S10.3,49,10.1,49c-0.2,0-0.4,0.1-0.5,0.2C9.4,49.4,9.4,49.6,9.4,50z"/>
			<path class="st0" d="M13.7,50.4l0.5,0.1c-0.1,0.3-0.2,0.5-0.4,0.6c-0.2,0.1-0.4,0.2-0.8,0.2c-0.4,0-0.7-0.1-0.9-0.4
				c-0.2-0.2-0.3-0.6-0.3-1c0-0.4,0.1-0.8,0.3-1c0.2-0.2,0.5-0.4,0.9-0.4c0.4,0,0.6,0.1,0.9,0.4c0.2,0.2,0.3,0.6,0.3,1
				c0,0,0,0.1,0,0.1h-2c0,0.3,0.1,0.5,0.2,0.7c0.1,0.2,0.3,0.2,0.6,0.2c0.2,0,0.3,0,0.4-0.1C13.6,50.8,13.7,50.6,13.7,50.4z
				 M12.2,49.7h1.5c0-0.2-0.1-0.4-0.2-0.5C13.4,49,13.2,49,13,49c-0.2,0-0.4,0.1-0.5,0.2C12.3,49.3,12.3,49.5,12.2,49.7z"/>
			<path class="st0" d="M14.6,50.5l0.4-0.1c0,0.2,0.1,0.3,0.2,0.4c0.1,0.1,0.3,0.1,0.5,0.1c0.2,0,0.4,0,0.5-0.1
				c0.1-0.1,0.1-0.2,0.1-0.3c0-0.1,0-0.2-0.1-0.2c-0.1,0-0.2-0.1-0.5-0.2C15.4,50.1,15.2,50,15,50c-0.1-0.1-0.2-0.1-0.3-0.3
				c-0.1-0.1-0.1-0.2-0.1-0.4c0-0.1,0-0.2,0.1-0.3c0.1-0.1,0.1-0.2,0.2-0.2c0.1-0.1,0.2-0.1,0.3-0.1c0.1,0,0.2-0.1,0.4-0.1
				c0.2,0,0.4,0,0.5,0.1c0.2,0.1,0.3,0.1,0.3,0.2c0.1,0.1,0.1,0.2,0.2,0.4l-0.4,0.1c0-0.1-0.1-0.2-0.2-0.3C16,49,15.8,49,15.6,49
				c-0.2,0-0.4,0-0.4,0.1s-0.1,0.1-0.1,0.2c0,0.1,0,0.1,0.1,0.2c0,0,0.1,0.1,0.2,0.1c0,0,0.2,0.1,0.4,0.1c0.3,0.1,0.5,0.2,0.7,0.2
				c0.1,0.1,0.2,0.1,0.3,0.2c0.1,0.1,0.1,0.2,0.1,0.4c0,0.1,0,0.3-0.1,0.4c-0.1,0.1-0.2,0.2-0.4,0.3c-0.2,0.1-0.3,0.1-0.6,0.1
				c-0.3,0-0.6-0.1-0.8-0.2C14.7,51,14.6,50.8,14.6,50.5z"/>
			<path class="st0" d="M18.8,51.3v-3.6h0.5l1.9,2.9v-2.9h0.5v3.6h-0.5l-1.9-2.9v2.9H18.8z"/>
			<path class="st0" d="M24.1,51c-0.2,0.1-0.3,0.2-0.5,0.3c-0.2,0.1-0.3,0.1-0.5,0.1c-0.3,0-0.5-0.1-0.7-0.2
				c-0.2-0.1-0.2-0.3-0.2-0.5c0-0.1,0-0.2,0.1-0.4c0.1-0.1,0.1-0.2,0.2-0.3c0.1-0.1,0.2-0.1,0.3-0.1c0.1,0,0.2,0,0.4-0.1
				c0.4,0,0.6-0.1,0.8-0.2c0-0.1,0-0.1,0-0.1c0-0.2,0-0.3-0.1-0.4C23.8,49,23.7,49,23.4,49c-0.2,0-0.4,0-0.5,0.1
				c-0.1,0.1-0.2,0.2-0.2,0.4l-0.4-0.1c0-0.2,0.1-0.3,0.2-0.5c0.1-0.1,0.2-0.2,0.4-0.3c0.2-0.1,0.4-0.1,0.6-0.1c0.2,0,0.4,0,0.5,0.1
				c0.1,0.1,0.2,0.1,0.3,0.2s0.1,0.2,0.1,0.3c0,0.1,0,0.2,0,0.4v0.6c0,0.4,0,0.7,0,0.8c0,0.1,0.1,0.2,0.1,0.3h-0.5
				C24.2,51.2,24.1,51.1,24.1,51z M24.1,50c-0.2,0.1-0.4,0.1-0.7,0.2c-0.2,0-0.3,0.1-0.4,0.1c-0.1,0-0.1,0.1-0.2,0.1
				c0,0.1-0.1,0.1-0.1,0.2c0,0.1,0,0.2,0.1,0.3c0.1,0.1,0.2,0.1,0.4,0.1c0.2,0,0.3,0,0.5-0.1c0.1-0.1,0.2-0.2,0.3-0.3
				c0-0.1,0.1-0.3,0.1-0.4V50z"/>
			<path class="st0" d="M26.2,50.9l0.1,0.4c-0.1,0-0.2,0-0.3,0c-0.2,0-0.3,0-0.4-0.1c-0.1-0.1-0.2-0.1-0.2-0.2
				c0-0.1-0.1-0.3-0.1-0.5V49H25v-0.3h0.3V48l0.4-0.3v0.9h0.5V49h-0.5v1.5c0,0.1,0,0.2,0,0.2c0,0,0,0.1,0.1,0.1c0,0,0.1,0,0.2,0
				C26.1,50.9,26.1,50.9,26.2,50.9z"/>
			<path class="st0" d="M26.6,48.2v-0.5h0.4v0.5H26.6z M26.6,51.3v-2.6h0.4v2.6H26.6z"/>
			<path class="st0" d="M27.6,50c0-0.5,0.1-0.9,0.4-1.1c0.2-0.2,0.5-0.3,0.8-0.3c0.4,0,0.7,0.1,0.9,0.4c0.2,0.2,0.3,0.6,0.3,1
				c0,0.3-0.1,0.6-0.2,0.8c-0.1,0.2-0.3,0.3-0.4,0.5c-0.2,0.1-0.4,0.2-0.6,0.2c-0.4,0-0.7-0.1-0.9-0.4C27.7,50.8,27.6,50.4,27.6,50z
				 M28.1,50c0,0.3,0.1,0.6,0.2,0.8c0.1,0.2,0.3,0.3,0.6,0.3c0.2,0,0.4-0.1,0.6-0.3c0.1-0.2,0.2-0.4,0.2-0.8c0-0.3-0.1-0.6-0.2-0.7
				C29.3,49,29.1,49,28.8,49c-0.2,0-0.4,0.1-0.6,0.3C28.1,49.4,28.1,49.6,28.1,50z"/>
			<path class="st0" d="M30.6,51.3v-2.6H31V49c0.2-0.3,0.5-0.4,0.8-0.4c0.2,0,0.3,0,0.4,0.1c0.1,0.1,0.2,0.1,0.3,0.2
				c0.1,0.1,0.1,0.2,0.1,0.3c0,0.1,0,0.2,0,0.4v1.6h-0.4v-1.6c0-0.2,0-0.3-0.1-0.4c0-0.1-0.1-0.2-0.2-0.2C32,49,31.9,49,31.8,49
				c-0.2,0-0.4,0.1-0.5,0.2c-0.1,0.1-0.2,0.4-0.2,0.7v1.4H30.6z"/>
			<path class="st0" d="M33.3,50.5l0.4-0.1c0,0.2,0.1,0.3,0.2,0.4c0.1,0.1,0.3,0.1,0.5,0.1c0.2,0,0.4,0,0.5-0.1
				c0.1-0.1,0.1-0.2,0.1-0.3c0-0.1,0-0.2-0.1-0.2c-0.1,0-0.2-0.1-0.5-0.2c-0.3-0.1-0.6-0.2-0.7-0.2c-0.1-0.1-0.2-0.1-0.3-0.3
				c-0.1-0.1-0.1-0.2-0.1-0.4c0-0.1,0-0.2,0.1-0.3c0.1-0.1,0.1-0.2,0.2-0.2c0.1-0.1,0.2-0.1,0.3-0.1c0.1,0,0.2-0.1,0.4-0.1
				c0.2,0,0.4,0,0.5,0.1c0.2,0.1,0.3,0.1,0.3,0.2c0.1,0.1,0.1,0.2,0.2,0.4l-0.4,0.1c0-0.1-0.1-0.2-0.2-0.3C34.7,49,34.5,49,34.3,49
				c-0.2,0-0.4,0-0.4,0.1c-0.1,0.1-0.1,0.1-0.1,0.2c0,0.1,0,0.1,0.1,0.2c0,0,0.1,0.1,0.2,0.1c0,0,0.2,0.1,0.4,0.1
				c0.3,0.1,0.5,0.2,0.7,0.2c0.1,0.1,0.2,0.1,0.3,0.2c0.1,0.1,0.1,0.2,0.1,0.4c0,0.1,0,0.3-0.1,0.4c-0.1,0.1-0.2,0.2-0.4,0.3
				c-0.2,0.1-0.4,0.1-0.6,0.1c-0.3,0-0.6-0.1-0.8-0.2C33.4,51,33.3,50.8,33.3,50.5z"/>
			<path class="st0" d="M39.9,47.6h0.5v2.1c0,0.4,0,0.7-0.1,0.9c-0.1,0.2-0.2,0.4-0.4,0.5c-0.2,0.1-0.5,0.2-0.9,0.2
				c-0.3,0-0.6-0.1-0.8-0.2s-0.4-0.3-0.5-0.5c-0.1-0.2-0.1-0.5-0.1-0.9v-2.1H38v2.1c0,0.3,0,0.6,0.1,0.7c0.1,0.2,0.2,0.3,0.3,0.3
				c0.1,0.1,0.3,0.1,0.5,0.1c0.4,0,0.6-0.1,0.8-0.2c0.2-0.2,0.2-0.5,0.2-0.9V47.6z"/>
			<path class="st0" d="M41.1,51.3v-2.6h0.4V49c0.2-0.3,0.5-0.4,0.8-0.4c0.2,0,0.3,0,0.4,0.1c0.1,0.1,0.2,0.1,0.3,0.2
				c0.1,0.1,0.1,0.2,0.1,0.3c0,0.1,0,0.2,0,0.4v1.6h-0.4v-1.6c0-0.2,0-0.3-0.1-0.4c0-0.1-0.1-0.2-0.2-0.2C42.5,49,42.4,49,42.2,49
				c-0.2,0-0.4,0.1-0.5,0.2c-0.1,0.1-0.2,0.4-0.2,0.7v1.4H41.1z"/>
			<path class="st0" d="M43.9,48.2v-0.5h0.4v0.5H43.9z M43.9,51.3v-2.6h0.4v2.6H43.9z"/>
			<path class="st0" d="M46.9,50.4l0.5,0.1c-0.1,0.3-0.2,0.5-0.4,0.6c-0.2,0.1-0.4,0.2-0.8,0.2c-0.4,0-0.7-0.1-0.9-0.4
				c-0.2-0.2-0.3-0.6-0.3-1c0-0.4,0.1-0.8,0.3-1c0.2-0.2,0.5-0.4,0.9-0.4c0.4,0,0.6,0.1,0.9,0.4c0.2,0.2,0.3,0.6,0.3,1
				c0,0,0,0.1,0,0.1h-2c0,0.3,0.1,0.5,0.2,0.7c0.1,0.2,0.3,0.2,0.6,0.2c0.2,0,0.3,0,0.4-0.1C46.7,50.8,46.8,50.6,46.9,50.4z
				 M45.4,49.7h1.5c0-0.2-0.1-0.4-0.2-0.5C46.6,49,46.4,49,46.1,49c-0.2,0-0.4,0.1-0.5,0.2C45.5,49.3,45.4,49.5,45.4,49.7z"/>
			<path class="st0" d="M47.7,50.5l0.4-0.1c0,0.2,0.1,0.3,0.2,0.4c0.1,0.1,0.3,0.1,0.5,0.1c0.2,0,0.4,0,0.5-0.1
				c0.1-0.1,0.1-0.2,0.1-0.3c0-0.1,0-0.2-0.1-0.2c-0.1,0-0.2-0.1-0.5-0.2c-0.3-0.1-0.6-0.2-0.7-0.2c-0.1-0.1-0.2-0.1-0.3-0.3
				c-0.1-0.1-0.1-0.2-0.1-0.4c0-0.1,0-0.2,0.1-0.3c0.1-0.1,0.1-0.2,0.2-0.2c0.1-0.1,0.2-0.1,0.3-0.1c0.1,0,0.2-0.1,0.4-0.1
				c0.2,0,0.4,0,0.5,0.1c0.2,0.1,0.3,0.1,0.3,0.2c0.1,0.1,0.1,0.2,0.2,0.4l-0.4,0.1c0-0.1-0.1-0.2-0.2-0.3C49.1,49,49,49,48.8,49
				c-0.2,0-0.4,0-0.4,0.1s-0.1,0.1-0.1,0.2c0,0.1,0,0.1,0.1,0.2c0,0,0.1,0.1,0.2,0.1c0,0,0.2,0.1,0.4,0.1c0.3,0.1,0.5,0.2,0.7,0.2
				c0.1,0.1,0.2,0.1,0.3,0.2c0.1,0.1,0.1,0.2,0.1,0.4c0,0.1,0,0.3-0.1,0.4c-0.1,0.1-0.2,0.2-0.4,0.3c-0.2,0.1-0.4,0.1-0.6,0.1
				c-0.3,0-0.6-0.1-0.8-0.2C47.9,51,47.8,50.8,47.7,50.5z"/>
		</g>
		<g>
			<path class="st0" d="M14.5,57.9v-3.7h0.4v0.3c0.1-0.1,0.2-0.2,0.3-0.3c0.1-0.1,0.3-0.1,0.4-0.1c0.2,0,0.4,0.1,0.6,0.2
				c0.2,0.1,0.3,0.3,0.4,0.5c0.1,0.2,0.1,0.4,0.1,0.7c0,0.3,0,0.5-0.1,0.7c-0.1,0.2-0.2,0.4-0.4,0.5c-0.2,0.1-0.4,0.2-0.6,0.2
				c-0.1,0-0.3,0-0.4-0.1c-0.1-0.1-0.2-0.1-0.3-0.2v1.3H14.5z M14.9,55.6c0,0.3,0.1,0.6,0.2,0.8c0.1,0.2,0.3,0.2,0.5,0.2
				c0.2,0,0.4-0.1,0.5-0.3c0.1-0.2,0.2-0.4,0.2-0.8c0-0.3-0.1-0.6-0.2-0.8c-0.1-0.2-0.3-0.3-0.5-0.3c-0.2,0-0.4,0.1-0.5,0.3
				C14.9,55,14.9,55.2,14.9,55.6z"/>
			<path class="st0" d="M17.1,55.5c0-0.5,0.1-0.9,0.4-1.1c0.2-0.2,0.5-0.3,0.8-0.3c0.4,0,0.7,0.1,0.9,0.4c0.2,0.2,0.3,0.6,0.3,1
				c0,0.3-0.1,0.6-0.2,0.8c-0.1,0.2-0.3,0.3-0.4,0.5c-0.2,0.1-0.4,0.2-0.6,0.2c-0.4,0-0.7-0.1-0.9-0.4C17.2,56.3,17.1,56,17.1,55.5z
				 M17.6,55.5c0,0.3,0.1,0.6,0.2,0.8s0.3,0.3,0.6,0.3c0.2,0,0.4-0.1,0.6-0.3c0.1-0.2,0.2-0.4,0.2-0.8c0-0.3-0.1-0.6-0.2-0.7
				c-0.1-0.2-0.3-0.3-0.6-0.3c-0.2,0-0.4,0.1-0.6,0.3S17.6,55.2,17.6,55.5z"/>
			<path class="st0" d="M21.9,56.9v-0.4c-0.2,0.3-0.5,0.4-0.8,0.4c-0.2,0-0.3,0-0.4-0.1c-0.1-0.1-0.2-0.1-0.3-0.2
				c-0.1-0.1-0.1-0.2-0.1-0.3c0-0.1,0-0.2,0-0.4v-1.6h0.4v1.5c0,0.2,0,0.4,0,0.5c0,0.1,0.1,0.2,0.2,0.3c0.1,0.1,0.2,0.1,0.3,0.1
				c0.1,0,0.3,0,0.4-0.1c0.1-0.1,0.2-0.2,0.2-0.3c0-0.1,0.1-0.3,0.1-0.5v-1.4h0.4v2.6H21.9z"/>
			<path class="st0" d="M23,56.9v-2.6h0.4v0.4c0.1-0.2,0.2-0.3,0.3-0.4c0.1-0.1,0.2-0.1,0.3-0.1c0.2,0,0.3,0,0.5,0.1l-0.2,0.4
				c-0.1-0.1-0.2-0.1-0.3-0.1c-0.1,0-0.2,0-0.3,0.1c-0.1,0.1-0.1,0.1-0.2,0.2c0,0.2-0.1,0.3-0.1,0.5v1.4H23z"/>
			<path class="st0" d="M26.1,56.9v-3.6h0.4v3.6H26.1z"/>
			<path class="st0" d="M27.2,53.7v-0.5h0.5v0.4c0,0.2,0,0.4-0.1,0.5c-0.1,0.1-0.2,0.2-0.3,0.3l-0.1-0.2c0.1,0,0.2-0.1,0.2-0.2
				c0-0.1,0.1-0.2,0.1-0.3H27.2z"/>
			<path class="st0" d="M30.1,56l0.5,0.1c-0.1,0.3-0.2,0.5-0.4,0.6c-0.2,0.1-0.4,0.2-0.8,0.2c-0.4,0-0.7-0.1-0.9-0.4
				c-0.2-0.2-0.3-0.6-0.3-1c0-0.4,0.1-0.8,0.3-1c0.2-0.2,0.5-0.4,0.9-0.4c0.4,0,0.6,0.1,0.9,0.4c0.2,0.2,0.3,0.6,0.3,1
				c0,0,0,0.1,0,0.1h-2c0,0.3,0.1,0.5,0.2,0.7c0.1,0.2,0.3,0.2,0.6,0.2c0.2,0,0.3,0,0.4-0.1C30,56.3,30.1,56.2,30.1,56z M28.7,55.3
				h1.5c0-0.2-0.1-0.4-0.2-0.5c-0.1-0.2-0.3-0.3-0.6-0.3c-0.2,0-0.4,0.1-0.5,0.2C28.8,54.9,28.7,55.1,28.7,55.3z M29.2,53.9l0.3-0.7
				h0.6l-0.5,0.7H29.2z"/>
			<path class="st0" d="M32.9,56.9v-0.3c-0.2,0.3-0.4,0.4-0.7,0.4c-0.2,0-0.4-0.1-0.6-0.2c-0.2-0.1-0.3-0.3-0.4-0.5
				C31.1,56,31,55.8,31,55.5c0-0.3,0-0.5,0.1-0.7c0.1-0.2,0.2-0.4,0.4-0.5c0.2-0.1,0.4-0.2,0.6-0.2c0.2,0,0.3,0,0.4,0.1
				s0.2,0.2,0.3,0.3v-1.3h0.4v3.6H32.9z M31.5,55.5c0,0.3,0.1,0.6,0.2,0.8c0.1,0.2,0.3,0.3,0.5,0.3c0.2,0,0.4-0.1,0.5-0.2
				c0.1-0.2,0.2-0.4,0.2-0.7c0-0.4-0.1-0.6-0.2-0.8s-0.3-0.3-0.5-0.3c-0.2,0-0.4,0.1-0.5,0.2C31.5,54.9,31.5,55.2,31.5,55.5z"/>
			<path class="st0" d="M35.7,56.9v-0.4c-0.2,0.3-0.5,0.4-0.8,0.4c-0.2,0-0.3,0-0.4-0.1c-0.1-0.1-0.2-0.1-0.3-0.2
				c-0.1-0.1-0.1-0.2-0.1-0.3c0-0.1,0-0.2,0-0.4v-1.6h0.4v1.5c0,0.2,0,0.4,0,0.5c0,0.1,0.1,0.2,0.2,0.3c0.1,0.1,0.2,0.1,0.3,0.1
				c0.1,0,0.3,0,0.4-0.1c0.1-0.1,0.2-0.2,0.3-0.3c0-0.1,0.1-0.3,0.1-0.5v-1.4h0.4v2.6H35.7z"/>
			<path class="st0" d="M38.6,55.9l0.4,0.1c0,0.3-0.2,0.5-0.4,0.7c-0.2,0.2-0.4,0.3-0.7,0.3c-0.4,0-0.7-0.1-0.9-0.4
				c-0.2-0.2-0.3-0.6-0.3-1c0-0.3,0-0.5,0.1-0.7c0.1-0.2,0.2-0.4,0.4-0.5c0.2-0.1,0.4-0.2,0.6-0.2c0.3,0,0.5,0.1,0.7,0.2
				c0.2,0.1,0.3,0.4,0.4,0.6l-0.4,0.1c0-0.2-0.1-0.3-0.2-0.4c-0.1-0.1-0.2-0.1-0.4-0.1c-0.2,0-0.4,0.1-0.5,0.2s-0.2,0.4-0.2,0.8
				c0,0.4,0.1,0.6,0.2,0.8c0.1,0.2,0.3,0.2,0.5,0.2c0.2,0,0.3-0.1,0.4-0.2C38.5,56.3,38.5,56.1,38.6,55.9z"/>
			<path class="st0" d="M41.1,56.5c-0.2,0.1-0.3,0.2-0.5,0.3s-0.3,0.1-0.5,0.1c-0.3,0-0.5-0.1-0.7-0.2c-0.2-0.1-0.2-0.3-0.2-0.5
				c0-0.1,0-0.2,0.1-0.4c0.1-0.1,0.1-0.2,0.2-0.3c0.1-0.1,0.2-0.1,0.3-0.1c0.1,0,0.2,0,0.4-0.1c0.4,0,0.6-0.1,0.8-0.2
				c0-0.1,0-0.1,0-0.1c0-0.2,0-0.3-0.1-0.4c-0.1-0.1-0.3-0.2-0.5-0.2c-0.2,0-0.4,0-0.5,0.1c-0.1,0.1-0.2,0.2-0.2,0.4L39.3,55
				c0-0.2,0.1-0.3,0.2-0.5c0.1-0.1,0.2-0.2,0.4-0.3c0.2-0.1,0.4-0.1,0.6-0.1c0.2,0,0.4,0,0.6,0.1c0.1,0.1,0.2,0.1,0.3,0.2
				c0.1,0.1,0.1,0.2,0.1,0.3c0,0.1,0,0.2,0,0.4v0.6c0,0.4,0,0.7,0,0.8s0.1,0.2,0.1,0.3h-0.5C41.2,56.8,41.1,56.7,41.1,56.5z
				 M41.1,55.5c-0.2,0.1-0.4,0.1-0.7,0.2c-0.2,0-0.3,0.1-0.4,0.1c-0.1,0-0.1,0.1-0.2,0.1c0,0.1-0.1,0.1-0.1,0.2c0,0.1,0,0.2,0.1,0.3
				c0.1,0.1,0.2,0.1,0.4,0.1c0.2,0,0.3,0,0.5-0.1c0.1-0.1,0.2-0.2,0.3-0.3c0-0.1,0.1-0.3,0.1-0.4V55.5z"/>
			<path class="st0" d="M43.2,56.5l0.1,0.4c-0.1,0-0.2,0-0.3,0c-0.2,0-0.3,0-0.4-0.1c-0.1-0.1-0.2-0.1-0.2-0.2
				c0-0.1-0.1-0.3-0.1-0.5v-1.5H42v-0.3h0.3v-0.7l0.4-0.3v0.9h0.5v0.3h-0.5v1.5c0,0.1,0,0.2,0,0.2c0,0,0,0.1,0.1,0.1
				c0,0,0.1,0,0.2,0C43.1,56.5,43.1,56.5,43.2,56.5z"/>
			<path class="st0" d="M43.6,53.7v-0.5h0.4v0.5H43.6z M43.6,56.9v-2.6h0.4v2.6H43.6z"/>
			<path class="st0" d="M44.6,55.5c0-0.5,0.1-0.9,0.4-1.1c0.2-0.2,0.5-0.3,0.8-0.3c0.4,0,0.7,0.1,0.9,0.4c0.2,0.2,0.3,0.6,0.3,1
				c0,0.3-0.1,0.6-0.2,0.8c-0.1,0.2-0.3,0.3-0.4,0.5c-0.2,0.1-0.4,0.2-0.6,0.2c-0.4,0-0.7-0.1-0.9-0.4C44.7,56.3,44.6,56,44.6,55.5z
				 M45.1,55.5c0,0.3,0.1,0.6,0.2,0.8c0.1,0.2,0.3,0.3,0.6,0.3c0.2,0,0.4-0.1,0.6-0.3c0.1-0.2,0.2-0.4,0.2-0.8
				c0-0.3-0.1-0.6-0.2-0.7c-0.1-0.2-0.3-0.3-0.6-0.3c-0.2,0-0.4,0.1-0.6,0.3C45.1,54.9,45.1,55.2,45.1,55.5z"/>
			<path class="st0" d="M47.6,56.9v-2.6H48v0.4c0.2-0.3,0.5-0.4,0.8-0.4c0.2,0,0.3,0,0.4,0.1c0.1,0.1,0.2,0.1,0.3,0.2
				c0.1,0.1,0.1,0.2,0.1,0.3c0,0.1,0,0.2,0,0.4v1.6h-0.4v-1.6c0-0.2,0-0.3-0.1-0.4c0-0.1-0.1-0.2-0.2-0.2c-0.1-0.1-0.2-0.1-0.3-0.1
				c-0.2,0-0.4,0.1-0.5,0.2c-0.1,0.1-0.2,0.4-0.2,0.7v1.4H47.6z"/>
			<path class="st0" d="M50.6,56.9v-0.5h0.5v0.5c0,0.2,0,0.3-0.1,0.5c-0.1,0.1-0.2,0.2-0.3,0.3l-0.1-0.2c0.1,0,0.2-0.1,0.2-0.2
				c0-0.1,0.1-0.2,0.1-0.3H50.6z"/>
		</g>
		<g>
			<path class="st0" d="M0,62.4v-3.6h0.4v3.6H0z"/>
			<path class="st0" d="M2.9,62.1c-0.2,0.1-0.3,0.2-0.5,0.3c-0.2,0.1-0.3,0.1-0.5,0.1c-0.3,0-0.5-0.1-0.7-0.2
				C1.1,62.1,1,61.9,1,61.7c0-0.1,0-0.2,0.1-0.4s0.1-0.2,0.2-0.3C1.4,61,1.5,61,1.6,61c0.1,0,0.2,0,0.4-0.1c0.4,0,0.6-0.1,0.8-0.2
				c0-0.1,0-0.1,0-0.1c0-0.2,0-0.3-0.1-0.4c-0.1-0.1-0.3-0.2-0.5-0.2c-0.2,0-0.4,0-0.5,0.1c-0.1,0.1-0.2,0.2-0.2,0.4l-0.4-0.1
				c0-0.2,0.1-0.3,0.2-0.5c0.1-0.1,0.2-0.2,0.4-0.3c0.2-0.1,0.4-0.1,0.6-0.1c0.2,0,0.4,0,0.5,0.1C3,59.9,3.1,59.9,3.1,60
				c0.1,0.1,0.1,0.2,0.1,0.3c0,0.1,0,0.2,0,0.4v0.6c0,0.4,0,0.7,0,0.8c0,0.1,0.1,0.2,0.1,0.3H3C2.9,62.3,2.9,62.2,2.9,62.1z
				 M2.8,61.1c-0.2,0.1-0.4,0.1-0.7,0.2c-0.2,0-0.3,0.1-0.4,0.1c-0.1,0-0.1,0.1-0.2,0.1c0,0.1-0.1,0.1-0.1,0.2c0,0.1,0,0.2,0.1,0.3
				c0.1,0.1,0.2,0.1,0.4,0.1c0.2,0,0.3,0,0.5-0.1c0.1-0.1,0.2-0.2,0.3-0.3c0-0.1,0.1-0.3,0.1-0.4V61.1z"/>
			<path class="st0" d="M5.2,61.6l0.4-0.1c0,0.2,0.1,0.3,0.2,0.4c0.1,0.1,0.3,0.1,0.5,0.1c0.2,0,0.4,0,0.5-0.1
				c0.1-0.1,0.1-0.2,0.1-0.3c0-0.1,0-0.2-0.1-0.2c-0.1,0-0.2-0.1-0.5-0.2c-0.3-0.1-0.6-0.2-0.7-0.2c-0.1-0.1-0.2-0.1-0.3-0.3
				c-0.1-0.1-0.1-0.2-0.1-0.4c0-0.1,0-0.2,0.1-0.3c0.1-0.1,0.1-0.2,0.2-0.2c0.1-0.1,0.2-0.1,0.3-0.1c0.1,0,0.2-0.1,0.4-0.1
				c0.2,0,0.4,0,0.5,0.1C7,59.9,7.1,59.9,7.2,60c0.1,0.1,0.1,0.2,0.2,0.4l-0.4,0.1c0-0.1-0.1-0.2-0.2-0.3c-0.1-0.1-0.2-0.1-0.4-0.1
				c-0.2,0-0.4,0-0.4,0.1c-0.1,0.1-0.1,0.1-0.1,0.2c0,0.1,0,0.1,0.1,0.2c0,0,0.1,0.1,0.2,0.1c0,0,0.2,0.1,0.4,0.1
				C6.7,60.9,6.9,61,7,61c0.1,0.1,0.2,0.1,0.3,0.2c0.1,0.1,0.1,0.2,0.1,0.4c0,0.1,0,0.3-0.1,0.4c-0.1,0.1-0.2,0.2-0.4,0.3
				c-0.2,0.1-0.3,0.1-0.6,0.1c-0.3,0-0.6-0.1-0.8-0.2C5.4,62.1,5.3,61.9,5.2,61.6z"/>
			<path class="st0" d="M9.7,61.5l0.4,0.1c0,0.3-0.2,0.5-0.4,0.7c-0.2,0.2-0.4,0.3-0.7,0.3c-0.4,0-0.7-0.1-0.9-0.4
				c-0.2-0.2-0.3-0.6-0.3-1c0-0.3,0-0.5,0.1-0.7C8,60.1,8.2,60,8.4,59.9c0.2-0.1,0.4-0.2,0.6-0.2c0.3,0,0.5,0.1,0.7,0.2
				c0.2,0.1,0.3,0.4,0.4,0.6l-0.4,0.1c0-0.2-0.1-0.3-0.2-0.4c-0.1-0.1-0.2-0.1-0.4-0.1c-0.2,0-0.4,0.1-0.6,0.2
				c-0.1,0.2-0.2,0.4-0.2,0.8c0,0.4,0.1,0.6,0.2,0.8C8.6,62,8.8,62.1,9,62.1c0.2,0,0.3-0.1,0.4-0.2C9.6,61.8,9.6,61.7,9.7,61.5z"/>
			<path class="st0" d="M10.5,59.3v-0.5h0.4v0.5H10.5z M10.5,62.4v-2.6h0.4v2.6H10.5z"/>
			<path class="st0" d="M13.4,61.6l0.5,0.1c-0.1,0.3-0.2,0.5-0.4,0.6c-0.2,0.1-0.4,0.2-0.8,0.2c-0.4,0-0.7-0.1-0.9-0.4
				c-0.2-0.2-0.3-0.6-0.3-1c0-0.4,0.1-0.8,0.3-1c0.2-0.2,0.5-0.4,0.9-0.4c0.4,0,0.6,0.1,0.9,0.4c0.2,0.2,0.3,0.6,0.3,1
				c0,0,0,0.1,0,0.1h-2c0,0.3,0.1,0.5,0.2,0.7c0.1,0.2,0.3,0.2,0.6,0.2c0.2,0,0.3,0,0.4-0.1C13.3,61.9,13.4,61.8,13.4,61.6z
				 M12,60.8h1.5c0-0.2-0.1-0.4-0.2-0.5c-0.1-0.2-0.3-0.3-0.6-0.3c-0.2,0-0.4,0.1-0.5,0.2C12.1,60.4,12,60.6,12,60.8z"/>
			<path class="st0" d="M14.5,62.4v-2.6h0.4v0.4c0.2-0.3,0.5-0.4,0.8-0.4c0.2,0,0.3,0,0.4,0.1c0.1,0.1,0.2,0.1,0.3,0.2
				c0.1,0.1,0.1,0.2,0.1,0.3c0,0.1,0,0.2,0,0.4v1.6h-0.4v-1.6c0-0.2,0-0.3-0.1-0.4c0-0.1-0.1-0.2-0.2-0.2c-0.1-0.1-0.2-0.1-0.3-0.1
				c-0.2,0-0.4,0.1-0.5,0.2c-0.1,0.1-0.2,0.4-0.2,0.7v1.4H14.5z"/>
			<path class="st0" d="M19,61.5l0.4,0.1c0,0.3-0.2,0.5-0.4,0.7c-0.2,0.2-0.4,0.3-0.7,0.3c-0.4,0-0.7-0.1-0.9-0.4s-0.3-0.6-0.3-1
				c0-0.3,0-0.5,0.1-0.7c0.1-0.2,0.2-0.4,0.4-0.5c0.2-0.1,0.4-0.2,0.6-0.2c0.3,0,0.5,0.1,0.7,0.2c0.2,0.1,0.3,0.4,0.4,0.6L19,60.6
				c0-0.2-0.1-0.3-0.2-0.4c-0.1-0.1-0.2-0.1-0.4-0.1c-0.2,0-0.4,0.1-0.6,0.2c-0.1,0.2-0.2,0.4-0.2,0.8c0,0.4,0.1,0.6,0.2,0.8
				c0.1,0.2,0.3,0.2,0.5,0.2c0.2,0,0.3-0.1,0.4-0.2C18.9,61.8,19,61.7,19,61.5z"/>
			<path class="st0" d="M21.7,61.6l0.5,0.1c-0.1,0.3-0.2,0.5-0.4,0.6c-0.2,0.1-0.4,0.2-0.8,0.2c-0.4,0-0.7-0.1-0.9-0.4
				c-0.2-0.2-0.3-0.6-0.3-1c0-0.4,0.1-0.8,0.3-1c0.2-0.2,0.5-0.4,0.9-0.4c0.4,0,0.6,0.1,0.9,0.4c0.2,0.2,0.3,0.6,0.3,1
				c0,0,0,0.1,0,0.1h-2c0,0.3,0.1,0.5,0.2,0.7c0.1,0.2,0.3,0.2,0.6,0.2c0.2,0,0.3,0,0.4-0.1C21.5,61.9,21.6,61.8,21.7,61.6z
				 M20.2,60.8h1.5c0-0.2-0.1-0.4-0.2-0.5c-0.1-0.2-0.3-0.3-0.6-0.3c-0.2,0-0.4,0.1-0.5,0.2C20.3,60.4,20.2,60.6,20.2,60.8z"/>
			<path class="st0" d="M25.9,61.6l0.5,0.1c-0.1,0.3-0.2,0.5-0.4,0.6c-0.2,0.1-0.4,0.2-0.8,0.2c-0.4,0-0.7-0.1-0.9-0.4
				c-0.2-0.2-0.3-0.6-0.3-1c0-0.4,0.1-0.8,0.3-1c0.2-0.2,0.5-0.4,0.9-0.4c0.4,0,0.6,0.1,0.9,0.4c0.2,0.2,0.3,0.6,0.3,1
				c0,0,0,0.1,0,0.1h-2c0,0.3,0.1,0.5,0.2,0.7c0.1,0.2,0.3,0.2,0.6,0.2c0.2,0,0.3,0,0.4-0.1C25.7,61.9,25.8,61.8,25.9,61.6z
				 M24.4,60.8h1.5c0-0.2-0.1-0.4-0.2-0.5c-0.1-0.2-0.3-0.3-0.6-0.3c-0.2,0-0.4,0.1-0.5,0.2C24.5,60.4,24.4,60.6,24.4,60.8z"/>
			<path class="st0" d="M27.9,62l0.1,0.4c-0.1,0-0.2,0-0.3,0c-0.2,0-0.3,0-0.4-0.1c-0.1-0.1-0.2-0.1-0.2-0.2c0-0.1-0.1-0.3-0.1-0.5
				v-1.5h-0.3v-0.3H27v-0.7l0.4-0.3v0.9h0.5v0.3h-0.5v1.5c0,0.1,0,0.2,0,0.2c0,0,0,0.1,0.1,0.1c0,0,0.1,0,0.2,0
				C27.8,62,27.8,62,27.9,62z"/>
			<path class="st0" d="M29.8,62.4v-3.6h0.4v3.6H29.8z"/>
			<path class="st0" d="M32.6,62.1c-0.2,0.1-0.3,0.2-0.5,0.3c-0.2,0.1-0.3,0.1-0.5,0.1c-0.3,0-0.5-0.1-0.7-0.2
				c-0.2-0.1-0.2-0.3-0.2-0.5c0-0.1,0-0.2,0.1-0.4c0.1-0.1,0.1-0.2,0.2-0.3c0.1-0.1,0.2-0.1,0.3-0.1c0.1,0,0.2,0,0.4-0.1
				c0.4,0,0.6-0.1,0.8-0.2c0-0.1,0-0.1,0-0.1c0-0.2,0-0.3-0.1-0.4c-0.1-0.1-0.3-0.2-0.5-0.2c-0.2,0-0.4,0-0.5,0.1
				c-0.1,0.1-0.2,0.2-0.2,0.4l-0.4-0.1c0-0.2,0.1-0.3,0.2-0.5c0.1-0.1,0.2-0.2,0.4-0.3c0.2-0.1,0.4-0.1,0.6-0.1c0.2,0,0.4,0,0.5,0.1
				c0.1,0.1,0.2,0.1,0.3,0.2s0.1,0.2,0.1,0.3c0,0.1,0,0.2,0,0.4v0.6c0,0.4,0,0.7,0,0.8c0,0.1,0.1,0.2,0.1,0.3h-0.5
				C32.7,62.3,32.6,62.2,32.6,62.1z M32.6,61.1c-0.2,0.1-0.4,0.1-0.7,0.2c-0.2,0-0.3,0.1-0.4,0.1c-0.1,0-0.1,0.1-0.2,0.1
				c0,0.1-0.1,0.1-0.1,0.2c0,0.1,0,0.2,0.1,0.3c0.1,0.1,0.2,0.1,0.4,0.1c0.2,0,0.3,0,0.5-0.1c0.1-0.1,0.2-0.2,0.3-0.3
				c0-0.1,0.1-0.3,0.1-0.4V61.1z"/>
			<path class="st0" d="M36.9,61.5l0.4,0.1c0,0.3-0.2,0.5-0.4,0.7c-0.2,0.2-0.4,0.3-0.7,0.3c-0.4,0-0.7-0.1-0.9-0.4s-0.3-0.6-0.3-1
				c0-0.3,0-0.5,0.1-0.7c0.1-0.2,0.2-0.4,0.4-0.5c0.2-0.1,0.4-0.2,0.6-0.2c0.3,0,0.5,0.1,0.7,0.2c0.2,0.1,0.3,0.4,0.4,0.6l-0.4,0.1
				c0-0.2-0.1-0.3-0.2-0.4c-0.1-0.1-0.2-0.1-0.4-0.1c-0.2,0-0.4,0.1-0.6,0.2c-0.1,0.2-0.2,0.4-0.2,0.8c0,0.4,0.1,0.6,0.2,0.8
				c0.1,0.2,0.3,0.2,0.5,0.2c0.2,0,0.3-0.1,0.4-0.2C36.8,61.8,36.8,61.7,36.9,61.5z"/>
			<path class="st0" d="M39.4,62.4V62c-0.2,0.3-0.5,0.4-0.8,0.4c-0.2,0-0.3,0-0.4-0.1c-0.1-0.1-0.2-0.1-0.3-0.2
				c-0.1-0.1-0.1-0.2-0.1-0.3c0-0.1,0-0.2,0-0.4v-1.6h0.4v1.5c0,0.2,0,0.4,0,0.5c0,0.1,0.1,0.2,0.2,0.3c0.1,0.1,0.2,0.1,0.3,0.1
				s0.3,0,0.4-0.1c0.1-0.1,0.2-0.2,0.3-0.3c0-0.1,0.1-0.3,0.1-0.5v-1.4h0.4v2.6H39.4z"/>
			<path class="st0" d="M40.5,62.4v-3.6H41v3.6H40.5z"/>
			<path class="st0" d="M42.6,62l0.1,0.4c-0.1,0-0.2,0-0.3,0c-0.2,0-0.3,0-0.4-0.1c-0.1-0.1-0.2-0.1-0.2-0.2c0-0.1-0.1-0.3-0.1-0.5
				v-1.5h-0.3v-0.3h0.3v-0.7l0.4-0.3v0.9h0.5v0.3h-0.5v1.5c0,0.1,0,0.2,0,0.2c0,0,0,0.1,0.1,0.1c0,0,0.1,0,0.2,0
				C42.5,62,42.6,62,42.6,62z"/>
			<path class="st0" d="M44.8,62.4V62c-0.2,0.3-0.5,0.4-0.8,0.4c-0.2,0-0.3,0-0.4-0.1c-0.1-0.1-0.2-0.1-0.3-0.2
				c-0.1-0.1-0.1-0.2-0.1-0.3c0-0.1,0-0.2,0-0.4v-1.6h0.4v1.5c0,0.2,0,0.4,0,0.5c0,0.1,0.1,0.2,0.2,0.3c0.1,0.1,0.2,0.1,0.3,0.1
				c0.1,0,0.3,0,0.4-0.1c0.1-0.1,0.2-0.2,0.3-0.3c0-0.1,0.1-0.3,0.1-0.5v-1.4h0.4v2.6H44.8z"/>
			<path class="st0" d="M45.9,62.4v-2.6h0.4v0.4c0.1-0.2,0.2-0.3,0.3-0.4c0.1-0.1,0.2-0.1,0.3-0.1c0.2,0,0.3,0,0.5,0.1l-0.2,0.4
				c-0.1-0.1-0.2-0.1-0.3-0.1c-0.1,0-0.2,0-0.3,0.1c-0.1,0.1-0.1,0.1-0.2,0.2c0,0.2-0.1,0.3-0.1,0.5v1.4H45.9z"/>
			<path class="st0" d="M49.4,61.6l0.5,0.1c-0.1,0.3-0.2,0.5-0.4,0.6c-0.2,0.1-0.4,0.2-0.8,0.2c-0.4,0-0.7-0.1-0.9-0.4
				c-0.2-0.2-0.3-0.6-0.3-1c0-0.4,0.1-0.8,0.3-1c0.2-0.2,0.5-0.4,0.9-0.4c0.4,0,0.6,0.1,0.9,0.4c0.2,0.2,0.3,0.6,0.3,1
				c0,0,0,0.1,0,0.1h-2c0,0.3,0.1,0.5,0.2,0.7c0.1,0.2,0.3,0.2,0.6,0.2c0.2,0,0.3,0,0.4-0.1C49.3,61.9,49.4,61.8,49.4,61.6z
				 M48,60.8h1.5c0-0.2-0.1-0.4-0.2-0.5c-0.1-0.2-0.3-0.3-0.6-0.3c-0.2,0-0.4,0.1-0.5,0.2C48,60.4,48,60.6,48,60.8z"/>
		</g>
	</g>
</g>
</svg>
