<?xml version="1.0" encoding="utf-8"?>
<!-- Generator: Adobe Illustrator 24.2.3, SVG Export Plug-In . SVG Version: 6.00 Build 0)  -->
<svg version="1.1" xmlns="http://www.w3.org/2000/svg" xmlns:xlink="http://www.w3.org/1999/xlink" x="0px" y="0px" width="69.8px"
	 height="11.7px" viewBox="0 0 69.8 11.7" style="enable-background:new 0 0 69.8 11.7;" xml:space="preserve">
<style type="text/css">
	.st0{fill:#FFFFFF;}
</style>
<g id="Calque_1">
</g>
<g id="Mode_Isolation">
	<g>
		<path class="st0" d="M1,8L1,8l0,0.9H0V0h1v3.9h0c0.5-0.8,1.2-1.2,2.1-1.2c0.8,0,1.4,0.3,1.8,0.8s0.7,1.3,0.7,2.2
			c0,1-0.2,1.8-0.7,2.4S3.6,9,2.8,9C2,9,1.4,8.7,1,8z M1,5.6v0.8c0,0.5,0.2,0.9,0.5,1.3s0.7,0.5,1.2,0.5c0.6,0,1-0.2,1.4-0.7
			s0.5-1.1,0.5-1.9c0-0.7-0.2-1.2-0.5-1.6S3.3,3.6,2.8,3.6c-0.6,0-1,0.2-1.3,0.6S1,5,1,5.6z"/>
		<path class="st0" d="M11.8,2.9l-2.8,7c-0.5,1.2-1.2,1.9-2.1,1.9c-0.3,0-0.5,0-0.6-0.1v-0.9c0.2,0.1,0.4,0.1,0.6,0.1
			c0.5,0,0.8-0.3,1.1-0.9l0.5-1.1l-2.3-6h1.1l1.6,4.6C8.9,7.6,8.9,7.7,9,8h0c0-0.1,0.1-0.2,0.1-0.4l1.7-4.6H11.8z"/>
		<path class="st0" d="M60.6,2.7l-3,2.2l3,2.1v2.5h-1.9l-3.4-2.7v2.7h-3V0.3h3V3l3.5-2.7h1.8L60.6,2.7z"/>
		<path class="st0" d="M69.8,0.2v9.4h-8.2V0.2H69.8z M66.8,2.7h-2.3v4.3h2.3V2.7z"/>
		<path class="st0" d="M28.4,0.2v9.4h-3V2.7h-1.1v6.8h-2.9V2.7h-1.1v6.8h-3V0.2H28.4z"/>
		<path class="st0" d="M37.8,0.2v9.4h-8.2V0.2H37.8z M34.8,2.7h-2.3v4.3h2.3V2.7z"/>
		<polygon class="st0" points="43,0.2 43,6.6 46,6.6 46,2.7 48.3,2.7 48.3,7.1 41.9,7.1 41.9,0.2 38.9,0.2 38.9,9.6 51.2,9.6 
			51.2,0.2 		"/>
	</g>
</g>
</svg>
