<?xml version="1.0" encoding="utf-8"?>
<!-- Generator: Adobe Illustrator 24.3.0, SVG Export Plug-In . SVG Version: 6.00 Build 0)  -->
<svg version="1.1" xmlns="http://www.w3.org/2000/svg" xmlns:xlink="http://www.w3.org/1999/xlink" x="0px" y="0px" width="11.9px"
	 height="22.7px" viewBox="0 0 11.9 22.7" style="enable-background:new 0 0 11.9 22.7;" xml:space="preserve">
<style type="text/css">
	.st0{fill-rule:evenodd;clip-rule:evenodd;}
</style>
<g id="Calque_1">
</g>
<g id="Mode_Isolation">
	<g>
		<path class="st0" d="M9.6,3.8c0.7,0,1.5,0,2.1,0c0.1,0,0.1,0,0.2,0V0.1c-0.4,0-0.7-0.1-1.2-0.1c-0.6,0-1.4,0-2.1,0
			C7.5,0,6.4,0.3,5.5,0.9C4.4,1.7,3.9,2.8,3.7,4C3.6,4.5,3.6,5,3.6,5.5c0,0.8,0,1.6,0,2.5v0.3H0v4.1h3.6v10.3h4.3V12.5h3.6
			c0.1-1.3,0.4-2.8,0.5-4.1c-0.2,0-0.5,0-0.7,0c-1,0-3.3,0-3.3,0s0-2,0-2.9C7.9,4.2,8.6,3.8,9.6,3.8z"/>
	</g>
</g>
</svg>
