<?xml version="1.0" encoding="utf-8"?>
<!-- Generator: Adobe Illustrator 24.3.0, SVG Export Plug-In . SVG Version: 6.00 Build 0)  -->
<svg version="1.1" xmlns="http://www.w3.org/2000/svg" xmlns:xlink="http://www.w3.org/1999/xlink" x="0px" y="0px" width="22.7px"
	 height="22.7px" viewBox="0 0 22.7 22.7" style="enable-background:new 0 0 22.7 22.7;" xml:space="preserve">
<g id="Calque_1">
</g>
<g id="Mode_Isolation">
	<g>
		<g>
			<path d="M17.5,22.7H5.1c-2.9,0-5.1-2.3-5.1-5.2V5.2C0,2.3,2.3,0,5.1,0h12.4c2.9,0,5.1,2.3,5.1,5.2v12.4
				C22.7,20.4,20.4,22.7,17.5,22.7z M5.1,2.3c-1.6,0-2.9,1.3-2.9,2.8v12.4c0,1.5,1.3,2.8,2.9,2.8h12.4c1.6,0,2.9-1.3,2.9-2.8V5.2
				c0-1.5-1.3-2.8-2.9-2.8H5.1z M11.3,17.3c-3.2,0-5.8-2.6-5.8-5.8s2.6-5.8,5.8-5.8s5.8,2.6,5.8,5.8S14.6,17.3,11.3,17.3z M11.3,7.9
				c-2,0-3.6,1.7-3.6,3.6s1.7,3.6,3.6,3.6s3.6-1.7,3.6-3.6C14.9,9.4,13.4,7.9,11.3,7.9z M17.4,4.1c-0.8,0-1.4,0.6-1.4,1.5
				c0,0.8,0.7,1.5,1.4,1.5c0.8,0,1.4-0.6,1.4-1.5C19,4.8,18.3,4.1,17.4,4.1z"/>
		</g>
	</g>
</g>
</svg>
