<?xml version="1.0" encoding="utf-8"?>
<!-- Generator: Adobe Illustrator 24.3.0, SVG Export Plug-In . SVG Version: 6.00 Build 0)  -->
<svg version="1.1" xmlns="http://www.w3.org/2000/svg" xmlns:xlink="http://www.w3.org/1999/xlink" x="0px" y="0px" width="151.9px"
	 height="81.4px" viewBox="0 0 151.9 81.4" style="enable-background:new 0 0 151.9 81.4;" xml:space="preserve">
<g id="Calque_1">
</g>
<g id="Mode_Isolation">
	<g>
		<path d="M100.7,31c-3.1,0-6.2,0-9.4,0c-0.3-1.5-0.6-3-0.9-4.5c-0.7-3.8-1.4-7.6-2.1-11.4c-0.1-0.6-0.3-1.2-0.5-1.8
			c-0.7-2.1-1.9-3.9-4.3-4.2c-2.6-0.4-5,0.2-6.8,2.3c-1.6,2-2.2,4.4-1.8,6.8c0.6,3.9,1.4,7.8,2.1,11.8c0.1,0.3,0.1,0.6,0.2,1
			c-3.2,0-6.3,0-9.5,0c-0.4-1.9-0.7-3.9-1.1-5.9c-0.4-2-0.8-4.1-1.2-6.1c-0.1-0.6-0.3-1.1-0.5-1.7c-1-2.4-2.6-4.1-5.4-4.1
			c-3,0-5.2,1.2-6.5,3.9c-1.2,2.4-0.9,5-0.4,7.6c0.4,2.1,0.8,4.2,1.2,6.4c-3.2,0-6.2,0-9.4,0c-0.4-2.1-0.8-4.2-1.2-6.3
			c-0.8-4.2-1.5-8.3-2.3-12.5c-0.5-2.7,0.4-4.2,3.1-4.8c0.6-0.1,1.1-0.3,1.7-0.3c2.1-0.3,3.1,0.4,4.3,2.9c2.5-3.6,5.9-5.5,10.2-5.8
			c4.3-0.4,7.9,0.9,10.8,4.4c0.6-1.3,1.2-2.5,2-3.5c4.4-5.9,16.4-8.1,22,1.2c1.6,2.7,2.4,5.6,2.9,8.6c0.9,5.1,1.9,10.1,2.8,15.2
			C100.7,30.4,100.7,30.7,100.7,31z"/>
		<path d="M49.1,56.5c0.2,0,0.4-0.1,0.5-0.1c2.7,0,5.3,0,8.1,0c0.3,1.6,0.6,3.2,0.9,4.8c0.3,1.8,0.7,3.5,1.1,5.3
			c0.3,1.1,0.8,2.2,1.5,3.2c1.4,1.9,3.3,2.7,5.6,2.4c1-0.1,1.9-0.3,2.9-0.5c3.1-0.8,4.7-2.7,4.8-6c0.1-2.5-0.6-4.8-1-7.2
			c-0.1-0.6-0.2-1.2-0.3-1.9c2.9,0,5.7,0,8.6,0c0.4,1.1,0.5,2.3,0.7,3.5c0.3,1.5,0.8,2.9,1.6,4.3c1.2,1.9,3,2.6,5.1,2.5
			c1.2-0.1,2.5-0.4,3.7-0.7c2.6-0.6,4.1-2.6,4.2-5.3c0.1-1.4-0.2-2.8-0.5-4.3c2.9,0,5.8,0,8.7,0C107,63.1,105.2,72.7,95,75
			c-1.8,0.4-3.5,0.8-5.3,0.7c-3.4,0-5.2-0.6-8.4-3c-0.1,0-0.2,0-0.2,0.1c-1.6,4.5-5,6.7-9.4,7.8c-3,0.7-6,1.2-9.1,0.4
			c-5.2-1.3-8.4-4.7-10.3-9.6c-1.3-3.3-1.6-6.8-2.3-10.2C49.7,59.7,49.4,58.1,49.1,56.5z"/>
		<path d="M0,37.9c0.8,0,1.5,0,2.3,0c0.5,1.8,1,3.7,1.5,5.8c0.7-1.9,1-3.8,1.6-5.7c0.7-0.2,1.5,0,2.4-0.1c0,3.7,0,7.3,0,11
			c-0.6,0.1-1.1,0.1-1.9,0c0-1.9,0-3.7,0-5.5c-0.1,0-0.2,0-0.3,0c-0.3,1.3-0.7,2.6-1,3.9c-0.5,0-1,0-1.6,0C2.8,45.8,2.4,44.4,2,43
			c-0.1,0-0.1,0-0.2,0c0,1.9,0,3.9,0,5.9c-0.7,0-1.2,0-1.9,0C0,45.2,0,41.6,0,37.9z"/>
		<path d="M19.6,48.8c-0.7,0.1-1.3,0.1-2,0c-0.7-1.9-1.3-3.9-2-5.8c0,0-0.1,0-0.1,0c0,1.9,0,3.8,0,5.8c-0.6,0.2-1.2,0.1-1.9,0.1
			c0-3.6,0-7.2,0-10.9c0.6-0.2,1.2-0.1,1.9-0.1c0.7,2,1.3,4,2,5.9c0.1,0,0.1,0,0.2,0c0-1.9,0-3.9,0-5.8c0.6-0.2,1.2-0.1,1.9-0.1
			C19.6,41.5,19.6,45.1,19.6,48.8z"/>
		<path d="M126.6,48.9c-0.8,0-1.4,0-2.1,0c0-3.6,0-7.2,0-10.9c0.6-0.2,1.2-0.1,2-0.1c0,1.5,0,2.9,0,4.4c0.6,0,1.2,0,1.8,0
			c0-1.4,0-2.9,0-4.3c0.8-0.1,1.4-0.1,2.1,0c0,3.6,0,7.2,0,10.9c-0.7,0.2-1.3,0-2.1,0.1c0-1.6,0-3.1,0-4.6c-0.6-0.2-1.2-0.1-1.8-0.1
			C126.6,45.8,126.6,47.3,126.6,48.9z"/>
		<path d="M58,48.9c-0.5,0.1-0.9,0.1-1.3,0c-0.8-2.2-1.7-4.5-2.5-6.7c-0.1,0-0.2,0-0.2,0c0,2.2,0,4.5,0,6.7c-0.5,0.1-0.9,0.1-1.3,0
			c0-3.7,0-7.3,0-10.9c0.4-0.1,0.8-0.1,1.3,0c0.8,2.2,1.7,4.5,2.5,6.8c0.1,0,0.2,0,0.3-0.1c0-2.2,0-4.5,0-6.7
			c0.5-0.2,0.9-0.2,1.3-0.1C58,41.6,58,45.2,58,48.9z"/>
		<path d="M115.2,41.6c-0.6,0-1.2,0-1.7,0c-0.3-0.3-0.1-0.8-0.2-1.1c-0.2-0.4-0.4-0.8-0.9-0.7c-0.6,0.1-0.8,0.5-0.8,1
			c0,0.6,0.4,1,0.8,1.3c0.9,0.7,1.9,1.3,2.5,2.3c0.8,1.2,0.8,2.6,0,3.6c-0.8,1-2.2,1.4-3.5,1c-1.4-0.4-1.9-1.5-1.7-3.3
			c0.6,0,1.1,0,1.8,0c0.3,0.2,0.1,0.6,0.2,0.9c0.2,0.5,0.5,0.7,1,0.6c0.5-0.1,0.7-0.4,0.8-0.9c0.1-0.6-0.3-1-0.7-1.4
			c-0.7-0.6-1.6-1.2-2.2-1.9c-1.7-1.8-1-4.5,1.3-5.1C113.7,37.5,115.8,39,115.2,41.6z"/>
		<path d="M132.2,48.8c0-3.7,0-7.2,0-10.9c1.7,0,3.4,0,5.2,0c0.2,0.6,0.2,1.1,0,1.8c-1,0-1.9,0-2.9,0c-0.2,0.9-0.1,1.7-0.1,2.5
			c0.8,0.3,1.6,0,2.5,0.2c0.2,0.5,0.1,1.1,0.1,1.8c-0.8,0-1.6,0-2.5,0c0,1,0,1.9,0,2.8c1,0,2,0,3,0c0.3,0.6,0.2,1.2,0.1,1.8
			C135.8,48.8,134.1,48.8,132.2,48.8z"/>
		<path d="M151.7,37.9c0.2,0.6,0.1,1.2,0.1,1.8c-1,0-2,0-3,0c-0.2,0.9-0.1,1.7-0.1,2.6c0.8,0,1.6,0,2.5,0c0.2,0.7,0.1,1.2,0.1,1.9
			c-0.8,0-1.6,0-2.5,0c0,1,0,1.9,0,2.8c1,0,2,0,3,0c0.2,0.6,0.1,1.2,0.1,1.8c-1.8,0-3.5,0-5.3,0c0-3.6,0-7.2,0-10.9
			C148.3,37.9,150,37.9,151.7,37.9z"/>
		<path d="M23.7,39.7c0,1,0,1.7,0,2.6c0.8,0,1.6,0,2.5,0c0,0.6,0,1.2,0,1.8c-0.7,0.3-1.6,0-2.4,0.2c-0.2,0.8,0,1.7-0.1,2.7
			c1,0.3,2.1,0,3.2,0.2c0.1,0.6,0.1,1.1,0,1.7c-1.8,0-3.5,0-5.3,0c0-3.6,0-7.2,0-10.9c1.7,0,3.4,0,5.2,0c0.2,0.5,0.1,1.1,0.1,1.8
			C25.8,39.7,24.8,39.7,23.7,39.7z"/>
		<path d="M49,37.9c0.4-0.1,0.8-0.1,1.4,0c0,1.3,0,2.7,0,4.1c0,1.5,0,3.1,0,4.6c-0.1,1.4-1.2,2.5-2.6,2.6c-1.4,0.1-2.8-0.9-2.8-2.3
			c-0.1-3,0-5.9,0-8.9c0.5-0.3,0.9-0.2,1.3-0.1c0.3,0.4,0.2,0.8,0.2,1.1c0,2.3,0,4.5,0,6.8c0,1.3,0.4,1.9,1.2,1.9
			c0.8,0,1.2-0.6,1.2-1.9c0-2.2,0-4.5,0-6.7C48.8,38.7,48.7,38.3,49,37.9z"/>
		<path d="M66.4,45.7c0.4,0,0.8,0,1.2,0c0,0.4,0.1,0.7,0.1,1.1c0.2,0.7,0.6,1.1,1.4,1c0.8-0.1,1.1-0.6,1.1-1.4
			c0-0.7-0.4-1.2-0.9-1.6c-0.7-0.6-1.5-1.2-2.1-1.8c-1.2-1.2-1.3-3.2-0.2-4.2c0.8-0.8,2.2-1,3.1-0.5c1,0.6,1.5,1.7,1.2,3.1
			c-0.4,0.1-0.7,0.1-1.2,0c0-0.3,0-0.7-0.1-1c-0.1-0.6-0.5-1.1-1.2-1c-0.8,0-1.1,0.5-1.2,1.2c-0.1,0.7,0.3,1.3,0.8,1.7
			c0.7,0.6,1.5,1.2,2.2,1.9c1.5,1.6,1.2,3.9-0.6,4.8c-1,0.4-1.9,0.4-2.8-0.3C66.4,47.9,66.2,46.8,66.4,45.7z"/>
		<path d="M77.2,45.4c0.5-0.1,0.9-0.1,1.3,0.1c0.2,1.2,0.1,2.3-0.9,3.1c-0.8,0.6-1.8,0.8-2.8,0.4c-1-0.4-1.6-1.2-1.6-2.3
			c0-2,0-4,0-6c0-1.7,1.1-2.7,2.7-2.7c1.5,0,2.6,1.1,2.6,2.7c0,0.2,0,0.5,0,0.7c-0.4,0.2-0.8,0.2-1.2,0c-0.2-0.3-0.1-0.6-0.2-0.9
			c-0.1-0.7-0.5-1.1-1.2-1.1c-0.7,0-1.2,0.4-1.2,1c-0.1,2.1-0.1,4.2,0,6.3c0,0.6,0.5,1.1,1.2,1.1c0.7,0,1.1-0.4,1.2-1
			C77.2,46.3,77.2,45.9,77.2,45.4z"/>
		<path d="M31.7,48.9c-0.8,0-1.4,0-2.2,0c0-3,0-6,0-9.1c-0.6,0-1.1-0.1-1.7-0.1c-0.3-0.6-0.2-1.1-0.1-1.8c1.8,0,3.6,0,5.4,0
			c0.2,0.5,0.1,1.1,0.1,1.7c-0.5,0.3-1,0.1-1.6,0.2C31.7,42.7,31.7,45.7,31.7,48.9z"/>
		<path d="M35.7,39.8c-0.7,0-1.2-0.1-1.7-0.1c-0.2-0.6-0.2-1.2,0-1.8c1.8,0,3.6,0,5.4,0c0.2,0.6,0.1,1.1,0,1.7c-0.5,0.3-1,0-1.6,0.2
			c0,2.9,0,5.9,0,8.9c-0.7,0.2-1.4,0.1-2.1,0.1C35.7,45.9,35.7,42.9,35.7,39.8z"/>
		<path d="M64.4,42.7c0,0.5,0,0.8,0,1.3c-0.9,0-1.7,0-2.5,0c0,1.2,0,2.3,0,3.5c1,0,2.1,0,3.1,0c0.2,0.5,0.1,0.9,0.1,1.3
			c-1.5,0-3,0-4.6,0c0-3.6,0-7.2,0-10.9c1.5,0,3,0,4.5,0c0.3,0.4,0.2,0.8,0.1,1.2c-1,0.2-2,0-3.1,0.1c0,1,0,2,0,3.2
			C62.6,42.7,63.5,42.4,64.4,42.7z"/>
		<path d="M98.6,48.9c0-3.7,0-7.3,0-11c0.7,0,1.3,0,2,0c0,3.6,0,7.2,0,10.9C100,49,99.4,48.9,98.6,48.9z"/>
		<path d="M11.8,48.9c-0.7,0-1.3,0-2,0c0-3.7,0-7.3,0-10.9c0.7,0,1.3,0,2,0C11.8,41.5,11.8,45.2,11.8,48.9z"/>
		<path d="M143.8,44.2c0.3-0.3,0.5-0.5,0.7-0.7c1.4-1.9,0.4-5.1-1.8-5.5c-1.2-0.2-2.4,0-3.6,0c0,3.7,0,7.3,0,11
			c0.7,0,1.4,0.1,2.1-0.1c0-1.4,0-2.7,0-4c0.1,0,0.3-0.1,0.4-0.1c1,1.2,0.9,3,1.6,4.3c0.7,0,1.3,0.1,2-0.1
			C144.7,47.2,144.3,45.7,143.8,44.2z M142.7,42.3c-0.3,0.6-0.9,0.4-1.5,0.3c0-1,0-1.9,0-2.8c0.6-0.1,1.2-0.3,1.5,0.3
			C143,40.8,143,41.6,142.7,42.3z"/>
		<path d="M96,43.4c0.2-0.3,0.4-0.5,0.6-0.7c1.2-1.9,0-4.6-2.2-4.8c-1-0.1-1.9,0-3,0c0,3.8,0,7.4,0,11c1.1,0,2.2,0.1,3.2,0
			c1.5-0.1,2.5-1.2,2.6-2.7C97.3,45.1,97.1,44.1,96,43.4z M93.4,39.8c1.4,0,1.6,0.2,1.6,1.6c0,1.1-0.3,1.2-1.6,1.1
			C93.3,41.6,93.3,40.7,93.4,39.8z M94.9,46.6c-0.3,0.6-0.9,0.5-1.5,0.4c0-0.9,0-1.8,0-2.7c0.6-0.1,1.1-0.2,1.5,0.3
			C95.2,45.2,95.2,45.9,94.9,46.6z"/>
		<path d="M108.2,40.5c-0.1-1.5-1.3-2.6-2.9-2.6c-1.6-0.1-3,0.9-3.1,2.4c-0.1,2.1-0.1,4.3,0,6.4c0.1,1.5,1.5,2.5,3.2,2.4
			c1.6-0.1,2.8-1.1,2.8-2.7c0-1,0-2,0-2.9C108.2,42.5,108.2,41.5,108.2,40.5z M106,46.3c0,0.5-0.2,0.9-0.8,1c-0.6,0-0.9-0.4-0.9-1
			c0-1.9,0-3.7,0-5.6c0-0.5,0.3-0.9,0.9-0.9c0.6,0,0.8,0.4,0.8,0.9c0,1,0,1.9,0,2.9c0,0,0,0,0,0C106,44.5,106.1,45.4,106,46.3z"/>
		<path d="M122.9,40.5c-0.1-1.4-1-2.5-2.4-2.6c-1.1-0.1-2.3,0-3.5,0c0,3.7,0,7.3,0,10.9c0.7,0,1.4,0,2.1,0c0-0.9,0-1.8,0-2.7
			c0.3,0,0.5,0,0.7,0c2,0,3.1-1.1,3.2-3.1C123,42.2,123,41.3,122.9,40.5z M119.1,44.1c0-1.4,0-2.9,0-4.3c1.5-0.2,1.7,0,1.7,1.4
			c0,0.5,0,0.9,0,1.4C120.8,44.1,120.6,44.3,119.1,44.1z"/>
		<path d="M82.8,49.1c1.5,0.1,2.8-0.9,2.9-2.3c0.1-2.2,0.1-4.5,0-6.7c-0.1-1.4-1.4-2.3-2.8-2.3c-1.5,0.1-2.5,1.1-2.6,2.5
			c0,1,0,2,0,3c0,1.1,0,2.1,0,3.2C80.3,48,81.3,49.1,82.8,49.1z M81.7,40.7c0-0.8,0.4-1.4,1.2-1.4c0.9,0,1.2,0.6,1.2,1.4
			c0,0.9,0,1.9,0,2.8c0,0.9,0,1.9,0,2.8c0,0.8-0.4,1.4-1.2,1.4c-0.9,0-1.2-0.6-1.2-1.4C81.7,44.4,81.7,42.6,81.7,40.7z"/>
	</g>
</g>
</svg>
