<?xml version="1.0" encoding="utf-8"?>
<!-- Generator: Adobe Illustrator 24.2.3, SVG Export Plug-In . SVG Version: 6.00 Build 0)  -->
<svg version="1.1" id="Calque_1" xmlns="http://www.w3.org/2000/svg" xmlns:xlink="http://www.w3.org/1999/xlink" x="0px" y="0px"
	 width="599.8px" height="79.3px" viewBox="0 0 599.8 79.3" style="enable-background:new 0 0 599.8 79.3;" xml:space="preserve">
<style type="text/css">
	.st0{fill:#FFFFFF;}
</style>
<g>
	<path class="st0" d="M0,0.4c5.5,0,10.4,0,16.3,0c3.4,12.8,6.9,25.9,10.7,40.4C32,27.1,34.2,14,38.1,0.8C43.2-0.7,48.6,0.7,54.6,0
		c0,25.9,0,51.2,0,76.9c-4,0.9-8,0.5-13.1,0.2c0-13,0-25.8,0-38.7c-0.6-0.1-1.2-0.1-1.8-0.2c-2.3,9.1-4.6,18.3-6.9,27.4
		c-3.8,0-7,0-11,0c-2.5-10-5-19.9-7.5-29.9c-0.4,0-0.8,0.1-1.1,0.1c0,13.5,0,27.1,0,41.1C8.5,77,4.6,77,0,77C0,51.7,0,26.5,0,0.4z"
		/>
	<path class="st0" d="M137.1,77c-4.6,0.7-8.9,0.7-13.7,0c-4.7-13.5-9.3-27-14-40.6c-0.3,0.1-0.6,0.1-0.9,0.2c0,13.4,0,26.9,0,40.3
		c-4.4,1.1-8.5,0.6-13.1,0.4c0-25.4,0-50.6,0-76.3c4.1-1.3,8.4-0.6,13.3-0.5c4.7,13.8,9.4,27.7,14.1,41.5c0.4-0.1,0.8-0.1,1.1-0.2
		c0-13.5,0-27.1,0-40.8c4.5-1.2,8.5-0.6,13.2-0.5C137.1,25.7,137.1,51,137.1,77z"/>
	<path class="st0" d="M405.8,77.1c-3.4,0.5-6.1,0.7-9.3-0.3c-5.8-15.4-11.7-31.2-17.6-46.9c-0.6,0.1-1.1,0.2-1.7,0.3
		c0,15.6,0,31.2,0,46.5c-3.6,1-6.2,1-9,0.3c0-25.6,0-50.9,0-76.2c3.1-0.9,5.7-0.8,9,0c5.8,15.7,11.7,31.6,17.6,47.5
		c0.6-0.1,1.2-0.3,1.8-0.4c0-15.6,0-31.3,0-46.6c3.4-1.5,6-1.1,9.2-0.6C405.8,26,405.8,51.3,405.8,77.1z"/>
	<path class="st0" d="M166,13.1c0,6.8,0,12.2,0,18.3c5.8,0,11.5,0,17.5,0c0,4.5,0,8.2,0,12.4c-5.2,1.9-11,0.1-17.1,1.1
		c-1.6,5.9-0.3,12.2-0.7,18.7c7.2,1.8,14.6-0.2,22.1,1.3c1,3.9,0.6,7.7,0.2,12c-12.3,0-24.4,0-36.9,0c0-25.2,0-50.3,0-76
		c11.8,0,23.7,0,36,0c1.7,3.5,1,7.5,0.4,12.2C180.4,13.1,173.5,13.1,166,13.1z"/>
	<path class="st0" d="M342.6,0.7c2.9-1,5.8-0.8,9.7,0.1c0,9.4,0,18.9,0,28.4c0,10.7,0.3,21.4-0.1,32c-0.4,10-8.2,17.4-17.9,18
		c-9.7,0.6-19.4-6.2-19.7-15.9c-0.7-20.7-0.2-41.5-0.2-62.1c3.3-1.8,6.2-1.1,9.1-0.8c2.1,2.5,1.2,5.3,1.2,7.9
		c0.1,15.9,0,31.8,0.1,47.6c0,9.1,2.8,13.3,8.7,13.1c5.7-0.1,8.3-4.4,8.4-13.5c0-15.6,0-31.2,0-46.8C341.8,6.1,341.1,3.3,342.6,0.7z
		"/>
	<path class="st0" d="M464.8,54.7c2.9,0,5.6,0,8.5,0c0.3,2.6,0.5,5.1,1,7.4c1.2,4.9,4.4,7.7,9.5,7c5.4-0.7,8-4.3,7.9-9.7
		c-0.1-4.8-2.5-8.3-6-11.2c-5-4.3-10.3-8.3-14.9-12.9c-8.5-8.4-9-22.2-1.6-29.6c5.7-5.7,15.1-7.2,22-3.5c7.1,3.9,10.2,11.8,8.5,22
		c-2.6,1-5.2,0.7-8.3,0.2c-0.2-2.3-0.3-4.8-0.8-7.1c-1-4.5-3.6-7.4-8.5-7.3c-5.3,0.1-7.7,3.6-8.4,8.4c-0.7,5.1,2,8.9,5.7,12.1
		c5.2,4.5,10.8,8.5,15.5,13.4c10.6,11.2,8.4,27.6-4,33.3c-6.8,3.1-13.5,2.6-19.4-1.8C464.6,70.3,463.3,63,464.8,54.7z"/>
	<path class="st0" d="M540.3,53.2c3.3-0.4,6-0.9,9,0.4c1.1,8.1,0.9,15.9-6.2,21.5c-5.8,4.5-12.4,5.4-19.3,2.5
		c-7.3-3-11.4-8.3-11.4-16.3c0-14-0.1-27.9,0-41.9c0.1-11.6,7.6-19.2,18.8-19.2C541.9,0.1,549,7.5,549.3,19c0,1.6-0.1,3.2-0.2,4.9
		c-3.1,1.4-5.9,1.1-8.6,0.3c-1.4-2.2-0.7-4.5-1.1-6.6c-0.8-4.6-3.2-7.6-8.1-7.6c-4.8,0-8.3,2.8-8.4,7.3c-0.4,14.8-0.4,29.5,0,44.3
		c0.1,4.5,3.5,7.4,8.3,7.5c4.9,0.1,7.5-2.9,8.5-7.3C540.3,59.2,540.1,56.4,540.3,53.2z"/>
	<path class="st0" d="M222,77.1c-5.6,0-9.9,0-15.3,0c0-20.9,0-42,0-63.4c-4.5-0.2-8-0.4-11.6-0.6c-1.8-4.1-1.2-8-0.5-12.4
		c12.7,0,25.2,0,38.1,0c1.6,3.7,0.8,7.6,0.6,11.8c-3.5,1.8-7.1,0.4-11.3,1.3C222,34.3,222,55.2,222,77.1z"/>
	<path class="st0" d="M249.6,13.6c-4.7-0.3-8.2-0.4-11.9-0.6c-1.3-4.3-1.2-8.2,0-12.5c12.7,0,25.2,0,38.1,0c1.1,4.1,0.8,8,0.2,11.9
		c-3.6,1.9-7.3,0.2-11.4,1.5c0,20.6,0,41.5,0,62.6c-5.2,1.6-9.7,0.7-15,0.9C249.6,56.1,249.6,35.2,249.6,13.6z"/>
	<path class="st0" d="M450.4,33.7c0,3.2,0,5.9,0,9.1c-6,0-11.6,0-17.7,0c0,8.3,0,16.1,0,24.7c7.2,0,14.4,0,21.4,0
		c1.6,3.4,0.9,6.1,0.7,9.4c-10.5,0-21.1,0-32.2,0c0-24.9,0-50.2,0-76.1c10.2,0,20.7,0,31.5,0c1.9,2.5,1.1,5.3,0.5,8.6
		c-7,1.6-14.1,0-21.7,1c0,7.1,0,14.3,0,22.1C438.1,34.2,444.2,32.1,450.4,33.7z"/>
	<path class="st0" d="M82.9,77.1c-4.9,0-9.2,0-13.9,0c0-25.6,0-50.9,0-76.6c4.7,0,9,0,13.9,0C82.9,25.9,82.9,51.2,82.9,77.1z"/>
	<path class="st0" d="M579.3,79.1c10.3,0.6,19.7-6.3,20-16.3c0.6-15.6,0.6-31.2-0.1-46.7c-0.4-9.6-9.5-16.3-19.5-15.9
		c-10.3,0.4-17.7,7.4-18,17.5c-0.2,7.1,0,14.2-0.1,21.3c0,7.4-0.2,14.8,0,22.2C561.9,71.2,569.1,78.5,579.3,79.1z M571.9,19.9
		c0-5.7,2.7-9.7,8.7-9.8c6.2,0,8.4,4.4,8.6,9.9c0.2,6.6,0,13.1,0,19.7c0,6.6,0,13.1,0,19.7c0,5.8-2.7,9.6-8.7,9.7
		c-6.2,0-8.6-4.1-8.6-9.8C571.9,46.2,571.9,33,571.9,19.9z"/>
</g>
</svg>
