<svg xmlns="http://www.w3.org/2000/svg" width="287.155" height="155.054" viewBox="0 0 287.155 155.054">
  <g id="Сгруппировать_836" data-name="Сгруппировать 836" transform="translate(-454.484 -14380.946)">
    <g id="Сгруппировать_828" data-name="Сгруппировать 828">
      <path id="Контур_4711" data-name="Контур 4711" d="M578.94,14382.157a1.211,1.211,0,1,1-1.211-1.211,1.213,1.213,0,0,1,1.211,1.211" fill="#fff"/>
      <path id="Контур_4712" data-name="Контур 4712" d="M578.94,14386.464a1.211,1.211,0,1,1-1.211-1.212,1.213,1.213,0,0,1,1.211,1.212" fill="#fff"/>
      <path id="Контур_4713" data-name="Контур 4713" d="M578.94,14391.132a1.211,1.211,0,1,1-1.211-1.211,1.213,1.213,0,0,1,1.211,1.211" fill="#fff"/>
      <path id="Контур_4714" data-name="Контур 4714" d="M578.94,14395.8a1.211,1.211,0,1,1-1.211-1.211,1.213,1.213,0,0,1,1.211,1.211" fill="#fff"/>
      <path id="Контур_4715" data-name="Контур 4715" d="M578.94,14400.833a1.211,1.211,0,1,1-1.211-1.211,1.213,1.213,0,0,1,1.211,1.211" fill="#fff"/>
      <path id="Контур_4716" data-name="Контур 4716" d="M578.94,14405.863a1.211,1.211,0,1,1-1.211-1.212,1.213,1.213,0,0,1,1.211,1.212" fill="#fff"/>
      <path id="Контур_4717" data-name="Контур 4717" d="M578.94,14411.038a1.211,1.211,0,1,1-1.211-1.212,1.213,1.213,0,0,1,1.211,1.212" fill="#fff"/>
      <path id="Контур_4718" data-name="Контур 4718" d="M578.94,14416.21a1.211,1.211,0,1,1-1.211-1.211,1.213,1.213,0,0,1,1.211,1.211" fill="#fff"/>
      <path id="Контур_4719" data-name="Контур 4719" d="M578.94,14421.816a1.211,1.211,0,1,1-1.211-1.211,1.213,1.213,0,0,1,1.211,1.211" fill="#fff"/>
      <path id="Контур_4720" data-name="Контур 4720" d="M578.94,14427.42a1.211,1.211,0,1,1-1.211-1.211,1.213,1.213,0,0,1,1.211,1.211" fill="#fff"/>
      <path id="Контур_4721" data-name="Контур 4721" d="M578.94,14433.313a1.211,1.211,0,1,1-1.211-1.213,1.213,1.213,0,0,1,1.211,1.213" fill="#fff"/>
      <path id="Контур_4722" data-name="Контур 4722" d="M578.94,14439.35a1.211,1.211,0,1,1-1.211-1.212,1.213,1.213,0,0,1,1.211,1.212" fill="#fff"/>
      <path id="Контур_4723" data-name="Контур 4723" d="M578.94,14445.673a1.211,1.211,0,1,1-1.211-1.211,1.214,1.214,0,0,1,1.211,1.211" fill="#fff"/>
      <path id="Контур_4724" data-name="Контур 4724" d="M578.94,14452.86a1.211,1.211,0,1,1-1.211-1.211,1.213,1.213,0,0,1,1.211,1.211" fill="#fff"/>
      <path id="Контур_4725" data-name="Контур 4725" d="M578.94,14460.763a1.211,1.211,0,1,1-1.211-1.212,1.214,1.214,0,0,1,1.211,1.212" fill="#fff"/>
      <path id="Контур_4726" data-name="Контур 4726" d="M578.94,14470.105a1.211,1.211,0,1,1-1.211-1.213,1.214,1.214,0,0,1,1.211,1.213" fill="#fff"/>
      <path id="Контур_4727" data-name="Контур 4727" d="M578.94,14480.166a1.211,1.211,0,1,1-1.211-1.212,1.214,1.214,0,0,1,1.211,1.212" fill="#fff"/>
      <path id="Контур_4728" data-name="Контур 4728" d="M578.94,14491.65a1.211,1.211,0,1,1-1.211-1.211,1.213,1.213,0,0,1,1.211,1.211" fill="#fff"/>
      <path id="Контур_4729" data-name="Контур 4729" d="M578.94,14504.608a1.211,1.211,0,1,1-1.211-1.214,1.211,1.211,0,0,1,1.211,1.214" fill="#fff"/>
      <path id="Контур_4730" data-name="Контур 4730" d="M578.94,14518.98a1.211,1.211,0,1,1-1.211-1.215,1.211,1.211,0,0,1,1.211,1.215" fill="#fff"/>
      <path id="Контур_4731" data-name="Контур 4731" d="M578.94,14534.791a1.211,1.211,0,1,1-1.211-1.214,1.212,1.212,0,0,1,1.211,1.214" fill="#fff"/>
      <rect id="Прямоугольник_285" data-name="Прямоугольник 285" width="71.092" height="2.98" transform="translate(485.643 14447.808)" fill="#fff"/>
      <rect id="Прямоугольник_286" data-name="Прямоугольник 286" width="78.991" height="2.98" transform="translate(481.62 14452.875)" fill="#fff"/>
      <rect id="Прямоугольник_287" data-name="Прямоугольник 287" width="86.593" height="2.981" transform="translate(477.894 14457.942)" fill="#fff"/>
      <rect id="Прямоугольник_288" data-name="Прямоугольник 288" width="71.092" height="2.98" transform="translate(485.643 14410.231)" fill="#fff"/>
      <path id="Контур_4732" data-name="Контур 4732" d="M500.027,14408.313l21.162-6.335,20.718,6.335h8.643l-29.361-9.091-29.808,9.091Z" fill="#fff"/>
      <path id="Контур_4733" data-name="Контур 4733" d="M485.644,14408.313l35.323-10.806,35.769,10.806v-3.205l-35.546-10.954-35.546,10.954Z" fill="#fff"/>
      <path id="Контур_4734" data-name="Контур 4734" d="M489.818,14443.945a2.293,2.293,0,0,0,2.532,2.234,2.126,2.126,0,0,0,2.386-2.234v-28.914h-1.864v28.987s0,.523-.67.523-.522-.67-.522-.67v-28.841h-1.862Z" fill="#fff"/>
      <path id="Контур_4735" data-name="Контур 4735" d="M501.517,14446.181h1.49v-18.728l1.863,18.728h1.565v-31.149H504.87v16.648l-1.863-16.648h-1.49Z" fill="#fff"/>
      <path id="Контур_4736" data-name="Контур 4736" d="M513.366,14446.181h4.768v-1.64h-2.683v-14.084h2.013v-1.713h-2.013V14416.6h2.013v-1.565h-4.1Z" fill="#fff"/>
      <path id="Контур_4737" data-name="Контур 4737" d="M540.788,14424.272v-7.006a2.327,2.327,0,0,0-2.459-2.235,2.238,2.238,0,0,0-2.383,2.235v26.68a2.176,2.176,0,0,0,2.383,2.234,2.265,2.265,0,0,0,2.459-2.234v-7.824h-1.862v7.824a.583.583,0,0,1-.6.595.722.722,0,0,1-.671-.595v-26.68a.657.657,0,0,1,.671-.671c.6,0,.6.671.6.671v7.006Z" fill="#fff"/>
      <path id="Контур_4738" data-name="Контур 4738" d="M552.637,14417.268a2.155,2.155,0,0,0-2.459-2.236,2.324,2.324,0,0,0-2.607,2.236v26.678a2.265,2.265,0,0,0,2.458,2.234,2.324,2.324,0,0,0,2.608-2.234Zm-1.788,26.678s.074.6-.671.6-.745-.6-.745-.6v-26.678a.657.657,0,0,1,.67-.672.684.684,0,0,1,.746.672Z" fill="#fff"/>
      <path id="Контур_4739" data-name="Контур 4739" d="M527.152,14443.945s0,.6-.485.559a.548.548,0,0,1-.485-.559v-7.824h-1.937v7.824a2.18,2.18,0,0,0,2.384,2.234,2.265,2.265,0,0,0,2.46-2.234s0-5.215,0-6.739c-.006-3.656-2.9-10.625-2.9-12.931v-7.008s-.075-.672.447-.672.523.672.523.672v7h1.937v-7a2.151,2.151,0,0,0-2.384-2.236,2.3,2.3,0,0,0-2.46,2.236v5.961c0,3.912,2.907,10.507,2.907,13.524Z" fill="#fff"/>
    </g>
    <g id="Сгруппировать_829" data-name="Сгруппировать 829">
      <path id="Контур_4740" data-name="Контур 4740" d="M597.5,14490.958l1.069.27a3.613,3.613,0,0,1-1.209,2.011,3.343,3.343,0,0,1-2.138.691,3.84,3.84,0,0,1-2.125-.531,3.337,3.337,0,0,1-1.247-1.541,5.505,5.505,0,0,1-.427-2.167,4.746,4.746,0,0,1,.483-2.2,3.316,3.316,0,0,1,1.373-1.429,4.025,4.025,0,0,1,1.959-.486,3.31,3.31,0,0,1,2.041.617,3.2,3.2,0,0,1,1.153,1.735l-1.054.249a2.5,2.5,0,0,0-.816-1.285,2.173,2.173,0,0,0-1.346-.4,2.614,2.614,0,0,0-1.558.446,2.364,2.364,0,0,0-.878,1.2,4.806,4.806,0,0,0-.254,1.552,4.942,4.942,0,0,0,.3,1.8,2.242,2.242,0,0,0,.935,1.149,2.618,2.618,0,0,0,1.373.38,2.3,2.3,0,0,0,1.522-.517A2.663,2.663,0,0,0,597.5,14490.958Z" fill="#fff"/>
      <path id="Контур_4741" data-name="Контур 4741" d="M599.387,14490.865a3.014,3.014,0,0,1,.9-2.41,2.723,2.723,0,0,1,1.84-.651,2.632,2.632,0,0,1,1.975.791,3.009,3.009,0,0,1,.766,2.187,3.861,3.861,0,0,1-.339,1.778,2.394,2.394,0,0,1-.986,1.006,2.876,2.876,0,0,1-1.416.358,2.628,2.628,0,0,1-1.987-.788A3.15,3.15,0,0,1,599.387,14490.865Zm1.02,0a2.494,2.494,0,0,0,.489,1.684,1.635,1.635,0,0,0,2.466,0,2.555,2.555,0,0,0,.49-1.715,2.422,2.422,0,0,0-.494-1.646,1.637,1.637,0,0,0-2.462,0A2.489,2.489,0,0,0,600.407,14490.865Z" fill="#fff"/>
      <path id="Контур_4742" data-name="Контур 4742" d="M606.035,14493.792v-5.856h.888v.821a2.094,2.094,0,0,1,.734-.69,2.049,2.049,0,0,1,1.043-.263,1.921,1.921,0,0,1,1.066.271,1.451,1.451,0,0,1,.588.756,2.1,2.1,0,0,1,1.808-1.026,1.778,1.778,0,0,1,1.339.482,2.06,2.06,0,0,1,.47,1.486v4.02h-.989v-3.689a2.72,2.72,0,0,0-.1-.856.826.826,0,0,0-.349-.422,1.091,1.091,0,0,0-.595-.16,1.391,1.391,0,0,0-1.027.411,1.811,1.811,0,0,0-.407,1.313v3.4h-.992v-3.8a1.685,1.685,0,0,0-.243-.992.919.919,0,0,0-.794-.331,1.444,1.444,0,0,0-.776.221,1.256,1.256,0,0,0-.515.645,3.649,3.649,0,0,0-.161,1.225v3.038Z" fill="#fff"/>
      <path id="Контур_4743" data-name="Контур 4743" d="M615.442,14493.792v-5.856h.888v.821a2.069,2.069,0,0,1,.734-.69,2.046,2.046,0,0,1,1.041-.263,1.918,1.918,0,0,1,1.067.271,1.44,1.44,0,0,1,.587.756,2.1,2.1,0,0,1,1.808-1.026,1.784,1.784,0,0,1,1.342.482,2.069,2.069,0,0,1,.467,1.486v4.02h-.987v-3.689a2.722,2.722,0,0,0-.1-.856.821.821,0,0,0-.351-.422,1.082,1.082,0,0,0-.6-.16,1.386,1.386,0,0,0-1.025.411,1.806,1.806,0,0,0-.409,1.313v3.4h-.992v-3.8a1.663,1.663,0,0,0-.243-.992.915.915,0,0,0-.794-.331,1.44,1.44,0,0,0-.774.221,1.256,1.256,0,0,0-.515.645,3.655,3.655,0,0,0-.16,1.225v3.038Z" fill="#fff"/>
      <path id="Контур_4744" data-name="Контур 4744" d="M624.854,14486.851v-1.142h.992v1.142Zm0,6.941v-5.856h.992v5.856Z" fill="#fff"/>
      <path id="Контур_4745" data-name="Контур 4745" d="M626.961,14492.044l.982-.155a1.367,1.367,0,0,0,.459.9,1.6,1.6,0,0,0,1.057.315,1.551,1.551,0,0,0,1.014-.279.831.831,0,0,0,.331-.653.6.6,0,0,0-.292-.528,4.265,4.265,0,0,0-1.015-.337,9.282,9.282,0,0,1-1.514-.477,1.442,1.442,0,0,1-.856-1.343,1.5,1.5,0,0,1,.179-.726,1.606,1.606,0,0,1,.487-.554,2.062,2.062,0,0,1,.631-.29,3.014,3.014,0,0,1,.859-.118,3.371,3.371,0,0,1,1.209.2,1.634,1.634,0,0,1,.769.537,2.1,2.1,0,0,1,.343.907l-.97.132a1.06,1.06,0,0,0-.385-.705,1.392,1.392,0,0,0-.894-.254,1.627,1.627,0,0,0-.977.226.661.661,0,0,0-.292.529.541.541,0,0,0,.122.348.868.868,0,0,0,.379.265c.1.038.393.122.878.254a12.218,12.218,0,0,1,1.468.46,1.5,1.5,0,0,1,.653.521,1.45,1.45,0,0,1,.239.85,1.666,1.666,0,0,1-.291.934,1.865,1.865,0,0,1-.834.679,3.057,3.057,0,0,1-1.235.239,2.755,2.755,0,0,1-1.74-.474A2.205,2.205,0,0,1,626.961,14492.044Z" fill="#fff"/>
      <path id="Контур_4746" data-name="Контур 4746" d="M632.607,14492.044l.982-.155a1.367,1.367,0,0,0,.459.9,1.6,1.6,0,0,0,1.057.315,1.551,1.551,0,0,0,1.014-.279.831.831,0,0,0,.331-.653.6.6,0,0,0-.292-.528,4.265,4.265,0,0,0-1.015-.337,9.279,9.279,0,0,1-1.514-.477,1.442,1.442,0,0,1-.856-1.343,1.5,1.5,0,0,1,.179-.726,1.606,1.606,0,0,1,.487-.554,2.062,2.062,0,0,1,.631-.29,3.012,3.012,0,0,1,.858-.118,3.364,3.364,0,0,1,1.209.2,1.632,1.632,0,0,1,.77.537,2.1,2.1,0,0,1,.343.907l-.97.132a1.06,1.06,0,0,0-.385-.705,1.392,1.392,0,0,0-.894-.254,1.627,1.627,0,0,0-.977.226.661.661,0,0,0-.292.529.541.541,0,0,0,.122.348.868.868,0,0,0,.379.265c.1.038.393.122.878.254a12.218,12.218,0,0,1,1.468.46,1.5,1.5,0,0,1,.653.521,1.45,1.45,0,0,1,.239.85,1.666,1.666,0,0,1-.291.934,1.865,1.865,0,0,1-.834.679,3.057,3.057,0,0,1-1.235.239,2.755,2.755,0,0,1-1.74-.474A2.205,2.205,0,0,1,632.607,14492.044Z" fill="#fff"/>
      <path id="Контур_4747" data-name="Контур 4747" d="M638.656,14486.851v-1.142h.992v1.142Zm0,6.941v-5.856h.992v5.856Z" fill="#fff"/>
      <path id="Контур_4748" data-name="Контур 4748" d="M640.789,14490.865a3.018,3.018,0,0,1,.9-2.41,2.724,2.724,0,0,1,1.841-.651,2.634,2.634,0,0,1,1.975.791,3.009,3.009,0,0,1,.766,2.187,3.873,3.873,0,0,1-.339,1.778,2.4,2.4,0,0,1-.987,1.006,2.875,2.875,0,0,1-1.415.358,2.626,2.626,0,0,1-1.987-.788A3.15,3.15,0,0,1,640.789,14490.865Zm1.021,0a2.494,2.494,0,0,0,.489,1.684,1.635,1.635,0,0,0,2.466,0,2.556,2.556,0,0,0,.489-1.715,2.422,2.422,0,0,0-.493-1.646,1.637,1.637,0,0,0-2.462,0A2.489,2.489,0,0,0,641.81,14490.865Z" fill="#fff"/>
      <path id="Контур_4749" data-name="Контур 4749" d="M647.437,14493.792v-5.856h.895v.833a2.1,2.1,0,0,1,1.862-.965,2.422,2.422,0,0,1,.973.191,1.528,1.528,0,0,1,.665.5,1.941,1.941,0,0,1,.309.733,5.8,5.8,0,0,1,.054.965v3.6H651.2v-3.562a2.684,2.684,0,0,0-.115-.907.952.952,0,0,0-.411-.479,1.3,1.3,0,0,0-.691-.18,1.612,1.612,0,0,0-1.1.4,1.985,1.985,0,0,0-.461,1.527v3.2Z" fill="#fff"/>
      <path id="Контур_4750" data-name="Контур 4750" d="M656.833,14493.792v-8.083h.992v8.083Z" fill="#fff"/>
      <path id="Контур_4751" data-name="Контур 4751" d="M663.2,14493.792v-.86a2.141,2.141,0,0,1-1.856.992,2.366,2.366,0,0,1-.969-.2,1.607,1.607,0,0,1-.667-.5,1.847,1.847,0,0,1-.3-.734,5.055,5.055,0,0,1-.062-.927v-3.629h.992v3.247a5.681,5.681,0,0,0,.063,1.05,1.03,1.03,0,0,0,.4.614,1.229,1.229,0,0,0,.749.224,1.635,1.635,0,0,0,.838-.229,1.266,1.266,0,0,0,.554-.623,3.14,3.14,0,0,0,.162-1.145v-3.138h.993v5.856Z" fill="#fff"/>
      <path id="Контур_4752" data-name="Контур 4752" d="M664.983,14493.792l2.139-3.044-1.979-2.812h1.241l.9,1.373q.252.393.407.656c.162-.242.31-.458.447-.644l.986-1.386h1.187l-2.025,2.758,2.179,3.1h-1.219l-1.2-1.82-.318-.489-1.538,2.31Z" fill="#fff"/>
      <path id="Контур_4753" data-name="Контур 4753" d="M675.3,14491.906l1.027.128a2.507,2.507,0,0,1-.9,1.394,2.705,2.705,0,0,1-1.676.5,2.677,2.677,0,0,1-2.039-.791,3.087,3.087,0,0,1-.752-2.219,3.231,3.231,0,0,1,.762-2.294,2.573,2.573,0,0,1,1.972-.816,2.506,2.506,0,0,1,1.919.8,3.174,3.174,0,0,1,.744,2.25c0,.06,0,.147,0,.265h-4.367a2.244,2.244,0,0,0,.546,1.478,1.613,1.613,0,0,0,1.223.514,1.517,1.517,0,0,0,.932-.287A1.9,1.9,0,0,0,675.3,14491.906Zm-3.258-1.605h3.27a2,2,0,0,0-.374-1.107,1.524,1.524,0,0,0-1.23-.573,1.573,1.573,0,0,0-1.15.458A1.812,1.812,0,0,0,672.04,14490.3Z" fill="#fff"/>
      <path id="Контур_4754" data-name="Контур 4754" d="M677.57,14493.792v-5.856h.888v.821a2.072,2.072,0,0,1,1.775-.953,1.912,1.912,0,0,1,1.066.271,1.442,1.442,0,0,1,.588.756,2.1,2.1,0,0,1,1.808-1.026,1.78,1.78,0,0,1,1.341.482,2.069,2.069,0,0,1,.468,1.486v4.02h-.987v-3.689a2.722,2.722,0,0,0-.1-.856.82.82,0,0,0-.351-.422,1.082,1.082,0,0,0-.6-.16,1.386,1.386,0,0,0-1.025.411,1.8,1.8,0,0,0-.409,1.313v3.4h-.992v-3.8a1.671,1.671,0,0,0-.243-.992.915.915,0,0,0-.794-.331,1.437,1.437,0,0,0-.774.221,1.256,1.256,0,0,0-.515.645,3.649,3.649,0,0,0-.161,1.225v3.038Z" fill="#fff"/>
      <path id="Контур_4755" data-name="Контур 4755" d="M687.892,14493.792h-.921v-8.083h.993v2.884a1.962,1.962,0,0,1,1.6-.789,2.43,2.43,0,0,1,1.022.219,2.059,2.059,0,0,1,.794.611,2.909,2.909,0,0,1,.487.951,3.876,3.876,0,0,1,.177,1.191,3.336,3.336,0,0,1-.744,2.325,2.319,2.319,0,0,1-1.786.822,1.865,1.865,0,0,1-1.626-.866Zm-.012-2.971a3.047,3.047,0,0,0,.286,1.521,1.419,1.419,0,0,0,2.394.2,2.565,2.565,0,0,0,.473-1.684,2.614,2.614,0,0,0-.453-1.693,1.389,1.389,0,0,0-1.1-.546,1.429,1.429,0,0,0-1.124.564A2.481,2.481,0,0,0,687.88,14490.821Z" fill="#fff"/>
      <path id="Контур_4756" data-name="Контур 4756" d="M692.888,14490.865a3.018,3.018,0,0,1,.9-2.41,2.724,2.724,0,0,1,1.841-.651,2.634,2.634,0,0,1,1.975.791,3.009,3.009,0,0,1,.765,2.187,3.874,3.874,0,0,1-.338,1.778,2.4,2.4,0,0,1-.987,1.006,2.875,2.875,0,0,1-1.415.358,2.626,2.626,0,0,1-1.987-.788A3.15,3.15,0,0,1,692.888,14490.865Zm1.02,0a2.494,2.494,0,0,0,.49,1.684,1.635,1.635,0,0,0,2.466,0,2.556,2.556,0,0,0,.489-1.715,2.422,2.422,0,0,0-.493-1.646,1.637,1.637,0,0,0-2.462,0A2.489,2.489,0,0,0,693.908,14490.865Z" fill="#fff"/>
      <path id="Контур_4757" data-name="Контур 4757" d="M703.374,14493.792v-.86a2.143,2.143,0,0,1-1.859.992,2.352,2.352,0,0,1-.966-.2,1.585,1.585,0,0,1-.668-.5,1.879,1.879,0,0,1-.307-.734,5.1,5.1,0,0,1-.06-.927v-3.629h.993v3.247a5.862,5.862,0,0,0,.06,1.05,1.03,1.03,0,0,0,.4.614,1.235,1.235,0,0,0,.75.224,1.632,1.632,0,0,0,.838-.229,1.272,1.272,0,0,0,.555-.623,3.136,3.136,0,0,0,.163-1.145v-3.138h.992v5.856Z" fill="#fff"/>
      <path id="Контур_4758" data-name="Контур 4758" d="M705.806,14493.792v-5.856h.892v.889a2.433,2.433,0,0,1,.632-.821,1.1,1.1,0,0,1,.637-.2,1.93,1.93,0,0,1,1.019.32l-.341.92a1.436,1.436,0,0,0-.728-.214.944.944,0,0,0-.585.2,1.059,1.059,0,0,0-.369.543,3.837,3.837,0,0,0-.165,1.157v3.066Z" fill="#fff"/>
      <path id="Контур_4759" data-name="Контур 4759" d="M709.4,14494.277l.966.143a.926.926,0,0,0,.335.651,1.664,1.664,0,0,0,1.01.275,1.771,1.771,0,0,0,1.063-.275,1.35,1.35,0,0,0,.507-.772,6.151,6.151,0,0,0,.073-1.272,2.045,2.045,0,0,1-1.62.766,2.214,2.214,0,0,1-1.871-.871,3.356,3.356,0,0,1-.662-2.09,3.888,3.888,0,0,1,.3-1.546,2.43,2.43,0,0,1,.878-1.095,2.367,2.367,0,0,1,1.354-.387,2.1,2.1,0,0,1,1.71.838v-.706h.914V14493a4.771,4.771,0,0,1-.279,1.938,2.019,2.019,0,0,1-.882.9,3.056,3.056,0,0,1-1.485.331,2.811,2.811,0,0,1-1.693-.471A1.6,1.6,0,0,1,709.4,14494.277Zm.822-3.519a2.544,2.544,0,0,0,.457,1.683,1.512,1.512,0,0,0,2.294,0,2.466,2.466,0,0,0,.463-1.652,2.4,2.4,0,0,0-.477-1.621,1.473,1.473,0,0,0-1.149-.546,1.434,1.434,0,0,0-1.125.538A2.386,2.386,0,0,0,710.217,14490.759Z" fill="#fff"/>
      <path id="Контур_4760" data-name="Контур 4760" d="M719.865,14491.906l1.026.128a2.507,2.507,0,0,1-.9,1.394,3.048,3.048,0,0,1-3.715-.295,3.091,3.091,0,0,1-.752-2.219,3.236,3.236,0,0,1,.762-2.294,2.575,2.575,0,0,1,1.973-.816,2.5,2.5,0,0,1,1.918.8,3.17,3.17,0,0,1,.744,2.25c0,.06,0,.147,0,.265h-4.367a2.249,2.249,0,0,0,.546,1.478,1.616,1.616,0,0,0,1.223.514,1.513,1.513,0,0,0,.932-.287A1.908,1.908,0,0,0,719.865,14491.906Zm-3.258-1.605h3.27a2,2,0,0,0-.375-1.107,1.523,1.523,0,0,0-1.229-.573,1.576,1.576,0,0,0-1.151.458A1.811,1.811,0,0,0,716.607,14490.3Z" fill="#fff"/>
      <path id="Контур_4761" data-name="Контур 4761" d="M721.767,14490.865a3.015,3.015,0,0,1,.9-2.41,2.721,2.721,0,0,1,1.84-.651,2.632,2.632,0,0,1,1.975.791,3.009,3.009,0,0,1,.766,2.187,3.861,3.861,0,0,1-.339,1.778,2.394,2.394,0,0,1-.986,1.006,2.879,2.879,0,0,1-1.416.358,2.628,2.628,0,0,1-1.987-.788A3.15,3.15,0,0,1,721.767,14490.865Zm1.021,0a2.494,2.494,0,0,0,.489,1.684,1.635,1.635,0,0,0,2.466,0,2.555,2.555,0,0,0,.489-1.715,2.422,2.422,0,0,0-.493-1.646,1.637,1.637,0,0,0-2.462,0A2.489,2.489,0,0,0,722.788,14490.865Z" fill="#fff"/>
      <path id="Контур_4762" data-name="Контур 4762" d="M728.422,14486.851v-1.142h.992v1.142Zm0,6.941v-5.856h.992v5.856Z" fill="#fff"/>
      <path id="Контур_4763" data-name="Контур 4763" d="M730.529,14492.044l.983-.155a1.362,1.362,0,0,0,.459.9,1.6,1.6,0,0,0,1.056.315,1.555,1.555,0,0,0,1.015-.279.834.834,0,0,0,.331-.653.6.6,0,0,0-.293-.528,4.23,4.23,0,0,0-1.015-.337,9.261,9.261,0,0,1-1.513-.477,1.441,1.441,0,0,1-.857-1.343,1.511,1.511,0,0,1,.179-.726,1.616,1.616,0,0,1,.487-.554,2.068,2.068,0,0,1,.632-.29,3,3,0,0,1,.858-.118,3.371,3.371,0,0,1,1.209.2,1.638,1.638,0,0,1,.77.537,2.123,2.123,0,0,1,.343.907l-.971.132a1.056,1.056,0,0,0-.385-.705,1.39,1.39,0,0,0-.894-.254,1.621,1.621,0,0,0-.976.226.659.659,0,0,0-.293.529.541.541,0,0,0,.122.348.874.874,0,0,0,.379.265c.1.038.393.122.878.254a12.218,12.218,0,0,1,1.468.46,1.5,1.5,0,0,1,.654.521,1.457,1.457,0,0,1,.238.85,1.666,1.666,0,0,1-.291.934,1.865,1.865,0,0,1-.834.679,3.057,3.057,0,0,1-1.235.239,2.755,2.755,0,0,1-1.74-.474A2.2,2.2,0,0,1,730.529,14492.044Z" fill="#fff"/>
      <path id="Контур_4764" data-name="Контур 4764" d="M740.58,14491.906l1.026.128a2.507,2.507,0,0,1-.9,1.394,3.048,3.048,0,0,1-3.715-.295,3.091,3.091,0,0,1-.752-2.219,3.236,3.236,0,0,1,.762-2.294,2.575,2.575,0,0,1,1.973-.816,2.508,2.508,0,0,1,1.919.8,3.174,3.174,0,0,1,.744,2.25c0,.06,0,.147,0,.265h-4.367a2.244,2.244,0,0,0,.545,1.478,1.616,1.616,0,0,0,1.223.514,1.513,1.513,0,0,0,.932-.287A1.9,1.9,0,0,0,740.58,14491.906Zm-3.258-1.605h3.27a1.99,1.99,0,0,0-.375-1.107,1.523,1.523,0,0,0-1.229-.573,1.577,1.577,0,0,0-1.151.458A1.811,1.811,0,0,0,737.322,14490.3Z" fill="#fff"/>
    </g>
    <g id="Сгруппировать_830" data-name="Сгруппировать 830">
      <path id="Контур_4765" data-name="Контур 4765" d="M591.6,14508.355v-8.1h.9v.761a2.211,2.211,0,0,1,.721-.67,1.993,1.993,0,0,1,.977-.223,2.319,2.319,0,0,1,1.323.385,2.367,2.367,0,0,1,.866,1.089,3.982,3.982,0,0,1,.293,1.542,3.915,3.915,0,0,1-.323,1.618,2.437,2.437,0,0,1-.938,1.1,2.407,2.407,0,0,1-1.293.383,1.87,1.87,0,0,1-.891-.21,2.025,2.025,0,0,1-.647-.529v2.851Zm.9-5.14a2.534,2.534,0,0,0,.459,1.671,1.4,1.4,0,0,0,1.106.541,1.433,1.433,0,0,0,1.133-.56,2.651,2.651,0,0,0,.473-1.734,2.585,2.585,0,0,0-.461-1.676,1.387,1.387,0,0,0-1.1-.558,1.425,1.425,0,0,0-1.12.594A2.638,2.638,0,0,0,592.5,14503.216Z" fill="#fff"/>
      <path id="Контур_4766" data-name="Контур 4766" d="M597.512,14503.184a3.015,3.015,0,0,1,.9-2.409,2.718,2.718,0,0,1,1.841-.65,2.626,2.626,0,0,1,1.975.791,3.008,3.008,0,0,1,.765,2.186,3.872,3.872,0,0,1-.338,1.778,2.408,2.408,0,0,1-.987,1.006,2.876,2.876,0,0,1-1.415.359,2.63,2.63,0,0,1-1.987-.788A3.155,3.155,0,0,1,597.512,14503.184Zm1.02,0a2.5,2.5,0,0,0,.49,1.685,1.635,1.635,0,0,0,2.466,0,2.554,2.554,0,0,0,.489-1.715,2.417,2.417,0,0,0-.493-1.646,1.637,1.637,0,0,0-2.462,0A2.483,2.483,0,0,0,598.532,14503.184Z" fill="#fff"/>
      <path id="Контур_4767" data-name="Контур 4767" d="M608,14506.111v-.86a2.141,2.141,0,0,1-1.857.993,2.362,2.362,0,0,1-.968-.2,1.609,1.609,0,0,1-.668-.5,1.892,1.892,0,0,1-.3-.736,5.028,5.028,0,0,1-.062-.926v-3.628h.993v3.247a5.8,5.8,0,0,0,.062,1.049,1.033,1.033,0,0,0,.4.614,1.23,1.23,0,0,0,.75.224,1.65,1.65,0,0,0,.838-.229,1.272,1.272,0,0,0,.553-.623,3.134,3.134,0,0,0,.163-1.145v-3.137h.992v5.855Z" fill="#fff"/>
      <path id="Контур_4768" data-name="Контур 4768" d="M610.432,14506.111v-5.855h.892v.887a2.427,2.427,0,0,1,.632-.82,1.1,1.1,0,0,1,.637-.2,1.937,1.937,0,0,1,1.019.319l-.341.921a1.418,1.418,0,0,0-.728-.215.944.944,0,0,0-.585.2,1.059,1.059,0,0,0-.369.543,3.85,3.85,0,0,0-.165,1.158v3.065Z" fill="#fff"/>
      <path id="Контур_4769" data-name="Контур 4769" d="M617.317,14506.111v-8.083h.992v8.083Z" fill="#fff"/>
      <path id="Контур_4770" data-name="Контур 4770" d="M623.669,14505.39a3.731,3.731,0,0,1-1.063.661,3.052,3.052,0,0,1-1.093.193,2.134,2.134,0,0,1-1.483-.471,1.556,1.556,0,0,1-.52-1.205,1.639,1.639,0,0,1,.71-1.357,2.469,2.469,0,0,1,.714-.326,7.269,7.269,0,0,1,.882-.147,9.059,9.059,0,0,0,1.77-.343c0-.136,0-.222,0-.259a1.1,1.1,0,0,0-.28-.854,1.658,1.658,0,0,0-1.131-.336,1.755,1.755,0,0,0-1.033.245,1.493,1.493,0,0,0-.493.868l-.97-.132a2.382,2.382,0,0,1,.435-1.006,1.9,1.9,0,0,1,.876-.591,3.945,3.945,0,0,1,1.329-.206,3.53,3.53,0,0,1,1.219.176,1.6,1.6,0,0,1,.688.444,1.542,1.542,0,0,1,.309.676,5.443,5.443,0,0,1,.05.914v1.323a14.076,14.076,0,0,0,.064,1.752,2.155,2.155,0,0,0,.251.7h-1.037A2.05,2.05,0,0,1,623.669,14505.39Zm-.083-2.218a7.2,7.2,0,0,1-1.622.375,3.787,3.787,0,0,0-.866.2.877.877,0,0,0-.391.322.876.876,0,0,0,.163,1.133,1.29,1.29,0,0,0,.88.265,2.043,2.043,0,0,0,1.02-.251,1.549,1.549,0,0,0,.656-.686,2.411,2.411,0,0,0,.16-.992Z" fill="#fff"/>
      <path id="Контур_4771" data-name="Контур 4771" d="M633.086,14503.966l.976.127a2.542,2.542,0,0,1-.82,1.58,2.387,2.387,0,0,1-1.618.571,2.51,2.51,0,0,1-1.932-.786,3.183,3.183,0,0,1-.73-2.252,4.053,4.053,0,0,1,.315-1.66,2.184,2.184,0,0,1,.956-1.067,2.841,2.841,0,0,1,1.4-.354,2.426,2.426,0,0,1,1.56.482,2.209,2.209,0,0,1,.778,1.369l-.964.149a1.6,1.6,0,0,0-.489-.888,1.264,1.264,0,0,0-.847-.3,1.546,1.546,0,0,0-1.219.536,2.558,2.558,0,0,0-.467,1.7,2.641,2.641,0,0,0,.451,1.714,1.472,1.472,0,0,0,1.181.536,1.392,1.392,0,0,0,.975-.358A1.786,1.786,0,0,0,633.086,14503.966Z" fill="#fff"/>
      <path id="Контур_4772" data-name="Контур 4772" d="M634.542,14503.184a3.012,3.012,0,0,1,.9-2.409,2.717,2.717,0,0,1,1.84-.65,2.625,2.625,0,0,1,1.975.791,3.008,3.008,0,0,1,.766,2.186,3.858,3.858,0,0,1-.339,1.778,2.4,2.4,0,0,1-.986,1.006,2.878,2.878,0,0,1-1.416.359,2.632,2.632,0,0,1-1.987-.788A3.155,3.155,0,0,1,634.542,14503.184Zm1.02,0a2.5,2.5,0,0,0,.489,1.685,1.635,1.635,0,0,0,2.466,0,2.554,2.554,0,0,0,.49-1.715,2.418,2.418,0,0,0-.494-1.646,1.637,1.637,0,0,0-2.462,0A2.483,2.483,0,0,0,635.562,14503.184Z" fill="#fff"/>
      <path id="Контур_4773" data-name="Контур 4773" d="M640.821,14503.184a3.022,3.022,0,0,1,.9-2.409,2.725,2.725,0,0,1,1.843-.65,2.625,2.625,0,0,1,1.973.791,3.008,3.008,0,0,1,.766,2.186,3.871,3.871,0,0,1-.339,1.778,2.385,2.385,0,0,1-.987,1.006,2.863,2.863,0,0,1-1.413.359,2.635,2.635,0,0,1-1.989-.788A3.155,3.155,0,0,1,640.821,14503.184Zm1.021,0a2.5,2.5,0,0,0,.491,1.685,1.633,1.633,0,0,0,2.464,0,2.554,2.554,0,0,0,.491-1.715,2.417,2.417,0,0,0-.493-1.646,1.637,1.637,0,0,0-2.462,0A2.483,2.483,0,0,0,641.842,14503.184Z" fill="#fff"/>
      <path id="Контур_4774" data-name="Контур 4774" d="M647.472,14508.355v-8.1h.9v.761a2.2,2.2,0,0,1,.722-.67,1.987,1.987,0,0,1,.976-.223,2.319,2.319,0,0,1,1.323.385,2.366,2.366,0,0,1,.866,1.089,3.982,3.982,0,0,1,.293,1.542,3.915,3.915,0,0,1-.323,1.618,2.436,2.436,0,0,1-.938,1.1,2.407,2.407,0,0,1-1.293.383,1.864,1.864,0,0,1-.89-.21,2.019,2.019,0,0,1-.648-.529v2.851Zm.9-5.14a2.534,2.534,0,0,0,.459,1.671,1.4,1.4,0,0,0,1.107.541,1.43,1.43,0,0,0,1.132-.56,2.651,2.651,0,0,0,.474-1.734,2.585,2.585,0,0,0-.462-1.676,1.385,1.385,0,0,0-1.1-.558,1.427,1.427,0,0,0-1.121.594A2.638,2.638,0,0,0,648.37,14503.216Z" fill="#fff"/>
      <path id="Контур_4775" data-name="Контур 4775" d="M657.759,14504.226l1.027.127a2.51,2.51,0,0,1-.9,1.395,3.045,3.045,0,0,1-3.715-.294,3.1,3.1,0,0,1-.752-2.22,3.235,3.235,0,0,1,.762-2.293,2.568,2.568,0,0,1,1.973-.816,2.5,2.5,0,0,1,1.919.8,3.173,3.173,0,0,1,.744,2.249c0,.06,0,.147,0,.265h-4.367a2.241,2.241,0,0,0,.545,1.478,1.619,1.619,0,0,0,1.223.514,1.513,1.513,0,0,0,.932-.287A1.9,1.9,0,0,0,657.759,14504.226Zm-3.258-1.6h3.27a1.993,1.993,0,0,0-.375-1.108,1.522,1.522,0,0,0-1.229-.572,1.573,1.573,0,0,0-1.151.458A1.807,1.807,0,0,0,654.5,14502.621Zm1.071-3.093.731-1.544h1.3l-1.213,1.544Z" fill="#fff"/>
      <path id="Контур_4776" data-name="Контур 4776" d="M660.021,14506.111v-5.855h.892v.887a2.426,2.426,0,0,1,.631-.82,1.106,1.106,0,0,1,.638-.2,1.931,1.931,0,0,1,1.018.319l-.34.921a1.421,1.421,0,0,0-.728-.215.947.947,0,0,0-.586.2,1.071,1.071,0,0,0-.369.543,3.881,3.881,0,0,0-.164,1.158v3.065Z" fill="#fff"/>
      <path id="Контур_4777" data-name="Контур 4777" d="M667.613,14505.39a3.726,3.726,0,0,1-1.062.661,3.052,3.052,0,0,1-1.093.193,2.137,2.137,0,0,1-1.484-.471,1.558,1.558,0,0,1-.519-1.205,1.639,1.639,0,0,1,.71-1.357,2.456,2.456,0,0,1,.714-.326,7.269,7.269,0,0,1,.882-.147,9.06,9.06,0,0,0,1.77-.343c0-.136,0-.222,0-.259a1.092,1.092,0,0,0-.281-.854,1.653,1.653,0,0,0-1.13-.336,1.755,1.755,0,0,0-1.033.245,1.493,1.493,0,0,0-.493.868l-.97-.132a2.382,2.382,0,0,1,.435-1.006,1.9,1.9,0,0,1,.876-.591,3.945,3.945,0,0,1,1.329-.206,3.538,3.538,0,0,1,1.219.176,1.611,1.611,0,0,1,.688.444,1.554,1.554,0,0,1,.309.676,5.443,5.443,0,0,1,.05.914v1.323a14.076,14.076,0,0,0,.064,1.752,2.176,2.176,0,0,0,.25.7h-1.036A2.05,2.05,0,0,1,667.613,14505.39Zm-.082-2.218a7.209,7.209,0,0,1-1.622.375,3.774,3.774,0,0,0-.866.2.872.872,0,0,0-.391.322.877.877,0,0,0,.162,1.133,1.3,1.3,0,0,0,.881.265,2.046,2.046,0,0,0,1.02-.251,1.554,1.554,0,0,0,.656-.686,2.409,2.409,0,0,0,.16-.992Z" fill="#fff"/>
      <path id="Контур_4778" data-name="Контур 4778" d="M672.239,14505.223l.142.877a3.635,3.635,0,0,1-.75.09,1.7,1.7,0,0,1-.838-.173.96.96,0,0,1-.419-.448,3.582,3.582,0,0,1-.12-1.171v-3.369h-.728v-.772h.728v-1.451l.986-.595v2.046h1v.772h-1v3.423a1.771,1.771,0,0,0,.052.547.436.436,0,0,0,.171.193.676.676,0,0,0,.341.07A3.147,3.147,0,0,0,672.239,14505.223Z" fill="#fff"/>
      <path id="Контур_4779" data-name="Контур 4779" d="M673.215,14499.17v-1.142h.993v1.142Zm0,6.941v-5.855h.993v5.855Z" fill="#fff"/>
      <path id="Контур_4780" data-name="Контур 4780" d="M675.349,14503.184a3.012,3.012,0,0,1,.9-2.409,2.717,2.717,0,0,1,1.84-.65,2.625,2.625,0,0,1,1.975.791,3.008,3.008,0,0,1,.766,2.186,3.858,3.858,0,0,1-.339,1.778,2.4,2.4,0,0,1-.986,1.006,2.877,2.877,0,0,1-1.416.359,2.632,2.632,0,0,1-1.987-.788A3.155,3.155,0,0,1,675.349,14503.184Zm1.02,0a2.5,2.5,0,0,0,.489,1.685,1.635,1.635,0,0,0,2.466,0,2.554,2.554,0,0,0,.49-1.715,2.418,2.418,0,0,0-.494-1.646,1.637,1.637,0,0,0-2.462,0A2.483,2.483,0,0,0,676.369,14503.184Z" fill="#fff"/>
      <path id="Контур_4781" data-name="Контур 4781" d="M682,14506.111v-5.855h.894v.833a2.1,2.1,0,0,1,1.863-.965,2.417,2.417,0,0,1,.972.19,1.546,1.546,0,0,1,.666.5,1.979,1.979,0,0,1,.309.734,5.8,5.8,0,0,1,.054.964v3.6h-.993v-3.562a2.728,2.728,0,0,0-.114-.908.962.962,0,0,0-.411-.479,1.307,1.307,0,0,0-.692-.179,1.607,1.607,0,0,0-1.094.4,1.987,1.987,0,0,0-.462,1.527v3.2Z" fill="#fff"/>
    </g>
    <g id="Сгруппировать_831" data-name="Сгруппировать 831">
      <path id="Контур_4782" data-name="Контур 4782" d="M595.423,14517.709a3.735,3.735,0,0,1-1.063.662,3.073,3.073,0,0,1-1.093.192,2.127,2.127,0,0,1-1.483-.472,1.553,1.553,0,0,1-.52-1.205,1.632,1.632,0,0,1,.71-1.355,2.393,2.393,0,0,1,.714-.326,7.6,7.6,0,0,1,.882-.149,9.1,9.1,0,0,0,1.771-.341c0-.137,0-.223,0-.26a1.093,1.093,0,0,0-.281-.854,1.658,1.658,0,0,0-1.131-.337,1.747,1.747,0,0,0-1.033.246,1.5,1.5,0,0,0-.493.869l-.97-.133a2.388,2.388,0,0,1,.435-1.006,1.9,1.9,0,0,1,.876-.59,3.9,3.9,0,0,1,1.329-.207,3.53,3.53,0,0,1,1.219.176,1.6,1.6,0,0,1,.688.445,1.534,1.534,0,0,1,.309.675,5.457,5.457,0,0,1,.05.915v1.322a14.039,14.039,0,0,0,.064,1.751,2.153,2.153,0,0,0,.251.7h-1.037A2.051,2.051,0,0,1,595.423,14517.709Zm-.082-2.217a7.39,7.39,0,0,1-1.622.375,3.812,3.812,0,0,0-.867.2.871.871,0,0,0-.391.322.877.877,0,0,0,.163,1.134,1.3,1.3,0,0,0,.88.264,2.06,2.06,0,0,0,1.021-.25,1.559,1.559,0,0,0,.655-.687,2.4,2.4,0,0,0,.161-.992Z" fill="#fff"/>
      <path id="Контур_4783" data-name="Контур 4783" d="M599.507,14518.431l-2.228-5.855h1.049l1.257,3.507q.2.568.375,1.18c.088-.309.21-.68.369-1.113l1.3-3.573h1.021l-2.218,5.855Z" fill="#fff"/>
      <path id="Контур_4784" data-name="Контур 4784" d="M607.535,14516.545l1.026.127a2.506,2.506,0,0,1-.9,1.4,3.048,3.048,0,0,1-3.715-.295,3.1,3.1,0,0,1-.752-2.22,3.237,3.237,0,0,1,.762-2.294,2.574,2.574,0,0,1,1.973-.815,2.5,2.5,0,0,1,1.918.8,3.17,3.17,0,0,1,.744,2.25c0,.059,0,.146,0,.264h-4.366a2.246,2.246,0,0,0,.545,1.479,1.619,1.619,0,0,0,1.223.513,1.506,1.506,0,0,0,.932-.287A1.908,1.908,0,0,0,607.535,14516.545Zm-3.258-1.6h3.27a2,2,0,0,0-.375-1.108,1.526,1.526,0,0,0-1.229-.573,1.577,1.577,0,0,0-1.151.458A1.814,1.814,0,0,0,604.277,14514.94Z" fill="#fff"/>
      <path id="Контур_4785" data-name="Контур 4785" d="M613.628,14516.286l.976.127a2.531,2.531,0,0,1-.818,1.58,2.391,2.391,0,0,1-1.62.57,2.512,2.512,0,0,1-1.931-.786,3.186,3.186,0,0,1-.731-2.251,4.063,4.063,0,0,1,.314-1.66,2.187,2.187,0,0,1,.957-1.067,2.826,2.826,0,0,1,1.4-.355,2.422,2.422,0,0,1,1.56.481,2.214,2.214,0,0,1,.778,1.371l-.964.149a1.609,1.609,0,0,0-.488-.889,1.269,1.269,0,0,0-.848-.3,1.542,1.542,0,0,0-1.217.537,2.553,2.553,0,0,0-.469,1.7,2.635,2.635,0,0,0,.451,1.714,1.474,1.474,0,0,0,1.181.535,1.389,1.389,0,0,0,.977-.359A1.774,1.774,0,0,0,613.628,14516.286Z" fill="#fff"/>
      <path id="Контур_4786" data-name="Контур 4786" d="M618.568,14518.431v-8.083h.992v8.083Z" fill="#fff"/>
      <path id="Контур_4787" data-name="Контур 4787" d="M621.038,14511.417v-1.152H622.1v.91a2.427,2.427,0,0,1-.171,1.065,1.511,1.511,0,0,1-.739.671l-.243-.392a.864.864,0,0,0,.445-.383,1.64,1.64,0,0,0,.162-.72Z" fill="#fff"/>
      <path id="Контур_4788" data-name="Контур 4788" d="M629.04,14510.348h1.069v4.67a5.575,5.575,0,0,1-.275,1.936,2.361,2.361,0,0,1-1,1.166,3.514,3.514,0,0,1-1.886.45,3.872,3.872,0,0,1-1.859-.393,2.219,2.219,0,0,1-1.03-1.133,5.371,5.371,0,0,1-.309-2.026v-4.67h1.068v4.664a4.559,4.559,0,0,0,.2,1.553,1.485,1.485,0,0,0,.672.77,2.34,2.34,0,0,0,1.167.27,2.237,2.237,0,0,0,1.682-.534,3.091,3.091,0,0,0,.5-2.058Z" fill="#fff"/>
      <path id="Контур_4789" data-name="Контур 4789" d="M631.879,14518.431v-8.083h1.1l4.246,6.348v-6.348h1.025v8.083h-1.1l-4.247-6.352v6.352Z" fill="#fff"/>
      <path id="Контур_4790" data-name="Контур 4790" d="M640.065,14518.431v-8.083h5.845v.953h-4.774v2.477h4.471v.948h-4.471v2.75H646.1v.955Z" fill="#fff"/>
      <path id="Контур_4791" data-name="Контур 4791" d="M647.213,14515.834l1.008-.088a2.249,2.249,0,0,0,.333,1,1.825,1.825,0,0,0,.814.628,3.061,3.061,0,0,0,1.241.24,2.964,2.964,0,0,0,1.081-.183,1.5,1.5,0,0,0,.7-.5,1.158,1.158,0,0,0,.228-.691,1.056,1.056,0,0,0-.22-.664,1.646,1.646,0,0,0-.728-.478,14.124,14.124,0,0,0-1.44-.394,7.285,7.285,0,0,1-1.559-.5,2.2,2.2,0,0,1-.865-.752,1.859,1.859,0,0,1-.282-1.006,2.062,2.062,0,0,1,.347-1.146,2.156,2.156,0,0,1,1.014-.808,3.85,3.85,0,0,1,1.484-.274,4.059,4.059,0,0,1,1.584.288,2.286,2.286,0,0,1,1.056.852,2.44,2.44,0,0,1,.4,1.273l-1.024.079a1.657,1.657,0,0,0-.562-1.159,2.171,2.171,0,0,0-1.407-.391,2.265,2.265,0,0,0-1.416.355,1.069,1.069,0,0,0-.443.857.916.916,0,0,0,.315.717,4.26,4.26,0,0,0,1.612.576,10.816,10.816,0,0,1,1.79.515,2.458,2.458,0,0,1,1.041.824,2,2,0,0,1,.337,1.15,2.194,2.194,0,0,1-.369,1.216,2.442,2.442,0,0,1-1.063.887,3.685,3.685,0,0,1-1.556.318,4.648,4.648,0,0,1-1.84-.321,2.573,2.573,0,0,1-1.163-.961A2.723,2.723,0,0,1,647.213,14515.834Z" fill="#fff"/>
      <path id="Контур_4792" data-name="Контур 4792" d="M660.875,14515.6l1.068.271a3.6,3.6,0,0,1-1.209,2.009,3.334,3.334,0,0,1-2.137.693,3.84,3.84,0,0,1-2.125-.532,3.326,3.326,0,0,1-1.247-1.541,5.5,5.5,0,0,1-.427-2.167,4.748,4.748,0,0,1,.483-2.2,3.314,3.314,0,0,1,1.373-1.428,4.012,4.012,0,0,1,1.959-.487,3.31,3.31,0,0,1,2.041.617,3.213,3.213,0,0,1,1.153,1.736l-1.055.249a2.477,2.477,0,0,0-.816-1.285,2.164,2.164,0,0,0-1.345-.4,2.614,2.614,0,0,0-1.558.447,2.35,2.35,0,0,0-.878,1.2,4.8,4.8,0,0,0-.255,1.552,4.936,4.936,0,0,0,.3,1.8,2.246,2.246,0,0,0,.934,1.15,2.621,2.621,0,0,0,1.374.38,2.3,2.3,0,0,0,1.522-.518A2.666,2.666,0,0,0,660.875,14515.6Z" fill="#fff"/>
      <path id="Контур_4793" data-name="Контур 4793" d="M662.936,14514.494a4.4,4.4,0,0,1,1.08-3.151,3.682,3.682,0,0,1,2.791-1.139,3.855,3.855,0,0,1,2.017.536,3.484,3.484,0,0,1,1.372,1.491,4.83,4.83,0,0,1,.471,2.17,4.754,4.754,0,0,1-.5,2.2,3.383,3.383,0,0,1-1.406,1.471,4.01,4.01,0,0,1-1.963.5,3.826,3.826,0,0,1-2.039-.552,3.548,3.548,0,0,1-1.363-1.506A4.552,4.552,0,0,1,662.936,14514.494Zm1.1.017a3.244,3.244,0,0,0,.785,2.3,2.744,2.744,0,0,0,3.96-.009,3.436,3.436,0,0,0,.78-2.41,4.134,4.134,0,0,0-.333-1.723,2.556,2.556,0,0,0-.976-1.141,2.636,2.636,0,0,0-1.442-.406,2.728,2.728,0,0,0-1.954.781A3.481,3.481,0,0,0,664.039,14514.511Z" fill="#fff"/>
    </g>
    <g id="Сгруппировать_832" data-name="Сгруппировать 832">
      <path id="Контур_4794" data-name="Контур 4794" d="M501.993,14478.318a4.392,4.392,0,0,1,1.08-3.152,3.681,3.681,0,0,1,2.79-1.139,3.869,3.869,0,0,1,2.018.534,3.507,3.507,0,0,1,1.371,1.492,4.851,4.851,0,0,1,.471,2.169,4.756,4.756,0,0,1-.5,2.2,3.373,3.373,0,0,1-1.406,1.469,4.011,4.011,0,0,1-1.963.5,3.824,3.824,0,0,1-2.039-.552,3.548,3.548,0,0,1-1.362-1.5A4.553,4.553,0,0,1,501.993,14478.318Zm1.1.016a3.236,3.236,0,0,0,.785,2.3,2.745,2.745,0,0,0,3.96-.008,3.438,3.438,0,0,0,.78-2.41,4.144,4.144,0,0,0-.333-1.722,2.557,2.557,0,0,0-.976-1.142,2.657,2.657,0,0,0-1.442-.406,2.734,2.734,0,0,0-1.955.781A3.488,3.488,0,0,0,503.1,14478.334Z" fill="#fff"/>
      <path id="Контур_4795" data-name="Контур 4795" d="M510.964,14482.253v-5.854h.892v.886a2.427,2.427,0,0,1,.632-.82,1.105,1.105,0,0,1,.637-.2,1.948,1.948,0,0,1,1.02.318l-.342.921a1.428,1.428,0,0,0-.728-.215.943.943,0,0,0-.584.2,1.047,1.047,0,0,0-.37.543,3.834,3.834,0,0,0-.165,1.157v3.064Z" fill="#fff"/>
      <path id="Контур_4796" data-name="Контур 4796" d="M514.553,14482.739l.964.144a.916.916,0,0,0,.337.649,1.644,1.644,0,0,0,1.008.276,1.77,1.77,0,0,0,1.065-.276,1.348,1.348,0,0,0,.507-.771,6.343,6.343,0,0,0,.072-1.273,2.039,2.039,0,0,1-1.622.766,2.21,2.21,0,0,1-1.868-.87,3.355,3.355,0,0,1-.662-2.091,3.9,3.9,0,0,1,.3-1.546,2.438,2.438,0,0,1,.88-1.095,2.376,2.376,0,0,1,1.353-.385,2.094,2.094,0,0,1,1.71.839v-.706h.915v5.06a4.783,4.783,0,0,1-.279,1.939,2.02,2.02,0,0,1-.882.9,3.055,3.055,0,0,1-1.486.331,2.8,2.8,0,0,1-1.692-.471A1.59,1.59,0,0,1,514.553,14482.739Zm.822-3.518a2.538,2.538,0,0,0,.457,1.681,1.512,1.512,0,0,0,2.293,0,2.46,2.46,0,0,0,.464-1.652,2.394,2.394,0,0,0-.478-1.62,1.468,1.468,0,0,0-1.148-.547,1.43,1.43,0,0,0-1.125.539A2.382,2.382,0,0,0,515.375,14479.222Z" fill="#fff"/>
      <path id="Контур_4797" data-name="Контур 4797" d="M524.836,14481.532a3.7,3.7,0,0,1-1.063.661,3.065,3.065,0,0,1-1.093.192,2.127,2.127,0,0,1-1.483-.472,1.553,1.553,0,0,1-.519-1.2,1.629,1.629,0,0,1,.71-1.356,2.411,2.411,0,0,1,.713-.326,7.268,7.268,0,0,1,.882-.148,8.984,8.984,0,0,0,1.77-.341c0-.136.005-.222.005-.261a1.1,1.1,0,0,0-.281-.854,1.663,1.663,0,0,0-1.131-.336,1.741,1.741,0,0,0-1.032.246,1.5,1.5,0,0,0-.494.868l-.971-.132a2.427,2.427,0,0,1,.436-1.008,1.925,1.925,0,0,1,.876-.589,3.919,3.919,0,0,1,1.33-.206,3.5,3.5,0,0,1,1.218.177,1.579,1.579,0,0,1,.688.442,1.542,1.542,0,0,1,.309.676,5.459,5.459,0,0,1,.05.914v1.323a13.6,13.6,0,0,0,.065,1.753,2.187,2.187,0,0,0,.25.7h-1.036A2.067,2.067,0,0,1,524.836,14481.532Zm-.083-2.218a7.238,7.238,0,0,1-1.621.375,3.935,3.935,0,0,0-.866.2.887.887,0,0,0-.391.323.874.874,0,0,0,.162,1.133,1.292,1.292,0,0,0,.88.266,2.031,2.031,0,0,0,1.02-.251,1.536,1.536,0,0,0,.656-.687,2.387,2.387,0,0,0,.16-.992Z" fill="#fff"/>
      <path id="Контур_4798" data-name="Контур 4798" d="M527.294,14482.253v-5.854h.894v.832a2.1,2.1,0,0,1,1.863-.965,2.421,2.421,0,0,1,.973.19,1.53,1.53,0,0,1,.665.5,1.931,1.931,0,0,1,.309.734,5.757,5.757,0,0,1,.055.964v3.6h-.993v-3.56a2.723,2.723,0,0,0-.115-.909.959.959,0,0,0-.411-.479,1.316,1.316,0,0,0-.692-.178,1.609,1.609,0,0,0-1.094.4,1.983,1.983,0,0,0-.461,1.526v3.2Z" fill="#fff"/>
      <path id="Контур_4799" data-name="Контур 4799" d="M533.58,14475.312v-1.141h.992v1.141Zm0,6.941v-5.854h.992v5.854Z" fill="#fff"/>
      <path id="Контур_4800" data-name="Контур 4800" d="M535.687,14480.5l.98-.154a1.369,1.369,0,0,0,.461.9,1.6,1.6,0,0,0,1.056.315,1.553,1.553,0,0,0,1.015-.279.832.832,0,0,0,.33-.654.606.606,0,0,0-.291-.528,4.36,4.36,0,0,0-1.015-.335,9.357,9.357,0,0,1-1.514-.478,1.448,1.448,0,0,1-.858-1.343,1.5,1.5,0,0,1,.18-.725,1.6,1.6,0,0,1,.488-.555,1.991,1.991,0,0,1,.632-.289,2.956,2.956,0,0,1,.857-.118,3.4,3.4,0,0,1,1.21.2,1.653,1.653,0,0,1,.77.537,2.114,2.114,0,0,1,.34.907l-.97.132a1.064,1.064,0,0,0-.383-.706,1.4,1.4,0,0,0-.9-.252,1.638,1.638,0,0,0-.976.224.661.661,0,0,0-.291.529.552.552,0,0,0,.12.349.881.881,0,0,0,.381.266q.148.054.876.253a11.822,11.822,0,0,1,1.47.461,1.478,1.478,0,0,1,.653.521,1.448,1.448,0,0,1,.237.849,1.657,1.657,0,0,1-.289.934,1.869,1.869,0,0,1-.836.681,3.081,3.081,0,0,1-1.235.238,2.762,2.762,0,0,1-1.739-.474A2.209,2.209,0,0,1,535.687,14480.5Z" fill="#fff"/>
      <path id="Контур_4801" data-name="Контур 4801" d="M545.55,14481.532a3.688,3.688,0,0,1-1.061.661,3.084,3.084,0,0,1-1.1.192,2.129,2.129,0,0,1-1.483-.472,1.553,1.553,0,0,1-.518-1.2,1.6,1.6,0,0,1,.2-.786,1.618,1.618,0,0,1,.513-.57,2.418,2.418,0,0,1,.714-.326,7.233,7.233,0,0,1,.882-.148,8.97,8.97,0,0,0,1.769-.341c0-.136.006-.222.006-.261a1.1,1.1,0,0,0-.281-.854,1.665,1.665,0,0,0-1.13-.336,1.746,1.746,0,0,0-1.034.246,1.5,1.5,0,0,0-.494.868l-.971-.132a2.44,2.44,0,0,1,.437-1.008,1.917,1.917,0,0,1,.877-.589,3.907,3.907,0,0,1,1.328-.206,3.5,3.5,0,0,1,1.218.177,1.587,1.587,0,0,1,.69.442,1.565,1.565,0,0,1,.308.676,5.428,5.428,0,0,1,.051.914v1.323a13.964,13.964,0,0,0,.063,1.753,2.188,2.188,0,0,0,.25.7h-1.036A2.087,2.087,0,0,1,545.55,14481.532Zm-.083-2.218a7.226,7.226,0,0,1-1.62.375,3.9,3.9,0,0,0-.866.2.887.887,0,0,0-.391.323.877.877,0,0,0,.162,1.133,1.294,1.294,0,0,0,.88.266,2.024,2.024,0,0,0,1.019-.251,1.532,1.532,0,0,0,.657-.687,2.389,2.389,0,0,0,.159-.992Z" fill="#fff"/>
      <path id="Контур_4802" data-name="Контур 4802" d="M550.177,14481.365l.142.878a3.767,3.767,0,0,1-.75.089,1.694,1.694,0,0,1-.838-.173.948.948,0,0,1-.419-.449,3.574,3.574,0,0,1-.12-1.171v-3.368h-.728v-.771h.728v-1.452l.986-.6v2.048h1v.771h-1v3.422a1.779,1.779,0,0,0,.052.548.428.428,0,0,0,.171.192.663.663,0,0,0,.34.072A3.351,3.351,0,0,0,550.177,14481.365Z" fill="#fff"/>
      <path id="Контур_4803" data-name="Контур 4803" d="M551.152,14475.312v-1.141h.993v1.141Zm0,6.941v-5.854h.993v5.854Z" fill="#fff"/>
      <path id="Контур_4804" data-name="Контур 4804" d="M553.286,14479.326a3.017,3.017,0,0,1,.9-2.41,2.725,2.725,0,0,1,1.84-.649,2.631,2.631,0,0,1,1.975.789,3.021,3.021,0,0,1,.766,2.188,3.866,3.866,0,0,1-.339,1.778,2.409,2.409,0,0,1-.986,1,2.877,2.877,0,0,1-1.416.358,2.633,2.633,0,0,1-1.987-.788A3.15,3.15,0,0,1,553.286,14479.326Zm1.02,0a2.492,2.492,0,0,0,.49,1.684,1.633,1.633,0,0,0,2.465,0,2.55,2.55,0,0,0,.491-1.716,2.414,2.414,0,0,0-.494-1.644,1.635,1.635,0,0,0-2.462,0A2.486,2.486,0,0,0,554.306,14479.326Z" fill="#fff"/>
      <path id="Контур_4805" data-name="Контур 4805" d="M559.935,14482.253v-5.854h.894v.832a2.1,2.1,0,0,1,1.863-.965,2.425,2.425,0,0,1,.973.19,1.536,1.536,0,0,1,.665.5,1.946,1.946,0,0,1,.309.734,5.757,5.757,0,0,1,.055.964v3.6H563.7v-3.56a2.723,2.723,0,0,0-.115-.909.965.965,0,0,0-.411-.479,1.318,1.318,0,0,0-.692-.178,1.607,1.607,0,0,0-1.094.4,1.983,1.983,0,0,0-.462,1.526v3.2Z" fill="#fff"/>
    </g>
    <g id="Сгруппировать_833" data-name="Сгруппировать 833">
      <path id="Контур_4806" data-name="Контур 4806" d="M478.381,14494.574v-.74a1.821,1.821,0,0,1-1.638.872,2.287,2.287,0,0,1-1.287-.387,2.521,2.521,0,0,1-.909-1.076,3.72,3.72,0,0,1-.323-1.592,4.161,4.161,0,0,1,.292-1.591,2.3,2.3,0,0,1,.877-1.095,2.349,2.349,0,0,1,1.306-.381,1.935,1.935,0,0,1,.943.225,1.963,1.963,0,0,1,.673.581v-2.9h.986v8.084Zm-3.138-2.923a2.539,2.539,0,0,0,.476,1.682,1.426,1.426,0,0,0,1.118.557,1.408,1.408,0,0,0,1.106-.532,2.451,2.451,0,0,0,.454-1.622,2.753,2.753,0,0,0-.463-1.766,1.424,1.424,0,0,0-1.141-.562,1.374,1.374,0,0,0-1.106.541A2.665,2.665,0,0,0,475.243,14491.651Z" fill="#fff"/>
      <path id="Контур_4807" data-name="Контур 4807" d="M484.871,14492.687l1.025.129a2.5,2.5,0,0,1-.9,1.394,3.041,3.041,0,0,1-3.713-.295,3.093,3.093,0,0,1-.753-2.219,3.239,3.239,0,0,1,.761-2.294,2.58,2.58,0,0,1,1.974-.816,2.5,2.5,0,0,1,1.919.8,3.179,3.179,0,0,1,.745,2.25c0,.059,0,.146-.006.265h-4.367a2.249,2.249,0,0,0,.545,1.478,1.625,1.625,0,0,0,1.225.513,1.521,1.521,0,0,0,.932-.287A1.907,1.907,0,0,0,484.871,14492.687Zm-3.259-1.6h3.269a1.979,1.979,0,0,0-.375-1.109,1.524,1.524,0,0,0-1.229-.572,1.567,1.567,0,0,0-1.149.459A1.81,1.81,0,0,0,481.612,14491.083Z" fill="#fff"/>
      <path id="Контур_4808" data-name="Контур 4808" d="M486.746,14492.825l.98-.154a1.371,1.371,0,0,0,.461.9,1.6,1.6,0,0,0,1.056.314,1.554,1.554,0,0,0,1.014-.278.833.833,0,0,0,.331-.653.6.6,0,0,0-.291-.529,4.3,4.3,0,0,0-1.015-.337,9.065,9.065,0,0,1-1.514-.478,1.453,1.453,0,0,1-.639-.556,1.469,1.469,0,0,1-.219-.785,1.51,1.51,0,0,1,.18-.727,1.579,1.579,0,0,1,.488-.553,2.061,2.061,0,0,1,.631-.291,3.036,3.036,0,0,1,.858-.118,3.4,3.4,0,0,1,1.21.2,1.658,1.658,0,0,1,.769.538,2.1,2.1,0,0,1,.341.907l-.97.133a1.055,1.055,0,0,0-.383-.705,1.388,1.388,0,0,0-.9-.255,1.622,1.622,0,0,0-.976.227.654.654,0,0,0-.291.529.55.55,0,0,0,.12.347.873.873,0,0,0,.381.264q.148.057.876.256a12.085,12.085,0,0,1,1.47.459,1.505,1.505,0,0,1,.653.521,1.454,1.454,0,0,1,.237.851,1.669,1.669,0,0,1-.289.935,1.869,1.869,0,0,1-.836.678,3.031,3.031,0,0,1-1.235.24,2.75,2.75,0,0,1-1.739-.475A2.2,2.2,0,0,1,486.746,14492.825Z" fill="#fff"/>
      <path id="Контур_4809" data-name="Контур 4809" d="M496.041,14494.574v-8.084h1.1l4.245,6.348v-6.348h1.026v8.084h-1.1l-4.245-6.353v6.353Z" fill="#fff"/>
      <path id="Контур_4810" data-name="Контур 4810" d="M507.9,14493.852a3.773,3.773,0,0,1-1.061.662,3.084,3.084,0,0,1-1.1.192,2.138,2.138,0,0,1-1.483-.471,1.557,1.557,0,0,1-.518-1.205,1.608,1.608,0,0,1,.2-.786,1.642,1.642,0,0,1,.514-.571,2.447,2.447,0,0,1,.713-.325,7.291,7.291,0,0,1,.883-.148,9.178,9.178,0,0,0,1.769-.342c0-.138.006-.224.006-.26a1.093,1.093,0,0,0-.281-.854,1.656,1.656,0,0,0-1.131-.337,1.75,1.75,0,0,0-1.033.245,1.5,1.5,0,0,0-.494.87l-.971-.134a2.415,2.415,0,0,1,.436-1.006,1.9,1.9,0,0,1,.878-.591,3.926,3.926,0,0,1,1.328-.207,3.547,3.547,0,0,1,1.218.176,1.617,1.617,0,0,1,.69.446,1.56,1.56,0,0,1,.308.675,5.573,5.573,0,0,1,.05.914v1.324a13.656,13.656,0,0,0,.064,1.75,2.212,2.212,0,0,0,.25.7H508.1A2.083,2.083,0,0,1,507.9,14493.852Zm-.083-2.217a7.236,7.236,0,0,1-1.62.374,3.72,3.72,0,0,0-.866.2.851.851,0,0,0-.391.323.874.874,0,0,0,.162,1.133,1.3,1.3,0,0,0,.879.264,2.058,2.058,0,0,0,1.02-.25,1.555,1.555,0,0,0,.657-.686,2.4,2.4,0,0,0,.159-.993Z" fill="#fff"/>
      <path id="Контур_4811" data-name="Контур 4811" d="M512.528,14493.686l.142.876a3.562,3.562,0,0,1-.75.089,1.708,1.708,0,0,1-.838-.17.973.973,0,0,1-.419-.45,3.584,3.584,0,0,1-.12-1.17v-3.371h-.728v-.772h.728v-1.449l.986-.6v2.045h1v.772h-1v3.425a1.756,1.756,0,0,0,.052.545.419.419,0,0,0,.171.2.686.686,0,0,0,.34.069A3.133,3.133,0,0,0,512.528,14493.686Z" fill="#fff"/>
      <path id="Контур_4812" data-name="Контур 4812" d="M513.5,14487.633v-1.143h.992v1.143Zm0,6.941v-5.857h.992v5.857Z" fill="#fff"/>
      <path id="Контур_4813" data-name="Контур 4813" d="M515.637,14491.647a3.012,3.012,0,0,1,.9-2.41,2.712,2.712,0,0,1,1.84-.652,2.629,2.629,0,0,1,1.975.792,3.01,3.01,0,0,1,.766,2.185,3.86,3.86,0,0,1-.339,1.779,2.389,2.389,0,0,1-.986,1.006,2.88,2.88,0,0,1-1.416.359,2.632,2.632,0,0,1-1.987-.788A3.153,3.153,0,0,1,515.637,14491.647Zm1.02,0a2.494,2.494,0,0,0,.49,1.684,1.635,1.635,0,0,0,2.465,0,2.55,2.55,0,0,0,.49-1.715,2.422,2.422,0,0,0-.493-1.646,1.638,1.638,0,0,0-2.462,0A2.489,2.489,0,0,0,516.657,14491.647Z" fill="#fff"/>
      <path id="Контур_4814" data-name="Контур 4814" d="M522.286,14494.574v-5.857h.894v.834a2.105,2.105,0,0,1,1.863-.966,2.462,2.462,0,0,1,.973.19,1.526,1.526,0,0,1,.665.5,1.918,1.918,0,0,1,.308.733,5.719,5.719,0,0,1,.056.964v3.6h-.993v-3.563a2.7,2.7,0,0,0-.115-.905.953.953,0,0,0-.411-.479,1.293,1.293,0,0,0-.692-.181,1.608,1.608,0,0,0-1.095.4,1.993,1.993,0,0,0-.461,1.528v3.2Z" fill="#fff"/>
      <path id="Контур_4815" data-name="Контур 4815" d="M528.169,14492.825l.982-.154a1.363,1.363,0,0,0,.461.9,1.592,1.592,0,0,0,1.054.314,1.558,1.558,0,0,0,1.015-.278.833.833,0,0,0,.331-.653.6.6,0,0,0-.292-.529,4.232,4.232,0,0,0-1.014-.337,9.047,9.047,0,0,1-1.513-.478,1.45,1.45,0,0,1-.64-.556,1.468,1.468,0,0,1-.218-.785,1.531,1.531,0,0,1,.178-.727,1.6,1.6,0,0,1,.489-.553,2.068,2.068,0,0,1,.632-.291,3.023,3.023,0,0,1,.856-.118,3.4,3.4,0,0,1,1.211.2,1.653,1.653,0,0,1,.769.538,2.1,2.1,0,0,1,.342.907l-.971.133a1.055,1.055,0,0,0-.383-.705,1.39,1.39,0,0,0-.9-.255,1.62,1.62,0,0,0-.976.227.656.656,0,0,0-.292.529.552.552,0,0,0,.121.347.873.873,0,0,0,.381.264q.148.057.877.256a12.236,12.236,0,0,1,1.469.459,1.514,1.514,0,0,1,.654.521,1.469,1.469,0,0,1,.236.851,1.676,1.676,0,0,1-.288.935,1.892,1.892,0,0,1-.836.678,3.038,3.038,0,0,1-1.235.24,2.754,2.754,0,0,1-1.741-.475A2.208,2.208,0,0,1,528.169,14492.825Z" fill="#fff"/>
      <path id="Контур_4816" data-name="Контур 4816" d="M542.78,14486.49h1.07v4.671a5.5,5.5,0,0,1-.276,1.935,2.355,2.355,0,0,1-.995,1.165,3.511,3.511,0,0,1-1.888.451,3.879,3.879,0,0,1-1.858-.393,2.231,2.231,0,0,1-1.031-1.134,5.381,5.381,0,0,1-.309-2.024v-4.671h1.069v4.665a4.528,4.528,0,0,0,.2,1.552,1.48,1.48,0,0,0,.672.77,2.339,2.339,0,0,0,1.166.27,2.236,2.236,0,0,0,1.682-.534,3.083,3.083,0,0,0,.5-2.057Z" fill="#fff"/>
      <path id="Контур_4817" data-name="Контур 4817" d="M545.5,14494.574v-5.857h.893v.834a2.107,2.107,0,0,1,1.864-.966,2.459,2.459,0,0,1,.973.19,1.516,1.516,0,0,1,.664.5,1.9,1.9,0,0,1,.309.733,5.606,5.606,0,0,1,.056.964v3.6h-.992v-3.563a2.665,2.665,0,0,0-.117-.905.943.943,0,0,0-.411-.479,1.289,1.289,0,0,0-.691-.181,1.606,1.606,0,0,0-1.1.4,1.99,1.99,0,0,0-.46,1.528v3.2Z" fill="#fff"/>
      <path id="Контур_4818" data-name="Контур 4818" d="M551.79,14487.633v-1.143h.992v1.143Zm0,6.941v-5.857h.992v5.857Z" fill="#fff"/>
      <path id="Контур_4819" data-name="Контур 4819" d="M558.3,14492.687l1.026.129a2.5,2.5,0,0,1-.9,1.394,3.042,3.042,0,0,1-3.714-.295,3.093,3.093,0,0,1-.752-2.219,3.238,3.238,0,0,1,.761-2.294,2.58,2.58,0,0,1,1.974-.816,2.5,2.5,0,0,1,1.919.8,3.179,3.179,0,0,1,.743,2.25c0,.059,0,.146-.005.265h-4.366a2.244,2.244,0,0,0,.546,1.478,1.62,1.62,0,0,0,1.223.513,1.513,1.513,0,0,0,.932-.287A1.9,1.9,0,0,0,558.3,14492.687Zm-3.258-1.6h3.27a1.994,1.994,0,0,0-.375-1.109,1.526,1.526,0,0,0-1.23-.572,1.569,1.569,0,0,0-1.15.459A1.8,1.8,0,0,0,555.043,14491.083Z" fill="#fff"/>
      <path id="Контур_4820" data-name="Контур 4820" d="M560.176,14492.825l.982-.154a1.362,1.362,0,0,0,.46.9,1.6,1.6,0,0,0,1.056.314,1.556,1.556,0,0,0,1.014-.278.833.833,0,0,0,.331-.653.6.6,0,0,0-.293-.529,4.215,4.215,0,0,0-1.014-.337,9.047,9.047,0,0,1-1.513-.478,1.461,1.461,0,0,1-.64-.556,1.476,1.476,0,0,1-.217-.785,1.52,1.52,0,0,1,.178-.727,1.612,1.612,0,0,1,.489-.553,2.051,2.051,0,0,1,.631-.291,3.035,3.035,0,0,1,.857-.118,3.4,3.4,0,0,1,1.21.2,1.642,1.642,0,0,1,.769.538,2.084,2.084,0,0,1,.343.907l-.97.133a1.06,1.06,0,0,0-.384-.705,1.394,1.394,0,0,0-.9-.255,1.618,1.618,0,0,0-.976.227.659.659,0,0,0-.293.529.542.542,0,0,0,.123.347.858.858,0,0,0,.38.264c.1.038.392.123.877.256a12.147,12.147,0,0,1,1.468.459,1.5,1.5,0,0,1,.654.521,1.469,1.469,0,0,1,.238.851,1.678,1.678,0,0,1-.29.935,1.883,1.883,0,0,1-.835.678,3.041,3.041,0,0,1-1.235.24,2.752,2.752,0,0,1-1.741-.475A2.2,2.2,0,0,1,560.176,14492.825Z" fill="#fff"/>
    </g>
    <g id="Сгруппировать_834" data-name="Сгруппировать 834">
      <path id="Контур_4821" data-name="Контур 4821" d="M486.495,14509.136v-8.1h.9v.76a2.245,2.245,0,0,1,.722-.67,2,2,0,0,1,.977-.223,2.327,2.327,0,0,1,1.323.385,2.383,2.383,0,0,1,.866,1.089,3.978,3.978,0,0,1,.292,1.542,3.915,3.915,0,0,1-.322,1.618,2.446,2.446,0,0,1-.938,1.1,2.392,2.392,0,0,1-1.294.384,1.892,1.892,0,0,1-.89-.209,2.051,2.051,0,0,1-.647-.529v2.849Zm.9-5.139a2.547,2.547,0,0,0,.459,1.672,1.4,1.4,0,0,0,1.107.54,1.433,1.433,0,0,0,1.133-.56,2.65,2.65,0,0,0,.472-1.734,2.585,2.585,0,0,0-.46-1.676,1.39,1.39,0,0,0-1.1-.559,1.426,1.426,0,0,0-1.12.595A2.64,2.64,0,0,0,487.393,14504Z" fill="#fff"/>
      <path id="Контур_4822" data-name="Контур 4822" d="M492.406,14503.965a3.02,3.02,0,0,1,.9-2.41,2.728,2.728,0,0,1,1.842-.649,2.625,2.625,0,0,1,1.973.79,3.009,3.009,0,0,1,.766,2.188,3.88,3.88,0,0,1-.338,1.778,2.411,2.411,0,0,1-.987,1,2.862,2.862,0,0,1-1.414.359,2.637,2.637,0,0,1-1.988-.788A3.151,3.151,0,0,1,492.406,14503.965Zm1.02,0a2.49,2.49,0,0,0,.491,1.685,1.635,1.635,0,0,0,2.465,0,2.561,2.561,0,0,0,.49-1.717,2.419,2.419,0,0,0-.493-1.644,1.634,1.634,0,0,0-2.462,0A2.478,2.478,0,0,0,493.426,14503.965Z" fill="#fff"/>
      <path id="Контур_4823" data-name="Контур 4823" d="M502.893,14506.892v-.859a2.144,2.144,0,0,1-1.858.993,2.378,2.378,0,0,1-.968-.2,1.6,1.6,0,0,1-.668-.5,1.893,1.893,0,0,1-.3-.736,4.965,4.965,0,0,1-.061-.926v-3.627h.993v3.246a5.72,5.72,0,0,0,.061,1.048,1.038,1.038,0,0,0,.4.616,1.234,1.234,0,0,0,.75.223,1.652,1.652,0,0,0,.838-.229,1.274,1.274,0,0,0,.553-.624,3.133,3.133,0,0,0,.163-1.145v-3.136h.992v5.854Z" fill="#fff"/>
      <path id="Контур_4824" data-name="Контур 4824" d="M505.324,14506.892v-5.854h.894v.886a2.425,2.425,0,0,1,.631-.82,1.106,1.106,0,0,1,.636-.2,1.945,1.945,0,0,1,1.021.318l-.342.921a1.428,1.428,0,0,0-.728-.215.939.939,0,0,0-.584.2,1.045,1.045,0,0,0-.369.543,3.842,3.842,0,0,0-.167,1.157v3.064Z" fill="#fff"/>
      <path id="Контур_4825" data-name="Контур 4825" d="M512.211,14506.892v-8.082h.992v8.082Z" fill="#fff"/>
      <path id="Контур_4826" data-name="Контур 4826" d="M514.681,14499.879v-1.153h1.065v.91a2.444,2.444,0,0,1-.172,1.065,1.5,1.5,0,0,1-.739.672l-.242-.391a.863.863,0,0,0,.444-.384,1.616,1.616,0,0,0,.162-.72Z" fill="#fff"/>
      <path id="Контур_4827" data-name="Контур 4827" d="M521.259,14505.008l1.025.126a2.5,2.5,0,0,1-.9,1.4,3.048,3.048,0,0,1-3.714-.294,3.1,3.1,0,0,1-.753-2.221,3.237,3.237,0,0,1,.761-2.294,2.573,2.573,0,0,1,1.974-.815,2.508,2.508,0,0,1,1.919.8,3.183,3.183,0,0,1,.745,2.25c0,.06,0,.147-.006.265h-4.367a2.251,2.251,0,0,0,.545,1.478,1.625,1.625,0,0,0,1.225.514,1.515,1.515,0,0,0,.932-.287A1.9,1.9,0,0,0,521.259,14505.008ZM518,14503.4h3.269a1.974,1.974,0,0,0-.375-1.107,1.517,1.517,0,0,0-1.229-.574,1.578,1.578,0,0,0-1.149.458A1.813,1.813,0,0,0,518,14503.4Zm1.07-3.093.734-1.544h1.3l-1.213,1.544Z" fill="#fff"/>
      <path id="Контур_4828" data-name="Контур 4828" d="M527.329,14506.892v-.737a1.823,1.823,0,0,1-1.637.871,2.3,2.3,0,0,1-1.288-.386,2.541,2.541,0,0,1-.909-1.079,3.7,3.7,0,0,1-.323-1.59,4.15,4.15,0,0,1,.293-1.592,2.316,2.316,0,0,1,.876-1.095,2.354,2.354,0,0,1,1.307-.379,1.953,1.953,0,0,1,1.615.8v-2.9h.988v8.082Zm-3.137-2.921a2.54,2.54,0,0,0,.474,1.681,1.424,1.424,0,0,0,1.119.558,1.4,1.4,0,0,0,1.106-.532,2.454,2.454,0,0,0,.455-1.624,2.749,2.749,0,0,0-.463-1.764,1.427,1.427,0,0,0-1.142-.563,1.375,1.375,0,0,0-1.105.541A2.67,2.67,0,0,0,524.192,14503.971Z" fill="#fff"/>
      <path id="Контур_4829" data-name="Контур 4829" d="M533.648,14506.892v-.859a2.142,2.142,0,0,1-1.859.993,2.368,2.368,0,0,1-.966-.2,1.583,1.583,0,0,1-.668-.5,1.894,1.894,0,0,1-.307-.736,5.071,5.071,0,0,1-.06-.926v-3.627h.993v3.246a5.849,5.849,0,0,0,.06,1.048,1.047,1.047,0,0,0,.4.616,1.241,1.241,0,0,0,.75.223,1.641,1.641,0,0,0,.838-.229,1.279,1.279,0,0,0,.555-.624,3.132,3.132,0,0,0,.163-1.145v-3.136h.992v5.854Z" fill="#fff"/>
      <path id="Контур_4830" data-name="Контур 4830" d="M539.911,14504.747l.977.128a2.539,2.539,0,0,1-.819,1.58,2.4,2.4,0,0,1-1.619.57,2.51,2.51,0,0,1-1.932-.786,3.187,3.187,0,0,1-.731-2.252,4.06,4.06,0,0,1,.315-1.66,2.184,2.184,0,0,1,.956-1.067,2.858,2.858,0,0,1,1.4-.354,2.437,2.437,0,0,1,1.56.481,2.221,2.221,0,0,1,.778,1.371l-.965.148a1.6,1.6,0,0,0-.488-.889,1.271,1.271,0,0,0-.847-.3,1.54,1.54,0,0,0-1.218.538,2.553,2.553,0,0,0-.468,1.7,2.632,2.632,0,0,0,.451,1.714,1.473,1.473,0,0,0,1.181.536,1.386,1.386,0,0,0,.975-.359A1.769,1.769,0,0,0,539.911,14504.747Z" fill="#fff"/>
      <path id="Контур_4831" data-name="Контур 4831" d="M545.557,14506.171a3.667,3.667,0,0,1-1.061.661,3.083,3.083,0,0,1-1.094.193,2.124,2.124,0,0,1-1.484-.473,1.555,1.555,0,0,1-.518-1.205,1.631,1.631,0,0,1,.709-1.354,2.383,2.383,0,0,1,.714-.327,7.641,7.641,0,0,1,.882-.148,8.983,8.983,0,0,0,1.77-.341c0-.136.005-.222.005-.261a1.094,1.094,0,0,0-.282-.854,1.657,1.657,0,0,0-1.129-.336,1.752,1.752,0,0,0-1.034.246,1.5,1.5,0,0,0-.493.868l-.971-.132a2.416,2.416,0,0,1,.436-1.007,1.916,1.916,0,0,1,.876-.589,3.9,3.9,0,0,1,1.329-.207,3.513,3.513,0,0,1,1.219.177,1.6,1.6,0,0,1,.689.443,1.553,1.553,0,0,1,.308.676,5.441,5.441,0,0,1,.05.914v1.323a14.09,14.09,0,0,0,.064,1.753,2.215,2.215,0,0,0,.25.7h-1.036A2.119,2.119,0,0,1,545.557,14506.171Zm-.082-2.218a7.249,7.249,0,0,1-1.622.375,3.868,3.868,0,0,0-.865.2.881.881,0,0,0-.392.322.862.862,0,0,0-.137.472.847.847,0,0,0,.3.662,1.3,1.3,0,0,0,.88.265,2.041,2.041,0,0,0,1.02-.251,1.546,1.546,0,0,0,.656-.687,2.4,2.4,0,0,0,.16-.991Z" fill="#fff"/>
      <path id="Контур_4832" data-name="Контур 4832" d="M550.183,14506l.144.878a3.7,3.7,0,0,1-.75.088,1.692,1.692,0,0,1-.838-.172.944.944,0,0,1-.419-.449,3.529,3.529,0,0,1-.122-1.171v-3.368h-.728v-.771h.728v-1.452l.987-.595v2.047h1v.771h-1v3.423a1.711,1.711,0,0,0,.053.548.415.415,0,0,0,.171.191.656.656,0,0,0,.339.072A3.161,3.161,0,0,0,550.183,14506Z" fill="#fff"/>
      <path id="Контур_4833" data-name="Контур 4833" d="M551.159,14499.951v-1.142h.993v1.142Zm0,6.94v-5.854h.993v5.854Z" fill="#fff"/>
      <path id="Контур_4834" data-name="Контур 4834" d="M553.292,14503.965a3.021,3.021,0,0,1,.905-2.41,2.73,2.73,0,0,1,1.842-.649,2.625,2.625,0,0,1,1.973.79,3.014,3.014,0,0,1,.767,2.188,3.865,3.865,0,0,1-.34,1.778,2.391,2.391,0,0,1-.986,1,2.857,2.857,0,0,1-1.414.359,2.641,2.641,0,0,1-1.989-.788A3.155,3.155,0,0,1,553.292,14503.965Zm1.021,0a2.49,2.49,0,0,0,.491,1.685,1.634,1.634,0,0,0,2.464,0,2.556,2.556,0,0,0,.492-1.717,2.414,2.414,0,0,0-.494-1.644,1.634,1.634,0,0,0-2.462,0A2.478,2.478,0,0,0,554.313,14503.965Z" fill="#fff"/>
      <path id="Контур_4835" data-name="Контур 4835" d="M559.943,14506.892v-5.854h.892v.832a2.1,2.1,0,0,1,1.865-.965,2.42,2.42,0,0,1,.972.19,1.536,1.536,0,0,1,.665.5,1.946,1.946,0,0,1,.309.734,5.651,5.651,0,0,1,.055.964v3.6h-.993v-3.561a2.66,2.66,0,0,0-.116-.908.951.951,0,0,0-.41-.479,1.325,1.325,0,0,0-.693-.179,1.611,1.611,0,0,0-1.093.4,1.982,1.982,0,0,0-.461,1.527v3.2Z" fill="#fff"/>
      <path id="Контур_4836" data-name="Контур 4836" d="M566.481,14506.892v-1.131h1.131v1.131a2.014,2.014,0,0,1-.221,1.008,1.44,1.44,0,0,1-.7.593l-.277-.425a.936.936,0,0,0,.463-.405,1.744,1.744,0,0,0,.167-.771Z" fill="#fff"/>
    </g>
    <g id="Сгруппировать_835" data-name="Сгруппировать 835">
      <path id="Контур_4837" data-name="Контур 4837" d="M454.484,14519.213v-8.084h.992v8.084Z" fill="#fff"/>
      <path id="Контур_4838" data-name="Контур 4838" d="M460.836,14518.491a3.789,3.789,0,0,1-1.063.662,3.074,3.074,0,0,1-1.094.191,2.135,2.135,0,0,1-1.482-.471,1.558,1.558,0,0,1-.52-1.205,1.61,1.61,0,0,1,.2-.786,1.629,1.629,0,0,1,.513-.571,2.414,2.414,0,0,1,.714-.324,6.972,6.972,0,0,1,.882-.149,9.088,9.088,0,0,0,1.769-.342c0-.137,0-.223,0-.259a1.094,1.094,0,0,0-.28-.854,1.661,1.661,0,0,0-1.131-.337,1.755,1.755,0,0,0-1.033.245,1.505,1.505,0,0,0-.494.87l-.97-.133a2.377,2.377,0,0,1,.436-1.006,1.9,1.9,0,0,1,.876-.593,3.966,3.966,0,0,1,1.329-.206,3.541,3.541,0,0,1,1.218.177,1.6,1.6,0,0,1,.689.445,1.548,1.548,0,0,1,.309.676,5.444,5.444,0,0,1,.05.913v1.324a13.853,13.853,0,0,0,.064,1.75,2.181,2.181,0,0,0,.251.7h-1.037A2.105,2.105,0,0,1,460.836,14518.491Zm-.084-2.217a7.344,7.344,0,0,1-1.621.374,3.772,3.772,0,0,0-.866.2.872.872,0,0,0-.391.323.876.876,0,0,0,.163,1.133,1.3,1.3,0,0,0,.88.265,2.054,2.054,0,0,0,1.019-.25,1.563,1.563,0,0,0,.657-.687,2.414,2.414,0,0,0,.159-.993Z" fill="#fff"/>
      <path id="Контур_4839" data-name="Контур 4839" d="M466.035,14517.464l.981-.154a1.37,1.37,0,0,0,.46.9,1.6,1.6,0,0,0,1.057.315,1.556,1.556,0,0,0,1.014-.279.831.831,0,0,0,.331-.653.6.6,0,0,0-.293-.529,4.265,4.265,0,0,0-1.014-.336,9.137,9.137,0,0,1-1.514-.479,1.462,1.462,0,0,1-.639-.555,1.483,1.483,0,0,1-.218-.786,1.512,1.512,0,0,1,.179-.727,1.608,1.608,0,0,1,.488-.553,2.061,2.061,0,0,1,.631-.291,3.042,3.042,0,0,1,.858-.118,3.394,3.394,0,0,1,1.209.2,1.652,1.652,0,0,1,.77.538,2.1,2.1,0,0,1,.342.908l-.97.132a1.054,1.054,0,0,0-.384-.705,1.39,1.39,0,0,0-.9-.255,1.621,1.621,0,0,0-.975.227.657.657,0,0,0-.293.529.541.541,0,0,0,.122.347.878.878,0,0,0,.38.265q.15.057.877.255a12.025,12.025,0,0,1,1.468.459,1.5,1.5,0,0,1,.654.521,1.465,1.465,0,0,1,.238.852,1.675,1.675,0,0,1-.29.934,1.874,1.874,0,0,1-.835.679,3.051,3.051,0,0,1-1.235.239,2.751,2.751,0,0,1-1.74-.475A2.2,2.2,0,0,1,466.035,14517.464Z" fill="#fff"/>
      <path id="Контур_4840" data-name="Контур 4840" d="M475.9,14517.067l.975.127a2.539,2.539,0,0,1-.819,1.58,2.381,2.381,0,0,1-1.618.57,2.513,2.513,0,0,1-1.932-.786,3.179,3.179,0,0,1-.73-2.251,4.064,4.064,0,0,1,.314-1.66,2.176,2.176,0,0,1,.957-1.066,2.81,2.81,0,0,1,1.4-.357,2.421,2.421,0,0,1,1.56.483,2.209,2.209,0,0,1,.778,1.37l-.965.149a1.594,1.594,0,0,0-.488-.888,1.26,1.26,0,0,0-.847-.3,1.546,1.546,0,0,0-1.219.537,2.565,2.565,0,0,0-.468,1.7,2.648,2.648,0,0,0,.452,1.714,1.472,1.472,0,0,0,1.18.535,1.389,1.389,0,0,0,.976-.359A1.773,1.773,0,0,0,475.9,14517.067Z" fill="#fff"/>
      <path id="Контур_4841" data-name="Контур 4841" d="M477.729,14512.272v-1.144h.993v1.144Zm0,6.94v-5.856h.993v5.856Z" fill="#fff"/>
      <path id="Контур_4842" data-name="Контур 4842" d="M484.241,14517.326l1.025.128a2.507,2.507,0,0,1-.9,1.394,3.042,3.042,0,0,1-3.714-.295,3.087,3.087,0,0,1-.753-2.219,3.239,3.239,0,0,1,.762-2.294,2.578,2.578,0,0,1,1.973-.816,2.5,2.5,0,0,1,1.918.8,3.167,3.167,0,0,1,.745,2.25c0,.058,0,.146-.005.264h-4.367a2.249,2.249,0,0,0,.546,1.478,1.62,1.62,0,0,0,1.224.514,1.52,1.52,0,0,0,.931-.287A1.918,1.918,0,0,0,484.241,14517.326Zm-3.259-1.6h3.27a1.983,1.983,0,0,0-.375-1.108,1.526,1.526,0,0,0-1.229-.573,1.571,1.571,0,0,0-1.15.459A1.81,1.81,0,0,0,480.982,14515.722Z" fill="#fff"/>
      <path id="Контур_4843" data-name="Контур 4843" d="M486.512,14519.213v-5.856h.893v.834a2.107,2.107,0,0,1,1.864-.967,2.459,2.459,0,0,1,.973.19,1.516,1.516,0,0,1,.664.5,1.91,1.91,0,0,1,.309.733,5.624,5.624,0,0,1,.056.965v3.6h-.992v-3.562a2.671,2.671,0,0,0-.117-.906.943.943,0,0,0-.411-.479,1.289,1.289,0,0,0-.691-.181,1.6,1.6,0,0,0-1.1.4,1.986,1.986,0,0,0-.46,1.527v3.2Z" fill="#fff"/>
      <path id="Контур_4844" data-name="Контур 4844" d="M496.613,14517.067l.976.127a2.538,2.538,0,0,1-.818,1.58,2.383,2.383,0,0,1-1.618.57,2.516,2.516,0,0,1-1.933-.786,3.184,3.184,0,0,1-.731-2.251,4.08,4.08,0,0,1,.314-1.66,2.185,2.185,0,0,1,.957-1.066,2.813,2.813,0,0,1,1.4-.357,2.421,2.421,0,0,1,1.56.483,2.208,2.208,0,0,1,.777,1.37l-.965.149a1.6,1.6,0,0,0-.487-.888,1.26,1.26,0,0,0-.846-.3,1.542,1.542,0,0,0-1.219.537,2.554,2.554,0,0,0-.469,1.7,2.636,2.636,0,0,0,.453,1.714,1.467,1.467,0,0,0,1.179.535,1.389,1.389,0,0,0,.976-.359A1.767,1.767,0,0,0,496.613,14517.067Z" fill="#fff"/>
      <path id="Контур_4845" data-name="Контур 4845" d="M502.447,14517.326l1.025.128a2.5,2.5,0,0,1-.9,1.394,3.041,3.041,0,0,1-3.713-.295,3.091,3.091,0,0,1-.752-2.219,3.238,3.238,0,0,1,.76-2.294,2.581,2.581,0,0,1,1.975-.816,2.5,2.5,0,0,1,1.918.8,3.176,3.176,0,0,1,.744,2.25q0,.086-.006.264h-4.367a2.25,2.25,0,0,0,.547,1.478,1.62,1.62,0,0,0,1.224.514,1.523,1.523,0,0,0,.932-.287A1.916,1.916,0,0,0,502.447,14517.326Zm-3.258-1.6h3.269a1.991,1.991,0,0,0-.375-1.108,1.525,1.525,0,0,0-1.23-.573,1.572,1.572,0,0,0-1.149.459A1.8,1.8,0,0,0,499.189,14515.722Z" fill="#fff"/>
      <path id="Контур_4846" data-name="Контур 4846" d="M511.864,14517.326l1.026.128a2.5,2.5,0,0,1-.9,1.394,3.041,3.041,0,0,1-3.713-.295,3.091,3.091,0,0,1-.752-2.219,3.238,3.238,0,0,1,.76-2.294,2.581,2.581,0,0,1,1.975-.816,2.507,2.507,0,0,1,1.919.8,3.18,3.18,0,0,1,.744,2.25q0,.086-.006.264H508.55a2.244,2.244,0,0,0,.546,1.478,1.62,1.62,0,0,0,1.224.514,1.523,1.523,0,0,0,.932-.287A1.91,1.91,0,0,0,511.864,14517.326Zm-3.258-1.6h3.269a1.983,1.983,0,0,0-.375-1.108,1.525,1.525,0,0,0-1.23-.573,1.572,1.572,0,0,0-1.149.459A1.8,1.8,0,0,0,508.606,14515.722Z" fill="#fff"/>
      <path id="Контур_4847" data-name="Контур 4847" d="M516.3,14518.325l.142.876a3.614,3.614,0,0,1-.75.088,1.7,1.7,0,0,1-.838-.17.978.978,0,0,1-.419-.45,3.579,3.579,0,0,1-.12-1.17v-3.371h-.728v-.771h.728v-1.449l.986-.6v2.046h1v.771h-1v3.425a1.745,1.745,0,0,0,.053.545.422.422,0,0,0,.17.2.688.688,0,0,0,.34.07A3.278,3.278,0,0,0,516.3,14518.325Z" fill="#fff"/>
      <path id="Контур_4848" data-name="Контур 4848" d="M520.388,14519.213v-8.084h.993v8.084Z" fill="#fff"/>
      <path id="Контур_4849" data-name="Контур 4849" d="M526.74,14518.491a3.785,3.785,0,0,1-1.062.662,3.083,3.083,0,0,1-1.095.191,2.137,2.137,0,0,1-1.482-.471,1.557,1.557,0,0,1-.519-1.205,1.609,1.609,0,0,1,.2-.786,1.648,1.648,0,0,1,.513-.571,2.425,2.425,0,0,1,.714-.324,7.005,7.005,0,0,1,.882-.149,9.117,9.117,0,0,0,1.77-.342c0-.137.006-.223.006-.259a1.1,1.1,0,0,0-.281-.854,1.665,1.665,0,0,0-1.131-.337,1.75,1.75,0,0,0-1.033.245,1.505,1.505,0,0,0-.495.87l-.97-.133a2.39,2.39,0,0,1,.436-1.006,1.9,1.9,0,0,1,.877-.593,3.956,3.956,0,0,1,1.328-.206,3.537,3.537,0,0,1,1.218.177,1.6,1.6,0,0,1,.69.445,1.549,1.549,0,0,1,.309.676,5.563,5.563,0,0,1,.05.913v1.324a13.938,13.938,0,0,0,.063,1.75,2.205,2.205,0,0,0,.251.7h-1.037A2.106,2.106,0,0,1,526.74,14518.491Zm-.083-2.217a7.361,7.361,0,0,1-1.62.374,3.757,3.757,0,0,0-.867.2.867.867,0,0,0-.391.323.876.876,0,0,0,.163,1.133,1.294,1.294,0,0,0,.879.265,2.058,2.058,0,0,0,1.02-.25,1.555,1.555,0,0,0,.656-.687,2.4,2.4,0,0,0,.16-.993Z" fill="#fff"/>
      <path id="Контур_4850" data-name="Контур 4850" d="M536.157,14517.067l.975.127a2.528,2.528,0,0,1-.818,1.58,2.381,2.381,0,0,1-1.618.57,2.513,2.513,0,0,1-1.932-.786,3.18,3.18,0,0,1-.731-2.251,4.081,4.081,0,0,1,.314-1.66,2.185,2.185,0,0,1,.957-1.066,2.812,2.812,0,0,1,1.4-.357,2.422,2.422,0,0,1,1.561.483,2.208,2.208,0,0,1,.777,1.37l-.965.149a1.6,1.6,0,0,0-.487-.888,1.261,1.261,0,0,0-.846-.3,1.542,1.542,0,0,0-1.219.537,2.554,2.554,0,0,0-.47,1.7,2.636,2.636,0,0,0,.454,1.714,1.467,1.467,0,0,0,1.178.535,1.392,1.392,0,0,0,.977-.359A1.772,1.772,0,0,0,536.157,14517.067Z" fill="#fff"/>
      <path id="Контур_4851" data-name="Контур 4851" d="M541.82,14519.213v-.86a2.146,2.146,0,0,1-1.859.992,2.379,2.379,0,0,1-.967-.2,1.614,1.614,0,0,1-.668-.5,1.858,1.858,0,0,1-.3-.735,5.1,5.1,0,0,1-.06-.927v-3.629h.992v3.247a5.876,5.876,0,0,0,.06,1.05,1.025,1.025,0,0,0,.4.612,1.229,1.229,0,0,0,.75.226,1.628,1.628,0,0,0,.838-.231,1.262,1.262,0,0,0,.554-.621,3.118,3.118,0,0,0,.163-1.145v-3.138h.992v5.856Z" fill="#fff"/>
      <path id="Контур_4852" data-name="Контур 4852" d="M544.24,14519.213v-8.084h.993v8.084Z" fill="#fff"/>
      <path id="Контур_4853" data-name="Контур 4853" d="M548.938,14518.325l.143.876a3.629,3.629,0,0,1-.75.088,1.7,1.7,0,0,1-.838-.17.973.973,0,0,1-.419-.45,3.543,3.543,0,0,1-.121-1.17v-3.371h-.728v-.771h.728v-1.449l.986-.6v2.046h1v.771h-1v3.425a1.713,1.713,0,0,0,.053.545.419.419,0,0,0,.171.2.682.682,0,0,0,.34.07A3.279,3.279,0,0,0,548.938,14518.325Z" fill="#fff"/>
      <path id="Контур_4854" data-name="Контур 4854" d="M553.746,14519.213v-.86a2.145,2.145,0,0,1-1.859.992,2.364,2.364,0,0,1-.966-.2,1.6,1.6,0,0,1-.668-.5,1.875,1.875,0,0,1-.307-.735,5.1,5.1,0,0,1-.06-.927v-3.629h.993v3.247a5.87,5.87,0,0,0,.06,1.05,1.029,1.029,0,0,0,.4.612,1.228,1.228,0,0,0,.749.226,1.629,1.629,0,0,0,.839-.231,1.264,1.264,0,0,0,.555-.621,3.144,3.144,0,0,0,.162-1.145v-3.138h.993v5.856Z" fill="#fff"/>
      <path id="Контур_4855" data-name="Контур 4855" d="M556.178,14519.213v-5.856h.892v.888a2.449,2.449,0,0,1,.631-.822,1.108,1.108,0,0,1,.638-.2,1.92,1.92,0,0,1,1.019.321l-.341.92a1.439,1.439,0,0,0-.728-.214.952.952,0,0,0-.585.194,1.071,1.071,0,0,0-.37.543,3.879,3.879,0,0,0-.164,1.159v3.065Z" fill="#fff"/>
      <path id="Контур_4856" data-name="Контур 4856" d="M563.957,14517.326l1.025.128a2.5,2.5,0,0,1-.9,1.394,3.041,3.041,0,0,1-3.713-.295,3.091,3.091,0,0,1-.752-2.219,3.238,3.238,0,0,1,.76-2.294,2.581,2.581,0,0,1,1.975-.816,2.508,2.508,0,0,1,1.919.8,3.18,3.18,0,0,1,.743,2.25q0,.086-.006.264h-4.366a2.244,2.244,0,0,0,.546,1.478,1.62,1.62,0,0,0,1.224.514,1.523,1.523,0,0,0,.932-.287A1.909,1.909,0,0,0,563.957,14517.326Zm-3.258-1.6h3.269a1.991,1.991,0,0,0-.375-1.108,1.525,1.525,0,0,0-1.23-.573,1.572,1.572,0,0,0-1.149.459A1.8,1.8,0,0,0,560.7,14515.722Z" fill="#fff"/>
    </g>
  </g>
</svg>
