<?xml version="1.0" encoding="utf-8"?>
<!-- Generator: Adobe Illustrator 24.2.3, SVG Export Plug-In . SVG Version: 6.00 Build 0)  -->
<svg version="1.1" xmlns="http://www.w3.org/2000/svg" xmlns:xlink="http://www.w3.org/1999/xlink" x="0px" y="0px"
	 viewBox="0 0 78.9 78.9" style="enable-background:new 0 0 78.9 78.9;" xml:space="preserve">
<style type="text/css">
	.st0{clip-path:url(#SVGID_2_);}
	.st1{fill:none;stroke:#A3BD49;stroke-width:0.5;stroke-miterlimit:10;}
	.st2{fill:#FFFFFF;stroke:#9D1915;stroke-width:0.75;stroke-miterlimit:10;}
	.st3{clip-path:url(#SVGID_4_);}
	.st4{fill:none;stroke:#9D1915;stroke-width:0.4067;stroke-miterlimit:10;}
	.st5{clip-path:url(#SVGID_6_);}
</style>
<g id="Calque_1">
</g>
<g id="Mode_Isolation">
	<g>
		<defs>
			<path id="SVGID_1_" d="M39.4,0.4L39.4,0.4c-21.6,0-39,17.5-39,39v0c0,21.6,17.5,39,39,39h0c21.6,0,39-17.5,39-39v0
				C78.5,17.9,61,0.4,39.4,0.4z"/>
		</defs>
		<clipPath id="SVGID_2_">
			<use xlink:href="#SVGID_1_"  style="overflow:visible;"/>
		</clipPath>
		<g class="st0">
			<line class="st1" x1="20.4" y1="-2.3" x2="-30.6" y2="81.3"/>
			<line class="st1" x1="24.5" y1="-2.3" x2="-26.6" y2="81.3"/>
			<line class="st1" x1="28.5" y1="-2.3" x2="-22.5" y2="81.3"/>
			<line class="st1" x1="32.6" y1="-2.3" x2="-18.5" y2="81.3"/>
			<line class="st1" x1="36.6" y1="-2.3" x2="-14.4" y2="81.3"/>
			<line class="st1" x1="40.7" y1="-2.3" x2="-10.4" y2="81.3"/>
			<line class="st1" x1="44.7" y1="-2.3" x2="-6.3" y2="81.3"/>
			<line class="st1" x1="48.8" y1="-2.3" x2="-2.3" y2="81.3"/>
			<line class="st1" x1="52.8" y1="-2.3" x2="1.8" y2="81.3"/>
			<line class="st1" x1="56.9" y1="-2.3" x2="5.8" y2="81.3"/>
			<line class="st1" x1="60.9" y1="-2.3" x2="9.9" y2="81.3"/>
			<line class="st1" x1="65" y1="-2.3" x2="13.9" y2="81.3"/>
			<line class="st1" x1="69" y1="-2.3" x2="18" y2="81.3"/>
			<line class="st1" x1="73.1" y1="-2.3" x2="22" y2="81.3"/>
			<line class="st1" x1="77.1" y1="-2.3" x2="26.1" y2="81.3"/>
			<line class="st1" x1="81.2" y1="-2.3" x2="30.1" y2="81.3"/>
			<line class="st1" x1="85.2" y1="-2.3" x2="34.2" y2="81.3"/>
			<line class="st1" x1="89.3" y1="-2.3" x2="38.2" y2="81.3"/>
			<line class="st1" x1="93.3" y1="-2.3" x2="42.3" y2="81.3"/>
			<line class="st1" x1="97.4" y1="-2.3" x2="46.3" y2="81.3"/>
			<line class="st1" x1="101.4" y1="-2.3" x2="50.4" y2="81.3"/>
			<line class="st1" x1="105.5" y1="-2.3" x2="54.4" y2="81.3"/>
			<line class="st1" x1="109.5" y1="-2.3" x2="58.5" y2="81.3"/>
		</g>
		<use xlink:href="#SVGID_1_"  style="overflow:visible;fill:none;stroke:#9D1915;stroke-width:0.8;stroke-miterlimit:10;"/>
	</g>
	<path class="st2" d="M52.5,58.2c-3.5,1-8.1,1.5-13,1.5c-4.9,0-9.5-0.5-13-1.5c-4.3-1.2-6.5-2.9-6.5-5.2c0-4.2,7.8-5.8,12.8-6.3
		c-0.5-0.6-1.1-1.2-1.6-1.8c-4.9-5.7-7.4-10.8-7.4-15.1v-0.9c0-8.7,7.1-15.7,15.7-15.7c8.7,0,15.7,7.1,15.7,15.7v0.9
		c0,4.4-2.5,9.5-7.4,15.1c-0.5,0.6-1.1,1.2-1.6,1.8C51.3,47.3,59,48.8,59,53C59,55.3,56.8,57,52.5,58.2z"/>
	<g>
		<defs>
			<path id="SVGID_3_" d="M39.3,48.3l0.2,0.1l0.2-0.1c1.2-1,3.4-3.1,5.6-5.7c4.3-4.9,6.5-9.4,6.5-12.9v-0.9
				c0-6.8-5.5-12.3-12.3-12.3s-12.3,5.5-12.3,12.3v0.9c0,3.5,2.3,8,6.6,12.9C35.8,45.1,37.9,47.1,39.3,48.3z M39.4,21.8
				c3.9,0,7.1,3.2,7.1,7.1S43.4,36,39.4,36s-7.1-3.2-7.1-7.1S35.5,21.8,39.4,21.8z"/>
		</defs>
		<clipPath id="SVGID_4_">
			<use xlink:href="#SVGID_3_"  style="overflow:visible;"/>
		</clipPath>
		<g class="st3">
			<line class="st4" x1="20.4" y1="-2.3" x2="-30.6" y2="81.3"/>
			<line class="st4" x1="24.5" y1="-2.3" x2="-26.6" y2="81.3"/>
			<line class="st4" x1="28.5" y1="-2.3" x2="-22.5" y2="81.3"/>
			<line class="st4" x1="32.6" y1="-2.3" x2="-18.5" y2="81.3"/>
			<line class="st4" x1="36.6" y1="-2.3" x2="-14.4" y2="81.3"/>
			<line class="st4" x1="40.7" y1="-2.3" x2="-10.4" y2="81.3"/>
			<line class="st4" x1="44.7" y1="-2.3" x2="-6.3" y2="81.3"/>
			<line class="st4" x1="48.8" y1="-2.3" x2="-2.3" y2="81.3"/>
			<line class="st4" x1="52.8" y1="-2.3" x2="1.8" y2="81.3"/>
			<line class="st4" x1="56.9" y1="-2.3" x2="5.8" y2="81.3"/>
			<line class="st4" x1="60.9" y1="-2.3" x2="9.9" y2="81.3"/>
			<line class="st4" x1="65" y1="-2.3" x2="13.9" y2="81.3"/>
			<line class="st4" x1="69" y1="-2.3" x2="18" y2="81.3"/>
			<line class="st4" x1="73.1" y1="-2.3" x2="22" y2="81.3"/>
			<line class="st4" x1="77.1" y1="-2.3" x2="26.1" y2="81.3"/>
			<line class="st4" x1="81.2" y1="-2.3" x2="30.1" y2="81.3"/>
			<line class="st4" x1="85.2" y1="-2.3" x2="34.2" y2="81.3"/>
			<line class="st4" x1="89.3" y1="-2.3" x2="38.2" y2="81.3"/>
			<line class="st4" x1="93.3" y1="-2.3" x2="42.3" y2="81.3"/>
			<line class="st4" x1="97.4" y1="-2.3" x2="46.3" y2="81.3"/>
			<line class="st4" x1="101.4" y1="-2.3" x2="50.4" y2="81.3"/>
			<line class="st4" x1="105.5" y1="-2.3" x2="54.4" y2="81.3"/>
			<line class="st4" x1="109.5" y1="-2.3" x2="58.5" y2="81.3"/>
		</g>
		<use xlink:href="#SVGID_3_"  style="overflow:visible;fill:none;stroke:#9D1915;stroke-width:0.75;stroke-miterlimit:10;"/>
	</g>
	<g>
		<defs>
			<path id="SVGID_5_" d="M55.4,52.8c-0.3-0.3-1.3-1-3.6-1.7c-2.4-0.7-5.6-1.2-9.1-1.4l-0.1,0l-0.1,0.1c-1.3,1.2-2.1,1.9-2.1,1.9
				l-1,0.8l-1-0.8c0,0-0.9-0.7-2.1-1.9l-0.1-0.1l-0.1,0c-3.5,0.2-6.7,0.7-9.1,1.4c-2.3,0.7-3.2,1.3-3.6,1.7L23.3,53l0.2,0.2
				c0.4,0.4,1.6,1.2,4.7,2c3.1,0.8,7.1,1.2,11.3,1.2s8.2-0.4,11.3-1.2c3.1-0.7,4.3-1.5,4.7-2l0.2-0.2L55.4,52.8z"/>
		</defs>
		<clipPath id="SVGID_6_">
			<use xlink:href="#SVGID_5_"  style="overflow:visible;"/>
		</clipPath>
		<g class="st5">
			<line class="st4" x1="20.4" y1="-2.3" x2="-30.6" y2="81.3"/>
			<line class="st4" x1="24.5" y1="-2.3" x2="-26.6" y2="81.3"/>
			<line class="st4" x1="28.5" y1="-2.3" x2="-22.5" y2="81.3"/>
			<line class="st4" x1="32.6" y1="-2.3" x2="-18.5" y2="81.3"/>
			<line class="st4" x1="36.6" y1="-2.3" x2="-14.4" y2="81.3"/>
			<line class="st4" x1="40.7" y1="-2.3" x2="-10.4" y2="81.3"/>
			<line class="st4" x1="44.7" y1="-2.3" x2="-6.3" y2="81.3"/>
			<line class="st4" x1="48.8" y1="-2.3" x2="-2.3" y2="81.3"/>
			<line class="st4" x1="52.8" y1="-2.3" x2="1.8" y2="81.3"/>
			<line class="st4" x1="56.9" y1="-2.3" x2="5.8" y2="81.3"/>
			<line class="st4" x1="60.9" y1="-2.3" x2="9.9" y2="81.3"/>
			<line class="st4" x1="65" y1="-2.3" x2="13.9" y2="81.3"/>
			<line class="st4" x1="69" y1="-2.3" x2="18" y2="81.3"/>
			<line class="st4" x1="73.1" y1="-2.3" x2="22" y2="81.3"/>
			<line class="st4" x1="77.1" y1="-2.3" x2="26.1" y2="81.3"/>
			<line class="st4" x1="81.2" y1="-2.3" x2="30.1" y2="81.3"/>
			<line class="st4" x1="85.2" y1="-2.3" x2="34.2" y2="81.3"/>
			<line class="st4" x1="89.3" y1="-2.3" x2="38.2" y2="81.3"/>
			<line class="st4" x1="93.3" y1="-2.3" x2="42.3" y2="81.3"/>
			<line class="st4" x1="97.4" y1="-2.3" x2="46.3" y2="81.3"/>
			<line class="st4" x1="101.4" y1="-2.3" x2="50.4" y2="81.3"/>
			<line class="st4" x1="105.5" y1="-2.3" x2="54.4" y2="81.3"/>
			<line class="st4" x1="109.5" y1="-2.3" x2="58.5" y2="81.3"/>
		</g>
		<use xlink:href="#SVGID_5_"  style="overflow:visible;fill:none;stroke:#9D1915;stroke-width:0.75;stroke-miterlimit:10;"/>
	</g>
</g>
</svg>
