<?xml version="1.0" encoding="utf-8"?>
<!-- Generator: Adobe Illustrator 24.2.3, SVG Export Plug-In . SVG Version: 6.00 Build 0)  -->
<svg version="1.1" xmlns="http://www.w3.org/2000/svg" xmlns:xlink="http://www.w3.org/1999/xlink" x="0px" y="0px"
	 viewBox="0 0 78.9 78.9" style="enable-background:new 0 0 78.9 78.9;" xml:space="preserve">
<style type="text/css">
	.st0{clip-path:url(#SVGID_2_);}
	.st1{fill:none;stroke:#A3BD49;stroke-width:0.5;stroke-miterlimit:10;}
	.st2{fill:#FFFFFF;stroke:#9D1915;stroke-width:0.75;stroke-miterlimit:10;}
	.st3{clip-path:url(#SVGID_4_);}
	.st4{fill:none;stroke:#9D1915;stroke-width:0.4067;stroke-miterlimit:10;}
</style>
<g id="Calque_1">
</g>
<g id="Mode_Isolation">
	<g>
		<defs>
			<path id="SVGID_1_" d="M39.4,0.4L39.4,0.4c-21.6,0-39,17.5-39,39v0c0,21.6,17.5,39,39,39h0c21.6,0,39-17.5,39-39v0
				C78.5,17.9,61,0.4,39.4,0.4z"/>
		</defs>
		<clipPath id="SVGID_2_">
			<use xlink:href="#SVGID_1_"  style="overflow:visible;"/>
		</clipPath>
		<g class="st0">
			<line class="st1" x1="20.4" y1="-2.3" x2="-30.6" y2="81.3"/>
			<line class="st1" x1="24.5" y1="-2.3" x2="-26.6" y2="81.3"/>
			<line class="st1" x1="28.5" y1="-2.3" x2="-22.5" y2="81.3"/>
			<line class="st1" x1="32.6" y1="-2.3" x2="-18.5" y2="81.3"/>
			<line class="st1" x1="36.6" y1="-2.3" x2="-14.4" y2="81.3"/>
			<line class="st1" x1="40.7" y1="-2.3" x2="-10.4" y2="81.3"/>
			<line class="st1" x1="44.7" y1="-2.3" x2="-6.3" y2="81.3"/>
			<line class="st1" x1="48.8" y1="-2.3" x2="-2.3" y2="81.3"/>
			<line class="st1" x1="52.8" y1="-2.3" x2="1.8" y2="81.3"/>
			<line class="st1" x1="56.9" y1="-2.3" x2="5.8" y2="81.3"/>
			<line class="st1" x1="60.9" y1="-2.3" x2="9.9" y2="81.3"/>
			<line class="st1" x1="65" y1="-2.3" x2="13.9" y2="81.3"/>
			<line class="st1" x1="69" y1="-2.3" x2="18" y2="81.3"/>
			<line class="st1" x1="73.1" y1="-2.3" x2="22" y2="81.3"/>
			<line class="st1" x1="77.1" y1="-2.3" x2="26.1" y2="81.3"/>
			<line class="st1" x1="81.2" y1="-2.3" x2="30.1" y2="81.3"/>
			<line class="st1" x1="85.2" y1="-2.3" x2="34.2" y2="81.3"/>
			<line class="st1" x1="89.3" y1="-2.3" x2="38.2" y2="81.3"/>
			<line class="st1" x1="93.3" y1="-2.3" x2="42.3" y2="81.3"/>
			<line class="st1" x1="97.4" y1="-2.3" x2="46.3" y2="81.3"/>
			<line class="st1" x1="101.4" y1="-2.3" x2="50.4" y2="81.3"/>
			<line class="st1" x1="105.5" y1="-2.3" x2="54.4" y2="81.3"/>
			<line class="st1" x1="109.5" y1="-2.3" x2="58.5" y2="81.3"/>
		</g>
		<use xlink:href="#SVGID_1_"  style="overflow:visible;fill:none;stroke:#9D1915;stroke-width:0.8;stroke-miterlimit:10;"/>
	</g>
	<g>
		<path class="st2" d="M59.6,54.1l-4.1,4.1c-1.4,1.4-3.2,2.1-5,2.1c-1,0-2.1-0.2-3-0.7c-4.1-2-10.2-5.6-16.4-11.8
			s-9.8-12.3-11.8-16.4c-1.3-2.7-0.8-5.9,1.4-8l4.1-4.1c0.8-0.8,2.1-0.8,2.9,0l8.4,8.4c0.8,0.8,0.8,2.1,0,2.9l-3,3.1
			c0.8,1.3,2.4,3.9,5.2,6.7c2.8,2.8,5.3,4.4,6.7,5.2l3.2-3.1c0.8-0.8,2.1-0.8,2.9,0l8.6,8.6C60.5,52,60.5,53.3,59.6,54.1z"/>
	</g>
	<g>
		<defs>
			<path id="SVGID_3_" d="M26.6,22.9c-0.1,0-0.2,0-0.2,0.1l-2.8,2.8c-1,1-1.3,2.6-0.7,3.9c1.9,3.8,5.3,9.6,11.1,15.5
				c5.8,5.8,11.6,9.3,15.5,11.1c1.3,0.6,2.9,0.4,3.9-0.7l2.8-2.8c0.1-0.1,0.1-0.3,0-0.4l-6.1-6.1c-0.1-0.1-0.3-0.1-0.4,0L46,49.8
				l-1.2-0.5c-0.2-0.1-4.2-1.9-8.7-6.4c-4.6-4.6-6.4-8.6-6.4-8.8L29.2,33l3.6-3.6c0.1-0.1,0.1-0.3,0-0.4L26.8,23
				C26.8,23,26.7,22.9,26.6,22.9z"/>
		</defs>
		<clipPath id="SVGID_4_">
			<use xlink:href="#SVGID_3_"  style="overflow:visible;"/>
		</clipPath>
		<g class="st3">
			<line class="st4" x1="20.4" y1="-2.3" x2="-30.6" y2="81.3"/>
			<line class="st4" x1="24.5" y1="-2.3" x2="-26.6" y2="81.3"/>
			<line class="st4" x1="28.5" y1="-2.3" x2="-22.5" y2="81.3"/>
			<line class="st4" x1="32.6" y1="-2.3" x2="-18.5" y2="81.3"/>
			<line class="st4" x1="36.6" y1="-2.3" x2="-14.4" y2="81.3"/>
			<line class="st4" x1="40.7" y1="-2.3" x2="-10.4" y2="81.3"/>
			<line class="st4" x1="44.7" y1="-2.3" x2="-6.3" y2="81.3"/>
			<line class="st4" x1="48.8" y1="-2.3" x2="-2.3" y2="81.3"/>
			<line class="st4" x1="52.8" y1="-2.3" x2="1.8" y2="81.3"/>
			<line class="st4" x1="56.9" y1="-2.3" x2="5.8" y2="81.3"/>
			<line class="st4" x1="60.9" y1="-2.3" x2="9.9" y2="81.3"/>
			<line class="st4" x1="65" y1="-2.3" x2="13.9" y2="81.3"/>
			<line class="st4" x1="69" y1="-2.3" x2="18" y2="81.3"/>
			<line class="st4" x1="73.1" y1="-2.3" x2="22" y2="81.3"/>
			<line class="st4" x1="77.1" y1="-2.3" x2="26.1" y2="81.3"/>
			<line class="st4" x1="81.2" y1="-2.3" x2="30.1" y2="81.3"/>
			<line class="st4" x1="85.2" y1="-2.3" x2="34.2" y2="81.3"/>
			<line class="st4" x1="89.3" y1="-2.3" x2="38.2" y2="81.3"/>
			<line class="st4" x1="93.3" y1="-2.3" x2="42.3" y2="81.3"/>
			<line class="st4" x1="97.4" y1="-2.3" x2="46.3" y2="81.3"/>
			<line class="st4" x1="101.4" y1="-2.3" x2="50.4" y2="81.3"/>
			<line class="st4" x1="105.5" y1="-2.3" x2="54.4" y2="81.3"/>
			<line class="st4" x1="109.5" y1="-2.3" x2="58.5" y2="81.3"/>
		</g>
		<use xlink:href="#SVGID_3_"  style="overflow:visible;fill:none;stroke:#9D1915;stroke-width:0.5;stroke-miterlimit:10;"/>
	</g>
</g>
</svg>
