<?xml version="1.0" encoding="utf-8"?>
<!-- Generator: Adobe Illustrator 24.3.0, SVG Export Plug-In . SVG Version: 6.00 Build 0)  -->
<svg version="1.1" id="Calque_1" xmlns="http://www.w3.org/2000/svg" xmlns:xlink="http://www.w3.org/1999/xlink" x="0px" y="0px"
	 width="113px" height="113px" viewBox="0 0 113 113" style="enable-background:new 0 0 113 113;" xml:space="preserve">
<style type="text/css">
	.st0{fill:none;stroke:#000000;stroke-width:2;stroke-miterlimit:10;}
</style>
<g>
	<g>
		<path class="st0" d="M56.5,1L56.5,1C25.8,1,1,25.8,1,56.5S25.8,112,56.5,112h0c30.6,0,55.5-24.8,55.5-55.5S87.1,1,56.5,1z
			 M85.2,77.3l-5.8,5.8C77.5,85,74.9,86,72.3,86c-1.5,0-2.9-0.3-4.3-1c-5.8-2.8-14.6-8-23.3-16.8s-14-17.5-16.8-23.3
			c-1.8-3.8-1.1-8.4,1.9-11.4l5.8-5.8c1.2-1.1,3-1.1,4.2,0l11.9,12c1.1,1.1,1.1,3,0,4.2l-4.3,4.4c1.1,1.9,3.4,5.6,7.4,9.5
			c3.9,3.9,7.6,6.3,9.5,7.3l4.5-4.3c1.2-1.1,3-1.1,4.1,0l12.3,12.3C86.3,74.3,86.3,76.1,85.2,77.3z"/>
	</g>
	<path d="M71.4,66c-0.3-0.3-0.8-0.3-1.1,0l-5,4.9l-1.5-0.6c-0.2-0.1-5.9-2.6-12.3-9c-6.4-6.4-9-12.1-9.1-12.3l-0.7-1.5l4.9-4.9
		c0.3-0.3,0.3-0.8,0-1.1l-8.4-8.4c-0.3-0.3-0.8-0.3-1.1,0l-4,4c-1.6,1.6-2,4-1,6c2.7,5.5,7.6,13.8,15.9,22.1
		c8.3,8.3,16.6,13.2,22.1,15.9c2,1,4.4,0.6,6-1l4-4c0.3-0.3,0.3-0.8,0-1.1L71.4,66z"/>
</g>
</svg>
