<?xml version="1.0" encoding="utf-8"?>
<!-- Generator: Adobe Illustrator 24.3.0, SVG Export Plug-In . SVG Version: 6.00 Build 0)  -->
<svg version="1.1" id="Calque_1" xmlns="http://www.w3.org/2000/svg" xmlns:xlink="http://www.w3.org/1999/xlink" x="0px" y="0px"
	 width="113px" height="113px" viewBox="0 0 113 113" style="enable-background:new 0 0 113 113;" xml:space="preserve">
<style type="text/css">
	.st0{fill:none;stroke:#000000;stroke-width:2;stroke-miterlimit:10;}
</style>
<g>
	<polygon points="32.3,43.9 32.3,69.1 44.9,56.5 	"/>
	<path d="M62.9,62.8c-1.6,1.6-3.7,2.4-5.8,2.4c-2.1,0-4.2-0.8-5.8-2.4l-2.4-2.4L36.2,73h41.7L65.3,60.4L62.9,62.8z"/>
	<path d="M59,58.9L77.9,40H36.2l18.9,18.9C56.2,60,57.9,60,59,58.9z"/>
	<path class="st0" d="M56.5,1L56.5,1C25.8,1,1,25.8,1,56.5v0C1,87.1,25.8,112,56.5,112h0c30.6,0,55.5-24.8,55.5-55.5v0
		C112,25.8,87.1,1,56.5,1z M87.3,70.2c0,4.5-3.7,8.2-8.2,8.2h-44c-4.5,0-8.2-3.7-8.2-8.2V42.7c0-4.6,3.7-8.2,8.2-8.2h44
		c4.6,0,8.2,3.7,8.2,8.2V70.2z"/>
	<polygon points="81.8,69.1 81.8,43.9 69.2,56.5 	"/>
</g>
</svg>
