<?xml version="1.0" encoding="utf-8"?>
<!-- Generator: Adobe Illustrator 24.2.3, SVG Export Plug-In . SVG Version: 6.00 Build 0)  -->
<svg version="1.1" id="Calque_1" xmlns="http://www.w3.org/2000/svg" xmlns:xlink="http://www.w3.org/1999/xlink" x="0px" y="0px"
	 width="865px" height="761px" viewBox="0 0 865 761" style="enable-background:new 0 0 865 761;" xml:space="preserve">
<style type="text/css">
	.st0{fill-rule:evenodd;clip-rule:evenodd;fill:#3A8980;}
	.st1{fill:none;stroke:#3A8980;stroke-miterlimit:10;}
	.st2{fill-rule:evenodd;clip-rule:evenodd;fill:url(#SVGID_5_);}
	.st3{fill:#FFFFFF;}
	.st4{fill-rule:evenodd;clip-rule:evenodd;fill:url(#SVGID_8_);}
	.st5{fill-rule:evenodd;clip-rule:evenodd;fill:url(#SVGID_11_);}
	.st6{fill-rule:evenodd;clip-rule:evenodd;fill:url(#SVGID_14_);}
	.st7{fill-rule:evenodd;clip-rule:evenodd;fill:url(#SVGID_17_);}
	.st8{fill-rule:evenodd;clip-rule:evenodd;fill:url(#SVGID_20_);}
	.st9{fill-rule:evenodd;clip-rule:evenodd;fill:url(#SVGID_23_);}
	.st10{fill-rule:evenodd;clip-rule:evenodd;fill:url(#SVGID_26_);}
	.st11{fill-rule:evenodd;clip-rule:evenodd;fill:url(#SVGID_29_);}
	.st12{fill-rule:evenodd;clip-rule:evenodd;fill:url(#SVGID_32_);}
	.st13{fill-rule:evenodd;clip-rule:evenodd;fill:url(#SVGID_35_);}
</style>
<g id="Calque_1_1_">
</g>
<g>
	<g>
		<g>
			<defs>
				<polygon id="SVGID_1_" points="270.7,157 275.2,154.8 278.3,154 279,156.3 281.3,155.5 284.3,156.3 285.1,158.5 290.4,162.3 
					294.1,162.3 291.9,172.2 295.7,177.5 298.7,179.7 294.9,180.5 293.4,183.5 298.7,184.3 301.7,187.3 304,202.4 306.3,209.2 
					314.6,219.1 318.4,220.6 319.9,224.4 321.4,224.4 325.9,233.4 335,241 336.5,240.3 338,241.8 335.8,246.3 341.1,246.3 
					344.8,248.6 346.4,250.1 339.5,258.4 344.8,268.3 351.7,274.3 354.7,280.4 356.2,287.2 356.2,290.2 357.7,291.7 357.7,294.7 
					359.2,300 360.7,308.4 361.5,315.2 363,311.4 371.3,304.6 373.6,308.4 376.6,308.4 381.2,305.3 385.7,303.8 387.2,302.3 
					389.5,303.1 390.2,303.8 390.2,306.1 394,317.4 397.8,324.2 394.8,331.1 390.2,340.9 391,343.9 389.5,352.2 390.2,360.6 
					397.1,359.1 400.1,357.5 400.8,358.3 403.1,358.3 401.6,351.5 402.4,346.9 409.9,344.7 417.5,345.4 424.3,348.5 432.6,360.6 
					437.2,360.6 443.2,366.6 455.3,369.6 460.6,374.9 462.9,374.2 465.9,381 472,386.3 480.3,384.8 488.6,384 490.1,384.8 
					500,372.7 508.3,369.6 513.6,362.1 519.6,358.3 519.6,356.8 528,350.7 528.7,343.9 530.2,343.2 534,346.9 537,353.8 
					548.4,349.2 551.4,356 560.5,353 565.8,350 571.8,349.2 581.7,350.7 588.5,348.5 590.8,346.2 594.5,349.2 595.3,354.5 
					595.3,359.8 599.1,359.1 603.6,365.1 611.2,368.9 612.7,371.9 610.4,380.2 614.2,388.6 618,396.9 620.3,396.9 623.3,409 
					627.1,409.8 634.7,407.5 636.9,412 642.2,409.8 643,421.1 642.2,425.6 652.1,433.2 655.1,437.7 658.1,446.1 659.6,452.9 
					656.6,458.9 655.1,460.4 657.4,470.3 658.9,475.6 658.9,483.9 660.4,489.2 660.4,490.7 659.6,493 658.9,497.5 658.1,500.5 
					658.1,503.6 658.1,505.1 658.1,508.1 658.1,511.1 658.9,514.2 658.9,518 658.9,521 657.4,524 655.8,526.3 655.1,528.5 
					654.3,530.8 653.6,532.3 652.1,533.8 651.3,536.1 651.3,538.4 652.1,539.9 652.1,541.4 650.5,542.9 649,544.4 646.8,545.9 
					643.7,546.7 642.2,546.7 639.9,547.5 639.2,547.5 638.4,548.2 636.2,547.5 635.4,546.7 633.9,545.2 631.6,544.4 629.4,545.2 
					627.8,545.2 626.3,545.9 624.8,546.7 623.3,546.7 621.8,547.5 620.3,548.2 618.8,549 618.8,550.5 619.5,552 618,552.8 
					616.5,553.5 615.7,555 615,556.5 615,558.1 614.2,561.1 612.7,562.6 612.7,564.1 612,565.6 612.7,567.9 613.5,569.4 
					613.5,570.9 612.7,573.2 614.2,574.7 614.2,576.2 615,577.7 616.5,579.2 617.2,580.8 616.5,582.3 616.5,583.8 617.2,586.1 
					617.2,587.6 618,589.1 618,590.6 617.2,591.3 617.2,592.9 615.7,592.9 614.2,592.1 612.7,592.1 610.4,592.1 609.7,592.1 
					608.2,592.1 606.7,592.1 605.1,592.1 602.9,592.1 602.9,589.8 600.6,589.8 599.1,589.1 596.8,588.3 593.8,587.6 592.3,586.8 
					592.3,586.1 592.3,584.5 590.8,583 588.5,581.5 587,580 584.7,578.5 582.4,576.2 582.4,573.2 582.4,570.9 583.2,568.6 
					582.4,567.1 581.7,565.6 579.4,565.6 577.1,565.6 575.6,565.6 573.4,565.6 572.6,564.9 571.8,563.4 570.3,561.8 568.8,561.1 
					567.3,561.8 565.8,562.6 562.8,562.6 560.5,562.6 557.5,562.6 555.2,562.6 552.2,561.8 550.7,561.1 548.4,560.3 546.9,560.3 
					546.1,561.1 544.6,561.8 543.9,563.4 542.3,563.4 540.8,564.1 539.3,564.9 538.6,566.4 537.8,567.9 537,570.2 534.8,573.2 
					532.5,574.7 533.3,577 531,580.8 529.5,585.3 528,589.1 525.7,592.9 524.2,596.6 522.7,600.4 521.9,603.5 521.2,604.2 
					520.4,605.7 519.6,605 517.4,604.2 515.1,603.5 512.8,603.5 510.6,602.7 506.8,601.9 505.3,600.4 504.5,601.2 502.2,601.9 
					500,601.9 498.5,602.7 497.7,603.5 496.9,603.5 495.4,600.4 495.4,598.2 494.7,595.9 494.7,592.9 496.2,591.3 498.5,589.1 
					500,588.3 500,587.6 499.2,586.8 498.5,586.1 497.7,586.8 496.9,588.3 496.2,589.1 495.4,589.1 494.7,589.1 493.2,588.3 
					490.9,587.6 487.9,587.6 484.8,589.1 481.8,589.8 479.5,590.6 478,590.6 477.3,592.1 475.8,592.9 474.2,593.6 473.5,592.1 
					472,591.3 471.2,591.3 469.7,592.1 468.2,593.6 467.4,594.4 465.9,595.1 464.4,595.1 463.6,593.6 459.9,589.8 456.8,586.8 
					454.6,583.8 451.5,583.8 449.3,583.8 446.2,584.5 443.2,586.8 440.2,588.3 432.6,592.1 428.8,593.6 425.1,595.9 423.5,596.6 
					420.5,595.1 419,593.6 418.2,590.6 418.2,588.3 419.8,586.1 422,583.8 423.5,582.3 425.8,583 427.3,584.5 428.8,585.3 
					429.6,582.3 430.3,580 431.1,577.7 431.9,573.9 432.6,571.7 431.9,568.6 429.6,567.9 427.3,567.1 425.1,566.4 423.5,566.4 
					422.8,567.9 422.8,570.2 422,571.7 420.5,572.4 419,572.4 418.2,571.7 416.7,569.4 416,568.6 414.5,567.9 412.9,567.9 
					412.9,565.6 411.4,564.1 409.9,562.6 409.9,559.6 409.9,557.3 409.2,555 409.2,552.8 407.6,552 406.1,550.5 406.9,549 
					407.6,547.5 406.9,545.2 406.9,544.4 406.9,542.2 406.9,539.1 404.6,538.4 403.1,536.9 403.9,536.1 405.4,536.1 407.6,536.1 
					409.2,534.6 410.7,532.3 411.4,530.1 411.4,527.8 410.7,525.5 411.4,523.2 411.4,521 410.7,519.5 409.2,518 408.4,517.2 
					408.4,516.4 406.1,517.2 405.4,517.2 404.6,516.4 403.1,514.2 402.4,512.7 401.6,511.1 400.8,509.6 400.1,508.9 400.8,508.1 
					402.4,507.4 403.9,505.1 405.4,504.3 406.1,503.6 408.4,502.8 409.2,502.1 408.4,500.5 407.6,499 407.6,496.8 406.9,496.8 
					405.4,496.8 403.1,496.8 401.6,496.8 400.1,496 398.6,496.8 397.1,496.8 395.5,495.3 394.8,493.7 394,493 392.5,493 390.2,493 
					388.7,492.2 385.7,491.5 384.2,491.5 381.9,490.7 380.4,491.5 378.9,491.5 378.9,490 376.6,490 375.1,490 373.6,489.2 
					372.8,486.9 371.3,486.2 369.1,486.2 369.1,484.7 369.1,483.9 367.5,483.1 366,482.4 364.5,482.4 364.5,480.9 364.5,478.6 
					363.8,477.1 362.2,474.8 360,474.1 357.7,474.1 356.2,474.1 354.7,476.3 352.4,474.1 348.6,474.8 347.9,474.8 347.1,476.3 
					345.6,477.1 344.8,477.8 344.1,476.3 342.6,475.6 341.1,476.3 338.8,477.8 338,480.1 336.5,479.4 334.3,477.8 332.7,477.8 
					331.2,477.8 329,477.1 327.4,474.1 325.2,473.3 323.7,474.1 323.7,474.8 322.1,474.8 319.9,473.3 317.6,472.6 316.1,471.8 
					313.8,471 311.6,470.3 309.3,470.3 307,471 305.5,471 303.2,470.3 302.5,471 302.5,472.6 302.5,474.1 301.7,474.1 302.5,475.6 
					300.2,476.3 299.4,477.1 297.2,477.8 296.4,479.4 294.1,480.1 291.9,480.9 289.6,482.4 287.3,483.1 285.1,483.1 282.8,483.1 
					279.8,482.4 277.5,482.4 276,483.1 273.7,483.1 272.2,481.6 270.7,480.1 268.4,478.6 266.2,477.8 263.9,477.1 261.6,477.1 
					259.3,477.8 256.3,477.8 254,479.4 251,479.4 248.7,478.6 247.2,478.6 246.5,476.3 245.7,475.6 244.2,475.6 242.7,475.6 
					241.2,477.1 239.7,476.3 237.4,475.6 235.9,474.8 233.6,473.3 232.1,471.8 230.6,470.3 229.8,468.8 229.1,467.3 228.3,465.7 
					226.8,465 225.3,463.5 224.5,461.2 223,459.7 220.8,458.9 218.5,457.4 216.2,456.7 214.7,456.7 213.2,455.9 213.2,455.2 
					210.9,453.6 209.4,452.1 208.6,449.1 208.6,446.1 208.6,442.3 207.9,439.3 205.6,437 203.3,436.2 201.1,435.5 199.6,434 
					197.3,433.2 195.8,432.5 194.3,430.2 193.5,428.7 192.8,427.2 191.2,426.4 189,425.6 188.2,424.1 188.2,422.6 188.2,420.3 
					187.5,418.8 186.7,416.6 185.9,414.3 185.9,412 185.2,409.8 185.2,408.2 185.9,407.5 187.5,406.7 189,406 191.2,405.2 
					193.5,405.2 195,403.7 197.3,402.2 200.3,400.7 201.8,399.9 202.6,399.2 202.6,397.6 201.1,393.9 198.8,390.1 195.8,387.1 
					194.3,384 192.8,381 192,378 191.2,374.9 190.5,372.7 189.7,370.4 189,368.9 187.5,368.9 184.4,370.4 180.6,371.9 176.1,373.4 
					173.8,374.2 173.1,374.9 170.8,376.5 168.5,377.2 167,379.5 165.5,378.7 164,379.5 161.7,380.2 160.2,381 158.7,381.8 
					157.2,381 156.4,380.2 155.7,380.2 154.2,378.7 154.2,376.5 153.4,374.9 152.6,373.4 151.9,372.7 150.4,371.2 149.6,370.4 
					149.6,371.2 148.9,369.6 142.8,372.7 142.8,368.9 146.6,367.4 146.6,366.6 145.8,364.4 146.6,363.6 147.4,362.1 148.1,362.1 
					148.9,362.8 151.1,363.6 154.2,362.8 154.9,362.8 155.7,362.1 156.4,360.6 157.2,361.3 158.7,360.6 159.5,359.8 160.2,357.5 
					161,356.8 161.7,355.3 161.7,353.8 161.7,352.2 163.2,351.5 164.8,350.7 166.3,350.7 167,349.2 168.5,347.7 169.3,346.2 
					171.6,345.4 172.3,346.2 173.1,347.7 174.6,350 176.9,349.2 179.1,347.7 181.4,346.9 183.7,345.4 185.9,344.7 187.5,343.9 
					189,343.2 191.2,342.4 194.3,342.4 197.3,342.4 198,340.9 198,339.4 198.8,339.4 200.3,338.6 200.3,337.1 201.8,336.4 
					202.6,334.8 203.3,334.1 204.1,331.8 204.9,330.3 203.3,328.8 203.3,328 201.8,326.5 200.3,325 198.8,324.2 198,322.7 
					200.3,322.7 201.8,323.5 203.3,322 204.9,320.5 206.4,320.5 208.6,319.7 210.2,318.2 210.9,318.2 212.4,318.2 212.4,315.9 
					212.4,314.4 212.4,313.7 213.2,312.9 214.7,312.9 216.2,312.1 217.7,311.4 218.5,309.9 220.8,309.1 223,309.1 224.5,309.1 
					226.8,307.6 227.6,306.8 227.6,304.6 226.8,303.8 226.8,302.3 227.6,300 228.3,299.3 229.8,298.5 231.3,298.5 232.1,299.3 
					234.4,297.8 235.1,296.3 236.6,294.7 238.2,294 238.9,293.2 239.7,291.7 240.4,291.7 241.2,292.5 242.7,291.7 243.5,291 
					245,291 246.5,290.2 248,288.7 247.2,287.2 245.7,286.4 244.2,284.9 243.5,284.1 242.7,283.4 244.2,282.6 245,281.1 
					245.7,278.8 245.7,277.3 245.7,275.8 243.5,276.6 241.9,275.8 239.7,275.1 238.2,275.1 236.6,273.6 237.4,272.8 238.9,271.3 
					240.4,270.5 241.2,269 242.7,268.3 245,268.3 246.5,267.5 248,266.7 248,266 247.2,263.7 246.5,262.2 245.7,260.7 245.7,258.4 
					245.7,256.9 245,254.6 243.5,253.1 241.9,253.9 241.2,253.9 240.4,252.4 238.9,251.6 237.4,253.1 236.6,254.6 236.6,255.4 
					235.9,256.9 235.1,257.7 235.1,258.4 234.4,259.2 233.6,259.2 232.1,259.9 231.3,259.2 230.6,259.2 229.1,259.9 227.6,260.7 
					225.3,260.7 223.8,260.7 222.3,260.7 220,259.9 217.7,259.2 216.2,258.4 213.9,258.4 211.7,258.4 210.9,256.9 211.7,255.4 
					211.7,253.1 210.2,251.6 209.4,249.3 208.6,246.3 208.6,244 208.6,242.5 208.6,241 208.6,239.5 207.9,238 207.1,235.7 
					208.6,235 208.6,234.2 208.6,232.7 210.2,231.9 211.7,230.4 213.2,228.9 214.7,228.2 216.2,227.4 218.5,226.6 220,226.6 
					222.3,225.1 223,224.4 225.3,222.9 226.8,222.1 229.1,220.6 230.6,219.1 232.1,217.6 233.6,217.6 234.4,216 235.9,214.5 
					235.9,213 238.2,213.8 239.7,213 242.7,212.3 244.2,212.3 246.5,211.5 247.2,210 248.7,208.5 249.5,207.7 250.3,207 251,207.7 
					251.8,207 253.3,206.2 254,205.5 254,204.7 253.3,202.4 253.3,201.7 253.3,200.9 252.5,199.4 252.5,197.9 253.3,197.1 
					254,196.4 254.8,194.9 254.8,193.3 254,192.6 252.5,191.8 251.8,190.3 251.8,189.6 252.5,188 252.5,187.3 252.5,185.8 
					252.5,184.3 252.5,182.8 252.5,180.5 252.5,179 253.3,177.5 254,175.2 254.8,173.7 256.3,172.2 257.1,170.6 258.6,169.9 
					259.3,168.4 259.3,166.9 260.9,166.1 262.4,164.6 263.9,163.1 265.4,161.6 266.9,160.8 269.2,159.3 269.9,158.5 				"/>
			</defs>
			<clipPath id="SVGID_2_">
				<use xlink:href="#SVGID_1_"  style="overflow:visible;"/>
			</clipPath>
			<g style="clip-path:url(#SVGID_2_);">
				
					<image style="overflow:visible;" width="519" height="455" xlink:href="../../../../LINK/carte-sud.jpg"  transform="matrix(1 0 0 1 141.7119 152.5584)">
				</image>
			</g>
		</g>
		<circle class="st0" cx="621.4" cy="443.3" r="4.5"/>
		<circle class="st0" cx="271.8" cy="423.1" r="8.4"/>
		<circle class="st0" cx="584.9" cy="521.2" r="7"/>
		<circle class="st0" cx="425.6" cy="492.5" r="9.2"/>
		<circle class="st0" cx="517.4" cy="514.9" r="5.1"/>
		<circle class="st0" cx="338" cy="367.9" r="7"/>
		<circle class="st0" cx="435.3" cy="403.2" r="4.5"/>
		<circle class="st0" cx="254.1" cy="344.8" r="6.2"/>
		<circle class="st0" cx="502.6" cy="578.5" r="4.7"/>
		<circle class="st0" cx="473.3" cy="466.2" r="5.5"/>
		<circle class="st0" cx="306.8" cy="316.4" r="5.5"/>
		<line class="st1" x1="307" y1="316" x2="400" y2="130"/>
		<g>
			<defs>
				<circle id="SVGID_3_" cx="401" cy="128" r="73"/>
			</defs>
			<clipPath id="SVGID_4_">
				<use xlink:href="#SVGID_3_"  style="overflow:visible;"/>
			</clipPath>
			<g style="clip-path:url(#SVGID_4_);">
				
					<image style="overflow:visible;" width="500" height="348" xlink:href="../../../../LINK/Bascharage.jpg"  transform="matrix(0.432 0 0 0.432 304 51.656)">
				</image>
			</g>
		</g>
		
			<linearGradient id="SVGID_5_" gradientUnits="userSpaceOnUse" x1="-770.697" y1="1226.291" x2="-624.697" y2="1226.291" gradientTransform="matrix(4.489700e-11 1 -1 4.489700e-11 1627.291 825.697)">
			<stop  offset="0" style="stop-color:#FFFFFF;stop-opacity:0"/>
			<stop  offset="0.595" style="stop-color:#FCFDFA;stop-opacity:1.768018e-02"/>
			<stop  offset="0.5966" style="stop-color:#F1F6F3;stop-opacity:0.1222"/>
			<stop  offset="0.5995" style="stop-color:#D4E5E1;stop-opacity:0.3055"/>
			<stop  offset="0.6033" style="stop-color:#A5C9C3;stop-opacity:0.5459"/>
			<stop  offset="0.6079" style="stop-color:#64A29A;stop-opacity:0.8309"/>
			<stop  offset="0.6105" style="stop-color:#3A8980"/>
		</linearGradient>
		<circle class="st2" cx="401" cy="128" r="73"/>
		<g>
			<path class="st3" d="M370.1,160.5h1.7v4.4l2.1-4.4h1.6l-2,3.9l2,6.6h-1.7l-1.4-4.7l-0.7,1.3v3.3h-1.7V160.5z"/>
			<path class="st3" d="M379.4,160.5h2.2l1.7,10.5h-1.6l-0.3-2.1v0h-1.9l-0.3,2.1h-1.5L379.4,160.5z M381.2,167.5l-0.7-5.2h0
				l-0.7,5.2H381.2z"/>
			<path class="st3" d="M385.9,160.5h4.5v1.5h-2.8v2.8h2.3v1.5h-2.3v3.2h2.8v1.5h-4.5V160.5z"/>
			<path class="st3" d="M393.2,160.5h2.4c1.7,0,2.4,0.8,2.4,2.4v0.6c0,1.1-0.3,1.8-1.1,2.1v0c0.8,0.3,1.1,1,1.1,2.2v1.8
				c0,0.5,0,0.9,0.2,1.3h-1.7c-0.1-0.3-0.2-0.4-0.2-1.3v-1.9c0-1-0.3-1.3-1-1.3h-0.6v4.5h-1.7V160.5z M395.4,165c0.6,0,1-0.3,1-1.1
				V163c0-0.8-0.3-1.1-0.8-1.1h-0.7v3H395.4z"/>
			<path class="st3" d="M400.7,171v-1.5c0.2,0,0.4,0.1,0.5,0.1c0.7,0,1-0.3,1-1v-8.1h1.6v8c0,1.7-0.8,2.5-2.4,2.5
				C401.1,171,400.9,171,400.7,171z"/>
			<path class="st3" d="M406.8,160.5h4.5v1.5h-2.8v2.8h2.3v1.5h-2.3v3.2h2.8v1.5h-4.5V160.5z"/>
			<path class="st3" d="M414,160.5h2.1l1.6,6.3h0v-6.3h1.5V171h-1.7l-2-7.7h0v7.7H414V160.5z"/>
			<path class="st3" d="M422.1,168.5V163c0-1.7,0.8-2.6,2.5-2.6c1.6,0,2.5,1,2.5,2.6v0.9h-1.6v-1c0-0.8-0.3-1-0.9-1s-0.9,0.3-0.9,1
				v5.7c0,0.8,0.3,1,0.9,1s0.9-0.3,0.9-1v-2.1h-0.8V165h2.4v3.4c0,1.7-0.8,2.6-2.5,2.6C423,171.1,422.1,170.2,422.1,168.5z"/>
		</g>
		<line class="st1" x1="254.5" y1="344.5" x2="72" y2="257"/>
		<g>
			<defs>
				<circle id="SVGID_6_" cx="73" cy="255" r="73"/>
			</defs>
			<clipPath id="SVGID_7_">
				<use xlink:href="#SVGID_6_"  style="overflow:visible;"/>
			</clipPath>
			<g style="clip-path:url(#SVGID_7_);">
				
					<image style="overflow:visible;" width="1376" height="774" xlink:href="../../../../LINK/Petange.jpg"  transform="matrix(0.1566 0 0 0.1566 -63 181)">
				</image>
			</g>
		</g>
		
			<linearGradient id="SVGID_8_" gradientUnits="userSpaceOnUse" x1="-643.697" y1="1554.291" x2="-497.697" y2="1554.291" gradientTransform="matrix(4.489700e-11 1 -1 4.489700e-11 1627.291 825.697)">
			<stop  offset="0" style="stop-color:#FFFFFF;stop-opacity:0"/>
			<stop  offset="0.595" style="stop-color:#FCFDFA;stop-opacity:1.768018e-02"/>
			<stop  offset="0.5966" style="stop-color:#F1F6F3;stop-opacity:0.1222"/>
			<stop  offset="0.5995" style="stop-color:#D4E5E1;stop-opacity:0.3055"/>
			<stop  offset="0.6033" style="stop-color:#A5C9C3;stop-opacity:0.5459"/>
			<stop  offset="0.6079" style="stop-color:#64A29A;stop-opacity:0.8309"/>
			<stop  offset="0.6105" style="stop-color:#3A8980"/>
		</linearGradient>
		<circle class="st4" cx="73" cy="255" r="73"/>
		<g>
			<path class="st3" d="M45.8,287.5h2.4c1.6,0,2.5,0.9,2.5,2.6v1c0,1.7-0.8,2.6-2.5,2.6h-0.8v4.3h-1.7V287.5z M48.3,292.2
				c0.5,0,0.8-0.2,0.8-1V290c0-0.8-0.3-1-0.8-1h-0.8v3.2H48.3z"/>
			<path class="st3" d="M53.4,287.5h4.5v1.5h-2.8v2.8h2.3v1.5h-2.3v3.2h2.8v1.5h-4.5V287.5z"/>
			<path class="st3" d="M62,289h-1.7v-1.5h5.1v1.5h-1.7v9H62V289z"/>
			<path class="st3" d="M68.5,287.5h2.2l1.7,10.5h-1.6l-0.3-2.1v0h-1.9l-0.3,2.1h-1.5L68.5,287.5z M70.3,294.5l-0.7-5.2h0l-0.7,5.2
				H70.3z"/>
			<path class="st3" d="M75.1,287.5h2.1l1.6,6.3h0v-6.3h1.5V298h-1.7l-2-7.7h0v7.7h-1.5V287.5z"/>
			<path class="st3" d="M83.2,295.5V290c0-1.7,0.8-2.6,2.5-2.6s2.5,1,2.5,2.6v0.9h-1.6v-1c0-0.8-0.3-1-0.9-1c-0.5,0-0.9,0.3-0.9,1
				v5.7c0,0.8,0.3,1,0.9,1c0.5,0,0.9-0.3,0.9-1v-2.1h-0.8V292h2.4v3.4c0,1.7-0.8,2.6-2.5,2.6S83.2,297.2,83.2,295.5z"/>
			<path class="st3" d="M90.9,287.5h4.5v1.5h-2.8v2.8h2.3v1.5h-2.3v3.2h2.8v1.5h-4.5V287.5z"/>
		</g>
		<line class="st1" x1="271.5" y1="423.5" x2="72" y2="471"/>
		<g>
			<defs>
				<circle id="SVGID_9_" cx="73" cy="469" r="73"/>
			</defs>
			<clipPath id="SVGID_10_">
				<use xlink:href="#SVGID_9_"  style="overflow:visible;"/>
			</clipPath>
			<g transform="matrix(1 0 0 1 4.768372e-07 0)" style="clip-path:url(#SVGID_10_);">
				
					<image style="overflow:visible;" width="960" height="720" xlink:href="../../../../LINK/Differdange.jpg"  transform="matrix(0.1845 0 0 0.1845 -6 394)">
				</image>
			</g>
		</g>
		
			<linearGradient id="SVGID_11_" gradientUnits="userSpaceOnUse" x1="-429.697" y1="1554.291" x2="-283.697" y2="1554.291" gradientTransform="matrix(4.489700e-11 1 -1 4.489700e-11 1627.291 825.697)">
			<stop  offset="0" style="stop-color:#FFFFFF;stop-opacity:0"/>
			<stop  offset="0.595" style="stop-color:#FCFDFA;stop-opacity:1.768018e-02"/>
			<stop  offset="0.5966" style="stop-color:#F1F6F3;stop-opacity:0.1222"/>
			<stop  offset="0.5995" style="stop-color:#D4E5E1;stop-opacity:0.3055"/>
			<stop  offset="0.6033" style="stop-color:#A5C9C3;stop-opacity:0.5459"/>
			<stop  offset="0.6079" style="stop-color:#64A29A;stop-opacity:0.8309"/>
			<stop  offset="0.6105" style="stop-color:#3A8980"/>
		</linearGradient>
		<circle class="st5" cx="73" cy="469" r="73"/>
		<g>
			<path class="st3" d="M34.3,501.5h2.5c1.7,0,2.5,0.9,2.5,2.6v5.3c0,1.7-0.8,2.6-2.5,2.6h-2.5V501.5z M36.8,510.5
				c0.5,0,0.8-0.3,0.8-1V504c0-0.8-0.3-1-0.8-1H36v7.5H36.8z"/>
			<path class="st3" d="M41.9,501.5h1.7V512h-1.7V501.5z"/>
			<path class="st3" d="M46.3,501.5h4.4v1.5H48v2.9h2.1v1.5H48v4.6h-1.7V501.5z"/>
			<path class="st3" d="M53,501.5h4.4v1.5h-2.7v2.9h2.1v1.5h-2.1v4.6H53V501.5z"/>
			<path class="st3" d="M59.6,501.5h4.5v1.5h-2.8v2.8h2.3v1.5h-2.3v3.2h2.8v1.5h-4.5V501.5z"/>
			<path class="st3" d="M66.6,501.5H69c1.7,0,2.4,0.8,2.4,2.4v0.6c0,1.1-0.3,1.8-1.1,2.1v0c0.8,0.3,1.1,1,1.1,2.2v1.8
				c0,0.5,0,0.9,0.2,1.3H70c-0.1-0.3-0.2-0.4-0.2-1.3v-1.9c0-1-0.3-1.3-1-1.3h-0.6v4.5h-1.7V501.5z M68.8,506c0.6,0,1-0.3,1-1.1V504
				c0-0.8-0.3-1.1-0.8-1.1h-0.7v3H68.8z"/>
			<path class="st3" d="M74.1,501.5h2.5c1.7,0,2.5,0.9,2.5,2.6v5.3c0,1.7-0.8,2.6-2.5,2.6h-2.5V501.5z M76.6,510.5
				c0.5,0,0.8-0.3,0.8-1V504c0-0.8-0.3-1-0.8-1h-0.8v7.5H76.6z"/>
			<path class="st3" d="M82.9,501.5h2.2l1.7,10.5h-1.7l-0.3-2.1v0h-1.9l-0.3,2.1h-1.5L82.9,501.5z M84.7,508.5l-0.7-5.2h0l-0.7,5.2
				H84.7z"/>
			<path class="st3" d="M89.2,501.5h2.1l1.6,6.3h0v-6.3h1.5V512h-1.7l-2-7.7h0v7.7h-1.5V501.5z"/>
			<path class="st3" d="M97,509.5V504c0-1.7,0.8-2.6,2.5-2.6s2.5,1,2.5,2.6v0.9h-1.6v-1c0-0.8-0.3-1-0.9-1c-0.5,0-0.9,0.3-0.9,1v5.7
				c0,0.8,0.3,1,0.9,1c0.5,0,0.9-0.3,0.9-1v-2.1h-0.8V506h2.4v3.4c0,1.7-0.8,2.6-2.5,2.6S97,511.2,97,509.5z"/>
			<path class="st3" d="M104.5,501.5h4.5v1.5h-2.8v2.8h2.3v1.5h-2.3v3.2h2.8v1.5h-4.5V501.5z"/>
		</g>
		<line class="st1" x1="425.5" y1="492.5" x2="211" y2="597"/>
		<g>
			<defs>
				<circle id="SVGID_12_" cx="212" cy="595" r="73"/>
			</defs>
			<clipPath id="SVGID_13_">
				<use xlink:href="#SVGID_12_"  style="overflow:visible;"/>
			</clipPath>
			<g style="clip-path:url(#SVGID_13_);">
				
					<image style="overflow:visible;" width="1000" height="666" xlink:href="../../../../LINK/EschAlzette.jpg"  transform="matrix(0.219 0 0 0.219 107 519)">
				</image>
			</g>
		</g>
		
			<linearGradient id="SVGID_14_" gradientUnits="userSpaceOnUse" x1="-303.697" y1="1415.291" x2="-157.697" y2="1415.291" gradientTransform="matrix(4.489700e-11 1 -1 4.489700e-11 1627.291 825.697)">
			<stop  offset="0" style="stop-color:#FFFFFF;stop-opacity:0"/>
			<stop  offset="0.595" style="stop-color:#FCFDFA;stop-opacity:1.768018e-02"/>
			<stop  offset="0.5966" style="stop-color:#F1F6F3;stop-opacity:0.1222"/>
			<stop  offset="0.5995" style="stop-color:#D4E5E1;stop-opacity:0.3055"/>
			<stop  offset="0.6033" style="stop-color:#A5C9C3;stop-opacity:0.5459"/>
			<stop  offset="0.6079" style="stop-color:#64A29A;stop-opacity:0.8309"/>
			<stop  offset="0.6105" style="stop-color:#3A8980"/>
		</linearGradient>
		<circle class="st6" cx="212" cy="595" r="73"/>
		<g>
			<path class="st3" d="M170.3,627.5h4.5v1.5H172v2.8h2.3v1.5H172v3.2h2.8v1.5h-4.5V627.5z"/>
			<path class="st3" d="M177,635.5v-0.6h1.6v0.7c0,0.8,0.3,1,0.9,1c0.5,0,0.9-0.3,0.9-1c0-0.9-0.3-1.4-1.4-2.4
				c-1.4-1.2-1.8-2.1-1.8-3.3c0-1.6,0.9-2.6,2.5-2.6c1.6,0,2.4,1,2.4,2.6v0.4h-1.6v-0.5c0-0.8-0.3-1-0.8-1c-0.5,0-0.8,0.3-0.8,1
				c0,0.8,0.3,1.3,1.4,2.3c1.4,1.2,1.8,2.1,1.8,3.4c0,1.7-0.9,2.7-2.5,2.7S177,637.2,177,635.5z"/>
			<path class="st3" d="M184.3,635.5v-5.6c0-1.6,0.8-2.6,2.4-2.6s2.4,1,2.4,2.6v1.1h-1.6v-1.2c0-0.7-0.3-1-0.8-1s-0.8,0.3-0.8,1v5.9
				c0,0.7,0.3,1,0.8,1s0.8-0.3,0.8-1v-1.6h1.6v1.5c0,1.6-0.8,2.6-2.4,2.6S184.3,637.2,184.3,635.5z"/>
			<path class="st3" d="M191.6,627.5h1.7v4.3h1.8v-4.3h1.7V638H195v-4.7h-1.8v4.7h-1.7V627.5z"/>
			<path class="st3" d="M203.1,627.5h1.4l-4.1,10.5h-1.4L203.1,627.5z"/>
			<path class="st3" d="M207.6,627.5h2.2l1.7,10.5h-1.7l-0.3-2.1v0h-1.9l-0.3,2.1h-1.5L207.6,627.5z M209.4,634.5l-0.7-5.2h0
				l-0.7,5.2H209.4z"/>
			<path class="st3" d="M213.9,627.5h1.7v9h2.7v1.5h-4.4V627.5z"/>
			<path class="st3" d="M220.2,636.5l3.1-7.5h-2.9v-1.5h4.7v1.5l-3.1,7.5h3.1v1.5h-4.8V636.5z"/>
			<path class="st3" d="M227.5,627.5h4.5v1.5h-2.8v2.8h2.3v1.5h-2.3v3.2h2.8v1.5h-4.5V627.5z"/>
			<path class="st3" d="M235.7,629H234v-1.5h5.1v1.5h-1.7v9h-1.7V629z"/>
			<path class="st3" d="M242.8,629h-1.7v-1.5h5.1v1.5h-1.7v9h-1.6V629z"/>
			<path class="st3" d="M248.5,627.5h4.5v1.5h-2.8v2.8h2.3v1.5h-2.3v3.2h2.8v1.5h-4.5V627.5z"/>
		</g>
		<line class="st1" x1="502.5" y1="578.5" x2="381" y2="690"/>
		<g>
			<defs>
				<circle id="SVGID_15_" cx="382" cy="688" r="73"/>
			</defs>
			<clipPath id="SVGID_16_">
				<use xlink:href="#SVGID_15_"  style="overflow:visible;"/>
			</clipPath>
			<g transform="matrix(1 0 0 1 0 0)" style="clip-path:url(#SVGID_16_);">
				
					<image style="overflow:visible;" width="500" height="333" xlink:href="../../../../LINK/Rumelange.jpg"  transform="matrix(0.448 0 0 0.448 263 590)">
				</image>
			</g>
		</g>
		
			<linearGradient id="SVGID_17_" gradientUnits="userSpaceOnUse" x1="-210.697" y1="1245.291" x2="-64.697" y2="1245.291" gradientTransform="matrix(4.489700e-11 1 -1 4.489700e-11 1627.291 825.697)">
			<stop  offset="0" style="stop-color:#FFFFFF;stop-opacity:0"/>
			<stop  offset="0.595" style="stop-color:#FCFDFA;stop-opacity:1.768018e-02"/>
			<stop  offset="0.5966" style="stop-color:#F1F6F3;stop-opacity:0.1222"/>
			<stop  offset="0.5995" style="stop-color:#D4E5E1;stop-opacity:0.3055"/>
			<stop  offset="0.6033" style="stop-color:#A5C9C3;stop-opacity:0.5459"/>
			<stop  offset="0.6079" style="stop-color:#64A29A;stop-opacity:0.8309"/>
			<stop  offset="0.6105" style="stop-color:#3A8980"/>
		</linearGradient>
		<circle class="st7" cx="382" cy="688" r="73"/>
		<g>
			<path class="st3" d="M345.6,720.5h2.4c1.7,0,2.4,0.8,2.4,2.4v0.6c0,1.1-0.3,1.8-1.1,2.1v0c0.8,0.3,1.1,1,1.1,2.2v1.8
				c0,0.5,0,0.9,0.2,1.3h-1.7c-0.1-0.3-0.2-0.4-0.2-1.3v-1.9c0-1-0.3-1.3-1-1.3h-0.6v4.5h-1.7V720.5z M347.9,725c0.6,0,1-0.3,1-1.1
				V723c0-0.8-0.3-1.1-0.8-1.1h-0.7v3H347.9z"/>
			<path class="st3" d="M353.4,728.5v-8h1.6v8.1c0,0.8,0.3,1,0.8,1s0.8-0.3,0.8-1v-8.1h1.6v8c0,1.7-0.8,2.6-2.5,2.6
				C354.3,731.1,353.4,730.2,353.4,728.5z"/>
			<path class="st3" d="M361.3,720.5h2.4l1.1,7.5h0l1-7.5h2.4V731h-1.6V723h0l-1.2,7.9H364l-1.2-7.9h0v7.9h-1.4V720.5z"/>
			<path class="st3" d="M371.2,720.5h4.5v1.5h-2.8v2.8h2.3v1.5h-2.3v3.2h2.8v1.5h-4.5V720.5z"/>
			<path class="st3" d="M378.4,720.5h1.7v9h2.7v1.5h-4.4V720.5z"/>
			<path class="st3" d="M386.7,720.5h2.2l1.7,10.5H389l-0.3-2.1v0h-1.9l-0.3,2.1H385L386.7,720.5z M388.5,727.5l-0.7-5.2h0l-0.7,5.2
				H388.5z"/>
			<path class="st3" d="M393.3,720.5h2.1l1.6,6.3h0v-6.3h1.5V731h-1.7l-2-7.7h0v7.7h-1.5V720.5z"/>
			<path class="st3" d="M401.4,728.5V723c0-1.7,0.8-2.6,2.5-2.6c1.6,0,2.5,1,2.5,2.6v0.9h-1.6v-1c0-0.8-0.3-1-0.9-1s-0.9,0.3-0.9,1
				v5.7c0,0.8,0.3,1,0.9,1s0.9-0.3,0.9-1v-2.1h-0.8V725h2.4v3.4c0,1.7-0.8,2.6-2.5,2.6C402.2,731.1,401.4,730.2,401.4,728.5z"/>
			<path class="st3" d="M409.1,720.5h4.5v1.5h-2.8v2.8h2.3v1.5h-2.3v3.2h2.8v1.5h-4.5V720.5z"/>
		</g>
		<line class="st1" x1="517.5" y1="514.5" x2="697" y2="663"/>
		<g>
			<defs>
				<circle id="SVGID_18_" cx="698" cy="661" r="73"/>
			</defs>
			<clipPath id="SVGID_19_">
				<use xlink:href="#SVGID_18_"  style="overflow:visible;"/>
			</clipPath>
			<g transform="matrix(1 0 0 1 0 0)" style="clip-path:url(#SVGID_19_);">
				
					<image style="overflow:visible;" width="1280" height="800" xlink:href="../../../../LINK/Kayl.jpg"  transform="matrix(0.2403 0 0 0.2403 558 547)">
				</image>
			</g>
		</g>
		
			<linearGradient id="SVGID_20_" gradientUnits="userSpaceOnUse" x1="-237.697" y1="929.291" x2="-91.697" y2="929.291" gradientTransform="matrix(4.489700e-11 1 -1 4.489700e-11 1627.291 825.697)">
			<stop  offset="0" style="stop-color:#FFFFFF;stop-opacity:0"/>
			<stop  offset="0.595" style="stop-color:#FCFDFA;stop-opacity:1.768018e-02"/>
			<stop  offset="0.5966" style="stop-color:#F1F6F3;stop-opacity:0.1222"/>
			<stop  offset="0.5995" style="stop-color:#D4E5E1;stop-opacity:0.3055"/>
			<stop  offset="0.6033" style="stop-color:#A5C9C3;stop-opacity:0.5459"/>
			<stop  offset="0.6079" style="stop-color:#64A29A;stop-opacity:0.8309"/>
			<stop  offset="0.6105" style="stop-color:#3A8980"/>
		</linearGradient>
		<circle class="st8" cx="698" cy="661" r="73"/>
		<g>
			<path class="st3" d="M682.1,693.5h1.7v4.4l2.1-4.4h1.7l-2,3.9l2,6.6h-1.7l-1.4-4.7l-0.7,1.3v3.3h-1.7V693.5z"/>
			<path class="st3" d="M691.4,693.5h2.2l1.7,10.5h-1.7l-0.3-2.1v0h-1.9l-0.3,2.1h-1.5L691.4,693.5z M693.2,700.5l-0.7-5.2h0
				l-0.7,5.2H693.2z"/>
			<path class="st3" d="M698.8,699.5l-2-6h1.8l1.1,3.9h0l1.1-3.9h1.6l-2,6v4.5h-1.6V699.5z"/>
			<path class="st3" d="M705,693.5h1.7v9h2.7v1.5H705V693.5z"/>
		</g>
		<line class="st1" x1="337.5" y1="367.5" x2="551" y2="75"/>
		<g>
			<defs>
				<circle id="SVGID_21_" cx="552" cy="73" r="73"/>
			</defs>
			<clipPath id="SVGID_22_">
				<use xlink:href="#SVGID_21_"  style="overflow:visible;"/>
			</clipPath>
			<g style="clip-path:url(#SVGID_22_);">
				
					<image style="overflow:visible;" width="960" height="960" xlink:href="../../../../LINK/Sanem.jpg"  transform="matrix(0.1938 0 0 0.1938 469.9564 -21.2196)">
				</image>
			</g>
		</g>
		
			<linearGradient id="SVGID_23_" gradientUnits="userSpaceOnUse" x1="-825.697" y1="1075.291" x2="-679.697" y2="1075.291" gradientTransform="matrix(4.489700e-11 1 -1 4.489700e-11 1627.291 825.697)">
			<stop  offset="0" style="stop-color:#FFFFFF;stop-opacity:0"/>
			<stop  offset="0.595" style="stop-color:#FCFDFA;stop-opacity:1.768018e-02"/>
			<stop  offset="0.5966" style="stop-color:#F1F6F3;stop-opacity:0.1222"/>
			<stop  offset="0.5995" style="stop-color:#D4E5E1;stop-opacity:0.3055"/>
			<stop  offset="0.6033" style="stop-color:#A5C9C3;stop-opacity:0.5459"/>
			<stop  offset="0.6079" style="stop-color:#64A29A;stop-opacity:0.8309"/>
			<stop  offset="0.6105" style="stop-color:#3A8980"/>
		</linearGradient>
		<circle class="st9" cx="552" cy="73" r="73"/>
		<g>
			<path class="st3" d="M530.5,113.5v-0.6h1.6v0.7c0,0.8,0.3,1,0.9,1c0.5,0,0.9-0.3,0.9-1c0-0.9-0.3-1.4-1.4-2.4
				c-1.4-1.2-1.8-2.1-1.8-3.3c0-1.6,0.9-2.6,2.5-2.6c1.6,0,2.4,1,2.4,2.6v0.4h-1.6v-0.5c0-0.8-0.3-1-0.8-1c-0.5,0-0.8,0.3-0.8,1
				c0,0.8,0.3,1.3,1.4,2.3c1.4,1.2,1.8,2.1,1.8,3.4c0,1.7-0.9,2.7-2.5,2.7S530.5,115.2,530.5,113.5z"/>
			<path class="st3" d="M539.4,105.5h2.2l1.7,10.5h-1.7l-0.3-2.1v0h-1.9l-0.3,2.1h-1.5L539.4,105.5z M541.2,112.5l-0.7-5.2h0
				l-0.7,5.2H541.2z"/>
			<path class="st3" d="M545.9,105.5h2.1l1.6,6.3h0v-6.3h1.5V116h-1.7l-2-7.7h0v7.7h-1.5V105.5z"/>
			<path class="st3" d="M554.1,105.5h4.5v1.5h-2.8v2.8h2.3v1.5h-2.3v3.2h2.8v1.5h-4.5V105.5z"/>
			<path class="st3" d="M561.4,105.5h2.4l1,7.5h0l1-7.5h2.4V116h-1.6V108h0l-1.2,7.9h-1.4l-1.2-7.9h0v7.9h-1.4V105.5z"/>
		</g>
		<line class="st1" x1="435.5" y1="403.5" x2="565" y2="240"/>
		<g>
			<defs>
				<circle id="SVGID_24_" cx="566" cy="238" r="73"/>
			</defs>
			<clipPath id="SVGID_25_">
				<use xlink:href="#SVGID_24_"  style="overflow:visible;"/>
			</clipPath>
			<g style="clip-path:url(#SVGID_25_);">
				
					<image style="overflow:visible;" width="576" height="288" xlink:href="../../../../LINK/Mondercange.jpg"  transform="matrix(0.4995 0 0 0.4995 361 164)">
				</image>
			</g>
		</g>
		
			<linearGradient id="SVGID_26_" gradientUnits="userSpaceOnUse" x1="-660.697" y1="1061.291" x2="-514.697" y2="1061.291" gradientTransform="matrix(4.489700e-11 1 -1 4.489700e-11 1627.291 825.697)">
			<stop  offset="0" style="stop-color:#FFFFFF;stop-opacity:0"/>
			<stop  offset="0.595" style="stop-color:#FCFDFA;stop-opacity:1.768018e-02"/>
			<stop  offset="0.5966" style="stop-color:#F1F6F3;stop-opacity:0.1222"/>
			<stop  offset="0.5995" style="stop-color:#D4E5E1;stop-opacity:0.3055"/>
			<stop  offset="0.6033" style="stop-color:#A5C9C3;stop-opacity:0.5459"/>
			<stop  offset="0.6079" style="stop-color:#64A29A;stop-opacity:0.8309"/>
			<stop  offset="0.6105" style="stop-color:#3A8980"/>
		</linearGradient>
		<circle class="st10" cx="566" cy="238" r="73"/>
		<g>
			<path class="st3" d="M527.7,270.5h2.2l1,7.5h0l1-7.5h2.2V281h-1.5V273h0l-1.1,7.9h-1.3l-1.1-7.9h0v7.9h-1.3V270.5z"/>
			<path class="st3" d="M536.5,278.5V273c0-1.7,0.8-2.6,2.3-2.6s2.3,1,2.3,2.6v5.5c0,1.7-0.8,2.6-2.3,2.6S536.5,280.2,536.5,278.5z
				 M539.6,278.6v-5.7c0-0.8-0.3-1-0.8-1s-0.8,0.3-0.8,1v5.7c0,0.8,0.3,1,0.8,1S539.6,279.3,539.6,278.6z"/>
			<path class="st3" d="M543.6,270.5h1.9l1.5,6.3h0v-6.3h1.4V281h-1.6l-1.8-7.7h0v7.7h-1.4V270.5z"/>
			<path class="st3" d="M550.9,270.5h2.3c1.5,0,2.3,0.9,2.3,2.6v5.3c0,1.7-0.8,2.6-2.3,2.6h-2.3V270.5z M553.2,279.5
				c0.5,0,0.8-0.3,0.8-1V273c0-0.8-0.3-1-0.8-1h-0.8v7.5H553.2z"/>
			<path class="st3" d="M558,270.5h4.2v1.5h-2.6v2.8h2.1v1.5h-2.1v3.2h2.6v1.5H558V270.5z"/>
			<path class="st3" d="M564.4,270.5h2.3c1.6,0,2.3,0.8,2.3,2.4v0.6c0,1.1-0.3,1.8-1,2.1v0c0.8,0.3,1,1,1,2.2v1.8
				c0,0.5,0,0.9,0.2,1.3h-1.6c-0.1-0.3-0.1-0.4-0.1-1.3v-1.9c0-1-0.3-1.3-1-1.3H566v4.5h-1.5V270.5z M566.5,275
				c0.6,0,0.9-0.3,0.9-1.1V273c0-0.8-0.2-1.1-0.8-1.1H566v3H566.5z"/>
			<path class="st3" d="M571.4,278.5v-5.6c0-1.6,0.8-2.6,2.3-2.6c1.5,0,2.3,1,2.3,2.6v1.1h-1.5v-1.2c0-0.7-0.3-1-0.8-1
				c-0.5,0-0.8,0.3-0.8,1v5.9c0,0.7,0.3,1,0.8,1c0.5,0,0.8-0.3,0.8-1v-1.6h1.5v1.5c0,1.6-0.8,2.6-2.3,2.6
				C572.1,281.1,571.4,280.2,571.4,278.5z"/>
			<path class="st3" d="M579.4,270.5h2.1L583,281h-1.5l-0.3-2.1v0h-1.7l-0.3,2.1h-1.4L579.4,270.5z M581.1,277.5l-0.7-5.2h0
				l-0.7,5.2H581.1z"/>
			<path class="st3" d="M585.2,270.5h1.9l1.5,6.3h0v-6.3h1.4V281h-1.6l-1.8-7.7h0v7.7h-1.4V270.5z"/>
			<path class="st3" d="M592.4,278.5V273c0-1.7,0.8-2.6,2.3-2.6c1.5,0,2.3,1,2.3,2.6v0.9h-1.5v-1c0-0.8-0.3-1-0.8-1s-0.8,0.3-0.8,1
				v5.7c0,0.8,0.3,1,0.8,1s0.8-0.3,0.8-1v-2.1h-0.8V275h2.2v3.4c0,1.7-0.8,2.6-2.3,2.6C593.2,281.1,592.4,280.2,592.4,278.5z"/>
			<path class="st3" d="M599.4,270.5h4.2v1.5h-2.7v2.8h2.1v1.5h-2.1v3.2h2.7v1.5h-4.2V270.5z"/>
		</g>
		<line class="st1" x1="473.5" y1="467.5" x2="730" y2="176"/>
		<g>
			<defs>
				<circle id="SVGID_27_" cx="731" cy="174" r="73"/>
			</defs>
			<clipPath id="SVGID_28_">
				<use xlink:href="#SVGID_27_"  style="overflow:visible;"/>
			</clipPath>
			<g style="clip-path:url(#SVGID_28_);">
				
					<image style="overflow:visible;" width="460" height="307" xlink:href="../../../../LINK/Schifflange.jpg"  transform="matrix(0.4759 0 0 0.4759 644 100)">
				</image>
			</g>
		</g>
		
			<linearGradient id="SVGID_29_" gradientUnits="userSpaceOnUse" x1="-724.697" y1="896.291" x2="-578.697" y2="896.291" gradientTransform="matrix(4.489700e-11 1 -1 4.489700e-11 1627.291 825.697)">
			<stop  offset="0" style="stop-color:#FFFFFF;stop-opacity:0"/>
			<stop  offset="0.595" style="stop-color:#FCFDFA;stop-opacity:1.768018e-02"/>
			<stop  offset="0.5966" style="stop-color:#F1F6F3;stop-opacity:0.1222"/>
			<stop  offset="0.5995" style="stop-color:#D4E5E1;stop-opacity:0.3055"/>
			<stop  offset="0.6033" style="stop-color:#A5C9C3;stop-opacity:0.5459"/>
			<stop  offset="0.6079" style="stop-color:#64A29A;stop-opacity:0.8309"/>
			<stop  offset="0.6105" style="stop-color:#3A8980"/>
		</linearGradient>
		<circle class="st11" cx="731" cy="174" r="73"/>
		<g>
			<path class="st3" d="M689.9,214.5v-0.6h1.6v0.7c0,0.8,0.3,1,0.9,1s0.9-0.3,0.9-1c0-0.9-0.3-1.4-1.4-2.4c-1.4-1.2-1.8-2.1-1.8-3.3
				c0-1.6,0.9-2.6,2.5-2.6c1.6,0,2.4,1,2.4,2.6v0.4h-1.6v-0.5c0-0.8-0.3-1-0.8-1c-0.5,0-0.8,0.3-0.8,1c0,0.8,0.3,1.3,1.4,2.3
				c1.4,1.2,1.8,2.1,1.8,3.4c0,1.7-0.9,2.7-2.5,2.7C690.8,217.1,689.9,216.2,689.9,214.5z"/>
			<path class="st3" d="M697.5,214.5v-5.6c0-1.6,0.8-2.6,2.4-2.6s2.4,1,2.4,2.6v1.1h-1.6v-1.2c0-0.7-0.3-1-0.8-1s-0.8,0.3-0.8,1v5.9
				c0,0.7,0.3,1,0.8,1s0.8-0.3,0.8-1v-1.6h1.6v1.5c0,1.6-0.8,2.6-2.4,2.6S697.5,216.2,697.5,214.5z"/>
			<path class="st3" d="M705.2,206.5h1.7v4.3h1.8v-4.3h1.6V217h-1.6v-4.7h-1.8v4.7h-1.7V206.5z"/>
			<path class="st3" d="M713.3,206.5h1.7V217h-1.7V206.5z"/>
			<path class="st3" d="M717.9,206.5h4.4v1.5h-2.7v2.9h2.1v1.5h-2.1v4.6h-1.7V206.5z"/>
			<path class="st3" d="M724.9,206.5h4.4v1.5h-2.7v2.9h2.1v1.5h-2.1v4.6h-1.7V206.5z"/>
			<path class="st3" d="M731.9,206.5h1.7v9h2.7v1.5h-4.4V206.5z"/>
			<path class="st3" d="M740.2,206.5h2.2l1.7,10.5h-1.6l-0.3-2.1v0h-1.9L740,217h-1.5L740.2,206.5z M742,213.5l-0.7-5.2h0l-0.7,5.2
				H742z"/>
			<path class="st3" d="M746.7,206.5h2.1l1.6,6.3h0v-6.3h1.5V217h-1.7l-2-7.7h0v7.7h-1.5V206.5z"/>
			<path class="st3" d="M754.8,214.5V209c0-1.7,0.8-2.6,2.5-2.6s2.5,1,2.5,2.6v0.9h-1.6v-1c0-0.8-0.3-1-0.9-1c-0.5,0-0.9,0.3-0.9,1
				v5.7c0,0.8,0.3,1,0.9,1c0.5,0,0.9-0.3,0.9-1v-2.1h-0.8V211h2.4v3.4c0,1.7-0.8,2.6-2.5,2.6S754.8,216.2,754.8,214.5z"/>
			<path class="st3" d="M762.6,206.5h4.5v1.5h-2.8v2.8h2.3v1.5h-2.3v3.2h2.8v1.5h-4.5V206.5z"/>
		</g>
		<line class="st1" x1="622.5" y1="444.5" x2="791" y2="332"/>
		<g>
			<defs>
				<circle id="SVGID_30_" cx="792" cy="330" r="73"/>
			</defs>
			<clipPath id="SVGID_31_">
				<use xlink:href="#SVGID_30_"  style="overflow:visible;"/>
			</clipPath>
			<g style="clip-path:url(#SVGID_31_);">
				
					<image style="overflow:visible;" width="570" height="262" xlink:href="../../../../LINK/Bettembourg.jpg"  transform="matrix(0.529 0 0 0.529 596 255)">
				</image>
			</g>
		</g>
		
			<linearGradient id="SVGID_32_" gradientUnits="userSpaceOnUse" x1="-568.697" y1="835.291" x2="-422.697" y2="835.291" gradientTransform="matrix(4.489700e-11 1 -1 4.489700e-11 1627.291 825.697)">
			<stop  offset="0" style="stop-color:#FFFFFF;stop-opacity:0"/>
			<stop  offset="0.595" style="stop-color:#FCFDFA;stop-opacity:1.768018e-02"/>
			<stop  offset="0.5966" style="stop-color:#F1F6F3;stop-opacity:0.1222"/>
			<stop  offset="0.5995" style="stop-color:#D4E5E1;stop-opacity:0.3055"/>
			<stop  offset="0.6033" style="stop-color:#A5C9C3;stop-opacity:0.5459"/>
			<stop  offset="0.6079" style="stop-color:#64A29A;stop-opacity:0.8309"/>
			<stop  offset="0.6105" style="stop-color:#3A8980"/>
		</linearGradient>
		<circle class="st12" cx="792" cy="330" r="73"/>
		<g>
			<path class="st3" d="M754.6,362.5h2.5c1.7,0,2.4,0.8,2.4,2.4v0.4c0,1.1-0.3,1.8-1.1,2.1v0c0.9,0.3,1.2,1.1,1.2,2.2v0.9
				c0,1.6-0.9,2.5-2.5,2.5h-2.6V362.5z M756.9,366.7c0.6,0,1-0.3,1-1.1V365c0-0.8-0.3-1.1-0.8-1.1h-0.8v2.8H756.9z M757.2,371.5
				c0.6,0,0.9-0.3,0.9-1v-0.9c0-1-0.3-1.3-1.1-1.3h-0.7v3.2H757.2z"/>
			<path class="st3" d="M761.5,362.5h4.5v1.5h-2.8v2.8h2.3v1.5h-2.3v3.2h2.8v1.5h-4.5V362.5z"/>
			<path class="st3" d="M769.2,364h-1.7v-1.5h5.1v1.5h-1.7v9h-1.7V364z"/>
			<path class="st3" d="M775.7,364H774v-1.5h5.1v1.5h-1.7v9h-1.7V364z"/>
			<path class="st3" d="M780.7,362.5h4.5v1.5h-2.8v2.8h2.3v1.5h-2.3v3.2h2.8v1.5h-4.5V362.5z"/>
			<path class="st3" d="M787.1,362.5h2.4l1,7.5h0l1-7.5h2.4V373h-1.6V365h0l-1.2,7.9h-1.4l-1.2-7.9h0v7.9h-1.4V362.5z"/>
			<path class="st3" d="M796.1,362.5h2.5c1.7,0,2.4,0.8,2.4,2.4v0.4c0,1.1-0.3,1.8-1.1,2.1v0c0.9,0.3,1.2,1.1,1.2,2.2v0.9
				c0,1.6-0.9,2.5-2.5,2.5h-2.6V362.5z M798.4,366.7c0.6,0,1-0.3,1-1.1V365c0-0.8-0.3-1.1-0.8-1.1h-0.8v2.8H798.4z M798.7,371.5
				c0.6,0,0.9-0.3,0.9-1v-0.9c0-1-0.3-1.3-1.1-1.3h-0.7v3.2H798.7z"/>
			<path class="st3" d="M802.9,370.5V365c0-1.7,0.9-2.6,2.5-2.6c1.6,0,2.5,1,2.5,2.6v5.5c0,1.7-0.9,2.6-2.5,2.6
				C803.8,373.1,802.9,372.2,802.9,370.5z M806.3,370.6v-5.7c0-0.8-0.3-1-0.9-1c-0.5,0-0.9,0.3-0.9,1v5.7c0,0.8,0.3,1,0.9,1
				C805.9,371.6,806.3,371.3,806.3,370.6z"/>
			<path class="st3" d="M809.9,370.5v-8h1.6v8.1c0,0.8,0.3,1,0.8,1c0.5,0,0.8-0.3,0.8-1v-8.1h1.6v8c0,1.7-0.8,2.6-2.5,2.6
				C810.7,373.1,809.9,372.2,809.9,370.5z"/>
			<path class="st3" d="M816.9,362.5h2.4c1.7,0,2.4,0.8,2.4,2.4v0.6c0,1.1-0.3,1.8-1.1,2.1v0c0.8,0.3,1.1,1,1.1,2.2v1.8
				c0,0.5,0,0.9,0.2,1.3h-1.7c-0.1-0.3-0.2-0.4-0.2-1.3v-1.9c0-1-0.3-1.3-1-1.3h-0.6v4.5h-1.7V362.5z M819.1,367c0.6,0,1-0.3,1-1.1
				V365c0-0.8-0.3-1.1-0.8-1.1h-0.8v3H819.1z"/>
			<path class="st3" d="M823.7,370.5V365c0-1.7,0.8-2.6,2.5-2.6s2.5,1,2.5,2.6v0.9H827v-1c0-0.8-0.3-1-0.9-1c-0.5,0-0.9,0.3-0.9,1
				v5.7c0,0.8,0.3,1,0.9,1c0.5,0,0.9-0.3,0.9-1v-2.1h-0.8V367h2.4v3.4c0,1.7-0.8,2.6-2.5,2.6S823.7,372.2,823.7,370.5z"/>
		</g>
		<line class="st1" x1="585.5" y1="522.5" x2="791" y2="508"/>
		<g>
			<defs>
				<circle id="SVGID_33_" cx="792" cy="506" r="73"/>
			</defs>
			<clipPath id="SVGID_34_">
				<use xlink:href="#SVGID_33_"  style="overflow:visible;"/>
			</clipPath>
			<g style="clip-path:url(#SVGID_34_);">
				
					<image style="overflow:visible;" width="443" height="299" xlink:href="../../../../LINK/Dudelange.jpg"  transform="matrix(0.4924 0 0 0.4924 693.9343 431.2108)">
				</image>
			</g>
		</g>
		
			<linearGradient id="SVGID_35_" gradientUnits="userSpaceOnUse" x1="-392.697" y1="835.291" x2="-246.697" y2="835.291" gradientTransform="matrix(4.489700e-11 1 -1 4.489700e-11 1627.291 825.697)">
			<stop  offset="0" style="stop-color:#FFFFFF;stop-opacity:0"/>
			<stop  offset="0.595" style="stop-color:#FCFDFA;stop-opacity:1.768018e-02"/>
			<stop  offset="0.5966" style="stop-color:#F1F6F3;stop-opacity:0.1222"/>
			<stop  offset="0.5995" style="stop-color:#D4E5E1;stop-opacity:0.3055"/>
			<stop  offset="0.6033" style="stop-color:#A5C9C3;stop-opacity:0.5459"/>
			<stop  offset="0.6079" style="stop-color:#64A29A;stop-opacity:0.8309"/>
			<stop  offset="0.6105" style="stop-color:#3A8980"/>
		</linearGradient>
		<circle class="st13" cx="792" cy="506" r="73"/>
		<g>
			<path class="st3" d="M756.6,538.5h2.5c1.7,0,2.5,0.9,2.5,2.6v5.3c0,1.7-0.8,2.6-2.5,2.6h-2.5V538.5z M759.1,547.5
				c0.5,0,0.8-0.3,0.8-1V541c0-0.8-0.3-1-0.8-1h-0.8v7.5H759.1z"/>
			<path class="st3" d="M764.4,546.5v-8h1.6v8.1c0,0.8,0.3,1,0.8,1c0.5,0,0.8-0.3,0.8-1v-8.1h1.6v8c0,1.7-0.8,2.6-2.5,2.6
				C765.3,549.1,764.4,548.2,764.4,546.5z"/>
			<path class="st3" d="M772.3,538.5h2.5c1.7,0,2.5,0.9,2.5,2.6v5.3c0,1.7-0.8,2.6-2.5,2.6h-2.5V538.5z M774.8,547.5
				c0.5,0,0.8-0.3,0.8-1V541c0-0.8-0.3-1-0.8-1H774v7.5H774.8z"/>
			<path class="st3" d="M780.2,538.5h4.5v1.5h-2.8v2.8h2.3v1.5h-2.3v3.2h2.8v1.5h-4.5V538.5z"/>
			<path class="st3" d="M787.5,538.5h1.7v9h2.7v1.5h-4.4V538.5z"/>
			<path class="st3" d="M795.8,538.5h2.2l1.7,10.5h-1.7l-0.3-2.1v0h-1.9l-0.3,2.1h-1.5L795.8,538.5z M797.6,545.5l-0.7-5.2h0
				l-0.7,5.2H797.6z"/>
			<path class="st3" d="M802.3,538.5h2.1l1.6,6.3h0v-6.3h1.5V549h-1.7l-2-7.7h0v7.7h-1.5V538.5z"/>
			<path class="st3" d="M810.4,546.5V541c0-1.7,0.8-2.6,2.5-2.6c1.6,0,2.5,1,2.5,2.6v0.9h-1.6v-1c0-0.8-0.3-1-0.9-1
				c-0.5,0-0.9,0.3-0.9,1v5.7c0,0.8,0.3,1,0.9,1c0.5,0,0.9-0.3,0.9-1v-2.1h-0.8V543h2.4v3.4c0,1.7-0.8,2.6-2.5,2.6
				C811.2,549.1,810.4,548.2,810.4,546.5z"/>
			<path class="st3" d="M818.2,538.5h4.5v1.5h-2.8v2.8h2.3v1.5h-2.3v3.2h2.8v1.5h-4.5V538.5z"/>
		</g>
	</g>
</g>
</svg>
