<?xml version="1.0" encoding="utf-8"?>
<!-- Generator: Adobe Illustrator 24.2.3, SVG Export Plug-In . SVG Version: 6.00 Build 0)  -->
<svg version="1.1" id="Calque_1" xmlns="http://www.w3.org/2000/svg" xmlns:xlink="http://www.w3.org/1999/xlink" x="0px" y="0px"
	 width="375px" height="375px" viewBox="0 0 375 375" style="enable-background:new 0 0 375 375;" xml:space="preserve">
<style type="text/css">
	.st0{fill:#FFFFFF;}
	.st1{display:none;}
	.st2{display:inline;}
	.st3{fill-rule:evenodd;clip-rule:evenodd;fill:#3A8980;}
	.st4{fill:none;stroke:#3A8980;stroke-width:0.5076;stroke-miterlimit:10;}
	.st5{fill:#3A8980;}
</style>
<rect class="st0" width="375" height="375"/>
<g>
	<g class="st1">
		<defs>
			<polygon id="SVGID_1_" points="109.5,72.7 111.8,71.6 113.3,71.2 113.7,72.4 114.9,72 116.4,72.4 116.8,73.5 119.5,75.4 
				121.4,75.4 120.2,80.4 122.2,83.1 123.7,84.3 121.8,84.7 121,86.2 123.7,86.6 125.2,88.1 126.4,95.8 127.5,99.2 131.8,104.2 
				133.7,105 134.4,106.9 135.2,106.9 137.5,111.5 142.1,115.4 142.9,115 143.7,115.8 142.5,118.1 145.2,118.1 147.1,119.2 
				147.9,120 144.4,124.2 147.1,129.2 150.6,132.3 152.1,135.4 152.9,138.8 152.9,140.3 153.7,141.1 153.7,142.6 154.4,145.3 
				155.2,149.6 155.6,153 156.3,151.1 160.6,147.6 161.7,149.6 163.3,149.6 165.6,148 167.9,147.3 168.6,146.5 169.8,146.9 
				170.2,147.3 170.2,148.4 172.1,154.2 174,157.6 172.5,161.1 170.2,166.1 170.6,167.6 169.8,171.8 170.2,176.1 173.6,175.3 
				175.2,174.5 175.5,174.9 176.7,174.9 175.9,171.5 176.3,169.1 180.2,168 184,168.4 187.5,169.9 191.7,176.1 194,176.1 
				197.1,179.1 203.2,180.7 205.9,183.4 207,183 208.6,186.4 211.7,189.1 215.9,188.4 220.1,188 220.9,188.4 225.9,182.2 
				230.1,180.7 232.8,176.8 235.8,174.9 235.8,174.1 240.1,171.1 240.5,167.6 241.2,167.2 243.1,169.1 244.7,172.6 250.4,170.3 
				252,173.8 256.6,172.2 259.3,170.7 262.3,170.3 267.3,171.1 270.8,169.9 272,168.8 273.9,170.3 274.3,173 274.3,175.7 
				276.2,175.3 278.5,178.4 282.3,180.3 283.1,181.8 281.9,186 283.9,190.3 285.8,194.5 286.9,194.5 288.5,200.6 290.4,201 
				294.2,199.9 295.4,202.2 298.1,201 298.5,206.8 298.1,209.1 303.1,212.9 304.6,215.2 306.1,219.5 306.9,222.9 305.4,226 
				304.6,226.8 305.8,231.8 306.5,234.4 306.5,238.7 307.3,241.4 307.3,242.1 306.9,243.3 306.5,245.6 306.1,247.1 306.1,248.7 
				306.1,249.4 306.1,251 306.1,252.5 306.5,254 306.5,255.9 306.5,257.5 305.8,259 305,260.2 304.6,261.3 304.2,262.5 303.8,263.2 
				303.1,264 302.7,265.2 302.7,266.3 303.1,267.1 303.1,267.9 302.3,268.6 301.5,269.4 300.4,270.2 298.8,270.5 298.1,270.5 
				296.9,270.9 296.5,270.9 296.1,271.3 295,270.9 294.6,270.5 293.8,269.8 292.7,269.4 291.5,269.8 290.8,269.8 290,270.2 
				289.2,270.5 288.5,270.5 287.7,270.9 286.9,271.3 286.2,271.7 286.2,272.5 286.5,273.2 285.8,273.6 285,274 284.6,274.8 
				284.2,275.5 284.2,276.3 283.9,277.8 283.1,278.6 283.1,279.4 282.7,280.1 283.1,281.3 283.5,282.1 283.5,282.8 283.1,284 
				283.9,284.8 283.9,285.5 284.2,286.3 285,287.1 285.4,287.8 285,288.6 285,289.4 285.4,290.5 285.4,291.3 285.8,292.1 
				285.8,292.8 285.4,293.2 285.4,294 284.6,294 283.9,293.6 283.1,293.6 281.9,293.6 281.6,293.6 280.8,293.6 280,293.6 
				279.2,293.6 278.1,293.6 278.1,292.4 276.9,292.4 276.2,292.1 275,291.7 273.5,291.3 272.7,290.9 272.7,290.5 272.7,289.7 
				272,289 270.8,288.2 270,287.4 268.9,286.7 267.7,285.5 267.7,284 267.7,282.8 268.1,281.7 267.7,280.9 267.3,280.1 266.2,280.1 
				265,280.1 264.3,280.1 263.1,280.1 262.7,279.8 262.3,279 261.6,278.2 260.8,277.8 260,278.2 259.3,278.6 257.7,278.6 
				256.6,278.6 255.1,278.6 253.9,278.6 252.4,278.2 251.6,277.8 250.4,277.5 249.7,277.5 249.3,277.8 248.5,278.2 248.1,279 
				247.4,279 246.6,279.4 245.8,279.8 245.4,280.5 245.1,281.3 244.7,282.5 243.5,284 242.4,284.8 242.8,285.9 241.6,287.8 
				240.8,290.1 240.1,292.1 238.9,294 238.2,295.9 237.4,297.8 237,299.4 236.6,299.7 236.2,300.5 235.8,300.1 234.7,299.7 
				233.5,299.4 232.4,299.4 231.2,299 229.3,298.6 228.6,297.8 228.2,298.2 227,298.6 225.9,298.6 225.1,299 224.7,299.4 
				224.3,299.4 223.6,297.8 223.6,296.7 223.2,295.5 223.2,294 223.9,293.2 225.1,292.1 225.9,291.7 225.9,291.3 225.5,290.9 
				225.1,290.5 224.7,290.9 224.3,291.7 223.9,292.1 223.6,292.1 223.2,292.1 222.4,291.7 221.3,291.3 219.7,291.3 218.2,292.1 
				216.6,292.4 215.5,292.8 214.7,292.8 214.3,293.6 213.6,294 212.8,294.4 212.4,293.6 211.7,293.2 211.3,293.2 210.5,293.6 
				209.7,294.4 209.3,294.7 208.6,295.1 207.8,295.1 207.4,294.4 205.5,292.4 204,290.9 202.8,289.4 201.3,289.4 200.1,289.4 
				198.6,289.7 197.1,290.9 195.5,291.7 191.7,293.6 189.8,294.4 187.8,295.5 187.1,295.9 185.5,295.1 184.8,294.4 184.4,292.8 
				184.4,291.7 185.1,290.5 186.3,289.4 187.1,288.6 188.2,289 189,289.7 189.8,290.1 190.1,288.6 190.5,287.4 190.9,286.3 
				191.3,284.4 191.7,283.2 191.3,281.7 190.1,281.3 189,280.9 187.8,280.5 187.1,280.5 186.7,281.3 186.7,282.5 186.3,283.2 
				185.5,283.6 184.8,283.6 184.4,283.2 183.6,282.1 183.2,281.7 182.5,281.3 181.7,281.3 181.7,280.1 180.9,279.4 180.2,278.6 
				180.2,277.1 180.2,275.9 179.8,274.8 179.8,273.6 179,273.2 178.2,272.5 178.6,271.7 179,270.9 178.6,269.8 178.6,269.4 
				178.6,268.2 178.6,266.7 177.5,266.3 176.7,265.6 177.1,265.2 177.9,265.2 179,265.2 179.8,264.4 180.5,263.2 180.9,262.1 
				180.9,260.9 180.5,259.8 180.9,258.6 180.9,257.5 180.5,256.7 179.8,255.9 179.4,255.6 179.4,255.2 178.2,255.6 177.9,255.6 
				177.5,255.2 176.7,254 176.3,253.3 175.9,252.5 175.5,251.7 175.2,251.3 175.5,251 176.3,250.6 177.1,249.4 177.9,249 
				178.2,248.7 179.4,248.3 179.8,247.9 179.4,247.1 179,246.3 179,245.2 178.6,245.2 177.9,245.2 176.7,245.2 175.9,245.2 
				175.2,244.8 174.4,245.2 173.6,245.2 172.9,244.4 172.5,243.7 172.1,243.3 171.3,243.3 170.2,243.3 169.4,242.9 167.9,242.5 
				167.1,242.5 165.9,242.1 165.2,242.5 164.4,242.5 164.4,241.7 163.3,241.7 162.5,241.7 161.7,241.4 161.3,240.2 160.6,239.8 
				159.4,239.8 159.4,239.1 159.4,238.7 158.6,238.3 157.9,237.9 157.1,237.9 157.1,237.1 157.1,236 156.7,235.2 156,234.1 
				154.8,233.7 153.7,233.7 152.9,233.7 152.1,234.8 151,233.7 149,234.1 148.7,234.1 148.3,234.8 147.5,235.2 147.1,235.6 
				146.7,234.8 146,234.4 145.2,234.8 144.1,235.6 143.7,236.7 142.9,236.4 141.7,235.6 141,235.6 140.2,235.6 139.1,235.2 
				138.3,233.7 137.1,233.3 136.4,233.7 136.4,234.1 135.6,234.1 134.4,233.3 133.3,232.9 132.5,232.5 131.4,232.1 130.2,231.8 
				129.1,231.8 127.9,232.1 127.2,232.1 126,231.8 125.6,232.1 125.6,232.9 125.6,233.7 125.2,233.7 125.6,234.4 124.5,234.8 
				124.1,235.2 122.9,235.6 122.5,236.4 121.4,236.7 120.2,237.1 119.1,237.9 117.9,238.3 116.8,238.3 115.6,238.3 114.1,237.9 
				112.9,237.9 112.2,238.3 111,238.3 110.3,237.5 109.5,236.7 108.3,236 107.2,235.6 106,235.2 104.9,235.2 103.7,235.6 
				102.2,235.6 101,236.4 99.5,236.4 98.3,236 97.6,236 97.2,234.8 96.8,234.4 96,234.4 95.3,234.4 94.5,235.2 93.7,234.8 
				92.6,234.4 91.8,234.1 90.7,233.3 89.9,232.5 89.1,231.8 88.7,231 88.4,230.2 88,229.4 87.2,229.1 86.4,228.3 86.1,227.1 
				85.3,226.4 84.1,226 83,225.2 81.8,224.8 81.1,224.8 80.3,224.5 80.3,224.1 79.1,223.3 78.4,222.5 78,221 78,219.5 78,217.5 
				77.6,216 76.5,214.9 75.3,214.5 74.1,214.1 73.4,213.3 72.2,212.9 71.5,212.5 70.7,211.4 70.3,210.6 69.9,209.9 69.2,209.5 
				68,209.1 67.6,208.3 67.6,207.6 67.6,206.4 67.2,205.6 66.9,204.5 66.5,203.3 66.5,202.2 66.1,201 66.1,200.3 66.5,199.9 
				67.2,199.5 68,199.1 69.2,198.7 70.3,198.7 71.1,198 72.2,197.2 73.8,196.4 74.5,196 74.9,195.7 74.9,194.9 74.1,193 73,191 
				71.5,189.5 70.7,188 69.9,186.4 69.5,184.9 69.2,183.4 68.8,182.2 68.4,181.1 68,180.3 67.2,180.3 65.7,181.1 63.8,181.8 
				61.5,182.6 60.3,183 59.9,183.4 58.8,184.1 57.6,184.5 56.9,185.7 56.1,185.3 55.3,185.7 54.2,186 53.4,186.4 52.6,186.8 
				51.9,186.4 51.5,186 51.1,186 50.3,185.3 50.3,184.1 50,183.4 49.6,182.6 49.2,182.2 48.4,181.4 48,181.1 48,181.4 47.6,180.7 
				44.6,182.2 44.6,180.3 46.5,179.5 46.5,179.1 46.1,178 46.5,177.6 46.9,176.8 47.3,176.8 47.6,177.2 48.8,177.6 50.3,177.2 
				50.7,177.2 51.1,176.8 51.5,176.1 51.9,176.4 52.6,176.1 53,175.7 53.4,174.5 53.8,174.1 54.2,173.4 54.2,172.6 54.2,171.8 
				54.9,171.5 55.7,171.1 56.5,171.1 56.9,170.3 57.6,169.5 58,168.8 59.2,168.4 59.6,168.8 59.9,169.5 60.7,170.7 61.9,170.3 
				63,169.5 64.2,169.1 65.3,168.4 66.5,168 67.2,167.6 68,167.2 69.2,166.8 70.7,166.8 72.2,166.8 72.6,166.1 72.6,165.3 73,165.3 
				73.8,164.9 73.8,164.2 74.5,163.8 74.9,163 75.3,162.6 75.7,161.5 76.1,160.7 75.3,159.9 75.3,159.5 74.5,158.8 73.8,158 
				73,157.6 72.6,156.9 73.8,156.9 74.5,157.2 75.3,156.5 76.1,155.7 76.8,155.7 78,155.3 78.8,154.6 79.1,154.6 79.9,154.6 
				79.9,153.4 79.9,152.6 79.9,152.3 80.3,151.9 81.1,151.9 81.8,151.5 82.6,151.1 83,150.3 84.1,149.9 85.3,149.9 86.1,149.9 
				87.2,149.2 87.6,148.8 87.6,147.6 87.2,147.3 87.2,146.5 87.6,145.3 88,145 88.7,144.6 89.5,144.6 89.9,145 91,144.2 91.4,143.4 
				92.2,142.6 93,142.3 93.4,141.9 93.7,141.1 94.1,141.1 94.5,141.5 95.3,141.1 95.7,140.7 96.4,140.7 97.2,140.3 98,139.6 
				97.6,138.8 96.8,138.4 96,137.7 95.7,137.3 95.3,136.9 96,136.5 96.4,135.7 96.8,134.6 96.8,133.8 96.8,133 95.7,133.4 94.9,133 
				93.7,132.7 93,132.7 92.2,131.9 92.6,131.5 93.4,130.7 94.1,130.4 94.5,129.6 95.3,129.2 96.4,129.2 97.2,128.8 98,128.4 
				98,128.1 97.6,126.9 97.2,126.1 96.8,125.4 96.8,124.2 96.8,123.4 96.4,122.3 95.7,121.5 94.9,121.9 94.5,121.9 94.1,121.1 
				93.4,120.8 92.6,121.5 92.2,122.3 92.2,122.7 91.8,123.4 91.4,123.8 91.4,124.2 91,124.6 90.7,124.6 89.9,125 89.5,124.6 
				89.1,124.6 88.4,125 87.6,125.4 86.4,125.4 85.7,125.4 84.9,125.4 83.8,125 82.6,124.6 81.8,124.2 80.7,124.2 79.5,124.2 
				79.1,123.4 79.5,122.7 79.5,121.5 78.8,120.8 78.4,119.6 78,118.1 78,116.9 78,116.1 78,115.4 78,114.6 77.6,113.8 77.2,112.7 
				78,112.3 78,111.9 78,111.2 78.8,110.8 79.5,110 80.3,109.2 81.1,108.8 81.8,108.5 83,108.1 83.8,108.1 84.9,107.3 85.3,106.9 
				86.4,106.2 87.2,105.8 88.4,105 89.1,104.2 89.9,103.5 90.7,103.5 91,102.7 91.8,101.9 91.8,101.2 93,101.6 93.7,101.2 
				95.3,100.8 96,100.8 97.2,100.4 97.6,99.6 98.3,98.9 98.7,98.5 99.1,98.1 99.5,98.5 99.9,98.1 100.7,97.7 101,97.3 101,96.9 
				100.7,95.8 100.7,95.4 100.7,95 100.3,94.3 100.3,93.5 100.7,93.1 101,92.7 101.4,92 101.4,91.2 101,90.8 100.3,90.4 99.9,89.6 
				99.9,89.3 100.3,88.5 100.3,88.1 100.3,87.3 100.3,86.6 100.3,85.8 100.3,84.7 100.3,83.9 100.7,83.1 101,82 101.4,81.2 
				102.2,80.4 102.6,79.7 103.3,79.3 103.7,78.5 103.7,77.7 104.5,77.4 105.3,76.6 106,75.8 106.8,75.1 107.6,74.7 108.7,73.9 
				109.1,73.5 			"/>
		</defs>
		<use xlink:href="#SVGID_1_"  style="display:inline;overflow:visible;fill-rule:evenodd;clip-rule:evenodd;fill:#FFFFFF;"/>
		<clipPath id="SVGID_2_" class="st2">
			<use xlink:href="#SVGID_1_"  style="overflow:visible;"/>
		</clipPath>
		<g style="display:inline;opacity:0.61;clip-path:url(#SVGID_2_);">
			
				<image style="overflow:visible;" width="728" height="1039" id="CARTE_nico.psd_3_" xlink:href="../../../../LINK/CARTE-nico.jpg"  transform="matrix(0.8914 0 0 0.8914 -12.3736 -627.1304)">
			</image>
		</g>
	</g>
	<g>
		<defs>
			<polygon id="SVGID_3_" points="109.5,72.7 111.8,71.6 113.3,71.2 113.7,72.4 114.9,72 116.4,72.4 116.8,73.5 119.5,75.4 
				121.4,75.4 120.2,80.4 122.2,83.1 123.7,84.3 121.8,84.7 121,86.2 123.7,86.6 125.2,88.1 126.4,95.8 127.5,99.2 131.8,104.2 
				133.7,105 134.4,106.9 135.2,106.9 137.5,111.5 142.1,115.4 142.9,115 143.7,115.8 142.5,118.1 145.2,118.1 147.1,119.2 
				147.9,120 144.4,124.2 147.1,129.2 150.6,132.3 152.1,135.4 152.9,138.8 152.9,140.3 153.7,141.1 153.7,142.6 154.4,145.3 
				155.2,149.6 155.6,153 156.3,151.1 160.6,147.6 161.7,149.6 163.3,149.6 165.6,148 167.9,147.3 168.6,146.5 169.8,146.9 
				170.2,147.3 170.2,148.4 172.1,154.2 174,157.6 172.5,161.1 170.2,166.1 170.6,167.6 169.8,171.8 170.2,176.1 173.6,175.3 
				175.2,174.5 175.5,174.9 176.7,174.9 175.9,171.5 176.3,169.1 180.2,168 184,168.4 187.5,169.9 191.7,176.1 194,176.1 
				197.1,179.1 203.2,180.7 205.9,183.4 207,183 208.6,186.4 211.7,189.1 215.9,188.4 220.1,188 220.9,188.4 225.9,182.2 
				230.1,180.7 232.8,176.8 235.8,174.9 235.8,174.1 240.1,171.1 240.5,167.6 241.2,167.2 243.1,169.1 244.7,172.6 250.4,170.3 
				252,173.8 256.6,172.2 259.3,170.7 262.3,170.3 267.3,171.1 270.8,169.9 272,168.8 273.9,170.3 274.3,173 274.3,175.7 
				276.2,175.3 278.5,178.4 282.3,180.3 283.1,181.8 281.9,186 283.9,190.3 285.8,194.5 286.9,194.5 288.5,200.6 290.4,201 
				294.2,199.9 295.4,202.2 298.1,201 298.5,206.8 298.1,209.1 303.1,212.9 304.6,215.2 306.1,219.5 306.9,222.9 305.4,226 
				304.6,226.8 305.8,231.8 306.5,234.4 306.5,238.7 307.3,241.4 307.3,242.1 306.9,243.3 306.5,245.6 306.1,247.1 306.1,248.7 
				306.1,249.4 306.1,251 306.1,252.5 306.5,254 306.5,255.9 306.5,257.5 305.8,259 305,260.2 304.6,261.3 304.2,262.5 303.8,263.2 
				303.1,264 302.7,265.2 302.7,266.3 303.1,267.1 303.1,267.9 302.3,268.6 301.5,269.4 300.4,270.2 298.8,270.5 298.1,270.5 
				296.9,270.9 296.5,270.9 296.1,271.3 295,270.9 294.6,270.5 293.8,269.8 292.7,269.4 291.5,269.8 290.8,269.8 290,270.2 
				289.2,270.5 288.5,270.5 287.7,270.9 286.9,271.3 286.2,271.7 286.2,272.5 286.5,273.2 285.8,273.6 285,274 284.6,274.8 
				284.2,275.5 284.2,276.3 283.9,277.8 283.1,278.6 283.1,279.4 282.7,280.1 283.1,281.3 283.5,282.1 283.5,282.8 283.1,284 
				283.9,284.8 283.9,285.5 284.2,286.3 285,287.1 285.4,287.8 285,288.6 285,289.4 285.4,290.5 285.4,291.3 285.8,292.1 
				285.8,292.8 285.4,293.2 285.4,294 284.6,294 283.9,293.6 283.1,293.6 281.9,293.6 281.6,293.6 280.8,293.6 280,293.6 
				279.2,293.6 278.1,293.6 278.1,292.4 276.9,292.4 276.2,292.1 275,291.7 273.5,291.3 272.7,290.9 272.7,290.5 272.7,289.7 
				272,289 270.8,288.2 270,287.4 268.9,286.7 267.7,285.5 267.7,284 267.7,282.8 268.1,281.7 267.7,280.9 267.3,280.1 266.2,280.1 
				265,280.1 264.3,280.1 263.1,280.1 262.7,279.8 262.3,279 261.6,278.2 260.8,277.8 260,278.2 259.3,278.6 257.7,278.6 
				256.6,278.6 255.1,278.6 253.9,278.6 252.4,278.2 251.6,277.8 250.4,277.5 249.7,277.5 249.3,277.8 248.5,278.2 248.1,279 
				247.4,279 246.6,279.4 245.8,279.8 245.4,280.5 245.1,281.3 244.7,282.5 243.5,284 242.4,284.8 242.8,285.9 241.6,287.8 
				240.8,290.1 240.1,292.1 238.9,294 238.2,295.9 237.4,297.8 237,299.4 236.6,299.7 236.2,300.5 235.8,300.1 234.7,299.7 
				233.5,299.4 232.4,299.4 231.2,299 229.3,298.6 228.6,297.8 228.2,298.2 227,298.6 225.9,298.6 225.1,299 224.7,299.4 
				224.3,299.4 223.6,297.8 223.6,296.7 223.2,295.5 223.2,294 223.9,293.2 225.1,292.1 225.9,291.7 225.9,291.3 225.5,290.9 
				225.1,290.5 224.7,290.9 224.3,291.7 223.9,292.1 223.6,292.1 223.2,292.1 222.4,291.7 221.3,291.3 219.7,291.3 218.2,292.1 
				216.6,292.4 215.5,292.8 214.7,292.8 214.3,293.6 213.6,294 212.8,294.4 212.4,293.6 211.7,293.2 211.3,293.2 210.5,293.6 
				209.7,294.4 209.3,294.7 208.6,295.1 207.8,295.1 207.4,294.4 205.5,292.4 204,290.9 202.8,289.4 201.3,289.4 200.1,289.4 
				198.6,289.7 197.1,290.9 195.5,291.7 191.7,293.6 189.8,294.4 187.8,295.5 187.1,295.9 185.5,295.1 184.8,294.4 184.4,292.8 
				184.4,291.7 185.1,290.5 186.3,289.4 187.1,288.6 188.2,289 189,289.7 189.8,290.1 190.1,288.6 190.5,287.4 190.9,286.3 
				191.3,284.4 191.7,283.2 191.3,281.7 190.1,281.3 189,280.9 187.8,280.5 187.1,280.5 186.7,281.3 186.7,282.5 186.3,283.2 
				185.5,283.6 184.8,283.6 184.4,283.2 183.6,282.1 183.2,281.7 182.5,281.3 181.7,281.3 181.7,280.1 180.9,279.4 180.2,278.6 
				180.2,277.1 180.2,275.9 179.8,274.8 179.8,273.6 179,273.2 178.2,272.5 178.6,271.7 179,270.9 178.6,269.8 178.6,269.4 
				178.6,268.2 178.6,266.7 177.5,266.3 176.7,265.6 177.1,265.2 177.9,265.2 179,265.2 179.8,264.4 180.5,263.2 180.9,262.1 
				180.9,260.9 180.5,259.8 180.9,258.6 180.9,257.5 180.5,256.7 179.8,255.9 179.4,255.6 179.4,255.2 178.2,255.6 177.9,255.6 
				177.5,255.2 176.7,254 176.3,253.3 175.9,252.5 175.5,251.7 175.2,251.3 175.5,251 176.3,250.6 177.1,249.4 177.9,249 
				178.2,248.7 179.4,248.3 179.8,247.9 179.4,247.1 179,246.3 179,245.2 178.6,245.2 177.9,245.2 176.7,245.2 175.9,245.2 
				175.2,244.8 174.4,245.2 173.6,245.2 172.9,244.4 172.5,243.7 172.1,243.3 171.3,243.3 170.2,243.3 169.4,242.9 167.9,242.5 
				167.1,242.5 165.9,242.1 165.2,242.5 164.4,242.5 164.4,241.7 163.3,241.7 162.5,241.7 161.7,241.4 161.3,240.2 160.6,239.8 
				159.4,239.8 159.4,239.1 159.4,238.7 158.6,238.3 157.9,237.9 157.1,237.9 157.1,237.1 157.1,236 156.7,235.2 156,234.1 
				154.8,233.7 153.7,233.7 152.9,233.7 152.1,234.8 151,233.7 149,234.1 148.7,234.1 148.3,234.8 147.5,235.2 147.1,235.6 
				146.7,234.8 146,234.4 145.2,234.8 144.1,235.6 143.7,236.7 142.9,236.4 141.7,235.6 141,235.6 140.2,235.6 139.1,235.2 
				138.3,233.7 137.1,233.3 136.4,233.7 136.4,234.1 135.6,234.1 134.4,233.3 133.3,232.9 132.5,232.5 131.4,232.1 130.2,231.8 
				129.1,231.8 127.9,232.1 127.2,232.1 126,231.8 125.6,232.1 125.6,232.9 125.6,233.7 125.2,233.7 125.6,234.4 124.5,234.8 
				124.1,235.2 122.9,235.6 122.5,236.4 121.4,236.7 120.2,237.1 119.1,237.9 117.9,238.3 116.8,238.3 115.6,238.3 114.1,237.9 
				112.9,237.9 112.2,238.3 111,238.3 110.3,237.5 109.5,236.7 108.3,236 107.2,235.6 106,235.2 104.9,235.2 103.7,235.6 
				102.2,235.6 101,236.4 99.5,236.4 98.3,236 97.6,236 97.2,234.8 96.8,234.4 96,234.4 95.3,234.4 94.5,235.2 93.7,234.8 
				92.6,234.4 91.8,234.1 90.7,233.3 89.9,232.5 89.1,231.8 88.7,231 88.4,230.2 88,229.4 87.2,229.1 86.4,228.3 86.1,227.1 
				85.3,226.4 84.1,226 83,225.2 81.8,224.8 81.1,224.8 80.3,224.5 80.3,224.1 79.1,223.3 78.4,222.5 78,221 78,219.5 78,217.5 
				77.6,216 76.5,214.9 75.3,214.5 74.1,214.1 73.4,213.3 72.2,212.9 71.5,212.5 70.7,211.4 70.3,210.6 69.9,209.9 69.2,209.5 
				68,209.1 67.6,208.3 67.6,207.6 67.6,206.4 67.2,205.6 66.9,204.5 66.5,203.3 66.5,202.2 66.1,201 66.1,200.3 66.5,199.9 
				67.2,199.5 68,199.1 69.2,198.7 70.3,198.7 71.1,198 72.2,197.2 73.8,196.4 74.5,196 74.9,195.7 74.9,194.9 74.1,193 73,191 
				71.5,189.5 70.7,188 69.9,186.4 69.5,184.9 69.2,183.4 68.8,182.2 68.4,181.1 68,180.3 67.2,180.3 65.7,181.1 63.8,181.8 
				61.5,182.6 60.3,183 59.9,183.4 58.8,184.1 57.6,184.5 56.9,185.7 56.1,185.3 55.3,185.7 54.2,186 53.4,186.4 52.6,186.8 
				51.9,186.4 51.5,186 51.1,186 50.3,185.3 50.3,184.1 50,183.4 49.6,182.6 49.2,182.2 48.4,181.4 48,181.1 48,181.4 47.6,180.7 
				44.6,182.2 44.6,180.3 46.5,179.5 46.5,179.1 46.1,178 46.5,177.6 46.9,176.8 47.3,176.8 47.6,177.2 48.8,177.6 50.3,177.2 
				50.7,177.2 51.1,176.8 51.5,176.1 51.9,176.4 52.6,176.1 53,175.7 53.4,174.5 53.8,174.1 54.2,173.4 54.2,172.6 54.2,171.8 
				54.9,171.5 55.7,171.1 56.5,171.1 56.9,170.3 57.6,169.5 58,168.8 59.2,168.4 59.6,168.8 59.9,169.5 60.7,170.7 61.9,170.3 
				63,169.5 64.2,169.1 65.3,168.4 66.5,168 67.2,167.6 68,167.2 69.2,166.8 70.7,166.8 72.2,166.8 72.6,166.1 72.6,165.3 73,165.3 
				73.8,164.9 73.8,164.2 74.5,163.8 74.9,163 75.3,162.6 75.7,161.5 76.1,160.7 75.3,159.9 75.3,159.5 74.5,158.8 73.8,158 
				73,157.6 72.6,156.9 73.8,156.9 74.5,157.2 75.3,156.5 76.1,155.7 76.8,155.7 78,155.3 78.8,154.6 79.1,154.6 79.9,154.6 
				79.9,153.4 79.9,152.6 79.9,152.3 80.3,151.9 81.1,151.9 81.8,151.5 82.6,151.1 83,150.3 84.1,149.9 85.3,149.9 86.1,149.9 
				87.2,149.2 87.6,148.8 87.6,147.6 87.2,147.3 87.2,146.5 87.6,145.3 88,145 88.7,144.6 89.5,144.6 89.9,145 91,144.2 91.4,143.4 
				92.2,142.6 93,142.3 93.4,141.9 93.7,141.1 94.1,141.1 94.5,141.5 95.3,141.1 95.7,140.7 96.4,140.7 97.2,140.3 98,139.6 
				97.6,138.8 96.8,138.4 96,137.7 95.7,137.3 95.3,136.9 96,136.5 96.4,135.7 96.8,134.6 96.8,133.8 96.8,133 95.7,133.4 94.9,133 
				93.7,132.7 93,132.7 92.2,131.9 92.6,131.5 93.4,130.7 94.1,130.4 94.5,129.6 95.3,129.2 96.4,129.2 97.2,128.8 98,128.4 
				98,128.1 97.6,126.9 97.2,126.1 96.8,125.4 96.8,124.2 96.8,123.4 96.4,122.3 95.7,121.5 94.9,121.9 94.5,121.9 94.1,121.1 
				93.4,120.8 92.6,121.5 92.2,122.3 92.2,122.7 91.8,123.4 91.4,123.8 91.4,124.2 91,124.6 90.7,124.6 89.9,125 89.5,124.6 
				89.1,124.6 88.4,125 87.6,125.4 86.4,125.4 85.7,125.4 84.9,125.4 83.8,125 82.6,124.6 81.8,124.2 80.7,124.2 79.5,124.2 
				79.1,123.4 79.5,122.7 79.5,121.5 78.8,120.8 78.4,119.6 78,118.1 78,116.9 78,116.1 78,115.4 78,114.6 77.6,113.8 77.2,112.7 
				78,112.3 78,111.9 78,111.2 78.8,110.8 79.5,110 80.3,109.2 81.1,108.8 81.8,108.5 83,108.1 83.8,108.1 84.9,107.3 85.3,106.9 
				86.4,106.2 87.2,105.8 88.4,105 89.1,104.2 89.9,103.5 90.7,103.5 91,102.7 91.8,101.9 91.8,101.2 93,101.6 93.7,101.2 
				95.3,100.8 96,100.8 97.2,100.4 97.6,99.6 98.3,98.9 98.7,98.5 99.1,98.1 99.5,98.5 99.9,98.1 100.7,97.7 101,97.3 101,96.9 
				100.7,95.8 100.7,95.4 100.7,95 100.3,94.3 100.3,93.5 100.7,93.1 101,92.7 101.4,92 101.4,91.2 101,90.8 100.3,90.4 99.9,89.6 
				99.9,89.3 100.3,88.5 100.3,88.1 100.3,87.3 100.3,86.6 100.3,85.8 100.3,84.7 100.3,83.9 100.7,83.1 101,82 101.4,81.2 
				102.2,80.4 102.6,79.7 103.3,79.3 103.7,78.5 103.7,77.7 104.5,77.4 105.3,76.6 106,75.8 106.8,75.1 107.6,74.7 108.7,73.9 
				109.1,73.5 			"/>
		</defs>
		<clipPath id="SVGID_4_">
			<use xlink:href="#SVGID_3_"  style="overflow:visible;"/>
		</clipPath>
		<g style="clip-path:url(#SVGID_4_);">
			
				<image style="overflow:visible;" width="519" height="455" xlink:href="../../../../LINK/carte-sud.jpg"  transform="matrix(0.5106 0 0 0.5106 43.4306 69.6955)">
			</image>
		</g>
	</g>
	<circle class="st3" cx="287.5" cy="218.1" r="2.3"/>
	<circle class="st3" cx="110.1" cy="207.8" r="4.3"/>
	<circle class="st3" cx="269" cy="257.6" r="3.6"/>
	<circle class="st3" cx="188.1" cy="243" r="4.7"/>
	<circle class="st3" cx="234.7" cy="254.4" r="2.6"/>
	<circle class="st3" cx="143.6" cy="179.8" r="3.6"/>
	<circle class="st3" cx="193" cy="197.7" r="2.3"/>
	<circle class="st3" cx="101.1" cy="168.1" r="3.2"/>
	<circle class="st3" cx="227.2" cy="286.7" r="2.4"/>
	<circle class="st3" cx="212.3" cy="229.7" r="2.8"/>
	<circle class="st3" cx="127.8" cy="153.6" r="2.8"/>
	<line class="st4" x1="127.9" y1="153.4" x2="104.6" y2="37.7"/>
	<g>
		<path class="st5" d="M70.9,14.7h2v5.4l2.5-5.4h2L75,19.4l2.4,8.1h-2.1l-1.7-5.7l-0.8,1.6v4.1h-2V14.7z"/>
		<path class="st5" d="M82.1,14.7h2.7l2.1,12.7h-2l-0.4-2.5v0h-2.3l-0.4,2.5H80L82.1,14.7z M84.3,23.2l-0.9-6.3h0l-0.9,6.3H84.3z"/>
		<path class="st5" d="M90,14.7h5.5v1.8H92v3.4h2.7v1.8H92v3.9h3.5v1.8H90V14.7z"/>
		<path class="st5" d="M98.8,14.7h3c2.1,0,3,1,3,2.9v0.8c0,1.3-0.4,2.1-1.3,2.5v0c1,0.3,1.3,1.3,1.3,2.7v2.2c0,0.6,0,1.1,0.2,1.5h-2
			c-0.1-0.3-0.2-0.5-0.2-1.6v-2.3c0-1.2-0.3-1.6-1.3-1.6h-0.7v5.5h-2V14.7z M101.5,20.2c0.7,0,1.2-0.3,1.2-1.3v-1
			c0-0.9-0.3-1.3-1-1.3h-0.9v3.6H101.5z"/>
		<path class="st5" d="M107.9,27.5v-1.8c0.2,0.1,0.4,0.1,0.7,0.1c0.8,0,1.2-0.4,1.2-1.2v-9.8h2v9.7c0,2.1-0.9,3.1-2.9,3.1
			C108.4,27.5,108.2,27.5,107.9,27.5z"/>
		<path class="st5" d="M115.3,14.7h5.5v1.8h-3.5v3.4h2.7v1.8h-2.7v3.9h3.5v1.8h-5.5V14.7z"/>
		<path class="st5" d="M124.1,14.7h2.5l1.9,7.6h0v-7.6h1.8v12.7h-2.1l-2.4-9.3h0v9.3h-1.8V14.7z"/>
		<path class="st5" d="M133.9,24.4v-6.7c0-2,1-3.2,3-3.2c2,0,3,1.2,3,3.2v1.1H138v-1.2c0-0.9-0.4-1.3-1-1.3s-1,0.3-1,1.3v7
			c0,0.9,0.4,1.2,1,1.2s1-0.3,1-1.2v-2.5h-1v-1.8h2.9v4.2c0,2-1,3.2-3,3.2C134.9,27.6,133.9,26.5,133.9,24.4z"/>
	</g>
	<line class="st4" x1="101.3" y1="167.9" x2="49.6" y2="88.7"/>
	<g>
		<path class="st5" d="M19.7,65.5h2.9c2,0,3,1.1,3,3.1v1.3c0,2-1,3.1-3,3.1h-0.9v5.2h-2V65.5z M22.6,71.2c0.6,0,1-0.3,1-1.2v-1.5
			c0-0.9-0.3-1.2-1-1.2h-0.9v3.9H22.6z"/>
		<path class="st5" d="M28.9,65.5h5.5v1.8h-3.5v3.4h2.7v1.8h-2.7v3.9h3.5v1.8h-5.5V65.5z"/>
		<path class="st5" d="M39.2,67.3h-2.1v-1.8h6.2v1.8h-2.1v10.9h-2V67.3z"/>
		<path class="st5" d="M47.2,65.5h2.7L52,78.2h-2l-0.4-2.5v0h-2.3L47,78.2h-1.9L47.2,65.5z M49.4,74l-0.9-6.3h0L47.6,74H49.4z"/>
		<path class="st5" d="M55.1,65.5h2.5l1.9,7.6h0v-7.6h1.8v12.7h-2.1l-2.4-9.3h0v9.3h-1.8V65.5z"/>
		<path class="st5" d="M64.9,75.2v-6.7c0-2,1-3.2,3-3.2c2,0,3,1.2,3,3.2v1.1H69v-1.2c0-0.9-0.4-1.3-1-1.3s-1,0.3-1,1.3v7
			c0,0.9,0.4,1.2,1,1.2s1-0.3,1-1.2v-2.5h-1V71h2.9v4.2c0,2-1,3.2-3,3.2C65.9,78.4,64.9,77.2,64.9,75.2z"/>
		<path class="st5" d="M74.3,65.5h5.5v1.8h-3.5v3.4h2.7v1.8h-2.7v3.9h3.5v1.8h-5.5V65.5z"/>
	</g>
	<line class="st4" x1="109.9" y1="208" x2="47.6" y2="239.7"/>
	<g>
		<path class="st5" d="M21.8,251.7h3.1c2,0,3,1.1,3,3.1v6.4c0,2-1,3.1-3,3.1h-3.1V251.7z M24.8,262.6c0.6,0,1-0.3,1-1.2v-6.6
			c0-0.9-0.4-1.2-1-1.2h-1v9.1H24.8z"/>
		<path class="st5" d="M31,251.7h2v12.7h-2V251.7z"/>
		<path class="st5" d="M36.3,251.7h5.3v1.8h-3.3v3.5h2.6v1.8h-2.6v5.5h-2V251.7z"/>
		<path class="st5" d="M44.4,251.7h5.3v1.8h-3.3v3.5H49v1.8h-2.6v5.5h-2V251.7z"/>
		<path class="st5" d="M52.5,251.7h5.5v1.8h-3.5v3.4h2.7v1.8h-2.7v3.9h3.5v1.8h-5.5V251.7z"/>
		<path class="st5" d="M60.9,251.7h3c2.1,0,3,1,3,2.9v0.8c0,1.3-0.4,2.1-1.3,2.5v0c1,0.3,1.3,1.3,1.3,2.7v2.2c0,0.6,0,1.1,0.2,1.5
			h-2c-0.1-0.3-0.2-0.5-0.2-1.6v-2.3c0-1.2-0.3-1.6-1.3-1.6h-0.7v5.5h-2V251.7z M63.6,257.1c0.7,0,1.2-0.3,1.2-1.3v-1
			c0-0.9-0.3-1.3-1-1.3h-0.9v3.6H63.6z"/>
		<path class="st5" d="M70,251.7h3.1c2,0,3,1.1,3,3.1v6.4c0,2-1,3.1-3,3.1H70V251.7z M73.1,262.6c0.6,0,1-0.3,1-1.2v-6.6
			c0-0.9-0.4-1.2-1-1.2h-1v9.1H73.1z"/>
		<path class="st5" d="M80.7,251.7h2.7l2.1,12.7h-2l-0.4-2.5v0h-2.3l-0.4,2.5h-1.9L80.7,251.7z M82.9,260.2l-0.9-6.3h0l-0.9,6.3
			H82.9z"/>
		<path class="st5" d="M88.3,251.7h2.5l1.9,7.6h0v-7.6h1.8v12.7h-2.1l-2.4-9.3h0v9.3h-1.8V251.7z"/>
		<path class="st5" d="M97.8,261.4v-6.7c0-2,1-3.2,3-3.2c2,0,3,1.2,3,3.2v1.1h-1.9v-1.2c0-0.9-0.4-1.3-1-1.3s-1,0.3-1,1.3v7
			c0,0.9,0.4,1.2,1,1.2s1-0.3,1-1.2V259h-1v-1.8h2.9v4.2c0,2-1,3.2-3,3.2C98.8,264.6,97.8,263.4,97.8,261.4z"/>
		<path class="st5" d="M106.8,251.7h5.5v1.8h-3.5v3.4h2.7v1.8h-2.7v3.9h3.5v1.8h-5.5V251.7z"/>
	</g>
	<line class="st4" x1="188.1" y1="243" x2="126.6" y2="277.7"/>
	<g>
		<path class="st5" d="M43.8,285.5h5.5v1.8h-3.5v3.4h2.7v1.8h-2.7v3.9h3.5v1.8h-5.5V285.5z"/>
		<path class="st5" d="M51.9,295.3v-0.7h1.9v0.9c0,0.9,0.4,1.2,1,1.2s1-0.3,1-1.3c0-1.1-0.4-1.7-1.7-2.9c-1.7-1.5-2.2-2.5-2.2-4
			c0-2,1-3.2,3-3.2s2.9,1.2,2.9,3.2v0.5h-1.9v-0.7c0-0.9-0.4-1.3-1-1.3s-1,0.3-1,1.2c0,0.9,0.4,1.6,1.7,2.7c1.7,1.5,2.2,2.5,2.2,4.1
			c0,2.1-1.1,3.2-3,3.2C52.9,298.5,51.9,297.3,51.9,295.3z"/>
		<path class="st5" d="M60.7,295.3v-6.8c0-2,1-3.1,2.9-3.1c1.9,0,2.9,1.2,2.9,3.1v1.3h-1.9v-1.5c0-0.8-0.4-1.2-1-1.2
			c-0.6,0-1,0.3-1,1.2v7.1c0,0.8,0.4,1.2,1,1.2c0.6,0,1-0.3,1-1.2v-1.9h1.9v1.8c0,2-1,3.1-2.9,3.1C61.7,298.5,60.7,297.3,60.7,295.3
			z"/>
		<path class="st5" d="M69.6,285.5h2v5.2h2.1v-5.2h2v12.7h-2v-5.7h-2.1v5.7h-2V285.5z"/>
		<path class="st5" d="M83.5,285.5h1.7l-5,12.7h-1.7L83.5,285.5z"/>
		<path class="st5" d="M89.1,285.5h2.7l2.1,12.7h-2l-0.4-2.5v0h-2.3l-0.4,2.5H87L89.1,285.5z M91.2,294.1l-0.9-6.3h0l-0.9,6.3H91.2z
			"/>
		<path class="st5" d="M96.6,285.5h2v10.9h3.3v1.8h-5.3V285.5z"/>
		<path class="st5" d="M104.3,296.5l3.7-9.1h-3.5v-1.8h5.7v1.8l-3.7,9.1h3.7v1.8h-5.9V296.5z"/>
		<path class="st5" d="M113.1,285.5h5.5v1.8h-3.5v3.4h2.7v1.8h-2.7v3.9h3.5v1.8h-5.5V285.5z"/>
		<path class="st5" d="M123.1,287.4H121v-1.8h6.2v1.8h-2.1v10.9h-2V287.4z"/>
		<path class="st5" d="M131.7,287.4h-2.1v-1.8h6.2v1.8h-2.1v10.9h-2V287.4z"/>
		<path class="st5" d="M138.6,285.5h5.5v1.8h-3.5v3.4h2.7v1.8h-2.7v3.9h3.5v1.8h-5.5V285.5z"/>
	</g>
	<line class="st4" x1="227.1" y1="286.7" x2="167.6" y2="324.7"/>
	<g>
		<path class="st5" d="M117.5,336.8h3c2.1,0,3,1,3,2.9v0.8c0,1.3-0.4,2.1-1.3,2.5v0c1,0.3,1.3,1.3,1.3,2.7v2.2c0,0.6,0,1.1,0.2,1.5
			h-2c-0.1-0.3-0.2-0.5-0.2-1.6v-2.3c0-1.2-0.3-1.6-1.3-1.6h-0.7v5.5h-2V336.8z M120.3,342.3c0.7,0,1.2-0.3,1.2-1.3v-1
			c0-0.9-0.3-1.3-1-1.3h-0.9v3.6H120.3z"/>
		<path class="st5" d="M127,346.6v-9.7h2v9.9c0,0.9,0.4,1.2,1,1.2s1-0.3,1-1.2v-9.9h1.9v9.7c0,2-1,3.2-3,3.2
			C128,349.8,127,348.6,127,346.6z"/>
		<path class="st5" d="M136.5,336.8h2.9l1.3,9.1h0l1.3-9.1h2.9v12.7h-1.9v-9.6h0l-1.5,9.6h-1.7l-1.5-9.6h0v9.6h-1.7V336.8z"/>
		<path class="st5" d="M148.5,336.8h5.5v1.8h-3.5v3.4h2.7v1.8h-2.7v3.9h3.5v1.8h-5.5V336.8z"/>
		<path class="st5" d="M157.3,336.8h2v10.9h3.3v1.8h-5.3V336.8z"/>
		<path class="st5" d="M167.4,336.8h2.7l2.1,12.7h-2l-0.4-2.5v0h-2.3l-0.4,2.5h-1.9L167.4,336.8z M169.5,345.4l-0.9-6.3h0l-0.9,6.3
			H169.5z"/>
		<path class="st5" d="M175.3,336.8h2.5l1.9,7.6h0v-7.6h1.8v12.7h-2.1l-2.4-9.3h0v9.3h-1.8V336.8z"/>
		<path class="st5" d="M185.1,346.6v-6.7c0-2,1-3.2,3-3.2c2,0,3,1.2,3,3.2v1.1h-1.9v-1.2c0-0.9-0.4-1.3-1-1.3s-1,0.3-1,1.3v7
			c0,0.9,0.4,1.2,1,1.2s1-0.3,1-1.2v-2.5h-1v-1.8h2.9v4.2c0,2-1,3.2-3,3.2C186.1,349.8,185.1,348.6,185.1,346.6z"/>
		<path class="st5" d="M194.5,336.8h5.5v1.8h-3.5v3.4h2.7v1.8h-2.7v3.9h3.5v1.8h-5.5V336.8z"/>
	</g>
	<line class="st4" x1="234.8" y1="254.2" x2="248.6" y2="334.7"/>
	<g>
		<path class="st5" d="M239.9,346.6h2v5.4l2.5-5.4h2l-2.4,4.7l2.4,8.1h-2.1l-1.7-5.7l-0.8,1.6v4.1h-2V346.6z"/>
		<path class="st5" d="M251.1,346.6h2.7l2.1,12.7h-2l-0.4-2.5v0h-2.3l-0.4,2.5h-1.9L251.1,346.6z M253.3,355.1l-0.9-6.3h0l-0.9,6.3
			H253.3z"/>
		<path class="st5" d="M260.1,353.9l-2.4-7.3h2.1l1.4,4.7h0l1.4-4.7h1.9l-2.4,7.3v5.4h-2V353.9z"/>
		<path class="st5" d="M267.6,346.6h2v10.9h3.3v1.8h-5.3V346.6z"/>
	</g>
	<line class="st4" x1="143.4" y1="179.6" x2="155.6" y2="76.7"/>
	<g>
		<path class="st5" d="M143.6,53.9v-0.7h1.9v0.9c0,0.9,0.4,1.2,1,1.2c0.6,0,1-0.3,1-1.3c0-1.1-0.4-1.7-1.7-2.9
			c-1.7-1.5-2.2-2.5-2.2-4c0-2,1-3.2,3-3.2s2.9,1.2,2.9,3.2v0.5h-1.9v-0.7c0-0.9-0.4-1.3-1-1.3s-1,0.3-1,1.2c0,0.9,0.4,1.6,1.7,2.7
			c1.7,1.5,2.2,2.5,2.2,4.1c0,2.1-1.1,3.2-3,3.2C144.5,57.1,143.6,55.9,143.6,53.9z"/>
		<path class="st5" d="M154.3,44.2h2.7l2.1,12.7h-2l-0.4-2.5v0h-2.3l-0.4,2.5h-1.9L154.3,44.2z M156.5,52.7l-0.9-6.3h0l-0.9,6.3
			H156.5z"/>
		<path class="st5" d="M162.3,44.2h2.5l1.9,7.6h0v-7.6h1.8v12.7h-2.1l-2.4-9.3h0v9.3h-1.8V44.2z"/>
		<path class="st5" d="M172.2,44.2h5.5V46h-3.5v3.4h2.7v1.8h-2.7v3.9h3.5v1.8h-5.5V44.2z"/>
		<path class="st5" d="M181,44.2h2.9l1.3,9.1h0l1.3-9.1h2.9v12.7h-1.9v-9.6h0l-1.5,9.6h-1.7l-1.5-9.6h0v9.6H181V44.2z"/>
	</g>
	<line class="st4" x1="193.1" y1="197.9" x2="202.6" y2="131.7"/>
	<g>
		<path class="st5" d="M166.3,113.2h2.7l1.2,9.1h0l1.2-9.1h2.7v12.7h-1.8v-9.6h0l-1.4,9.6h-1.6l-1.4-9.6h0v9.6h-1.6V113.2z"/>
		<path class="st5" d="M177,122.9v-6.7c0-2,1-3.2,2.8-3.2c1.8,0,2.8,1.2,2.8,3.2v6.7c0,2-1,3.2-2.8,3.2
			C177.9,126.1,177,124.9,177,122.9z M180.7,123V116c0-0.9-0.4-1.3-1-1.3s-1,0.3-1,1.3v6.9c0,0.9,0.4,1.3,1,1.3
			S180.7,123.9,180.7,123z"/>
		<path class="st5" d="M185.5,113.2h2.3l1.8,7.6h0v-7.6h1.7v12.7h-1.9l-2.2-9.3h0v9.3h-1.7V113.2z"/>
		<path class="st5" d="M194.5,113.2h2.8c1.9,0,2.8,1.1,2.8,3.1v6.4c0,2-0.9,3.1-2.8,3.1h-2.8V113.2z M197.3,124.1
			c0.6,0,0.9-0.3,0.9-1.2v-6.6c0-0.9-0.4-1.2-0.9-1.2h-0.9v9.1H197.3z"/>
		<path class="st5" d="M203,113.2h5.1v1.8h-3.2v3.4h2.6v1.8h-2.6v3.9h3.2v1.8H203V113.2z"/>
		<path class="st5" d="M210.8,113.2h2.8c1.9,0,2.8,1,2.8,2.9v0.8c0,1.3-0.4,2.1-1.2,2.5v0c0.9,0.3,1.2,1.3,1.2,2.7v2.2
			c0,0.6,0,1.1,0.2,1.5h-1.9c-0.1-0.3-0.2-0.5-0.2-1.6V122c0-1.2-0.3-1.6-1.2-1.6h-0.6v5.5h-1.9V113.2z M213.4,118.6
			c0.7,0,1.1-0.3,1.1-1.3v-1c0-0.9-0.3-1.3-0.9-1.3h-0.8v3.6H213.4z"/>
		<path class="st5" d="M219.2,122.9v-6.8c0-2,0.9-3.1,2.7-3.1s2.7,1.2,2.7,3.1v1.3H223V116c0-0.8-0.4-1.2-0.9-1.2s-0.9,0.3-0.9,1.2
			v7.1c0,0.8,0.4,1.2,0.9,1.2s0.9-0.3,0.9-1.2v-1.9h1.8v1.8c0,2-0.9,3.1-2.7,3.1S219.2,124.9,219.2,122.9z"/>
		<path class="st5" d="M229,113.2h2.5l1.9,12.7h-1.9l-0.3-2.5v0h-2.1l-0.3,2.5H227L229,113.2z M231,121.7l-0.8-6.3h0l-0.8,6.3H231z"
			/>
		<path class="st5" d="M236,113.2h2.3l1.8,7.6h0v-7.6h1.7v12.7h-1.9l-2.2-9.3h0v9.3H236V113.2z"/>
		<path class="st5" d="M244.8,122.9v-6.7c0-2,0.9-3.2,2.8-3.2c1.8,0,2.8,1.2,2.8,3.2v1.1h-1.8V116c0-0.9-0.4-1.3-1-1.3s-1,0.3-1,1.3
			v7c0,0.9,0.4,1.2,1,1.2s1-0.3,1-1.2v-2.5h-0.9v-1.8h2.7v4.2c0,2-0.9,3.2-2.8,3.2C245.7,126.1,244.8,124.9,244.8,122.9z"/>
		<path class="st5" d="M253.2,113.2h5.1v1.8h-3.2v3.4h2.6v1.8h-2.6v3.9h3.2v1.8h-5.1V113.2z"/>
	</g>
	<line class="st4" x1="212.4" y1="230.3" x2="287.6" y2="85.7"/>
	<g>
		<path class="st5" d="M246.6,76.1v-0.7h1.9v0.9c0,0.9,0.4,1.2,1,1.2c0.6,0,1-0.3,1-1.3c0-1.1-0.4-1.7-1.7-2.9
			c-1.7-1.5-2.2-2.5-2.2-4c0-2,1-3.2,3-3.2s2.9,1.2,2.9,3.2v0.5h-1.9v-0.7c0-0.9-0.4-1.3-1-1.3s-1,0.3-1,1.2c0,0.9,0.4,1.6,1.7,2.7
			c1.7,1.5,2.2,2.5,2.2,4.1c0,2.1-1.1,3.2-3,3.2C247.6,79.3,246.6,78.1,246.6,76.1z"/>
		<path class="st5" d="M255.8,76.2v-6.8c0-2,1-3.1,2.9-3.1c1.9,0,2.9,1.2,2.9,3.1v1.3h-1.9v-1.5c0-0.8-0.4-1.2-1-1.2
			c-0.6,0-1,0.3-1,1.2v7.1c0,0.8,0.4,1.2,1,1.2c0.6,0,1-0.3,1-1.2v-1.9h1.9v1.8c0,2-1,3.1-2.9,3.1C256.8,79.3,255.8,78.1,255.8,76.2
			z"/>
		<path class="st5" d="M265.1,66.4h2v5.2h2.1v-5.2h2v12.7h-2v-5.7h-2.1v5.7h-2V66.4z"/>
		<path class="st5" d="M274.9,66.4h2v12.7h-2V66.4z"/>
		<path class="st5" d="M280.5,66.4h5.3v1.8h-3.3v3.5h2.6v1.8h-2.6v5.5h-2V66.4z"/>
		<path class="st5" d="M289,66.4h5.3v1.8H291v3.5h2.6v1.8H291v5.5h-2V66.4z"/>
		<path class="st5" d="M297.4,66.4h2v10.9h3.3v1.8h-5.3V66.4z"/>
		<path class="st5" d="M307.5,66.4h2.7l2.1,12.7h-2l-0.4-2.5v0h-2.3l-0.4,2.5h-1.9L307.5,66.4z M309.7,74.9l-0.9-6.3h0l-0.9,6.3
			H309.7z"/>
		<path class="st5" d="M315.4,66.4h2.5l1.9,7.6h0v-7.6h1.8v12.7h-2.1l-2.4-9.3h0v9.3h-1.8V66.4z"/>
		<path class="st5" d="M325.2,76.1v-6.7c0-2,1-3.2,3-3.2c2,0,3,1.2,3,3.2v1.1h-1.9v-1.2c0-0.9-0.4-1.3-1-1.3s-1,0.3-1,1.3v7
			c0,0.9,0.4,1.2,1,1.2s1-0.3,1-1.2v-2.5h-1v-1.8h2.9v4.2c0,2-1,3.2-3,3.2C326.2,79.3,325.2,78.1,325.2,76.1z"/>
		<path class="st5" d="M334.7,66.4h5.5v1.8h-3.5v3.4h2.7v1.8h-2.7v3.9h3.5v1.8h-5.5V66.4z"/>
	</g>
	<line class="st4" x1="288.1" y1="218.7" x2="332.6" y2="164.7"/>
	<g>
		<path class="st5" d="M264.7,143.3h3c2.1,0,3,1,3,2.9v0.5c0,1.3-0.4,2.1-1.3,2.5v0c1.1,0.4,1.5,1.3,1.5,2.7v1.1c0,2-1,3-3,3h-3.1
			V143.3z M267.5,148.5c0.7,0,1.2-0.3,1.2-1.3v-0.7c0-0.9-0.3-1.3-1-1.3h-1v3.4H267.5z M267.8,154.3c0.7,0,1-0.3,1-1.3v-1.1
			c0-1.2-0.4-1.5-1.3-1.5h-0.9v3.9H267.8z"/>
		<path class="st5" d="M273.1,143.3h5.5v1.8h-3.5v3.4h2.7v1.8h-2.7v3.9h3.5v1.8h-5.5V143.3z"/>
		<path class="st5" d="M282.4,145.2h-2.1v-1.8h6.2v1.8h-2.1v10.9h-2V145.2z"/>
		<path class="st5" d="M290.3,145.2h-2.1v-1.8h6.2v1.8h-2.1v10.9h-2V145.2z"/>
		<path class="st5" d="M296.4,143.3h5.5v1.8h-3.5v3.4h2.7v1.8h-2.7v3.9h3.5v1.8h-5.5V143.3z"/>
		<path class="st5" d="M304.1,143.3h2.9l1.3,9.1h0l1.3-9.1h2.9v12.7h-1.9v-9.6h0l-1.5,9.6h-1.7l-1.5-9.6h0v9.6h-1.7V143.3z"/>
		<path class="st5" d="M315,143.3h3c2.1,0,3,1,3,2.9v0.5c0,1.3-0.4,2.1-1.3,2.5v0c1.1,0.4,1.5,1.3,1.5,2.7v1.1c0,2-1,3-3,3H315
			V143.3z M317.8,148.5c0.7,0,1.2-0.3,1.2-1.3v-0.7c0-0.9-0.3-1.3-1-1.3h-1v3.4H317.8z M318.1,154.3c0.7,0,1-0.3,1-1.3v-1.1
			c0-1.2-0.4-1.5-1.3-1.5H317v3.9H318.1z"/>
		<path class="st5" d="M323.3,153.1v-6.7c0-2,1.1-3.2,3-3.2c2,0,3,1.2,3,3.2v6.7c0,2-1.1,3.2-3,3.2
			C324.3,156.3,323.3,155.1,323.3,153.1z M327.3,153.2v-6.9c0-0.9-0.4-1.3-1-1.3s-1,0.3-1,1.3v6.9c0,0.9,0.4,1.3,1,1.3
			S327.3,154.1,327.3,153.2z"/>
		<path class="st5" d="M331.7,153.1v-9.7h2v9.9c0,0.9,0.4,1.2,1,1.2s1-0.3,1-1.2v-9.9h1.9v9.7c0,2-1,3.2-3,3.2
			C332.7,156.3,331.7,155.1,331.7,153.1z"/>
		<path class="st5" d="M340.2,143.3h3c2.1,0,3,1,3,2.9v0.8c0,1.3-0.4,2.1-1.3,2.5v0c1,0.3,1.3,1.3,1.3,2.7v2.2c0,0.6,0,1.1,0.2,1.5
			h-2c-0.1-0.3-0.2-0.5-0.2-1.6v-2.3c0-1.2-0.3-1.6-1.3-1.6h-0.7v5.5h-2V143.3z M342.9,148.8c0.7,0,1.2-0.3,1.2-1.3v-1
			c0-0.9-0.3-1.3-1-1.3h-0.9v3.6H342.9z"/>
		<path class="st5" d="M348.5,153.1v-6.7c0-2,1-3.2,3-3.2c2,0,3,1.2,3,3.2v1.1h-1.9v-1.2c0-0.9-0.4-1.3-1-1.3s-1,0.3-1,1.3v7
			c0,0.9,0.4,1.2,1,1.2s1-0.3,1-1.2v-2.5h-1v-1.8h2.9v4.2c0,2-1,3.2-3,3.2C349.5,156.3,348.5,155.1,348.5,153.1z"/>
	</g>
	<line class="st4" x1="269.3" y1="258.3" x2="325.6" y2="300.7"/>
	<g>
		<path class="st5" d="M270.7,311.4h3.1c2,0,3,1.1,3,3.1v6.4c0,2-1,3.1-3,3.1h-3.1V311.4z M273.7,322.3c0.6,0,1-0.3,1-1.2v-6.6
			c0-0.9-0.4-1.2-1-1.2h-1v9.1H273.7z"/>
		<path class="st5" d="M280.2,321.1v-9.7h2v9.9c0,0.9,0.4,1.2,1,1.2c0.6,0,1-0.3,1-1.2v-9.9h1.9v9.7c0,2-1,3.2-3,3.2
			C281.2,324.3,280.2,323.1,280.2,321.1z"/>
		<path class="st5" d="M289.7,311.4h3.1c2,0,3,1.1,3,3.1v6.4c0,2-1,3.1-3,3.1h-3.1V311.4z M292.7,322.3c0.6,0,1-0.3,1-1.2v-6.6
			c0-0.9-0.4-1.2-1-1.2h-1v9.1H292.7z"/>
		<path class="st5" d="M299.3,311.4h5.5v1.8h-3.5v3.4h2.7v1.8h-2.7v3.9h3.5v1.8h-5.5V311.4z"/>
		<path class="st5" d="M308.1,311.4h2v10.9h3.3v1.8h-5.3V311.4z"/>
		<path class="st5" d="M318.1,311.4h2.7l2.1,12.7h-2l-0.4-2.5v0h-2.3l-0.4,2.5h-1.9L318.1,311.4z M320.3,319.9l-0.9-6.3h0l-0.9,6.3
			H320.3z"/>
		<path class="st5" d="M326.1,311.4h2.5l1.9,7.6h0v-7.6h1.8v12.7h-2.1l-2.4-9.3h0v9.3h-1.8V311.4z"/>
		<path class="st5" d="M335.9,321.1v-6.7c0-2,1-3.2,3-3.2c2,0,3,1.2,3,3.2v1.1h-1.9v-1.2c0-0.9-0.4-1.3-1-1.3s-1,0.3-1,1.3v7
			c0,0.9,0.4,1.2,1,1.2s1-0.3,1-1.2v-2.5h-1v-1.8h2.9v4.2c0,2-1,3.2-3,3.2C336.9,324.3,335.9,323.1,335.9,321.1z"/>
		<path class="st5" d="M345.3,311.4h5.5v1.8h-3.5v3.4h2.7v1.8h-2.7v3.9h3.5v1.8h-5.5V311.4z"/>
	</g>
</g>
</svg>
