<svg xmlns="http://www.w3.org/2000/svg" width="69.822" height="75" viewBox="0 0 69.822 75">
  <path id="Контур_1383" data-name="Контур 1383" d="M-4461.046,2976.119a6.622,6.622,0,0,0-4.522,1.777l-33.835,31.457a5.836,5.836,0,0,0-1.857,4.261,5.841,5.841,0,0,0,1.856,4.263l33.836,31.465a6.621,6.621,0,0,0,4.522,1.777,6.665,6.665,0,0,0,4.861-2.115l1.123-1.206a6.6,6.6,0,0,0,1.777-4.765,6.6,6.6,0,0,0-2.116-4.626l-18.633-17.321h35.135a7.481,7.481,0,0,0,5.5-2.42,7.488,7.488,0,0,0,1.933-5.7h0a7.633,7.633,0,0,0-7.661-6.805h-34.923l18.649-17.329a6.6,6.6,0,0,0,2.116-4.626,6.6,6.6,0,0,0-1.777-4.766l-1.123-1.206A6.665,6.665,0,0,0-4461.046,2976.119Z" transform="translate(4501.26 -2976.119)"/>
</svg>
