<?xml version="1.0" encoding="utf-8"?>
<!-- Generator: Adobe Illustrator 24.2.3, SVG Export Plug-In . SVG Version: 6.00 Build 0)  -->
<svg version="1.1" id="Calque_1" xmlns="http://www.w3.org/2000/svg" xmlns:xlink="http://www.w3.org/1999/xlink" x="0px" y="0px"
	 viewBox="0 0 39.7 55" style="enable-background:new 0 0 39.7 55;" xml:space="preserve">
<style type="text/css">
	.st0{fill:#FFFFFF;}
</style>
<g id="Calque_1_1_">
</g>
<g id="Mode_Isolation">
	<path class="st0" d="M33.6,0.8c-0.2-0.1-0.5-0.2-0.8-0.3c-1-0.3-2.1-0.5-3.2-0.5h-0.9h-0.6h-3.7H24h-3.7h-0.6H16h-0.6h-3.7h-0.6h-1
		C9.2,0,8.4,0.1,7.6,0.3c-0.2,0-0.3,0.1-0.5,0.1c-1,0.3-2,0.8-2.8,1.4C4.1,2,4,2.1,3.8,2.2C3,2.9,2.2,3.7,1.6,4.7
		C1.5,4.8,1.4,5,1.3,5.2C0.6,6.4,0.2,7.8,0.1,9.3c0,0.2,0,0.4,0,0.7v0.3v6.1v1v6.1v1v6.1v1v6.1v1v6.1L0,45c0,0.3,0,0.6,0,0.9
		c0.2,2.3,1.2,4.5,2.9,6.2c0.5,0.5,1.1,1,1.7,1.3c0.3,0.2,0.6,0.4,0.9,0.5C6.8,54.6,8.3,55,9.8,55c0.1,0,0.1,0,0.2,0
		c0.1,0,0.3,0,0.4,0c1.2,0,2.3-0.3,3.3-0.7c0.2-0.1,0.3-0.1,0.5-0.2c1-0.4,1.9-1,2.6-1.8c0.1-0.1,0.3-0.2,0.4-0.4
		c0.8-0.8,1.5-1.8,2-2.9c0.1-0.2,0.2-0.4,0.2-0.6c0.4-1.1,0.6-2.2,0.6-3.4v-1.7v-1v-6.1v-1v-6.1v-0.2c0-0.2,0-0.5,0-0.7
		c0.1-1.5,0.6-2.8,1.3-4c0.1-0.2,0.2-0.3,0.3-0.5c0.6-0.9,1.4-1.7,2.3-2.3c0.1-0.1,0.3-0.2,0.4-0.3c0.9-0.5,1.9-0.9,3-1.1
		c0.2,0,0.4-0.1,0.5-0.1c0.3,0,0.7-0.1,1-0.1h0.7c0.6,0,1.3-0.1,1.9-0.2c0.2,0,0.3-0.1,0.5-0.1c1.1-0.3,2.1-0.7,3-1.3
		c0.1-0.1,0.3-0.2,0.4-0.3c0.9-0.6,1.7-1.4,2.3-2.3c0.1-0.1,0.2-0.3,0.3-0.5c0.7-1.1,1.2-2.4,1.4-3.8c0-0.3,0.1-0.5,0.1-0.8
		s0-0.6,0-0.8C39.7,5.9,37.2,2.3,33.6,0.8z M38.7,9.2l-4-6.7C36.9,3.9,38.4,6.4,38.7,9.2z M4.3,52l-3.1-5.2C1.1,46.2,1,45.6,1,45
		v-4.6L9.2,54C7.4,53.8,5.7,53.1,4.3,52z M10,54c-0.1,0-0.1,0-0.2,0L1,39.4v-6.1l12.2,20.2C12.2,53.8,11.1,54,10,54z M13.6,53.2
		L1,32.2v-6.1l15.2,25.3C15.5,52.2,14.6,52.8,13.6,53.2z M16.6,51L1,25.1V19l17.4,29C18.1,49.1,17.5,50.2,16.6,51z M19,45
		c0,0.8-0.1,1.6-0.3,2.3L1.1,18v-6.1L19,41.7V45z M19,40.7L1.1,10.9V10c0-1.4,0.3-2.6,0.9-3.8l17,28.4V40.7z M19.1,29v4.7L2.2,5.7
		c0.6-1,1.3-1.9,2.2-2.6l14.8,24.6C19.1,28.1,19.1,28.5,19.1,29z M19.3,26.9L4.8,2.8c0.9-0.6,1.8-1.1,2.9-1.4l13.2,22
		C20.1,24.4,19.6,25.6,19.3,26.9z M21.2,22.9L8.1,1.2C8.8,1.1,9.4,1,10.1,1h1.6l11.8,19.7C22.6,21.3,21.8,22,21.2,22.9z M24,20.4
		L12.3,1H16l11,18.2C25.9,19.5,24.9,19.9,24,20.4z M29.7,19H29c-0.5,0-1.1,0.1-1.6,0.1L16.6,1h3.7l10.8,17.9
		C30.6,19,30.2,19,29.7,19z M31.6,18.8L20.9,1h3.7l10,16.6C33.7,18.2,32.7,18.6,31.6,18.8z M35,17.3L25.2,1h3.7l8.4,13.9
		C36.7,15.8,35.9,16.6,35,17.3z M37.6,14.4L29.5,1h0.3c1.4,0,2.8,0.4,4,1l5,8.2C38.7,11.7,38.3,13.2,37.6,14.4z"/>
</g>
</svg>
