<?xml version="1.0" encoding="utf-8"?>
<!-- Generator: Adobe Illustrator 24.2.3, SVG Export Plug-In . SVG Version: 6.00 Build 0)  -->
<svg version="1.1" id="Calque_1" xmlns="http://www.w3.org/2000/svg" xmlns:xlink="http://www.w3.org/1999/xlink" x="0px" y="0px"
	 viewBox="0 0 230 22" style="enable-background:new 0 0 230 22;" xml:space="preserve">
<style type="text/css">
	.st0{fill:#9D1915;}
</style>
<g>
	<polygon class="st0" points="0,18 2.5,22 3.1,22 0,17.1 	"/>
	<polygon class="st0" points="0,11.4 6.6,22 7.2,22 0,10.4 	"/>
	<polygon class="st0" points="0,4.8 10.7,22 11.3,22 0,3.8 	"/>
	<polygon class="st0" points="1,0 14.7,22 15.3,22 1.7,0 	"/>
	<polygon class="st0" points="5.1,0 18.8,22 19.4,22 5.7,0 	"/>
	<polygon class="st0" points="9.1,0 22.8,22 23.4,22 9.8,0 	"/>
	<polygon class="st0" points="13.2,0 26.9,22 27.5,22 13.8,0 	"/>
	<polygon class="st0" points="17.2,0 30.9,22 31.5,22 17.9,0 	"/>
	<polygon class="st0" points="21.3,0 35,22 35.6,22 21.9,0 	"/>
	<polygon class="st0" points="25.3,0 39,22 39.6,22 25.9,0 	"/>
	<polygon class="st0" points="29.4,0 43,22 43.7,22 30,0 	"/>
	<polygon class="st0" points="33.4,0 47.1,22 47.7,22 34,0 	"/>
	<polygon class="st0" points="37.5,0 51.1,22 51.8,22 38.1,0 	"/>
	<polygon class="st0" points="41.5,0 55.2,22 55.8,22 42.1,0 	"/>
	<polygon class="st0" points="45.6,0 59.2,22 59.9,22 46.2,0 	"/>
	<polygon class="st0" points="49.6,0 63.3,22 63.9,22 50.2,0 	"/>
	<polygon class="st0" points="53.7,0 67.3,22 68,22 54.3,0 	"/>
	<polygon class="st0" points="57.7,0 71.4,22 72,22 58.3,0 	"/>
	<polygon class="st0" points="61.8,0 75.4,22 76,22 62.4,0 	"/>
	<polygon class="st0" points="65.8,0 79.5,22 80.1,22 66.4,0 	"/>
	<polygon class="st0" points="69.8,0 83.5,22 84.1,22 70.5,0 	"/>
	<polygon class="st0" points="73.9,0 87.6,22 88.2,22 74.5,0 	"/>
	<polygon class="st0" points="77.9,0 91.6,22 92.2,22 78.6,0 	"/>
	<polygon class="st0" points="82,0 95.7,22 96.3,22 82.6,0 	"/>
	<polygon class="st0" points="86,0 99.7,22 100.3,22 86.7,0 	"/>
	<polygon class="st0" points="90.1,0 103.8,22 104.4,22 90.7,0 	"/>
	<polygon class="st0" points="94.1,0 107.8,22 108.4,22 94.8,0 	"/>
	<polygon class="st0" points="98.2,0 111.9,22 112.5,22 98.8,0 	"/>
	<polygon class="st0" points="102.2,0 115.9,22 116.5,22 102.8,0 	"/>
	<polygon class="st0" points="106.3,0 119.9,22 120.6,22 106.9,0 	"/>
	<polygon class="st0" points="110.3,0 124,22 124.6,22 110.9,0 	"/>
	<polygon class="st0" points="114.4,0 128,22 128.7,22 115,0 	"/>
	<polygon class="st0" points="118.4,0 132.1,22 132.7,22 119,0 	"/>
	<polygon class="st0" points="122.5,0 136.1,22 136.8,22 123.1,0 	"/>
	<polygon class="st0" points="126.5,0 140.2,22 140.8,22 127.1,0 	"/>
	<polygon class="st0" points="130.6,0 144.2,22 144.9,22 131.2,0 	"/>
	<polygon class="st0" points="134.6,0 148.3,22 148.9,22 135.2,0 	"/>
	<polygon class="st0" points="138.7,0 152.3,22 152.9,22 139.3,0 	"/>
	<polygon class="st0" points="142.7,0 156.4,22 157,22 143.3,0 	"/>
	<polygon class="st0" points="146.7,0 160.4,22 161,22 147.4,0 	"/>
	<polygon class="st0" points="150.8,0 164.5,22 165.1,22 151.4,0 	"/>
	<polygon class="st0" points="154.8,0 168.5,22 169.1,22 155.5,0 	"/>
	<polygon class="st0" points="158.9,0 172.6,22 173.2,22 159.5,0 	"/>
	<polygon class="st0" points="162.9,0 176.6,22 177.2,22 163.6,0 	"/>
	<polygon class="st0" points="167,0 180.7,22 181.3,22 167.6,0 	"/>
	<polygon class="st0" points="171,0 184.7,22 185.3,22 171.7,0 	"/>
	<polygon class="st0" points="175.1,0 188.7,22 189.4,22 175.7,0 	"/>
	<polygon class="st0" points="179.1,0 192.8,22 193.4,22 179.7,0 	"/>
	<polygon class="st0" points="183.2,0 196.8,22 197.5,22 183.8,0 	"/>
	<polygon class="st0" points="187.2,0 200.9,22 201.5,22 187.8,0 	"/>
	<polygon class="st0" points="191.3,0 204.9,22 205.6,22 191.9,0 	"/>
	<polygon class="st0" points="195.3,0 209,22 209.6,22 195.9,0 	"/>
	<polygon class="st0" points="199.4,0 213,22 213.7,22 200,0 	"/>
	<polygon class="st0" points="203.4,0 217.1,22 217.7,22 204,0 	"/>
	<polygon class="st0" points="207.5,0 221.1,22 221.7,22 208.1,0 	"/>
	<polygon class="st0" points="211.5,0 225.2,22 225.8,22 212.1,0 	"/>
	<polygon class="st0" points="215.6,0 229.2,22 229.8,22 216.2,0 	"/>
	<polygon class="st0" points="219.6,0 230,16.7 230,15.7 220.2,0 	"/>
	<polygon class="st0" points="223.6,0 230,10.2 230,9.2 224.3,0 	"/>
	<polygon class="st0" points="230,2.7 228.3,0 227.7,0 230,3.7 	"/>
</g>
</svg>
