<svg xmlns="http://www.w3.org/2000/svg" xmlns:xlink="http://www.w3.org/1999/xlink" width="39.738" height="54.991" viewBox="0 0 39.738 54.991">
  <defs>
    <clipPath id="clip-path">
      <path id="Контур_19612" data-name="Контур 19612" d="M1026.925,570.213a9.5,9.5,0,0,1,9.5-9.5h19.656a9.5,9.5,0,0,1,9.5,9.478l.082,34.99a9.5,9.5,0,0,1-9.5,9.523h-.012a9.5,9.5,0,0,1-9.5-9.466l-.058-16.059a9.5,9.5,0,0,0-9.5-9.466h-.668a9.5,9.5,0,0,1-9.5-9.5Z" fill="none" stroke="#f2f2f2" stroke-miterlimit="10" stroke-width="1"/>
    </clipPath>
  </defs>
  <g id="Сгруппировать_33588" data-name="Сгруппировать 33588" transform="translate(-1026.425 -560.213)">
    <g id="Сгруппировать_33587" data-name="Сгруппировать 33587" clip-path="url(#clip-path)">
      <g id="Сгруппировать_33586" data-name="Сгруппировать 33586">
        <g id="Сгруппировать_33585" data-name="Сгруппировать 33585">
          <g id="Сгруппировать_33584" data-name="Сгруппировать 33584">
            <line id="Линия_137248" data-name="Линия 137248" x2="90.926" y2="151.066" transform="translate(968.518 511.85)" fill="none" stroke="#f2f2f2" stroke-miterlimit="10" stroke-width="1"/>
            <line id="Линия_137249" data-name="Линия 137249" x2="90.926" y2="151.066" transform="translate(972.814 511.85)" fill="none" stroke="#f2f2f2" stroke-miterlimit="10" stroke-width="1"/>
            <line id="Линия_137250" data-name="Линия 137250" x2="90.926" y2="151.066" transform="translate(977.11 511.85)" fill="none" stroke="#f2f2f2" stroke-miterlimit="10" stroke-width="1"/>
            <line id="Линия_137251" data-name="Линия 137251" x2="90.926" y2="151.066" transform="translate(981.406 511.85)" fill="none" stroke="#f2f2f2" stroke-miterlimit="10" stroke-width="1"/>
            <line id="Линия_137252" data-name="Линия 137252" x2="90.926" y2="151.066" transform="translate(985.701 511.85)" fill="none" stroke="#f2f2f2" stroke-miterlimit="10" stroke-width="1"/>
            <line id="Линия_137253" data-name="Линия 137253" x2="90.926" y2="151.066" transform="translate(989.997 511.85)" fill="none" stroke="#f2f2f2" stroke-miterlimit="10" stroke-width="1"/>
            <line id="Линия_137254" data-name="Линия 137254" x2="90.926" y2="151.066" transform="translate(994.293 511.85)" fill="none" stroke="#f2f2f2" stroke-miterlimit="10" stroke-width="1"/>
            <line id="Линия_137255" data-name="Линия 137255" x2="90.926" y2="151.066" transform="translate(998.588 511.85)" fill="none" stroke="#f2f2f2" stroke-miterlimit="10" stroke-width="1"/>
            <line id="Линия_137256" data-name="Линия 137256" x2="90.926" y2="151.066" transform="translate(1002.884 511.85)" fill="none" stroke="#f2f2f2" stroke-miterlimit="10" stroke-width="1"/>
            <line id="Линия_137257" data-name="Линия 137257" x2="90.926" y2="151.066" transform="translate(1007.18 511.85)" fill="none" stroke="#f2f2f2" stroke-miterlimit="10" stroke-width="1"/>
            <line id="Линия_137258" data-name="Линия 137258" x2="90.926" y2="151.066" transform="translate(1011.476 511.85)" fill="none" stroke="#f2f2f2" stroke-miterlimit="10" stroke-width="1"/>
            <line id="Линия_137259" data-name="Линия 137259" x2="90.926" y2="151.066" transform="translate(1015.771 511.85)" fill="none" stroke="#f2f2f2" stroke-miterlimit="10" stroke-width="1"/>
            <line id="Линия_137260" data-name="Линия 137260" x2="90.926" y2="151.066" transform="translate(1020.067 511.85)" fill="none" stroke="#f2f2f2" stroke-miterlimit="10" stroke-width="1"/>
            <line id="Линия_137261" data-name="Линия 137261" x2="90.926" y2="151.066" transform="translate(1024.363 511.85)" fill="none" stroke="#f2f2f2" stroke-miterlimit="10" stroke-width="1"/>
            <line id="Линия_137262" data-name="Линия 137262" x2="90.926" y2="151.066" transform="translate(1028.658 511.85)" fill="none" stroke="#f2f2f2" stroke-miterlimit="10" stroke-width="1"/>
            <line id="Линия_137263" data-name="Линия 137263" x2="90.926" y2="151.066" transform="translate(1032.954 511.85)" fill="none" stroke="#f2f2f2" stroke-miterlimit="10" stroke-width="1"/>
            <line id="Линия_137264" data-name="Линия 137264" x2="90.926" y2="151.066" transform="translate(1037.25 511.85)" fill="none" stroke="#f2f2f2" stroke-miterlimit="10" stroke-width="1"/>
            <line id="Линия_137265" data-name="Линия 137265" x2="90.926" y2="151.066" transform="translate(1041.546 511.85)" fill="none" stroke="#f2f2f2" stroke-miterlimit="10" stroke-width="1"/>
            <line id="Линия_137266" data-name="Линия 137266" x2="90.926" y2="151.066" transform="translate(1045.841 511.85)" fill="none" stroke="#f2f2f2" stroke-miterlimit="10" stroke-width="1"/>
          </g>
        </g>
      </g>
    </g>
    <path id="Контур_19613" data-name="Контур 19613" d="M1026.925,570.213a9.5,9.5,0,0,1,9.5-9.5h19.656a9.5,9.5,0,0,1,9.5,9.478l.082,34.99a9.5,9.5,0,0,1-9.5,9.523h-.012a9.5,9.5,0,0,1-9.5-9.466l-.058-16.059a9.5,9.5,0,0,0-9.5-9.466h-.668a9.5,9.5,0,0,1-9.5-9.5Z" fill="none" stroke="#f2f2f2" stroke-miterlimit="10" stroke-width="1"/>
  </g>
</svg>
